%TF.GenerationSoftware,KiCad,Pcbnew,7.0.10*%
%TF.CreationDate,2024-01-15T23:57:51+02:00*%
%TF.ProjectId,snak_final,736e616b-5f66-4696-9e61-6c2e6b696361,0.1*%
%TF.SameCoordinates,Original*%
%TF.FileFunction,Paste,Top*%
%TF.FilePolarity,Positive*%
%FSLAX46Y46*%
G04 Gerber Fmt 4.6, Leading zero omitted, Abs format (unit mm)*
G04 Created by KiCad (PCBNEW 7.0.10) date 2024-01-15 23:57:51*
%MOMM*%
%LPD*%
G01*
G04 APERTURE LIST*
G04 Aperture macros list*
%AMRotRect*
0 Rectangle, with rotation*
0 The origin of the aperture is its center*
0 $1 length*
0 $2 width*
0 $3 Rotation angle, in degrees counterclockwise*
0 Add horizontal line*
21,1,$1,$2,0,0,$3*%
G04 Aperture macros list end*
%ADD10R,2.600000X2.600000*%
%ADD11RotRect,2.600000X2.600000X345.000000*%
%ADD12RotRect,2.600000X2.600000X335.000000*%
%ADD13R,0.900000X1.200000*%
%ADD14RotRect,0.900000X1.200000X345.000000*%
%ADD15RotRect,0.900000X1.200000X335.000000*%
%ADD16R,1.000000X0.800000*%
%ADD17R,0.700000X1.500000*%
%ADD18RotRect,1.400000X1.050000X213.000000*%
G04 APERTURE END LIST*
D10*
%TO.C,S1*%
X91725000Y-96250000D03*
%TD*%
%TO.C,S2*%
X91725000Y-78750000D03*
%TD*%
%TO.C,S3*%
X91725000Y-61250000D03*
%TD*%
%TO.C,S4*%
X110225000Y-84250000D03*
%TD*%
%TO.C,S5*%
X110225000Y-66750000D03*
%TD*%
%TO.C,S6*%
X110225000Y-49250000D03*
%TD*%
%TO.C,S7*%
X128725000Y-78250000D03*
%TD*%
%TO.C,S8*%
X128725000Y-60750000D03*
%TD*%
%TO.C,S9*%
X128725000Y-43250000D03*
%TD*%
%TO.C,S10*%
X147225000Y-84250000D03*
%TD*%
%TO.C,S11*%
X147225000Y-66750000D03*
%TD*%
%TO.C,S12*%
X147225000Y-49250000D03*
%TD*%
%TO.C,S13*%
X165725000Y-87250000D03*
%TD*%
%TO.C,S14*%
X165725000Y-69750000D03*
%TD*%
%TO.C,S15*%
X165725000Y-52250000D03*
%TD*%
D11*
%TO.C,S16*%
X159477535Y-107486051D03*
%TD*%
D12*
%TO.C,S17*%
X183184999Y-114739170D03*
%TD*%
D13*
%TO.C,D1*%
X101650000Y-105000000D03*
X98350000Y-105000000D03*
%TD*%
%TO.C,D2*%
X101650000Y-87500000D03*
X98350000Y-87500000D03*
%TD*%
%TO.C,D3*%
X101650000Y-70000000D03*
X98350000Y-70000000D03*
%TD*%
%TO.C,D4*%
X120150000Y-93000000D03*
X116850000Y-93000000D03*
%TD*%
%TO.C,D5*%
X120150000Y-75500000D03*
X116850000Y-75500000D03*
%TD*%
%TO.C,D6*%
X120150000Y-58000000D03*
X116850000Y-58000000D03*
%TD*%
%TO.C,D7*%
X138650000Y-87000000D03*
X135350000Y-87000000D03*
%TD*%
%TO.C,D8*%
X138650000Y-69500000D03*
X135350000Y-69500000D03*
%TD*%
%TO.C,D9*%
X138650000Y-52000000D03*
X135350000Y-52000000D03*
%TD*%
%TO.C,D10*%
X157150000Y-93000000D03*
X153850000Y-93000000D03*
%TD*%
%TO.C,D11*%
X157150000Y-75500000D03*
X153850000Y-75500000D03*
%TD*%
%TO.C,D12*%
X157150000Y-58000000D03*
X153850000Y-58000000D03*
%TD*%
%TO.C,D13*%
X175650000Y-96000000D03*
X172350000Y-96000000D03*
%TD*%
%TO.C,D14*%
X175650000Y-78500000D03*
X172350000Y-78500000D03*
%TD*%
%TO.C,D15*%
X175650000Y-61000000D03*
X172350000Y-61000000D03*
%TD*%
D14*
%TO.C,D16*%
X166799683Y-118506680D03*
X163612127Y-117652578D03*
%TD*%
D15*
%TO.C,D17*%
X188482194Y-126863849D03*
X185491378Y-125469209D03*
%TD*%
D16*
%TO.C,SW1*%
X196950000Y-56025000D03*
D17*
X191050000Y-58885000D03*
X192550000Y-58885000D03*
X195550000Y-58885000D03*
D16*
X196950000Y-58235000D03*
X189650000Y-58235000D03*
X189650000Y-56025000D03*
%TD*%
D18*
%TO.C,SW2*%
X100117467Y-48415807D03*
X97098253Y-50376507D03*
X100901747Y-49623493D03*
X97882533Y-51584193D03*
%TD*%
M02*
