%TF.GenerationSoftware,KiCad,Pcbnew,7.0.10*%
%TF.CreationDate,2024-01-15T23:57:52+02:00*%
%TF.ProjectId,snak_final,736e616b-5f66-4696-9e61-6c2e6b696361,0.1*%
%TF.SameCoordinates,Original*%
%TF.FileFunction,Soldermask,Bot*%
%TF.FilePolarity,Negative*%
%FSLAX46Y46*%
G04 Gerber Fmt 4.6, Leading zero omitted, Abs format (unit mm)*
G04 Created by KiCad (PCBNEW 7.0.10) date 2024-01-15 23:57:52*
%MOMM*%
%LPD*%
G01*
G04 APERTURE LIST*
G04 Aperture macros list*
%AMRoundRect*
0 Rectangle with rounded corners*
0 $1 Rounding radius*
0 $2 $3 $4 $5 $6 $7 $8 $9 X,Y pos of 4 corners*
0 Add a 4 corners polygon primitive as box body*
4,1,4,$2,$3,$4,$5,$6,$7,$8,$9,$2,$3,0*
0 Add four circle primitives for the rounded corners*
1,1,$1+$1,$2,$3*
1,1,$1+$1,$4,$5*
1,1,$1+$1,$6,$7*
1,1,$1+$1,$8,$9*
0 Add four rect primitives between the rounded corners*
20,1,$1+$1,$2,$3,$4,$5,0*
20,1,$1+$1,$4,$5,$6,$7,0*
20,1,$1+$1,$6,$7,$8,$9,0*
20,1,$1+$1,$8,$9,$2,$3,0*%
%AMFreePoly0*
4,1,15,1.335355,1.335355,1.350000,1.300000,1.350000,-1.300000,1.335355,-1.335355,1.300000,-1.350000,-0.050000,-1.350000,-0.082160,-1.338285,-1.332160,-0.288285,-1.349812,-0.254331,-1.350000,-0.250000,-1.350000,1.300000,-1.335355,1.335355,-1.300000,1.350000,1.300000,1.350000,1.335355,1.335355,1.335355,1.335355,$1*%
%AMFreePoly1*
4,1,16,-0.214645,0.660355,-0.210957,0.656235,0.289043,0.031235,0.299694,-0.005522,0.289043,-0.031235,-0.210957,-0.656235,-0.244478,-0.674694,-0.250000,-0.675000,-0.500000,-0.675000,-0.535355,-0.660355,-0.550000,-0.625000,-0.550000,0.625000,-0.535355,0.660355,-0.500000,0.675000,-0.250000,0.675000,-0.214645,0.660355,-0.214645,0.660355,$1*%
%AMFreePoly2*
4,1,16,0.535355,0.660355,0.550000,0.625000,0.550000,-0.625000,0.535355,-0.660355,0.500000,-0.675000,-0.650000,-0.675000,-0.685355,-0.660355,-0.700000,-0.625000,-0.689043,-0.593765,-0.214031,0.000000,-0.689043,0.593765,-0.699694,0.630522,-0.681235,0.664043,-0.650000,0.675000,0.500000,0.675000,0.535355,0.660355,0.535355,0.660355,$1*%
%AMFreePoly3*
4,1,16,0.635355,0.285355,0.650000,0.250000,0.650000,-1.000000,0.635355,-1.035355,0.600000,-1.050000,0.564645,-1.035355,0.000000,-0.470710,-0.564645,-1.035355,-0.600000,-1.050000,-0.635355,-1.035355,-0.650000,-1.000000,-0.650000,0.250000,-0.635355,0.285355,-0.600000,0.300000,0.600000,0.300000,0.635355,0.285355,0.635355,0.285355,$1*%
%AMFreePoly4*
4,1,14,0.035355,0.435355,0.635355,-0.164645,0.650000,-0.200000,0.650000,-0.400000,0.635355,-0.435355,0.600000,-0.450000,-0.600000,-0.450000,-0.635355,-0.435355,-0.650000,-0.400000,-0.650000,-0.200000,-0.635355,-0.164645,-0.035355,0.435355,0.000000,0.450000,0.035355,0.435355,0.035355,0.435355,$1*%
G04 Aperture macros list end*
%ADD10C,3.100000*%
%ADD11RoundRect,0.050000X-1.300000X-1.300000X1.300000X-1.300000X1.300000X1.300000X-1.300000X1.300000X0*%
%ADD12FreePoly0,0.000000*%
%ADD13C,1.801800*%
%ADD14C,3.529000*%
%ADD15RoundRect,0.050000X-1.592168X-0.919239X0.919239X-1.592168X1.592168X0.919239X-0.919239X1.592168X0*%
%ADD16FreePoly0,345.000000*%
%ADD17RoundRect,0.050000X-1.727604X-0.628796X0.628796X-1.727604X1.727604X0.628796X-0.628796X1.727604X0*%
%ADD18FreePoly0,335.000000*%
%ADD19C,2.005000*%
%ADD20RoundRect,0.050000X-0.889000X-0.889000X0.889000X-0.889000X0.889000X0.889000X-0.889000X0.889000X0*%
%ADD21RoundRect,0.050000X-0.450000X-0.600000X0.450000X-0.600000X0.450000X0.600000X-0.450000X0.600000X0*%
%ADD22RoundRect,0.050000X-1.088798X-0.628618X0.628618X-1.088798X1.088798X0.628618X-0.628618X1.088798X0*%
%ADD23RoundRect,0.050000X-0.589958X-0.463087X0.279375X-0.696024X0.589958X0.463087X-0.279375X0.696024X0*%
%ADD24RoundRect,0.050000X-1.181415X-0.430000X0.430000X-1.181415X1.181415X0.430000X-0.430000X1.181415X0*%
%ADD25RoundRect,0.050000X-0.661409X-0.353606X0.154268X-0.733963X0.661409X0.353606X-0.154268X0.733963X0*%
%ADD26FreePoly1,180.000000*%
%ADD27FreePoly2,180.000000*%
%ADD28FreePoly2,0.000000*%
%ADD29FreePoly1,0.000000*%
%ADD30C,0.900000*%
%ADD31C,1.800000*%
%ADD32O,1.800000X1.800000*%
%ADD33RoundRect,0.050000X-0.600000X0.300000X-0.600000X-0.300000X0.600000X-0.300000X0.600000X0.300000X0*%
%ADD34C,1.000000*%
%ADD35RoundRect,0.050000X-0.500000X-0.400000X0.500000X-0.400000X0.500000X0.400000X-0.500000X0.400000X0*%
%ADD36RoundRect,0.050000X-0.350000X-0.750000X0.350000X-0.750000X0.350000X0.750000X-0.350000X0.750000X0*%
%ADD37FreePoly3,90.000000*%
%ADD38FreePoly4,90.000000*%
%ADD39O,1.850000X1.300000*%
%ADD40RoundRect,0.050000X-0.301134X-0.821549X0.873005X-0.059055X0.301134X0.821549X-0.873005X0.059055X0*%
%ADD41C,3.900000*%
G04 APERTURE END LIST*
%TO.C,G\u002A\u002A\u002A*%
G36*
X136380304Y-94025223D02*
G01*
X136444495Y-94139066D01*
X136462170Y-94180542D01*
X136505659Y-94335403D01*
X136534502Y-94527741D01*
X136547230Y-94726499D01*
X136542377Y-94900619D01*
X136518476Y-95019044D01*
X136502972Y-95044147D01*
X136473891Y-95020963D01*
X136439723Y-94908650D01*
X136403816Y-94719324D01*
X136392502Y-94644423D01*
X136360490Y-94428657D01*
X136330609Y-94240301D01*
X136307848Y-94110386D01*
X136302359Y-94083900D01*
X136294892Y-93988965D01*
X136325655Y-93972298D01*
X136380304Y-94025223D01*
G37*
G36*
X128230194Y-93697746D02*
G01*
X128198102Y-93857327D01*
X128131001Y-94108153D01*
X128049533Y-94382170D01*
X127924776Y-94781979D01*
X127822582Y-95094444D01*
X127743827Y-95317148D01*
X127689388Y-95447678D01*
X127660139Y-95483620D01*
X127655422Y-95468200D01*
X127663204Y-95345031D01*
X127695062Y-95150675D01*
X127744809Y-94910933D01*
X127806257Y-94651603D01*
X127873217Y-94398487D01*
X127939502Y-94177384D01*
X127998922Y-94014095D01*
X128010201Y-93989033D01*
X128117283Y-93775054D01*
X128189699Y-93655752D01*
X128227365Y-93630269D01*
X128230194Y-93697746D01*
G37*
G36*
X129751675Y-100718200D02*
G01*
X129972716Y-100752571D01*
X130191200Y-100794962D01*
X130451868Y-100848768D01*
X130703534Y-100898108D01*
X130913847Y-100936778D01*
X131029400Y-100955692D01*
X131170873Y-100980521D01*
X131221350Y-101003371D01*
X131191174Y-101029523D01*
X131181800Y-101033468D01*
X131044484Y-101061553D01*
X130836390Y-101071902D01*
X130586639Y-101065270D01*
X130324354Y-101042413D01*
X130082959Y-101004949D01*
X129872561Y-100953364D01*
X129671099Y-100888157D01*
X129549559Y-100836500D01*
X129431231Y-100772876D01*
X129395000Y-100738234D01*
X129432188Y-100715928D01*
X129480000Y-100703086D01*
X129579019Y-100700618D01*
X129751675Y-100718200D01*
G37*
G36*
X136142352Y-94153455D02*
G01*
X136188097Y-94252137D01*
X136241614Y-94401218D01*
X136294277Y-94576662D01*
X136337466Y-94754430D01*
X136337711Y-94755610D01*
X136366050Y-94949051D01*
X136371301Y-95165945D01*
X136353606Y-95438191D01*
X136341312Y-95558969D01*
X136308188Y-95815888D01*
X136274042Y-96000527D01*
X136241668Y-96107373D01*
X136213862Y-96130912D01*
X136193417Y-96065630D01*
X136183129Y-95906013D01*
X136182620Y-95872060D01*
X136178456Y-95705922D01*
X136169210Y-95468354D01*
X136156190Y-95189325D01*
X136140704Y-94898803D01*
X136138395Y-94858600D01*
X136124614Y-94601324D01*
X136115073Y-94382848D01*
X136110424Y-94221916D01*
X136111319Y-94137273D01*
X136112999Y-94129209D01*
X136142352Y-94153455D01*
G37*
G36*
X129046250Y-92763674D02*
G01*
X129031059Y-92860078D01*
X129060998Y-92882103D01*
X129093348Y-92872539D01*
X129162097Y-92869687D01*
X129175200Y-92892395D01*
X129132317Y-92942359D01*
X129027991Y-92994857D01*
X129017111Y-92998770D01*
X128902950Y-93061094D01*
X128887092Y-93127026D01*
X128875589Y-93214939D01*
X128833648Y-93267385D01*
X128764102Y-93340695D01*
X128658310Y-93469901D01*
X128538485Y-93627803D01*
X128531868Y-93636864D01*
X128427089Y-93775141D01*
X128349989Y-93866371D01*
X128314666Y-93894130D01*
X128313841Y-93890864D01*
X128339408Y-93741471D01*
X128394886Y-93558581D01*
X128464944Y-93385014D01*
X128534245Y-93263592D01*
X128541649Y-93254709D01*
X128602941Y-93165859D01*
X128583894Y-93121943D01*
X128578300Y-93119744D01*
X128518008Y-93071259D01*
X128548561Y-93014231D01*
X128629100Y-92976819D01*
X128736453Y-92920965D01*
X128868100Y-92822388D01*
X128912201Y-92782896D01*
X129081003Y-92623400D01*
X129046250Y-92763674D01*
G37*
G36*
X134438286Y-92308264D02*
G01*
X134565279Y-92379707D01*
X134698739Y-92467219D01*
X134788600Y-92535679D01*
X134918265Y-92658416D01*
X135027992Y-92786121D01*
X135034540Y-92795232D01*
X135128081Y-92928200D01*
X135094231Y-92777179D01*
X135074963Y-92675875D01*
X135093067Y-92660610D01*
X135160204Y-92716496D01*
X135245498Y-92824039D01*
X135347723Y-92995806D01*
X135451114Y-93199826D01*
X135539904Y-93404130D01*
X135598329Y-93576746D01*
X135609245Y-93627105D01*
X135614107Y-93795977D01*
X135588114Y-93969831D01*
X135588075Y-93969973D01*
X135540058Y-94147400D01*
X135479871Y-93931500D01*
X135441063Y-93801429D01*
X135413194Y-93724521D01*
X135407146Y-93715600D01*
X135403613Y-93762726D01*
X135404228Y-93889607D01*
X135408717Y-94074490D01*
X135413408Y-94210900D01*
X135416382Y-94439494D01*
X135408771Y-94641974D01*
X135392159Y-94788552D01*
X135380323Y-94833200D01*
X135350918Y-94892436D01*
X135334368Y-94880116D01*
X135326420Y-94784735D01*
X135323978Y-94680800D01*
X135312007Y-94468245D01*
X135279483Y-94242525D01*
X135221128Y-93972852D01*
X135164542Y-93750710D01*
X135114726Y-93619921D01*
X135030449Y-93533432D01*
X134887436Y-93460415D01*
X134733145Y-93386907D01*
X134671107Y-93339777D01*
X134702333Y-93321824D01*
X134827831Y-93335848D01*
X134843511Y-93338722D01*
X135025423Y-93372849D01*
X134898291Y-93121967D01*
X134796539Y-92947228D01*
X134659612Y-92744795D01*
X134538579Y-92585568D01*
X134424984Y-92442255D01*
X134342148Y-92330380D01*
X134306364Y-92272059D01*
X134306000Y-92269921D01*
X134343334Y-92266974D01*
X134438286Y-92308264D01*
G37*
G36*
X132987004Y-89586233D02*
G01*
X133200155Y-89617859D01*
X133476758Y-89662565D01*
X133780491Y-89707930D01*
X134053274Y-89745342D01*
X134096412Y-89750790D01*
X134414867Y-89806989D01*
X134692121Y-89898423D01*
X134877802Y-89984940D01*
X135202702Y-90143455D01*
X135472840Y-90256654D01*
X135718380Y-90334989D01*
X135969488Y-90388914D01*
X136103111Y-90409510D01*
X136534857Y-90512546D01*
X136901470Y-90693277D01*
X137204978Y-90953160D01*
X137447409Y-91293654D01*
X137514460Y-91424180D01*
X137629956Y-91635447D01*
X137770422Y-91846751D01*
X137884581Y-91988400D01*
X138137582Y-92297737D01*
X138393687Y-92674786D01*
X138633811Y-93088111D01*
X138838868Y-93506278D01*
X138911622Y-93680037D01*
X138998138Y-93904427D01*
X139068695Y-94096972D01*
X139115800Y-94236555D01*
X139132000Y-94300937D01*
X139147083Y-94375606D01*
X139187178Y-94519279D01*
X139244552Y-94704781D01*
X139263546Y-94763215D01*
X139336586Y-95022114D01*
X139385157Y-95292745D01*
X139415296Y-95612636D01*
X139423197Y-95755452D01*
X139432850Y-96007319D01*
X139432408Y-96214271D01*
X139418002Y-96400910D01*
X139385766Y-96591836D01*
X139331830Y-96811650D01*
X139252327Y-97084955D01*
X139174608Y-97336591D01*
X139104599Y-97566871D01*
X139063083Y-97730907D01*
X139046613Y-97858903D01*
X139051743Y-97981065D01*
X139075025Y-98127598D01*
X139080802Y-98158492D01*
X139108943Y-98373551D01*
X139115834Y-98581286D01*
X139106538Y-98694361D01*
X139070931Y-98905119D01*
X139241165Y-98817321D01*
X139398640Y-98730777D01*
X139571142Y-98628651D01*
X139603789Y-98608331D01*
X139730922Y-98541779D01*
X139826694Y-98515573D01*
X139849149Y-98519876D01*
X139913600Y-98508320D01*
X139977796Y-98444570D01*
X140065919Y-98357746D01*
X140206036Y-98257036D01*
X140291236Y-98206451D01*
X140910856Y-97870924D01*
X141535754Y-97538959D01*
X142126319Y-97231532D01*
X142307000Y-97139001D01*
X142598884Y-96982415D01*
X142862669Y-96826202D01*
X143075818Y-96684355D01*
X143203949Y-96582200D01*
X143449956Y-96382600D01*
X143602400Y-96382600D01*
X143627800Y-96408000D01*
X143653200Y-96382600D01*
X143627800Y-96357200D01*
X143602400Y-96382600D01*
X143449956Y-96382600D01*
X143547308Y-96303613D01*
X143934621Y-96057218D01*
X144320440Y-95871919D01*
X144321181Y-95871628D01*
X144515847Y-95787697D01*
X144749569Y-95676008D01*
X144973592Y-95559914D01*
X144985347Y-95553491D01*
X145263917Y-95407251D01*
X145516698Y-95286519D01*
X145735651Y-95193167D01*
X145912734Y-95129066D01*
X146039905Y-95096088D01*
X146109124Y-95096104D01*
X146112350Y-95130986D01*
X146041540Y-95202606D01*
X145888655Y-95312834D01*
X145815077Y-95360370D01*
X145638326Y-95477764D01*
X145496307Y-95582734D01*
X145410317Y-95659056D01*
X145395457Y-95680034D01*
X145336046Y-95745024D01*
X145218356Y-95825111D01*
X145158234Y-95857836D01*
X144999819Y-95953916D01*
X144819878Y-96085984D01*
X144716257Y-96173172D01*
X144487980Y-96366952D01*
X144208212Y-96581955D01*
X143866955Y-96825363D01*
X143454211Y-97104357D01*
X143073815Y-97352843D01*
X142837483Y-97509114D01*
X142635518Y-97649741D01*
X142481740Y-97764522D01*
X142389968Y-97843252D01*
X142370129Y-97872431D01*
X142338052Y-97931708D01*
X142243291Y-98001381D01*
X142226854Y-98010240D01*
X142128302Y-98075555D01*
X141976407Y-98193134D01*
X141792230Y-98346053D01*
X141604925Y-98510094D01*
X141076791Y-98950867D01*
X140476718Y-99391750D01*
X139832501Y-99813466D01*
X139175617Y-100194744D01*
X138821000Y-100406114D01*
X138519369Y-100623741D01*
X138358628Y-100765364D01*
X138200084Y-100911111D01*
X138088852Y-100993847D01*
X138031290Y-101011371D01*
X138033758Y-100961486D01*
X138092383Y-100857407D01*
X138145500Y-100758991D01*
X138128296Y-100731886D01*
X138039671Y-100775801D01*
X137967747Y-100824647D01*
X137848556Y-100893339D01*
X137672631Y-100976328D01*
X137490339Y-101050844D01*
X137296142Y-101130643D01*
X137050690Y-101241051D01*
X136792208Y-101364550D01*
X136649498Y-101436239D01*
X136386439Y-101579039D01*
X136189148Y-101707659D01*
X136028250Y-101843565D01*
X135887412Y-101993145D01*
X135698392Y-102196048D01*
X135523580Y-102342489D01*
X135332183Y-102450935D01*
X135093407Y-102539853D01*
X134869562Y-102603553D01*
X134627163Y-102680623D01*
X134346033Y-102795137D01*
X134019113Y-102950839D01*
X133639348Y-103151473D01*
X133199678Y-103400784D01*
X132693047Y-103702516D01*
X132112397Y-104060412D01*
X132049956Y-104099456D01*
X131736779Y-104294503D01*
X131441073Y-104476786D01*
X131177124Y-104637645D01*
X130959218Y-104768421D01*
X130801637Y-104860454D01*
X130729156Y-104900094D01*
X130538483Y-104999721D01*
X130285420Y-105137998D01*
X129994476Y-105300930D01*
X129690155Y-105474517D01*
X129396964Y-105644761D01*
X129139409Y-105797666D01*
X128941996Y-105919234D01*
X128917785Y-105934740D01*
X128724879Y-106055836D01*
X128535164Y-106169327D01*
X128388583Y-106251341D01*
X128384385Y-106253524D01*
X128263643Y-106325741D01*
X128087413Y-106443301D01*
X127880453Y-106589232D01*
X127690512Y-106729193D01*
X127396300Y-106933768D01*
X127037763Y-107155769D01*
X126645614Y-107376695D01*
X126420512Y-107494195D01*
X126122161Y-107642933D01*
X125807001Y-107796047D01*
X125488481Y-107947424D01*
X125180049Y-108090950D01*
X124895157Y-108220510D01*
X124647252Y-108329991D01*
X124449785Y-108413279D01*
X124316204Y-108464261D01*
X124259960Y-108476822D01*
X124259582Y-108476516D01*
X124293489Y-108445027D01*
X124400024Y-108371886D01*
X124564184Y-108266854D01*
X124770967Y-108139692D01*
X124854594Y-108089394D01*
X125073081Y-107956422D01*
X125254199Y-107841726D01*
X125383007Y-107755121D01*
X125444567Y-107706421D01*
X125447328Y-107699995D01*
X125423852Y-107695998D01*
X125372677Y-107712293D01*
X125285076Y-107753694D01*
X125152319Y-107825019D01*
X124965676Y-107931082D01*
X124716420Y-108076699D01*
X124395822Y-108266687D01*
X124096578Y-108445212D01*
X123777221Y-108634842D01*
X123455677Y-108823547D01*
X123152880Y-108999201D01*
X122889764Y-109149680D01*
X122687264Y-109262860D01*
X122647400Y-109284534D01*
X122402146Y-109424743D01*
X122119461Y-109598645D01*
X121843112Y-109778869D01*
X121707600Y-109872240D01*
X121434285Y-110058327D01*
X121176520Y-110220538D01*
X120946623Y-110352416D01*
X120756913Y-110447505D01*
X120619711Y-110499348D01*
X120547336Y-110501490D01*
X120539200Y-110484584D01*
X120577101Y-110436206D01*
X120678116Y-110344829D01*
X120823215Y-110227242D01*
X120882100Y-110182089D01*
X121086565Y-110022067D01*
X121322336Y-109829343D01*
X121545741Y-109639776D01*
X121593959Y-109597593D01*
X121806341Y-109424917D01*
X122044134Y-109253990D01*
X122264421Y-109115155D01*
X122317859Y-109085775D01*
X122484546Y-108992956D01*
X122609225Y-108913571D01*
X122670102Y-108861795D01*
X122672800Y-108854917D01*
X122632276Y-108786586D01*
X122535223Y-108704034D01*
X122418411Y-108633252D01*
X122318614Y-108600232D01*
X122312136Y-108600000D01*
X122208349Y-108559033D01*
X122152515Y-108450571D01*
X122147090Y-108353879D01*
X122212837Y-108353879D01*
X122233221Y-108396686D01*
X122235659Y-108396800D01*
X122274864Y-108356328D01*
X122335599Y-108256491D01*
X122348662Y-108231700D01*
X122406582Y-108133524D01*
X122977600Y-108133524D01*
X123000695Y-108271476D01*
X123058617Y-108408468D01*
X123134320Y-108517269D01*
X123210759Y-108570646D01*
X123248184Y-108565798D01*
X123319314Y-108518594D01*
X123443019Y-108432254D01*
X123561800Y-108347512D01*
X124202923Y-107913525D01*
X124901748Y-107489874D01*
X125615538Y-107102213D01*
X125745447Y-107036673D01*
X126033739Y-106892096D01*
X126240989Y-106784820D01*
X126377625Y-106707918D01*
X126454072Y-106654464D01*
X126480758Y-106617530D01*
X126468109Y-106590190D01*
X126442482Y-106573609D01*
X126383725Y-106531197D01*
X126349902Y-106465594D01*
X126334352Y-106351335D01*
X126330612Y-106172474D01*
X126416980Y-106172474D01*
X126424548Y-106359263D01*
X126451855Y-106481148D01*
X126475723Y-106512592D01*
X126578735Y-106535099D01*
X126695365Y-106514091D01*
X126761398Y-106467696D01*
X126738127Y-106422987D01*
X126652987Y-106370574D01*
X126563581Y-106313722D01*
X126541716Y-106232417D01*
X126553829Y-106149353D01*
X126580381Y-105979536D01*
X126604817Y-105756417D01*
X126626113Y-105500461D01*
X126643243Y-105232135D01*
X126655183Y-104971902D01*
X126660910Y-104740231D01*
X126659397Y-104557585D01*
X126649621Y-104444431D01*
X126640438Y-104419318D01*
X126610320Y-104418708D01*
X126592174Y-104496689D01*
X126584294Y-104662951D01*
X126583649Y-104741740D01*
X126571723Y-104989763D01*
X126541466Y-105254060D01*
X126506328Y-105445030D01*
X126458507Y-105693122D01*
X126428512Y-105943015D01*
X126416980Y-106172474D01*
X126330612Y-106172474D01*
X126330413Y-106162953D01*
X126330400Y-106145085D01*
X126341971Y-105906018D01*
X126372041Y-105657008D01*
X126406600Y-105483994D01*
X126439258Y-105319291D01*
X126463502Y-105122133D01*
X126478400Y-104916900D01*
X126483019Y-104727971D01*
X126476428Y-104579729D01*
X126457696Y-104496554D01*
X126444700Y-104486858D01*
X126379449Y-104503462D01*
X126250124Y-104544689D01*
X126127200Y-104586800D01*
X125931072Y-104643457D01*
X125736318Y-104680437D01*
X125644600Y-104688120D01*
X125545540Y-104692621D01*
X125475601Y-104714649D01*
X125417070Y-104772350D01*
X125352237Y-104883872D01*
X125263391Y-105067362D01*
X125252967Y-105089389D01*
X125131682Y-105315049D01*
X124989778Y-105533664D01*
X124854698Y-105703295D01*
X124843756Y-105714785D01*
X124698787Y-105873764D01*
X124530848Y-106072297D01*
X124376265Y-106267440D01*
X124376088Y-106267674D01*
X124244681Y-106434524D01*
X124068268Y-106649511D01*
X123869715Y-106885165D01*
X123671883Y-107114017D01*
X123667699Y-107118782D01*
X123431782Y-107389493D01*
X123255961Y-107597965D01*
X123131650Y-107756825D01*
X123050259Y-107878700D01*
X123003201Y-107976219D01*
X122981889Y-108062009D01*
X122977600Y-108133524D01*
X122406582Y-108133524D01*
X122412476Y-108123533D01*
X122520082Y-107957477D01*
X122655449Y-107757761D01*
X122777252Y-107584000D01*
X122961540Y-107311454D01*
X123088981Y-107086800D01*
X123173056Y-106884604D01*
X123204706Y-106777609D01*
X123243870Y-106599931D01*
X123263531Y-106455425D01*
X123260380Y-106380691D01*
X123265516Y-106266845D01*
X123339541Y-106115080D01*
X123469913Y-105948229D01*
X123533058Y-105884251D01*
X123653660Y-105728709D01*
X123749147Y-105533490D01*
X123763971Y-105488814D01*
X123830342Y-105308596D01*
X123911616Y-105143829D01*
X123942637Y-105095027D01*
X124096215Y-104805510D01*
X124199501Y-104449473D01*
X124245741Y-104052198D01*
X124247600Y-103953792D01*
X124251627Y-103735429D01*
X124269031Y-103583407D01*
X124307795Y-103462614D01*
X124375901Y-103337935D01*
X124394267Y-103308620D01*
X124486053Y-103152469D01*
X124546870Y-103031598D01*
X125720800Y-103031598D01*
X125736519Y-103076092D01*
X125798459Y-103094528D01*
X125928789Y-103090826D01*
X126012900Y-103083254D01*
X126312400Y-103083437D01*
X126527286Y-103134833D01*
X126719179Y-103184120D01*
X126937246Y-103212490D01*
X127012277Y-103215200D01*
X127179213Y-103223407D01*
X127293524Y-103261777D01*
X127403362Y-103350933D01*
X127457084Y-103405700D01*
X127611583Y-103578759D01*
X127699935Y-103720876D01*
X127733400Y-103866912D01*
X127723241Y-104051728D01*
X127704827Y-104172532D01*
X127657895Y-104417557D01*
X127601805Y-104615511D01*
X127522212Y-104803527D01*
X127404773Y-105018734D01*
X127328921Y-105145600D01*
X127173638Y-105450550D01*
X127102448Y-105713900D01*
X127116218Y-105931005D01*
X127163276Y-106033604D01*
X127246470Y-106125422D01*
X127322653Y-106161600D01*
X127398035Y-106138508D01*
X127538270Y-106076502D01*
X127719664Y-105986482D01*
X127829215Y-105928535D01*
X128067700Y-105791645D01*
X128342511Y-105621800D01*
X128608778Y-105447115D01*
X128716742Y-105372378D01*
X128949652Y-105214568D01*
X129233837Y-105032527D01*
X129531136Y-104850233D01*
X129771109Y-104709891D01*
X130015092Y-104571382D01*
X130248371Y-104438929D01*
X130445848Y-104326785D01*
X130582425Y-104249200D01*
X130591230Y-104244197D01*
X130771760Y-104128498D01*
X130951535Y-103993625D01*
X130997630Y-103954470D01*
X131117284Y-103858998D01*
X131296425Y-103728974D01*
X131508221Y-103583440D01*
X131673022Y-103475139D01*
X131925510Y-103311297D01*
X132097818Y-103192472D01*
X132195731Y-103109530D01*
X132225033Y-103053334D01*
X132191510Y-103014750D01*
X132100946Y-102984642D01*
X131998021Y-102961910D01*
X131754428Y-102883192D01*
X131507665Y-102757611D01*
X131450475Y-102720459D01*
X131273435Y-102618383D01*
X131041338Y-102511018D01*
X130797621Y-102417995D01*
X130739734Y-102399208D01*
X130407105Y-102281948D01*
X130123090Y-102154384D01*
X129905623Y-102025546D01*
X129782952Y-101917573D01*
X129703266Y-101845236D01*
X129569506Y-101745315D01*
X129450552Y-101665403D01*
X129270690Y-101539145D01*
X129095974Y-101398699D01*
X129012840Y-101322253D01*
X128837579Y-101146992D01*
X128561889Y-101471998D01*
X128323991Y-101715134D01*
X128065075Y-101897159D01*
X127756161Y-102035360D01*
X127474578Y-102120558D01*
X127127216Y-102165824D01*
X126802169Y-102112952D01*
X126555911Y-102000908D01*
X126367380Y-101889672D01*
X126247290Y-102002491D01*
X126158692Y-102128296D01*
X126127200Y-102250000D01*
X126088160Y-102386735D01*
X126003062Y-102501311D01*
X125888103Y-102639442D01*
X125789642Y-102808622D01*
X125729584Y-102967699D01*
X125720800Y-103031598D01*
X124546870Y-103031598D01*
X124556949Y-103011567D01*
X124578914Y-102955774D01*
X124627625Y-102849179D01*
X124669003Y-102800760D01*
X124688876Y-102738986D01*
X124693720Y-102586538D01*
X124683503Y-102340027D01*
X124661716Y-102038760D01*
X124638971Y-101743327D01*
X124627106Y-101522974D01*
X124627112Y-101351663D01*
X124639981Y-101203357D01*
X124666705Y-101052019D01*
X124705794Y-100881876D01*
X124757444Y-100681310D01*
X124805661Y-100517016D01*
X124842433Y-100415532D01*
X124851486Y-100399276D01*
X124890459Y-100313342D01*
X124923639Y-100186609D01*
X124990652Y-99970521D01*
X125113521Y-99704531D01*
X125122572Y-99688564D01*
X125686773Y-99688564D01*
X125692429Y-99790698D01*
X125787384Y-99845646D01*
X125827763Y-99852366D01*
X125910314Y-99845495D01*
X125998697Y-99795333D01*
X126108671Y-99691228D01*
X126249567Y-99691228D01*
X126288636Y-99696172D01*
X126392633Y-99627749D01*
X126480881Y-99555535D01*
X126641901Y-99449526D01*
X126791540Y-99405447D01*
X126801379Y-99405200D01*
X126896663Y-99390535D01*
X126914600Y-99354400D01*
X126829156Y-99301462D01*
X126697705Y-99309035D01*
X126546698Y-99366410D01*
X126402585Y-99462879D01*
X126291818Y-99587732D01*
X126277491Y-99612339D01*
X126249567Y-99691228D01*
X126108671Y-99691228D01*
X126112537Y-99687568D01*
X126223352Y-99563887D01*
X126432959Y-99354746D01*
X126622905Y-99241701D01*
X126804014Y-99223929D01*
X126987107Y-99300607D01*
X127183008Y-99470911D01*
X127200492Y-99489564D01*
X127367233Y-99702637D01*
X127441506Y-99891312D01*
X127424260Y-100071137D01*
X127316444Y-100257660D01*
X127252010Y-100333435D01*
X127130773Y-100475135D01*
X127031813Y-100606265D01*
X126993836Y-100666959D01*
X126920646Y-100753286D01*
X126816098Y-100756694D01*
X126811939Y-100755673D01*
X126698276Y-100750870D01*
X126660920Y-100807969D01*
X126701243Y-100920259D01*
X126760430Y-101007595D01*
X126850731Y-101112630D01*
X126939311Y-101164805D01*
X127067461Y-101182418D01*
X127158485Y-101183977D01*
X127324975Y-101193516D01*
X127456260Y-101216976D01*
X127498800Y-101234000D01*
X127555924Y-101269370D01*
X127601365Y-101274895D01*
X127666926Y-101242330D01*
X127784411Y-101163427D01*
X127792687Y-101157800D01*
X127918278Y-101080215D01*
X128013103Y-101035286D01*
X128034027Y-101030800D01*
X128099231Y-100996976D01*
X128201692Y-100911369D01*
X128254058Y-100859955D01*
X128419646Y-100689111D01*
X127881850Y-99990870D01*
X127573710Y-99568590D01*
X127310477Y-99162605D01*
X127101162Y-98788234D01*
X126954774Y-98460794D01*
X126917289Y-98351100D01*
X126876543Y-98262571D01*
X126845286Y-98236800D01*
X126777586Y-98275308D01*
X126674015Y-98375178D01*
X126554598Y-98512929D01*
X126439357Y-98665081D01*
X126348318Y-98808151D01*
X126332487Y-98838140D01*
X126239965Y-98986218D01*
X126102079Y-99165138D01*
X125948185Y-99336899D01*
X125943630Y-99341542D01*
X125770484Y-99538945D01*
X125686773Y-99688564D01*
X125122572Y-99688564D01*
X125278768Y-99413004D01*
X125472914Y-99120302D01*
X125622952Y-98922600D01*
X125789204Y-98708737D01*
X125942146Y-98497513D01*
X126071266Y-98305133D01*
X126166052Y-98147804D01*
X126215991Y-98041730D01*
X126217773Y-98005639D01*
X126181487Y-98036307D01*
X126095363Y-98134189D01*
X125970910Y-98285508D01*
X125819636Y-98476490D01*
X125757758Y-98556279D01*
X125577933Y-98782138D01*
X125398194Y-98995155D01*
X125237471Y-99173688D01*
X125114696Y-99296096D01*
X125097798Y-99310741D01*
X124952852Y-99458969D01*
X124805695Y-99651985D01*
X124715134Y-99799900D01*
X124628894Y-99974795D01*
X124579617Y-100122772D01*
X124557339Y-100286891D01*
X124552100Y-100504510D01*
X124543440Y-100741864D01*
X124520608Y-101029172D01*
X124487890Y-101316476D01*
X124474286Y-101411800D01*
X124423082Y-101923853D01*
X124430528Y-102437664D01*
X124464285Y-102955529D01*
X124305621Y-103114193D01*
X124167414Y-103258603D01*
X124077428Y-103379511D01*
X124025372Y-103505681D01*
X124000953Y-103665876D01*
X123993881Y-103888859D01*
X123993600Y-103986247D01*
X123990806Y-104224640D01*
X123979201Y-104388431D01*
X123953943Y-104504539D01*
X123910192Y-104599885D01*
X123872663Y-104658898D01*
X123802236Y-104793526D01*
X123724556Y-104989740D01*
X123654175Y-105209894D01*
X123641049Y-105258054D01*
X123493464Y-105679161D01*
X123329551Y-105969518D01*
X123209104Y-106175718D01*
X123077644Y-106456106D01*
X122946532Y-106785766D01*
X122906763Y-106896850D01*
X122766591Y-107269087D01*
X122634272Y-107555524D01*
X122502869Y-107770878D01*
X122481153Y-107800131D01*
X122380639Y-107949661D01*
X122296068Y-108107224D01*
X122236959Y-108249677D01*
X122212837Y-108353879D01*
X122147090Y-108353879D01*
X122143857Y-108296268D01*
X122181596Y-108117782D01*
X122264957Y-107936766D01*
X122339691Y-107832191D01*
X122507756Y-107590886D01*
X122661025Y-107279933D01*
X122806038Y-106885421D01*
X122848468Y-106750150D01*
X122994073Y-106360605D01*
X123173879Y-106024193D01*
X123202768Y-105980660D01*
X123370832Y-105687270D01*
X123516824Y-105340587D01*
X123558950Y-105214309D01*
X123632536Y-104993643D01*
X123708852Y-104792144D01*
X123775097Y-104642765D01*
X123795162Y-104606203D01*
X123847232Y-104494157D01*
X123877523Y-104350459D01*
X123890550Y-104147438D01*
X123892000Y-104012610D01*
X123899864Y-103727640D01*
X123929028Y-103517669D01*
X123987853Y-103356923D01*
X124084697Y-103219631D01*
X124180621Y-103122720D01*
X124362669Y-102954040D01*
X124337054Y-102464332D01*
X124333415Y-102108450D01*
X124353748Y-101728450D01*
X124380132Y-101490012D01*
X124412634Y-101210816D01*
X124437249Y-100904842D01*
X124449638Y-100628758D01*
X124450308Y-100573600D01*
X124467869Y-100268748D01*
X124525580Y-100006554D01*
X124634432Y-99763039D01*
X124805413Y-99514226D01*
X125049513Y-99236137D01*
X125076118Y-99208148D01*
X125263319Y-99005529D01*
X125452843Y-98789244D01*
X125614657Y-98593972D01*
X125672320Y-98519684D01*
X125818096Y-98334765D01*
X125999412Y-98117679D01*
X126181615Y-97909716D01*
X126216100Y-97871773D01*
X126355494Y-97713058D01*
X126463582Y-97577525D01*
X126524787Y-97485322D01*
X126532944Y-97461889D01*
X126518372Y-97382473D01*
X126481150Y-97239790D01*
X126438154Y-97093800D01*
X126362767Y-96761089D01*
X126317242Y-96369550D01*
X126310435Y-96165391D01*
X126621245Y-96165391D01*
X126623035Y-96409306D01*
X126637492Y-96605676D01*
X126638242Y-96611200D01*
X126684639Y-96895198D01*
X126746834Y-97205253D01*
X126819082Y-97518710D01*
X126895638Y-97812916D01*
X126970756Y-98065214D01*
X127038690Y-98252952D01*
X127072389Y-98323074D01*
X127171432Y-98479547D01*
X127244312Y-98564429D01*
X127283731Y-98572364D01*
X127282391Y-98497996D01*
X127276640Y-98472976D01*
X127256886Y-98365410D01*
X127275087Y-98350957D01*
X127331454Y-98429860D01*
X127426199Y-98602363D01*
X127479456Y-98706700D01*
X127591316Y-98918453D01*
X127710766Y-99127746D01*
X127813008Y-99291224D01*
X127818130Y-99298740D01*
X127896345Y-99424763D01*
X127906488Y-99475378D01*
X127848756Y-99450416D01*
X127740100Y-99364199D01*
X127668558Y-99314058D01*
X127660647Y-99341353D01*
X127716535Y-99446521D01*
X127836389Y-99630002D01*
X127849575Y-99649287D01*
X128166995Y-100043060D01*
X128525224Y-100364206D01*
X128746579Y-100511441D01*
X128941968Y-100633627D01*
X129151909Y-100777135D01*
X129249533Y-100848940D01*
X129583067Y-101074459D01*
X129914071Y-101232452D01*
X130153134Y-101310868D01*
X130353905Y-101346548D01*
X130629650Y-101367263D01*
X130954966Y-101373751D01*
X131304448Y-101366753D01*
X131652691Y-101347007D01*
X131974290Y-101315250D01*
X132243842Y-101272223D01*
X132350200Y-101246980D01*
X132557513Y-101183572D01*
X132751401Y-101114068D01*
X132882463Y-101057037D01*
X133026008Y-100976423D01*
X133194686Y-100872583D01*
X133368393Y-100759196D01*
X133527021Y-100649940D01*
X133650467Y-100558495D01*
X133718624Y-100498539D01*
X133725093Y-100483759D01*
X133671204Y-100490915D01*
X133540589Y-100527155D01*
X133351990Y-100586799D01*
X133124148Y-100664165D01*
X133088339Y-100676739D01*
X132803002Y-100773945D01*
X132600569Y-100835486D01*
X132483409Y-100861095D01*
X132453892Y-100850511D01*
X132514387Y-100803470D01*
X132657524Y-100724701D01*
X132790916Y-100649328D01*
X132887637Y-100582780D01*
X132934666Y-100537005D01*
X132918982Y-100523951D01*
X132853833Y-100544572D01*
X132740137Y-100575751D01*
X132584392Y-100602604D01*
X132553400Y-100606385D01*
X132350200Y-100629159D01*
X132553400Y-100518113D01*
X132717807Y-100418506D01*
X132870884Y-100310648D01*
X132900197Y-100287133D01*
X133006337Y-100208075D01*
X133082201Y-100168316D01*
X133089802Y-100167200D01*
X133152036Y-100142058D01*
X133275911Y-100075373D01*
X133437424Y-99980252D01*
X133479605Y-99954348D01*
X133662650Y-99846472D01*
X133904967Y-99711278D01*
X134174640Y-99566245D01*
X134433000Y-99432274D01*
X134683896Y-99303148D01*
X134865473Y-99201679D01*
X134999744Y-99111010D01*
X135108721Y-99014287D01*
X135214416Y-98894653D01*
X135332601Y-98743425D01*
X135459086Y-98573200D01*
X135558111Y-98431097D01*
X135615725Y-98337586D01*
X135624701Y-98314735D01*
X135593154Y-98323375D01*
X135507774Y-98390857D01*
X135385715Y-98503332D01*
X135360100Y-98528344D01*
X135221608Y-98650919D01*
X135068927Y-98764966D01*
X134922153Y-98858412D01*
X134801386Y-98919186D01*
X134726723Y-98935216D01*
X134712400Y-98917387D01*
X134749251Y-98835262D01*
X134856721Y-98690076D01*
X135030184Y-98487037D01*
X135265011Y-98231353D01*
X135556576Y-97928232D01*
X135881169Y-97601800D01*
X136121964Y-97360121D01*
X136341333Y-97134645D01*
X136527758Y-96937638D01*
X136669721Y-96781365D01*
X136755704Y-96678093D01*
X136773254Y-96651822D01*
X136808171Y-96542821D01*
X136832133Y-96386143D01*
X136844363Y-96210224D01*
X136844082Y-96043500D01*
X136830513Y-95914407D01*
X136802879Y-95851380D01*
X136795200Y-95849200D01*
X136751801Y-95891162D01*
X136743746Y-95938100D01*
X136721517Y-96031525D01*
X136665129Y-96176058D01*
X136616056Y-96281000D01*
X136545634Y-96418796D01*
X136511710Y-96471343D01*
X136506493Y-96444827D01*
X136520128Y-96357200D01*
X136559083Y-96092626D01*
X136597771Y-95753691D01*
X136633527Y-95367604D01*
X136663684Y-94961576D01*
X136674688Y-94780136D01*
X136684638Y-94438431D01*
X136665818Y-94173801D01*
X136610469Y-93963920D01*
X136510834Y-93786458D01*
X136359153Y-93619088D01*
X136232716Y-93508228D01*
X135940225Y-93253575D01*
X135714348Y-93025992D01*
X135533329Y-92802416D01*
X135445905Y-92674200D01*
X135333321Y-92509998D01*
X135219775Y-92375081D01*
X135090347Y-92260488D01*
X134930118Y-92157256D01*
X134724167Y-92056424D01*
X134457576Y-91949030D01*
X134115423Y-91826114D01*
X133925000Y-91760682D01*
X133667502Y-91668778D01*
X133413496Y-91570945D01*
X133197266Y-91480744D01*
X133084144Y-91428100D01*
X132773474Y-91290916D01*
X132471372Y-91192987D01*
X132203377Y-91141187D01*
X132012740Y-91139650D01*
X131878894Y-91145160D01*
X131820433Y-91124091D01*
X131846448Y-91087854D01*
X131943800Y-91053139D01*
X132047871Y-91010083D01*
X132062517Y-90962670D01*
X131999192Y-90918628D01*
X131869350Y-90885683D01*
X131684443Y-90871564D01*
X131674577Y-90871493D01*
X131438506Y-90915629D01*
X131224204Y-91053211D01*
X131085954Y-91203466D01*
X131007195Y-91291523D01*
X130909294Y-91371751D01*
X130778377Y-91451090D01*
X130600567Y-91536478D01*
X130361989Y-91634854D01*
X130048767Y-91753159D01*
X129821772Y-91835679D01*
X129497586Y-91961731D01*
X129237395Y-92089846D01*
X129021687Y-92236917D01*
X128830947Y-92419837D01*
X128645664Y-92655499D01*
X128446323Y-92960797D01*
X128362659Y-93098865D01*
X128168380Y-93439430D01*
X128011828Y-93754535D01*
X127882335Y-94071980D01*
X127769234Y-94419565D01*
X127661858Y-94825091D01*
X127601410Y-95082748D01*
X127536123Y-95354580D01*
X127466726Y-95617414D01*
X127401621Y-95840844D01*
X127350322Y-95991648D01*
X127271675Y-96276134D01*
X127242008Y-96618440D01*
X127241579Y-96651180D01*
X127234166Y-96843767D01*
X127217317Y-96936998D01*
X127193137Y-96932459D01*
X127163729Y-96831739D01*
X127131196Y-96636423D01*
X127121239Y-96560400D01*
X127091672Y-96361409D01*
X127049058Y-96119242D01*
X127007474Y-95909839D01*
X126966070Y-95644092D01*
X126947061Y-95367716D01*
X126949362Y-95211480D01*
X126955080Y-95023908D01*
X126941967Y-94935791D01*
X126919270Y-94935209D01*
X126900390Y-95001378D01*
X126881840Y-95150341D01*
X126865235Y-95363300D01*
X126852193Y-95621459D01*
X126847194Y-95773268D01*
X126837628Y-96043053D01*
X126825053Y-96272989D01*
X126810770Y-96445801D01*
X126796079Y-96544214D01*
X126787967Y-96560400D01*
X126768361Y-96513235D01*
X126745464Y-96385858D01*
X126722538Y-96199448D01*
X126707773Y-96039700D01*
X126665658Y-95519000D01*
X126632549Y-95925400D01*
X126621245Y-96165391D01*
X126310435Y-96165391D01*
X126303521Y-95958045D01*
X126323546Y-95565435D01*
X126351531Y-95360892D01*
X126484081Y-94723653D01*
X126645946Y-94129021D01*
X126832217Y-93590737D01*
X127037989Y-93122541D01*
X127258352Y-92738173D01*
X127319319Y-92651089D01*
X127427361Y-92523833D01*
X127591219Y-92354780D01*
X127788126Y-92166532D01*
X127983374Y-91991952D01*
X128199413Y-91801459D01*
X128353319Y-91652151D01*
X128463074Y-91522732D01*
X128546663Y-91391907D01*
X128622070Y-91238382D01*
X128624685Y-91232552D01*
X128743310Y-90992261D01*
X128868722Y-90803326D01*
X129017395Y-90654558D01*
X129205806Y-90534765D01*
X129450429Y-90432757D01*
X129767740Y-90337345D01*
X130045274Y-90267689D01*
X130636041Y-90110253D01*
X131125784Y-89944435D01*
X131514740Y-89770153D01*
X131613066Y-89715467D01*
X131857390Y-89618427D01*
X132178471Y-89563886D01*
X132560333Y-89552827D01*
X132987004Y-89586233D01*
G37*
%TD*%
D10*
%TO.C,S1*%
X95000000Y-96250000D03*
X105000000Y-96250000D03*
D11*
X108275000Y-96250000D03*
D12*
X96725000Y-94050000D03*
D10*
X100000000Y-94050000D03*
D13*
X94500000Y-100000000D03*
X105500000Y-100000000D03*
D14*
X100000000Y-100000000D03*
%TD*%
D10*
%TO.C,S2*%
X95000000Y-78750000D03*
X105000000Y-78750000D03*
D11*
X108275000Y-78750000D03*
D12*
X96725000Y-76550000D03*
D10*
X100000000Y-76550000D03*
D13*
X94500000Y-82500000D03*
X105500000Y-82500000D03*
D14*
X100000000Y-82500000D03*
%TD*%
D10*
%TO.C,S3*%
X95000000Y-61250000D03*
X105000000Y-61250000D03*
D11*
X108275000Y-61250000D03*
D12*
X96725000Y-59050000D03*
D10*
X100000000Y-59050000D03*
D13*
X94500000Y-65000000D03*
X105500000Y-65000000D03*
D14*
X100000000Y-65000000D03*
%TD*%
D10*
%TO.C,S4*%
X113500000Y-84250000D03*
X123500000Y-84250000D03*
D11*
X126775000Y-84250000D03*
D12*
X115225000Y-82050000D03*
D10*
X118500000Y-82050000D03*
D13*
X113000000Y-88000000D03*
X124000000Y-88000000D03*
D14*
X118500000Y-88000000D03*
%TD*%
D10*
%TO.C,S5*%
X113500000Y-66750000D03*
X123500000Y-66750000D03*
D11*
X126775000Y-66750000D03*
D12*
X115225000Y-64550000D03*
D10*
X118500000Y-64550000D03*
D13*
X113000000Y-70500000D03*
X124000000Y-70500000D03*
D14*
X118500000Y-70500000D03*
%TD*%
D10*
%TO.C,S6*%
X113500000Y-49250000D03*
X123500000Y-49250000D03*
D11*
X126775000Y-49250000D03*
D12*
X115225000Y-47050000D03*
D10*
X118500000Y-47050000D03*
D13*
X113000000Y-53000000D03*
X124000000Y-53000000D03*
D14*
X118500000Y-53000000D03*
%TD*%
D10*
%TO.C,S7*%
X132000000Y-78250000D03*
X142000000Y-78250000D03*
D11*
X145275000Y-78250000D03*
D12*
X133725000Y-76050000D03*
D10*
X137000000Y-76050000D03*
D13*
X131500000Y-82000000D03*
X142500000Y-82000000D03*
D14*
X137000000Y-82000000D03*
%TD*%
D10*
%TO.C,S8*%
X132000000Y-60750000D03*
X142000000Y-60750000D03*
D11*
X145275000Y-60750000D03*
D12*
X133725000Y-58550000D03*
D10*
X137000000Y-58550000D03*
D13*
X131500000Y-64500000D03*
X142500000Y-64500000D03*
D14*
X137000000Y-64500000D03*
%TD*%
D10*
%TO.C,S9*%
X132000000Y-43250000D03*
X142000000Y-43250000D03*
D11*
X145275000Y-43250000D03*
D12*
X133725000Y-41050000D03*
D10*
X137000000Y-41050000D03*
D13*
X131500000Y-47000000D03*
X142500000Y-47000000D03*
D14*
X137000000Y-47000000D03*
%TD*%
D10*
%TO.C,S10*%
X150500000Y-84250000D03*
X160500000Y-84250000D03*
D11*
X163775000Y-84250000D03*
D12*
X152225000Y-82050000D03*
D10*
X155500000Y-82050000D03*
D13*
X150000000Y-88000000D03*
X161000000Y-88000000D03*
D14*
X155500000Y-88000000D03*
%TD*%
D10*
%TO.C,S11*%
X150500000Y-66750000D03*
X160500000Y-66750000D03*
D11*
X163775000Y-66750000D03*
D12*
X152225000Y-64550000D03*
D10*
X155500000Y-64550000D03*
D13*
X150000000Y-70500000D03*
X161000000Y-70500000D03*
D14*
X155500000Y-70500000D03*
%TD*%
D10*
%TO.C,S12*%
X150500000Y-49250000D03*
X160500000Y-49250000D03*
D11*
X163775000Y-49250000D03*
D12*
X152225000Y-47050000D03*
D10*
X155500000Y-47050000D03*
D13*
X150000000Y-53000000D03*
X161000000Y-53000000D03*
D14*
X155500000Y-53000000D03*
%TD*%
D10*
%TO.C,S13*%
X169000000Y-87250000D03*
X179000000Y-87250000D03*
D11*
X182275000Y-87250000D03*
D12*
X170725000Y-85050000D03*
D10*
X174000000Y-85050000D03*
D13*
X168500000Y-91000000D03*
X179500000Y-91000000D03*
D14*
X174000000Y-91000000D03*
%TD*%
D10*
%TO.C,S14*%
X169000000Y-69750000D03*
X179000000Y-69750000D03*
D11*
X182275000Y-69750000D03*
D12*
X170725000Y-67550000D03*
D10*
X174000000Y-67550000D03*
D13*
X168500000Y-73500000D03*
X179500000Y-73500000D03*
D14*
X174000000Y-73500000D03*
%TD*%
D10*
%TO.C,S15*%
X169000000Y-52250000D03*
X179000000Y-52250000D03*
D11*
X182275000Y-52250000D03*
D12*
X170725000Y-50050000D03*
D10*
X174000000Y-50050000D03*
D13*
X168500000Y-56000000D03*
X179500000Y-56000000D03*
D14*
X174000000Y-56000000D03*
%TD*%
D10*
%TO.C,S16*%
X162640942Y-108333683D03*
X172300201Y-110921873D03*
D15*
X175463608Y-111769506D03*
D16*
X164876566Y-106655109D03*
D10*
X168039973Y-107502741D03*
D13*
X161187408Y-111826495D03*
X171812592Y-114673505D03*
D14*
X166500000Y-113250000D03*
%TD*%
D10*
%TO.C,S17*%
X186153157Y-116123244D03*
X195216234Y-120349427D03*
D17*
X198184392Y-121733502D03*
D18*
X188646298Y-114858384D03*
D10*
X191614456Y-116242459D03*
D13*
X184115184Y-119310590D03*
X194084570Y-123959390D03*
D14*
X189099877Y-121634990D03*
%TD*%
D19*
%TO.C,D1*%
X103810000Y-105000000D03*
D20*
X96190000Y-105000000D03*
D21*
X98350000Y-105000000D03*
X101650000Y-105000000D03*
%TD*%
D19*
%TO.C,D2*%
X103810000Y-87500000D03*
D20*
X96190000Y-87500000D03*
D21*
X98350000Y-87500000D03*
X101650000Y-87500000D03*
%TD*%
D19*
%TO.C,D3*%
X103810000Y-70000000D03*
D20*
X96190000Y-70000000D03*
D21*
X98350000Y-70000000D03*
X101650000Y-70000000D03*
%TD*%
D19*
%TO.C,D4*%
X122310000Y-93000000D03*
D20*
X114690000Y-93000000D03*
D21*
X116850000Y-93000000D03*
X120150000Y-93000000D03*
%TD*%
D19*
%TO.C,D5*%
X122310000Y-75500000D03*
D20*
X114690000Y-75500000D03*
D21*
X116850000Y-75500000D03*
X120150000Y-75500000D03*
%TD*%
D19*
%TO.C,D6*%
X122310000Y-58000000D03*
D20*
X114690000Y-58000000D03*
D21*
X116850000Y-58000000D03*
X120150000Y-58000000D03*
%TD*%
D19*
%TO.C,D7*%
X140810000Y-87000000D03*
D20*
X133190000Y-87000000D03*
D21*
X135350000Y-87000000D03*
X138650000Y-87000000D03*
%TD*%
D19*
%TO.C,D8*%
X140810000Y-69500000D03*
D20*
X133190000Y-69500000D03*
D21*
X135350000Y-69500000D03*
X138650000Y-69500000D03*
%TD*%
D19*
%TO.C,D9*%
X140810000Y-52000000D03*
D20*
X133190000Y-52000000D03*
D21*
X135350000Y-52000000D03*
X138650000Y-52000000D03*
%TD*%
D19*
%TO.C,D10*%
X159310000Y-93000000D03*
D20*
X151690000Y-93000000D03*
D21*
X153850000Y-93000000D03*
X157150000Y-93000000D03*
%TD*%
D19*
%TO.C,D11*%
X159310000Y-75500000D03*
D20*
X151690000Y-75500000D03*
D21*
X153850000Y-75500000D03*
X157150000Y-75500000D03*
%TD*%
D19*
%TO.C,D12*%
X159310000Y-58000000D03*
D20*
X151690000Y-58000000D03*
D21*
X153850000Y-58000000D03*
X157150000Y-58000000D03*
%TD*%
D19*
%TO.C,D13*%
X177810000Y-96000000D03*
D20*
X170190000Y-96000000D03*
D21*
X172350000Y-96000000D03*
X175650000Y-96000000D03*
%TD*%
D19*
%TO.C,D14*%
X177810000Y-78500000D03*
D20*
X170190000Y-78500000D03*
D21*
X172350000Y-78500000D03*
X175650000Y-78500000D03*
%TD*%
D19*
%TO.C,D15*%
X177810000Y-61000000D03*
D20*
X170190000Y-61000000D03*
D21*
X172350000Y-61000000D03*
X175650000Y-61000000D03*
%TD*%
D19*
%TO.C,D16*%
X168886082Y-119065730D03*
D22*
X161525728Y-117093528D03*
D23*
X163612127Y-117652578D03*
X166799683Y-118506680D03*
%TD*%
D19*
%TO.C,D17*%
X190439819Y-127776705D03*
D24*
X183533753Y-124556353D03*
D25*
X185491378Y-125469209D03*
X188482194Y-126863849D03*
%TD*%
D26*
%TO.C,MCU1*%
X199150000Y-88640000D03*
D27*
X198425000Y-88640000D03*
D28*
X188875000Y-88640000D03*
D29*
X188150000Y-88640000D03*
D30*
X196912000Y-88640000D03*
X190388000Y-88640000D03*
D31*
X201270000Y-88640000D03*
X186030000Y-88640000D03*
D26*
X199150000Y-86100000D03*
D27*
X198425000Y-86100000D03*
D28*
X188875000Y-86100000D03*
D29*
X188150000Y-86100000D03*
D30*
X196912000Y-86100000D03*
X190388000Y-86100000D03*
D31*
X201270000Y-86100000D03*
X186030000Y-86100000D03*
D26*
X199150000Y-83560000D03*
D27*
X198425000Y-83560000D03*
D28*
X188875000Y-83560000D03*
D29*
X188150000Y-83560000D03*
D30*
X196912000Y-83560000D03*
X190388000Y-83560000D03*
D31*
X201270000Y-83560000D03*
X186030000Y-83560000D03*
D26*
X199150000Y-81020000D03*
D27*
X198425000Y-81020000D03*
D28*
X188875000Y-81020000D03*
D29*
X188150000Y-81020000D03*
D30*
X196912000Y-81020000D03*
X190388000Y-81020000D03*
D31*
X201270000Y-81020000D03*
X186030000Y-81020000D03*
D26*
X199150000Y-78480000D03*
D27*
X198425000Y-78480000D03*
D28*
X188875000Y-78480000D03*
D29*
X188150000Y-78480000D03*
D30*
X196912000Y-78480000D03*
X190388000Y-78480000D03*
D31*
X201270000Y-78480000D03*
X186030000Y-78480000D03*
D26*
X199150000Y-75940000D03*
D27*
X198425000Y-75940000D03*
D28*
X188875000Y-75940000D03*
D29*
X188150000Y-75940000D03*
D30*
X196912000Y-75940000D03*
X190388000Y-75940000D03*
D31*
X201270000Y-75940000D03*
X186030000Y-75940000D03*
D26*
X199150000Y-73400000D03*
D27*
X198425000Y-73400000D03*
D28*
X188875000Y-73400000D03*
D29*
X188150000Y-73400000D03*
D30*
X196912000Y-73400000D03*
X190388000Y-73400000D03*
D31*
X201270000Y-73400000D03*
X186030000Y-73400000D03*
D26*
X199150000Y-70860000D03*
D27*
X198425000Y-70860000D03*
D28*
X188875000Y-70860000D03*
D29*
X188150000Y-70860000D03*
D30*
X196912000Y-70860000D03*
X190388000Y-70860000D03*
D31*
X201270000Y-70860000D03*
X186030000Y-70860000D03*
D26*
X199150000Y-68320000D03*
D27*
X198425000Y-68320000D03*
D28*
X188875000Y-68320000D03*
D29*
X188150000Y-68320000D03*
D30*
X196912000Y-68320000D03*
X190388000Y-68320000D03*
D31*
X201270000Y-68320000D03*
X186030000Y-68320000D03*
D26*
X199150000Y-65780000D03*
D27*
X198425000Y-65780000D03*
D28*
X188875000Y-65780000D03*
D29*
X188150000Y-65780000D03*
D30*
X196912000Y-65780000D03*
X190388000Y-65780000D03*
D31*
X201270000Y-65780000D03*
X186030000Y-65780000D03*
D26*
X199150000Y-63240000D03*
D27*
X198425000Y-63240000D03*
D28*
X188875000Y-63240000D03*
D29*
X188150000Y-63240000D03*
D30*
X196912000Y-63240000D03*
X190388000Y-63240000D03*
D31*
X201270000Y-63240000D03*
X186030000Y-63240000D03*
D26*
X199150000Y-60700000D03*
D27*
X198425000Y-60700000D03*
D28*
X188875000Y-60700000D03*
D29*
X188150000Y-60700000D03*
D30*
X196912000Y-60700000D03*
X190388000Y-60700000D03*
D31*
X201270000Y-60700000D03*
X186030000Y-60700000D03*
%TD*%
%TO.C,DISP1*%
X198730000Y-91900000D03*
D32*
X196190000Y-91900000D03*
X193650000Y-91900000D03*
X191110000Y-91900000D03*
X188570000Y-91900000D03*
D33*
X188570000Y-95250000D03*
X191110000Y-95250000D03*
X196190000Y-95250000D03*
X198730000Y-95250000D03*
X188570000Y-94350000D03*
X191110000Y-94350000D03*
X196190000Y-94350000D03*
X198730000Y-94350000D03*
%TD*%
D34*
%TO.C,SW1*%
X194800000Y-57125000D03*
X191800000Y-57125000D03*
D35*
X196950000Y-56025000D03*
D36*
X191050000Y-58885000D03*
X194050000Y-58885000D03*
D35*
X196950000Y-58235000D03*
D36*
X195550000Y-58885000D03*
D35*
X189650000Y-56025000D03*
X189650000Y-58235000D03*
%TD*%
D37*
%TO.C,JST1*%
X195984000Y-98750000D03*
X195984000Y-100750000D03*
D38*
X197000000Y-100750000D03*
X197000000Y-98750000D03*
D39*
X198800000Y-100750000D03*
X198800000Y-98750000D03*
%TD*%
D40*
%TO.C,SW2*%
X100901747Y-49623493D03*
X97098253Y-50376507D03*
X100117467Y-48415807D03*
X97882533Y-51584193D03*
%TD*%
D41*
%TO.C,H1*%
X109250000Y-57500000D03*
%TD*%
%TO.C,H2*%
X109250000Y-92500000D03*
%TD*%
%TO.C,H3*%
X164750000Y-58000000D03*
%TD*%
%TO.C,H4*%
X164750000Y-93000000D03*
%TD*%
%TO.C,H5*%
X178091110Y-116355829D03*
%TD*%
M02*
