  0
SECTION
  2
HEADER
  9
$ANGBASE
  50
0.0
  9
$ANGDIR
  70
1
  9
$MEASUREMENT
  70
1
  0
ENDSEC
  0
SECTION
  2
TABLES
  0
TABLE
  2
LTYPE
  70
4
  0
LTYPE
  5
40F
  2
CONTINUOUS
  70
0
  3
Solid line
  72
65
  73
0
  40
0.0
  0
LTYPE
  5
410
  2
DASHDOT
 70
0
  3
Dash Dot ____ _ ____ _
 72
65
 73
4
 40
2.0
 49
1.25
 49
-0.25
 49
0.25
 49
-0.25
  0
LTYPE
  5
411
  2
DASHED
 70
0
  3
Dashed __ __ __ __ __
 72
65
 73
2
 40
0.75
 49
0.5
 49
-0.25
  0
LTYPE
  5
43B
  2
DOTTED
 70
0
  3
Dotted .  .  .  .
 72
65
 73
2
 40
0.2
 49
0.0
 49
-0.2
  0
ENDTAB
  0
TABLE
  2
STYLE
  70
4
  0
STYLE
  2
KICAD
  70
0
  40
0
  41
1
  42
1
  50
0
  71
0
  3
isocp.shx
  0
STYLE
  2
KICADB
  70
0
  40
0
  41
1
  42
1
  50
0
  71
0
  3
isocp.shx
  0
STYLE
  2
KICADI
  70
0
  40
0
  41
1
  42
1
  50
15
  71
0
  3
isocp.shx
  0
STYLE
  2
KICADBI
  70
0
  40
0
  41
1
  42
1
  50
15
  71
0
  3
isocp.shx
  0
ENDTAB
  0
TABLE
  2
LAYER
  70
1
  0
LAYER
  2
BLACK
  70
0
  62
7
  6
CONTINUOUS
  0
ENDTAB
  0
ENDSEC
  0
SECTION
  2
ENTITIES
0
LINE
8
BLACK
6
CONTINUOUS
10
174.097
20
-115.715
11
174.197
21
-115.408
0
LINE
8
BLACK
6
CONTINUOUS
10
174.197
20
-115.408
11
174.335
21
-115.115
0
LINE
8
BLACK
6
CONTINUOUS
10
174.335
20
-115.115
11
174.508
21
-114.842
0
LINE
8
BLACK
6
CONTINUOUS
10
174.508
20
-114.842
11
174.714
21
-114.593
0
LINE
8
BLACK
6
CONTINUOUS
10
174.714
20
-114.593
11
174.95
21
-114.372
0
LINE
8
BLACK
6
CONTINUOUS
10
174.95
20
-114.372
11
175.211
21
-114.182
0
LINE
8
BLACK
6
CONTINUOUS
10
175.211
20
-114.182
11
175.495
21
-114.026
0
LINE
8
BLACK
6
CONTINUOUS
10
175.495
20
-114.026
11
175.795
21
-113.907
0
LINE
8
BLACK
6
CONTINUOUS
10
175.795
20
-113.907
11
176.109
21
-113.826
0
LINE
8
BLACK
6
CONTINUOUS
10
176.109
20
-113.826
11
176.429
21
-113.786
0
LINE
8
BLACK
6
CONTINUOUS
10
176.429
20
-113.786
11
176.753
21
-113.786
0
LINE
8
BLACK
6
CONTINUOUS
10
176.753
20
-113.786
11
177.074
21
-113.826
0
LINE
8
BLACK
6
CONTINUOUS
10
177.074
20
-113.826
11
177.387
21
-113.907
0
LINE
8
BLACK
6
CONTINUOUS
10
177.387
20
-113.907
11
177.687
21
-114.026
0
LINE
8
BLACK
6
CONTINUOUS
10
177.687
20
-114.026
11
177.971
21
-114.182
0
LINE
8
BLACK
6
CONTINUOUS
10
177.971
20
-114.182
11
178.232
21
-114.372
0
LINE
8
BLACK
6
CONTINUOUS
10
178.232
20
-114.372
11
178.468
21
-114.593
0
LINE
8
BLACK
6
CONTINUOUS
10
178.468
20
-114.593
11
178.674
21
-114.842
0
LINE
8
BLACK
6
CONTINUOUS
10
178.674
20
-114.842
11
178.848
21
-115.115
0
LINE
8
BLACK
6
CONTINUOUS
10
178.848
20
-115.115
11
178.985
21
-115.408
0
LINE
8
BLACK
6
CONTINUOUS
10
178.985
20
-115.408
11
179.085
21
-115.715
0
LINE
8
BLACK
6
CONTINUOUS
10
179.085
20
-115.715
11
179.146
21
-116.033
0
LINE
8
BLACK
6
CONTINUOUS
10
179.146
20
-116.033
11
179.166
21
-116.356
0
LINE
8
BLACK
6
CONTINUOUS
10
179.166
20
-116.356
11
179.146
21
-116.679
0
LINE
8
BLACK
6
CONTINUOUS
10
179.146
20
-116.679
11
179.085
21
-116.996
0
LINE
8
BLACK
6
CONTINUOUS
10
179.085
20
-116.996
11
178.985
21
-117.304
0
LINE
8
BLACK
6
CONTINUOUS
10
178.985
20
-117.304
11
178.848
21
-117.596
0
LINE
8
BLACK
6
CONTINUOUS
10
178.848
20
-117.596
11
178.674
21
-117.869
0
LINE
8
BLACK
6
CONTINUOUS
10
178.674
20
-117.869
11
178.468
21
-118.119
0
LINE
8
BLACK
6
CONTINUOUS
10
178.468
20
-118.119
11
178.232
21
-118.34
0
LINE
8
BLACK
6
CONTINUOUS
10
178.232
20
-118.34
11
177.971
21
-118.53
0
LINE
8
BLACK
6
CONTINUOUS
10
177.971
20
-118.53
11
177.687
21
-118.686
0
LINE
8
BLACK
6
CONTINUOUS
10
177.687
20
-118.686
11
177.387
21
-118.805
0
LINE
8
BLACK
6
CONTINUOUS
10
177.387
20
-118.805
11
177.074
21
-118.885
0
LINE
8
BLACK
6
CONTINUOUS
10
177.074
20
-118.885
11
176.753
21
-118.926
0
LINE
8
BLACK
6
CONTINUOUS
10
176.753
20
-118.926
11
176.429
21
-118.926
0
LINE
8
BLACK
6
CONTINUOUS
10
176.429
20
-118.926
11
176.109
21
-118.885
0
LINE
8
BLACK
6
CONTINUOUS
10
176.109
20
-118.885
11
175.795
21
-118.805
0
LINE
8
BLACK
6
CONTINUOUS
10
175.795
20
-118.805
11
175.495
21
-118.686
0
LINE
8
BLACK
6
CONTINUOUS
10
175.495
20
-118.686
11
175.211
21
-118.53
0
LINE
8
BLACK
6
CONTINUOUS
10
175.211
20
-118.53
11
174.95
21
-118.34
0
LINE
8
BLACK
6
CONTINUOUS
10
174.95
20
-118.34
11
174.714
21
-118.119
0
LINE
8
BLACK
6
CONTINUOUS
10
174.714
20
-118.119
11
174.508
21
-117.869
0
LINE
8
BLACK
6
CONTINUOUS
10
174.508
20
-117.869
11
174.335
21
-117.596
0
LINE
8
BLACK
6
CONTINUOUS
10
174.335
20
-117.596
11
174.197
21
-117.304
0
LINE
8
BLACK
6
CONTINUOUS
10
174.197
20
-117.304
11
174.097
21
-116.996
0
LINE
8
BLACK
6
CONTINUOUS
10
174.097
20
-116.996
11
174.036
21
-116.679
0
LINE
8
BLACK
6
CONTINUOUS
10
174.036
20
-116.679
11
174.016
21
-116.356
0
LINE
8
BLACK
6
CONTINUOUS
10
174.016
20
-116.356
11
174.036
21
-116.033
0
LINE
8
BLACK
6
CONTINUOUS
10
174.036
20
-116.033
11
174.097
21
-115.715
0
LINE
8
BLACK
6
CONTINUOUS
10
174.238
20
-116.96
11
174.332
21
-117.25
0
LINE
8
BLACK
6
CONTINUOUS
10
174.332
20
-117.25
11
174.462
21
-117.526
0
LINE
8
BLACK
6
CONTINUOUS
10
174.462
20
-117.526
11
174.625
21
-117.784
0
LINE
8
BLACK
6
CONTINUOUS
10
174.625
20
-117.784
11
174.82
21
-118.019
0
LINE
8
BLACK
6
CONTINUOUS
10
174.82
20
-118.019
11
175.042
21
-118.228
0
LINE
8
BLACK
6
CONTINUOUS
10
175.042
20
-118.228
11
175.289
21
-118.407
0
LINE
8
BLACK
6
CONTINUOUS
10
175.289
20
-118.407
11
175.557
21
-118.554
0
LINE
8
BLACK
6
CONTINUOUS
10
175.557
20
-118.554
11
175.84
21
-118.667
0
LINE
8
BLACK
6
CONTINUOUS
10
175.84
20
-118.667
11
176.136
21
-118.743
0
LINE
8
BLACK
6
CONTINUOUS
10
176.136
20
-118.743
11
176.439
21
-118.781
0
LINE
8
BLACK
6
CONTINUOUS
10
176.439
20
-118.781
11
176.744
21
-118.781
0
LINE
8
BLACK
6
CONTINUOUS
10
176.744
20
-118.781
11
177.046
21
-118.743
0
LINE
8
BLACK
6
CONTINUOUS
10
177.046
20
-118.743
11
177.342
21
-118.667
0
LINE
8
BLACK
6
CONTINUOUS
10
177.342
20
-118.667
11
177.626
21
-118.554
0
LINE
8
BLACK
6
CONTINUOUS
10
177.626
20
-118.554
11
177.893
21
-118.407
0
LINE
8
BLACK
6
CONTINUOUS
10
177.893
20
-118.407
11
178.14
21
-118.228
0
LINE
8
BLACK
6
CONTINUOUS
10
178.14
20
-118.228
11
178.362
21
-118.019
0
LINE
8
BLACK
6
CONTINUOUS
10
178.362
20
-118.019
11
178.557
21
-117.784
0
LINE
8
BLACK
6
CONTINUOUS
10
178.557
20
-117.784
11
178.72
21
-117.526
0
LINE
8
BLACK
6
CONTINUOUS
10
178.72
20
-117.526
11
178.85
21
-117.25
0
LINE
8
BLACK
6
CONTINUOUS
10
178.85
20
-117.25
11
178.945
21
-116.96
0
LINE
8
BLACK
6
CONTINUOUS
10
178.945
20
-116.96
11
179.002
21
-116.66
0
LINE
8
BLACK
6
CONTINUOUS
10
179.002
20
-116.66
11
179.021
21
-116.356
0
LINE
8
BLACK
6
CONTINUOUS
10
179.021
20
-116.356
11
179.002
21
-116.051
0
LINE
8
BLACK
6
CONTINUOUS
10
179.002
20
-116.051
11
178.945
21
-115.752
0
LINE
8
BLACK
6
CONTINUOUS
10
178.945
20
-115.752
11
178.85
21
-115.461
0
LINE
8
BLACK
6
CONTINUOUS
10
178.85
20
-115.461
11
178.72
21
-115.185
0
LINE
8
BLACK
6
CONTINUOUS
10
178.72
20
-115.185
11
178.557
21
-114.928
0
LINE
8
BLACK
6
CONTINUOUS
10
178.557
20
-114.928
11
178.362
21
-114.693
0
LINE
8
BLACK
6
CONTINUOUS
10
178.362
20
-114.693
11
178.14
21
-114.484
0
LINE
8
BLACK
6
CONTINUOUS
10
178.14
20
-114.484
11
177.893
21
-114.304
0
LINE
8
BLACK
6
CONTINUOUS
10
177.893
20
-114.304
11
177.626
21
-114.157
0
LINE
8
BLACK
6
CONTINUOUS
10
177.626
20
-114.157
11
177.342
21
-114.045
0
LINE
8
BLACK
6
CONTINUOUS
10
177.342
20
-114.045
11
177.046
21
-113.969
0
LINE
8
BLACK
6
CONTINUOUS
10
177.046
20
-113.969
11
176.744
21
-113.931
0
LINE
8
BLACK
6
CONTINUOUS
10
176.744
20
-113.931
11
176.439
21
-113.931
0
LINE
8
BLACK
6
CONTINUOUS
10
176.439
20
-113.931
11
176.136
21
-113.969
0
LINE
8
BLACK
6
CONTINUOUS
10
176.136
20
-113.969
11
175.84
21
-114.045
0
LINE
8
BLACK
6
CONTINUOUS
10
175.84
20
-114.045
11
175.557
21
-114.157
0
LINE
8
BLACK
6
CONTINUOUS
10
175.557
20
-114.157
11
175.289
21
-114.304
0
LINE
8
BLACK
6
CONTINUOUS
10
175.289
20
-114.304
11
175.042
21
-114.484
0
LINE
8
BLACK
6
CONTINUOUS
10
175.042
20
-114.484
11
174.82
21
-114.693
0
LINE
8
BLACK
6
CONTINUOUS
10
174.82
20
-114.693
11
174.625
21
-114.928
0
LINE
8
BLACK
6
CONTINUOUS
10
174.625
20
-114.928
11
174.462
21
-115.185
0
LINE
8
BLACK
6
CONTINUOUS
10
174.462
20
-115.185
11
174.332
21
-115.461
0
LINE
8
BLACK
6
CONTINUOUS
10
174.332
20
-115.461
11
174.238
21
-115.752
0
LINE
8
BLACK
6
CONTINUOUS
10
174.238
20
-115.752
11
174.18
21
-116.051
0
LINE
8
BLACK
6
CONTINUOUS
10
174.18
20
-116.051
11
174.161
21
-116.356
0
LINE
8
BLACK
6
CONTINUOUS
10
174.161
20
-116.356
11
174.18
21
-116.66
0
LINE
8
BLACK
6
CONTINUOUS
10
174.18
20
-116.66
11
174.238
21
-116.96
0
LINE
8
BLACK
6
CONTINUOUS
10
197.006
20
-112.86
11
197.106
21
-112.552
0
LINE
8
BLACK
6
CONTINUOUS
10
197.106
20
-112.552
11
197.244
21
-112.259
0
LINE
8
BLACK
6
CONTINUOUS
10
197.244
20
-112.259
11
197.417
21
-111.986
0
LINE
8
BLACK
6
CONTINUOUS
10
197.417
20
-111.986
11
197.623
21
-111.737
0
LINE
8
BLACK
6
CONTINUOUS
10
197.623
20
-111.737
11
197.859
21
-111.516
0
LINE
8
BLACK
6
CONTINUOUS
10
197.859
20
-111.516
11
198.12
21
-111.326
0
LINE
8
BLACK
6
CONTINUOUS
10
198.12
20
-111.326
11
198.404
21
-111.17
0
LINE
8
BLACK
6
CONTINUOUS
10
198.404
20
-111.17
11
198.704
21
-111.051
0
LINE
8
BLACK
6
CONTINUOUS
10
198.704
20
-111.051
11
199.017
21
-110.971
0
LINE
8
BLACK
6
CONTINUOUS
10
199.017
20
-110.971
11
199.338
21
-110.93
0
LINE
8
BLACK
6
CONTINUOUS
10
199.338
20
-110.93
11
199.662
21
-110.93
0
LINE
8
BLACK
6
CONTINUOUS
10
199.662
20
-110.93
11
199.983
21
-110.971
0
LINE
8
BLACK
6
CONTINUOUS
10
199.983
20
-110.971
11
200.296
21
-111.051
0
LINE
8
BLACK
6
CONTINUOUS
10
200.296
20
-111.051
11
200.596
21
-111.17
0
LINE
8
BLACK
6
CONTINUOUS
10
200.596
20
-111.17
11
200.88
21
-111.326
0
LINE
8
BLACK
6
CONTINUOUS
10
200.88
20
-111.326
11
201.141
21
-111.516
0
LINE
8
BLACK
6
CONTINUOUS
10
201.141
20
-111.516
11
201.377
21
-111.737
0
LINE
8
BLACK
6
CONTINUOUS
10
201.377
20
-111.737
11
201.583
21
-111.986
0
LINE
8
BLACK
6
CONTINUOUS
10
201.583
20
-111.986
11
201.756
21
-112.259
0
LINE
8
BLACK
6
CONTINUOUS
10
201.756
20
-112.259
11
201.894
21
-112.552
0
LINE
8
BLACK
6
CONTINUOUS
10
201.894
20
-112.552
11
201.994
21
-112.86
0
LINE
8
BLACK
6
CONTINUOUS
10
201.994
20
-112.86
11
202.055
21
-113.177
0
LINE
8
BLACK
6
CONTINUOUS
10
202.055
20
-113.177
11
202.075
21
-113.5
0
LINE
8
BLACK
6
CONTINUOUS
10
202.075
20
-113.5
11
202.055
21
-113.823
0
LINE
8
BLACK
6
CONTINUOUS
10
202.055
20
-113.823
11
201.994
21
-114.14
0
LINE
8
BLACK
6
CONTINUOUS
10
201.994
20
-114.14
11
201.894
21
-114.448
0
LINE
8
BLACK
6
CONTINUOUS
10
201.894
20
-114.448
11
201.756
21
-114.741
0
LINE
8
BLACK
6
CONTINUOUS
10
201.756
20
-114.741
11
201.583
21
-115.014
0
LINE
8
BLACK
6
CONTINUOUS
10
201.583
20
-115.014
11
201.377
21
-115.263
0
LINE
8
BLACK
6
CONTINUOUS
10
201.377
20
-115.263
11
201.141
21
-115.484
0
LINE
8
BLACK
6
CONTINUOUS
10
201.141
20
-115.484
11
200.88
21
-115.674
0
LINE
8
BLACK
6
CONTINUOUS
10
200.88
20
-115.674
11
200.596
21
-115.83
0
LINE
8
BLACK
6
CONTINUOUS
10
200.596
20
-115.83
11
200.296
21
-115.949
0
LINE
8
BLACK
6
CONTINUOUS
10
200.296
20
-115.949
11
199.983
21
-116.029
0
LINE
8
BLACK
6
CONTINUOUS
10
199.983
20
-116.029
11
199.662
21
-116.07
0
LINE
8
BLACK
6
CONTINUOUS
10
199.662
20
-116.07
11
199.338
21
-116.07
0
LINE
8
BLACK
6
CONTINUOUS
10
199.338
20
-116.07
11
199.017
21
-116.029
0
LINE
8
BLACK
6
CONTINUOUS
10
199.017
20
-116.029
11
198.704
21
-115.949
0
LINE
8
BLACK
6
CONTINUOUS
10
198.704
20
-115.949
11
198.404
21
-115.83
0
LINE
8
BLACK
6
CONTINUOUS
10
198.404
20
-115.83
11
198.12
21
-115.674
0
LINE
8
BLACK
6
CONTINUOUS
10
198.12
20
-115.674
11
197.859
21
-115.484
0
LINE
8
BLACK
6
CONTINUOUS
10
197.859
20
-115.484
11
197.623
21
-115.263
0
LINE
8
BLACK
6
CONTINUOUS
10
197.623
20
-115.263
11
197.417
21
-115.014
0
LINE
8
BLACK
6
CONTINUOUS
10
197.417
20
-115.014
11
197.244
21
-114.741
0
LINE
8
BLACK
6
CONTINUOUS
10
197.244
20
-114.741
11
197.106
21
-114.448
0
LINE
8
BLACK
6
CONTINUOUS
10
197.106
20
-114.448
11
197.006
21
-114.14
0
LINE
8
BLACK
6
CONTINUOUS
10
197.006
20
-114.14
11
196.945
21
-113.823
0
LINE
8
BLACK
6
CONTINUOUS
10
196.945
20
-113.823
11
196.925
21
-113.5
0
LINE
8
BLACK
6
CONTINUOUS
10
196.925
20
-113.5
11
196.945
21
-113.177
0
LINE
8
BLACK
6
CONTINUOUS
10
196.945
20
-113.177
11
197.006
21
-112.86
0
LINE
8
BLACK
6
CONTINUOUS
10
197.147
20
-114.104
11
197.241
21
-114.394
0
LINE
8
BLACK
6
CONTINUOUS
10
197.241
20
-114.394
11
197.371
21
-114.671
0
LINE
8
BLACK
6
CONTINUOUS
10
197.371
20
-114.671
11
197.534
21
-114.928
0
LINE
8
BLACK
6
CONTINUOUS
10
197.534
20
-114.928
11
197.729
21
-115.163
0
LINE
8
BLACK
6
CONTINUOUS
10
197.729
20
-115.163
11
197.951
21
-115.372
0
LINE
8
BLACK
6
CONTINUOUS
10
197.951
20
-115.372
11
198.198
21
-115.552
0
LINE
8
BLACK
6
CONTINUOUS
10
198.198
20
-115.552
11
198.465
21
-115.699
0
LINE
8
BLACK
6
CONTINUOUS
10
198.465
20
-115.699
11
198.749
21
-115.811
0
LINE
8
BLACK
6
CONTINUOUS
10
198.749
20
-115.811
11
199.045
21
-115.887
0
LINE
8
BLACK
6
CONTINUOUS
10
199.045
20
-115.887
11
199.347
21
-115.925
0
LINE
8
BLACK
6
CONTINUOUS
10
199.347
20
-115.925
11
199.653
21
-115.925
0
LINE
8
BLACK
6
CONTINUOUS
10
199.653
20
-115.925
11
199.955
21
-115.887
0
LINE
8
BLACK
6
CONTINUOUS
10
199.955
20
-115.887
11
200.251
21
-115.811
0
LINE
8
BLACK
6
CONTINUOUS
10
200.251
20
-115.811
11
200.535
21
-115.699
0
LINE
8
BLACK
6
CONTINUOUS
10
200.535
20
-115.699
11
200.802
21
-115.552
0
LINE
8
BLACK
6
CONTINUOUS
10
200.802
20
-115.552
11
201.049
21
-115.372
0
LINE
8
BLACK
6
CONTINUOUS
10
201.049
20
-115.372
11
201.271
21
-115.163
0
LINE
8
BLACK
6
CONTINUOUS
10
201.271
20
-115.163
11
201.466
21
-114.928
0
LINE
8
BLACK
6
CONTINUOUS
10
201.466
20
-114.928
11
201.629
21
-114.671
0
LINE
8
BLACK
6
CONTINUOUS
10
201.629
20
-114.671
11
201.759
21
-114.394
0
LINE
8
BLACK
6
CONTINUOUS
10
201.759
20
-114.394
11
201.853
21
-114.104
0
LINE
8
BLACK
6
CONTINUOUS
10
201.853
20
-114.104
11
201.911
21
-113.805
0
LINE
8
BLACK
6
CONTINUOUS
10
201.911
20
-113.805
11
201.93
21
-113.5
0
LINE
8
BLACK
6
CONTINUOUS
10
201.93
20
-113.5
11
201.911
21
-113.195
0
LINE
8
BLACK
6
CONTINUOUS
10
201.911
20
-113.195
11
201.853
21
-112.896
0
LINE
8
BLACK
6
CONTINUOUS
10
201.853
20
-112.896
11
201.759
21
-112.606
0
LINE
8
BLACK
6
CONTINUOUS
10
201.759
20
-112.606
11
201.629
21
-112.329
0
LINE
8
BLACK
6
CONTINUOUS
10
201.629
20
-112.329
11
201.466
21
-112.072
0
LINE
8
BLACK
6
CONTINUOUS
10
201.466
20
-112.072
11
201.271
21
-111.837
0
LINE
8
BLACK
6
CONTINUOUS
10
201.271
20
-111.837
11
201.049
21
-111.628
0
LINE
8
BLACK
6
CONTINUOUS
10
201.049
20
-111.628
11
200.802
21
-111.448
0
LINE
8
BLACK
6
CONTINUOUS
10
200.802
20
-111.448
11
200.535
21
-111.301
0
LINE
8
BLACK
6
CONTINUOUS
10
200.535
20
-111.301
11
200.251
21
-111.189
0
LINE
8
BLACK
6
CONTINUOUS
10
200.251
20
-111.189
11
199.955
21
-111.113
0
LINE
8
BLACK
6
CONTINUOUS
10
199.955
20
-111.113
11
199.653
21
-111.075
0
LINE
8
BLACK
6
CONTINUOUS
10
199.653
20
-111.075
11
199.347
21
-111.075
0
LINE
8
BLACK
6
CONTINUOUS
10
199.347
20
-111.075
11
199.045
21
-111.113
0
LINE
8
BLACK
6
CONTINUOUS
10
199.045
20
-111.113
11
198.749
21
-111.189
0
LINE
8
BLACK
6
CONTINUOUS
10
198.749
20
-111.189
11
198.465
21
-111.301
0
LINE
8
BLACK
6
CONTINUOUS
10
198.465
20
-111.301
11
198.198
21
-111.448
0
LINE
8
BLACK
6
CONTINUOUS
10
198.198
20
-111.448
11
197.951
21
-111.628
0
LINE
8
BLACK
6
CONTINUOUS
10
197.951
20
-111.628
11
197.729
21
-111.837
0
LINE
8
BLACK
6
CONTINUOUS
10
197.729
20
-111.837
11
197.534
21
-112.072
0
LINE
8
BLACK
6
CONTINUOUS
10
197.534
20
-112.072
11
197.371
21
-112.329
0
LINE
8
BLACK
6
CONTINUOUS
10
197.371
20
-112.329
11
197.241
21
-112.606
0
LINE
8
BLACK
6
CONTINUOUS
10
197.241
20
-112.606
11
197.147
21
-112.896
0
LINE
8
BLACK
6
CONTINUOUS
10
197.147
20
-112.896
11
197.089
21
-113.195
0
LINE
8
BLACK
6
CONTINUOUS
10
197.089
20
-113.195
11
197.07
21
-113.5
0
LINE
8
BLACK
6
CONTINUOUS
10
197.07
20
-113.5
11
197.089
21
-113.805
0
LINE
8
BLACK
6
CONTINUOUS
10
197.089
20
-113.805
11
197.147
21
-114.104
0
LINE
8
BLACK
6
CONTINUOUS
10
182.006
20
-106.86
11
182.106
21
-106.552
0
LINE
8
BLACK
6
CONTINUOUS
10
182.106
20
-106.552
11
182.244
21
-106.259
0
LINE
8
BLACK
6
CONTINUOUS
10
182.244
20
-106.259
11
182.417
21
-105.986
0
LINE
8
BLACK
6
CONTINUOUS
10
182.417
20
-105.986
11
182.623
21
-105.737
0
LINE
8
BLACK
6
CONTINUOUS
10
182.623
20
-105.737
11
182.859
21
-105.516
0
LINE
8
BLACK
6
CONTINUOUS
10
182.859
20
-105.516
11
183.12
21
-105.326
0
LINE
8
BLACK
6
CONTINUOUS
10
183.12
20
-105.326
11
183.404
21
-105.17
0
LINE
8
BLACK
6
CONTINUOUS
10
183.404
20
-105.17
11
183.704
21
-105.051
0
LINE
8
BLACK
6
CONTINUOUS
10
183.704
20
-105.051
11
184.017
21
-104.971
0
LINE
8
BLACK
6
CONTINUOUS
10
184.017
20
-104.971
11
184.338
21
-104.93
0
LINE
8
BLACK
6
CONTINUOUS
10
184.338
20
-104.93
11
184.662
21
-104.93
0
LINE
8
BLACK
6
CONTINUOUS
10
184.662
20
-104.93
11
184.983
21
-104.971
0
LINE
8
BLACK
6
CONTINUOUS
10
184.983
20
-104.971
11
185.296
21
-105.051
0
LINE
8
BLACK
6
CONTINUOUS
10
185.296
20
-105.051
11
185.596
21
-105.17
0
LINE
8
BLACK
6
CONTINUOUS
10
185.596
20
-105.17
11
185.88
21
-105.326
0
LINE
8
BLACK
6
CONTINUOUS
10
185.88
20
-105.326
11
186.141
21
-105.516
0
LINE
8
BLACK
6
CONTINUOUS
10
186.141
20
-105.516
11
186.377
21
-105.737
0
LINE
8
BLACK
6
CONTINUOUS
10
186.377
20
-105.737
11
186.583
21
-105.986
0
LINE
8
BLACK
6
CONTINUOUS
10
186.583
20
-105.986
11
186.756
21
-106.259
0
LINE
8
BLACK
6
CONTINUOUS
10
186.756
20
-106.259
11
186.894
21
-106.552
0
LINE
8
BLACK
6
CONTINUOUS
10
186.894
20
-106.552
11
186.994
21
-106.86
0
LINE
8
BLACK
6
CONTINUOUS
10
186.994
20
-106.86
11
187.055
21
-107.177
0
LINE
8
BLACK
6
CONTINUOUS
10
187.055
20
-107.177
11
187.075
21
-107.5
0
LINE
8
BLACK
6
CONTINUOUS
10
187.075
20
-107.5
11
187.055
21
-107.823
0
LINE
8
BLACK
6
CONTINUOUS
10
187.055
20
-107.823
11
186.994
21
-108.14
0
LINE
8
BLACK
6
CONTINUOUS
10
186.994
20
-108.14
11
186.894
21
-108.448
0
LINE
8
BLACK
6
CONTINUOUS
10
186.894
20
-108.448
11
186.756
21
-108.741
0
LINE
8
BLACK
6
CONTINUOUS
10
186.756
20
-108.741
11
186.583
21
-109.014
0
LINE
8
BLACK
6
CONTINUOUS
10
186.583
20
-109.014
11
186.377
21
-109.263
0
LINE
8
BLACK
6
CONTINUOUS
10
186.377
20
-109.263
11
186.141
21
-109.484
0
LINE
8
BLACK
6
CONTINUOUS
10
186.141
20
-109.484
11
185.88
21
-109.674
0
LINE
8
BLACK
6
CONTINUOUS
10
185.88
20
-109.674
11
185.596
21
-109.83
0
LINE
8
BLACK
6
CONTINUOUS
10
185.596
20
-109.83
11
185.296
21
-109.949
0
LINE
8
BLACK
6
CONTINUOUS
10
185.296
20
-109.949
11
184.983
21
-110.029
0
LINE
8
BLACK
6
CONTINUOUS
10
184.983
20
-110.029
11
184.662
21
-110.07
0
LINE
8
BLACK
6
CONTINUOUS
10
184.662
20
-110.07
11
184.338
21
-110.07
0
LINE
8
BLACK
6
CONTINUOUS
10
184.338
20
-110.07
11
184.017
21
-110.029
0
LINE
8
BLACK
6
CONTINUOUS
10
184.017
20
-110.029
11
183.704
21
-109.949
0
LINE
8
BLACK
6
CONTINUOUS
10
183.704
20
-109.949
11
183.404
21
-109.83
0
LINE
8
BLACK
6
CONTINUOUS
10
183.404
20
-109.83
11
183.12
21
-109.674
0
LINE
8
BLACK
6
CONTINUOUS
10
183.12
20
-109.674
11
182.859
21
-109.484
0
LINE
8
BLACK
6
CONTINUOUS
10
182.859
20
-109.484
11
182.623
21
-109.263
0
LINE
8
BLACK
6
CONTINUOUS
10
182.623
20
-109.263
11
182.417
21
-109.014
0
LINE
8
BLACK
6
CONTINUOUS
10
182.417
20
-109.014
11
182.244
21
-108.741
0
LINE
8
BLACK
6
CONTINUOUS
10
182.244
20
-108.741
11
182.106
21
-108.448
0
LINE
8
BLACK
6
CONTINUOUS
10
182.106
20
-108.448
11
182.006
21
-108.14
0
LINE
8
BLACK
6
CONTINUOUS
10
182.006
20
-108.14
11
181.945
21
-107.823
0
LINE
8
BLACK
6
CONTINUOUS
10
181.945
20
-107.823
11
181.925
21
-107.5
0
LINE
8
BLACK
6
CONTINUOUS
10
181.925
20
-107.5
11
181.945
21
-107.177
0
LINE
8
BLACK
6
CONTINUOUS
10
181.945
20
-107.177
11
182.006
21
-106.86
0
LINE
8
BLACK
6
CONTINUOUS
10
182.147
20
-108.104
11
182.241
21
-108.394
0
LINE
8
BLACK
6
CONTINUOUS
10
182.241
20
-108.394
11
182.371
21
-108.671
0
LINE
8
BLACK
6
CONTINUOUS
10
182.371
20
-108.671
11
182.534
21
-108.928
0
LINE
8
BLACK
6
CONTINUOUS
10
182.534
20
-108.928
11
182.729
21
-109.163
0
LINE
8
BLACK
6
CONTINUOUS
10
182.729
20
-109.163
11
182.951
21
-109.372
0
LINE
8
BLACK
6
CONTINUOUS
10
182.951
20
-109.372
11
183.198
21
-109.552
0
LINE
8
BLACK
6
CONTINUOUS
10
183.198
20
-109.552
11
183.465
21
-109.699
0
LINE
8
BLACK
6
CONTINUOUS
10
183.465
20
-109.699
11
183.749
21
-109.811
0
LINE
8
BLACK
6
CONTINUOUS
10
183.749
20
-109.811
11
184.045
21
-109.887
0
LINE
8
BLACK
6
CONTINUOUS
10
184.045
20
-109.887
11
184.347
21
-109.925
0
LINE
8
BLACK
6
CONTINUOUS
10
184.347
20
-109.925
11
184.653
21
-109.925
0
LINE
8
BLACK
6
CONTINUOUS
10
184.653
20
-109.925
11
184.955
21
-109.887
0
LINE
8
BLACK
6
CONTINUOUS
10
184.955
20
-109.887
11
185.251
21
-109.811
0
LINE
8
BLACK
6
CONTINUOUS
10
185.251
20
-109.811
11
185.535
21
-109.699
0
LINE
8
BLACK
6
CONTINUOUS
10
185.535
20
-109.699
11
185.802
21
-109.552
0
LINE
8
BLACK
6
CONTINUOUS
10
185.802
20
-109.552
11
186.049
21
-109.372
0
LINE
8
BLACK
6
CONTINUOUS
10
186.049
20
-109.372
11
186.271
21
-109.163
0
LINE
8
BLACK
6
CONTINUOUS
10
186.271
20
-109.163
11
186.466
21
-108.928
0
LINE
8
BLACK
6
CONTINUOUS
10
186.466
20
-108.928
11
186.629
21
-108.671
0
LINE
8
BLACK
6
CONTINUOUS
10
186.629
20
-108.671
11
186.759
21
-108.394
0
LINE
8
BLACK
6
CONTINUOUS
10
186.759
20
-108.394
11
186.853
21
-108.104
0
LINE
8
BLACK
6
CONTINUOUS
10
186.853
20
-108.104
11
186.911
21
-107.805
0
LINE
8
BLACK
6
CONTINUOUS
10
186.911
20
-107.805
11
186.93
21
-107.5
0
LINE
8
BLACK
6
CONTINUOUS
10
186.93
20
-107.5
11
186.911
21
-107.195
0
LINE
8
BLACK
6
CONTINUOUS
10
186.911
20
-107.195
11
186.853
21
-106.896
0
LINE
8
BLACK
6
CONTINUOUS
10
186.853
20
-106.896
11
186.759
21
-106.606
0
LINE
8
BLACK
6
CONTINUOUS
10
186.759
20
-106.606
11
186.629
21
-106.329
0
LINE
8
BLACK
6
CONTINUOUS
10
186.629
20
-106.329
11
186.466
21
-106.072
0
LINE
8
BLACK
6
CONTINUOUS
10
186.466
20
-106.072
11
186.271
21
-105.837
0
LINE
8
BLACK
6
CONTINUOUS
10
186.271
20
-105.837
11
186.049
21
-105.628
0
LINE
8
BLACK
6
CONTINUOUS
10
186.049
20
-105.628
11
185.802
21
-105.448
0
LINE
8
BLACK
6
CONTINUOUS
10
185.802
20
-105.448
11
185.535
21
-105.301
0
LINE
8
BLACK
6
CONTINUOUS
10
185.535
20
-105.301
11
185.251
21
-105.189
0
LINE
8
BLACK
6
CONTINUOUS
10
185.251
20
-105.189
11
184.955
21
-105.113
0
LINE
8
BLACK
6
CONTINUOUS
10
184.955
20
-105.113
11
184.653
21
-105.075
0
LINE
8
BLACK
6
CONTINUOUS
10
184.653
20
-105.075
11
184.347
21
-105.075
0
LINE
8
BLACK
6
CONTINUOUS
10
184.347
20
-105.075
11
184.045
21
-105.113
0
LINE
8
BLACK
6
CONTINUOUS
10
184.045
20
-105.113
11
183.749
21
-105.189
0
LINE
8
BLACK
6
CONTINUOUS
10
183.749
20
-105.189
11
183.465
21
-105.301
0
LINE
8
BLACK
6
CONTINUOUS
10
183.465
20
-105.301
11
183.198
21
-105.448
0
LINE
8
BLACK
6
CONTINUOUS
10
183.198
20
-105.448
11
182.951
21
-105.628
0
LINE
8
BLACK
6
CONTINUOUS
10
182.951
20
-105.628
11
182.729
21
-105.837
0
LINE
8
BLACK
6
CONTINUOUS
10
182.729
20
-105.837
11
182.534
21
-106.072
0
LINE
8
BLACK
6
CONTINUOUS
10
182.534
20
-106.072
11
182.371
21
-106.329
0
LINE
8
BLACK
6
CONTINUOUS
10
182.371
20
-106.329
11
182.241
21
-106.606
0
LINE
8
BLACK
6
CONTINUOUS
10
182.241
20
-106.606
11
182.147
21
-106.896
0
LINE
8
BLACK
6
CONTINUOUS
10
182.147
20
-106.896
11
182.089
21
-107.195
0
LINE
8
BLACK
6
CONTINUOUS
10
182.089
20
-107.195
11
182.07
21
-107.5
0
LINE
8
BLACK
6
CONTINUOUS
10
182.07
20
-107.5
11
182.089
21
-107.805
0
LINE
8
BLACK
6
CONTINUOUS
10
182.089
20
-107.805
11
182.147
21
-108.104
0
LINE
8
BLACK
6
CONTINUOUS
10
160.506
20
-91.3596
11
160.606
21
-91.0521
0
LINE
8
BLACK
6
CONTINUOUS
10
160.606
20
-91.0521
11
160.744
21
-90.7595
0
LINE
8
BLACK
6
CONTINUOUS
10
160.744
20
-90.7595
11
160.917
21
-90.4865
0
LINE
8
BLACK
6
CONTINUOUS
10
160.917
20
-90.4865
11
161.123
21
-90.2373
0
LINE
8
BLACK
6
CONTINUOUS
10
161.123
20
-90.2373
11
161.359
21
-90.0159
0
LINE
8
BLACK
6
CONTINUOUS
10
161.359
20
-90.0159
11
161.62
21
-89.8259
0
LINE
8
BLACK
6
CONTINUOUS
10
161.62
20
-89.8259
11
161.904
21
-89.6701
0
LINE
8
BLACK
6
CONTINUOUS
10
161.904
20
-89.6701
11
162.204
21
-89.551
0
LINE
8
BLACK
6
CONTINUOUS
10
162.204
20
-89.551
11
162.517
21
-89.4706
0
LINE
8
BLACK
6
CONTINUOUS
10
162.517
20
-89.4706
11
162.838
21
-89.4301
0
LINE
8
BLACK
6
CONTINUOUS
10
162.838
20
-89.4301
11
163.162
21
-89.4301
0
LINE
8
BLACK
6
CONTINUOUS
10
163.162
20
-89.4301
11
163.483
21
-89.4706
0
LINE
8
BLACK
6
CONTINUOUS
10
163.483
20
-89.4706
11
163.796
21
-89.551
0
LINE
8
BLACK
6
CONTINUOUS
10
163.796
20
-89.551
11
164.096
21
-89.6701
0
LINE
8
BLACK
6
CONTINUOUS
10
164.096
20
-89.6701
11
164.38
21
-89.8259
0
LINE
8
BLACK
6
CONTINUOUS
10
164.38
20
-89.8259
11
164.641
21
-90.0159
0
LINE
8
BLACK
6
CONTINUOUS
10
164.641
20
-90.0159
11
164.877
21
-90.2373
0
LINE
8
BLACK
6
CONTINUOUS
10
164.877
20
-90.2373
11
165.083
21
-90.4865
0
LINE
8
BLACK
6
CONTINUOUS
10
165.083
20
-90.4865
11
165.256
21
-90.7595
0
LINE
8
BLACK
6
CONTINUOUS
10
165.256
20
-90.7595
11
165.394
21
-91.0521
0
LINE
8
BLACK
6
CONTINUOUS
10
165.394
20
-91.0521
11
165.494
21
-91.3596
0
LINE
8
BLACK
6
CONTINUOUS
10
165.494
20
-91.3596
11
165.555
21
-91.6773
0
LINE
8
BLACK
6
CONTINUOUS
10
165.555
20
-91.6773
11
165.575
21
-92
0
LINE
8
BLACK
6
CONTINUOUS
10
165.575
20
-92
11
165.555
21
-92.3227
0
LINE
8
BLACK
6
CONTINUOUS
10
165.555
20
-92.3227
11
165.494
21
-92.6404
0
LINE
8
BLACK
6
CONTINUOUS
10
165.494
20
-92.6404
11
165.394
21
-92.9479
0
LINE
8
BLACK
6
CONTINUOUS
10
165.394
20
-92.9479
11
165.256
21
-93.2405
0
LINE
8
BLACK
6
CONTINUOUS
10
165.256
20
-93.2405
11
165.083
21
-93.5135
0
LINE
8
BLACK
6
CONTINUOUS
10
165.083
20
-93.5135
11
164.877
21
-93.7627
0
LINE
8
BLACK
6
CONTINUOUS
10
164.877
20
-93.7627
11
164.641
21
-93.9841
0
LINE
8
BLACK
6
CONTINUOUS
10
164.641
20
-93.9841
11
164.38
21
-94.1741
0
LINE
8
BLACK
6
CONTINUOUS
10
164.38
20
-94.1741
11
164.096
21
-94.3299
0
LINE
8
BLACK
6
CONTINUOUS
10
164.096
20
-94.3299
11
163.796
21
-94.449
0
LINE
8
BLACK
6
CONTINUOUS
10
163.796
20
-94.449
11
163.483
21
-94.5294
0
LINE
8
BLACK
6
CONTINUOUS
10
163.483
20
-94.5294
11
163.162
21
-94.5699
0
LINE
8
BLACK
6
CONTINUOUS
10
163.162
20
-94.5699
11
162.838
21
-94.5699
0
LINE
8
BLACK
6
CONTINUOUS
10
162.838
20
-94.5699
11
162.517
21
-94.5294
0
LINE
8
BLACK
6
CONTINUOUS
10
162.517
20
-94.5294
11
162.204
21
-94.449
0
LINE
8
BLACK
6
CONTINUOUS
10
162.204
20
-94.449
11
161.904
21
-94.3299
0
LINE
8
BLACK
6
CONTINUOUS
10
161.904
20
-94.3299
11
161.62
21
-94.1741
0
LINE
8
BLACK
6
CONTINUOUS
10
161.62
20
-94.1741
11
161.359
21
-93.9841
0
LINE
8
BLACK
6
CONTINUOUS
10
161.359
20
-93.9841
11
161.123
21
-93.7627
0
LINE
8
BLACK
6
CONTINUOUS
10
161.123
20
-93.7627
11
160.917
21
-93.5135
0
LINE
8
BLACK
6
CONTINUOUS
10
160.917
20
-93.5135
11
160.744
21
-93.2405
0
LINE
8
BLACK
6
CONTINUOUS
10
160.744
20
-93.2405
11
160.606
21
-92.9479
0
LINE
8
BLACK
6
CONTINUOUS
10
160.606
20
-92.9479
11
160.506
21
-92.6404
0
LINE
8
BLACK
6
CONTINUOUS
10
160.506
20
-92.6404
11
160.445
21
-92.3227
0
LINE
8
BLACK
6
CONTINUOUS
10
160.445
20
-92.3227
11
160.425
21
-92
0
LINE
8
BLACK
6
CONTINUOUS
10
160.425
20
-92
11
160.445
21
-91.6773
0
LINE
8
BLACK
6
CONTINUOUS
10
160.445
20
-91.6773
11
160.506
21
-91.3596
0
LINE
8
BLACK
6
CONTINUOUS
10
160.647
20
-92.6043
11
160.741
21
-92.8945
0
LINE
8
BLACK
6
CONTINUOUS
10
160.741
20
-92.8945
11
160.871
21
-93.1706
0
LINE
8
BLACK
6
CONTINUOUS
10
160.871
20
-93.1706
11
161.034
21
-93.4282
0
LINE
8
BLACK
6
CONTINUOUS
10
161.034
20
-93.4282
11
161.229
21
-93.6633
0
LINE
8
BLACK
6
CONTINUOUS
10
161.229
20
-93.6633
11
161.451
21
-93.8722
0
LINE
8
BLACK
6
CONTINUOUS
10
161.451
20
-93.8722
11
161.698
21
-94.0515
0
LINE
8
BLACK
6
CONTINUOUS
10
161.698
20
-94.0515
11
161.965
21
-94.1985
0
LINE
8
BLACK
6
CONTINUOUS
10
161.965
20
-94.1985
11
162.249
21
-94.3109
0
LINE
8
BLACK
6
CONTINUOUS
10
162.249
20
-94.3109
11
162.545
21
-94.3868
0
LINE
8
BLACK
6
CONTINUOUS
10
162.545
20
-94.3868
11
162.847
21
-94.425
0
LINE
8
BLACK
6
CONTINUOUS
10
162.847
20
-94.425
11
163.153
21
-94.425
0
LINE
8
BLACK
6
CONTINUOUS
10
163.153
20
-94.425
11
163.455
21
-94.3868
0
LINE
8
BLACK
6
CONTINUOUS
10
163.455
20
-94.3868
11
163.751
21
-94.3109
0
LINE
8
BLACK
6
CONTINUOUS
10
163.751
20
-94.3109
11
164.035
21
-94.1985
0
LINE
8
BLACK
6
CONTINUOUS
10
164.035
20
-94.1985
11
164.302
21
-94.0515
0
LINE
8
BLACK
6
CONTINUOUS
10
164.302
20
-94.0515
11
164.549
21
-93.8722
0
LINE
8
BLACK
6
CONTINUOUS
10
164.549
20
-93.8722
11
164.771
21
-93.6633
0
LINE
8
BLACK
6
CONTINUOUS
10
164.771
20
-93.6633
11
164.966
21
-93.4282
0
LINE
8
BLACK
6
CONTINUOUS
10
164.966
20
-93.4282
11
165.129
21
-93.1706
0
LINE
8
BLACK
6
CONTINUOUS
10
165.129
20
-93.1706
11
165.259
21
-92.8945
0
LINE
8
BLACK
6
CONTINUOUS
10
165.259
20
-92.8945
11
165.353
21
-92.6043
0
LINE
8
BLACK
6
CONTINUOUS
10
165.353
20
-92.6043
11
165.411
21
-92.3045
0
LINE
8
BLACK
6
CONTINUOUS
10
165.411
20
-92.3045
11
165.43
21
-92
0
LINE
8
BLACK
6
CONTINUOUS
10
165.43
20
-92
11
165.411
21
-91.6955
0
LINE
8
BLACK
6
CONTINUOUS
10
165.411
20
-91.6955
11
165.353
21
-91.3957
0
LINE
8
BLACK
6
CONTINUOUS
10
165.353
20
-91.3957
11
165.259
21
-91.1055
0
LINE
8
BLACK
6
CONTINUOUS
10
165.259
20
-91.1055
11
165.129
21
-90.8294
0
LINE
8
BLACK
6
CONTINUOUS
10
165.129
20
-90.8294
11
164.966
21
-90.5718
0
LINE
8
BLACK
6
CONTINUOUS
10
164.966
20
-90.5718
11
164.771
21
-90.3367
0
LINE
8
BLACK
6
CONTINUOUS
10
164.771
20
-90.3367
11
164.549
21
-90.1278
0
LINE
8
BLACK
6
CONTINUOUS
10
164.549
20
-90.1278
11
164.302
21
-89.9485
0
LINE
8
BLACK
6
CONTINUOUS
10
164.302
20
-89.9485
11
164.035
21
-89.8015
0
LINE
8
BLACK
6
CONTINUOUS
10
164.035
20
-89.8015
11
163.751
21
-89.6891
0
LINE
8
BLACK
6
CONTINUOUS
10
163.751
20
-89.6891
11
163.455
21
-89.6132
0
LINE
8
BLACK
6
CONTINUOUS
10
163.455
20
-89.6132
11
163.153
21
-89.575
0
LINE
8
BLACK
6
CONTINUOUS
10
163.153
20
-89.575
11
162.847
21
-89.575
0
LINE
8
BLACK
6
CONTINUOUS
10
162.847
20
-89.575
11
162.545
21
-89.6132
0
LINE
8
BLACK
6
CONTINUOUS
10
162.545
20
-89.6132
11
162.249
21
-89.6891
0
LINE
8
BLACK
6
CONTINUOUS
10
162.249
20
-89.6891
11
161.965
21
-89.8015
0
LINE
8
BLACK
6
CONTINUOUS
10
161.965
20
-89.8015
11
161.698
21
-89.9485
0
LINE
8
BLACK
6
CONTINUOUS
10
161.698
20
-89.9485
11
161.451
21
-90.1278
0
LINE
8
BLACK
6
CONTINUOUS
10
161.451
20
-90.1278
11
161.229
21
-90.3367
0
LINE
8
BLACK
6
CONTINUOUS
10
161.229
20
-90.3367
11
161.034
21
-90.5718
0
LINE
8
BLACK
6
CONTINUOUS
10
161.034
20
-90.5718
11
160.871
21
-90.8294
0
LINE
8
BLACK
6
CONTINUOUS
10
160.871
20
-90.8294
11
160.741
21
-91.1055
0
LINE
8
BLACK
6
CONTINUOUS
10
160.741
20
-91.1055
11
160.647
21
-91.3957
0
LINE
8
BLACK
6
CONTINUOUS
10
160.647
20
-91.3957
11
160.589
21
-91.6955
0
LINE
8
BLACK
6
CONTINUOUS
10
160.589
20
-91.6955
11
160.57
21
-92
0
LINE
8
BLACK
6
CONTINUOUS
10
160.57
20
-92
11
160.589
21
-92.3045
0
LINE
8
BLACK
6
CONTINUOUS
10
160.589
20
-92.3045
11
160.647
21
-92.6043
0
LINE
8
BLACK
6
CONTINUOUS
10
106.506
20
-88.8596
11
106.606
21
-88.5521
0
LINE
8
BLACK
6
CONTINUOUS
10
106.606
20
-88.5521
11
106.744
21
-88.2595
0
LINE
8
BLACK
6
CONTINUOUS
10
106.744
20
-88.2595
11
106.917
21
-87.9865
0
LINE
8
BLACK
6
CONTINUOUS
10
106.917
20
-87.9865
11
107.123
21
-87.7373
0
LINE
8
BLACK
6
CONTINUOUS
10
107.123
20
-87.7373
11
107.359
21
-87.5159
0
LINE
8
BLACK
6
CONTINUOUS
10
107.359
20
-87.5159
11
107.62
21
-87.3259
0
LINE
8
BLACK
6
CONTINUOUS
10
107.62
20
-87.3259
11
107.904
21
-87.1701
0
LINE
8
BLACK
6
CONTINUOUS
10
107.904
20
-87.1701
11
108.204
21
-87.051
0
LINE
8
BLACK
6
CONTINUOUS
10
108.204
20
-87.051
11
108.517
21
-86.9706
0
LINE
8
BLACK
6
CONTINUOUS
10
108.517
20
-86.9706
11
108.838
21
-86.9301
0
LINE
8
BLACK
6
CONTINUOUS
10
108.838
20
-86.9301
11
109.162
21
-86.9301
0
LINE
8
BLACK
6
CONTINUOUS
10
109.162
20
-86.9301
11
109.483
21
-86.9706
0
LINE
8
BLACK
6
CONTINUOUS
10
109.483
20
-86.9706
11
109.796
21
-87.051
0
LINE
8
BLACK
6
CONTINUOUS
10
109.796
20
-87.051
11
110.096
21
-87.1701
0
LINE
8
BLACK
6
CONTINUOUS
10
110.096
20
-87.1701
11
110.38
21
-87.3259
0
LINE
8
BLACK
6
CONTINUOUS
10
110.38
20
-87.3259
11
110.641
21
-87.5159
0
LINE
8
BLACK
6
CONTINUOUS
10
110.641
20
-87.5159
11
110.877
21
-87.7373
0
LINE
8
BLACK
6
CONTINUOUS
10
110.877
20
-87.7373
11
111.083
21
-87.9865
0
LINE
8
BLACK
6
CONTINUOUS
10
111.083
20
-87.9865
11
111.256
21
-88.2595
0
LINE
8
BLACK
6
CONTINUOUS
10
111.256
20
-88.2595
11
111.394
21
-88.5521
0
LINE
8
BLACK
6
CONTINUOUS
10
111.394
20
-88.5521
11
111.494
21
-88.8596
0
LINE
8
BLACK
6
CONTINUOUS
10
111.494
20
-88.8596
11
111.555
21
-89.1773
0
LINE
8
BLACK
6
CONTINUOUS
10
111.555
20
-89.1773
11
111.575
21
-89.5
0
LINE
8
BLACK
6
CONTINUOUS
10
111.575
20
-89.5
11
111.555
21
-89.8227
0
LINE
8
BLACK
6
CONTINUOUS
10
111.555
20
-89.8227
11
111.494
21
-90.1404
0
LINE
8
BLACK
6
CONTINUOUS
10
111.494
20
-90.1404
11
111.394
21
-90.4479
0
LINE
8
BLACK
6
CONTINUOUS
10
111.394
20
-90.4479
11
111.256
21
-90.7405
0
LINE
8
BLACK
6
CONTINUOUS
10
111.256
20
-90.7405
11
111.083
21
-91.0135
0
LINE
8
BLACK
6
CONTINUOUS
10
111.083
20
-91.0135
11
110.877
21
-91.2627
0
LINE
8
BLACK
6
CONTINUOUS
10
110.877
20
-91.2627
11
110.641
21
-91.4841
0
LINE
8
BLACK
6
CONTINUOUS
10
110.641
20
-91.4841
11
110.38
21
-91.6741
0
LINE
8
BLACK
6
CONTINUOUS
10
110.38
20
-91.6741
11
110.096
21
-91.8299
0
LINE
8
BLACK
6
CONTINUOUS
10
110.096
20
-91.8299
11
109.796
21
-91.949
0
LINE
8
BLACK
6
CONTINUOUS
10
109.796
20
-91.949
11
109.483
21
-92.0294
0
LINE
8
BLACK
6
CONTINUOUS
10
109.483
20
-92.0294
11
109.162
21
-92.0699
0
LINE
8
BLACK
6
CONTINUOUS
10
109.162
20
-92.0699
11
108.838
21
-92.0699
0
LINE
8
BLACK
6
CONTINUOUS
10
108.838
20
-92.0699
11
108.517
21
-92.0294
0
LINE
8
BLACK
6
CONTINUOUS
10
108.517
20
-92.0294
11
108.204
21
-91.949
0
LINE
8
BLACK
6
CONTINUOUS
10
108.204
20
-91.949
11
107.904
21
-91.8299
0
LINE
8
BLACK
6
CONTINUOUS
10
107.904
20
-91.8299
11
107.62
21
-91.6741
0
LINE
8
BLACK
6
CONTINUOUS
10
107.62
20
-91.6741
11
107.359
21
-91.4841
0
LINE
8
BLACK
6
CONTINUOUS
10
107.359
20
-91.4841
11
107.123
21
-91.2627
0
LINE
8
BLACK
6
CONTINUOUS
10
107.123
20
-91.2627
11
106.917
21
-91.0135
0
LINE
8
BLACK
6
CONTINUOUS
10
106.917
20
-91.0135
11
106.744
21
-90.7405
0
LINE
8
BLACK
6
CONTINUOUS
10
106.744
20
-90.7405
11
106.606
21
-90.4479
0
LINE
8
BLACK
6
CONTINUOUS
10
106.606
20
-90.4479
11
106.506
21
-90.1404
0
LINE
8
BLACK
6
CONTINUOUS
10
106.506
20
-90.1404
11
106.445
21
-89.8227
0
LINE
8
BLACK
6
CONTINUOUS
10
106.445
20
-89.8227
11
106.425
21
-89.5
0
LINE
8
BLACK
6
CONTINUOUS
10
106.425
20
-89.5
11
106.445
21
-89.1773
0
LINE
8
BLACK
6
CONTINUOUS
10
106.445
20
-89.1773
11
106.506
21
-88.8596
0
LINE
8
BLACK
6
CONTINUOUS
10
106.647
20
-90.1043
11
106.741
21
-90.3945
0
LINE
8
BLACK
6
CONTINUOUS
10
106.741
20
-90.3945
11
106.871
21
-90.6706
0
LINE
8
BLACK
6
CONTINUOUS
10
106.871
20
-90.6706
11
107.034
21
-90.9282
0
LINE
8
BLACK
6
CONTINUOUS
10
107.034
20
-90.9282
11
107.229
21
-91.1633
0
LINE
8
BLACK
6
CONTINUOUS
10
107.229
20
-91.1633
11
107.451
21
-91.3722
0
LINE
8
BLACK
6
CONTINUOUS
10
107.451
20
-91.3722
11
107.698
21
-91.5515
0
LINE
8
BLACK
6
CONTINUOUS
10
107.698
20
-91.5515
11
107.965
21
-91.6985
0
LINE
8
BLACK
6
CONTINUOUS
10
107.965
20
-91.6985
11
108.249
21
-91.8109
0
LINE
8
BLACK
6
CONTINUOUS
10
108.249
20
-91.8109
11
108.545
21
-91.8868
0
LINE
8
BLACK
6
CONTINUOUS
10
108.545
20
-91.8868
11
108.847
21
-91.925
0
LINE
8
BLACK
6
CONTINUOUS
10
108.847
20
-91.925
11
109.153
21
-91.925
0
LINE
8
BLACK
6
CONTINUOUS
10
109.153
20
-91.925
11
109.455
21
-91.8868
0
LINE
8
BLACK
6
CONTINUOUS
10
109.455
20
-91.8868
11
109.751
21
-91.8109
0
LINE
8
BLACK
6
CONTINUOUS
10
109.751
20
-91.8109
11
110.035
21
-91.6985
0
LINE
8
BLACK
6
CONTINUOUS
10
110.035
20
-91.6985
11
110.302
21
-91.5515
0
LINE
8
BLACK
6
CONTINUOUS
10
110.302
20
-91.5515
11
110.549
21
-91.3722
0
LINE
8
BLACK
6
CONTINUOUS
10
110.549
20
-91.3722
11
110.771
21
-91.1633
0
LINE
8
BLACK
6
CONTINUOUS
10
110.771
20
-91.1633
11
110.966
21
-90.9282
0
LINE
8
BLACK
6
CONTINUOUS
10
110.966
20
-90.9282
11
111.129
21
-90.6706
0
LINE
8
BLACK
6
CONTINUOUS
10
111.129
20
-90.6706
11
111.259
21
-90.3945
0
LINE
8
BLACK
6
CONTINUOUS
10
111.259
20
-90.3945
11
111.353
21
-90.1043
0
LINE
8
BLACK
6
CONTINUOUS
10
111.353
20
-90.1043
11
111.411
21
-89.8045
0
LINE
8
BLACK
6
CONTINUOUS
10
111.411
20
-89.8045
11
111.43
21
-89.5
0
LINE
8
BLACK
6
CONTINUOUS
10
111.43
20
-89.5
11
111.411
21
-89.1955
0
LINE
8
BLACK
6
CONTINUOUS
10
111.411
20
-89.1955
11
111.353
21
-88.8957
0
LINE
8
BLACK
6
CONTINUOUS
10
111.353
20
-88.8957
11
111.259
21
-88.6055
0
LINE
8
BLACK
6
CONTINUOUS
10
111.259
20
-88.6055
11
111.129
21
-88.3294
0
LINE
8
BLACK
6
CONTINUOUS
10
111.129
20
-88.3294
11
110.966
21
-88.0718
0
LINE
8
BLACK
6
CONTINUOUS
10
110.966
20
-88.0718
11
110.771
21
-87.8367
0
LINE
8
BLACK
6
CONTINUOUS
10
110.771
20
-87.8367
11
110.549
21
-87.6278
0
LINE
8
BLACK
6
CONTINUOUS
10
110.549
20
-87.6278
11
110.302
21
-87.4485
0
LINE
8
BLACK
6
CONTINUOUS
10
110.302
20
-87.4485
11
110.035
21
-87.3015
0
LINE
8
BLACK
6
CONTINUOUS
10
110.035
20
-87.3015
11
109.751
21
-87.1891
0
LINE
8
BLACK
6
CONTINUOUS
10
109.751
20
-87.1891
11
109.455
21
-87.1132
0
LINE
8
BLACK
6
CONTINUOUS
10
109.455
20
-87.1132
11
109.153
21
-87.075
0
LINE
8
BLACK
6
CONTINUOUS
10
109.153
20
-87.075
11
108.847
21
-87.075
0
LINE
8
BLACK
6
CONTINUOUS
10
108.847
20
-87.075
11
108.545
21
-87.1132
0
LINE
8
BLACK
6
CONTINUOUS
10
108.545
20
-87.1132
11
108.249
21
-87.1891
0
LINE
8
BLACK
6
CONTINUOUS
10
108.249
20
-87.1891
11
107.965
21
-87.3015
0
LINE
8
BLACK
6
CONTINUOUS
10
107.965
20
-87.3015
11
107.698
21
-87.4485
0
LINE
8
BLACK
6
CONTINUOUS
10
107.698
20
-87.4485
11
107.451
21
-87.6278
0
LINE
8
BLACK
6
CONTINUOUS
10
107.451
20
-87.6278
11
107.229
21
-87.8367
0
LINE
8
BLACK
6
CONTINUOUS
10
107.229
20
-87.8367
11
107.034
21
-88.0718
0
LINE
8
BLACK
6
CONTINUOUS
10
107.034
20
-88.0718
11
106.871
21
-88.3294
0
LINE
8
BLACK
6
CONTINUOUS
10
106.871
20
-88.3294
11
106.741
21
-88.6055
0
LINE
8
BLACK
6
CONTINUOUS
10
106.741
20
-88.6055
11
106.647
21
-88.8957
0
LINE
8
BLACK
6
CONTINUOUS
10
106.647
20
-88.8957
11
106.589
21
-89.1955
0
LINE
8
BLACK
6
CONTINUOUS
10
106.589
20
-89.1955
11
106.57
21
-89.5
0
LINE
8
BLACK
6
CONTINUOUS
10
106.57
20
-89.5
11
106.589
21
-89.8045
0
LINE
8
BLACK
6
CONTINUOUS
10
106.589
20
-89.8045
11
106.647
21
-90.1043
0
LINE
8
BLACK
6
CONTINUOUS
10
160.506
20
-57.3596
11
160.606
21
-57.0521
0
LINE
8
BLACK
6
CONTINUOUS
10
160.606
20
-57.0521
11
160.744
21
-56.7595
0
LINE
8
BLACK
6
CONTINUOUS
10
160.744
20
-56.7595
11
160.917
21
-56.4865
0
LINE
8
BLACK
6
CONTINUOUS
10
160.917
20
-56.4865
11
161.123
21
-56.2373
0
LINE
8
BLACK
6
CONTINUOUS
10
161.123
20
-56.2373
11
161.359
21
-56.0159
0
LINE
8
BLACK
6
CONTINUOUS
10
161.359
20
-56.0159
11
161.62
21
-55.8259
0
LINE
8
BLACK
6
CONTINUOUS
10
161.62
20
-55.8259
11
161.904
21
-55.6701
0
LINE
8
BLACK
6
CONTINUOUS
10
161.904
20
-55.6701
11
162.204
21
-55.551
0
LINE
8
BLACK
6
CONTINUOUS
10
162.204
20
-55.551
11
162.517
21
-55.4706
0
LINE
8
BLACK
6
CONTINUOUS
10
162.517
20
-55.4706
11
162.838
21
-55.4301
0
LINE
8
BLACK
6
CONTINUOUS
10
162.838
20
-55.4301
11
163.162
21
-55.4301
0
LINE
8
BLACK
6
CONTINUOUS
10
163.162
20
-55.4301
11
163.483
21
-55.4706
0
LINE
8
BLACK
6
CONTINUOUS
10
163.483
20
-55.4706
11
163.796
21
-55.551
0
LINE
8
BLACK
6
CONTINUOUS
10
163.796
20
-55.551
11
164.096
21
-55.6701
0
LINE
8
BLACK
6
CONTINUOUS
10
164.096
20
-55.6701
11
164.38
21
-55.8259
0
LINE
8
BLACK
6
CONTINUOUS
10
164.38
20
-55.8259
11
164.641
21
-56.0159
0
LINE
8
BLACK
6
CONTINUOUS
10
164.641
20
-56.0159
11
164.877
21
-56.2373
0
LINE
8
BLACK
6
CONTINUOUS
10
164.877
20
-56.2373
11
165.083
21
-56.4865
0
LINE
8
BLACK
6
CONTINUOUS
10
165.083
20
-56.4865
11
165.256
21
-56.7595
0
LINE
8
BLACK
6
CONTINUOUS
10
165.256
20
-56.7595
11
165.394
21
-57.0521
0
LINE
8
BLACK
6
CONTINUOUS
10
165.394
20
-57.0521
11
165.494
21
-57.3596
0
LINE
8
BLACK
6
CONTINUOUS
10
165.494
20
-57.3596
11
165.555
21
-57.6773
0
LINE
8
BLACK
6
CONTINUOUS
10
165.555
20
-57.6773
11
165.575
21
-58
0
LINE
8
BLACK
6
CONTINUOUS
10
165.575
20
-58
11
165.555
21
-58.3227
0
LINE
8
BLACK
6
CONTINUOUS
10
165.555
20
-58.3227
11
165.494
21
-58.6404
0
LINE
8
BLACK
6
CONTINUOUS
10
165.494
20
-58.6404
11
165.394
21
-58.9479
0
LINE
8
BLACK
6
CONTINUOUS
10
165.394
20
-58.9479
11
165.256
21
-59.2405
0
LINE
8
BLACK
6
CONTINUOUS
10
165.256
20
-59.2405
11
165.083
21
-59.5135
0
LINE
8
BLACK
6
CONTINUOUS
10
165.083
20
-59.5135
11
164.877
21
-59.7627
0
LINE
8
BLACK
6
CONTINUOUS
10
164.877
20
-59.7627
11
164.641
21
-59.9841
0
LINE
8
BLACK
6
CONTINUOUS
10
164.641
20
-59.9841
11
164.38
21
-60.1741
0
LINE
8
BLACK
6
CONTINUOUS
10
164.38
20
-60.1741
11
164.096
21
-60.3299
0
LINE
8
BLACK
6
CONTINUOUS
10
164.096
20
-60.3299
11
163.796
21
-60.449
0
LINE
8
BLACK
6
CONTINUOUS
10
163.796
20
-60.449
11
163.483
21
-60.5294
0
LINE
8
BLACK
6
CONTINUOUS
10
163.483
20
-60.5294
11
163.162
21
-60.5699
0
LINE
8
BLACK
6
CONTINUOUS
10
163.162
20
-60.5699
11
162.838
21
-60.5699
0
LINE
8
BLACK
6
CONTINUOUS
10
162.838
20
-60.5699
11
162.517
21
-60.5294
0
LINE
8
BLACK
6
CONTINUOUS
10
162.517
20
-60.5294
11
162.204
21
-60.449
0
LINE
8
BLACK
6
CONTINUOUS
10
162.204
20
-60.449
11
161.904
21
-60.3299
0
LINE
8
BLACK
6
CONTINUOUS
10
161.904
20
-60.3299
11
161.62
21
-60.1741
0
LINE
8
BLACK
6
CONTINUOUS
10
161.62
20
-60.1741
11
161.359
21
-59.9841
0
LINE
8
BLACK
6
CONTINUOUS
10
161.359
20
-59.9841
11
161.123
21
-59.7627
0
LINE
8
BLACK
6
CONTINUOUS
10
161.123
20
-59.7627
11
160.917
21
-59.5135
0
LINE
8
BLACK
6
CONTINUOUS
10
160.917
20
-59.5135
11
160.744
21
-59.2405
0
LINE
8
BLACK
6
CONTINUOUS
10
160.744
20
-59.2405
11
160.606
21
-58.9479
0
LINE
8
BLACK
6
CONTINUOUS
10
160.606
20
-58.9479
11
160.506
21
-58.6404
0
LINE
8
BLACK
6
CONTINUOUS
10
160.506
20
-58.6404
11
160.445
21
-58.3227
0
LINE
8
BLACK
6
CONTINUOUS
10
160.445
20
-58.3227
11
160.425
21
-58
0
LINE
8
BLACK
6
CONTINUOUS
10
160.425
20
-58
11
160.445
21
-57.6773
0
LINE
8
BLACK
6
CONTINUOUS
10
160.445
20
-57.6773
11
160.506
21
-57.3596
0
LINE
8
BLACK
6
CONTINUOUS
10
160.647
20
-58.6043
11
160.741
21
-58.8945
0
LINE
8
BLACK
6
CONTINUOUS
10
160.741
20
-58.8945
11
160.871
21
-59.1706
0
LINE
8
BLACK
6
CONTINUOUS
10
160.871
20
-59.1706
11
161.034
21
-59.4282
0
LINE
8
BLACK
6
CONTINUOUS
10
161.034
20
-59.4282
11
161.229
21
-59.6633
0
LINE
8
BLACK
6
CONTINUOUS
10
161.229
20
-59.6633
11
161.451
21
-59.8722
0
LINE
8
BLACK
6
CONTINUOUS
10
161.451
20
-59.8722
11
161.698
21
-60.0515
0
LINE
8
BLACK
6
CONTINUOUS
10
161.698
20
-60.0515
11
161.965
21
-60.1985
0
LINE
8
BLACK
6
CONTINUOUS
10
161.965
20
-60.1985
11
162.249
21
-60.3109
0
LINE
8
BLACK
6
CONTINUOUS
10
162.249
20
-60.3109
11
162.545
21
-60.3868
0
LINE
8
BLACK
6
CONTINUOUS
10
162.545
20
-60.3868
11
162.847
21
-60.425
0
LINE
8
BLACK
6
CONTINUOUS
10
162.847
20
-60.425
11
163.153
21
-60.425
0
LINE
8
BLACK
6
CONTINUOUS
10
163.153
20
-60.425
11
163.455
21
-60.3868
0
LINE
8
BLACK
6
CONTINUOUS
10
163.455
20
-60.3868
11
163.751
21
-60.3109
0
LINE
8
BLACK
6
CONTINUOUS
10
163.751
20
-60.3109
11
164.035
21
-60.1985
0
LINE
8
BLACK
6
CONTINUOUS
10
164.035
20
-60.1985
11
164.302
21
-60.0515
0
LINE
8
BLACK
6
CONTINUOUS
10
164.302
20
-60.0515
11
164.549
21
-59.8722
0
LINE
8
BLACK
6
CONTINUOUS
10
164.549
20
-59.8722
11
164.771
21
-59.6633
0
LINE
8
BLACK
6
CONTINUOUS
10
164.771
20
-59.6633
11
164.966
21
-59.4282
0
LINE
8
BLACK
6
CONTINUOUS
10
164.966
20
-59.4282
11
165.129
21
-59.1706
0
LINE
8
BLACK
6
CONTINUOUS
10
165.129
20
-59.1706
11
165.259
21
-58.8945
0
LINE
8
BLACK
6
CONTINUOUS
10
165.259
20
-58.8945
11
165.353
21
-58.6043
0
LINE
8
BLACK
6
CONTINUOUS
10
165.353
20
-58.6043
11
165.411
21
-58.3045
0
LINE
8
BLACK
6
CONTINUOUS
10
165.411
20
-58.3045
11
165.43
21
-58
0
LINE
8
BLACK
6
CONTINUOUS
10
165.43
20
-58
11
165.411
21
-57.6955
0
LINE
8
BLACK
6
CONTINUOUS
10
165.411
20
-57.6955
11
165.353
21
-57.3957
0
LINE
8
BLACK
6
CONTINUOUS
10
165.353
20
-57.3957
11
165.259
21
-57.1055
0
LINE
8
BLACK
6
CONTINUOUS
10
165.259
20
-57.1055
11
165.129
21
-56.8294
0
LINE
8
BLACK
6
CONTINUOUS
10
165.129
20
-56.8294
11
164.966
21
-56.5718
0
LINE
8
BLACK
6
CONTINUOUS
10
164.966
20
-56.5718
11
164.771
21
-56.3367
0
LINE
8
BLACK
6
CONTINUOUS
10
164.771
20
-56.3367
11
164.549
21
-56.1278
0
LINE
8
BLACK
6
CONTINUOUS
10
164.549
20
-56.1278
11
164.302
21
-55.9485
0
LINE
8
BLACK
6
CONTINUOUS
10
164.302
20
-55.9485
11
164.035
21
-55.8015
0
LINE
8
BLACK
6
CONTINUOUS
10
164.035
20
-55.8015
11
163.751
21
-55.6891
0
LINE
8
BLACK
6
CONTINUOUS
10
163.751
20
-55.6891
11
163.455
21
-55.6132
0
LINE
8
BLACK
6
CONTINUOUS
10
163.455
20
-55.6132
11
163.153
21
-55.575
0
LINE
8
BLACK
6
CONTINUOUS
10
163.153
20
-55.575
11
162.847
21
-55.575
0
LINE
8
BLACK
6
CONTINUOUS
10
162.847
20
-55.575
11
162.545
21
-55.6132
0
LINE
8
BLACK
6
CONTINUOUS
10
162.545
20
-55.6132
11
162.249
21
-55.6891
0
LINE
8
BLACK
6
CONTINUOUS
10
162.249
20
-55.6891
11
161.965
21
-55.8015
0
LINE
8
BLACK
6
CONTINUOUS
10
161.965
20
-55.8015
11
161.698
21
-55.9485
0
LINE
8
BLACK
6
CONTINUOUS
10
161.698
20
-55.9485
11
161.451
21
-56.1278
0
LINE
8
BLACK
6
CONTINUOUS
10
161.451
20
-56.1278
11
161.229
21
-56.3367
0
LINE
8
BLACK
6
CONTINUOUS
10
161.229
20
-56.3367
11
161.034
21
-56.5718
0
LINE
8
BLACK
6
CONTINUOUS
10
161.034
20
-56.5718
11
160.871
21
-56.8294
0
LINE
8
BLACK
6
CONTINUOUS
10
160.871
20
-56.8294
11
160.741
21
-57.1055
0
LINE
8
BLACK
6
CONTINUOUS
10
160.741
20
-57.1055
11
160.647
21
-57.3957
0
LINE
8
BLACK
6
CONTINUOUS
10
160.647
20
-57.3957
11
160.589
21
-57.6955
0
LINE
8
BLACK
6
CONTINUOUS
10
160.589
20
-57.6955
11
160.57
21
-58
0
LINE
8
BLACK
6
CONTINUOUS
10
160.57
20
-58
11
160.589
21
-58.3045
0
LINE
8
BLACK
6
CONTINUOUS
10
160.589
20
-58.3045
11
160.647
21
-58.6043
0
LINE
8
BLACK
6
CONTINUOUS
10
106.506
20
-54.8596
11
106.606
21
-54.5521
0
LINE
8
BLACK
6
CONTINUOUS
10
106.606
20
-54.5521
11
106.744
21
-54.2595
0
LINE
8
BLACK
6
CONTINUOUS
10
106.744
20
-54.2595
11
106.917
21
-53.9865
0
LINE
8
BLACK
6
CONTINUOUS
10
106.917
20
-53.9865
11
107.123
21
-53.7373
0
LINE
8
BLACK
6
CONTINUOUS
10
107.123
20
-53.7373
11
107.359
21
-53.5159
0
LINE
8
BLACK
6
CONTINUOUS
10
107.359
20
-53.5159
11
107.62
21
-53.3259
0
LINE
8
BLACK
6
CONTINUOUS
10
107.62
20
-53.3259
11
107.904
21
-53.1701
0
LINE
8
BLACK
6
CONTINUOUS
10
107.904
20
-53.1701
11
108.204
21
-53.051
0
LINE
8
BLACK
6
CONTINUOUS
10
108.204
20
-53.051
11
108.517
21
-52.9706
0
LINE
8
BLACK
6
CONTINUOUS
10
108.517
20
-52.9706
11
108.838
21
-52.9301
0
LINE
8
BLACK
6
CONTINUOUS
10
108.838
20
-52.9301
11
109.162
21
-52.9301
0
LINE
8
BLACK
6
CONTINUOUS
10
109.162
20
-52.9301
11
109.483
21
-52.9706
0
LINE
8
BLACK
6
CONTINUOUS
10
109.483
20
-52.9706
11
109.796
21
-53.051
0
LINE
8
BLACK
6
CONTINUOUS
10
109.796
20
-53.051
11
110.096
21
-53.1701
0
LINE
8
BLACK
6
CONTINUOUS
10
110.096
20
-53.1701
11
110.38
21
-53.3259
0
LINE
8
BLACK
6
CONTINUOUS
10
110.38
20
-53.3259
11
110.641
21
-53.5159
0
LINE
8
BLACK
6
CONTINUOUS
10
110.641
20
-53.5159
11
110.877
21
-53.7373
0
LINE
8
BLACK
6
CONTINUOUS
10
110.877
20
-53.7373
11
111.083
21
-53.9865
0
LINE
8
BLACK
6
CONTINUOUS
10
111.083
20
-53.9865
11
111.256
21
-54.2595
0
LINE
8
BLACK
6
CONTINUOUS
10
111.256
20
-54.2595
11
111.394
21
-54.5521
0
LINE
8
BLACK
6
CONTINUOUS
10
111.394
20
-54.5521
11
111.494
21
-54.8596
0
LINE
8
BLACK
6
CONTINUOUS
10
111.494
20
-54.8596
11
111.555
21
-55.1773
0
LINE
8
BLACK
6
CONTINUOUS
10
111.555
20
-55.1773
11
111.575
21
-55.5
0
LINE
8
BLACK
6
CONTINUOUS
10
111.575
20
-55.5
11
111.555
21
-55.8227
0
LINE
8
BLACK
6
CONTINUOUS
10
111.555
20
-55.8227
11
111.494
21
-56.1404
0
LINE
8
BLACK
6
CONTINUOUS
10
111.494
20
-56.1404
11
111.394
21
-56.4479
0
LINE
8
BLACK
6
CONTINUOUS
10
111.394
20
-56.4479
11
111.256
21
-56.7405
0
LINE
8
BLACK
6
CONTINUOUS
10
111.256
20
-56.7405
11
111.083
21
-57.0135
0
LINE
8
BLACK
6
CONTINUOUS
10
111.083
20
-57.0135
11
110.877
21
-57.2627
0
LINE
8
BLACK
6
CONTINUOUS
10
110.877
20
-57.2627
11
110.641
21
-57.4841
0
LINE
8
BLACK
6
CONTINUOUS
10
110.641
20
-57.4841
11
110.38
21
-57.6741
0
LINE
8
BLACK
6
CONTINUOUS
10
110.38
20
-57.6741
11
110.096
21
-57.8299
0
LINE
8
BLACK
6
CONTINUOUS
10
110.096
20
-57.8299
11
109.796
21
-57.949
0
LINE
8
BLACK
6
CONTINUOUS
10
109.796
20
-57.949
11
109.483
21
-58.0294
0
LINE
8
BLACK
6
CONTINUOUS
10
109.483
20
-58.0294
11
109.162
21
-58.0699
0
LINE
8
BLACK
6
CONTINUOUS
10
109.162
20
-58.0699
11
108.838
21
-58.0699
0
LINE
8
BLACK
6
CONTINUOUS
10
108.838
20
-58.0699
11
108.517
21
-58.0294
0
LINE
8
BLACK
6
CONTINUOUS
10
108.517
20
-58.0294
11
108.204
21
-57.949
0
LINE
8
BLACK
6
CONTINUOUS
10
108.204
20
-57.949
11
107.904
21
-57.8299
0
LINE
8
BLACK
6
CONTINUOUS
10
107.904
20
-57.8299
11
107.62
21
-57.6741
0
LINE
8
BLACK
6
CONTINUOUS
10
107.62
20
-57.6741
11
107.359
21
-57.4841
0
LINE
8
BLACK
6
CONTINUOUS
10
107.359
20
-57.4841
11
107.123
21
-57.2627
0
LINE
8
BLACK
6
CONTINUOUS
10
107.123
20
-57.2627
11
106.917
21
-57.0135
0
LINE
8
BLACK
6
CONTINUOUS
10
106.917
20
-57.0135
11
106.744
21
-56.7405
0
LINE
8
BLACK
6
CONTINUOUS
10
106.744
20
-56.7405
11
106.606
21
-56.4479
0
LINE
8
BLACK
6
CONTINUOUS
10
106.606
20
-56.4479
11
106.506
21
-56.1404
0
LINE
8
BLACK
6
CONTINUOUS
10
106.506
20
-56.1404
11
106.445
21
-55.8227
0
LINE
8
BLACK
6
CONTINUOUS
10
106.445
20
-55.8227
11
106.425
21
-55.5
0
LINE
8
BLACK
6
CONTINUOUS
10
106.425
20
-55.5
11
106.445
21
-55.1773
0
LINE
8
BLACK
6
CONTINUOUS
10
106.445
20
-55.1773
11
106.506
21
-54.8596
0
LINE
8
BLACK
6
CONTINUOUS
10
106.647
20
-56.1043
11
106.741
21
-56.3945
0
LINE
8
BLACK
6
CONTINUOUS
10
106.741
20
-56.3945
11
106.871
21
-56.6706
0
LINE
8
BLACK
6
CONTINUOUS
10
106.871
20
-56.6706
11
107.034
21
-56.9282
0
LINE
8
BLACK
6
CONTINUOUS
10
107.034
20
-56.9282
11
107.229
21
-57.1633
0
LINE
8
BLACK
6
CONTINUOUS
10
107.229
20
-57.1633
11
107.451
21
-57.3722
0
LINE
8
BLACK
6
CONTINUOUS
10
107.451
20
-57.3722
11
107.698
21
-57.5515
0
LINE
8
BLACK
6
CONTINUOUS
10
107.698
20
-57.5515
11
107.965
21
-57.6985
0
LINE
8
BLACK
6
CONTINUOUS
10
107.965
20
-57.6985
11
108.249
21
-57.8109
0
LINE
8
BLACK
6
CONTINUOUS
10
108.249
20
-57.8109
11
108.545
21
-57.8868
0
LINE
8
BLACK
6
CONTINUOUS
10
108.545
20
-57.8868
11
108.847
21
-57.925
0
LINE
8
BLACK
6
CONTINUOUS
10
108.847
20
-57.925
11
109.153
21
-57.925
0
LINE
8
BLACK
6
CONTINUOUS
10
109.153
20
-57.925
11
109.455
21
-57.8868
0
LINE
8
BLACK
6
CONTINUOUS
10
109.455
20
-57.8868
11
109.751
21
-57.8109
0
LINE
8
BLACK
6
CONTINUOUS
10
109.751
20
-57.8109
11
110.035
21
-57.6985
0
LINE
8
BLACK
6
CONTINUOUS
10
110.035
20
-57.6985
11
110.302
21
-57.5515
0
LINE
8
BLACK
6
CONTINUOUS
10
110.302
20
-57.5515
11
110.549
21
-57.3722
0
LINE
8
BLACK
6
CONTINUOUS
10
110.549
20
-57.3722
11
110.771
21
-57.1633
0
LINE
8
BLACK
6
CONTINUOUS
10
110.771
20
-57.1633
11
110.966
21
-56.9282
0
LINE
8
BLACK
6
CONTINUOUS
10
110.966
20
-56.9282
11
111.129
21
-56.6706
0
LINE
8
BLACK
6
CONTINUOUS
10
111.129
20
-56.6706
11
111.259
21
-56.3945
0
LINE
8
BLACK
6
CONTINUOUS
10
111.259
20
-56.3945
11
111.353
21
-56.1043
0
LINE
8
BLACK
6
CONTINUOUS
10
111.353
20
-56.1043
11
111.411
21
-55.8045
0
LINE
8
BLACK
6
CONTINUOUS
10
111.411
20
-55.8045
11
111.43
21
-55.5
0
LINE
8
BLACK
6
CONTINUOUS
10
111.43
20
-55.5
11
111.411
21
-55.1955
0
LINE
8
BLACK
6
CONTINUOUS
10
111.411
20
-55.1955
11
111.353
21
-54.8957
0
LINE
8
BLACK
6
CONTINUOUS
10
111.353
20
-54.8957
11
111.259
21
-54.6055
0
LINE
8
BLACK
6
CONTINUOUS
10
111.259
20
-54.6055
11
111.129
21
-54.3294
0
LINE
8
BLACK
6
CONTINUOUS
10
111.129
20
-54.3294
11
110.966
21
-54.0718
0
LINE
8
BLACK
6
CONTINUOUS
10
110.966
20
-54.0718
11
110.771
21
-53.8367
0
LINE
8
BLACK
6
CONTINUOUS
10
110.771
20
-53.8367
11
110.549
21
-53.6278
0
LINE
8
BLACK
6
CONTINUOUS
10
110.549
20
-53.6278
11
110.302
21
-53.4485
0
LINE
8
BLACK
6
CONTINUOUS
10
110.302
20
-53.4485
11
110.035
21
-53.3015
0
LINE
8
BLACK
6
CONTINUOUS
10
110.035
20
-53.3015
11
109.751
21
-53.1891
0
LINE
8
BLACK
6
CONTINUOUS
10
109.751
20
-53.1891
11
109.455
21
-53.1132
0
LINE
8
BLACK
6
CONTINUOUS
10
109.455
20
-53.1132
11
109.153
21
-53.075
0
LINE
8
BLACK
6
CONTINUOUS
10
109.153
20
-53.075
11
108.847
21
-53.075
0
LINE
8
BLACK
6
CONTINUOUS
10
108.847
20
-53.075
11
108.545
21
-53.1132
0
LINE
8
BLACK
6
CONTINUOUS
10
108.545
20
-53.1132
11
108.249
21
-53.1891
0
LINE
8
BLACK
6
CONTINUOUS
10
108.249
20
-53.1891
11
107.965
21
-53.3015
0
LINE
8
BLACK
6
CONTINUOUS
10
107.965
20
-53.3015
11
107.698
21
-53.4485
0
LINE
8
BLACK
6
CONTINUOUS
10
107.698
20
-53.4485
11
107.451
21
-53.6278
0
LINE
8
BLACK
6
CONTINUOUS
10
107.451
20
-53.6278
11
107.229
21
-53.8367
0
LINE
8
BLACK
6
CONTINUOUS
10
107.229
20
-53.8367
11
107.034
21
-54.0718
0
LINE
8
BLACK
6
CONTINUOUS
10
107.034
20
-54.0718
11
106.871
21
-54.3294
0
LINE
8
BLACK
6
CONTINUOUS
10
106.871
20
-54.3294
11
106.741
21
-54.6055
0
LINE
8
BLACK
6
CONTINUOUS
10
106.741
20
-54.6055
11
106.647
21
-54.8957
0
LINE
8
BLACK
6
CONTINUOUS
10
106.647
20
-54.8957
11
106.589
21
-55.1955
0
LINE
8
BLACK
6
CONTINUOUS
10
106.589
20
-55.1955
11
106.57
21
-55.5
0
LINE
8
BLACK
6
CONTINUOUS
10
106.57
20
-55.5
11
106.589
21
-55.8045
0
LINE
8
BLACK
6
CONTINUOUS
10
106.589
20
-55.8045
11
106.647
21
-56.1043
0
LINE
8
BLACK
6
CONTINUOUS
10
197.504
20
-58.575
11
197.887
21
-58.5919
0
LINE
8
BLACK
6
CONTINUOUS
10
197.887
20
-58.5919
11
198.268
21
-58.6425
0
LINE
8
BLACK
6
CONTINUOUS
10
198.268
20
-58.6425
11
198.642
21
-58.7264
0
LINE
8
BLACK
6
CONTINUOUS
10
198.642
20
-58.7264
11
199.007
21
-58.843
0
LINE
8
BLACK
6
CONTINUOUS
10
199.007
20
-58.843
11
199.361
21
-58.9914
0
LINE
8
BLACK
6
CONTINUOUS
10
199.361
20
-58.9914
11
199.7
21
-59.1705
0
LINE
8
BLACK
6
CONTINUOUS
10
199.7
20
-59.1705
11
200.023
21
-59.3787
0
LINE
8
BLACK
6
CONTINUOUS
10
200.023
20
-59.3787
11
200.325
21
-59.6146
0
LINE
8
BLACK
6
CONTINUOUS
10
200.325
20
-59.6146
11
200.606
21
-59.8762
0
LINE
8
BLACK
6
CONTINUOUS
10
200.606
20
-59.8762
11
200.862
21
-60.1615
0
LINE
8
BLACK
6
CONTINUOUS
10
200.862
20
-60.1615
11
201.093
21
-60.4684
0
LINE
8
BLACK
6
CONTINUOUS
10
201.093
20
-60.4684
11
201.295
21
-60.7943
0
LINE
8
BLACK
6
CONTINUOUS
10
201.295
20
-60.7943
11
201.468
21
-61.1369
0
LINE
8
BLACK
6
CONTINUOUS
10
201.468
20
-61.1369
11
201.61
21
-61.4933
0
LINE
8
BLACK
6
CONTINUOUS
10
201.61
20
-61.4933
11
201.719
21
-61.8609
0
LINE
8
BLACK
6
CONTINUOUS
10
201.719
20
-61.8609
11
201.797
21
-62.2367
0
LINE
8
BLACK
6
CONTINUOUS
10
201.797
20
-62.2367
11
201.84
21
-62.6179
0
LINE
8
BLACK
6
CONTINUOUS
10
201.84
20
-62.6179
11
201.85
21
-62.9998
0
LINE
8
BLACK
6
CONTINUOUS
10
201.85
20
-62.9998
11
201.85
21
-63
0
LINE
8
BLACK
6
CONTINUOUS
10
201.85
20
-63
11
201.85
21
-114
0
LINE
8
BLACK
6
CONTINUOUS
10
201.85
20
-114
11
201.85
21
-114
0
LINE
8
BLACK
6
CONTINUOUS
10
201.85
20
-114
11
201.85
21
-114.373
0
LINE
8
BLACK
6
CONTINUOUS
10
201.85
20
-114.373
11
201.826
21
-114.748
0
LINE
8
BLACK
6
CONTINUOUS
10
201.826
20
-114.748
11
201.779
21
-115.12
0
LINE
8
BLACK
6
CONTINUOUS
10
201.779
20
-115.12
11
201.708
21
-115.489
0
LINE
8
BLACK
6
CONTINUOUS
10
201.708
20
-115.489
11
201.613
21
-115.853
0
LINE
8
BLACK
6
CONTINUOUS
10
201.613
20
-115.853
11
201.495
21
-116.209
0
LINE
8
BLACK
6
CONTINUOUS
10
201.495
20
-116.209
11
201.495
21
-116.209
0
LINE
8
BLACK
6
CONTINUOUS
10
201.495
20
-116.209
11
201.494
21
-116.211
0
LINE
8
BLACK
6
CONTINUOUS
10
201.494
20
-116.211
11
201.494
21
-116.213
0
LINE
8
BLACK
6
CONTINUOUS
10
201.494
20
-116.213
11
194.544
21
-132.488
0
LINE
8
BLACK
6
CONTINUOUS
10
194.544
20
-132.488
11
194.543
21
-132.49
0
LINE
8
BLACK
6
CONTINUOUS
10
194.543
20
-132.49
11
194.542
21
-132.491
0
LINE
8
BLACK
6
CONTINUOUS
10
194.542
20
-132.491
11
194.542
21
-132.491
0
LINE
8
BLACK
6
CONTINUOUS
10
194.542
20
-132.491
11
194.356
21
-132.84
0
LINE
8
BLACK
6
CONTINUOUS
10
194.356
20
-132.84
11
194.139
21
-133.171
0
LINE
8
BLACK
6
CONTINUOUS
10
194.139
20
-133.171
11
193.893
21
-133.481
0
LINE
8
BLACK
6
CONTINUOUS
10
193.893
20
-133.481
11
193.621
21
-133.768
0
LINE
8
BLACK
6
CONTINUOUS
10
193.621
20
-133.768
11
193.324
21
-134.029
0
LINE
8
BLACK
6
CONTINUOUS
10
193.324
20
-134.029
11
193.004
21
-134.263
0
LINE
8
BLACK
6
CONTINUOUS
10
193.004
20
-134.263
11
192.666
21
-134.468
0
LINE
8
BLACK
6
CONTINUOUS
10
192.666
20
-134.468
11
192.31
21
-134.641
0
LINE
8
BLACK
6
CONTINUOUS
10
192.31
20
-134.641
11
191.94
21
-134.782
0
LINE
8
BLACK
6
CONTINUOUS
10
191.94
20
-134.782
11
191.559
21
-134.889
0
LINE
8
BLACK
6
CONTINUOUS
10
191.559
20
-134.889
11
191.17
21
-134.962
0
LINE
8
BLACK
6
CONTINUOUS
10
191.17
20
-134.962
11
190.776
21
-135
0
LINE
8
BLACK
6
CONTINUOUS
10
190.776
20
-135
11
190.381
21
-135.003
0
LINE
8
BLACK
6
CONTINUOUS
10
190.381
20
-135.003
11
189.986
21
-134.97
0
LINE
8
BLACK
6
CONTINUOUS
10
189.986
20
-134.97
11
189.596
21
-134.902
0
LINE
8
BLACK
6
CONTINUOUS
10
189.596
20
-134.902
11
189.214
21
-134.799
0
LINE
8
BLACK
6
CONTINUOUS
10
189.214
20
-134.799
11
188.843
21
-134.663
0
LINE
8
BLACK
6
CONTINUOUS
10
188.843
20
-134.663
11
188.843
21
-134.663
0
LINE
8
BLACK
6
CONTINUOUS
10
188.843
20
-134.663
11
182.799
21
-132.133
0
LINE
8
BLACK
6
CONTINUOUS
10
182.799
20
-132.133
11
182.799
21
-132.133
0
LINE
8
BLACK
6
CONTINUOUS
10
182.799
20
-132.133
11
182.799
21
-132.133
0
LINE
8
BLACK
6
CONTINUOUS
10
182.799
20
-132.133
11
182.794
21
-132.13
0
LINE
8
BLACK
6
CONTINUOUS
10
182.794
20
-132.13
11
182.625
21
-132.064
0
LINE
8
BLACK
6
CONTINUOUS
10
182.625
20
-132.064
11
182.447
21
-132.003
0
LINE
8
BLACK
6
CONTINUOUS
10
182.447
20
-132.003
11
182.271
21
-131.951
0
LINE
8
BLACK
6
CONTINUOUS
10
182.271
20
-131.951
11
182.268
21
-131.951
0
LINE
8
BLACK
6
CONTINUOUS
10
182.268
20
-131.951
11
182.262
21
-131.948
0
LINE
8
BLACK
6
CONTINUOUS
10
182.262
20
-131.948
11
182.256
21
-131.947
0
LINE
8
BLACK
6
CONTINUOUS
10
182.256
20
-131.947
11
182.245
21
-131.937
0
LINE
8
BLACK
6
CONTINUOUS
10
182.245
20
-131.937
11
179.626
21
-130.756
0
LINE
8
BLACK
6
CONTINUOUS
10
179.626
20
-130.756
11
176.979
21
-129.603
0
LINE
8
BLACK
6
CONTINUOUS
10
176.979
20
-129.603
11
174.318
21
-128.483
0
LINE
8
BLACK
6
CONTINUOUS
10
174.318
20
-128.483
11
171.642
21
-127.398
0
LINE
8
BLACK
6
CONTINUOUS
10
171.642
20
-127.398
11
168.953
21
-126.346
0
LINE
8
BLACK
6
CONTINUOUS
10
168.953
20
-126.346
11
166.251
21
-125.329
0
LINE
8
BLACK
6
CONTINUOUS
10
166.251
20
-125.329
11
163.537
21
-124.346
0
LINE
8
BLACK
6
CONTINUOUS
10
163.537
20
-124.346
11
160.81
21
-123.398
0
LINE
8
BLACK
6
CONTINUOUS
10
160.81
20
-123.398
11
158.071
21
-122.485
0
LINE
8
BLACK
6
CONTINUOUS
10
158.071
20
-122.485
11
155.32
21
-121.606
0
LINE
8
BLACK
6
CONTINUOUS
10
155.32
20
-121.606
11
152.559
21
-120.763
0
LINE
8
BLACK
6
CONTINUOUS
10
152.559
20
-120.763
11
149.788
21
-119.954
0
LINE
8
BLACK
6
CONTINUOUS
10
149.788
20
-119.954
11
147.006
21
-119.181
0
LINE
8
BLACK
6
CONTINUOUS
10
147.006
20
-119.181
11
144.214
21
-118.444
0
LINE
8
BLACK
6
CONTINUOUS
10
144.214
20
-118.444
11
141.414
21
-117.742
0
LINE
8
BLACK
6
CONTINUOUS
10
141.414
20
-117.742
11
138.605
21
-117.075
0
LINE
8
BLACK
6
CONTINUOUS
10
138.605
20
-117.075
11
135.787
21
-116.445
0
LINE
8
BLACK
6
CONTINUOUS
10
135.787
20
-116.445
11
132.962
21
-115.85
0
LINE
8
BLACK
6
CONTINUOUS
10
132.962
20
-115.85
11
130.129
21
-115.291
0
LINE
8
BLACK
6
CONTINUOUS
10
130.129
20
-115.291
11
127.29
21
-114.769
0
LINE
8
BLACK
6
CONTINUOUS
10
127.29
20
-114.769
11
124.444
21
-114.282
0
LINE
8
BLACK
6
CONTINUOUS
10
124.444
20
-114.282
11
121.592
21
-113.832
0
LINE
8
BLACK
6
CONTINUOUS
10
121.592
20
-113.832
11
118.735
21
-113.418
0
LINE
8
BLACK
6
CONTINUOUS
10
118.735
20
-113.418
11
115.873
21
-113.04
0
LINE
8
BLACK
6
CONTINUOUS
10
115.873
20
-113.04
11
113.006
21
-112.699
0
LINE
8
BLACK
6
CONTINUOUS
10
113.006
20
-112.699
11
110.135
21
-112.394
0
LINE
8
BLACK
6
CONTINUOUS
10
110.135
20
-112.394
11
107.26
21
-112.125
0
LINE
8
BLACK
6
CONTINUOUS
10
107.26
20
-112.125
11
104.382
21
-111.894
0
LINE
8
BLACK
6
CONTINUOUS
10
104.382
20
-111.894
11
101.502
21
-111.698
0
LINE
8
BLACK
6
CONTINUOUS
10
101.502
20
-111.698
11
98.6188
21
-111.54
0
LINE
8
BLACK
6
CONTINUOUS
10
98.6188
20
-111.54
11
95.7342
21
-111.418
0
LINE
8
BLACK
6
CONTINUOUS
10
95.7342
20
-111.418
11
92.8622
21
-111.333
0
LINE
8
BLACK
6
CONTINUOUS
10
92.8622
20
-111.333
11
92.8482
21
-111.338
0
LINE
8
BLACK
6
CONTINUOUS
10
92.8482
20
-111.338
11
92.8467
21
-111.337
0
LINE
8
BLACK
6
CONTINUOUS
10
92.8467
20
-111.337
11
92.8451
21
-111.337
0
LINE
8
BLACK
6
CONTINUOUS
10
92.8451
20
-111.337
11
92.8451
21
-111.337
0
LINE
8
BLACK
6
CONTINUOUS
10
92.8451
20
-111.337
11
92.4555
21
-111.295
0
LINE
8
BLACK
6
CONTINUOUS
10
92.4555
20
-111.295
11
92.0711
21
-111.218
0
LINE
8
BLACK
6
CONTINUOUS
10
92.0711
20
-111.218
11
91.695
21
-111.107
0
LINE
8
BLACK
6
CONTINUOUS
10
91.695
20
-111.107
11
91.3302
21
-110.964
0
LINE
8
BLACK
6
CONTINUOUS
10
91.3302
20
-110.964
11
90.9796
21
-110.789
0
LINE
8
BLACK
6
CONTINUOUS
10
90.9796
20
-110.789
11
90.6458
21
-110.583
0
LINE
8
BLACK
6
CONTINUOUS
10
90.6458
20
-110.583
11
90.3315
21
-110.349
0
LINE
8
BLACK
6
CONTINUOUS
10
90.3315
20
-110.349
11
90.0391
21
-110.088
0
LINE
8
BLACK
6
CONTINUOUS
10
90.0391
20
-110.088
11
89.771
21
-109.802
0
LINE
8
BLACK
6
CONTINUOUS
10
89.771
20
-109.802
11
89.5293
21
-109.494
0
LINE
8
BLACK
6
CONTINUOUS
10
89.5293
20
-109.494
11
89.3158
21
-109.165
0
LINE
8
BLACK
6
CONTINUOUS
10
89.3158
20
-109.165
11
89.1322
21
-108.819
0
LINE
8
BLACK
6
CONTINUOUS
10
89.1322
20
-108.819
11
88.9801
21
-108.457
0
LINE
8
BLACK
6
CONTINUOUS
10
88.9801
20
-108.457
11
88.8604
21
-108.084
0
LINE
8
BLACK
6
CONTINUOUS
10
88.8604
20
-108.084
11
88.7743
21
-107.702
0
LINE
8
BLACK
6
CONTINUOUS
10
88.7743
20
-107.702
11
88.7224
21
-107.313
0
LINE
8
BLACK
6
CONTINUOUS
10
88.7224
20
-107.313
11
88.705
21
-106.922
0
LINE
8
BLACK
6
CONTINUOUS
10
88.705
20
-106.922
11
88.705
21
-59.5775
0
LINE
8
BLACK
6
CONTINUOUS
10
88.705
20
-59.5775
11
88.7
21
-57.3002
0
LINE
8
BLACK
6
CONTINUOUS
10
88.7
20
-57.3002
11
88.7001
21
-57.2999
0
LINE
8
BLACK
6
CONTINUOUS
10
88.7001
20
-57.2999
11
88.7097
21
-56.9346
0
LINE
8
BLACK
6
CONTINUOUS
10
88.7097
20
-56.9346
11
88.7518
21
-56.5701
0
LINE
8
BLACK
6
CONTINUOUS
10
88.7518
20
-56.5701
11
88.8261
21
-56.2108
0
LINE
8
BLACK
6
CONTINUOUS
10
88.8261
20
-56.2108
11
88.9319
21
-55.8595
0
LINE
8
BLACK
6
CONTINUOUS
10
88.9319
20
-55.8595
11
89.0684
21
-55.519
0
LINE
8
BLACK
6
CONTINUOUS
10
89.0684
20
-55.519
11
89.2346
21
-55.1919
0
LINE
8
BLACK
6
CONTINUOUS
10
89.2346
20
-55.1919
11
89.4291
21
-54.8808
0
LINE
8
BLACK
6
CONTINUOUS
10
89.4291
20
-54.8808
11
89.6505
21
-54.5882
0
LINE
8
BLACK
6
CONTINUOUS
10
89.6505
20
-54.5882
11
89.8969
21
-54.3163
0
LINE
8
BLACK
6
CONTINUOUS
10
89.8969
20
-54.3163
11
90.1664
21
-54.0674
0
LINE
8
BLACK
6
CONTINUOUS
10
90.1664
20
-54.0674
11
90.4529
21
-53.8464
0
LINE
8
BLACK
6
CONTINUOUS
10
90.4529
20
-53.8464
11
90.4531
21
-53.8461
0
LINE
8
BLACK
6
CONTINUOUS
10
90.4531
20
-53.8461
11
90.4531
21
-53.8461
0
LINE
8
BLACK
6
CONTINUOUS
10
90.4531
20
-53.8461
11
91.7123
21
-52.8601
0
LINE
8
BLACK
6
CONTINUOUS
10
91.7123
20
-52.8601
11
92.9934
21
-51.9027
0
LINE
8
BLACK
6
CONTINUOUS
10
92.9934
20
-51.9027
11
94.2956
21
-50.9742
0
LINE
8
BLACK
6
CONTINUOUS
10
94.2956
20
-50.9742
11
95.6183
21
-50.0752
0
LINE
8
BLACK
6
CONTINUOUS
10
95.6183
20
-50.0752
11
96.9609
21
-49.2061
0
LINE
8
BLACK
6
CONTINUOUS
10
96.9609
20
-49.2061
11
98.3227
21
-48.3674
0
LINE
8
BLACK
6
CONTINUOUS
10
98.3227
20
-48.3674
11
99.7029
21
-47.5594
0
LINE
8
BLACK
6
CONTINUOUS
10
99.7029
20
-47.5594
11
101.101
21
-46.7826
0
LINE
8
BLACK
6
CONTINUOUS
10
101.101
20
-46.7826
11
102.516
21
-46.0375
0
LINE
8
BLACK
6
CONTINUOUS
10
102.516
20
-46.0375
11
103.948
21
-45.3242
0
LINE
8
BLACK
6
CONTINUOUS
10
103.948
20
-45.3242
11
105.395
21
-44.6433
0
LINE
8
BLACK
6
CONTINUOUS
10
105.395
20
-44.6433
11
106.857
21
-43.995
0
LINE
8
BLACK
6
CONTINUOUS
10
106.857
20
-43.995
11
108.333
21
-43.3798
0
LINE
8
BLACK
6
CONTINUOUS
10
108.333
20
-43.3798
11
109.823
21
-42.7978
0
LINE
8
BLACK
6
CONTINUOUS
10
109.823
20
-42.7978
11
111.325
21
-42.2494
0
LINE
8
BLACK
6
CONTINUOUS
10
111.325
20
-42.2494
11
112.839
21
-41.7348
0
LINE
8
BLACK
6
CONTINUOUS
10
112.839
20
-41.7348
11
114.365
21
-41.2544
0
LINE
8
BLACK
6
CONTINUOUS
10
114.365
20
-41.2544
11
115.901
21
-40.8083
0
LINE
8
BLACK
6
CONTINUOUS
10
115.901
20
-40.8083
11
117.446
21
-40.3969
0
LINE
8
BLACK
6
CONTINUOUS
10
117.446
20
-40.3969
11
119
21
-40.0202
0
LINE
8
BLACK
6
CONTINUOUS
10
119
20
-40.0202
11
120.563
21
-39.6785
0
LINE
8
BLACK
6
CONTINUOUS
10
120.563
20
-39.6785
11
122.133
21
-39.372
0
LINE
8
BLACK
6
CONTINUOUS
10
122.133
20
-39.372
11
123.709
21
-39.1008
0
LINE
8
BLACK
6
CONTINUOUS
10
123.709
20
-39.1008
11
125.291
21
-38.865
0
LINE
8
BLACK
6
CONTINUOUS
10
125.291
20
-38.865
11
126.877
21
-38.6648
0
LINE
8
BLACK
6
CONTINUOUS
10
126.877
20
-38.6648
11
128.468
21
-38.5003
0
LINE
8
BLACK
6
CONTINUOUS
10
128.468
20
-38.5003
11
128.468
21
-38.5003
0
LINE
8
BLACK
6
CONTINUOUS
10
128.468
20
-38.5003
11
128.468
21
-38.5003
0
LINE
8
BLACK
6
CONTINUOUS
10
128.468
20
-38.5003
11
128.468
21
-38.5003
0
LINE
8
BLACK
6
CONTINUOUS
10
128.468
20
-38.5003
11
128.468
21
-38.5003
0
LINE
8
BLACK
6
CONTINUOUS
10
128.468
20
-38.5003
11
128.468
21
-38.5003
0
LINE
8
BLACK
6
CONTINUOUS
10
128.468
20
-38.5003
11
130.503
21
-38.3303
0
LINE
8
BLACK
6
CONTINUOUS
10
130.503
20
-38.3303
11
132.541
21
-38.1966
0
LINE
8
BLACK
6
CONTINUOUS
10
132.541
20
-38.1966
11
134.58
21
-38.0993
0
LINE
8
BLACK
6
CONTINUOUS
10
134.58
20
-38.0993
11
136.621
21
-38.0384
0
LINE
8
BLACK
6
CONTINUOUS
10
136.621
20
-38.0384
11
138.663
21
-38.0138
0
LINE
8
BLACK
6
CONTINUOUS
10
138.663
20
-38.0138
11
140.705
21
-38.0257
0
LINE
8
BLACK
6
CONTINUOUS
10
140.705
20
-38.0257
11
142.746
21
-38.074
0
LINE
8
BLACK
6
CONTINUOUS
10
142.746
20
-38.074
11
144.786
21
-38.1587
0
LINE
8
BLACK
6
CONTINUOUS
10
144.786
20
-38.1587
11
146.825
21
-38.2797
0
LINE
8
BLACK
6
CONTINUOUS
10
146.825
20
-38.2797
11
148.861
21
-38.4371
0
LINE
8
BLACK
6
CONTINUOUS
10
148.861
20
-38.4371
11
150.893
21
-38.6308
0
LINE
8
BLACK
6
CONTINUOUS
10
150.893
20
-38.6308
11
152.922
21
-38.8606
0
LINE
8
BLACK
6
CONTINUOUS
10
152.922
20
-38.8606
11
154.947
21
-39.1267
0
LINE
8
BLACK
6
CONTINUOUS
10
154.947
20
-39.1267
11
156.966
21
-39.4287
0
LINE
8
BLACK
6
CONTINUOUS
10
156.966
20
-39.4287
11
158.98
21
-39.7668
0
LINE
8
BLACK
6
CONTINUOUS
10
158.98
20
-39.7668
11
160.988
21
-40.1407
0
LINE
8
BLACK
6
CONTINUOUS
10
160.988
20
-40.1407
11
162.988
21
-40.5503
0
LINE
8
BLACK
6
CONTINUOUS
10
162.988
20
-40.5503
11
164.981
21
-40.9956
0
LINE
8
BLACK
6
CONTINUOUS
10
164.981
20
-40.9956
11
166.966
21
-41.4763
0
LINE
8
BLACK
6
CONTINUOUS
10
166.966
20
-41.4763
11
168.941
21
-41.9923
0
LINE
8
BLACK
6
CONTINUOUS
10
168.941
20
-41.9923
11
170.907
21
-42.5435
0
LINE
8
BLACK
6
CONTINUOUS
10
170.907
20
-42.5435
11
172.863
21
-43.1296
0
LINE
8
BLACK
6
CONTINUOUS
10
172.863
20
-43.1296
11
174.809
21
-43.7505
0
LINE
8
BLACK
6
CONTINUOUS
10
174.809
20
-43.7505
11
176.743
21
-44.406
0
LINE
8
BLACK
6
CONTINUOUS
10
176.743
20
-44.406
11
178.664
21
-45.0959
0
LINE
8
BLACK
6
CONTINUOUS
10
178.664
20
-45.0959
11
180.574
21
-45.82
0
LINE
8
BLACK
6
CONTINUOUS
10
180.574
20
-45.82
11
180.574
21
-45.82
0
LINE
8
BLACK
6
CONTINUOUS
10
180.574
20
-45.82
11
180.574
21
-45.82
0
LINE
8
BLACK
6
CONTINUOUS
10
180.574
20
-45.82
11
180.574
21
-45.8204
0
LINE
8
BLACK
6
CONTINUOUS
10
180.574
20
-45.8204
11
180.575
21
-45.8204
0
LINE
8
BLACK
6
CONTINUOUS
10
180.575
20
-45.8204
11
180.921
21
-45.9786
0
LINE
8
BLACK
6
CONTINUOUS
10
180.921
20
-45.9786
11
181.253
21
-46.1657
0
LINE
8
BLACK
6
CONTINUOUS
10
181.253
20
-46.1657
11
181.567
21
-46.3805
0
LINE
8
BLACK
6
CONTINUOUS
10
181.567
20
-46.3805
11
181.862
21
-46.6213
0
LINE
8
BLACK
6
CONTINUOUS
10
181.862
20
-46.6213
11
182.136
21
-46.8865
0
LINE
8
BLACK
6
CONTINUOUS
10
182.136
20
-46.8865
11
182.385
21
-47.174
0
LINE
8
BLACK
6
CONTINUOUS
10
182.385
20
-47.174
11
182.61
21
-47.4818
0
LINE
8
BLACK
6
CONTINUOUS
10
182.61
20
-47.4818
11
182.807
21
-47.8076
0
LINE
8
BLACK
6
CONTINUOUS
10
182.807
20
-47.8076
11
182.976
21
-48.1491
0
LINE
8
BLACK
6
CONTINUOUS
10
182.976
20
-48.1491
11
183.114
21
-48.5037
0
LINE
8
BLACK
6
CONTINUOUS
10
183.114
20
-48.5037
11
183.223
21
-48.8689
0
LINE
8
BLACK
6
CONTINUOUS
10
183.223
20
-48.8689
11
183.299
21
-49.2419
0
LINE
8
BLACK
6
CONTINUOUS
10
183.299
20
-49.2419
11
183.344
21
-49.6202
0
LINE
8
BLACK
6
CONTINUOUS
10
183.344
20
-49.6202
11
183.356
21
-49.9998
0
LINE
8
BLACK
6
CONTINUOUS
10
183.356
20
-49.9998
11
183.356
21
-50
0
LINE
8
BLACK
6
CONTINUOUS
10
183.356
20
-50
11
183.356
21
-54.4656
0
LINE
8
BLACK
6
CONTINUOUS
10
183.356
20
-54.4656
11
183.353
21
-54.4817
0
LINE
8
BLACK
6
CONTINUOUS
10
183.353
20
-54.4817
11
183.383
21
-54.8473
0
LINE
8
BLACK
6
CONTINUOUS
10
183.383
20
-54.8473
11
183.45
21
-55.2272
0
LINE
8
BLACK
6
CONTINUOUS
10
183.45
20
-55.2272
11
183.55
21
-55.5996
0
LINE
8
BLACK
6
CONTINUOUS
10
183.55
20
-55.5996
11
183.684
21
-55.9614
0
LINE
8
BLACK
6
CONTINUOUS
10
183.684
20
-55.9614
11
183.849
21
-56.3097
0
LINE
8
BLACK
6
CONTINUOUS
10
183.849
20
-56.3097
11
184.046
21
-56.6417
0
LINE
8
BLACK
6
CONTINUOUS
10
184.046
20
-56.6417
11
184.271
21
-56.9547
0
LINE
8
BLACK
6
CONTINUOUS
10
184.271
20
-56.9547
11
184.524
21
-57.2461
0
LINE
8
BLACK
6
CONTINUOUS
10
184.524
20
-57.2461
11
184.802
21
-57.5136
0
LINE
8
BLACK
6
CONTINUOUS
10
184.802
20
-57.5136
11
185.102
21
-57.755
0
LINE
8
BLACK
6
CONTINUOUS
10
185.102
20
-57.755
11
185.424
21
-57.9683
0
LINE
8
BLACK
6
CONTINUOUS
10
185.424
20
-57.9683
11
185.763
21
-58.1518
0
LINE
8
BLACK
6
CONTINUOUS
10
185.763
20
-58.1518
11
186.117
21
-58.304
0
LINE
8
BLACK
6
CONTINUOUS
10
186.117
20
-58.304
11
186.484
21
-58.4237
0
LINE
8
BLACK
6
CONTINUOUS
10
186.484
20
-58.4237
11
186.86
21
-58.5099
0
LINE
8
BLACK
6
CONTINUOUS
10
186.86
20
-58.5099
11
187.242
21
-58.5619
0
LINE
8
BLACK
6
CONTINUOUS
10
187.242
20
-58.5619
11
187.616
21
-58.5788
0
LINE
8
BLACK
6
CONTINUOUS
10
187.616
20
-58.5788
11
187.627
21
-58.575
0
LINE
8
BLACK
6
CONTINUOUS
10
187.627
20
-58.575
11
197.504
21
-58.575
0
LINE
8
BLACK
6
CONTINUOUS
10
197.504
20
-58.575
11
197.504
21
-58.575
0
LINE
8
BLACK
6
CONTINUOUS
10
187.229
20
-58.707
11
186.834
21
-58.6533
0
LINE
8
BLACK
6
CONTINUOUS
10
186.834
20
-58.6533
11
186.445
21
-58.5641
0
LINE
8
BLACK
6
CONTINUOUS
10
186.445
20
-58.5641
11
186.066
21
-58.4404
0
LINE
8
BLACK
6
CONTINUOUS
10
186.066
20
-58.4404
11
185.7
21
-58.283
0
LINE
8
BLACK
6
CONTINUOUS
10
185.7
20
-58.283
11
185.349
21
-58.0932
0
LINE
8
BLACK
6
CONTINUOUS
10
185.349
20
-58.0932
11
185.016
21
-57.8726
0
LINE
8
BLACK
6
CONTINUOUS
10
185.016
20
-57.8726
11
184.705
21
-57.623
0
LINE
8
BLACK
6
CONTINUOUS
10
184.705
20
-57.623
11
184.418
21
-57.3464
0
LINE
8
BLACK
6
CONTINUOUS
10
184.418
20
-57.3464
11
184.157
21
-57.0451
0
LINE
8
BLACK
6
CONTINUOUS
10
184.157
20
-57.0451
11
183.924
21
-56.7215
0
LINE
8
BLACK
6
CONTINUOUS
10
183.924
20
-56.7215
11
183.721
21
-56.3781
0
LINE
8
BLACK
6
CONTINUOUS
10
183.721
20
-56.3781
11
183.55
21
-56.018
0
LINE
8
BLACK
6
CONTINUOUS
10
183.55
20
-56.018
11
183.411
21
-55.6438
0
LINE
8
BLACK
6
CONTINUOUS
10
183.411
20
-55.6438
11
183.308
21
-55.2587
0
LINE
8
BLACK
6
CONTINUOUS
10
183.308
20
-55.2587
11
183.239
21
-54.8659
0
LINE
8
BLACK
6
CONTINUOUS
10
183.239
20
-54.8659
11
183.206
21
-54.4685
0
LINE
8
BLACK
6
CONTINUOUS
10
183.206
20
-54.4685
11
183.206
21
-54.4684
0
LINE
8
BLACK
6
CONTINUOUS
10
183.206
20
-54.4684
11
183.206
21
-54.4669
0
LINE
8
BLACK
6
CONTINUOUS
10
183.206
20
-54.4669
11
183.206
21
-54.4656
0
LINE
8
BLACK
6
CONTINUOUS
10
183.206
20
-54.4656
11
183.206
21
-50
0
LINE
8
BLACK
6
CONTINUOUS
10
183.206
20
-50
11
183.206
21
-49.9994
0
LINE
8
BLACK
6
CONTINUOUS
10
183.206
20
-49.9994
11
183.206
21
-49.9992
0
LINE
8
BLACK
6
CONTINUOUS
10
183.206
20
-49.9992
11
183.206
21
-49.9983
0
LINE
8
BLACK
6
CONTINUOUS
10
183.206
20
-49.9983
11
183.209
21
-49.9782
0
LINE
8
BLACK
6
CONTINUOUS
10
183.209
20
-49.9782
11
183.196
21
-49.6027
0
LINE
8
BLACK
6
CONTINUOUS
10
183.196
20
-49.6027
11
183.146
21
-49.2091
0
LINE
8
BLACK
6
CONTINUOUS
10
183.146
20
-49.2091
11
183.06
21
-48.8219
0
LINE
8
BLACK
6
CONTINUOUS
10
183.06
20
-48.8219
11
182.939
21
-48.4441
0
LINE
8
BLACK
6
CONTINUOUS
10
182.939
20
-48.4441
11
182.783
21
-48.0792
0
LINE
8
BLACK
6
CONTINUOUS
10
182.783
20
-48.0792
11
182.595
21
-47.73
0
LINE
8
BLACK
6
CONTINUOUS
10
182.595
20
-47.73
11
182.375
21
-47.3997
0
LINE
8
BLACK
6
CONTINUOUS
10
182.375
20
-47.3997
11
182.126
21
-47.091
0
LINE
8
BLACK
6
CONTINUOUS
10
182.126
20
-47.091
11
181.849
21
-46.8065
0
LINE
8
BLACK
6
CONTINUOUS
10
181.849
20
-46.8065
11
181.548
21
-46.5485
0
LINE
8
BLACK
6
CONTINUOUS
10
181.548
20
-46.5485
11
181.224
21
-46.3194
0
LINE
8
BLACK
6
CONTINUOUS
10
181.224
20
-46.3194
11
180.88
21
-46.1211
0
LINE
8
BLACK
6
CONTINUOUS
10
180.88
20
-46.1211
11
180.532
21
-45.9605
0
LINE
8
BLACK
6
CONTINUOUS
10
180.532
20
-45.9605
11
180.519
21
-45.9598
0
LINE
8
BLACK
6
CONTINUOUS
10
180.519
20
-45.9598
11
180.519
21
-45.9594
0
LINE
8
BLACK
6
CONTINUOUS
10
180.519
20
-45.9594
11
180.518
21
-45.9594
0
LINE
8
BLACK
6
CONTINUOUS
10
180.518
20
-45.9594
11
180.508
21
-45.9505
0
LINE
8
BLACK
6
CONTINUOUS
10
180.508
20
-45.9505
11
178.614
21
-45.2324
0
LINE
8
BLACK
6
CONTINUOUS
10
178.614
20
-45.2324
11
176.695
21
-44.5434
0
LINE
8
BLACK
6
CONTINUOUS
10
176.695
20
-44.5434
11
174.763
21
-43.8887
0
LINE
8
BLACK
6
CONTINUOUS
10
174.763
20
-43.8887
11
172.82
21
-43.2685
0
LINE
8
BLACK
6
CONTINUOUS
10
172.82
20
-43.2685
11
170.867
21
-42.6831
0
LINE
8
BLACK
6
CONTINUOUS
10
170.867
20
-42.6831
11
168.903
21
-42.1327
0
LINE
8
BLACK
6
CONTINUOUS
10
168.903
20
-42.1327
11
166.93
21
-41.6173
0
LINE
8
BLACK
6
CONTINUOUS
10
166.93
20
-41.6173
11
164.948
21
-41.1372
0
LINE
8
BLACK
6
CONTINUOUS
10
164.948
20
-41.1372
11
162.958
21
-40.6925
0
LINE
8
BLACK
6
CONTINUOUS
10
162.958
20
-40.6925
11
160.96
21
-40.2834
0
LINE
8
BLACK
6
CONTINUOUS
10
160.96
20
-40.2834
11
158.955
21
-39.91
0
LINE
8
BLACK
6
CONTINUOUS
10
158.955
20
-39.91
11
156.944
21
-39.5724
0
LINE
8
BLACK
6
CONTINUOUS
10
156.944
20
-39.5724
11
154.927
21
-39.2707
0
LINE
8
BLACK
6
CONTINUOUS
10
154.927
20
-39.2707
11
152.905
21
-39.005
0
LINE
8
BLACK
6
CONTINUOUS
10
152.905
20
-39.005
11
150.878
21
-38.7754
0
LINE
8
BLACK
6
CONTINUOUS
10
150.878
20
-38.7754
11
148.848
21
-38.582
0
LINE
8
BLACK
6
CONTINUOUS
10
148.848
20
-38.582
11
146.815
21
-38.4248
0
LINE
8
BLACK
6
CONTINUOUS
10
146.815
20
-38.4248
11
144.779
21
-38.3039
0
LINE
8
BLACK
6
CONTINUOUS
10
144.779
20
-38.3039
11
142.742
21
-38.2194
0
LINE
8
BLACK
6
CONTINUOUS
10
142.742
20
-38.2194
11
140.703
21
-38.1711
0
LINE
8
BLACK
6
CONTINUOUS
10
140.703
20
-38.1711
11
138.663
21
-38.1593
0
LINE
8
BLACK
6
CONTINUOUS
10
138.663
20
-38.1593
11
136.624
21
-38.1838
0
LINE
8
BLACK
6
CONTINUOUS
10
136.624
20
-38.1838
11
134.586
21
-38.2447
0
LINE
8
BLACK
6
CONTINUOUS
10
134.586
20
-38.2447
11
132.549
21
-38.3419
0
LINE
8
BLACK
6
CONTINUOUS
10
132.549
20
-38.3419
11
130.514
21
-38.4754
0
LINE
8
BLACK
6
CONTINUOUS
10
130.514
20
-38.4754
11
128.495
21
-38.644
0
LINE
8
BLACK
6
CONTINUOUS
10
128.495
20
-38.644
11
128.482
21
-38.6497
0
LINE
8
BLACK
6
CONTINUOUS
10
128.482
20
-38.6497
11
128.482
21
-38.6497
0
LINE
8
BLACK
6
CONTINUOUS
10
128.482
20
-38.6497
11
128.482
21
-38.6497
0
LINE
8
BLACK
6
CONTINUOUS
10
128.482
20
-38.6497
11
128.468
21
-38.6466
0
LINE
8
BLACK
6
CONTINUOUS
10
128.468
20
-38.6466
11
126.894
21
-38.8094
0
LINE
8
BLACK
6
CONTINUOUS
10
126.894
20
-38.8094
11
125.31
21
-39.0092
0
LINE
8
BLACK
6
CONTINUOUS
10
125.31
20
-39.0092
11
123.732
21
-39.2445
0
LINE
8
BLACK
6
CONTINUOUS
10
123.732
20
-39.2445
11
122.159
21
-39.5151
0
LINE
8
BLACK
6
CONTINUOUS
10
122.159
20
-39.5151
11
120.592
21
-39.821
0
LINE
8
BLACK
6
CONTINUOUS
10
120.592
20
-39.821
11
119.033
21
-40.162
0
LINE
8
BLACK
6
CONTINUOUS
10
119.033
20
-40.162
11
117.482
21
-40.5379
0
LINE
8
BLACK
6
CONTINUOUS
10
117.482
20
-40.5379
11
115.94
21
-40.9485
0
LINE
8
BLACK
6
CONTINUOUS
10
115.94
20
-40.9485
11
114.407
21
-41.3937
0
LINE
8
BLACK
6
CONTINUOUS
10
114.407
20
-41.3937
11
112.885
21
-41.8731
0
LINE
8
BLACK
6
CONTINUOUS
10
112.885
20
-41.8731
11
111.373
21
-42.3866
0
LINE
8
BLACK
6
CONTINUOUS
10
111.373
20
-42.3866
11
109.874
21
-42.9339
0
LINE
8
BLACK
6
CONTINUOUS
10
109.874
20
-42.9339
11
108.387
21
-43.5147
0
LINE
8
BLACK
6
CONTINUOUS
10
108.387
20
-43.5147
11
106.914
21
-44.1287
0
LINE
8
BLACK
6
CONTINUOUS
10
106.914
20
-44.1287
11
105.455
21
-44.7757
0
LINE
8
BLACK
6
CONTINUOUS
10
105.455
20
-44.7757
11
104.011
21
-45.4552
0
LINE
8
BLACK
6
CONTINUOUS
10
104.011
20
-45.4552
11
102.582
21
-46.167
0
LINE
8
BLACK
6
CONTINUOUS
10
102.582
20
-46.167
11
101.17
21
-46.9106
0
LINE
8
BLACK
6
CONTINUOUS
10
101.17
20
-46.9106
11
99.775
21
-47.6858
0
LINE
8
BLACK
6
CONTINUOUS
10
99.775
20
-47.6858
11
98.3976
21
-48.4921
0
LINE
8
BLACK
6
CONTINUOUS
10
98.3976
20
-48.4921
11
97.0386
21
-49.3291
0
LINE
8
BLACK
6
CONTINUOUS
10
97.0386
20
-49.3291
11
95.6988
21
-50.1965
0
LINE
8
BLACK
6
CONTINUOUS
10
95.6988
20
-50.1965
11
94.3788
21
-51.0936
0
LINE
8
BLACK
6
CONTINUOUS
10
94.3788
20
-51.0936
11
93.0792
21
-52.0202
0
LINE
8
BLACK
6
CONTINUOUS
10
93.0792
20
-52.0202
11
91.8008
21
-52.9757
0
LINE
8
BLACK
6
CONTINUOUS
10
91.8008
20
-52.9757
11
90.5546
21
-53.9515
0
LINE
8
BLACK
6
CONTINUOUS
10
90.5546
20
-53.9515
11
90.5469
21
-53.9632
0
LINE
8
BLACK
6
CONTINUOUS
10
90.5469
20
-53.9632
11
90.5446
21
-53.9641
0
LINE
8
BLACK
6
CONTINUOUS
10
90.5446
20
-53.9641
11
90.5431
21
-53.966
0
LINE
8
BLACK
6
CONTINUOUS
10
90.5431
20
-53.966
11
90.5326
21
-53.9693
0
LINE
8
BLACK
6
CONTINUOUS
10
90.5326
20
-53.9693
11
90.2606
21
-54.179
0
LINE
8
BLACK
6
CONTINUOUS
10
90.2606
20
-54.179
11
90.0006
21
-54.4191
0
LINE
8
BLACK
6
CONTINUOUS
10
90.0006
20
-54.4191
11
89.7629
21
-54.6814
0
LINE
8
BLACK
6
CONTINUOUS
10
89.7629
20
-54.6814
11
89.5494
21
-54.9637
0
LINE
8
BLACK
6
CONTINUOUS
10
89.5494
20
-54.9637
11
89.3618
21
-55.2638
0
LINE
8
BLACK
6
CONTINUOUS
10
89.3618
20
-55.2638
11
89.2015
21
-55.5793
0
LINE
8
BLACK
6
CONTINUOUS
10
89.2015
20
-55.5793
11
89.0698
21
-55.9078
0
LINE
8
BLACK
6
CONTINUOUS
10
89.0698
20
-55.9078
11
88.9677
21
-56.2467
0
LINE
8
BLACK
6
CONTINUOUS
10
88.9677
20
-56.2467
11
88.896
21
-56.5933
0
LINE
8
BLACK
6
CONTINUOUS
10
88.896
20
-56.5933
11
88.8554
21
-56.9449
0
LINE
8
BLACK
6
CONTINUOUS
10
88.8554
20
-56.9449
11
88.8464
21
-57.2881
0
LINE
8
BLACK
6
CONTINUOUS
10
88.8464
20
-57.2881
11
88.85
21
-57.2986
0
LINE
8
BLACK
6
CONTINUOUS
10
88.85
20
-57.2986
11
88.8498
21
-57.2993
0
LINE
8
BLACK
6
CONTINUOUS
10
88.8498
20
-57.2993
11
88.85
21
-57.2998
0
LINE
8
BLACK
6
CONTINUOUS
10
88.85
20
-57.2998
11
88.855
21
-59.5774
0
LINE
8
BLACK
6
CONTINUOUS
10
88.855
20
-59.5774
11
88.855
21
-59.5775
0
LINE
8
BLACK
6
CONTINUOUS
10
88.855
20
-59.5775
11
88.855
21
-59.5775
0
LINE
8
BLACK
6
CONTINUOUS
10
88.855
20
-59.5775
11
88.855
21
-106.922
0
LINE
8
BLACK
6
CONTINUOUS
10
88.855
20
-106.922
11
88.8517
21
-106.941
0
LINE
8
BLACK
6
CONTINUOUS
10
88.8517
20
-106.941
11
88.8676
21
-107.3
0
LINE
8
BLACK
6
CONTINUOUS
10
88.8676
20
-107.3
11
88.9178
21
-107.676
0
LINE
8
BLACK
6
CONTINUOUS
10
88.9178
20
-107.676
11
89.0011
21
-108.046
0
LINE
8
BLACK
6
CONTINUOUS
10
89.0011
20
-108.046
11
89.1168
21
-108.407
0
LINE
8
BLACK
6
CONTINUOUS
10
89.1168
20
-108.407
11
89.264
21
-108.756
0
LINE
8
BLACK
6
CONTINUOUS
10
89.264
20
-108.756
11
89.4415
21
-109.091
0
LINE
8
BLACK
6
CONTINUOUS
10
89.4415
20
-109.091
11
89.6479
21
-109.409
0
LINE
8
BLACK
6
CONTINUOUS
10
89.6479
20
-109.409
11
89.8817
21
-109.707
0
LINE
8
BLACK
6
CONTINUOUS
10
89.8817
20
-109.707
11
90.141
21
-109.984
0
LINE
8
BLACK
6
CONTINUOUS
10
90.141
20
-109.984
11
90.4237
21
-110.236
0
LINE
8
BLACK
6
CONTINUOUS
10
90.4237
20
-110.236
11
90.7276
21
-110.463
0
LINE
8
BLACK
6
CONTINUOUS
10
90.7276
20
-110.463
11
91.0504
21
-110.661
0
LINE
8
BLACK
6
CONTINUOUS
10
91.0504
20
-110.661
11
91.3895
21
-110.831
0
LINE
8
BLACK
6
CONTINUOUS
10
91.3895
20
-110.831
11
91.7423
21
-110.97
0
LINE
8
BLACK
6
CONTINUOUS
10
91.7423
20
-110.97
11
92.106
21
-111.076
0
LINE
8
BLACK
6
CONTINUOUS
10
92.106
20
-111.076
11
92.4777
21
-111.151
0
LINE
8
BLACK
6
CONTINUOUS
10
92.4777
20
-111.151
11
92.8419
21
-111.191
0
LINE
8
BLACK
6
CONTINUOUS
10
92.8419
20
-111.191
11
92.8517
21
-111.188
0
LINE
8
BLACK
6
CONTINUOUS
10
92.8517
20
-111.188
11
92.8517
21
-111.188
0
LINE
8
BLACK
6
CONTINUOUS
10
92.8517
20
-111.188
11
95.7394
21
-111.273
0
LINE
8
BLACK
6
CONTINUOUS
10
95.7394
20
-111.273
11
98.6259
21
-111.395
0
LINE
8
BLACK
6
CONTINUOUS
10
98.6259
20
-111.395
11
101.511
21
-111.553
0
LINE
8
BLACK
6
CONTINUOUS
10
101.511
20
-111.553
11
104.393
21
-111.749
0
LINE
8
BLACK
6
CONTINUOUS
10
104.393
20
-111.749
11
107.273
21
-111.981
0
LINE
8
BLACK
6
CONTINUOUS
10
107.273
20
-111.981
11
110.149
21
-112.249
0
LINE
8
BLACK
6
CONTINUOUS
10
110.149
20
-112.249
11
113.022
21
-112.554
0
LINE
8
BLACK
6
CONTINUOUS
10
113.022
20
-112.554
11
115.891
21
-112.896
0
LINE
8
BLACK
6
CONTINUOUS
10
115.891
20
-112.896
11
118.755
21
-113.274
0
LINE
8
BLACK
6
CONTINUOUS
10
118.755
20
-113.274
11
121.614
21
-113.688
0
LINE
8
BLACK
6
CONTINUOUS
10
121.614
20
-113.688
11
124.468
21
-114.139
0
LINE
8
BLACK
6
CONTINUOUS
10
124.468
20
-114.139
11
127.315
21
-114.625
0
LINE
8
BLACK
6
CONTINUOUS
10
127.315
20
-114.625
11
130.157
21
-115.148
0
LINE
8
BLACK
6
CONTINUOUS
10
130.157
20
-115.148
11
132.991
21
-115.708
0
LINE
8
BLACK
6
CONTINUOUS
10
132.991
20
-115.708
11
135.818
21
-116.303
0
LINE
8
BLACK
6
CONTINUOUS
10
135.818
20
-116.303
11
138.637
21
-116.934
0
LINE
8
BLACK
6
CONTINUOUS
10
138.637
20
-116.934
11
141.448
21
-117.601
0
LINE
8
BLACK
6
CONTINUOUS
10
141.448
20
-117.601
11
144.251
21
-118.303
0
LINE
8
BLACK
6
CONTINUOUS
10
144.251
20
-118.303
11
147.044
21
-119.041
0
LINE
8
BLACK
6
CONTINUOUS
10
147.044
20
-119.041
11
149.827
21
-119.815
0
LINE
8
BLACK
6
CONTINUOUS
10
149.827
20
-119.815
11
152.601
21
-120.623
0
LINE
8
BLACK
6
CONTINUOUS
10
152.601
20
-120.623
11
155.364
21
-121.467
0
LINE
8
BLACK
6
CONTINUOUS
10
155.364
20
-121.467
11
158.116
21
-122.347
0
LINE
8
BLACK
6
CONTINUOUS
10
158.116
20
-122.347
11
160.856
21
-123.261
0
LINE
8
BLACK
6
CONTINUOUS
10
160.856
20
-123.261
11
163.585
21
-124.209
0
LINE
8
BLACK
6
CONTINUOUS
10
163.585
20
-124.209
11
166.302
21
-125.193
0
LINE
8
BLACK
6
CONTINUOUS
10
166.302
20
-125.193
11
169.006
21
-126.211
0
LINE
8
BLACK
6
CONTINUOUS
10
169.006
20
-126.211
11
171.696
21
-127.263
0
LINE
8
BLACK
6
CONTINUOUS
10
171.696
20
-127.263
11
174.373
21
-128.349
0
LINE
8
BLACK
6
CONTINUOUS
10
174.373
20
-128.349
11
177.036
21
-129.469
0
LINE
8
BLACK
6
CONTINUOUS
10
177.036
20
-129.469
11
179.685
21
-130.623
0
LINE
8
BLACK
6
CONTINUOUS
10
179.685
20
-130.623
11
182.313
21
-131.808
0
LINE
8
BLACK
6
CONTINUOUS
10
182.313
20
-131.808
11
182.493
21
-131.861
0
LINE
8
BLACK
6
CONTINUOUS
10
182.493
20
-131.861
11
182.676
21
-131.924
0
LINE
8
BLACK
6
CONTINUOUS
10
182.676
20
-131.924
11
182.856
21
-131.995
0
LINE
8
BLACK
6
CONTINUOUS
10
182.856
20
-131.995
11
182.856
21
-131.995
0
LINE
8
BLACK
6
CONTINUOUS
10
182.856
20
-131.995
11
182.856
21
-131.995
0
LINE
8
BLACK
6
CONTINUOUS
10
182.856
20
-131.995
11
188.901
21
-134.524
0
LINE
8
BLACK
6
CONTINUOUS
10
188.901
20
-134.524
11
188.917
21
-134.535
0
LINE
8
BLACK
6
CONTINUOUS
10
188.917
20
-134.535
11
189.258
21
-134.66
0
LINE
8
BLACK
6
CONTINUOUS
10
189.258
20
-134.66
11
189.628
21
-134.759
0
LINE
8
BLACK
6
CONTINUOUS
10
189.628
20
-134.759
11
190.005
21
-134.825
0
LINE
8
BLACK
6
CONTINUOUS
10
190.005
20
-134.825
11
190.386
21
-134.857
0
LINE
8
BLACK
6
CONTINUOUS
10
190.386
20
-134.857
11
190.769
21
-134.855
0
LINE
8
BLACK
6
CONTINUOUS
10
190.769
20
-134.855
11
191.15
21
-134.818
0
LINE
8
BLACK
6
CONTINUOUS
10
191.15
20
-134.818
11
191.526
21
-134.748
0
LINE
8
BLACK
6
CONTINUOUS
10
191.526
20
-134.748
11
191.894
21
-134.644
0
LINE
8
BLACK
6
CONTINUOUS
10
191.894
20
-134.644
11
192.252
21
-134.508
0
LINE
8
BLACK
6
CONTINUOUS
10
192.252
20
-134.508
11
192.596
21
-134.34
0
LINE
8
BLACK
6
CONTINUOUS
10
192.596
20
-134.34
11
192.924
21
-134.142
0
LINE
8
BLACK
6
CONTINUOUS
10
192.924
20
-134.142
11
193.232
21
-133.916
0
LINE
8
BLACK
6
CONTINUOUS
10
193.232
20
-133.916
11
193.52
21
-133.663
0
LINE
8
BLACK
6
CONTINUOUS
10
193.52
20
-133.663
11
193.783
21
-133.386
0
LINE
8
BLACK
6
CONTINUOUS
10
193.783
20
-133.386
11
194.021
21
-133.086
0
LINE
8
BLACK
6
CONTINUOUS
10
194.021
20
-133.086
11
194.231
21
-132.766
0
LINE
8
BLACK
6
CONTINUOUS
10
194.231
20
-132.766
11
194.405
21
-132.439
0
LINE
8
BLACK
6
CONTINUOUS
10
194.405
20
-132.439
11
194.406
21
-132.429
0
LINE
8
BLACK
6
CONTINUOUS
10
194.406
20
-132.429
11
201.356
21
-116.154
0
LINE
8
BLACK
6
CONTINUOUS
10
201.356
20
-116.154
11
201.362
21
-116.145
0
LINE
8
BLACK
6
CONTINUOUS
10
201.362
20
-116.145
11
201.472
21
-115.811
0
LINE
8
BLACK
6
CONTINUOUS
10
201.472
20
-115.811
11
201.564
21
-115.457
0
LINE
8
BLACK
6
CONTINUOUS
10
201.564
20
-115.457
11
201.633
21
-115.097
0
LINE
8
BLACK
6
CONTINUOUS
10
201.633
20
-115.097
11
201.68
21
-114.734
0
LINE
8
BLACK
6
CONTINUOUS
10
201.68
20
-114.734
11
201.703
21
-114.368
0
LINE
8
BLACK
6
CONTINUOUS
10
201.703
20
-114.368
11
201.703
21
-114.01
0
LINE
8
BLACK
6
CONTINUOUS
10
201.703
20
-114.01
11
201.7
21
-114.002
0
LINE
8
BLACK
6
CONTINUOUS
10
201.7
20
-114.002
11
201.7
21
-114.001
0
LINE
8
BLACK
6
CONTINUOUS
10
201.7
20
-114.001
11
201.7
21
-114
0
LINE
8
BLACK
6
CONTINUOUS
10
201.7
20
-114
11
201.7
21
-63
0
LINE
8
BLACK
6
CONTINUOUS
10
201.7
20
-63
11
201.7
21
-62.9991
0
LINE
8
BLACK
6
CONTINUOUS
10
201.7
20
-62.9991
11
201.7
21
-62.9986
0
LINE
8
BLACK
6
CONTINUOUS
10
201.7
20
-62.9986
11
201.7
21
-62.9972
0
LINE
8
BLACK
6
CONTINUOUS
10
201.7
20
-62.9972
11
201.704
21
-62.9773
0
LINE
8
BLACK
6
CONTINUOUS
10
201.704
20
-62.9773
11
201.694
21
-62.6062
0
LINE
8
BLACK
6
CONTINUOUS
10
201.694
20
-62.6062
11
201.646
21
-62.2165
0
LINE
8
BLACK
6
CONTINUOUS
10
201.646
20
-62.2165
11
201.562
21
-61.833
0
LINE
8
BLACK
6
CONTINUOUS
10
201.562
20
-61.833
11
201.443
21
-61.459
0
LINE
8
BLACK
6
CONTINUOUS
10
201.443
20
-61.459
11
201.289
21
-61.0977
0
LINE
8
BLACK
6
CONTINUOUS
10
201.289
20
-61.0977
11
201.102
21
-60.7523
0
LINE
8
BLACK
6
CONTINUOUS
10
201.102
20
-60.7523
11
200.884
21
-60.4259
0
LINE
8
BLACK
6
CONTINUOUS
10
200.884
20
-60.4259
11
200.636
21
-60.1213
0
LINE
8
BLACK
6
CONTINUOUS
10
200.636
20
-60.1213
11
200.361
21
-59.8412
0
LINE
8
BLACK
6
CONTINUOUS
10
200.361
20
-59.8412
11
200.061
21
-59.5879
0
LINE
8
BLACK
6
CONTINUOUS
10
200.061
20
-59.5879
11
199.739
21
-59.3638
0
LINE
8
BLACK
6
CONTINUOUS
10
199.739
20
-59.3638
11
199.397
21
-59.1708
0
LINE
8
BLACK
6
CONTINUOUS
10
199.397
20
-59.1708
11
199.039
21
-59.0105
0
LINE
8
BLACK
6
CONTINUOUS
10
199.039
20
-59.0105
11
198.667
21
-58.8843
0
LINE
8
BLACK
6
CONTINUOUS
10
198.667
20
-58.8843
11
198.285
21
-58.7935
0
LINE
8
BLACK
6
CONTINUOUS
10
198.285
20
-58.7935
11
197.896
21
-58.7387
0
LINE
8
BLACK
6
CONTINUOUS
10
197.896
20
-58.7387
11
197.516
21
-58.721
0
LINE
8
BLACK
6
CONTINUOUS
10
197.516
20
-58.721
11
197.504
21
-58.725
0
LINE
8
BLACK
6
CONTINUOUS
10
197.504
20
-58.725
11
197.504
21
-58.725
0
LINE
8
BLACK
6
CONTINUOUS
10
197.504
20
-58.725
11
197.504
21
-58.725
0
LINE
8
BLACK
6
CONTINUOUS
10
197.504
20
-58.725
11
187.627
21
-58.725
0
LINE
8
BLACK
6
CONTINUOUS
10
187.627
20
-58.725
11
187.229
21
-58.707
  0
ENDSEC
  0
EOF
