%TF.GenerationSoftware,KiCad,Pcbnew,7.0.10*%
%TF.CreationDate,2024-01-15T23:58:38+02:00*%
%TF.ProjectId,snak_final,736e616b-5f66-4696-9e61-6c2e6b696361,0.1*%
%TF.SameCoordinates,Original*%
%TF.FileFunction,Copper,L2,Bot*%
%TF.FilePolarity,Positive*%
%FSLAX46Y46*%
G04 Gerber Fmt 4.6, Leading zero omitted, Abs format (unit mm)*
G04 Created by KiCad (PCBNEW 7.0.10) date 2024-01-15 23:58:38*
%MOMM*%
%LPD*%
G01*
G04 APERTURE LIST*
G04 Aperture macros list*
%AMRotRect*
0 Rectangle, with rotation*
0 The origin of the aperture is its center*
0 $1 length*
0 $2 width*
0 $3 Rotation angle, in degrees counterclockwise*
0 Add horizontal line*
21,1,$1,$2,0,0,$3*%
%AMFreePoly0*
4,1,6,1.300000,-1.300000,-0.050000,-1.300000,-1.300000,-0.250000,-1.300000,1.300000,1.300000,1.300000,1.300000,-1.300000,1.300000,-1.300000,$1*%
%AMFreePoly1*
4,1,6,0.250000,0.000000,-0.250000,-0.625000,-0.500000,-0.625000,-0.500000,0.625000,-0.250000,0.625000,0.250000,0.000000,0.250000,0.000000,$1*%
%AMFreePoly2*
4,1,6,0.500000,-0.625000,-0.650000,-0.625000,-0.150000,0.000000,-0.650000,0.625000,0.500000,0.625000,0.500000,-0.625000,0.500000,-0.625000,$1*%
%AMFreePoly3*
4,1,6,0.600000,-1.000000,0.000000,-0.400000,-0.600000,-1.000000,-0.600000,0.250000,0.600000,0.250000,0.600000,-1.000000,0.600000,-1.000000,$1*%
%AMFreePoly4*
4,1,6,0.600000,-0.200000,0.600000,-0.400000,-0.600000,-0.400000,-0.600000,-0.200000,0.000000,0.400000,0.600000,-0.200000,0.600000,-0.200000,$1*%
G04 Aperture macros list end*
%TA.AperFunction,ComponentPad*%
%ADD10C,0.600000*%
%TD*%
%TA.AperFunction,SMDPad,CuDef*%
%ADD11R,2.600000X2.600000*%
%TD*%
%TA.AperFunction,SMDPad,CuDef*%
%ADD12FreePoly0,0.000000*%
%TD*%
%TA.AperFunction,SMDPad,CuDef*%
%ADD13RotRect,2.600000X2.600000X345.000000*%
%TD*%
%TA.AperFunction,SMDPad,CuDef*%
%ADD14FreePoly0,345.000000*%
%TD*%
%TA.AperFunction,SMDPad,CuDef*%
%ADD15RotRect,2.600000X2.600000X335.000000*%
%TD*%
%TA.AperFunction,SMDPad,CuDef*%
%ADD16FreePoly0,335.000000*%
%TD*%
%TA.AperFunction,ComponentPad*%
%ADD17C,1.905000*%
%TD*%
%TA.AperFunction,ComponentPad*%
%ADD18R,1.778000X1.778000*%
%TD*%
%TA.AperFunction,SMDPad,CuDef*%
%ADD19R,0.900000X1.200000*%
%TD*%
%TA.AperFunction,ComponentPad*%
%ADD20RotRect,1.778000X1.778000X345.000000*%
%TD*%
%TA.AperFunction,SMDPad,CuDef*%
%ADD21RotRect,0.900000X1.200000X345.000000*%
%TD*%
%TA.AperFunction,ComponentPad*%
%ADD22RotRect,1.778000X1.778000X335.000000*%
%TD*%
%TA.AperFunction,SMDPad,CuDef*%
%ADD23RotRect,0.900000X1.200000X335.000000*%
%TD*%
%TA.AperFunction,SMDPad,CuDef*%
%ADD24FreePoly1,180.000000*%
%TD*%
%TA.AperFunction,SMDPad,CuDef*%
%ADD25FreePoly2,180.000000*%
%TD*%
%TA.AperFunction,SMDPad,CuDef*%
%ADD26FreePoly2,0.000000*%
%TD*%
%TA.AperFunction,SMDPad,CuDef*%
%ADD27FreePoly1,0.000000*%
%TD*%
%TA.AperFunction,ComponentPad*%
%ADD28C,0.800000*%
%TD*%
%TA.AperFunction,ComponentPad*%
%ADD29C,1.700000*%
%TD*%
%TA.AperFunction,ComponentPad*%
%ADD30O,1.700000X1.700000*%
%TD*%
%TA.AperFunction,SMDPad,CuDef*%
%ADD31R,1.200000X0.600000*%
%TD*%
%TA.AperFunction,SMDPad,CuDef*%
%ADD32R,1.000000X0.800000*%
%TD*%
%TA.AperFunction,SMDPad,CuDef*%
%ADD33R,0.700000X1.500000*%
%TD*%
%TA.AperFunction,SMDPad,CuDef*%
%ADD34FreePoly3,90.000000*%
%TD*%
%TA.AperFunction,SMDPad,CuDef*%
%ADD35FreePoly4,90.000000*%
%TD*%
%TA.AperFunction,ComponentPad*%
%ADD36O,1.750000X1.200000*%
%TD*%
%TA.AperFunction,SMDPad,CuDef*%
%ADD37RotRect,1.400000X1.050000X33.000000*%
%TD*%
%TA.AperFunction,ComponentPad*%
%ADD38C,3.800000*%
%TD*%
%TA.AperFunction,Conductor*%
%ADD39C,0.250000*%
%TD*%
G04 APERTURE END LIST*
%TA.AperFunction,EtchedComponent*%
%TO.C,G\u002A\u002A\u002A*%
G36*
X136380304Y-94025223D02*
G01*
X136444495Y-94139066D01*
X136462170Y-94180542D01*
X136505659Y-94335403D01*
X136534502Y-94527741D01*
X136547230Y-94726499D01*
X136542377Y-94900619D01*
X136518476Y-95019044D01*
X136502972Y-95044147D01*
X136473891Y-95020963D01*
X136439723Y-94908650D01*
X136403816Y-94719324D01*
X136392502Y-94644423D01*
X136360490Y-94428657D01*
X136330609Y-94240301D01*
X136307848Y-94110386D01*
X136302359Y-94083900D01*
X136294892Y-93988965D01*
X136325655Y-93972298D01*
X136380304Y-94025223D01*
G37*
%TD.AperFunction*%
%TA.AperFunction,EtchedComponent*%
G36*
X128230194Y-93697746D02*
G01*
X128198102Y-93857327D01*
X128131001Y-94108153D01*
X128049533Y-94382170D01*
X127924776Y-94781979D01*
X127822582Y-95094444D01*
X127743827Y-95317148D01*
X127689388Y-95447678D01*
X127660139Y-95483620D01*
X127655422Y-95468200D01*
X127663204Y-95345031D01*
X127695062Y-95150675D01*
X127744809Y-94910933D01*
X127806257Y-94651603D01*
X127873217Y-94398487D01*
X127939502Y-94177384D01*
X127998922Y-94014095D01*
X128010201Y-93989033D01*
X128117283Y-93775054D01*
X128189699Y-93655752D01*
X128227365Y-93630269D01*
X128230194Y-93697746D01*
G37*
%TD.AperFunction*%
%TA.AperFunction,EtchedComponent*%
G36*
X129751675Y-100718200D02*
G01*
X129972716Y-100752571D01*
X130191200Y-100794962D01*
X130451868Y-100848768D01*
X130703534Y-100898108D01*
X130913847Y-100936778D01*
X131029400Y-100955692D01*
X131170873Y-100980521D01*
X131221350Y-101003371D01*
X131191174Y-101029523D01*
X131181800Y-101033468D01*
X131044484Y-101061553D01*
X130836390Y-101071902D01*
X130586639Y-101065270D01*
X130324354Y-101042413D01*
X130082959Y-101004949D01*
X129872561Y-100953364D01*
X129671099Y-100888157D01*
X129549559Y-100836500D01*
X129431231Y-100772876D01*
X129395000Y-100738234D01*
X129432188Y-100715928D01*
X129480000Y-100703086D01*
X129579019Y-100700618D01*
X129751675Y-100718200D01*
G37*
%TD.AperFunction*%
%TA.AperFunction,EtchedComponent*%
G36*
X136142352Y-94153455D02*
G01*
X136188097Y-94252137D01*
X136241614Y-94401218D01*
X136294277Y-94576662D01*
X136337466Y-94754430D01*
X136337711Y-94755610D01*
X136366050Y-94949051D01*
X136371301Y-95165945D01*
X136353606Y-95438191D01*
X136341312Y-95558969D01*
X136308188Y-95815888D01*
X136274042Y-96000527D01*
X136241668Y-96107373D01*
X136213862Y-96130912D01*
X136193417Y-96065630D01*
X136183129Y-95906013D01*
X136182620Y-95872060D01*
X136178456Y-95705922D01*
X136169210Y-95468354D01*
X136156190Y-95189325D01*
X136140704Y-94898803D01*
X136138395Y-94858600D01*
X136124614Y-94601324D01*
X136115073Y-94382848D01*
X136110424Y-94221916D01*
X136111319Y-94137273D01*
X136112999Y-94129209D01*
X136142352Y-94153455D01*
G37*
%TD.AperFunction*%
%TA.AperFunction,EtchedComponent*%
G36*
X129046250Y-92763674D02*
G01*
X129031059Y-92860078D01*
X129060998Y-92882103D01*
X129093348Y-92872539D01*
X129162097Y-92869687D01*
X129175200Y-92892395D01*
X129132317Y-92942359D01*
X129027991Y-92994857D01*
X129017111Y-92998770D01*
X128902950Y-93061094D01*
X128887092Y-93127026D01*
X128875589Y-93214939D01*
X128833648Y-93267385D01*
X128764102Y-93340695D01*
X128658310Y-93469901D01*
X128538485Y-93627803D01*
X128531868Y-93636864D01*
X128427089Y-93775141D01*
X128349989Y-93866371D01*
X128314666Y-93894130D01*
X128313841Y-93890864D01*
X128339408Y-93741471D01*
X128394886Y-93558581D01*
X128464944Y-93385014D01*
X128534245Y-93263592D01*
X128541649Y-93254709D01*
X128602941Y-93165859D01*
X128583894Y-93121943D01*
X128578300Y-93119744D01*
X128518008Y-93071259D01*
X128548561Y-93014231D01*
X128629100Y-92976819D01*
X128736453Y-92920965D01*
X128868100Y-92822388D01*
X128912201Y-92782896D01*
X129081003Y-92623400D01*
X129046250Y-92763674D01*
G37*
%TD.AperFunction*%
%TA.AperFunction,EtchedComponent*%
G36*
X134438286Y-92308264D02*
G01*
X134565279Y-92379707D01*
X134698739Y-92467219D01*
X134788600Y-92535679D01*
X134918265Y-92658416D01*
X135027992Y-92786121D01*
X135034540Y-92795232D01*
X135128081Y-92928200D01*
X135094231Y-92777179D01*
X135074963Y-92675875D01*
X135093067Y-92660610D01*
X135160204Y-92716496D01*
X135245498Y-92824039D01*
X135347723Y-92995806D01*
X135451114Y-93199826D01*
X135539904Y-93404130D01*
X135598329Y-93576746D01*
X135609245Y-93627105D01*
X135614107Y-93795977D01*
X135588114Y-93969831D01*
X135588075Y-93969973D01*
X135540058Y-94147400D01*
X135479871Y-93931500D01*
X135441063Y-93801429D01*
X135413194Y-93724521D01*
X135407146Y-93715600D01*
X135403613Y-93762726D01*
X135404228Y-93889607D01*
X135408717Y-94074490D01*
X135413408Y-94210900D01*
X135416382Y-94439494D01*
X135408771Y-94641974D01*
X135392159Y-94788552D01*
X135380323Y-94833200D01*
X135350918Y-94892436D01*
X135334368Y-94880116D01*
X135326420Y-94784735D01*
X135323978Y-94680800D01*
X135312007Y-94468245D01*
X135279483Y-94242525D01*
X135221128Y-93972852D01*
X135164542Y-93750710D01*
X135114726Y-93619921D01*
X135030449Y-93533432D01*
X134887436Y-93460415D01*
X134733145Y-93386907D01*
X134671107Y-93339777D01*
X134702333Y-93321824D01*
X134827831Y-93335848D01*
X134843511Y-93338722D01*
X135025423Y-93372849D01*
X134898291Y-93121967D01*
X134796539Y-92947228D01*
X134659612Y-92744795D01*
X134538579Y-92585568D01*
X134424984Y-92442255D01*
X134342148Y-92330380D01*
X134306364Y-92272059D01*
X134306000Y-92269921D01*
X134343334Y-92266974D01*
X134438286Y-92308264D01*
G37*
%TD.AperFunction*%
%TA.AperFunction,EtchedComponent*%
G36*
X134438286Y-92308264D02*
G01*
X134565279Y-92379707D01*
X134698739Y-92467219D01*
X134788600Y-92535679D01*
X134918265Y-92658416D01*
X135027992Y-92786121D01*
X135034540Y-92795232D01*
X135128081Y-92928200D01*
X135094231Y-92777179D01*
X135074963Y-92675875D01*
X135093067Y-92660610D01*
X135160204Y-92716496D01*
X135245498Y-92824039D01*
X135347723Y-92995806D01*
X135451114Y-93199826D01*
X135539904Y-93404130D01*
X135598329Y-93576746D01*
X135609245Y-93627105D01*
X135614107Y-93795977D01*
X135588114Y-93969831D01*
X135588075Y-93969973D01*
X135540058Y-94147400D01*
X135479871Y-93931500D01*
X135441063Y-93801429D01*
X135413194Y-93724521D01*
X135407146Y-93715600D01*
X135403613Y-93762726D01*
X135404228Y-93889607D01*
X135408717Y-94074490D01*
X135413408Y-94210900D01*
X135416382Y-94439494D01*
X135408771Y-94641974D01*
X135392159Y-94788552D01*
X135380323Y-94833200D01*
X135350918Y-94892436D01*
X135334368Y-94880116D01*
X135326420Y-94784735D01*
X135323978Y-94680800D01*
X135312007Y-94468245D01*
X135279483Y-94242525D01*
X135221128Y-93972852D01*
X135164542Y-93750710D01*
X135114726Y-93619921D01*
X135030449Y-93533432D01*
X134887436Y-93460415D01*
X134733145Y-93386907D01*
X134671107Y-93339777D01*
X134702333Y-93321824D01*
X134827831Y-93335848D01*
X134843511Y-93338722D01*
X135025423Y-93372849D01*
X134898291Y-93121967D01*
X134796539Y-92947228D01*
X134659612Y-92744795D01*
X134538579Y-92585568D01*
X134424984Y-92442255D01*
X134342148Y-92330380D01*
X134306364Y-92272059D01*
X134306000Y-92269921D01*
X134343334Y-92266974D01*
X134438286Y-92308264D01*
G37*
%TD.AperFunction*%
%TA.AperFunction,EtchedComponent*%
G36*
X132987004Y-89586233D02*
G01*
X133200155Y-89617859D01*
X133476758Y-89662565D01*
X133780491Y-89707930D01*
X134053274Y-89745342D01*
X134096412Y-89750790D01*
X134414867Y-89806989D01*
X134692121Y-89898423D01*
X134877802Y-89984940D01*
X135202702Y-90143455D01*
X135472840Y-90256654D01*
X135718380Y-90334989D01*
X135969488Y-90388914D01*
X136103111Y-90409510D01*
X136534857Y-90512546D01*
X136901470Y-90693277D01*
X137204978Y-90953160D01*
X137447409Y-91293654D01*
X137514460Y-91424180D01*
X137629956Y-91635447D01*
X137770422Y-91846751D01*
X137884581Y-91988400D01*
X138137582Y-92297737D01*
X138393687Y-92674786D01*
X138633811Y-93088111D01*
X138838868Y-93506278D01*
X138911622Y-93680037D01*
X138998138Y-93904427D01*
X139068695Y-94096972D01*
X139115800Y-94236555D01*
X139132000Y-94300937D01*
X139147083Y-94375606D01*
X139187178Y-94519279D01*
X139244552Y-94704781D01*
X139263546Y-94763215D01*
X139336586Y-95022114D01*
X139385157Y-95292745D01*
X139415296Y-95612636D01*
X139423197Y-95755452D01*
X139432850Y-96007319D01*
X139432408Y-96214271D01*
X139418002Y-96400910D01*
X139385766Y-96591836D01*
X139331830Y-96811650D01*
X139252327Y-97084955D01*
X139174608Y-97336591D01*
X139104599Y-97566871D01*
X139063083Y-97730907D01*
X139046613Y-97858903D01*
X139051743Y-97981065D01*
X139075025Y-98127598D01*
X139080802Y-98158492D01*
X139108943Y-98373551D01*
X139115834Y-98581286D01*
X139106538Y-98694361D01*
X139070931Y-98905119D01*
X139241165Y-98817321D01*
X139398640Y-98730777D01*
X139571142Y-98628651D01*
X139603789Y-98608331D01*
X139730922Y-98541779D01*
X139826694Y-98515573D01*
X139849149Y-98519876D01*
X139913600Y-98508320D01*
X139977796Y-98444570D01*
X140065919Y-98357746D01*
X140206036Y-98257036D01*
X140291236Y-98206451D01*
X140910856Y-97870924D01*
X141535754Y-97538959D01*
X142126319Y-97231532D01*
X142307000Y-97139001D01*
X142598884Y-96982415D01*
X142862669Y-96826202D01*
X143075818Y-96684355D01*
X143203949Y-96582200D01*
X143449956Y-96382600D01*
X143602400Y-96382600D01*
X143627800Y-96408000D01*
X143653200Y-96382600D01*
X143627800Y-96357200D01*
X143602400Y-96382600D01*
X143449956Y-96382600D01*
X143547308Y-96303613D01*
X143934621Y-96057218D01*
X144320440Y-95871919D01*
X144321181Y-95871628D01*
X144515847Y-95787697D01*
X144749569Y-95676008D01*
X144973592Y-95559914D01*
X144985347Y-95553491D01*
X145263917Y-95407251D01*
X145516698Y-95286519D01*
X145735651Y-95193167D01*
X145912734Y-95129066D01*
X146039905Y-95096088D01*
X146109124Y-95096104D01*
X146112350Y-95130986D01*
X146041540Y-95202606D01*
X145888655Y-95312834D01*
X145815077Y-95360370D01*
X145638326Y-95477764D01*
X145496307Y-95582734D01*
X145410317Y-95659056D01*
X145395457Y-95680034D01*
X145336046Y-95745024D01*
X145218356Y-95825111D01*
X145158234Y-95857836D01*
X144999819Y-95953916D01*
X144819878Y-96085984D01*
X144716257Y-96173172D01*
X144487980Y-96366952D01*
X144208212Y-96581955D01*
X143866955Y-96825363D01*
X143454211Y-97104357D01*
X143073815Y-97352843D01*
X142837483Y-97509114D01*
X142635518Y-97649741D01*
X142481740Y-97764522D01*
X142389968Y-97843252D01*
X142370129Y-97872431D01*
X142338052Y-97931708D01*
X142243291Y-98001381D01*
X142226854Y-98010240D01*
X142128302Y-98075555D01*
X141976407Y-98193134D01*
X141792230Y-98346053D01*
X141604925Y-98510094D01*
X141076791Y-98950867D01*
X140476718Y-99391750D01*
X139832501Y-99813466D01*
X139175617Y-100194744D01*
X138821000Y-100406114D01*
X138519369Y-100623741D01*
X138358628Y-100765364D01*
X138200084Y-100911111D01*
X138088852Y-100993847D01*
X138031290Y-101011371D01*
X138033758Y-100961486D01*
X138092383Y-100857407D01*
X138145500Y-100758991D01*
X138128296Y-100731886D01*
X138039671Y-100775801D01*
X137967747Y-100824647D01*
X137848556Y-100893339D01*
X137672631Y-100976328D01*
X137490339Y-101050844D01*
X137296142Y-101130643D01*
X137050690Y-101241051D01*
X136792208Y-101364550D01*
X136649498Y-101436239D01*
X136386439Y-101579039D01*
X136189148Y-101707659D01*
X136028250Y-101843565D01*
X135887412Y-101993145D01*
X135698392Y-102196048D01*
X135523580Y-102342489D01*
X135332183Y-102450935D01*
X135093407Y-102539853D01*
X134869562Y-102603553D01*
X134627163Y-102680623D01*
X134346033Y-102795137D01*
X134019113Y-102950839D01*
X133639348Y-103151473D01*
X133199678Y-103400784D01*
X132693047Y-103702516D01*
X132112397Y-104060412D01*
X132049956Y-104099456D01*
X131736779Y-104294503D01*
X131441073Y-104476786D01*
X131177124Y-104637645D01*
X130959218Y-104768421D01*
X130801637Y-104860454D01*
X130729156Y-104900094D01*
X130538483Y-104999721D01*
X130285420Y-105137998D01*
X129994476Y-105300930D01*
X129690155Y-105474517D01*
X129396964Y-105644761D01*
X129139409Y-105797666D01*
X128941996Y-105919234D01*
X128917785Y-105934740D01*
X128724879Y-106055836D01*
X128535164Y-106169327D01*
X128388583Y-106251341D01*
X128384385Y-106253524D01*
X128263643Y-106325741D01*
X128087413Y-106443301D01*
X127880453Y-106589232D01*
X127690512Y-106729193D01*
X127396300Y-106933768D01*
X127037763Y-107155769D01*
X126645614Y-107376695D01*
X126420512Y-107494195D01*
X126122161Y-107642933D01*
X125807001Y-107796047D01*
X125488481Y-107947424D01*
X125180049Y-108090950D01*
X124895157Y-108220510D01*
X124647252Y-108329991D01*
X124449785Y-108413279D01*
X124316204Y-108464261D01*
X124259960Y-108476822D01*
X124259582Y-108476516D01*
X124293489Y-108445027D01*
X124400024Y-108371886D01*
X124564184Y-108266854D01*
X124770967Y-108139692D01*
X124854594Y-108089394D01*
X125073081Y-107956422D01*
X125254199Y-107841726D01*
X125383007Y-107755121D01*
X125444567Y-107706421D01*
X125447328Y-107699995D01*
X125423852Y-107695998D01*
X125372677Y-107712293D01*
X125285076Y-107753694D01*
X125152319Y-107825019D01*
X124965676Y-107931082D01*
X124716420Y-108076699D01*
X124395822Y-108266687D01*
X124096578Y-108445212D01*
X123777221Y-108634842D01*
X123455677Y-108823547D01*
X123152880Y-108999201D01*
X122889764Y-109149680D01*
X122687264Y-109262860D01*
X122647400Y-109284534D01*
X122402146Y-109424743D01*
X122119461Y-109598645D01*
X121843112Y-109778869D01*
X121707600Y-109872240D01*
X121434285Y-110058327D01*
X121176520Y-110220538D01*
X120946623Y-110352416D01*
X120756913Y-110447505D01*
X120619711Y-110499348D01*
X120547336Y-110501490D01*
X120539200Y-110484584D01*
X120577101Y-110436206D01*
X120678116Y-110344829D01*
X120823215Y-110227242D01*
X120882100Y-110182089D01*
X121086565Y-110022067D01*
X121322336Y-109829343D01*
X121545741Y-109639776D01*
X121593959Y-109597593D01*
X121806341Y-109424917D01*
X122044134Y-109253990D01*
X122264421Y-109115155D01*
X122317859Y-109085775D01*
X122484546Y-108992956D01*
X122609225Y-108913571D01*
X122670102Y-108861795D01*
X122672800Y-108854917D01*
X122632276Y-108786586D01*
X122535223Y-108704034D01*
X122418411Y-108633252D01*
X122318614Y-108600232D01*
X122312136Y-108600000D01*
X122208349Y-108559033D01*
X122152515Y-108450571D01*
X122147090Y-108353879D01*
X122212837Y-108353879D01*
X122233221Y-108396686D01*
X122235659Y-108396800D01*
X122274864Y-108356328D01*
X122335599Y-108256491D01*
X122348662Y-108231700D01*
X122406582Y-108133524D01*
X122977600Y-108133524D01*
X123000695Y-108271476D01*
X123058617Y-108408468D01*
X123134320Y-108517269D01*
X123210759Y-108570646D01*
X123248184Y-108565798D01*
X123319314Y-108518594D01*
X123443019Y-108432254D01*
X123561800Y-108347512D01*
X124202923Y-107913525D01*
X124901748Y-107489874D01*
X125615538Y-107102213D01*
X125745447Y-107036673D01*
X126033739Y-106892096D01*
X126240989Y-106784820D01*
X126377625Y-106707918D01*
X126454072Y-106654464D01*
X126480758Y-106617530D01*
X126468109Y-106590190D01*
X126442482Y-106573609D01*
X126383725Y-106531197D01*
X126349902Y-106465594D01*
X126334352Y-106351335D01*
X126330612Y-106172474D01*
X126416980Y-106172474D01*
X126424548Y-106359263D01*
X126451855Y-106481148D01*
X126475723Y-106512592D01*
X126578735Y-106535099D01*
X126695365Y-106514091D01*
X126761398Y-106467696D01*
X126738127Y-106422987D01*
X126652987Y-106370574D01*
X126563581Y-106313722D01*
X126541716Y-106232417D01*
X126553829Y-106149353D01*
X126580381Y-105979536D01*
X126604817Y-105756417D01*
X126626113Y-105500461D01*
X126643243Y-105232135D01*
X126655183Y-104971902D01*
X126660910Y-104740231D01*
X126659397Y-104557585D01*
X126649621Y-104444431D01*
X126640438Y-104419318D01*
X126610320Y-104418708D01*
X126592174Y-104496689D01*
X126584294Y-104662951D01*
X126583649Y-104741740D01*
X126571723Y-104989763D01*
X126541466Y-105254060D01*
X126506328Y-105445030D01*
X126458507Y-105693122D01*
X126428512Y-105943015D01*
X126416980Y-106172474D01*
X126330612Y-106172474D01*
X126330413Y-106162953D01*
X126330400Y-106145085D01*
X126341971Y-105906018D01*
X126372041Y-105657008D01*
X126406600Y-105483994D01*
X126439258Y-105319291D01*
X126463502Y-105122133D01*
X126478400Y-104916900D01*
X126483019Y-104727971D01*
X126476428Y-104579729D01*
X126457696Y-104496554D01*
X126444700Y-104486858D01*
X126379449Y-104503462D01*
X126250124Y-104544689D01*
X126127200Y-104586800D01*
X125931072Y-104643457D01*
X125736318Y-104680437D01*
X125644600Y-104688120D01*
X125545540Y-104692621D01*
X125475601Y-104714649D01*
X125417070Y-104772350D01*
X125352237Y-104883872D01*
X125263391Y-105067362D01*
X125252967Y-105089389D01*
X125131682Y-105315049D01*
X124989778Y-105533664D01*
X124854698Y-105703295D01*
X124843756Y-105714785D01*
X124698787Y-105873764D01*
X124530848Y-106072297D01*
X124376265Y-106267440D01*
X124376088Y-106267674D01*
X124244681Y-106434524D01*
X124068268Y-106649511D01*
X123869715Y-106885165D01*
X123671883Y-107114017D01*
X123667699Y-107118782D01*
X123431782Y-107389493D01*
X123255961Y-107597965D01*
X123131650Y-107756825D01*
X123050259Y-107878700D01*
X123003201Y-107976219D01*
X122981889Y-108062009D01*
X122977600Y-108133524D01*
X122406582Y-108133524D01*
X122412476Y-108123533D01*
X122520082Y-107957477D01*
X122655449Y-107757761D01*
X122777252Y-107584000D01*
X122961540Y-107311454D01*
X123088981Y-107086800D01*
X123173056Y-106884604D01*
X123204706Y-106777609D01*
X123243870Y-106599931D01*
X123263531Y-106455425D01*
X123260380Y-106380691D01*
X123265516Y-106266845D01*
X123339541Y-106115080D01*
X123469913Y-105948229D01*
X123533058Y-105884251D01*
X123653660Y-105728709D01*
X123749147Y-105533490D01*
X123763971Y-105488814D01*
X123830342Y-105308596D01*
X123911616Y-105143829D01*
X123942637Y-105095027D01*
X124096215Y-104805510D01*
X124199501Y-104449473D01*
X124245741Y-104052198D01*
X124247600Y-103953792D01*
X124251627Y-103735429D01*
X124269031Y-103583407D01*
X124307795Y-103462614D01*
X124375901Y-103337935D01*
X124394267Y-103308620D01*
X124486053Y-103152469D01*
X124546870Y-103031598D01*
X125720800Y-103031598D01*
X125736519Y-103076092D01*
X125798459Y-103094528D01*
X125928789Y-103090826D01*
X126012900Y-103083254D01*
X126312400Y-103083437D01*
X126527286Y-103134833D01*
X126719179Y-103184120D01*
X126937246Y-103212490D01*
X127012277Y-103215200D01*
X127179213Y-103223407D01*
X127293524Y-103261777D01*
X127403362Y-103350933D01*
X127457084Y-103405700D01*
X127611583Y-103578759D01*
X127699935Y-103720876D01*
X127733400Y-103866912D01*
X127723241Y-104051728D01*
X127704827Y-104172532D01*
X127657895Y-104417557D01*
X127601805Y-104615511D01*
X127522212Y-104803527D01*
X127404773Y-105018734D01*
X127328921Y-105145600D01*
X127173638Y-105450550D01*
X127102448Y-105713900D01*
X127116218Y-105931005D01*
X127163276Y-106033604D01*
X127246470Y-106125422D01*
X127322653Y-106161600D01*
X127398035Y-106138508D01*
X127538270Y-106076502D01*
X127719664Y-105986482D01*
X127829215Y-105928535D01*
X128067700Y-105791645D01*
X128342511Y-105621800D01*
X128608778Y-105447115D01*
X128716742Y-105372378D01*
X128949652Y-105214568D01*
X129233837Y-105032527D01*
X129531136Y-104850233D01*
X129771109Y-104709891D01*
X130015092Y-104571382D01*
X130248371Y-104438929D01*
X130445848Y-104326785D01*
X130582425Y-104249200D01*
X130591230Y-104244197D01*
X130771760Y-104128498D01*
X130951535Y-103993625D01*
X130997630Y-103954470D01*
X131117284Y-103858998D01*
X131296425Y-103728974D01*
X131508221Y-103583440D01*
X131673022Y-103475139D01*
X131925510Y-103311297D01*
X132097818Y-103192472D01*
X132195731Y-103109530D01*
X132225033Y-103053334D01*
X132191510Y-103014750D01*
X132100946Y-102984642D01*
X131998021Y-102961910D01*
X131754428Y-102883192D01*
X131507665Y-102757611D01*
X131450475Y-102720459D01*
X131273435Y-102618383D01*
X131041338Y-102511018D01*
X130797621Y-102417995D01*
X130739734Y-102399208D01*
X130407105Y-102281948D01*
X130123090Y-102154384D01*
X129905623Y-102025546D01*
X129782952Y-101917573D01*
X129703266Y-101845236D01*
X129569506Y-101745315D01*
X129450552Y-101665403D01*
X129270690Y-101539145D01*
X129095974Y-101398699D01*
X129012840Y-101322253D01*
X128837579Y-101146992D01*
X128561889Y-101471998D01*
X128323991Y-101715134D01*
X128065075Y-101897159D01*
X127756161Y-102035360D01*
X127474578Y-102120558D01*
X127127216Y-102165824D01*
X126802169Y-102112952D01*
X126555911Y-102000908D01*
X126367380Y-101889672D01*
X126247290Y-102002491D01*
X126158692Y-102128296D01*
X126127200Y-102250000D01*
X126088160Y-102386735D01*
X126003062Y-102501311D01*
X125888103Y-102639442D01*
X125789642Y-102808622D01*
X125729584Y-102967699D01*
X125720800Y-103031598D01*
X124546870Y-103031598D01*
X124556949Y-103011567D01*
X124578914Y-102955774D01*
X124627625Y-102849179D01*
X124669003Y-102800760D01*
X124688876Y-102738986D01*
X124693720Y-102586538D01*
X124683503Y-102340027D01*
X124661716Y-102038760D01*
X124638971Y-101743327D01*
X124627106Y-101522974D01*
X124627112Y-101351663D01*
X124639981Y-101203357D01*
X124666705Y-101052019D01*
X124705794Y-100881876D01*
X124757444Y-100681310D01*
X124805661Y-100517016D01*
X124842433Y-100415532D01*
X124851486Y-100399276D01*
X124890459Y-100313342D01*
X124923639Y-100186609D01*
X124990652Y-99970521D01*
X125113521Y-99704531D01*
X125122572Y-99688564D01*
X125686773Y-99688564D01*
X125692429Y-99790698D01*
X125787384Y-99845646D01*
X125827763Y-99852366D01*
X125910314Y-99845495D01*
X125998697Y-99795333D01*
X126108671Y-99691228D01*
X126249567Y-99691228D01*
X126288636Y-99696172D01*
X126392633Y-99627749D01*
X126480881Y-99555535D01*
X126641901Y-99449526D01*
X126791540Y-99405447D01*
X126801379Y-99405200D01*
X126896663Y-99390535D01*
X126914600Y-99354400D01*
X126829156Y-99301462D01*
X126697705Y-99309035D01*
X126546698Y-99366410D01*
X126402585Y-99462879D01*
X126291818Y-99587732D01*
X126277491Y-99612339D01*
X126249567Y-99691228D01*
X126108671Y-99691228D01*
X126112537Y-99687568D01*
X126223352Y-99563887D01*
X126432959Y-99354746D01*
X126622905Y-99241701D01*
X126804014Y-99223929D01*
X126987107Y-99300607D01*
X127183008Y-99470911D01*
X127200492Y-99489564D01*
X127367233Y-99702637D01*
X127441506Y-99891312D01*
X127424260Y-100071137D01*
X127316444Y-100257660D01*
X127252010Y-100333435D01*
X127130773Y-100475135D01*
X127031813Y-100606265D01*
X126993836Y-100666959D01*
X126920646Y-100753286D01*
X126816098Y-100756694D01*
X126811939Y-100755673D01*
X126698276Y-100750870D01*
X126660920Y-100807969D01*
X126701243Y-100920259D01*
X126760430Y-101007595D01*
X126850731Y-101112630D01*
X126939311Y-101164805D01*
X127067461Y-101182418D01*
X127158485Y-101183977D01*
X127324975Y-101193516D01*
X127456260Y-101216976D01*
X127498800Y-101234000D01*
X127555924Y-101269370D01*
X127601365Y-101274895D01*
X127666926Y-101242330D01*
X127784411Y-101163427D01*
X127792687Y-101157800D01*
X127918278Y-101080215D01*
X128013103Y-101035286D01*
X128034027Y-101030800D01*
X128099231Y-100996976D01*
X128201692Y-100911369D01*
X128254058Y-100859955D01*
X128419646Y-100689111D01*
X127881850Y-99990870D01*
X127573710Y-99568590D01*
X127310477Y-99162605D01*
X127101162Y-98788234D01*
X126954774Y-98460794D01*
X126917289Y-98351100D01*
X126876543Y-98262571D01*
X126845286Y-98236800D01*
X126777586Y-98275308D01*
X126674015Y-98375178D01*
X126554598Y-98512929D01*
X126439357Y-98665081D01*
X126348318Y-98808151D01*
X126332487Y-98838140D01*
X126239965Y-98986218D01*
X126102079Y-99165138D01*
X125948185Y-99336899D01*
X125943630Y-99341542D01*
X125770484Y-99538945D01*
X125686773Y-99688564D01*
X125122572Y-99688564D01*
X125278768Y-99413004D01*
X125472914Y-99120302D01*
X125622952Y-98922600D01*
X125789204Y-98708737D01*
X125942146Y-98497513D01*
X126071266Y-98305133D01*
X126166052Y-98147804D01*
X126215991Y-98041730D01*
X126217773Y-98005639D01*
X126181487Y-98036307D01*
X126095363Y-98134189D01*
X125970910Y-98285508D01*
X125819636Y-98476490D01*
X125757758Y-98556279D01*
X125577933Y-98782138D01*
X125398194Y-98995155D01*
X125237471Y-99173688D01*
X125114696Y-99296096D01*
X125097798Y-99310741D01*
X124952852Y-99458969D01*
X124805695Y-99651985D01*
X124715134Y-99799900D01*
X124628894Y-99974795D01*
X124579617Y-100122772D01*
X124557339Y-100286891D01*
X124552100Y-100504510D01*
X124543440Y-100741864D01*
X124520608Y-101029172D01*
X124487890Y-101316476D01*
X124474286Y-101411800D01*
X124423082Y-101923853D01*
X124430528Y-102437664D01*
X124464285Y-102955529D01*
X124305621Y-103114193D01*
X124167414Y-103258603D01*
X124077428Y-103379511D01*
X124025372Y-103505681D01*
X124000953Y-103665876D01*
X123993881Y-103888859D01*
X123993600Y-103986247D01*
X123990806Y-104224640D01*
X123979201Y-104388431D01*
X123953943Y-104504539D01*
X123910192Y-104599885D01*
X123872663Y-104658898D01*
X123802236Y-104793526D01*
X123724556Y-104989740D01*
X123654175Y-105209894D01*
X123641049Y-105258054D01*
X123493464Y-105679161D01*
X123329551Y-105969518D01*
X123209104Y-106175718D01*
X123077644Y-106456106D01*
X122946532Y-106785766D01*
X122906763Y-106896850D01*
X122766591Y-107269087D01*
X122634272Y-107555524D01*
X122502869Y-107770878D01*
X122481153Y-107800131D01*
X122380639Y-107949661D01*
X122296068Y-108107224D01*
X122236959Y-108249677D01*
X122212837Y-108353879D01*
X122147090Y-108353879D01*
X122143857Y-108296268D01*
X122181596Y-108117782D01*
X122264957Y-107936766D01*
X122339691Y-107832191D01*
X122507756Y-107590886D01*
X122661025Y-107279933D01*
X122806038Y-106885421D01*
X122848468Y-106750150D01*
X122994073Y-106360605D01*
X123173879Y-106024193D01*
X123202768Y-105980660D01*
X123370832Y-105687270D01*
X123516824Y-105340587D01*
X123558950Y-105214309D01*
X123632536Y-104993643D01*
X123708852Y-104792144D01*
X123775097Y-104642765D01*
X123795162Y-104606203D01*
X123847232Y-104494157D01*
X123877523Y-104350459D01*
X123890550Y-104147438D01*
X123892000Y-104012610D01*
X123899864Y-103727640D01*
X123929028Y-103517669D01*
X123987853Y-103356923D01*
X124084697Y-103219631D01*
X124180621Y-103122720D01*
X124362669Y-102954040D01*
X124337054Y-102464332D01*
X124333415Y-102108450D01*
X124353748Y-101728450D01*
X124380132Y-101490012D01*
X124412634Y-101210816D01*
X124437249Y-100904842D01*
X124449638Y-100628758D01*
X124450308Y-100573600D01*
X124467869Y-100268748D01*
X124525580Y-100006554D01*
X124634432Y-99763039D01*
X124805413Y-99514226D01*
X125049513Y-99236137D01*
X125076118Y-99208148D01*
X125263319Y-99005529D01*
X125452843Y-98789244D01*
X125614657Y-98593972D01*
X125672320Y-98519684D01*
X125818096Y-98334765D01*
X125999412Y-98117679D01*
X126181615Y-97909716D01*
X126216100Y-97871773D01*
X126355494Y-97713058D01*
X126463582Y-97577525D01*
X126524787Y-97485322D01*
X126532944Y-97461889D01*
X126518372Y-97382473D01*
X126481150Y-97239790D01*
X126438154Y-97093800D01*
X126362767Y-96761089D01*
X126317242Y-96369550D01*
X126310435Y-96165391D01*
X126621245Y-96165391D01*
X126623035Y-96409306D01*
X126637492Y-96605676D01*
X126638242Y-96611200D01*
X126684639Y-96895198D01*
X126746834Y-97205253D01*
X126819082Y-97518710D01*
X126895638Y-97812916D01*
X126970756Y-98065214D01*
X127038690Y-98252952D01*
X127072389Y-98323074D01*
X127171432Y-98479547D01*
X127244312Y-98564429D01*
X127283731Y-98572364D01*
X127282391Y-98497996D01*
X127276640Y-98472976D01*
X127256886Y-98365410D01*
X127275087Y-98350957D01*
X127331454Y-98429860D01*
X127426199Y-98602363D01*
X127479456Y-98706700D01*
X127591316Y-98918453D01*
X127710766Y-99127746D01*
X127813008Y-99291224D01*
X127818130Y-99298740D01*
X127896345Y-99424763D01*
X127906488Y-99475378D01*
X127848756Y-99450416D01*
X127740100Y-99364199D01*
X127668558Y-99314058D01*
X127660647Y-99341353D01*
X127716535Y-99446521D01*
X127836389Y-99630002D01*
X127849575Y-99649287D01*
X128166995Y-100043060D01*
X128525224Y-100364206D01*
X128746579Y-100511441D01*
X128941968Y-100633627D01*
X129151909Y-100777135D01*
X129249533Y-100848940D01*
X129583067Y-101074459D01*
X129914071Y-101232452D01*
X130153134Y-101310868D01*
X130353905Y-101346548D01*
X130629650Y-101367263D01*
X130954966Y-101373751D01*
X131304448Y-101366753D01*
X131652691Y-101347007D01*
X131974290Y-101315250D01*
X132243842Y-101272223D01*
X132350200Y-101246980D01*
X132557513Y-101183572D01*
X132751401Y-101114068D01*
X132882463Y-101057037D01*
X133026008Y-100976423D01*
X133194686Y-100872583D01*
X133368393Y-100759196D01*
X133527021Y-100649940D01*
X133650467Y-100558495D01*
X133718624Y-100498539D01*
X133725093Y-100483759D01*
X133671204Y-100490915D01*
X133540589Y-100527155D01*
X133351990Y-100586799D01*
X133124148Y-100664165D01*
X133088339Y-100676739D01*
X132803002Y-100773945D01*
X132600569Y-100835486D01*
X132483409Y-100861095D01*
X132453892Y-100850511D01*
X132514387Y-100803470D01*
X132657524Y-100724701D01*
X132790916Y-100649328D01*
X132887637Y-100582780D01*
X132934666Y-100537005D01*
X132918982Y-100523951D01*
X132853833Y-100544572D01*
X132740137Y-100575751D01*
X132584392Y-100602604D01*
X132553400Y-100606385D01*
X132350200Y-100629159D01*
X132553400Y-100518113D01*
X132717807Y-100418506D01*
X132870884Y-100310648D01*
X132900197Y-100287133D01*
X133006337Y-100208075D01*
X133082201Y-100168316D01*
X133089802Y-100167200D01*
X133152036Y-100142058D01*
X133275911Y-100075373D01*
X133437424Y-99980252D01*
X133479605Y-99954348D01*
X133662650Y-99846472D01*
X133904967Y-99711278D01*
X134174640Y-99566245D01*
X134433000Y-99432274D01*
X134683896Y-99303148D01*
X134865473Y-99201679D01*
X134999744Y-99111010D01*
X135108721Y-99014287D01*
X135214416Y-98894653D01*
X135332601Y-98743425D01*
X135459086Y-98573200D01*
X135558111Y-98431097D01*
X135615725Y-98337586D01*
X135624701Y-98314735D01*
X135593154Y-98323375D01*
X135507774Y-98390857D01*
X135385715Y-98503332D01*
X135360100Y-98528344D01*
X135221608Y-98650919D01*
X135068927Y-98764966D01*
X134922153Y-98858412D01*
X134801386Y-98919186D01*
X134726723Y-98935216D01*
X134712400Y-98917387D01*
X134749251Y-98835262D01*
X134856721Y-98690076D01*
X135030184Y-98487037D01*
X135265011Y-98231353D01*
X135556576Y-97928232D01*
X135881169Y-97601800D01*
X136121964Y-97360121D01*
X136341333Y-97134645D01*
X136527758Y-96937638D01*
X136669721Y-96781365D01*
X136755704Y-96678093D01*
X136773254Y-96651822D01*
X136808171Y-96542821D01*
X136832133Y-96386143D01*
X136844363Y-96210224D01*
X136844082Y-96043500D01*
X136830513Y-95914407D01*
X136802879Y-95851380D01*
X136795200Y-95849200D01*
X136751801Y-95891162D01*
X136743746Y-95938100D01*
X136721517Y-96031525D01*
X136665129Y-96176058D01*
X136616056Y-96281000D01*
X136545634Y-96418796D01*
X136511710Y-96471343D01*
X136506493Y-96444827D01*
X136520128Y-96357200D01*
X136559083Y-96092626D01*
X136597771Y-95753691D01*
X136633527Y-95367604D01*
X136663684Y-94961576D01*
X136674688Y-94780136D01*
X136684638Y-94438431D01*
X136665818Y-94173801D01*
X136610469Y-93963920D01*
X136510834Y-93786458D01*
X136359153Y-93619088D01*
X136232716Y-93508228D01*
X135940225Y-93253575D01*
X135714348Y-93025992D01*
X135533329Y-92802416D01*
X135445905Y-92674200D01*
X135333321Y-92509998D01*
X135219775Y-92375081D01*
X135090347Y-92260488D01*
X134930118Y-92157256D01*
X134724167Y-92056424D01*
X134457576Y-91949030D01*
X134115423Y-91826114D01*
X133925000Y-91760682D01*
X133667502Y-91668778D01*
X133413496Y-91570945D01*
X133197266Y-91480744D01*
X133084144Y-91428100D01*
X132773474Y-91290916D01*
X132471372Y-91192987D01*
X132203377Y-91141187D01*
X132012740Y-91139650D01*
X131878894Y-91145160D01*
X131820433Y-91124091D01*
X131846448Y-91087854D01*
X131943800Y-91053139D01*
X132047871Y-91010083D01*
X132062517Y-90962670D01*
X131999192Y-90918628D01*
X131869350Y-90885683D01*
X131684443Y-90871564D01*
X131674577Y-90871493D01*
X131438506Y-90915629D01*
X131224204Y-91053211D01*
X131085954Y-91203466D01*
X131007195Y-91291523D01*
X130909294Y-91371751D01*
X130778377Y-91451090D01*
X130600567Y-91536478D01*
X130361989Y-91634854D01*
X130048767Y-91753159D01*
X129821772Y-91835679D01*
X129497586Y-91961731D01*
X129237395Y-92089846D01*
X129021687Y-92236917D01*
X128830947Y-92419837D01*
X128645664Y-92655499D01*
X128446323Y-92960797D01*
X128362659Y-93098865D01*
X128168380Y-93439430D01*
X128011828Y-93754535D01*
X127882335Y-94071980D01*
X127769234Y-94419565D01*
X127661858Y-94825091D01*
X127601410Y-95082748D01*
X127536123Y-95354580D01*
X127466726Y-95617414D01*
X127401621Y-95840844D01*
X127350322Y-95991648D01*
X127271675Y-96276134D01*
X127242008Y-96618440D01*
X127241579Y-96651180D01*
X127234166Y-96843767D01*
X127217317Y-96936998D01*
X127193137Y-96932459D01*
X127163729Y-96831739D01*
X127131196Y-96636423D01*
X127121239Y-96560400D01*
X127091672Y-96361409D01*
X127049058Y-96119242D01*
X127007474Y-95909839D01*
X126966070Y-95644092D01*
X126947061Y-95367716D01*
X126949362Y-95211480D01*
X126955080Y-95023908D01*
X126941967Y-94935791D01*
X126919270Y-94935209D01*
X126900390Y-95001378D01*
X126881840Y-95150341D01*
X126865235Y-95363300D01*
X126852193Y-95621459D01*
X126847194Y-95773268D01*
X126837628Y-96043053D01*
X126825053Y-96272989D01*
X126810770Y-96445801D01*
X126796079Y-96544214D01*
X126787967Y-96560400D01*
X126768361Y-96513235D01*
X126745464Y-96385858D01*
X126722538Y-96199448D01*
X126707773Y-96039700D01*
X126665658Y-95519000D01*
X126632549Y-95925400D01*
X126621245Y-96165391D01*
X126310435Y-96165391D01*
X126303521Y-95958045D01*
X126323546Y-95565435D01*
X126351531Y-95360892D01*
X126484081Y-94723653D01*
X126645946Y-94129021D01*
X126832217Y-93590737D01*
X127037989Y-93122541D01*
X127258352Y-92738173D01*
X127319319Y-92651089D01*
X127427361Y-92523833D01*
X127591219Y-92354780D01*
X127788126Y-92166532D01*
X127983374Y-91991952D01*
X128199413Y-91801459D01*
X128353319Y-91652151D01*
X128463074Y-91522732D01*
X128546663Y-91391907D01*
X128622070Y-91238382D01*
X128624685Y-91232552D01*
X128743310Y-90992261D01*
X128868722Y-90803326D01*
X129017395Y-90654558D01*
X129205806Y-90534765D01*
X129450429Y-90432757D01*
X129767740Y-90337345D01*
X130045274Y-90267689D01*
X130636041Y-90110253D01*
X131125784Y-89944435D01*
X131514740Y-89770153D01*
X131613066Y-89715467D01*
X131857390Y-89618427D01*
X132178471Y-89563886D01*
X132560333Y-89552827D01*
X132987004Y-89586233D01*
G37*
%TD.AperFunction*%
%TA.AperFunction,EtchedComponent*%
G36*
X132987004Y-89586233D02*
G01*
X133200155Y-89617859D01*
X133476758Y-89662565D01*
X133780491Y-89707930D01*
X134053274Y-89745342D01*
X134096412Y-89750790D01*
X134414867Y-89806989D01*
X134692121Y-89898423D01*
X134877802Y-89984940D01*
X135202702Y-90143455D01*
X135472840Y-90256654D01*
X135718380Y-90334989D01*
X135969488Y-90388914D01*
X136103111Y-90409510D01*
X136534857Y-90512546D01*
X136901470Y-90693277D01*
X137204978Y-90953160D01*
X137447409Y-91293654D01*
X137514460Y-91424180D01*
X137629956Y-91635447D01*
X137770422Y-91846751D01*
X137884581Y-91988400D01*
X138137582Y-92297737D01*
X138393687Y-92674786D01*
X138633811Y-93088111D01*
X138838868Y-93506278D01*
X138911622Y-93680037D01*
X138998138Y-93904427D01*
X139068695Y-94096972D01*
X139115800Y-94236555D01*
X139132000Y-94300937D01*
X139147083Y-94375606D01*
X139187178Y-94519279D01*
X139244552Y-94704781D01*
X139263546Y-94763215D01*
X139336586Y-95022114D01*
X139385157Y-95292745D01*
X139415296Y-95612636D01*
X139423197Y-95755452D01*
X139432850Y-96007319D01*
X139432408Y-96214271D01*
X139418002Y-96400910D01*
X139385766Y-96591836D01*
X139331830Y-96811650D01*
X139252327Y-97084955D01*
X139174608Y-97336591D01*
X139104599Y-97566871D01*
X139063083Y-97730907D01*
X139046613Y-97858903D01*
X139051743Y-97981065D01*
X139075025Y-98127598D01*
X139080802Y-98158492D01*
X139108943Y-98373551D01*
X139115834Y-98581286D01*
X139106538Y-98694361D01*
X139070931Y-98905119D01*
X139241165Y-98817321D01*
X139398640Y-98730777D01*
X139571142Y-98628651D01*
X139603789Y-98608331D01*
X139730922Y-98541779D01*
X139826694Y-98515573D01*
X139849149Y-98519876D01*
X139913600Y-98508320D01*
X139977796Y-98444570D01*
X140065919Y-98357746D01*
X140206036Y-98257036D01*
X140291236Y-98206451D01*
X140910856Y-97870924D01*
X141535754Y-97538959D01*
X142126319Y-97231532D01*
X142307000Y-97139001D01*
X142598884Y-96982415D01*
X142862669Y-96826202D01*
X143075818Y-96684355D01*
X143203949Y-96582200D01*
X143449956Y-96382600D01*
X143602400Y-96382600D01*
X143627800Y-96408000D01*
X143653200Y-96382600D01*
X143627800Y-96357200D01*
X143602400Y-96382600D01*
X143449956Y-96382600D01*
X143547308Y-96303613D01*
X143934621Y-96057218D01*
X144320440Y-95871919D01*
X144321181Y-95871628D01*
X144515847Y-95787697D01*
X144749569Y-95676008D01*
X144973592Y-95559914D01*
X144985347Y-95553491D01*
X145263917Y-95407251D01*
X145516698Y-95286519D01*
X145735651Y-95193167D01*
X145912734Y-95129066D01*
X146039905Y-95096088D01*
X146109124Y-95096104D01*
X146112350Y-95130986D01*
X146041540Y-95202606D01*
X145888655Y-95312834D01*
X145815077Y-95360370D01*
X145638326Y-95477764D01*
X145496307Y-95582734D01*
X145410317Y-95659056D01*
X145395457Y-95680034D01*
X145336046Y-95745024D01*
X145218356Y-95825111D01*
X145158234Y-95857836D01*
X144999819Y-95953916D01*
X144819878Y-96085984D01*
X144716257Y-96173172D01*
X144487980Y-96366952D01*
X144208212Y-96581955D01*
X143866955Y-96825363D01*
X143454211Y-97104357D01*
X143073815Y-97352843D01*
X142837483Y-97509114D01*
X142635518Y-97649741D01*
X142481740Y-97764522D01*
X142389968Y-97843252D01*
X142370129Y-97872431D01*
X142338052Y-97931708D01*
X142243291Y-98001381D01*
X142226854Y-98010240D01*
X142128302Y-98075555D01*
X141976407Y-98193134D01*
X141792230Y-98346053D01*
X141604925Y-98510094D01*
X141076791Y-98950867D01*
X140476718Y-99391750D01*
X139832501Y-99813466D01*
X139175617Y-100194744D01*
X138821000Y-100406114D01*
X138519369Y-100623741D01*
X138358628Y-100765364D01*
X138200084Y-100911111D01*
X138088852Y-100993847D01*
X138031290Y-101011371D01*
X138033758Y-100961486D01*
X138092383Y-100857407D01*
X138145500Y-100758991D01*
X138128296Y-100731886D01*
X138039671Y-100775801D01*
X137967747Y-100824647D01*
X137848556Y-100893339D01*
X137672631Y-100976328D01*
X137490339Y-101050844D01*
X137296142Y-101130643D01*
X137050690Y-101241051D01*
X136792208Y-101364550D01*
X136649498Y-101436239D01*
X136386439Y-101579039D01*
X136189148Y-101707659D01*
X136028250Y-101843565D01*
X135887412Y-101993145D01*
X135698392Y-102196048D01*
X135523580Y-102342489D01*
X135332183Y-102450935D01*
X135093407Y-102539853D01*
X134869562Y-102603553D01*
X134627163Y-102680623D01*
X134346033Y-102795137D01*
X134019113Y-102950839D01*
X133639348Y-103151473D01*
X133199678Y-103400784D01*
X132693047Y-103702516D01*
X132112397Y-104060412D01*
X132049956Y-104099456D01*
X131736779Y-104294503D01*
X131441073Y-104476786D01*
X131177124Y-104637645D01*
X130959218Y-104768421D01*
X130801637Y-104860454D01*
X130729156Y-104900094D01*
X130538483Y-104999721D01*
X130285420Y-105137998D01*
X129994476Y-105300930D01*
X129690155Y-105474517D01*
X129396964Y-105644761D01*
X129139409Y-105797666D01*
X128941996Y-105919234D01*
X128917785Y-105934740D01*
X128724879Y-106055836D01*
X128535164Y-106169327D01*
X128388583Y-106251341D01*
X128384385Y-106253524D01*
X128263643Y-106325741D01*
X128087413Y-106443301D01*
X127880453Y-106589232D01*
X127690512Y-106729193D01*
X127396300Y-106933768D01*
X127037763Y-107155769D01*
X126645614Y-107376695D01*
X126420512Y-107494195D01*
X126122161Y-107642933D01*
X125807001Y-107796047D01*
X125488481Y-107947424D01*
X125180049Y-108090950D01*
X124895157Y-108220510D01*
X124647252Y-108329991D01*
X124449785Y-108413279D01*
X124316204Y-108464261D01*
X124259960Y-108476822D01*
X124259582Y-108476516D01*
X124293489Y-108445027D01*
X124400024Y-108371886D01*
X124564184Y-108266854D01*
X124770967Y-108139692D01*
X124854594Y-108089394D01*
X125073081Y-107956422D01*
X125254199Y-107841726D01*
X125383007Y-107755121D01*
X125444567Y-107706421D01*
X125447328Y-107699995D01*
X125423852Y-107695998D01*
X125372677Y-107712293D01*
X125285076Y-107753694D01*
X125152319Y-107825019D01*
X124965676Y-107931082D01*
X124716420Y-108076699D01*
X124395822Y-108266687D01*
X124096578Y-108445212D01*
X123777221Y-108634842D01*
X123455677Y-108823547D01*
X123152880Y-108999201D01*
X122889764Y-109149680D01*
X122687264Y-109262860D01*
X122647400Y-109284534D01*
X122402146Y-109424743D01*
X122119461Y-109598645D01*
X121843112Y-109778869D01*
X121707600Y-109872240D01*
X121434285Y-110058327D01*
X121176520Y-110220538D01*
X120946623Y-110352416D01*
X120756913Y-110447505D01*
X120619711Y-110499348D01*
X120547336Y-110501490D01*
X120539200Y-110484584D01*
X120577101Y-110436206D01*
X120678116Y-110344829D01*
X120823215Y-110227242D01*
X120882100Y-110182089D01*
X121086565Y-110022067D01*
X121322336Y-109829343D01*
X121545741Y-109639776D01*
X121593959Y-109597593D01*
X121806341Y-109424917D01*
X122044134Y-109253990D01*
X122264421Y-109115155D01*
X122317859Y-109085775D01*
X122484546Y-108992956D01*
X122609225Y-108913571D01*
X122670102Y-108861795D01*
X122672800Y-108854917D01*
X122632276Y-108786586D01*
X122535223Y-108704034D01*
X122418411Y-108633252D01*
X122318614Y-108600232D01*
X122312136Y-108600000D01*
X122208349Y-108559033D01*
X122152515Y-108450571D01*
X122147090Y-108353879D01*
X122212837Y-108353879D01*
X122233221Y-108396686D01*
X122235659Y-108396800D01*
X122274864Y-108356328D01*
X122335599Y-108256491D01*
X122348662Y-108231700D01*
X122406582Y-108133524D01*
X122977600Y-108133524D01*
X123000695Y-108271476D01*
X123058617Y-108408468D01*
X123134320Y-108517269D01*
X123210759Y-108570646D01*
X123248184Y-108565798D01*
X123319314Y-108518594D01*
X123443019Y-108432254D01*
X123561800Y-108347512D01*
X124202923Y-107913525D01*
X124901748Y-107489874D01*
X125615538Y-107102213D01*
X125745447Y-107036673D01*
X126033739Y-106892096D01*
X126240989Y-106784820D01*
X126377625Y-106707918D01*
X126454072Y-106654464D01*
X126480758Y-106617530D01*
X126468109Y-106590190D01*
X126442482Y-106573609D01*
X126383725Y-106531197D01*
X126349902Y-106465594D01*
X126334352Y-106351335D01*
X126330612Y-106172474D01*
X126416980Y-106172474D01*
X126424548Y-106359263D01*
X126451855Y-106481148D01*
X126475723Y-106512592D01*
X126578735Y-106535099D01*
X126695365Y-106514091D01*
X126761398Y-106467696D01*
X126738127Y-106422987D01*
X126652987Y-106370574D01*
X126563581Y-106313722D01*
X126541716Y-106232417D01*
X126553829Y-106149353D01*
X126580381Y-105979536D01*
X126604817Y-105756417D01*
X126626113Y-105500461D01*
X126643243Y-105232135D01*
X126655183Y-104971902D01*
X126660910Y-104740231D01*
X126659397Y-104557585D01*
X126649621Y-104444431D01*
X126640438Y-104419318D01*
X126610320Y-104418708D01*
X126592174Y-104496689D01*
X126584294Y-104662951D01*
X126583649Y-104741740D01*
X126571723Y-104989763D01*
X126541466Y-105254060D01*
X126506328Y-105445030D01*
X126458507Y-105693122D01*
X126428512Y-105943015D01*
X126416980Y-106172474D01*
X126330612Y-106172474D01*
X126330413Y-106162953D01*
X126330400Y-106145085D01*
X126341971Y-105906018D01*
X126372041Y-105657008D01*
X126406600Y-105483994D01*
X126439258Y-105319291D01*
X126463502Y-105122133D01*
X126478400Y-104916900D01*
X126483019Y-104727971D01*
X126476428Y-104579729D01*
X126457696Y-104496554D01*
X126444700Y-104486858D01*
X126379449Y-104503462D01*
X126250124Y-104544689D01*
X126127200Y-104586800D01*
X125931072Y-104643457D01*
X125736318Y-104680437D01*
X125644600Y-104688120D01*
X125545540Y-104692621D01*
X125475601Y-104714649D01*
X125417070Y-104772350D01*
X125352237Y-104883872D01*
X125263391Y-105067362D01*
X125252967Y-105089389D01*
X125131682Y-105315049D01*
X124989778Y-105533664D01*
X124854698Y-105703295D01*
X124843756Y-105714785D01*
X124698787Y-105873764D01*
X124530848Y-106072297D01*
X124376265Y-106267440D01*
X124376088Y-106267674D01*
X124244681Y-106434524D01*
X124068268Y-106649511D01*
X123869715Y-106885165D01*
X123671883Y-107114017D01*
X123667699Y-107118782D01*
X123431782Y-107389493D01*
X123255961Y-107597965D01*
X123131650Y-107756825D01*
X123050259Y-107878700D01*
X123003201Y-107976219D01*
X122981889Y-108062009D01*
X122977600Y-108133524D01*
X122406582Y-108133524D01*
X122412476Y-108123533D01*
X122520082Y-107957477D01*
X122655449Y-107757761D01*
X122777252Y-107584000D01*
X122961540Y-107311454D01*
X123088981Y-107086800D01*
X123173056Y-106884604D01*
X123204706Y-106777609D01*
X123243870Y-106599931D01*
X123263531Y-106455425D01*
X123260380Y-106380691D01*
X123265516Y-106266845D01*
X123339541Y-106115080D01*
X123469913Y-105948229D01*
X123533058Y-105884251D01*
X123653660Y-105728709D01*
X123749147Y-105533490D01*
X123763971Y-105488814D01*
X123830342Y-105308596D01*
X123911616Y-105143829D01*
X123942637Y-105095027D01*
X124096215Y-104805510D01*
X124199501Y-104449473D01*
X124245741Y-104052198D01*
X124247600Y-103953792D01*
X124251627Y-103735429D01*
X124269031Y-103583407D01*
X124307795Y-103462614D01*
X124375901Y-103337935D01*
X124394267Y-103308620D01*
X124486053Y-103152469D01*
X124546870Y-103031598D01*
X125720800Y-103031598D01*
X125736519Y-103076092D01*
X125798459Y-103094528D01*
X125928789Y-103090826D01*
X126012900Y-103083254D01*
X126312400Y-103083437D01*
X126527286Y-103134833D01*
X126719179Y-103184120D01*
X126937246Y-103212490D01*
X127012277Y-103215200D01*
X127179213Y-103223407D01*
X127293524Y-103261777D01*
X127403362Y-103350933D01*
X127457084Y-103405700D01*
X127611583Y-103578759D01*
X127699935Y-103720876D01*
X127733400Y-103866912D01*
X127723241Y-104051728D01*
X127704827Y-104172532D01*
X127657895Y-104417557D01*
X127601805Y-104615511D01*
X127522212Y-104803527D01*
X127404773Y-105018734D01*
X127328921Y-105145600D01*
X127173638Y-105450550D01*
X127102448Y-105713900D01*
X127116218Y-105931005D01*
X127163276Y-106033604D01*
X127246470Y-106125422D01*
X127322653Y-106161600D01*
X127398035Y-106138508D01*
X127538270Y-106076502D01*
X127719664Y-105986482D01*
X127829215Y-105928535D01*
X128067700Y-105791645D01*
X128342511Y-105621800D01*
X128608778Y-105447115D01*
X128716742Y-105372378D01*
X128949652Y-105214568D01*
X129233837Y-105032527D01*
X129531136Y-104850233D01*
X129771109Y-104709891D01*
X130015092Y-104571382D01*
X130248371Y-104438929D01*
X130445848Y-104326785D01*
X130582425Y-104249200D01*
X130591230Y-104244197D01*
X130771760Y-104128498D01*
X130951535Y-103993625D01*
X130997630Y-103954470D01*
X131117284Y-103858998D01*
X131296425Y-103728974D01*
X131508221Y-103583440D01*
X131673022Y-103475139D01*
X131925510Y-103311297D01*
X132097818Y-103192472D01*
X132195731Y-103109530D01*
X132225033Y-103053334D01*
X132191510Y-103014750D01*
X132100946Y-102984642D01*
X131998021Y-102961910D01*
X131754428Y-102883192D01*
X131507665Y-102757611D01*
X131450475Y-102720459D01*
X131273435Y-102618383D01*
X131041338Y-102511018D01*
X130797621Y-102417995D01*
X130739734Y-102399208D01*
X130407105Y-102281948D01*
X130123090Y-102154384D01*
X129905623Y-102025546D01*
X129782952Y-101917573D01*
X129703266Y-101845236D01*
X129569506Y-101745315D01*
X129450552Y-101665403D01*
X129270690Y-101539145D01*
X129095974Y-101398699D01*
X129012840Y-101322253D01*
X128837579Y-101146992D01*
X128561889Y-101471998D01*
X128323991Y-101715134D01*
X128065075Y-101897159D01*
X127756161Y-102035360D01*
X127474578Y-102120558D01*
X127127216Y-102165824D01*
X126802169Y-102112952D01*
X126555911Y-102000908D01*
X126367380Y-101889672D01*
X126247290Y-102002491D01*
X126158692Y-102128296D01*
X126127200Y-102250000D01*
X126088160Y-102386735D01*
X126003062Y-102501311D01*
X125888103Y-102639442D01*
X125789642Y-102808622D01*
X125729584Y-102967699D01*
X125720800Y-103031598D01*
X124546870Y-103031598D01*
X124556949Y-103011567D01*
X124578914Y-102955774D01*
X124627625Y-102849179D01*
X124669003Y-102800760D01*
X124688876Y-102738986D01*
X124693720Y-102586538D01*
X124683503Y-102340027D01*
X124661716Y-102038760D01*
X124638971Y-101743327D01*
X124627106Y-101522974D01*
X124627112Y-101351663D01*
X124639981Y-101203357D01*
X124666705Y-101052019D01*
X124705794Y-100881876D01*
X124757444Y-100681310D01*
X124805661Y-100517016D01*
X124842433Y-100415532D01*
X124851486Y-100399276D01*
X124890459Y-100313342D01*
X124923639Y-100186609D01*
X124990652Y-99970521D01*
X125113521Y-99704531D01*
X125122572Y-99688564D01*
X125686773Y-99688564D01*
X125692429Y-99790698D01*
X125787384Y-99845646D01*
X125827763Y-99852366D01*
X125910314Y-99845495D01*
X125998697Y-99795333D01*
X126108671Y-99691228D01*
X126249567Y-99691228D01*
X126288636Y-99696172D01*
X126392633Y-99627749D01*
X126480881Y-99555535D01*
X126641901Y-99449526D01*
X126791540Y-99405447D01*
X126801379Y-99405200D01*
X126896663Y-99390535D01*
X126914600Y-99354400D01*
X126829156Y-99301462D01*
X126697705Y-99309035D01*
X126546698Y-99366410D01*
X126402585Y-99462879D01*
X126291818Y-99587732D01*
X126277491Y-99612339D01*
X126249567Y-99691228D01*
X126108671Y-99691228D01*
X126112537Y-99687568D01*
X126223352Y-99563887D01*
X126432959Y-99354746D01*
X126622905Y-99241701D01*
X126804014Y-99223929D01*
X126987107Y-99300607D01*
X127183008Y-99470911D01*
X127200492Y-99489564D01*
X127367233Y-99702637D01*
X127441506Y-99891312D01*
X127424260Y-100071137D01*
X127316444Y-100257660D01*
X127252010Y-100333435D01*
X127130773Y-100475135D01*
X127031813Y-100606265D01*
X126993836Y-100666959D01*
X126920646Y-100753286D01*
X126816098Y-100756694D01*
X126811939Y-100755673D01*
X126698276Y-100750870D01*
X126660920Y-100807969D01*
X126701243Y-100920259D01*
X126760430Y-101007595D01*
X126850731Y-101112630D01*
X126939311Y-101164805D01*
X127067461Y-101182418D01*
X127158485Y-101183977D01*
X127324975Y-101193516D01*
X127456260Y-101216976D01*
X127498800Y-101234000D01*
X127555924Y-101269370D01*
X127601365Y-101274895D01*
X127666926Y-101242330D01*
X127784411Y-101163427D01*
X127792687Y-101157800D01*
X127918278Y-101080215D01*
X128013103Y-101035286D01*
X128034027Y-101030800D01*
X128099231Y-100996976D01*
X128201692Y-100911369D01*
X128254058Y-100859955D01*
X128419646Y-100689111D01*
X127881850Y-99990870D01*
X127573710Y-99568590D01*
X127310477Y-99162605D01*
X127101162Y-98788234D01*
X126954774Y-98460794D01*
X126917289Y-98351100D01*
X126876543Y-98262571D01*
X126845286Y-98236800D01*
X126777586Y-98275308D01*
X126674015Y-98375178D01*
X126554598Y-98512929D01*
X126439357Y-98665081D01*
X126348318Y-98808151D01*
X126332487Y-98838140D01*
X126239965Y-98986218D01*
X126102079Y-99165138D01*
X125948185Y-99336899D01*
X125943630Y-99341542D01*
X125770484Y-99538945D01*
X125686773Y-99688564D01*
X125122572Y-99688564D01*
X125278768Y-99413004D01*
X125472914Y-99120302D01*
X125622952Y-98922600D01*
X125789204Y-98708737D01*
X125942146Y-98497513D01*
X126071266Y-98305133D01*
X126166052Y-98147804D01*
X126215991Y-98041730D01*
X126217773Y-98005639D01*
X126181487Y-98036307D01*
X126095363Y-98134189D01*
X125970910Y-98285508D01*
X125819636Y-98476490D01*
X125757758Y-98556279D01*
X125577933Y-98782138D01*
X125398194Y-98995155D01*
X125237471Y-99173688D01*
X125114696Y-99296096D01*
X125097798Y-99310741D01*
X124952852Y-99458969D01*
X124805695Y-99651985D01*
X124715134Y-99799900D01*
X124628894Y-99974795D01*
X124579617Y-100122772D01*
X124557339Y-100286891D01*
X124552100Y-100504510D01*
X124543440Y-100741864D01*
X124520608Y-101029172D01*
X124487890Y-101316476D01*
X124474286Y-101411800D01*
X124423082Y-101923853D01*
X124430528Y-102437664D01*
X124464285Y-102955529D01*
X124305621Y-103114193D01*
X124167414Y-103258603D01*
X124077428Y-103379511D01*
X124025372Y-103505681D01*
X124000953Y-103665876D01*
X123993881Y-103888859D01*
X123993600Y-103986247D01*
X123990806Y-104224640D01*
X123979201Y-104388431D01*
X123953943Y-104504539D01*
X123910192Y-104599885D01*
X123872663Y-104658898D01*
X123802236Y-104793526D01*
X123724556Y-104989740D01*
X123654175Y-105209894D01*
X123641049Y-105258054D01*
X123493464Y-105679161D01*
X123329551Y-105969518D01*
X123209104Y-106175718D01*
X123077644Y-106456106D01*
X122946532Y-106785766D01*
X122906763Y-106896850D01*
X122766591Y-107269087D01*
X122634272Y-107555524D01*
X122502869Y-107770878D01*
X122481153Y-107800131D01*
X122380639Y-107949661D01*
X122296068Y-108107224D01*
X122236959Y-108249677D01*
X122212837Y-108353879D01*
X122147090Y-108353879D01*
X122143857Y-108296268D01*
X122181596Y-108117782D01*
X122264957Y-107936766D01*
X122339691Y-107832191D01*
X122507756Y-107590886D01*
X122661025Y-107279933D01*
X122806038Y-106885421D01*
X122848468Y-106750150D01*
X122994073Y-106360605D01*
X123173879Y-106024193D01*
X123202768Y-105980660D01*
X123370832Y-105687270D01*
X123516824Y-105340587D01*
X123558950Y-105214309D01*
X123632536Y-104993643D01*
X123708852Y-104792144D01*
X123775097Y-104642765D01*
X123795162Y-104606203D01*
X123847232Y-104494157D01*
X123877523Y-104350459D01*
X123890550Y-104147438D01*
X123892000Y-104012610D01*
X123899864Y-103727640D01*
X123929028Y-103517669D01*
X123987853Y-103356923D01*
X124084697Y-103219631D01*
X124180621Y-103122720D01*
X124362669Y-102954040D01*
X124337054Y-102464332D01*
X124333415Y-102108450D01*
X124353748Y-101728450D01*
X124380132Y-101490012D01*
X124412634Y-101210816D01*
X124437249Y-100904842D01*
X124449638Y-100628758D01*
X124450308Y-100573600D01*
X124467869Y-100268748D01*
X124525580Y-100006554D01*
X124634432Y-99763039D01*
X124805413Y-99514226D01*
X125049513Y-99236137D01*
X125076118Y-99208148D01*
X125263319Y-99005529D01*
X125452843Y-98789244D01*
X125614657Y-98593972D01*
X125672320Y-98519684D01*
X125818096Y-98334765D01*
X125999412Y-98117679D01*
X126181615Y-97909716D01*
X126216100Y-97871773D01*
X126355494Y-97713058D01*
X126463582Y-97577525D01*
X126524787Y-97485322D01*
X126532944Y-97461889D01*
X126518372Y-97382473D01*
X126481150Y-97239790D01*
X126438154Y-97093800D01*
X126362767Y-96761089D01*
X126317242Y-96369550D01*
X126310435Y-96165391D01*
X126621245Y-96165391D01*
X126623035Y-96409306D01*
X126637492Y-96605676D01*
X126638242Y-96611200D01*
X126684639Y-96895198D01*
X126746834Y-97205253D01*
X126819082Y-97518710D01*
X126895638Y-97812916D01*
X126970756Y-98065214D01*
X127038690Y-98252952D01*
X127072389Y-98323074D01*
X127171432Y-98479547D01*
X127244312Y-98564429D01*
X127283731Y-98572364D01*
X127282391Y-98497996D01*
X127276640Y-98472976D01*
X127256886Y-98365410D01*
X127275087Y-98350957D01*
X127331454Y-98429860D01*
X127426199Y-98602363D01*
X127479456Y-98706700D01*
X127591316Y-98918453D01*
X127710766Y-99127746D01*
X127813008Y-99291224D01*
X127818130Y-99298740D01*
X127896345Y-99424763D01*
X127906488Y-99475378D01*
X127848756Y-99450416D01*
X127740100Y-99364199D01*
X127668558Y-99314058D01*
X127660647Y-99341353D01*
X127716535Y-99446521D01*
X127836389Y-99630002D01*
X127849575Y-99649287D01*
X128166995Y-100043060D01*
X128525224Y-100364206D01*
X128746579Y-100511441D01*
X128941968Y-100633627D01*
X129151909Y-100777135D01*
X129249533Y-100848940D01*
X129583067Y-101074459D01*
X129914071Y-101232452D01*
X130153134Y-101310868D01*
X130353905Y-101346548D01*
X130629650Y-101367263D01*
X130954966Y-101373751D01*
X131304448Y-101366753D01*
X131652691Y-101347007D01*
X131974290Y-101315250D01*
X132243842Y-101272223D01*
X132350200Y-101246980D01*
X132557513Y-101183572D01*
X132751401Y-101114068D01*
X132882463Y-101057037D01*
X133026008Y-100976423D01*
X133194686Y-100872583D01*
X133368393Y-100759196D01*
X133527021Y-100649940D01*
X133650467Y-100558495D01*
X133718624Y-100498539D01*
X133725093Y-100483759D01*
X133671204Y-100490915D01*
X133540589Y-100527155D01*
X133351990Y-100586799D01*
X133124148Y-100664165D01*
X133088339Y-100676739D01*
X132803002Y-100773945D01*
X132600569Y-100835486D01*
X132483409Y-100861095D01*
X132453892Y-100850511D01*
X132514387Y-100803470D01*
X132657524Y-100724701D01*
X132790916Y-100649328D01*
X132887637Y-100582780D01*
X132934666Y-100537005D01*
X132918982Y-100523951D01*
X132853833Y-100544572D01*
X132740137Y-100575751D01*
X132584392Y-100602604D01*
X132553400Y-100606385D01*
X132350200Y-100629159D01*
X132553400Y-100518113D01*
X132717807Y-100418506D01*
X132870884Y-100310648D01*
X132900197Y-100287133D01*
X133006337Y-100208075D01*
X133082201Y-100168316D01*
X133089802Y-100167200D01*
X133152036Y-100142058D01*
X133275911Y-100075373D01*
X133437424Y-99980252D01*
X133479605Y-99954348D01*
X133662650Y-99846472D01*
X133904967Y-99711278D01*
X134174640Y-99566245D01*
X134433000Y-99432274D01*
X134683896Y-99303148D01*
X134865473Y-99201679D01*
X134999744Y-99111010D01*
X135108721Y-99014287D01*
X135214416Y-98894653D01*
X135332601Y-98743425D01*
X135459086Y-98573200D01*
X135558111Y-98431097D01*
X135615725Y-98337586D01*
X135624701Y-98314735D01*
X135593154Y-98323375D01*
X135507774Y-98390857D01*
X135385715Y-98503332D01*
X135360100Y-98528344D01*
X135221608Y-98650919D01*
X135068927Y-98764966D01*
X134922153Y-98858412D01*
X134801386Y-98919186D01*
X134726723Y-98935216D01*
X134712400Y-98917387D01*
X134749251Y-98835262D01*
X134856721Y-98690076D01*
X135030184Y-98487037D01*
X135265011Y-98231353D01*
X135556576Y-97928232D01*
X135881169Y-97601800D01*
X136121964Y-97360121D01*
X136341333Y-97134645D01*
X136527758Y-96937638D01*
X136669721Y-96781365D01*
X136755704Y-96678093D01*
X136773254Y-96651822D01*
X136808171Y-96542821D01*
X136832133Y-96386143D01*
X136844363Y-96210224D01*
X136844082Y-96043500D01*
X136830513Y-95914407D01*
X136802879Y-95851380D01*
X136795200Y-95849200D01*
X136751801Y-95891162D01*
X136743746Y-95938100D01*
X136721517Y-96031525D01*
X136665129Y-96176058D01*
X136616056Y-96281000D01*
X136545634Y-96418796D01*
X136511710Y-96471343D01*
X136506493Y-96444827D01*
X136520128Y-96357200D01*
X136559083Y-96092626D01*
X136597771Y-95753691D01*
X136633527Y-95367604D01*
X136663684Y-94961576D01*
X136674688Y-94780136D01*
X136684638Y-94438431D01*
X136665818Y-94173801D01*
X136610469Y-93963920D01*
X136510834Y-93786458D01*
X136359153Y-93619088D01*
X136232716Y-93508228D01*
X135940225Y-93253575D01*
X135714348Y-93025992D01*
X135533329Y-92802416D01*
X135445905Y-92674200D01*
X135333321Y-92509998D01*
X135219775Y-92375081D01*
X135090347Y-92260488D01*
X134930118Y-92157256D01*
X134724167Y-92056424D01*
X134457576Y-91949030D01*
X134115423Y-91826114D01*
X133925000Y-91760682D01*
X133667502Y-91668778D01*
X133413496Y-91570945D01*
X133197266Y-91480744D01*
X133084144Y-91428100D01*
X132773474Y-91290916D01*
X132471372Y-91192987D01*
X132203377Y-91141187D01*
X132012740Y-91139650D01*
X131878894Y-91145160D01*
X131820433Y-91124091D01*
X131846448Y-91087854D01*
X131943800Y-91053139D01*
X132047871Y-91010083D01*
X132062517Y-90962670D01*
X131999192Y-90918628D01*
X131869350Y-90885683D01*
X131684443Y-90871564D01*
X131674577Y-90871493D01*
X131438506Y-90915629D01*
X131224204Y-91053211D01*
X131085954Y-91203466D01*
X131007195Y-91291523D01*
X130909294Y-91371751D01*
X130778377Y-91451090D01*
X130600567Y-91536478D01*
X130361989Y-91634854D01*
X130048767Y-91753159D01*
X129821772Y-91835679D01*
X129497586Y-91961731D01*
X129237395Y-92089846D01*
X129021687Y-92236917D01*
X128830947Y-92419837D01*
X128645664Y-92655499D01*
X128446323Y-92960797D01*
X128362659Y-93098865D01*
X128168380Y-93439430D01*
X128011828Y-93754535D01*
X127882335Y-94071980D01*
X127769234Y-94419565D01*
X127661858Y-94825091D01*
X127601410Y-95082748D01*
X127536123Y-95354580D01*
X127466726Y-95617414D01*
X127401621Y-95840844D01*
X127350322Y-95991648D01*
X127271675Y-96276134D01*
X127242008Y-96618440D01*
X127241579Y-96651180D01*
X127234166Y-96843767D01*
X127217317Y-96936998D01*
X127193137Y-96932459D01*
X127163729Y-96831739D01*
X127131196Y-96636423D01*
X127121239Y-96560400D01*
X127091672Y-96361409D01*
X127049058Y-96119242D01*
X127007474Y-95909839D01*
X126966070Y-95644092D01*
X126947061Y-95367716D01*
X126949362Y-95211480D01*
X126955080Y-95023908D01*
X126941967Y-94935791D01*
X126919270Y-94935209D01*
X126900390Y-95001378D01*
X126881840Y-95150341D01*
X126865235Y-95363300D01*
X126852193Y-95621459D01*
X126847194Y-95773268D01*
X126837628Y-96043053D01*
X126825053Y-96272989D01*
X126810770Y-96445801D01*
X126796079Y-96544214D01*
X126787967Y-96560400D01*
X126768361Y-96513235D01*
X126745464Y-96385858D01*
X126722538Y-96199448D01*
X126707773Y-96039700D01*
X126665658Y-95519000D01*
X126632549Y-95925400D01*
X126621245Y-96165391D01*
X126310435Y-96165391D01*
X126303521Y-95958045D01*
X126323546Y-95565435D01*
X126351531Y-95360892D01*
X126484081Y-94723653D01*
X126645946Y-94129021D01*
X126832217Y-93590737D01*
X127037989Y-93122541D01*
X127258352Y-92738173D01*
X127319319Y-92651089D01*
X127427361Y-92523833D01*
X127591219Y-92354780D01*
X127788126Y-92166532D01*
X127983374Y-91991952D01*
X128199413Y-91801459D01*
X128353319Y-91652151D01*
X128463074Y-91522732D01*
X128546663Y-91391907D01*
X128622070Y-91238382D01*
X128624685Y-91232552D01*
X128743310Y-90992261D01*
X128868722Y-90803326D01*
X129017395Y-90654558D01*
X129205806Y-90534765D01*
X129450429Y-90432757D01*
X129767740Y-90337345D01*
X130045274Y-90267689D01*
X130636041Y-90110253D01*
X131125784Y-89944435D01*
X131514740Y-89770153D01*
X131613066Y-89715467D01*
X131857390Y-89618427D01*
X132178471Y-89563886D01*
X132560333Y-89552827D01*
X132987004Y-89586233D01*
G37*
%TD.AperFunction*%
%TD*%
D10*
%TO.P,REF\u002A\u002A,1*%
%TO.N,R1*%
X94000000Y-70000000D03*
%TD*%
%TO.P,REF\u002A\u002A,1*%
%TO.N,R2*%
X94000000Y-87500000D03*
%TD*%
D11*
%TO.P,S1,2*%
%TO.N,pinky_bot*%
X108275000Y-96250000D03*
D12*
%TO.P,S1,1*%
%TO.N,C1*%
X96725000Y-94050000D03*
%TD*%
D11*
%TO.P,S2,2*%
%TO.N,pinky_mid*%
X108275000Y-78750000D03*
D12*
%TO.P,S2,1*%
%TO.N,C1*%
X96725000Y-76550000D03*
%TD*%
D11*
%TO.P,S3,2*%
%TO.N,pinky_top*%
X108275000Y-61250000D03*
D12*
%TO.P,S3,1*%
%TO.N,C1*%
X96725000Y-59050000D03*
%TD*%
D11*
%TO.P,S4,2*%
%TO.N,ring_bot*%
X126775000Y-84250000D03*
D12*
%TO.P,S4,1*%
%TO.N,C2*%
X115225000Y-82050000D03*
%TD*%
D11*
%TO.P,S5,2*%
%TO.N,ring_mid*%
X126775000Y-66750000D03*
D12*
%TO.P,S5,1*%
%TO.N,C2*%
X115225000Y-64550000D03*
%TD*%
D11*
%TO.P,S6,2*%
%TO.N,ring_top*%
X126775000Y-49250000D03*
D12*
%TO.P,S6,1*%
%TO.N,C2*%
X115225000Y-47050000D03*
%TD*%
D11*
%TO.P,S7,2*%
%TO.N,middle_bot*%
X145275000Y-78250000D03*
D12*
%TO.P,S7,1*%
%TO.N,C3*%
X133725000Y-76050000D03*
%TD*%
D11*
%TO.P,S8,2*%
%TO.N,middle_mid*%
X145275000Y-60750000D03*
D12*
%TO.P,S8,1*%
%TO.N,C3*%
X133725000Y-58550000D03*
%TD*%
D11*
%TO.P,S9,2*%
%TO.N,middle_top*%
X145275000Y-43250000D03*
D12*
%TO.P,S9,1*%
%TO.N,C3*%
X133725000Y-41050000D03*
%TD*%
D11*
%TO.P,S10,2*%
%TO.N,index_bot*%
X163775000Y-84250000D03*
D12*
%TO.P,S10,1*%
%TO.N,C4*%
X152225000Y-82050000D03*
%TD*%
D11*
%TO.P,S11,2*%
%TO.N,index_mid*%
X163775000Y-66750000D03*
D12*
%TO.P,S11,1*%
%TO.N,C4*%
X152225000Y-64550000D03*
%TD*%
D11*
%TO.P,S12,2*%
%TO.N,index_top*%
X163775000Y-49250000D03*
D12*
%TO.P,S12,1*%
%TO.N,C4*%
X152225000Y-47050000D03*
%TD*%
D11*
%TO.P,S13,2*%
%TO.N,inner_bot*%
X182275000Y-87250000D03*
D12*
%TO.P,S13,1*%
%TO.N,C5*%
X170725000Y-85050000D03*
%TD*%
D11*
%TO.P,S14,2*%
%TO.N,inner_mid*%
X182275000Y-69750000D03*
D12*
%TO.P,S14,1*%
%TO.N,C5*%
X170725000Y-67550000D03*
%TD*%
D11*
%TO.P,S15,2*%
%TO.N,inner_top*%
X182275000Y-52250000D03*
D12*
%TO.P,S15,1*%
%TO.N,C5*%
X170725000Y-50050000D03*
%TD*%
D13*
%TO.P,S16,2*%
%TO.N,out_home*%
X175463608Y-111769506D03*
D14*
%TO.P,S16,1*%
%TO.N,T1*%
X164876566Y-106655109D03*
%TD*%
D15*
%TO.P,S17,2*%
%TO.N,in_home*%
X198184392Y-121733502D03*
D16*
%TO.P,S17,1*%
%TO.N,T2*%
X188646298Y-114858384D03*
%TD*%
D17*
%TO.P,D1,2*%
%TO.N,pinky_bot*%
X103810000Y-105000000D03*
D18*
%TO.P,D1,1*%
%TO.N,R3*%
X96190000Y-105000000D03*
D19*
X98350000Y-105000000D03*
%TO.P,D1,2*%
%TO.N,pinky_bot*%
X101650000Y-105000000D03*
%TD*%
D17*
%TO.P,D2,2*%
%TO.N,pinky_mid*%
X103810000Y-87500000D03*
D18*
%TO.P,D2,1*%
%TO.N,R2*%
X96190000Y-87500000D03*
D19*
X98350000Y-87500000D03*
%TO.P,D2,2*%
%TO.N,pinky_mid*%
X101650000Y-87500000D03*
%TD*%
D17*
%TO.P,D3,2*%
%TO.N,pinky_top*%
X103810000Y-70000000D03*
D18*
%TO.P,D3,1*%
%TO.N,R1*%
X96190000Y-70000000D03*
D19*
X98350000Y-70000000D03*
%TO.P,D3,2*%
%TO.N,pinky_top*%
X101650000Y-70000000D03*
%TD*%
D17*
%TO.P,D4,2*%
%TO.N,ring_bot*%
X122310000Y-93000000D03*
D18*
%TO.P,D4,1*%
%TO.N,R3*%
X114690000Y-93000000D03*
D19*
X116850000Y-93000000D03*
%TO.P,D4,2*%
%TO.N,ring_bot*%
X120150000Y-93000000D03*
%TD*%
D17*
%TO.P,D5,2*%
%TO.N,ring_mid*%
X122310000Y-75500000D03*
D18*
%TO.P,D5,1*%
%TO.N,R2*%
X114690000Y-75500000D03*
D19*
X116850000Y-75500000D03*
%TO.P,D5,2*%
%TO.N,ring_mid*%
X120150000Y-75500000D03*
%TD*%
D17*
%TO.P,D6,2*%
%TO.N,ring_top*%
X122310000Y-58000000D03*
D18*
%TO.P,D6,1*%
%TO.N,R1*%
X114690000Y-58000000D03*
D19*
X116850000Y-58000000D03*
%TO.P,D6,2*%
%TO.N,ring_top*%
X120150000Y-58000000D03*
%TD*%
D17*
%TO.P,D7,2*%
%TO.N,middle_bot*%
X140810000Y-87000000D03*
D18*
%TO.P,D7,1*%
%TO.N,R3*%
X133190000Y-87000000D03*
D19*
X135350000Y-87000000D03*
%TO.P,D7,2*%
%TO.N,middle_bot*%
X138650000Y-87000000D03*
%TD*%
D17*
%TO.P,D8,2*%
%TO.N,middle_mid*%
X140810000Y-69500000D03*
D18*
%TO.P,D8,1*%
%TO.N,R2*%
X133190000Y-69500000D03*
D19*
X135350000Y-69500000D03*
%TO.P,D8,2*%
%TO.N,middle_mid*%
X138650000Y-69500000D03*
%TD*%
D17*
%TO.P,D9,2*%
%TO.N,middle_top*%
X140810000Y-52000000D03*
D18*
%TO.P,D9,1*%
%TO.N,R1*%
X133190000Y-52000000D03*
D19*
X135350000Y-52000000D03*
%TO.P,D9,2*%
%TO.N,middle_top*%
X138650000Y-52000000D03*
%TD*%
D17*
%TO.P,D10,2*%
%TO.N,index_bot*%
X159310000Y-93000000D03*
D18*
%TO.P,D10,1*%
%TO.N,R3*%
X151690000Y-93000000D03*
D19*
X153850000Y-93000000D03*
%TO.P,D10,2*%
%TO.N,index_bot*%
X157150000Y-93000000D03*
%TD*%
D17*
%TO.P,D11,2*%
%TO.N,index_mid*%
X159310000Y-75500000D03*
D18*
%TO.P,D11,1*%
%TO.N,R2*%
X151690000Y-75500000D03*
D19*
X153850000Y-75500000D03*
%TO.P,D11,2*%
%TO.N,index_mid*%
X157150000Y-75500000D03*
%TD*%
D17*
%TO.P,D12,2*%
%TO.N,index_top*%
X159310000Y-58000000D03*
D18*
%TO.P,D12,1*%
%TO.N,R1*%
X151690000Y-58000000D03*
D19*
X153850000Y-58000000D03*
%TO.P,D12,2*%
%TO.N,index_top*%
X157150000Y-58000000D03*
%TD*%
D17*
%TO.P,D13,2*%
%TO.N,inner_bot*%
X177810000Y-96000000D03*
D18*
%TO.P,D13,1*%
%TO.N,R3*%
X170190000Y-96000000D03*
D19*
X172350000Y-96000000D03*
%TO.P,D13,2*%
%TO.N,inner_bot*%
X175650000Y-96000000D03*
%TD*%
D17*
%TO.P,D14,2*%
%TO.N,inner_mid*%
X177810000Y-78500000D03*
D18*
%TO.P,D14,1*%
%TO.N,R2*%
X170190000Y-78500000D03*
D19*
X172350000Y-78500000D03*
%TO.P,D14,2*%
%TO.N,inner_mid*%
X175650000Y-78500000D03*
%TD*%
D17*
%TO.P,D15,2*%
%TO.N,inner_top*%
X177810000Y-61000000D03*
D18*
%TO.P,D15,1*%
%TO.N,R1*%
X170190000Y-61000000D03*
D19*
X172350000Y-61000000D03*
%TO.P,D15,2*%
%TO.N,inner_top*%
X175650000Y-61000000D03*
%TD*%
D17*
%TO.P,D16,2*%
%TO.N,out_home*%
X168886082Y-119065730D03*
D20*
%TO.P,D16,1*%
%TO.N,R4*%
X161525728Y-117093528D03*
D21*
X163612127Y-117652578D03*
%TO.P,D16,2*%
%TO.N,out_home*%
X166799683Y-118506680D03*
%TD*%
D17*
%TO.P,D17,2*%
%TO.N,in_home*%
X190439819Y-127776705D03*
D22*
%TO.P,D17,1*%
%TO.N,R4*%
X183533753Y-124556353D03*
D23*
X185491378Y-125469209D03*
%TO.P,D17,2*%
%TO.N,in_home*%
X188482194Y-126863849D03*
%TD*%
D10*
%TO.P,REF\u002A\u002A,1*%
%TO.N,pinky_bot*%
X96000000Y-98500000D03*
%TD*%
%TO.P,REF\u002A\u002A,1*%
%TO.N,pinky_mid*%
X96000000Y-81000000D03*
%TD*%
%TO.P,REF\u002A\u002A,1*%
%TO.N,pinky_top*%
X96000000Y-63500000D03*
%TD*%
%TO.P,REF\u002A\u002A,1*%
%TO.N,ring_bot*%
X114500000Y-86500000D03*
%TD*%
%TO.P,REF\u002A\u002A,1*%
%TO.N,ring_mid*%
X114500000Y-69000000D03*
%TD*%
%TO.P,REF\u002A\u002A,1*%
%TO.N,ring_top*%
X114500000Y-51500000D03*
%TD*%
%TO.P,REF\u002A\u002A,1*%
%TO.N,middle_bot*%
X133000000Y-80500000D03*
%TD*%
%TO.P,REF\u002A\u002A,1*%
%TO.N,middle_mid*%
X133000000Y-63000000D03*
%TD*%
%TO.P,REF\u002A\u002A,1*%
%TO.N,middle_top*%
X133000000Y-45500000D03*
%TD*%
%TO.P,REF\u002A\u002A,1*%
%TO.N,index_bot*%
X151500000Y-86500000D03*
%TD*%
%TO.P,REF\u002A\u002A,1*%
%TO.N,index_mid*%
X151500000Y-69000000D03*
%TD*%
%TO.P,REF\u002A\u002A,1*%
%TO.N,index_top*%
X151500000Y-51500000D03*
%TD*%
%TO.P,REF\u002A\u002A,1*%
%TO.N,inner_bot*%
X170000000Y-89500000D03*
%TD*%
%TO.P,REF\u002A\u002A,1*%
%TO.N,inner_mid*%
X170000000Y-72000000D03*
%TD*%
%TO.P,REF\u002A\u002A,1*%
%TO.N,inner_top*%
X170000000Y-54500000D03*
%TD*%
%TO.P,REF\u002A\u002A,1*%
%TO.N,out_home*%
X163024525Y-110765835D03*
%TD*%
%TO.P,REF\u002A\u002A,1*%
%TO.N,in_home*%
X186108573Y-118585056D03*
%TD*%
%TO.P,REF\u002A\u002A,1*%
%TO.N,R2*%
X112500000Y-75500000D03*
%TD*%
%TO.P,REF\u002A\u002A,1*%
%TO.N,R1*%
X112500000Y-58000000D03*
%TD*%
%TO.P,REF\u002A\u002A,1*%
%TO.N,R2*%
X131000000Y-69500000D03*
%TD*%
%TO.P,REF\u002A\u002A,1*%
%TO.N,R1*%
X131000000Y-52000000D03*
%TD*%
%TO.P,REF\u002A\u002A,1*%
%TO.N,R2*%
X149500000Y-75500000D03*
%TD*%
%TO.P,REF\u002A\u002A,1*%
%TO.N,R1*%
X149500000Y-58000000D03*
%TD*%
%TO.P,REF\u002A\u002A,1*%
%TO.N,R2*%
X168000000Y-78500000D03*
%TD*%
%TO.P,REF\u002A\u002A,1*%
%TO.N,R1*%
X168000000Y-61000000D03*
%TD*%
%TO.P,REF\u002A\u002A,1*%
%TO.N,C1*%
X100000000Y-97000000D03*
%TD*%
%TO.P,REF\u002A\u002A,1*%
%TO.N,C1*%
X100000000Y-79500000D03*
%TD*%
%TO.P,REF\u002A\u002A,1*%
%TO.N,C1*%
X100000000Y-62000000D03*
%TD*%
%TO.P,REF\u002A\u002A,1*%
%TO.N,C2*%
X118500000Y-85000000D03*
%TD*%
%TO.P,REF\u002A\u002A,1*%
%TO.N,C2*%
X118500000Y-67500000D03*
%TD*%
%TO.P,REF\u002A\u002A,1*%
%TO.N,C2*%
X118500000Y-50000000D03*
%TD*%
%TO.P,REF\u002A\u002A,1*%
%TO.N,C3*%
X137000000Y-79000000D03*
%TD*%
%TO.P,REF\u002A\u002A,1*%
%TO.N,C3*%
X137000000Y-61500000D03*
%TD*%
%TO.P,REF\u002A\u002A,1*%
%TO.N,C3*%
X137000000Y-44000000D03*
%TD*%
%TO.P,REF\u002A\u002A,1*%
%TO.N,C4*%
X155500000Y-85000000D03*
%TD*%
%TO.P,REF\u002A\u002A,1*%
%TO.N,C4*%
X155500000Y-67500000D03*
%TD*%
%TO.P,REF\u002A\u002A,1*%
%TO.N,C4*%
X155500000Y-50000000D03*
%TD*%
%TO.P,REF\u002A\u002A,1*%
%TO.N,C5*%
X174000000Y-88000000D03*
%TD*%
%TO.P,REF\u002A\u002A,1*%
%TO.N,C5*%
X174000000Y-70500000D03*
%TD*%
%TO.P,REF\u002A\u002A,1*%
%TO.N,C5*%
X174000000Y-53000000D03*
%TD*%
%TO.P,REF\u002A\u002A,1*%
%TO.N,C1*%
X94750000Y-85000000D03*
%TD*%
%TO.P,REF\u002A\u002A,1*%
%TO.N,C1*%
X94750000Y-67500000D03*
%TD*%
%TO.P,REF\u002A\u002A,1*%
%TO.N,C2*%
X113250000Y-73000000D03*
%TD*%
%TO.P,REF\u002A\u002A,1*%
%TO.N,C2*%
X113250000Y-55500000D03*
%TD*%
%TO.P,REF\u002A\u002A,1*%
%TO.N,C3*%
X131750000Y-67000000D03*
%TD*%
%TO.P,REF\u002A\u002A,1*%
%TO.N,C3*%
X131750000Y-49500000D03*
%TD*%
%TO.P,REF\u002A\u002A,1*%
%TO.N,C4*%
X150250000Y-73000000D03*
%TD*%
%TO.P,REF\u002A\u002A,1*%
%TO.N,C4*%
X150250000Y-55500000D03*
%TD*%
%TO.P,REF\u002A\u002A,1*%
%TO.N,C5*%
X168750000Y-76000000D03*
%TD*%
%TO.P,REF\u002A\u002A,1*%
%TO.N,C5*%
X168750000Y-58500000D03*
%TD*%
%TO.P,REF\u002A\u002A,1*%
%TO.N,R4*%
X174959897Y-122246118D03*
%TD*%
%TO.P,REF\u002A\u002A,1*%
%TO.N,T1*%
X168699962Y-105039631D03*
%TD*%
%TO.P,REF\u002A\u002A,1*%
%TO.N,T2*%
X192692132Y-113931374D03*
%TD*%
D24*
%TO.P,MCU1,12*%
%TO.N,MCU1_12*%
X199150000Y-88640000D03*
D25*
%TO.P,MCU1,113*%
%TO.N,R4*%
X198425000Y-88640000D03*
D26*
%TO.P,MCU1,12*%
%TO.N,T2*%
X188875000Y-88640000D03*
D27*
%TO.P,MCU1,13*%
%TO.N,MCU1_13*%
X188150000Y-88640000D03*
D28*
%TO.P,MCU1,12*%
%TO.N,T2*%
X196912000Y-88640000D03*
%TO.P,MCU1,113*%
%TO.N,R4*%
X190388000Y-88640000D03*
D29*
%TO.P,MCU1,12*%
%TO.N,MCU1_12*%
X201270000Y-88640000D03*
%TO.P,MCU1,13*%
%TO.N,MCU1_13*%
X186030000Y-88640000D03*
D24*
%TO.P,MCU1,11*%
%TO.N,MCU1_11*%
X199150000Y-86100000D03*
D25*
%TO.P,MCU1,114*%
%TO.N,R3*%
X198425000Y-86100000D03*
D26*
%TO.P,MCU1,11*%
%TO.N,T1*%
X188875000Y-86100000D03*
D27*
%TO.P,MCU1,14*%
%TO.N,MCU1_14*%
X188150000Y-86100000D03*
D28*
%TO.P,MCU1,11*%
%TO.N,T1*%
X196912000Y-86100000D03*
%TO.P,MCU1,114*%
%TO.N,R3*%
X190388000Y-86100000D03*
D29*
%TO.P,MCU1,11*%
%TO.N,MCU1_11*%
X201270000Y-86100000D03*
%TO.P,MCU1,14*%
%TO.N,MCU1_14*%
X186030000Y-86100000D03*
D24*
%TO.P,MCU1,10*%
%TO.N,MCU1_10*%
X199150000Y-83560000D03*
D25*
%TO.P,MCU1,115*%
%TO.N,R2*%
X198425000Y-83560000D03*
D26*
%TO.P,MCU1,10*%
%TO.N,F4*%
X188875000Y-83560000D03*
D27*
%TO.P,MCU1,15*%
%TO.N,MCU1_15*%
X188150000Y-83560000D03*
D28*
%TO.P,MCU1,10*%
%TO.N,F4*%
X196912000Y-83560000D03*
%TO.P,MCU1,115*%
%TO.N,R2*%
X190388000Y-83560000D03*
D29*
%TO.P,MCU1,10*%
%TO.N,MCU1_10*%
X201270000Y-83560000D03*
%TO.P,MCU1,15*%
%TO.N,MCU1_15*%
X186030000Y-83560000D03*
D24*
%TO.P,MCU1,9*%
%TO.N,MCU1_9*%
X199150000Y-81020000D03*
D25*
%TO.P,MCU1,116*%
%TO.N,R1*%
X198425000Y-81020000D03*
D26*
%TO.P,MCU1,9*%
%TO.N,C5*%
X188875000Y-81020000D03*
D27*
%TO.P,MCU1,16*%
%TO.N,MCU1_16*%
X188150000Y-81020000D03*
D28*
%TO.P,MCU1,9*%
%TO.N,C5*%
X196912000Y-81020000D03*
%TO.P,MCU1,116*%
%TO.N,R1*%
X190388000Y-81020000D03*
D29*
%TO.P,MCU1,9*%
%TO.N,MCU1_9*%
X201270000Y-81020000D03*
%TO.P,MCU1,16*%
%TO.N,MCU1_16*%
X186030000Y-81020000D03*
D24*
%TO.P,MCU1,8*%
%TO.N,MCU1_8*%
X199150000Y-78480000D03*
D25*
%TO.P,MCU1,117*%
%TO.N,DPE*%
X198425000Y-78480000D03*
D26*
%TO.P,MCU1,8*%
%TO.N,C4*%
X188875000Y-78480000D03*
D27*
%TO.P,MCU1,17*%
%TO.N,MCU1_17*%
X188150000Y-78480000D03*
D28*
%TO.P,MCU1,8*%
%TO.N,C4*%
X196912000Y-78480000D03*
%TO.P,MCU1,117*%
%TO.N,DPE*%
X190388000Y-78480000D03*
D29*
%TO.P,MCU1,8*%
%TO.N,MCU1_8*%
X201270000Y-78480000D03*
%TO.P,MCU1,17*%
%TO.N,MCU1_17*%
X186030000Y-78480000D03*
D24*
%TO.P,MCU1,7*%
%TO.N,MCU1_7*%
X199150000Y-75940000D03*
D25*
%TO.P,MCU1,118*%
%TO.N,DPC*%
X198425000Y-75940000D03*
D26*
%TO.P,MCU1,7*%
%TO.N,C3*%
X188875000Y-75940000D03*
D27*
%TO.P,MCU1,18*%
%TO.N,MCU1_18*%
X188150000Y-75940000D03*
D28*
%TO.P,MCU1,7*%
%TO.N,C3*%
X196912000Y-75940000D03*
%TO.P,MCU1,118*%
%TO.N,DPC*%
X190388000Y-75940000D03*
D29*
%TO.P,MCU1,7*%
%TO.N,MCU1_7*%
X201270000Y-75940000D03*
%TO.P,MCU1,18*%
%TO.N,MCU1_18*%
X186030000Y-75940000D03*
D24*
%TO.P,MCU1,6*%
%TO.N,MCU1_6*%
X199150000Y-73400000D03*
D25*
%TO.P,MCU1,119*%
%TO.N,DPD*%
X198425000Y-73400000D03*
D26*
%TO.P,MCU1,6*%
%TO.N,C2*%
X188875000Y-73400000D03*
D27*
%TO.P,MCU1,19*%
%TO.N,MCU1_19*%
X188150000Y-73400000D03*
D28*
%TO.P,MCU1,6*%
%TO.N,C2*%
X196912000Y-73400000D03*
%TO.P,MCU1,119*%
%TO.N,DPD*%
X190388000Y-73400000D03*
D29*
%TO.P,MCU1,6*%
%TO.N,MCU1_6*%
X201270000Y-73400000D03*
%TO.P,MCU1,19*%
%TO.N,MCU1_19*%
X186030000Y-73400000D03*
D24*
%TO.P,MCU1,5*%
%TO.N,MCU1_5*%
X199150000Y-70860000D03*
D25*
%TO.P,MCU1,120*%
%TO.N,F3*%
X198425000Y-70860000D03*
D26*
%TO.P,MCU1,5*%
%TO.N,C1*%
X188875000Y-70860000D03*
D27*
%TO.P,MCU1,20*%
%TO.N,MCU1_20*%
X188150000Y-70860000D03*
D28*
%TO.P,MCU1,5*%
%TO.N,C1*%
X196912000Y-70860000D03*
%TO.P,MCU1,120*%
%TO.N,F3*%
X190388000Y-70860000D03*
D29*
%TO.P,MCU1,5*%
%TO.N,MCU1_5*%
X201270000Y-70860000D03*
%TO.P,MCU1,20*%
%TO.N,MCU1_20*%
X186030000Y-70860000D03*
D24*
%TO.P,MCU1,4*%
%TO.N,MCU1_4*%
X199150000Y-68320000D03*
D25*
%TO.P,MCU1,121*%
%TO.N,GND*%
X198425000Y-68320000D03*
D26*
%TO.P,MCU1,4*%
%TO.N,VCC*%
X188875000Y-68320000D03*
D27*
%TO.P,MCU1,21*%
%TO.N,MCU1_21*%
X188150000Y-68320000D03*
D28*
%TO.P,MCU1,4*%
%TO.N,VCC*%
X196912000Y-68320000D03*
%TO.P,MCU1,121*%
%TO.N,GND*%
X190388000Y-68320000D03*
D29*
%TO.P,MCU1,4*%
%TO.N,MCU1_4*%
X201270000Y-68320000D03*
%TO.P,MCU1,21*%
%TO.N,MCU1_21*%
X186030000Y-68320000D03*
D24*
%TO.P,MCU1,3*%
%TO.N,MCU1_3*%
X199150000Y-65780000D03*
D25*
%TO.P,MCU1,122*%
%TO.N,GND*%
X198425000Y-65780000D03*
D26*
%TO.P,MCU1,3*%
%TO.N,RST*%
X188875000Y-65780000D03*
D27*
%TO.P,MCU1,22*%
%TO.N,MCU1_22*%
X188150000Y-65780000D03*
D28*
%TO.P,MCU1,3*%
%TO.N,RST*%
X196912000Y-65780000D03*
%TO.P,MCU1,122*%
%TO.N,GND*%
X190388000Y-65780000D03*
D29*
%TO.P,MCU1,3*%
%TO.N,MCU1_3*%
X201270000Y-65780000D03*
%TO.P,MCU1,22*%
%TO.N,MCU1_22*%
X186030000Y-65780000D03*
D24*
%TO.P,MCU1,2*%
%TO.N,MCU1_2*%
X199150000Y-63240000D03*
D25*
%TO.P,MCU1,123*%
%TO.N,F1*%
X198425000Y-63240000D03*
D26*
%TO.P,MCU1,2*%
%TO.N,GND*%
X188875000Y-63240000D03*
D27*
%TO.P,MCU1,23*%
%TO.N,MCU1_23*%
X188150000Y-63240000D03*
D28*
%TO.P,MCU1,2*%
%TO.N,GND*%
X196912000Y-63240000D03*
%TO.P,MCU1,123*%
%TO.N,F1*%
X190388000Y-63240000D03*
D29*
%TO.P,MCU1,2*%
%TO.N,MCU1_2*%
X201270000Y-63240000D03*
%TO.P,MCU1,23*%
%TO.N,MCU1_23*%
X186030000Y-63240000D03*
D24*
%TO.P,MCU1,1*%
%TO.N,MCU1_1*%
X199150000Y-60700000D03*
D25*
%TO.P,MCU1,124*%
%TO.N,F2*%
X198425000Y-60700000D03*
D26*
%TO.P,MCU1,1*%
%TO.N,RAW*%
X188875000Y-60700000D03*
D27*
%TO.P,MCU1,24*%
%TO.N,MCU1_24*%
X188150000Y-60700000D03*
D28*
%TO.P,MCU1,1*%
%TO.N,RAW*%
X196912000Y-60700000D03*
%TO.P,MCU1,124*%
%TO.N,F2*%
X190388000Y-60700000D03*
D29*
%TO.P,MCU1,1*%
%TO.N,MCU1_1*%
X201270000Y-60700000D03*
%TO.P,MCU1,24*%
%TO.N,MCU1_24*%
X186030000Y-60700000D03*
%TD*%
%TO.P,DISP1,5*%
%TO.N,DISP1_5*%
X198730000Y-91900000D03*
D30*
%TO.P,DISP1,4*%
%TO.N,DISP1_4*%
X196190000Y-91900000D03*
%TO.P,DISP1,3*%
%TO.N,VCC*%
X193650000Y-91900000D03*
%TO.P,DISP1,2*%
%TO.N,DISP1_2*%
X191110000Y-91900000D03*
%TO.P,DISP1,1*%
%TO.N,DISP1_1*%
X188570000Y-91900000D03*
D31*
%TO.P,DISP1,23*%
%TO.N,DPE*%
X188570000Y-95250000D03*
%TO.P,DISP1,22*%
%TO.N,GND*%
X191110000Y-95250000D03*
%TO.P,DISP1,21*%
%TO.N,DPC*%
X196190000Y-95250000D03*
%TO.P,DISP1,20*%
%TO.N,DPD*%
X198730000Y-95250000D03*
%TO.P,DISP1,27*%
%TO.N,DISP1_1*%
X188570000Y-94350000D03*
%TO.P,DISP1,26*%
%TO.N,DISP1_2*%
X191110000Y-94350000D03*
%TO.P,DISP1,25*%
%TO.N,DISP1_4*%
X196190000Y-94350000D03*
%TO.P,DISP1,24*%
%TO.N,DISP1_5*%
X198730000Y-94350000D03*
%TD*%
D10*
%TO.P,REF\u002A\u002A,1*%
%TO.N,DPD*%
X186900000Y-92100000D03*
%TD*%
%TO.P,REF\u002A\u002A,1*%
%TO.N,DPC*%
X186100000Y-91350000D03*
%TD*%
%TO.P,REF\u002A\u002A,1*%
%TO.N,DPE*%
X185300000Y-90600000D03*
%TD*%
%TO.P,REF\u002A\u002A,1*%
%TO.N,GND*%
X193650000Y-95300000D03*
%TD*%
D32*
%TO.P,SW1,*%
%TO.N,*%
X196950000Y-56025000D03*
D33*
%TO.P,SW1,6*%
%TO.N,RAW*%
X191050000Y-58885000D03*
%TO.P,SW1,5*%
%TO.N,pos*%
X194050000Y-58885000D03*
D32*
%TO.P,SW1,*%
%TO.N,*%
X196950000Y-58235000D03*
D33*
%TO.P,SW1,4*%
%TO.N,N/C*%
X195550000Y-58885000D03*
D32*
%TO.P,SW1,*%
%TO.N,*%
X189650000Y-56025000D03*
X189650000Y-58235000D03*
%TD*%
D10*
%TO.P,REF\u002A\u002A,1*%
%TO.N,pos*%
X193300000Y-56012500D03*
%TD*%
D34*
%TO.P,JST1,2*%
%TO.N,pos*%
X195984000Y-98750000D03*
%TO.P,JST1,1*%
%TO.N,GND*%
X195984000Y-100750000D03*
D35*
%TO.P,JST1,32*%
%TO.N,JST1_2*%
X197000000Y-100750000D03*
%TO.P,JST1,31*%
%TO.N,JST1_1*%
X197000000Y-98750000D03*
D36*
%TO.P,JST1,12*%
%TO.N,JST1_2*%
X198800000Y-100750000D03*
%TO.P,JST1,11*%
%TO.N,JST1_1*%
X198800000Y-98750000D03*
%TD*%
D10*
%TO.P,REF\u002A\u002A,1*%
%TO.N,pos*%
X194875000Y-99750000D03*
%TD*%
%TO.P,REF\u002A\u002A,1*%
%TO.N,GND*%
X201150000Y-99750000D03*
%TD*%
D37*
%TO.P,SW2,1*%
%TO.N,GND*%
X100901747Y-49623493D03*
%TO.P,SW2,2*%
%TO.N,RST*%
X97098253Y-50376507D03*
X100117467Y-48415807D03*
%TO.P,SW2,1*%
%TO.N,GND*%
X97882533Y-51584193D03*
%TD*%
D10*
%TO.P,REF\u002A\u002A,1*%
%TO.N,RST*%
X101820954Y-47458595D03*
%TD*%
%TO.P,REF\u002A\u002A,1*%
%TO.N,RST*%
X104146416Y-47367335D03*
%TD*%
%TO.P,REF\u002A\u002A,1*%
%TO.N,GND*%
X102469075Y-48456613D03*
%TD*%
%TO.P,REF\u002A\u002A,1*%
%TO.N,GND*%
X103498296Y-46369317D03*
%TD*%
D38*
%TO.P,H1,*%
%TO.N,*%
X109250000Y-57500000D03*
%TD*%
%TO.P,H2,*%
%TO.N,*%
X109250000Y-92500000D03*
%TD*%
%TO.P,H3,*%
%TO.N,*%
X164750000Y-58000000D03*
%TD*%
%TO.P,H4,*%
%TO.N,*%
X164750000Y-93000000D03*
%TD*%
%TO.P,H5,*%
%TO.N,*%
X178091110Y-116355829D03*
%TD*%
D39*
%TO.N,pos*%
X203160000Y-60659203D02*
X203160000Y-98160517D01*
X197080000Y-57090000D02*
X198720000Y-57090000D01*
X195048750Y-101888750D02*
X195061250Y-101901250D01*
X200580746Y-57860746D02*
X203005000Y-60285000D01*
%TO.N,RST*%
X181633784Y-47383800D02*
G75*
G03*
X177786036Y-45790000I-3847784J-3847800D01*
G01*
X184110010Y-52113963D02*
G75*
G03*
X182516206Y-48266208I-5441610J-37D01*
G01*
%TO.N,GND*%
X181993784Y-46763800D02*
G75*
G03*
X178146036Y-45170000I-3847784J-3847800D01*
G01*
X184650010Y-51673963D02*
G75*
G03*
X183056206Y-47826208I-5441610J-37D01*
G01*
%TO.N,R4*%
X185107083Y-125469147D02*
G75*
G03*
X185219639Y-125197472I17J159147D01*
G01*
X163612127Y-117652578D02*
X164171177Y-118211628D01*
%TO.N,C5*%
X168750000Y-58500000D02*
X168750000Y-58750000D01*
X168750000Y-76000000D02*
X168750000Y-76250000D01*
%TO.N,C4*%
X150250000Y-55500000D02*
X150250000Y-55750000D01*
X150250000Y-73000000D02*
X150250000Y-73250000D01*
%TO.N,C3*%
X131750000Y-49500000D02*
X131750000Y-49750000D01*
X131750000Y-67000000D02*
X131750000Y-67250000D01*
%TO.N,C2*%
X113250000Y-55500000D02*
X113250000Y-55750000D01*
X113250000Y-73000000D02*
X113250000Y-73250000D01*
%TO.N,C1*%
X94750000Y-67500000D02*
X94750000Y-67750000D01*
X94750000Y-85000000D02*
X94750000Y-85250000D01*
%TO.N,GND*%
X104638511Y-46071488D02*
X105440341Y-45269658D01*
X108095151Y-44170000D02*
X119796036Y-44170000D01*
X126606207Y-39613792D02*
X123643792Y-42576207D01*
X141848420Y-38020000D02*
X130453963Y-38020000D01*
X154996036Y-39790000D02*
X146121579Y-39790000D01*
X164883963Y-45170000D02*
X178146036Y-45170000D01*
X181993792Y-46763792D02*
X183056207Y-47826207D01*
X184650000Y-63806464D02*
X184650000Y-51673963D01*
X185007500Y-64167500D02*
X184652500Y-63812500D01*
X196300855Y-64520000D02*
X185858510Y-64520000D01*
X108095151Y-44170046D02*
G75*
G03*
X105440342Y-45269659I-51J-3754454D01*
G01*
X119796036Y-44170010D02*
G75*
G03*
X123643792Y-42576207I-36J5441610D01*
G01*
X143984994Y-38905006D02*
G75*
G03*
X141848420Y-38020000I-2136594J-2136594D01*
G01*
X130453963Y-38019960D02*
G75*
G03*
X126606208Y-39613793I37J-5441540D01*
G01*
X158843792Y-41383792D02*
X161036207Y-43576207D01*
X143985006Y-38904994D02*
G75*
G03*
X146121579Y-39790000I2136594J2136594D01*
G01*
X158843784Y-41383800D02*
G75*
G03*
X154996036Y-39790000I-3847784J-3847800D01*
G01*
X103919489Y-46369318D02*
G75*
G03*
X104638510Y-46071487I11J1016818D01*
G01*
X161036215Y-43576199D02*
G75*
G03*
X164883963Y-45170000I3847785J3847799D01*
G01*
X184650015Y-63806464D02*
G75*
G03*
X184652500Y-63812500I8485J-36D01*
G01*
X185007497Y-64167503D02*
G75*
G03*
X185858510Y-64520000I851003J851003D01*
G01*
X103498296Y-46369317D02*
X103919489Y-46369317D01*
X196300855Y-64519952D02*
G75*
G03*
X196733000Y-64341000I45J611152D01*
G01*
%TO.N,RST*%
X105475083Y-46038667D02*
X104146416Y-47367335D01*
X120066036Y-44710000D02*
X108682770Y-44710000D01*
X123913792Y-43116207D02*
X126686207Y-40343792D01*
X154736036Y-40440000D02*
X145345010Y-40440000D01*
X181633792Y-47383792D02*
X182516207Y-48266207D01*
X184110000Y-66331715D02*
X184110000Y-52113963D01*
X184470000Y-66720000D02*
X184130000Y-66380000D01*
X196912000Y-66404956D02*
X196912000Y-65780000D01*
X108682770Y-44709992D02*
G75*
G03*
X105475083Y-46038667I30J-4536408D01*
G01*
X120066036Y-44710010D02*
G75*
G03*
X123913792Y-43116207I-36J5441610D01*
G01*
X158583784Y-42033800D02*
G75*
G03*
X154736036Y-40440000I-3847784J-3847800D01*
G01*
X130533963Y-38749960D02*
G75*
G03*
X126686208Y-40343793I37J-5441540D01*
G01*
X160746215Y-44196199D02*
G75*
G03*
X164593963Y-45790000I3847785J3847799D01*
G01*
X196276956Y-67040000D02*
X185242548Y-67040000D01*
X164593963Y-45790000D02*
X177786036Y-45790000D01*
X184109994Y-66331715D02*
G75*
G03*
X184130000Y-66380000I68306J15D01*
G01*
X160746207Y-44196207D02*
X158583792Y-42033792D01*
X184470015Y-66719985D02*
G75*
G03*
X185242548Y-67040000I772585J772585D01*
G01*
X143304997Y-39595003D02*
G75*
G03*
X145345010Y-40440000I2040003J2040003D01*
G01*
X143305003Y-39594997D02*
G75*
G03*
X141264989Y-38750000I-2040003J-2040003D01*
G01*
X196276956Y-67039952D02*
G75*
G03*
X196726000Y-66854000I44J635052D01*
G01*
X196726034Y-66854034D02*
G75*
G03*
X196912000Y-66404956I-449134J449034D01*
G01*
X141264989Y-38750000D02*
X130533963Y-38750000D01*
%TO.N,pos*%
X193300013Y-57604669D02*
G75*
G03*
X193675000Y-58510000I1280287J-31D01*
G01*
X203159998Y-60659203D02*
G75*
G03*
X203004999Y-60285001I-529198J3D01*
G01*
X195364999Y-102205001D02*
G75*
G03*
X195739203Y-102360000I374201J374201D01*
G01*
X198960517Y-102360007D02*
G75*
G03*
X201930000Y-101130000I-17J4199507D01*
G01*
X195991252Y-56551248D02*
G75*
G03*
X194690592Y-56012500I-1300652J-1300652D01*
G01*
X200580747Y-57860745D02*
G75*
G03*
X198720000Y-57090000I-1860747J-1860755D01*
G01*
X196141095Y-56701087D02*
G75*
G03*
X197080000Y-57090000I938905J938887D01*
G01*
X194874993Y-101478119D02*
G75*
G03*
X195042501Y-101882499I571907J19D01*
G01*
X195929500Y-98750007D02*
G75*
G03*
X195836462Y-98788537I0J-131593D01*
G01*
X201929995Y-101129995D02*
G75*
G03*
X203160000Y-98160517I-2969495J2969495D01*
G01*
X195365000Y-102205000D02*
X195061250Y-101901250D01*
%TO.N,DPE*%
X185299986Y-91715000D02*
G75*
G03*
X186088424Y-93618424I2691814J0D01*
G01*
X197507492Y-77997482D02*
G75*
G03*
X196910000Y-77750000I-597492J-597518D01*
G01*
X197834442Y-78324430D02*
G75*
G03*
X198210000Y-78480000I375558J375530D01*
G01*
X190816776Y-78229991D02*
G75*
G03*
X190515000Y-78355000I24J-426809D01*
G01*
X196895894Y-77749996D02*
G75*
G03*
X196325000Y-77990000I6J-799004D01*
G01*
X187419487Y-94949471D02*
G75*
G03*
X188145000Y-95250000I725513J725471D01*
G01*
X195754105Y-78230004D02*
G75*
G03*
X196325000Y-77990000I-5J799004D01*
G01*
%TO.N,DPC*%
X186301536Y-90578485D02*
G75*
G03*
X186100000Y-91065000I486464J-486515D01*
G01*
X197507492Y-75457482D02*
G75*
G03*
X196910000Y-75210000I-597492J-597518D01*
G01*
X197834442Y-75784430D02*
G75*
G03*
X198210000Y-75940000I375558J375530D01*
G01*
X187738822Y-89820010D02*
G75*
G03*
X186580000Y-90300000I-22J-1638790D01*
G01*
X196660006Y-95719994D02*
G75*
G03*
X197794680Y-96190000I1134694J1134694D01*
G01*
X200659988Y-95819988D02*
G75*
G03*
X201030000Y-94926740I-893288J893288D01*
G01*
X199766740Y-96190016D02*
G75*
G03*
X200659999Y-95819999I-40J1263316D01*
G01*
X195754105Y-75690004D02*
G75*
G03*
X196325000Y-75450000I-5J799004D01*
G01*
X201030016Y-91731959D02*
G75*
G03*
X200469999Y-90380001I-1912016J-41D01*
G01*
X196895894Y-75209996D02*
G75*
G03*
X196325000Y-75450000I6J-799004D01*
G01*
X190816776Y-75689991D02*
G75*
G03*
X190515000Y-75815000I24J-426809D01*
G01*
X200469988Y-90380012D02*
G75*
G03*
X199118040Y-89820000I-1351988J-1351988D01*
G01*
%TO.N,DPD*%
X199905006Y-94925006D02*
G75*
G03*
X200230000Y-94140380I-784606J784606D01*
G01*
X200229995Y-91958111D02*
G75*
G03*
X199800000Y-90920000I-1468095J11D01*
G01*
X199155000Y-95250011D02*
G75*
G03*
X199880520Y-94949479I0J1026011D01*
G01*
X197507492Y-72917482D02*
G75*
G03*
X196910000Y-72670000I-597492J-597518D01*
G01*
X197834442Y-73244430D02*
G75*
G03*
X198210000Y-73400000I375558J375530D01*
G01*
X190816776Y-73149991D02*
G75*
G03*
X190515000Y-73275000I24J-426809D01*
G01*
X188436396Y-90489997D02*
G75*
G03*
X187349999Y-90939999I4J-1536403D01*
G01*
X199800003Y-90919997D02*
G75*
G03*
X198761888Y-90490000I-1038103J-1038103D01*
G01*
X195754105Y-73150004D02*
G75*
G03*
X196325000Y-72910000I-5J799004D01*
G01*
X187151032Y-91138987D02*
G75*
G03*
X186900000Y-91745000I605968J-606013D01*
G01*
X196895894Y-72669996D02*
G75*
G03*
X196325000Y-72910000I6J-799004D01*
G01*
%TO.N,F3*%
X197507492Y-70377482D02*
G75*
G03*
X196910000Y-70130000I-597492J-597518D01*
G01*
X197834442Y-70704430D02*
G75*
G03*
X198210000Y-70860000I375558J375530D01*
G01*
X196895894Y-70129996D02*
G75*
G03*
X196325000Y-70370000I6J-799004D01*
G01*
X190816776Y-70609991D02*
G75*
G03*
X190515000Y-70735000I24J-426809D01*
G01*
X195754105Y-70610004D02*
G75*
G03*
X196325000Y-70370000I-5J799004D01*
G01*
%TO.N,F1*%
X197834442Y-63084430D02*
G75*
G03*
X198210000Y-63240000I375558J375530D01*
G01*
X196895894Y-62509996D02*
G75*
G03*
X196325000Y-62750000I6J-799004D01*
G01*
X190816776Y-62989991D02*
G75*
G03*
X190515000Y-63115000I24J-426809D01*
G01*
X195754105Y-62990004D02*
G75*
G03*
X196325000Y-62750000I-5J799004D01*
G01*
X197507492Y-62757482D02*
G75*
G03*
X196910000Y-62510000I-597492J-597518D01*
G01*
%TO.N,F2*%
X195754105Y-60450004D02*
G75*
G03*
X196325000Y-60210000I-5J799004D01*
G01*
X196895894Y-59969996D02*
G75*
G03*
X196325000Y-60210000I6J-799004D01*
G01*
X190816776Y-60449991D02*
G75*
G03*
X190515000Y-60575000I24J-426809D01*
G01*
X197507492Y-60217482D02*
G75*
G03*
X196910000Y-59970000I-597492J-597518D01*
G01*
X197834442Y-60544430D02*
G75*
G03*
X198210000Y-60700000I375558J375530D01*
G01*
%TO.N,F4*%
X191263639Y-83810015D02*
G75*
G03*
X191154999Y-83854999I-39J-153585D01*
G01*
X190474811Y-84290019D02*
G75*
G03*
X190924999Y-84099999I-11J628319D01*
G01*
X189462036Y-83712018D02*
G75*
G03*
X189095000Y-83560000I-367036J-367082D01*
G01*
X196483223Y-83810009D02*
G75*
G03*
X196785000Y-83685000I-23J426809D01*
G01*
X191113530Y-83896459D02*
G75*
G03*
X191110000Y-83905000I8570J-8541D01*
G01*
X189792507Y-84042517D02*
G75*
G03*
X190390000Y-84290000I597493J597517D01*
G01*
X191106511Y-83913582D02*
G75*
G03*
X191110000Y-83905000I-8811J8582D01*
G01*
%TO.N,VCC*%
X189462036Y-68472018D02*
G75*
G03*
X189095000Y-68320000I-367036J-367082D01*
G01*
X191113530Y-68656459D02*
G75*
G03*
X191110000Y-68665000I8570J-8541D01*
G01*
X191106511Y-68673582D02*
G75*
G03*
X191110000Y-68665000I-8811J8582D01*
G01*
X189792507Y-68802517D02*
G75*
G03*
X190390000Y-69050000I597493J597517D01*
G01*
X191263639Y-68570017D02*
G75*
G03*
X191155000Y-68615000I-39J-153583D01*
G01*
X196483223Y-68570009D02*
G75*
G03*
X196785000Y-68445000I-23J426809D01*
G01*
X190474811Y-69049990D02*
G75*
G03*
X190925000Y-68860000I-11J628390D01*
G01*
%TO.N,RST*%
X97627510Y-50376522D02*
G75*
G03*
X98531007Y-50002264I-10J1277722D01*
G01*
X189792507Y-66262517D02*
G75*
G03*
X190390000Y-66510000I597493J597517D01*
G01*
X190474811Y-66510019D02*
G75*
G03*
X190924999Y-66319999I-11J628319D01*
G01*
X189462036Y-65932018D02*
G75*
G03*
X189095000Y-65780000I-367036J-367082D01*
G01*
X191106511Y-66133582D02*
G75*
G03*
X191110000Y-66125000I-8811J8582D01*
G01*
X100490604Y-48415817D02*
G75*
G03*
X101127590Y-48151958I-4J900817D01*
G01*
X191263639Y-66030015D02*
G75*
G03*
X191154999Y-66074999I-39J-153585D01*
G01*
X191113530Y-66116459D02*
G75*
G03*
X191110000Y-66125000I8570J-8541D01*
G01*
X196483223Y-66030009D02*
G75*
G03*
X196785000Y-65905000I-23J426809D01*
G01*
%TO.N,GND*%
X202680004Y-65766187D02*
G75*
G03*
X202314999Y-64885001I-1246204J-13D01*
G01*
X189792507Y-63722517D02*
G75*
G03*
X190390000Y-63970000I597493J597517D01*
G01*
X197834442Y-68164430D02*
G75*
G03*
X198210000Y-68320000I375558J375530D01*
G01*
X197834442Y-65624430D02*
G75*
G03*
X198210000Y-65780000I375558J375530D01*
G01*
X190474811Y-63970019D02*
G75*
G03*
X190924999Y-63779999I-11J628319D01*
G01*
X196895894Y-67589996D02*
G75*
G03*
X196325000Y-67830000I6J-799004D01*
G01*
X202314996Y-64885004D02*
G75*
G03*
X201433812Y-64520000I-881196J-881196D01*
G01*
X197691106Y-99750003D02*
G75*
G03*
X196484000Y-100250000I-6J-1707097D01*
G01*
X199590136Y-96930015D02*
G75*
G03*
X201775000Y-96025000I-36J3089915D01*
G01*
X196895894Y-65049996D02*
G75*
G03*
X196325000Y-65290000I6J-799004D01*
G01*
X189462036Y-63392018D02*
G75*
G03*
X189095000Y-63240000I-367036J-367082D01*
G01*
X197090987Y-64341013D02*
G75*
G03*
X197523144Y-64520000I432113J432113D01*
G01*
X191106511Y-63593582D02*
G75*
G03*
X191110000Y-63585000I-8811J8582D01*
G01*
X196733034Y-64341034D02*
G75*
G03*
X196912000Y-63908855I-432234J432134D01*
G01*
X197091000Y-64341000D02*
G75*
G03*
X196733000Y-64341000I-179000J-178997D01*
G01*
X196912019Y-63908855D02*
G75*
G03*
X197091000Y-64341000I611081J-45D01*
G01*
X197507492Y-65297482D02*
G75*
G03*
X196910000Y-65050000I-597492J-597518D01*
G01*
X197507492Y-67837482D02*
G75*
G03*
X196910000Y-67590000I-597492J-597518D01*
G01*
X191263639Y-63490015D02*
G75*
G03*
X191154999Y-63534999I-39J-153585D01*
G01*
X102843171Y-47024461D02*
G75*
G03*
X102469075Y-47927575I903129J-903139D01*
G01*
X190816776Y-65529991D02*
G75*
G03*
X190515000Y-65655000I24J-426809D01*
G01*
X195754105Y-68070004D02*
G75*
G03*
X196325000Y-67830000I-5J799004D01*
G01*
X98411790Y-51584169D02*
G75*
G03*
X99315288Y-51209951I10J1277769D01*
G01*
X190816776Y-68069991D02*
G75*
G03*
X190515000Y-68195000I24J-426809D01*
G01*
X195754105Y-65530004D02*
G75*
G03*
X196325000Y-65290000I-5J799004D01*
G01*
X191113530Y-63576459D02*
G75*
G03*
X191110000Y-63585000I8570J-8541D01*
G01*
X198427490Y-64522490D02*
G75*
G03*
X198425000Y-64528535I6010J-6010D01*
G01*
X198427561Y-64522561D02*
G75*
G03*
X198426464Y-64520000I-1061J1061D01*
G01*
X198433535Y-64520015D02*
G75*
G03*
X198427500Y-64522500I-35J-8485D01*
G01*
X194465005Y-96114995D02*
G75*
G03*
X196432584Y-96930000I1967595J1967595D01*
G01*
X196483223Y-63490009D02*
G75*
G03*
X196785000Y-63365000I-23J426809D01*
G01*
X201914992Y-98984992D02*
G75*
G03*
X202680000Y-97138126I-1846892J1846892D01*
G01*
X201774989Y-96024989D02*
G75*
G03*
X202680000Y-93840136I-2184889J2184889D01*
G01*
X202680088Y-96399863D02*
G75*
G03*
X201775000Y-96025000I-530188J-37D01*
G01*
X198433535Y-64520000D02*
X198426464Y-64520000D01*
X202680000Y-93840136D02*
X202680000Y-96399863D01*
%TO.N,RAW*%
X190474811Y-61430019D02*
G75*
G03*
X190924999Y-61239999I-11J628319D01*
G01*
X189462036Y-60852018D02*
G75*
G03*
X189095000Y-60700000I-367036J-367082D01*
G01*
X196483223Y-60950009D02*
G75*
G03*
X196785000Y-60825000I-23J426809D01*
G01*
X191113530Y-61036459D02*
G75*
G03*
X191110000Y-61045000I8570J-8541D01*
G01*
X191106511Y-61053582D02*
G75*
G03*
X191110000Y-61045000I-8811J8582D01*
G01*
X189792507Y-61182517D02*
G75*
G03*
X190390000Y-61430000I597493J597517D01*
G01*
X190870000Y-58885012D02*
G75*
G03*
X190562720Y-59012279I0J-434588D01*
G01*
X191263639Y-60950017D02*
G75*
G03*
X191155000Y-60995000I-39J-153583D01*
G01*
%TO.N,R4*%
X197834442Y-88484430D02*
G75*
G03*
X198210000Y-88640000I375558J375530D01*
G01*
X166611865Y-120652334D02*
G75*
G03*
X170459630Y-122246118I3847735J3847734D01*
G01*
X184947884Y-124925753D02*
G75*
G03*
X184056137Y-124556353I-891784J-891747D01*
G01*
X195754105Y-88390004D02*
G75*
G03*
X196325000Y-88150000I-5J799004D01*
G01*
X176589228Y-123875383D02*
G75*
G03*
X180436951Y-125469209I3847772J3847683D01*
G01*
X196895894Y-87909996D02*
G75*
G03*
X196325000Y-88150000I6J-799004D01*
G01*
X190816776Y-88389991D02*
G75*
G03*
X190515000Y-88515000I24J-426809D01*
G01*
X163332620Y-117373035D02*
G75*
G03*
X162657768Y-117093528I-674820J-674865D01*
G01*
X197507492Y-88157482D02*
G75*
G03*
X196910000Y-87910000I-597492J-597518D01*
G01*
X163612127Y-117652578D02*
X163332602Y-117373053D01*
%TO.N,R1*%
X93693801Y-56686215D02*
G75*
G03*
X92100000Y-60533963I3847799J-3847785D01*
G01*
X197834442Y-80864430D02*
G75*
G03*
X198210000Y-81020000I375558J375530D01*
G01*
X153189994Y-59500006D02*
G75*
G03*
X156811320Y-61000000I3621306J3621306D01*
G01*
X196895894Y-80289996D02*
G75*
G03*
X196325000Y-80530000I6J-799004D01*
G01*
X197507492Y-80537482D02*
G75*
G03*
X196910000Y-80290000I-597492J-597518D01*
G01*
X130752518Y-52947493D02*
G75*
G03*
X131000000Y-52350000I-597518J597493D01*
G01*
X121606036Y-59840010D02*
G75*
G03*
X125453792Y-58246207I-36J5441610D01*
G01*
X195754105Y-80770004D02*
G75*
G03*
X196325000Y-80530000I-5J799004D01*
G01*
X190816776Y-80769991D02*
G75*
G03*
X190515000Y-80895000I24J-426809D01*
G01*
X98103963Y-54529960D02*
G75*
G03*
X94256208Y-56123793I37J-5441540D01*
G01*
X148214990Y-56715010D02*
G75*
G03*
X145112735Y-55430000I-3102290J-3102290D01*
G01*
X112499986Y-57145000D02*
G75*
G03*
X111895423Y-55685423I-2064186J0D01*
G01*
X111620002Y-55409998D02*
G75*
G03*
X109495492Y-54530000I-2124502J-2124502D01*
G01*
X92100002Y-66756497D02*
G75*
G03*
X93050001Y-69049999I3243498J-3D01*
G01*
X135026215Y-53836199D02*
G75*
G03*
X138873963Y-55430000I3847785J3847799D01*
G01*
X115610007Y-58919993D02*
G75*
G03*
X117831076Y-59840000I2221093J2221093D01*
G01*
%TO.N,R2*%
X197507492Y-83077482D02*
G75*
G03*
X196910000Y-82830000I-597492J-597518D01*
G01*
X130724220Y-70555763D02*
G75*
G03*
X131000000Y-69890000I-665720J665763D01*
G01*
X148240003Y-74239997D02*
G75*
G03*
X145198090Y-72980000I-3041903J-3041903D01*
G01*
X115595011Y-76404989D02*
G75*
G03*
X117779863Y-77310000I2184889J2184889D01*
G01*
X195754105Y-83310004D02*
G75*
G03*
X196325000Y-83070000I-5J799004D01*
G01*
X196895894Y-82829996D02*
G75*
G03*
X196325000Y-83070000I6J-799004D01*
G01*
X190816776Y-83309991D02*
G75*
G03*
X190515000Y-83435000I24J-426809D01*
G01*
X135076215Y-71386199D02*
G75*
G03*
X138923963Y-72980000I3847785J3847799D01*
G01*
X121716036Y-77310010D02*
G75*
G03*
X125563792Y-75716207I-36J5441610D01*
G01*
X197834442Y-83404430D02*
G75*
G03*
X198210000Y-83560000I375558J375530D01*
G01*
X153189994Y-77000006D02*
G75*
G03*
X156811320Y-78500000I3621306J3621306D01*
G01*
%TO.N,R3*%
X132510000Y-87000010D02*
G75*
G03*
X131349167Y-87480832I0J-1641690D01*
G01*
X190816776Y-85849991D02*
G75*
G03*
X190515000Y-85975000I24J-426809D01*
G01*
X197834442Y-85944430D02*
G75*
G03*
X198210000Y-86100000I375558J375530D01*
G01*
X153189994Y-94500006D02*
G75*
G03*
X156811320Y-96000000I3621306J3621306D01*
G01*
X196895894Y-85369996D02*
G75*
G03*
X196325000Y-85610000I6J-799004D01*
G01*
X121716036Y-94860010D02*
G75*
G03*
X125563792Y-93266207I-36J5441610D01*
G01*
X195754105Y-85850004D02*
G75*
G03*
X196325000Y-85610000I-5J799004D01*
G01*
X135096215Y-88906199D02*
G75*
G03*
X138943963Y-90500000I3847785J3847799D01*
G01*
X150439990Y-91750010D02*
G75*
G03*
X147422233Y-90500000I-3017790J-3017790D01*
G01*
X115619995Y-93930005D02*
G75*
G03*
X117865218Y-94860000I2245205J2245205D01*
G01*
X197507492Y-85617482D02*
G75*
G03*
X196910000Y-85370000I-597492J-597518D01*
G01*
%TO.N,in_home*%
X191290504Y-127776715D02*
G75*
G03*
X192742713Y-127175178I-4J2053715D01*
G01*
X189025660Y-127407331D02*
G75*
G03*
X189917434Y-127776705I891740J891731D01*
G01*
%TO.N,T2*%
X190474811Y-89370019D02*
G75*
G03*
X190924999Y-89179999I-11J628319D01*
G01*
X184980001Y-87840001D02*
G75*
G03*
X184530000Y-88926396I1086399J-1086399D01*
G01*
X189462036Y-88792018D02*
G75*
G03*
X189095000Y-88640000I-367036J-367082D01*
G01*
X186066396Y-87389999D02*
G75*
G03*
X184980000Y-87840000I4J-1536401D01*
G01*
X190228803Y-113931383D02*
G75*
G03*
X189109803Y-114394879I-3J-1582517D01*
G01*
X188562512Y-87702488D02*
G75*
G03*
X187808058Y-87390000I-754412J-754412D01*
G01*
X196483223Y-88890009D02*
G75*
G03*
X196785000Y-88765000I-23J426809D01*
G01*
X188875012Y-88327500D02*
G75*
G03*
X188654029Y-87794029I-754412J0D01*
G01*
X191113530Y-88976459D02*
G75*
G03*
X191110000Y-88985000I8570J-8541D01*
G01*
X189792507Y-89122517D02*
G75*
G03*
X190390000Y-89370000I597493J597517D01*
G01*
X191106511Y-88993582D02*
G75*
G03*
X191110000Y-88985000I-8811J8582D01*
G01*
X191263639Y-88890017D02*
G75*
G03*
X191155000Y-88935000I-39J-153583D01*
G01*
X184530031Y-103515278D02*
G75*
G03*
X186123793Y-107363033I5441569J-22D01*
G01*
%TO.N,out_home*%
X169199662Y-119065708D02*
G75*
G03*
X169734976Y-118843994I38J757008D01*
G01*
X174987759Y-113591183D02*
G75*
G03*
X175463608Y-112442435I-1148759J1148783D01*
G01*
X167079193Y-118786220D02*
G75*
G03*
X167754041Y-119065730I674807J674820D01*
G01*
%TO.N,T1*%
X190474811Y-86830019D02*
G75*
G03*
X190924999Y-86639999I-11J628319D01*
G01*
X181399969Y-105039608D02*
G75*
G03*
X183210184Y-104289815I31J2560008D01*
G01*
X186315807Y-84870004D02*
G75*
G03*
X184650001Y-85560001I-7J-2355796D01*
G01*
X183210178Y-104289809D02*
G75*
G03*
X183960000Y-102479600I-1810178J1810209D01*
G01*
X189462036Y-86252018D02*
G75*
G03*
X189095000Y-86100000I-367036J-367082D01*
G01*
X167596003Y-105039626D02*
G75*
G03*
X165711427Y-105820247I-3J-2665174D01*
G01*
X191113530Y-86436459D02*
G75*
G03*
X191110000Y-86445000I8570J-8541D01*
G01*
X184649998Y-85559998D02*
G75*
G03*
X183960000Y-87225807I1665802J-1665802D01*
G01*
X196483223Y-86350009D02*
G75*
G03*
X196785000Y-86225000I-23J426809D01*
G01*
X191106511Y-86453582D02*
G75*
G03*
X191110000Y-86445000I-8811J8582D01*
G01*
X188875012Y-85787500D02*
G75*
G03*
X188654029Y-85254029I-754412J0D01*
G01*
X189792507Y-86582517D02*
G75*
G03*
X190390000Y-86830000I597493J597517D01*
G01*
X191263639Y-86350017D02*
G75*
G03*
X191155000Y-86395000I-39J-153583D01*
G01*
X188572500Y-85172500D02*
G75*
G03*
X187842200Y-84870000I-730300J-730300D01*
G01*
%TO.N,inner_top*%
X180760033Y-58049986D02*
G75*
G03*
X182275000Y-54392500I-3657533J3657486D01*
G01*
%TO.N,inner_mid*%
X180760033Y-75549986D02*
G75*
G03*
X182275000Y-71892500I-3657533J3657486D01*
G01*
%TO.N,inner_bot*%
X180760033Y-93049986D02*
G75*
G03*
X182275000Y-89392500I-3657533J3657486D01*
G01*
%TO.N,C5*%
X190474811Y-81750019D02*
G75*
G03*
X190924999Y-81559999I-11J628319D01*
G01*
X168838384Y-58161607D02*
G75*
G03*
X168750000Y-58375000I213416J-213393D01*
G01*
X189462036Y-81172018D02*
G75*
G03*
X189095000Y-81020000I-367036J-367082D01*
G01*
X191106511Y-81373582D02*
G75*
G03*
X191110000Y-81365000I-8811J8582D01*
G01*
X191263639Y-81270015D02*
G75*
G03*
X191154999Y-81314999I-39J-153585D01*
G01*
X168750015Y-81678464D02*
G75*
G03*
X169737500Y-84062500I3371485J-36D01*
G01*
X191113530Y-81356459D02*
G75*
G03*
X191110000Y-81365000I8570J-8541D01*
G01*
X168838384Y-75661607D02*
G75*
G03*
X168750000Y-75875000I213416J-213393D01*
G01*
X196483223Y-81270009D02*
G75*
G03*
X196785000Y-81145000I-23J426809D01*
G01*
X168750015Y-64178464D02*
G75*
G03*
X169737500Y-66562500I3371485J-36D01*
G01*
X189792507Y-81502517D02*
G75*
G03*
X190390000Y-81750000I597493J597517D01*
G01*
%TO.N,index_top*%
X162260033Y-55049986D02*
G75*
G03*
X163775000Y-51392500I-3657533J3657486D01*
G01*
%TO.N,index_mid*%
X162260033Y-72549986D02*
G75*
G03*
X163775000Y-68892500I-3657533J3657486D01*
G01*
%TO.N,index_bot*%
X162260033Y-90049986D02*
G75*
G03*
X163775000Y-86392500I-3657533J3657486D01*
G01*
%TO.N,C4*%
X189792507Y-78962517D02*
G75*
G03*
X190390000Y-79210000I597493J597517D01*
G01*
X190474811Y-79210019D02*
G75*
G03*
X190924999Y-79019999I-11J628319D01*
G01*
X150338384Y-72661607D02*
G75*
G03*
X150250000Y-72875000I213416J-213393D01*
G01*
X189462036Y-78632018D02*
G75*
G03*
X189095000Y-78480000I-367036J-367082D01*
G01*
X191106511Y-78833582D02*
G75*
G03*
X191110000Y-78825000I-8811J8582D01*
G01*
X191263639Y-78730015D02*
G75*
G03*
X191154999Y-78774999I-39J-153585D01*
G01*
X191113530Y-78816459D02*
G75*
G03*
X191110000Y-78825000I8570J-8541D01*
G01*
X150250015Y-61178464D02*
G75*
G03*
X151237500Y-63562500I3371485J-36D01*
G01*
X196483223Y-78730009D02*
G75*
G03*
X196785000Y-78605000I-23J426809D01*
G01*
X150338384Y-55161607D02*
G75*
G03*
X150250000Y-55375000I213416J-213393D01*
G01*
X150250015Y-78678464D02*
G75*
G03*
X151237500Y-81062500I3371485J-36D01*
G01*
%TO.N,middle_top*%
X143760033Y-49049986D02*
G75*
G03*
X145275000Y-45392500I-3657533J3657486D01*
G01*
%TO.N,middle_mid*%
X143760033Y-66549986D02*
G75*
G03*
X145275000Y-62892500I-3657533J3657486D01*
G01*
%TO.N,middle_bot*%
X143760033Y-84049986D02*
G75*
G03*
X145275000Y-80392500I-3657533J3657486D01*
G01*
%TO.N,C3*%
X189792507Y-76422517D02*
G75*
G03*
X190390000Y-76670000I597493J597517D01*
G01*
X131750015Y-55178464D02*
G75*
G03*
X132737500Y-57562500I3371485J-36D01*
G01*
X190474811Y-76670019D02*
G75*
G03*
X190924999Y-76479999I-11J628319D01*
G01*
X189462036Y-76092018D02*
G75*
G03*
X189095000Y-75940000I-367036J-367082D01*
G01*
X131838384Y-49161607D02*
G75*
G03*
X131750000Y-49375000I213416J-213393D01*
G01*
X191106511Y-76293582D02*
G75*
G03*
X191110000Y-76285000I-8811J8582D01*
G01*
X191263639Y-76190015D02*
G75*
G03*
X191154999Y-76234999I-39J-153585D01*
G01*
X131750015Y-72678464D02*
G75*
G03*
X132737500Y-75062500I3371485J-36D01*
G01*
X191113530Y-76276459D02*
G75*
G03*
X191110000Y-76285000I8570J-8541D01*
G01*
X131838384Y-66661607D02*
G75*
G03*
X131750000Y-66875000I213416J-213393D01*
G01*
X196483223Y-76190009D02*
G75*
G03*
X196785000Y-76065000I-23J426809D01*
G01*
%TO.N,ring_top*%
X125260033Y-55049986D02*
G75*
G03*
X126775000Y-51392500I-3657533J3657486D01*
G01*
%TO.N,ring_mid*%
X125260033Y-72549986D02*
G75*
G03*
X126775000Y-68892500I-3657533J3657486D01*
G01*
%TO.N,ring_bot*%
X125260033Y-90049986D02*
G75*
G03*
X126775000Y-86392500I-3657533J3657486D01*
G01*
%TO.N,C2*%
X189792507Y-73882517D02*
G75*
G03*
X190390000Y-74130000I597493J597517D01*
G01*
X113338384Y-72661607D02*
G75*
G03*
X113250000Y-72875000I213416J-213393D01*
G01*
X190474811Y-74130019D02*
G75*
G03*
X190924999Y-73939999I-11J628319D01*
G01*
X189462036Y-73552018D02*
G75*
G03*
X189095000Y-73400000I-367036J-367082D01*
G01*
X191106511Y-73753582D02*
G75*
G03*
X191110000Y-73745000I-8811J8582D01*
G01*
X191263639Y-73650015D02*
G75*
G03*
X191154999Y-73694999I-39J-153585D01*
G01*
X191113530Y-73736459D02*
G75*
G03*
X191110000Y-73745000I8570J-8541D01*
G01*
X113250015Y-61178464D02*
G75*
G03*
X114237500Y-63562500I3371485J-36D01*
G01*
X113338384Y-55161607D02*
G75*
G03*
X113250000Y-55375000I213416J-213393D01*
G01*
X196483223Y-73650009D02*
G75*
G03*
X196785000Y-73525000I-23J426809D01*
G01*
X113250015Y-78678464D02*
G75*
G03*
X114237500Y-81062500I3371485J-36D01*
G01*
%TO.N,pinky_top*%
X106760033Y-67049986D02*
G75*
G03*
X108275000Y-63392500I-3657533J3657486D01*
G01*
%TO.N,pinky_mid*%
X106760033Y-84549986D02*
G75*
G03*
X108275000Y-80892500I-3657533J3657486D01*
G01*
%TO.N,pinky_bot*%
X106760033Y-102049986D02*
G75*
G03*
X108275000Y-98392500I-3657533J3657486D01*
G01*
%TO.N,C1*%
X94838384Y-67161607D02*
G75*
G03*
X94750000Y-67375000I213416J-213393D01*
G01*
X189792507Y-71342517D02*
G75*
G03*
X190390000Y-71590000I597493J597517D01*
G01*
X94750015Y-90678464D02*
G75*
G03*
X95737500Y-93062500I3371485J-36D01*
G01*
X190474811Y-71590019D02*
G75*
G03*
X190924999Y-71399999I-11J628319D01*
G01*
X189462036Y-71012018D02*
G75*
G03*
X189095000Y-70860000I-367036J-367082D01*
G01*
X191106511Y-71213582D02*
G75*
G03*
X191110000Y-71205000I-8811J8582D01*
G01*
X191263639Y-71110015D02*
G75*
G03*
X191154999Y-71154999I-39J-153585D01*
G01*
X94838384Y-84661607D02*
G75*
G03*
X94750000Y-84875000I213416J-213393D01*
G01*
X191113530Y-71196459D02*
G75*
G03*
X191110000Y-71205000I8570J-8541D01*
G01*
X196483223Y-71110009D02*
G75*
G03*
X196785000Y-70985000I-23J426809D01*
G01*
X94750015Y-73178464D02*
G75*
G03*
X95737500Y-75562500I3371485J-36D01*
G01*
%TO.N,pos*%
X195048750Y-101888750D02*
X195042500Y-101882500D01*
X195991250Y-56551250D02*
X196141091Y-56701091D01*
%TO.N,T1*%
X183960000Y-102479600D02*
X183960000Y-87225807D01*
X187842200Y-84870000D02*
X186315807Y-84870000D01*
X188654029Y-85254029D02*
X188572500Y-85172500D01*
X168699962Y-105039631D02*
X181399969Y-105039631D01*
%TO.N,T2*%
X187808058Y-87390000D02*
X186066396Y-87390000D01*
X188654029Y-87794029D02*
X188562500Y-87702500D01*
X184530000Y-103515278D02*
X184530000Y-88926396D01*
X186123792Y-107363034D02*
X192692132Y-113931374D01*
%TO.N,pos*%
X194875000Y-99750000D02*
X194875000Y-101478119D01*
X195739203Y-102360000D02*
X198960517Y-102360000D01*
X193300000Y-56012500D02*
X194690592Y-56012500D01*
%TO.N,GND*%
X198425000Y-65780000D02*
X198425000Y-64528535D01*
X197523144Y-64520000D02*
X198426464Y-64520000D01*
X198433535Y-64520000D02*
X201433812Y-64520000D01*
X198425000Y-65780000D02*
X198425000Y-68320000D01*
X199590136Y-96930000D02*
X196432584Y-96930000D01*
X202680000Y-93840136D02*
X202680000Y-65766187D01*
X202680000Y-96399863D02*
X202680000Y-97138126D01*
X193700000Y-95350000D02*
X194465000Y-96115000D01*
X196912000Y-63908855D02*
X196912000Y-63240000D01*
X201150000Y-99750000D02*
X201915000Y-98985000D01*
%TO.N,DISP1_1*%
X188570000Y-91900000D02*
X188570000Y-94350000D01*
%TO.N,DISP1_2*%
X191110000Y-91900000D02*
X191110000Y-94350000D01*
%TO.N,DISP1_4*%
X196190000Y-91900000D02*
X196190000Y-94350000D01*
%TO.N,DISP1_5*%
X198730000Y-91900000D02*
X198730000Y-94350000D01*
%TO.N,RAW*%
X190562720Y-59012279D02*
X188875000Y-60700000D01*
%TO.N,R4*%
X185107083Y-125469209D02*
X180436951Y-125469209D01*
X174959897Y-122246118D02*
X176589195Y-123875416D01*
X174959897Y-122246118D02*
X170459630Y-122246118D01*
X166611874Y-120652325D02*
X164171177Y-118211628D01*
%TO.N,GND*%
X102469075Y-47927575D02*
X102469075Y-48456613D01*
X102843161Y-47024451D02*
X103498296Y-46369317D01*
%TO.N,R1*%
X93050000Y-69050000D02*
X94000000Y-70000000D01*
X94256207Y-56123792D02*
X93693792Y-56686206D01*
X92100000Y-60533963D02*
X92100000Y-66756497D01*
X109495492Y-54530000D02*
X98103963Y-54530000D01*
X111620000Y-55410000D02*
X111895423Y-55685423D01*
X112500000Y-57145000D02*
X112500000Y-58000000D01*
%TO.N,C5*%
X174000000Y-53000000D02*
X168838388Y-58161611D01*
X168838388Y-75661611D02*
X174000000Y-70500000D01*
%TO.N,C4*%
X155500000Y-67500000D02*
X150338388Y-72661611D01*
X150338388Y-55161611D02*
X155500000Y-50000000D01*
%TO.N,C3*%
X137000000Y-44000000D02*
X131838388Y-49161611D01*
X131838388Y-66661611D02*
X137000000Y-61500000D01*
%TO.N,C2*%
X113338388Y-55161611D02*
X118500000Y-50000000D01*
X118500000Y-67500000D02*
X113338388Y-72661611D01*
%TO.N,C1*%
X94838388Y-84661611D02*
X100000000Y-79500000D01*
X100000000Y-62000000D02*
X94838388Y-67161611D01*
%TO.N,GND*%
X102469075Y-48456613D02*
X101443774Y-49481913D01*
%TO.N,RST*%
X101127590Y-48151958D02*
X101820954Y-47458595D01*
X99853618Y-48679655D02*
X98531008Y-50002265D01*
%TO.N,GND*%
X100760167Y-49765072D02*
X99315288Y-51209951D01*
%TO.N,R1*%
X130752512Y-52947487D02*
X125453792Y-58246207D01*
X131000000Y-52350000D02*
X131000000Y-52000000D01*
X121606036Y-59840000D02*
X117831076Y-59840000D01*
X115610000Y-58920000D02*
X114690000Y-58000000D01*
%TO.N,R2*%
X131000000Y-69890000D02*
X131000000Y-69500000D01*
X125563792Y-75716207D02*
X130724228Y-70555771D01*
X121716036Y-77310000D02*
X117779863Y-77310000D01*
X115595000Y-76405000D02*
X114690000Y-75500000D01*
%TO.N,R3*%
X131349167Y-87480832D02*
X125563792Y-93266207D01*
X117865218Y-94860000D02*
X121716036Y-94860000D01*
X114690000Y-93000000D02*
X115620000Y-93930000D01*
X138943963Y-90500000D02*
X147422233Y-90500000D01*
X151690000Y-93000000D02*
X150440000Y-91750000D01*
X135096207Y-88906207D02*
X133430416Y-87240416D01*
%TO.N,R2*%
X138923963Y-72980000D02*
X145198090Y-72980000D01*
X148240000Y-74240000D02*
X149500000Y-75500000D01*
X133190000Y-69500000D02*
X135076207Y-71386207D01*
%TO.N,R1*%
X148215000Y-56715000D02*
X149500000Y-58000000D01*
X135026207Y-53836207D02*
X133190000Y-52000000D01*
X145112735Y-55430000D02*
X138873963Y-55430000D01*
X156811320Y-61000000D02*
X168000000Y-61000000D01*
X153190000Y-59500000D02*
X151690000Y-58000000D01*
%TO.N,R2*%
X153190000Y-77000000D02*
X151690000Y-75500000D01*
X156811320Y-78500000D02*
X168000000Y-78500000D01*
%TO.N,R3*%
X151690000Y-93000000D02*
X153190000Y-94500000D01*
X156811320Y-96000000D02*
X170190000Y-96000000D01*
X96190000Y-105000000D02*
X98350000Y-105000000D01*
%TO.N,pinky_bot*%
X103810000Y-105000000D02*
X101650000Y-105000000D01*
%TO.N,R2*%
X96190000Y-87500000D02*
X98350000Y-87500000D01*
%TO.N,pinky_mid*%
X103810000Y-87500000D02*
X101650000Y-87500000D01*
%TO.N,R1*%
X96190000Y-70000000D02*
X98350000Y-70000000D01*
%TO.N,pinky_top*%
X103810000Y-70000000D02*
X101650000Y-70000000D01*
%TO.N,R1*%
X114690000Y-58000000D02*
X116850000Y-58000000D01*
%TO.N,ring_top*%
X122310000Y-58000000D02*
X120150000Y-58000000D01*
%TO.N,R2*%
X114690000Y-75500000D02*
X116850000Y-75500000D01*
%TO.N,ring_mid*%
X122310000Y-75500000D02*
X120150000Y-75500000D01*
%TO.N,R3*%
X114690000Y-93000000D02*
X116850000Y-93000000D01*
%TO.N,ring_bot*%
X122310000Y-93000000D02*
X120150000Y-93000000D01*
%TO.N,R3*%
X133530000Y-87000000D02*
X135350000Y-87000000D01*
%TO.N,middle_bot*%
X140810000Y-87000000D02*
X138650000Y-87000000D01*
%TO.N,R2*%
X133190000Y-69500000D02*
X135350000Y-69500000D01*
%TO.N,middle_mid*%
X140810000Y-69500000D02*
X138650000Y-69500000D01*
%TO.N,R1*%
X133190000Y-52000000D02*
X135350000Y-52000000D01*
%TO.N,middle_top*%
X140810000Y-52000000D02*
X138650000Y-52000000D01*
%TO.N,R1*%
X151690000Y-58000000D02*
X153850000Y-58000000D01*
%TO.N,index_top*%
X159310000Y-58000000D02*
X157150000Y-58000000D01*
%TO.N,R1*%
X170190000Y-61000000D02*
X172350000Y-61000000D01*
%TO.N,inner_top*%
X177810000Y-61000000D02*
X175650000Y-61000000D01*
%TO.N,R2*%
X151690000Y-75500000D02*
X153850000Y-75500000D01*
%TO.N,index_mid*%
X159310000Y-75500000D02*
X157150000Y-75500000D01*
%TO.N,R2*%
X170190000Y-78500000D02*
X172350000Y-78500000D01*
%TO.N,inner_mid*%
X177810000Y-78500000D02*
X175650000Y-78500000D01*
%TO.N,R3*%
X151690000Y-93000000D02*
X153850000Y-93000000D01*
%TO.N,index_bot*%
X159310000Y-93000000D02*
X157150000Y-93000000D01*
%TO.N,R3*%
X170190000Y-96000000D02*
X172350000Y-96000000D01*
%TO.N,inner_bot*%
X177810000Y-96000000D02*
X175650000Y-96000000D01*
%TO.N,R4*%
X162657768Y-117093528D02*
X161525728Y-117093528D01*
%TO.N,out_home*%
X167079208Y-118786205D02*
X166799683Y-118506680D01*
X167754041Y-119065730D02*
X168258920Y-119065730D01*
%TO.N,R4*%
X185219640Y-125197471D02*
X184947903Y-124925734D01*
%TO.N,in_home*%
X189025668Y-127407323D02*
X188482194Y-126863849D01*
%TO.N,DPC*%
X186100000Y-91065000D02*
X186100000Y-91350000D01*
X186301525Y-90578474D02*
X186580000Y-90300000D01*
X199118040Y-89820000D02*
X187738822Y-89820000D01*
X201030000Y-94926740D02*
X201030000Y-91731959D01*
X197794680Y-96190000D02*
X199766740Y-96190000D01*
X196660000Y-95720000D02*
X196190000Y-95250000D01*
%TO.N,DPD*%
X186900000Y-91745000D02*
X186900000Y-92100000D01*
X187349999Y-90939999D02*
X187151022Y-91138977D01*
X200230000Y-91958111D02*
X200230000Y-94140380D01*
X188436396Y-90490000D02*
X198761888Y-90490000D01*
X199904999Y-94924999D02*
X199880520Y-94949479D01*
%TO.N,DPE*%
X185300000Y-91715000D02*
X185300000Y-90600000D01*
X187419479Y-94949479D02*
X186088424Y-93618424D01*
%TO.N,GND*%
X193564644Y-95250000D02*
X191110000Y-95250000D01*
X201150000Y-99750000D02*
X197691106Y-99750000D01*
X196484000Y-100250000D02*
X195984000Y-100750000D01*
%TO.N,pos*%
X194875000Y-99750000D02*
X195836462Y-98788537D01*
%TO.N,C5*%
X168750000Y-58750000D02*
X168750000Y-64178464D01*
X168750000Y-81678464D02*
X168750000Y-76250000D01*
%TO.N,C4*%
X150250000Y-73250000D02*
X150250000Y-78678464D01*
X150250000Y-55750000D02*
X150250000Y-61178464D01*
%TO.N,C3*%
X131750000Y-72678464D02*
X131750000Y-67250000D01*
X131750000Y-55178464D02*
X131750000Y-49750000D01*
%TO.N,C2*%
X113250000Y-73250000D02*
X113250000Y-78678464D01*
X113250000Y-55750000D02*
X113250000Y-61178464D01*
%TO.N,C1*%
X94750000Y-90678464D02*
X94750000Y-85250000D01*
X94750000Y-67750000D02*
X94750000Y-73178464D01*
%TO.N,pinky_top*%
X106760023Y-67049976D02*
X103810000Y-70000000D01*
X108275000Y-63392500D02*
X108275000Y-61250000D01*
%TO.N,C1*%
X100000000Y-62000000D02*
X97164904Y-59164904D01*
X97164904Y-76664904D02*
X100000000Y-79500000D01*
%TO.N,pinky_mid*%
X108275000Y-80892500D02*
X108275000Y-78750000D01*
X103810000Y-87500000D02*
X106760023Y-84549976D01*
%TO.N,C1*%
X97164904Y-94164904D02*
X100000000Y-97000000D01*
%TO.N,pinky_bot*%
X106760023Y-102049976D02*
X103810000Y-105000000D01*
X108275000Y-98392500D02*
X108275000Y-96250000D01*
%TO.N,C2*%
X115664904Y-64664904D02*
X118500000Y-67500000D01*
X115664904Y-82164904D02*
X118500000Y-85000000D01*
%TO.N,ring_bot*%
X122310000Y-93000000D02*
X125260023Y-90049976D01*
X126775000Y-86392500D02*
X126775000Y-84250000D01*
%TO.N,ring_mid*%
X126775000Y-68892500D02*
X126775000Y-66750000D01*
X125260023Y-72549976D02*
X122310000Y-75500000D01*
%TO.N,ring_top*%
X122310000Y-58000000D02*
X125260023Y-55049976D01*
X126775000Y-51392500D02*
X126775000Y-49250000D01*
%TO.N,C2*%
X115664904Y-47164904D02*
X118500000Y-50000000D01*
%TO.N,C3*%
X134164904Y-76164904D02*
X137000000Y-79000000D01*
%TO.N,middle_bot*%
X140810000Y-87000000D02*
X143760023Y-84049976D01*
X145275000Y-80392500D02*
X145275000Y-78250000D01*
%TO.N,middle_top*%
X140810000Y-52000000D02*
X143760023Y-49049976D01*
X145275000Y-45392500D02*
X145275000Y-43250000D01*
%TO.N,C3*%
X134164904Y-41164904D02*
X137000000Y-44000000D01*
X134164904Y-58664904D02*
X137000000Y-61500000D01*
%TO.N,middle_mid*%
X143760023Y-66549976D02*
X140810000Y-69500000D01*
X145275000Y-62892500D02*
X145275000Y-60750000D01*
%TO.N,index_mid*%
X162260023Y-72549976D02*
X159310000Y-75500000D01*
X163775000Y-68892500D02*
X163775000Y-66750000D01*
%TO.N,C4*%
X152664904Y-64664904D02*
X155500000Y-67500000D01*
%TO.N,index_top*%
X163775000Y-51392500D02*
X163775000Y-49250000D01*
X162260023Y-55049976D02*
X159310000Y-58000000D01*
%TO.N,C4*%
X152664904Y-47164904D02*
X155500000Y-50000000D01*
X152664904Y-82164904D02*
X155500000Y-85000000D01*
%TO.N,index_bot*%
X162260023Y-90049976D02*
X159310000Y-93000000D01*
X163775000Y-86392500D02*
X163775000Y-84250000D01*
%TO.N,inner_bot*%
X177810000Y-96000000D02*
X180760023Y-93049976D01*
X182275000Y-89392500D02*
X182275000Y-87250000D01*
%TO.N,C5*%
X171164904Y-85164904D02*
X174000000Y-88000000D01*
%TO.N,inner_mid*%
X180760023Y-75549976D02*
X177810000Y-78500000D01*
X182275000Y-71892500D02*
X182275000Y-69750000D01*
%TO.N,C5*%
X171164904Y-67664904D02*
X174000000Y-70500000D01*
X174000000Y-53000000D02*
X171164904Y-50164904D01*
%TO.N,inner_top*%
X177810000Y-61000000D02*
X180760023Y-58049976D01*
X182275000Y-54392500D02*
X182275000Y-52250000D01*
%TO.N,out_home*%
X169734977Y-118843995D02*
X174987774Y-113591198D01*
%TO.N,T1*%
X167596003Y-105039631D02*
X168699962Y-105039631D01*
%TO.N,in_home*%
X191290504Y-127776705D02*
X191126353Y-127776705D01*
X192742714Y-127175179D02*
X198184392Y-121733502D01*
%TO.N,T2*%
X192692132Y-113931374D02*
X190228803Y-113931374D01*
%TO.N,pos*%
X193300000Y-56012500D02*
X193300000Y-57604669D01*
X193675000Y-58510000D02*
X194050000Y-58885000D01*
%TO.N,RAW*%
X189792512Y-61182512D02*
X189462027Y-60852027D01*
X190474811Y-61430000D02*
X190390000Y-61430000D01*
X191106511Y-61053582D02*
X190924999Y-61239999D01*
X191113535Y-61036464D02*
X191155000Y-60995000D01*
X191263639Y-60950000D02*
X196483223Y-60950000D01*
%TO.N,F2*%
X196895894Y-59970000D02*
X196910000Y-59970000D01*
X197507487Y-60217487D02*
X197834436Y-60544436D01*
X195754105Y-60450000D02*
X190816776Y-60450000D01*
%TO.N,MCU1_24*%
X186030000Y-60700000D02*
X188150000Y-60700000D01*
%TO.N,MCU1_1*%
X201270000Y-60700000D02*
X199150000Y-60700000D01*
%TO.N,GND*%
X189792512Y-63722512D02*
X189462027Y-63392027D01*
X190474811Y-63970000D02*
X190390000Y-63970000D01*
X191106511Y-63593582D02*
X190924999Y-63779999D01*
X191154999Y-63534999D02*
X191113535Y-63576464D01*
X191263639Y-63490000D02*
X196483223Y-63490000D01*
%TO.N,F1*%
X196895894Y-62510000D02*
X196910000Y-62510000D01*
X197834436Y-63084436D02*
X197507487Y-62757487D01*
X195754105Y-62990000D02*
X190816776Y-62990000D01*
%TO.N,MCU1_23*%
X186030000Y-63240000D02*
X188150000Y-63240000D01*
%TO.N,MCU1_2*%
X201270000Y-63240000D02*
X199150000Y-63240000D01*
%TO.N,RST*%
X189792512Y-66262512D02*
X189462027Y-65932027D01*
X190390000Y-66510000D02*
X190474811Y-66510000D01*
X191106511Y-66133582D02*
X190924999Y-66319999D01*
X191113535Y-66116464D02*
X191154999Y-66074999D01*
X191263639Y-66030000D02*
X196483223Y-66030000D01*
%TO.N,GND*%
X196910000Y-65050000D02*
X196895894Y-65050000D01*
X197834436Y-65624436D02*
X197507487Y-65297487D01*
X195754105Y-65530000D02*
X190816776Y-65530000D01*
%TO.N,MCU1_22*%
X186030000Y-65780000D02*
X188150000Y-65780000D01*
%TO.N,MCU1_3*%
X201270000Y-65780000D02*
X199150000Y-65780000D01*
%TO.N,VCC*%
X189792512Y-68802512D02*
X189462027Y-68472027D01*
X190390000Y-69050000D02*
X190474811Y-69050000D01*
X191106511Y-68673582D02*
X190925000Y-68860000D01*
X191113535Y-68656464D02*
X191155000Y-68615000D01*
X191263639Y-68570000D02*
X196483223Y-68570000D01*
%TO.N,GND*%
X196910000Y-67590000D02*
X196895894Y-67590000D01*
X197507487Y-67837487D02*
X197834436Y-68164436D01*
X190816776Y-68070000D02*
X195754105Y-68070000D01*
%TO.N,MCU1_21*%
X186030000Y-68320000D02*
X188150000Y-68320000D01*
%TO.N,MCU1_4*%
X201270000Y-68320000D02*
X199150000Y-68320000D01*
%TO.N,C1*%
X189792512Y-71342512D02*
X189462027Y-71012027D01*
X190390000Y-71590000D02*
X190474811Y-71590000D01*
X191106511Y-71213582D02*
X190924999Y-71399999D01*
X191113535Y-71196464D02*
X191154999Y-71154999D01*
X191263639Y-71110000D02*
X196483223Y-71110000D01*
%TO.N,F3*%
X196910000Y-70130000D02*
X196895894Y-70130000D01*
X197834436Y-70704436D02*
X197507487Y-70377487D01*
X190816776Y-70610000D02*
X195754105Y-70610000D01*
%TO.N,MCU1_20*%
X186030000Y-70860000D02*
X188150000Y-70860000D01*
%TO.N,MCU1_5*%
X201270000Y-70860000D02*
X199150000Y-70860000D01*
%TO.N,C2*%
X189792512Y-73882512D02*
X189462027Y-73552027D01*
X190390000Y-74130000D02*
X190474811Y-74130000D01*
X191106511Y-73753582D02*
X190924999Y-73939999D01*
X191113535Y-73736464D02*
X191154999Y-73694999D01*
X191263639Y-73650000D02*
X196483223Y-73650000D01*
%TO.N,DPD*%
X196895894Y-72670000D02*
X196910000Y-72670000D01*
X197834436Y-73244436D02*
X197507487Y-72917487D01*
X190816776Y-73150000D02*
X195754105Y-73150000D01*
%TO.N,MCU1_19*%
X186030000Y-73400000D02*
X188150000Y-73400000D01*
%TO.N,MCU1_6*%
X201270000Y-73400000D02*
X199150000Y-73400000D01*
%TO.N,C3*%
X189462027Y-76092027D02*
X189792512Y-76422512D01*
X190390000Y-76670000D02*
X190474811Y-76670000D01*
X191106511Y-76293582D02*
X190924999Y-76479999D01*
X191113535Y-76276464D02*
X191154999Y-76234999D01*
X191263639Y-76190000D02*
X196483223Y-76190000D01*
%TO.N,DPC*%
X196895894Y-75210000D02*
X196910000Y-75210000D01*
X197834436Y-75784436D02*
X197507487Y-75457487D01*
X190816776Y-75690000D02*
X195754105Y-75690000D01*
%TO.N,MCU1_18*%
X186030000Y-75940000D02*
X188150000Y-75940000D01*
%TO.N,MCU1_7*%
X201270000Y-75940000D02*
X199150000Y-75940000D01*
%TO.N,C4*%
X189462027Y-78632027D02*
X189792512Y-78962512D01*
X190390000Y-79210000D02*
X190474811Y-79210000D01*
X190924999Y-79019999D02*
X191106511Y-78833582D01*
X191113535Y-78816464D02*
X191154999Y-78774999D01*
X191263639Y-78730000D02*
X196483223Y-78730000D01*
%TO.N,DPE*%
X196895894Y-77750000D02*
X196910000Y-77750000D01*
X197834436Y-78324436D02*
X197507487Y-77997487D01*
X195754105Y-78230000D02*
X190816776Y-78230000D01*
%TO.N,MCU1_17*%
X186030000Y-78480000D02*
X188150000Y-78480000D01*
%TO.N,MCU1_8*%
X201270000Y-78480000D02*
X199150000Y-78480000D01*
%TO.N,C5*%
X189462027Y-81172027D02*
X189792512Y-81502512D01*
X190390000Y-81750000D02*
X190474811Y-81750000D01*
X190924999Y-81559999D02*
X191106511Y-81373582D01*
X191113535Y-81356464D02*
X191154999Y-81314999D01*
X191263639Y-81270000D02*
X196483223Y-81270000D01*
%TO.N,R1*%
X196895894Y-80290000D02*
X196910000Y-80290000D01*
X197834436Y-80864436D02*
X197507487Y-80537487D01*
X190816776Y-80770000D02*
X195754105Y-80770000D01*
%TO.N,MCU1_16*%
X186030000Y-81020000D02*
X188150000Y-81020000D01*
%TO.N,MCU1_9*%
X201270000Y-81020000D02*
X199150000Y-81020000D01*
%TO.N,F4*%
X189462027Y-83712027D02*
X189792512Y-84042512D01*
X190390000Y-84290000D02*
X190474811Y-84290000D01*
X190924999Y-84099999D02*
X191106511Y-83913582D01*
X191154999Y-83854999D02*
X191113535Y-83896464D01*
X196483223Y-83810000D02*
X191263639Y-83810000D01*
%TO.N,R2*%
X196895894Y-82830000D02*
X196910000Y-82830000D01*
X197834436Y-83404436D02*
X197507487Y-83077487D01*
X190816776Y-83310000D02*
X195754105Y-83310000D01*
%TO.N,MCU1_15*%
X186030000Y-83560000D02*
X188150000Y-83560000D01*
%TO.N,MCU1_10*%
X201270000Y-83560000D02*
X199150000Y-83560000D01*
%TO.N,T1*%
X189462027Y-86252027D02*
X189792512Y-86582512D01*
X190390000Y-86830000D02*
X190474811Y-86830000D01*
X190924999Y-86639999D02*
X191106511Y-86453582D01*
X191155000Y-86395000D02*
X191113535Y-86436464D01*
X196483223Y-86350000D02*
X191263639Y-86350000D01*
%TO.N,R3*%
X196895894Y-85370000D02*
X196910000Y-85370000D01*
X197834436Y-85944436D02*
X197507487Y-85617487D01*
X190816776Y-85850000D02*
X195754105Y-85850000D01*
%TO.N,MCU1_14*%
X186030000Y-86100000D02*
X188150000Y-86100000D01*
%TO.N,MCU1_11*%
X201270000Y-86100000D02*
X199150000Y-86100000D01*
%TO.N,T2*%
X189462027Y-88792027D02*
X189792512Y-89122512D01*
X190474811Y-89370000D02*
X190390000Y-89370000D01*
X190924999Y-89179999D02*
X191106511Y-88993582D01*
X191155000Y-88935000D02*
X191113535Y-88976464D01*
X196483223Y-88890000D02*
X191263639Y-88890000D01*
%TO.N,R4*%
X196895894Y-87910000D02*
X196910000Y-87910000D01*
X197834436Y-88484436D02*
X197507487Y-88157487D01*
X190816776Y-88390000D02*
X195754105Y-88390000D01*
%TO.N,MCU1_13*%
X186030000Y-88640000D02*
X188150000Y-88640000D01*
%TO.N,MCU1_12*%
X201270000Y-88640000D02*
X199150000Y-88640000D01*
%TO.N,JST1_1*%
X197000000Y-98750000D02*
X198800000Y-98750000D01*
%TO.N,JST1_2*%
X197000000Y-100750000D02*
X198800000Y-100750000D01*
%TD*%
M02*
