%TF.GenerationSoftware,KiCad,Pcbnew,7.0.10*%
%TF.CreationDate,2024-01-15T23:59:05+02:00*%
%TF.ProjectId,snak_final,736e616b-5f66-4696-9e61-6c2e6b696361,0.1*%
%TF.SameCoordinates,Original*%
%TF.FileFunction,Drillmap*%
%TF.FilePolarity,Positive*%
%FSLAX45Y45*%
G04 Gerber Fmt 4.5, Leading zero omitted, Abs format (unit mm)*
G04 Created by KiCad (PCBNEW 7.0.10) date 2024-01-15 23:59:05*
%MOMM*%
%LPD*%
G01*
G04 APERTURE LIST*
%ADD10C,0.150000*%
%ADD11C,0.200000*%
%ADD12C,0.100000*%
%ADD13C,0.170180*%
%ADD14C,0.300000*%
%ADD15C,0.342900*%
G04 APERTURE END LIST*
D10*
X8955000Y-10813657D02*
X8955000Y-5585343D01*
X18800000Y-5530000D02*
X20055000Y-5530000D01*
X20355000Y-5830000D02*
X20355000Y-11555000D01*
X20355000Y-11555000D02*
X20332926Y-11714821D01*
X20332926Y-11714821D02*
X19566834Y-13357710D01*
X8955000Y-10813657D02*
G75*
G03*
X9172953Y-11102219I300000J0D01*
G01*
X18505000Y-5284544D02*
G75*
G03*
X18800000Y-5530000I295000J54544D01*
G01*
X20355000Y-5830000D02*
G75*
G03*
X20055000Y-5530000I-300000J0D01*
G01*
X19252830Y-13527954D02*
G75*
G03*
X19566834Y-13357710I42111J297030D01*
G01*
X18505000Y-5284544D02*
X18505000Y-4815509D01*
X12409448Y-3647250D02*
G75*
G03*
X9071134Y-5348291I2790552J-9602750D01*
G01*
X18319617Y-4538267D02*
G75*
G03*
X12467326Y-3636447I-4775717J-11551733D01*
G01*
X19252830Y-13527954D02*
G75*
G03*
X9172953Y-11102219I-10402830J-21072046D01*
G01*
X9071134Y-5348291D02*
G75*
G03*
X8955000Y-5585343I183866J-237051D01*
G01*
X12467326Y-3636447D02*
G75*
G03*
X12409448Y-3647250I25838J-298885D01*
G01*
X18505000Y-4815509D02*
G75*
G03*
X18319617Y-4538267I-300000J0D01*
G01*
D11*
D12*
X19135000Y-5667500D02*
X19225000Y-5757500D01*
X19225000Y-5667500D02*
X19135000Y-5757500D01*
X19435000Y-5667500D02*
X19525000Y-5757500D01*
X19525000Y-5667500D02*
X19435000Y-5757500D01*
D13*
X9535090Y-6500000D02*
G75*
G03*
X9364910Y-6500000I-85090J0D01*
G01*
X9364910Y-6500000D02*
G75*
G03*
X9535090Y-6500000I85090J0D01*
G01*
X9535090Y-8250000D02*
G75*
G03*
X9364910Y-8250000I-85090J0D01*
G01*
X9364910Y-8250000D02*
G75*
G03*
X9535090Y-8250000I85090J0D01*
G01*
X9535090Y-10000000D02*
G75*
G03*
X9364910Y-10000000I-85090J0D01*
G01*
X9364910Y-10000000D02*
G75*
G03*
X9535090Y-10000000I85090J0D01*
G01*
X10635090Y-6500000D02*
G75*
G03*
X10464910Y-6500000I-85090J0D01*
G01*
X10464910Y-6500000D02*
G75*
G03*
X10635090Y-6500000I85090J0D01*
G01*
X10635090Y-8250000D02*
G75*
G03*
X10464910Y-8250000I-85090J0D01*
G01*
X10464910Y-8250000D02*
G75*
G03*
X10635090Y-8250000I85090J0D01*
G01*
X10635090Y-10000000D02*
G75*
G03*
X10464910Y-10000000I-85090J0D01*
G01*
X10464910Y-10000000D02*
G75*
G03*
X10635090Y-10000000I85090J0D01*
G01*
X11385090Y-5300000D02*
G75*
G03*
X11214910Y-5300000I-85090J0D01*
G01*
X11214910Y-5300000D02*
G75*
G03*
X11385090Y-5300000I85090J0D01*
G01*
X11385090Y-7050000D02*
G75*
G03*
X11214910Y-7050000I-85090J0D01*
G01*
X11214910Y-7050000D02*
G75*
G03*
X11385090Y-7050000I85090J0D01*
G01*
X11385090Y-8800000D02*
G75*
G03*
X11214910Y-8800000I-85090J0D01*
G01*
X11214910Y-8800000D02*
G75*
G03*
X11385090Y-8800000I85090J0D01*
G01*
X12485090Y-5300000D02*
G75*
G03*
X12314910Y-5300000I-85090J0D01*
G01*
X12314910Y-5300000D02*
G75*
G03*
X12485090Y-5300000I85090J0D01*
G01*
X12485090Y-7050000D02*
G75*
G03*
X12314910Y-7050000I-85090J0D01*
G01*
X12314910Y-7050000D02*
G75*
G03*
X12485090Y-7050000I85090J0D01*
G01*
X12485090Y-8800000D02*
G75*
G03*
X12314910Y-8800000I-85090J0D01*
G01*
X12314910Y-8800000D02*
G75*
G03*
X12485090Y-8800000I85090J0D01*
G01*
X13235090Y-4700000D02*
G75*
G03*
X13064910Y-4700000I-85090J0D01*
G01*
X13064910Y-4700000D02*
G75*
G03*
X13235090Y-4700000I85090J0D01*
G01*
X13235090Y-6450000D02*
G75*
G03*
X13064910Y-6450000I-85090J0D01*
G01*
X13064910Y-6450000D02*
G75*
G03*
X13235090Y-6450000I85090J0D01*
G01*
X13235090Y-8200000D02*
G75*
G03*
X13064910Y-8200000I-85090J0D01*
G01*
X13064910Y-8200000D02*
G75*
G03*
X13235090Y-8200000I85090J0D01*
G01*
X14335090Y-4700000D02*
G75*
G03*
X14164910Y-4700000I-85090J0D01*
G01*
X14164910Y-4700000D02*
G75*
G03*
X14335090Y-4700000I85090J0D01*
G01*
X14335090Y-6450000D02*
G75*
G03*
X14164910Y-6450000I-85090J0D01*
G01*
X14164910Y-6450000D02*
G75*
G03*
X14335090Y-6450000I85090J0D01*
G01*
X14335090Y-8200000D02*
G75*
G03*
X14164910Y-8200000I-85090J0D01*
G01*
X14164910Y-8200000D02*
G75*
G03*
X14335090Y-8200000I85090J0D01*
G01*
X15085090Y-5300000D02*
G75*
G03*
X14914910Y-5300000I-85090J0D01*
G01*
X14914910Y-5300000D02*
G75*
G03*
X15085090Y-5300000I85090J0D01*
G01*
X15085090Y-7050000D02*
G75*
G03*
X14914910Y-7050000I-85090J0D01*
G01*
X14914910Y-7050000D02*
G75*
G03*
X15085090Y-7050000I85090J0D01*
G01*
X15085090Y-8800000D02*
G75*
G03*
X14914910Y-8800000I-85090J0D01*
G01*
X14914910Y-8800000D02*
G75*
G03*
X15085090Y-8800000I85090J0D01*
G01*
X16185090Y-5300000D02*
G75*
G03*
X16014910Y-5300000I-85090J0D01*
G01*
X16014910Y-5300000D02*
G75*
G03*
X16185090Y-5300000I85090J0D01*
G01*
X16185090Y-7050000D02*
G75*
G03*
X16014910Y-7050000I-85090J0D01*
G01*
X16014910Y-7050000D02*
G75*
G03*
X16185090Y-7050000I85090J0D01*
G01*
X16185090Y-8800000D02*
G75*
G03*
X16014910Y-8800000I-85090J0D01*
G01*
X16014910Y-8800000D02*
G75*
G03*
X16185090Y-8800000I85090J0D01*
G01*
X16203831Y-11182650D02*
G75*
G03*
X16033651Y-11182650I-85090J0D01*
G01*
X16033651Y-11182650D02*
G75*
G03*
X16203831Y-11182650I85090J0D01*
G01*
X16935090Y-5600000D02*
G75*
G03*
X16764910Y-5600000I-85090J0D01*
G01*
X16764910Y-5600000D02*
G75*
G03*
X16935090Y-5600000I85090J0D01*
G01*
X16935090Y-7350000D02*
G75*
G03*
X16764910Y-7350000I-85090J0D01*
G01*
X16764910Y-7350000D02*
G75*
G03*
X16935090Y-7350000I85090J0D01*
G01*
X16935090Y-9100000D02*
G75*
G03*
X16764910Y-9100000I-85090J0D01*
G01*
X16764910Y-9100000D02*
G75*
G03*
X16935090Y-9100000I85090J0D01*
G01*
X17266349Y-11467350D02*
G75*
G03*
X17096169Y-11467350I-85090J0D01*
G01*
X17096169Y-11467350D02*
G75*
G03*
X17266349Y-11467350I85090J0D01*
G01*
X18035090Y-5600000D02*
G75*
G03*
X17864910Y-5600000I-85090J0D01*
G01*
X17864910Y-5600000D02*
G75*
G03*
X18035090Y-5600000I85090J0D01*
G01*
X18035090Y-7350000D02*
G75*
G03*
X17864910Y-7350000I-85090J0D01*
G01*
X17864910Y-7350000D02*
G75*
G03*
X18035090Y-7350000I85090J0D01*
G01*
X18035090Y-9100000D02*
G75*
G03*
X17864910Y-9100000I-85090J0D01*
G01*
X17864910Y-9100000D02*
G75*
G03*
X18035090Y-9100000I85090J0D01*
G01*
X18496608Y-11931059D02*
G75*
G03*
X18326428Y-11931059I-85090J0D01*
G01*
X18326428Y-11931059D02*
G75*
G03*
X18496608Y-11931059I85090J0D01*
G01*
X19493547Y-12395939D02*
G75*
G03*
X19323367Y-12395939I-85090J0D01*
G01*
X19323367Y-12395939D02*
G75*
G03*
X19493547Y-12395939I85090J0D01*
G01*
D14*
X9500000Y-5975000D02*
X9500000Y-6275000D01*
X9350000Y-6125000D02*
X9650000Y-6125000D01*
X9500000Y-7725000D02*
X9500000Y-8025000D01*
X9350000Y-7875000D02*
X9650000Y-7875000D01*
X9500000Y-9475000D02*
X9500000Y-9775000D01*
X9350000Y-9625000D02*
X9650000Y-9625000D01*
X10000000Y-5755000D02*
X10000000Y-6055000D01*
X9850000Y-5905000D02*
X10150000Y-5905000D01*
X10000000Y-7505000D02*
X10000000Y-7805000D01*
X9850000Y-7655000D02*
X10150000Y-7655000D01*
X10000000Y-9255000D02*
X10000000Y-9555000D01*
X9850000Y-9405000D02*
X10150000Y-9405000D01*
X10500000Y-5975000D02*
X10500000Y-6275000D01*
X10350000Y-6125000D02*
X10650000Y-6125000D01*
X10500000Y-7725000D02*
X10500000Y-8025000D01*
X10350000Y-7875000D02*
X10650000Y-7875000D01*
X10500000Y-9475000D02*
X10500000Y-9775000D01*
X10350000Y-9625000D02*
X10650000Y-9625000D01*
X11350000Y-4775000D02*
X11350000Y-5075000D01*
X11200000Y-4925000D02*
X11500000Y-4925000D01*
X11350000Y-6525000D02*
X11350000Y-6825000D01*
X11200000Y-6675000D02*
X11500000Y-6675000D01*
X11350000Y-8275000D02*
X11350000Y-8575000D01*
X11200000Y-8425000D02*
X11500000Y-8425000D01*
X11850000Y-4555000D02*
X11850000Y-4855000D01*
X11700000Y-4705000D02*
X12000000Y-4705000D01*
X11850000Y-6305000D02*
X11850000Y-6605000D01*
X11700000Y-6455000D02*
X12000000Y-6455000D01*
X11850000Y-8055000D02*
X11850000Y-8355000D01*
X11700000Y-8205000D02*
X12000000Y-8205000D01*
X12350000Y-4775000D02*
X12350000Y-5075000D01*
X12200000Y-4925000D02*
X12500000Y-4925000D01*
X12350000Y-6525000D02*
X12350000Y-6825000D01*
X12200000Y-6675000D02*
X12500000Y-6675000D01*
X12350000Y-8275000D02*
X12350000Y-8575000D01*
X12200000Y-8425000D02*
X12500000Y-8425000D01*
X13200000Y-4175000D02*
X13200000Y-4475000D01*
X13050000Y-4325000D02*
X13350000Y-4325000D01*
X13200000Y-5925000D02*
X13200000Y-6225000D01*
X13050000Y-6075000D02*
X13350000Y-6075000D01*
X13200000Y-7675000D02*
X13200000Y-7975000D01*
X13050000Y-7825000D02*
X13350000Y-7825000D01*
X13700000Y-3955000D02*
X13700000Y-4255000D01*
X13550000Y-4105000D02*
X13850000Y-4105000D01*
X13700000Y-5705000D02*
X13700000Y-6005000D01*
X13550000Y-5855000D02*
X13850000Y-5855000D01*
X13700000Y-7455000D02*
X13700000Y-7755000D01*
X13550000Y-7605000D02*
X13850000Y-7605000D01*
X14200000Y-4175000D02*
X14200000Y-4475000D01*
X14050000Y-4325000D02*
X14350000Y-4325000D01*
X14200000Y-5925000D02*
X14200000Y-6225000D01*
X14050000Y-6075000D02*
X14350000Y-6075000D01*
X14200000Y-7675000D02*
X14200000Y-7975000D01*
X14050000Y-7825000D02*
X14350000Y-7825000D01*
X15050000Y-4775000D02*
X15050000Y-5075000D01*
X14900000Y-4925000D02*
X15200000Y-4925000D01*
X15050000Y-6525000D02*
X15050000Y-6825000D01*
X14900000Y-6675000D02*
X15200000Y-6675000D01*
X15050000Y-8275000D02*
X15050000Y-8575000D01*
X14900000Y-8425000D02*
X15200000Y-8425000D01*
X15550000Y-4555000D02*
X15550000Y-4855000D01*
X15400000Y-4705000D02*
X15700000Y-4705000D01*
X15550000Y-6305000D02*
X15550000Y-6605000D01*
X15400000Y-6455000D02*
X15700000Y-6455000D01*
X15550000Y-8055000D02*
X15550000Y-8355000D01*
X15400000Y-8205000D02*
X15700000Y-8205000D01*
X16050000Y-4775000D02*
X16050000Y-5075000D01*
X15900000Y-4925000D02*
X16200000Y-4925000D01*
X16050000Y-6525000D02*
X16050000Y-6825000D01*
X15900000Y-6675000D02*
X16200000Y-6675000D01*
X16050000Y-8275000D02*
X16050000Y-8575000D01*
X15900000Y-8425000D02*
X16200000Y-8425000D01*
X16264094Y-10683368D02*
X16264094Y-10983368D01*
X16114094Y-10833368D02*
X16414094Y-10833368D01*
X16803997Y-10600274D02*
X16803997Y-10900274D01*
X16653997Y-10750274D02*
X16953997Y-10750274D01*
X16900000Y-5075000D02*
X16900000Y-5375000D01*
X16750000Y-5225000D02*
X17050000Y-5225000D01*
X16900000Y-6825000D02*
X16900000Y-7125000D01*
X16750000Y-6975000D02*
X17050000Y-6975000D01*
X16900000Y-8575000D02*
X16900000Y-8875000D01*
X16750000Y-8725000D02*
X17050000Y-8725000D01*
X17230020Y-10942187D02*
X17230020Y-11242187D01*
X17080020Y-11092187D02*
X17380020Y-11092187D01*
X17400000Y-4855000D02*
X17400000Y-5155000D01*
X17250000Y-5005000D02*
X17550000Y-5005000D01*
X17400000Y-6605000D02*
X17400000Y-6905000D01*
X17250000Y-6755000D02*
X17550000Y-6755000D01*
X17400000Y-8355000D02*
X17400000Y-8655000D01*
X17250000Y-8505000D02*
X17550000Y-8505000D01*
X17900000Y-5075000D02*
X17900000Y-5375000D01*
X17750000Y-5225000D02*
X18050000Y-5225000D01*
X17900000Y-6825000D02*
X17900000Y-7125000D01*
X17750000Y-6975000D02*
X18050000Y-6975000D01*
X17900000Y-8575000D02*
X17900000Y-8875000D01*
X17750000Y-8725000D02*
X18050000Y-8725000D01*
X18615316Y-11462324D02*
X18615316Y-11762324D01*
X18465316Y-11612324D02*
X18765316Y-11612324D01*
X19161446Y-11474246D02*
X19161446Y-11774246D01*
X19011446Y-11624246D02*
X19311446Y-11624246D01*
X19521623Y-11884943D02*
X19521623Y-12184943D01*
X19371623Y-12034943D02*
X19671623Y-12034943D01*
D15*
X10121235Y-6621235D02*
X10121235Y-6378765D01*
X9878765Y-6378765D01*
X9878765Y-6621235D01*
X10121235Y-6621235D01*
X10121235Y-8371235D02*
X10121235Y-8128765D01*
X9878765Y-8128765D01*
X9878765Y-8371235D01*
X10121235Y-8371235D01*
X10121235Y-10121235D02*
X10121235Y-9878765D01*
X9878765Y-9878765D01*
X9878765Y-10121235D01*
X10121235Y-10121235D01*
X11971235Y-5421235D02*
X11971235Y-5178765D01*
X11728765Y-5178765D01*
X11728765Y-5421235D01*
X11971235Y-5421235D01*
X11971235Y-7171235D02*
X11971235Y-6928765D01*
X11728765Y-6928765D01*
X11728765Y-7171235D01*
X11971235Y-7171235D01*
X11971235Y-8921235D02*
X11971235Y-8678765D01*
X11728765Y-8678765D01*
X11728765Y-8921235D01*
X11971235Y-8921235D01*
X13821235Y-4821235D02*
X13821235Y-4578765D01*
X13578765Y-4578765D01*
X13578765Y-4821235D01*
X13821235Y-4821235D01*
X13821235Y-6571235D02*
X13821235Y-6328765D01*
X13578765Y-6328765D01*
X13578765Y-6571235D01*
X13821235Y-6571235D01*
X13821235Y-8321235D02*
X13821235Y-8078765D01*
X13578765Y-8078765D01*
X13578765Y-8321235D01*
X13821235Y-8321235D01*
X15671235Y-5421235D02*
X15671235Y-5178765D01*
X15428765Y-5178765D01*
X15428765Y-5421235D01*
X15671235Y-5421235D01*
X15671235Y-7171235D02*
X15671235Y-6928765D01*
X15428765Y-6928765D01*
X15428765Y-7171235D01*
X15671235Y-7171235D01*
X15671235Y-8921235D02*
X15671235Y-8678765D01*
X15428765Y-8678765D01*
X15428765Y-8921235D01*
X15671235Y-8921235D01*
X16771235Y-11446235D02*
X16771235Y-11203765D01*
X16528765Y-11203765D01*
X16528765Y-11446235D01*
X16771235Y-11446235D01*
X17521235Y-5721235D02*
X17521235Y-5478765D01*
X17278765Y-5478765D01*
X17278765Y-5721235D01*
X17521235Y-5721235D01*
X17521235Y-7471235D02*
X17521235Y-7228765D01*
X17278765Y-7228765D01*
X17278765Y-7471235D01*
X17521235Y-7471235D01*
X17521235Y-9221235D02*
X17521235Y-8978765D01*
X17278765Y-8978765D01*
X17278765Y-9221235D01*
X17521235Y-9221235D01*
X19031222Y-12284734D02*
X19031222Y-12042264D01*
X18788753Y-12042264D01*
X18788753Y-12284734D01*
X19031222Y-12284734D01*
D11*
X9208277Y-13849908D02*
X9208277Y-13649908D01*
X9208277Y-13649908D02*
X9255896Y-13649908D01*
X9255896Y-13649908D02*
X9284467Y-13659432D01*
X9284467Y-13659432D02*
X9303515Y-13678479D01*
X9303515Y-13678479D02*
X9313039Y-13697527D01*
X9313039Y-13697527D02*
X9322563Y-13735622D01*
X9322563Y-13735622D02*
X9322563Y-13764194D01*
X9322563Y-13764194D02*
X9313039Y-13802289D01*
X9313039Y-13802289D02*
X9303515Y-13821336D01*
X9303515Y-13821336D02*
X9284467Y-13840384D01*
X9284467Y-13840384D02*
X9255896Y-13849908D01*
X9255896Y-13849908D02*
X9208277Y-13849908D01*
X9408277Y-13849908D02*
X9408277Y-13716575D01*
X9408277Y-13754670D02*
X9417801Y-13735622D01*
X9417801Y-13735622D02*
X9427324Y-13726098D01*
X9427324Y-13726098D02*
X9446372Y-13716575D01*
X9446372Y-13716575D02*
X9465420Y-13716575D01*
X9532086Y-13849908D02*
X9532086Y-13716575D01*
X9532086Y-13649908D02*
X9522563Y-13659432D01*
X9522563Y-13659432D02*
X9532086Y-13668956D01*
X9532086Y-13668956D02*
X9541610Y-13659432D01*
X9541610Y-13659432D02*
X9532086Y-13649908D01*
X9532086Y-13649908D02*
X9532086Y-13668956D01*
X9655896Y-13849908D02*
X9636848Y-13840384D01*
X9636848Y-13840384D02*
X9627324Y-13821336D01*
X9627324Y-13821336D02*
X9627324Y-13649908D01*
X9760658Y-13849908D02*
X9741610Y-13840384D01*
X9741610Y-13840384D02*
X9732086Y-13821336D01*
X9732086Y-13821336D02*
X9732086Y-13649908D01*
X9989229Y-13849908D02*
X9989229Y-13649908D01*
X9989229Y-13649908D02*
X10055896Y-13792765D01*
X10055896Y-13792765D02*
X10122563Y-13649908D01*
X10122563Y-13649908D02*
X10122563Y-13849908D01*
X10303515Y-13849908D02*
X10303515Y-13745146D01*
X10303515Y-13745146D02*
X10293991Y-13726098D01*
X10293991Y-13726098D02*
X10274944Y-13716575D01*
X10274944Y-13716575D02*
X10236848Y-13716575D01*
X10236848Y-13716575D02*
X10217801Y-13726098D01*
X10303515Y-13840384D02*
X10284467Y-13849908D01*
X10284467Y-13849908D02*
X10236848Y-13849908D01*
X10236848Y-13849908D02*
X10217801Y-13840384D01*
X10217801Y-13840384D02*
X10208277Y-13821336D01*
X10208277Y-13821336D02*
X10208277Y-13802289D01*
X10208277Y-13802289D02*
X10217801Y-13783241D01*
X10217801Y-13783241D02*
X10236848Y-13773717D01*
X10236848Y-13773717D02*
X10284467Y-13773717D01*
X10284467Y-13773717D02*
X10303515Y-13764194D01*
X10398753Y-13716575D02*
X10398753Y-13916575D01*
X10398753Y-13726098D02*
X10417801Y-13716575D01*
X10417801Y-13716575D02*
X10455896Y-13716575D01*
X10455896Y-13716575D02*
X10474944Y-13726098D01*
X10474944Y-13726098D02*
X10484467Y-13735622D01*
X10484467Y-13735622D02*
X10493991Y-13754670D01*
X10493991Y-13754670D02*
X10493991Y-13811813D01*
X10493991Y-13811813D02*
X10484467Y-13830860D01*
X10484467Y-13830860D02*
X10474944Y-13840384D01*
X10474944Y-13840384D02*
X10455896Y-13849908D01*
X10455896Y-13849908D02*
X10417801Y-13849908D01*
X10417801Y-13849908D02*
X10398753Y-13840384D01*
X10579705Y-13830860D02*
X10589229Y-13840384D01*
X10589229Y-13840384D02*
X10579705Y-13849908D01*
X10579705Y-13849908D02*
X10570182Y-13840384D01*
X10570182Y-13840384D02*
X10579705Y-13830860D01*
X10579705Y-13830860D02*
X10579705Y-13849908D01*
X10579705Y-13726098D02*
X10589229Y-13735622D01*
X10589229Y-13735622D02*
X10579705Y-13745146D01*
X10579705Y-13745146D02*
X10570182Y-13735622D01*
X10570182Y-13735622D02*
X10579705Y-13726098D01*
X10579705Y-13726098D02*
X10579705Y-13745146D01*
D12*
X8857500Y-14133424D02*
X8947500Y-14223424D01*
X8947500Y-14133424D02*
X8857500Y-14223424D01*
D11*
X9246372Y-14069908D02*
X9265420Y-14069908D01*
X9265420Y-14069908D02*
X9284467Y-14079432D01*
X9284467Y-14079432D02*
X9293991Y-14088956D01*
X9293991Y-14088956D02*
X9303515Y-14108003D01*
X9303515Y-14108003D02*
X9313039Y-14146098D01*
X9313039Y-14146098D02*
X9313039Y-14193717D01*
X9313039Y-14193717D02*
X9303515Y-14231813D01*
X9303515Y-14231813D02*
X9293991Y-14250860D01*
X9293991Y-14250860D02*
X9284467Y-14260384D01*
X9284467Y-14260384D02*
X9265420Y-14269908D01*
X9265420Y-14269908D02*
X9246372Y-14269908D01*
X9246372Y-14269908D02*
X9227324Y-14260384D01*
X9227324Y-14260384D02*
X9217801Y-14250860D01*
X9217801Y-14250860D02*
X9208277Y-14231813D01*
X9208277Y-14231813D02*
X9198753Y-14193717D01*
X9198753Y-14193717D02*
X9198753Y-14146098D01*
X9198753Y-14146098D02*
X9208277Y-14108003D01*
X9208277Y-14108003D02*
X9217801Y-14088956D01*
X9217801Y-14088956D02*
X9227324Y-14079432D01*
X9227324Y-14079432D02*
X9246372Y-14069908D01*
X9398753Y-14250860D02*
X9408277Y-14260384D01*
X9408277Y-14260384D02*
X9398753Y-14269908D01*
X9398753Y-14269908D02*
X9389229Y-14260384D01*
X9389229Y-14260384D02*
X9398753Y-14250860D01*
X9398753Y-14250860D02*
X9398753Y-14269908D01*
X9503515Y-14269908D02*
X9541610Y-14269908D01*
X9541610Y-14269908D02*
X9560658Y-14260384D01*
X9560658Y-14260384D02*
X9570182Y-14250860D01*
X9570182Y-14250860D02*
X9589229Y-14222289D01*
X9589229Y-14222289D02*
X9598753Y-14184194D01*
X9598753Y-14184194D02*
X9598753Y-14108003D01*
X9598753Y-14108003D02*
X9589229Y-14088956D01*
X9589229Y-14088956D02*
X9579705Y-14079432D01*
X9579705Y-14079432D02*
X9560658Y-14069908D01*
X9560658Y-14069908D02*
X9522563Y-14069908D01*
X9522563Y-14069908D02*
X9503515Y-14079432D01*
X9503515Y-14079432D02*
X9493991Y-14088956D01*
X9493991Y-14088956D02*
X9484467Y-14108003D01*
X9484467Y-14108003D02*
X9484467Y-14155622D01*
X9484467Y-14155622D02*
X9493991Y-14174670D01*
X9493991Y-14174670D02*
X9503515Y-14184194D01*
X9503515Y-14184194D02*
X9522563Y-14193717D01*
X9522563Y-14193717D02*
X9560658Y-14193717D01*
X9560658Y-14193717D02*
X9579705Y-14184194D01*
X9579705Y-14184194D02*
X9589229Y-14174670D01*
X9589229Y-14174670D02*
X9598753Y-14155622D01*
X9722563Y-14069908D02*
X9741610Y-14069908D01*
X9741610Y-14069908D02*
X9760658Y-14079432D01*
X9760658Y-14079432D02*
X9770182Y-14088956D01*
X9770182Y-14088956D02*
X9779705Y-14108003D01*
X9779705Y-14108003D02*
X9789229Y-14146098D01*
X9789229Y-14146098D02*
X9789229Y-14193717D01*
X9789229Y-14193717D02*
X9779705Y-14231813D01*
X9779705Y-14231813D02*
X9770182Y-14250860D01*
X9770182Y-14250860D02*
X9760658Y-14260384D01*
X9760658Y-14260384D02*
X9741610Y-14269908D01*
X9741610Y-14269908D02*
X9722563Y-14269908D01*
X9722563Y-14269908D02*
X9703515Y-14260384D01*
X9703515Y-14260384D02*
X9693991Y-14250860D01*
X9693991Y-14250860D02*
X9684467Y-14231813D01*
X9684467Y-14231813D02*
X9674944Y-14193717D01*
X9674944Y-14193717D02*
X9674944Y-14146098D01*
X9674944Y-14146098D02*
X9684467Y-14108003D01*
X9684467Y-14108003D02*
X9693991Y-14088956D01*
X9693991Y-14088956D02*
X9703515Y-14079432D01*
X9703515Y-14079432D02*
X9722563Y-14069908D01*
X9913039Y-14069908D02*
X9932086Y-14069908D01*
X9932086Y-14069908D02*
X9951134Y-14079432D01*
X9951134Y-14079432D02*
X9960658Y-14088956D01*
X9960658Y-14088956D02*
X9970182Y-14108003D01*
X9970182Y-14108003D02*
X9979705Y-14146098D01*
X9979705Y-14146098D02*
X9979705Y-14193717D01*
X9979705Y-14193717D02*
X9970182Y-14231813D01*
X9970182Y-14231813D02*
X9960658Y-14250860D01*
X9960658Y-14250860D02*
X9951134Y-14260384D01*
X9951134Y-14260384D02*
X9932086Y-14269908D01*
X9932086Y-14269908D02*
X9913039Y-14269908D01*
X9913039Y-14269908D02*
X9893991Y-14260384D01*
X9893991Y-14260384D02*
X9884467Y-14250860D01*
X9884467Y-14250860D02*
X9874944Y-14231813D01*
X9874944Y-14231813D02*
X9865420Y-14193717D01*
X9865420Y-14193717D02*
X9865420Y-14146098D01*
X9865420Y-14146098D02*
X9874944Y-14108003D01*
X9874944Y-14108003D02*
X9884467Y-14088956D01*
X9884467Y-14088956D02*
X9893991Y-14079432D01*
X9893991Y-14079432D02*
X9913039Y-14069908D01*
X10065420Y-14269908D02*
X10065420Y-14136575D01*
X10065420Y-14155622D02*
X10074944Y-14146098D01*
X10074944Y-14146098D02*
X10093991Y-14136575D01*
X10093991Y-14136575D02*
X10122563Y-14136575D01*
X10122563Y-14136575D02*
X10141610Y-14146098D01*
X10141610Y-14146098D02*
X10151134Y-14165146D01*
X10151134Y-14165146D02*
X10151134Y-14269908D01*
X10151134Y-14165146D02*
X10160658Y-14146098D01*
X10160658Y-14146098D02*
X10179705Y-14136575D01*
X10179705Y-14136575D02*
X10208277Y-14136575D01*
X10208277Y-14136575D02*
X10227325Y-14146098D01*
X10227325Y-14146098D02*
X10236848Y-14165146D01*
X10236848Y-14165146D02*
X10236848Y-14269908D01*
X10332086Y-14269908D02*
X10332086Y-14136575D01*
X10332086Y-14155622D02*
X10341610Y-14146098D01*
X10341610Y-14146098D02*
X10360658Y-14136575D01*
X10360658Y-14136575D02*
X10389229Y-14136575D01*
X10389229Y-14136575D02*
X10408277Y-14146098D01*
X10408277Y-14146098D02*
X10417801Y-14165146D01*
X10417801Y-14165146D02*
X10417801Y-14269908D01*
X10417801Y-14165146D02*
X10427325Y-14146098D01*
X10427325Y-14146098D02*
X10446372Y-14136575D01*
X10446372Y-14136575D02*
X10474944Y-14136575D01*
X10474944Y-14136575D02*
X10493991Y-14146098D01*
X10493991Y-14146098D02*
X10503515Y-14165146D01*
X10503515Y-14165146D02*
X10503515Y-14269908D01*
X10893991Y-14060384D02*
X10722563Y-14317527D01*
X11151134Y-14069908D02*
X11170182Y-14069908D01*
X11170182Y-14069908D02*
X11189229Y-14079432D01*
X11189229Y-14079432D02*
X11198753Y-14088956D01*
X11198753Y-14088956D02*
X11208277Y-14108003D01*
X11208277Y-14108003D02*
X11217801Y-14146098D01*
X11217801Y-14146098D02*
X11217801Y-14193717D01*
X11217801Y-14193717D02*
X11208277Y-14231813D01*
X11208277Y-14231813D02*
X11198753Y-14250860D01*
X11198753Y-14250860D02*
X11189229Y-14260384D01*
X11189229Y-14260384D02*
X11170182Y-14269908D01*
X11170182Y-14269908D02*
X11151134Y-14269908D01*
X11151134Y-14269908D02*
X11132087Y-14260384D01*
X11132087Y-14260384D02*
X11122563Y-14250860D01*
X11122563Y-14250860D02*
X11113039Y-14231813D01*
X11113039Y-14231813D02*
X11103515Y-14193717D01*
X11103515Y-14193717D02*
X11103515Y-14146098D01*
X11103515Y-14146098D02*
X11113039Y-14108003D01*
X11113039Y-14108003D02*
X11122563Y-14088956D01*
X11122563Y-14088956D02*
X11132087Y-14079432D01*
X11132087Y-14079432D02*
X11151134Y-14069908D01*
X11303515Y-14250860D02*
X11313039Y-14260384D01*
X11313039Y-14260384D02*
X11303515Y-14269908D01*
X11303515Y-14269908D02*
X11293991Y-14260384D01*
X11293991Y-14260384D02*
X11303515Y-14250860D01*
X11303515Y-14250860D02*
X11303515Y-14269908D01*
X11436848Y-14069908D02*
X11455896Y-14069908D01*
X11455896Y-14069908D02*
X11474944Y-14079432D01*
X11474944Y-14079432D02*
X11484467Y-14088956D01*
X11484467Y-14088956D02*
X11493991Y-14108003D01*
X11493991Y-14108003D02*
X11503515Y-14146098D01*
X11503515Y-14146098D02*
X11503515Y-14193717D01*
X11503515Y-14193717D02*
X11493991Y-14231813D01*
X11493991Y-14231813D02*
X11484467Y-14250860D01*
X11484467Y-14250860D02*
X11474944Y-14260384D01*
X11474944Y-14260384D02*
X11455896Y-14269908D01*
X11455896Y-14269908D02*
X11436848Y-14269908D01*
X11436848Y-14269908D02*
X11417801Y-14260384D01*
X11417801Y-14260384D02*
X11408277Y-14250860D01*
X11408277Y-14250860D02*
X11398753Y-14231813D01*
X11398753Y-14231813D02*
X11389229Y-14193717D01*
X11389229Y-14193717D02*
X11389229Y-14146098D01*
X11389229Y-14146098D02*
X11398753Y-14108003D01*
X11398753Y-14108003D02*
X11408277Y-14088956D01*
X11408277Y-14088956D02*
X11417801Y-14079432D01*
X11417801Y-14079432D02*
X11436848Y-14069908D01*
X11570182Y-14069908D02*
X11693991Y-14069908D01*
X11693991Y-14069908D02*
X11627325Y-14146098D01*
X11627325Y-14146098D02*
X11655896Y-14146098D01*
X11655896Y-14146098D02*
X11674944Y-14155622D01*
X11674944Y-14155622D02*
X11684467Y-14165146D01*
X11684467Y-14165146D02*
X11693991Y-14184194D01*
X11693991Y-14184194D02*
X11693991Y-14231813D01*
X11693991Y-14231813D02*
X11684467Y-14250860D01*
X11684467Y-14250860D02*
X11674944Y-14260384D01*
X11674944Y-14260384D02*
X11655896Y-14269908D01*
X11655896Y-14269908D02*
X11598753Y-14269908D01*
X11598753Y-14269908D02*
X11579706Y-14260384D01*
X11579706Y-14260384D02*
X11570182Y-14250860D01*
X11874944Y-14069908D02*
X11779706Y-14069908D01*
X11779706Y-14069908D02*
X11770182Y-14165146D01*
X11770182Y-14165146D02*
X11779706Y-14155622D01*
X11779706Y-14155622D02*
X11798753Y-14146098D01*
X11798753Y-14146098D02*
X11846372Y-14146098D01*
X11846372Y-14146098D02*
X11865420Y-14155622D01*
X11865420Y-14155622D02*
X11874944Y-14165146D01*
X11874944Y-14165146D02*
X11884467Y-14184194D01*
X11884467Y-14184194D02*
X11884467Y-14231813D01*
X11884467Y-14231813D02*
X11874944Y-14250860D01*
X11874944Y-14250860D02*
X11865420Y-14260384D01*
X11865420Y-14260384D02*
X11846372Y-14269908D01*
X11846372Y-14269908D02*
X11798753Y-14269908D01*
X11798753Y-14269908D02*
X11779706Y-14260384D01*
X11779706Y-14260384D02*
X11770182Y-14250860D01*
X12055896Y-14136575D02*
X12055896Y-14269908D01*
X12008277Y-14060384D02*
X11960658Y-14203241D01*
X11960658Y-14203241D02*
X12084467Y-14203241D01*
X12151134Y-14069908D02*
X12151134Y-14108003D01*
X12227325Y-14069908D02*
X12227325Y-14108003D01*
X12522563Y-14346098D02*
X12513039Y-14336575D01*
X12513039Y-14336575D02*
X12493991Y-14308003D01*
X12493991Y-14308003D02*
X12484468Y-14288956D01*
X12484468Y-14288956D02*
X12474944Y-14260384D01*
X12474944Y-14260384D02*
X12465420Y-14212765D01*
X12465420Y-14212765D02*
X12465420Y-14174670D01*
X12465420Y-14174670D02*
X12474944Y-14127051D01*
X12474944Y-14127051D02*
X12484468Y-14098479D01*
X12484468Y-14098479D02*
X12493991Y-14079432D01*
X12493991Y-14079432D02*
X12513039Y-14050860D01*
X12513039Y-14050860D02*
X12522563Y-14041336D01*
X12589229Y-14088956D02*
X12598753Y-14079432D01*
X12598753Y-14079432D02*
X12617801Y-14069908D01*
X12617801Y-14069908D02*
X12665420Y-14069908D01*
X12665420Y-14069908D02*
X12684468Y-14079432D01*
X12684468Y-14079432D02*
X12693991Y-14088956D01*
X12693991Y-14088956D02*
X12703515Y-14108003D01*
X12703515Y-14108003D02*
X12703515Y-14127051D01*
X12703515Y-14127051D02*
X12693991Y-14155622D01*
X12693991Y-14155622D02*
X12579706Y-14269908D01*
X12579706Y-14269908D02*
X12703515Y-14269908D01*
X12941610Y-14269908D02*
X12941610Y-14069908D01*
X13027325Y-14269908D02*
X13027325Y-14165146D01*
X13027325Y-14165146D02*
X13017801Y-14146098D01*
X13017801Y-14146098D02*
X12998753Y-14136575D01*
X12998753Y-14136575D02*
X12970182Y-14136575D01*
X12970182Y-14136575D02*
X12951134Y-14146098D01*
X12951134Y-14146098D02*
X12941610Y-14155622D01*
X13151134Y-14269908D02*
X13132087Y-14260384D01*
X13132087Y-14260384D02*
X13122563Y-14250860D01*
X13122563Y-14250860D02*
X13113039Y-14231813D01*
X13113039Y-14231813D02*
X13113039Y-14174670D01*
X13113039Y-14174670D02*
X13122563Y-14155622D01*
X13122563Y-14155622D02*
X13132087Y-14146098D01*
X13132087Y-14146098D02*
X13151134Y-14136575D01*
X13151134Y-14136575D02*
X13179706Y-14136575D01*
X13179706Y-14136575D02*
X13198753Y-14146098D01*
X13198753Y-14146098D02*
X13208277Y-14155622D01*
X13208277Y-14155622D02*
X13217801Y-14174670D01*
X13217801Y-14174670D02*
X13217801Y-14231813D01*
X13217801Y-14231813D02*
X13208277Y-14250860D01*
X13208277Y-14250860D02*
X13198753Y-14260384D01*
X13198753Y-14260384D02*
X13179706Y-14269908D01*
X13179706Y-14269908D02*
X13151134Y-14269908D01*
X13332087Y-14269908D02*
X13313039Y-14260384D01*
X13313039Y-14260384D02*
X13303515Y-14241336D01*
X13303515Y-14241336D02*
X13303515Y-14069908D01*
X13484468Y-14260384D02*
X13465420Y-14269908D01*
X13465420Y-14269908D02*
X13427325Y-14269908D01*
X13427325Y-14269908D02*
X13408277Y-14260384D01*
X13408277Y-14260384D02*
X13398753Y-14241336D01*
X13398753Y-14241336D02*
X13398753Y-14165146D01*
X13398753Y-14165146D02*
X13408277Y-14146098D01*
X13408277Y-14146098D02*
X13427325Y-14136575D01*
X13427325Y-14136575D02*
X13465420Y-14136575D01*
X13465420Y-14136575D02*
X13484468Y-14146098D01*
X13484468Y-14146098D02*
X13493991Y-14165146D01*
X13493991Y-14165146D02*
X13493991Y-14184194D01*
X13493991Y-14184194D02*
X13398753Y-14203241D01*
X13570182Y-14260384D02*
X13589230Y-14269908D01*
X13589230Y-14269908D02*
X13627325Y-14269908D01*
X13627325Y-14269908D02*
X13646372Y-14260384D01*
X13646372Y-14260384D02*
X13655896Y-14241336D01*
X13655896Y-14241336D02*
X13655896Y-14231813D01*
X13655896Y-14231813D02*
X13646372Y-14212765D01*
X13646372Y-14212765D02*
X13627325Y-14203241D01*
X13627325Y-14203241D02*
X13598753Y-14203241D01*
X13598753Y-14203241D02*
X13579706Y-14193717D01*
X13579706Y-14193717D02*
X13570182Y-14174670D01*
X13570182Y-14174670D02*
X13570182Y-14165146D01*
X13570182Y-14165146D02*
X13579706Y-14146098D01*
X13579706Y-14146098D02*
X13598753Y-14136575D01*
X13598753Y-14136575D02*
X13627325Y-14136575D01*
X13627325Y-14136575D02*
X13646372Y-14146098D01*
X13722563Y-14346098D02*
X13732087Y-14336575D01*
X13732087Y-14336575D02*
X13751134Y-14308003D01*
X13751134Y-14308003D02*
X13760658Y-14288956D01*
X13760658Y-14288956D02*
X13770182Y-14260384D01*
X13770182Y-14260384D02*
X13779706Y-14212765D01*
X13779706Y-14212765D02*
X13779706Y-14174670D01*
X13779706Y-14174670D02*
X13770182Y-14127051D01*
X13770182Y-14127051D02*
X13760658Y-14098479D01*
X13760658Y-14098479D02*
X13751134Y-14079432D01*
X13751134Y-14079432D02*
X13732087Y-14050860D01*
X13732087Y-14050860D02*
X13722563Y-14041336D01*
X14084468Y-14346098D02*
X14074944Y-14336575D01*
X14074944Y-14336575D02*
X14055896Y-14308003D01*
X14055896Y-14308003D02*
X14046372Y-14288956D01*
X14046372Y-14288956D02*
X14036849Y-14260384D01*
X14036849Y-14260384D02*
X14027325Y-14212765D01*
X14027325Y-14212765D02*
X14027325Y-14174670D01*
X14027325Y-14174670D02*
X14036849Y-14127051D01*
X14036849Y-14127051D02*
X14046372Y-14098479D01*
X14046372Y-14098479D02*
X14055896Y-14079432D01*
X14055896Y-14079432D02*
X14074944Y-14050860D01*
X14074944Y-14050860D02*
X14084468Y-14041336D01*
X14160658Y-14136575D02*
X14160658Y-14269908D01*
X14160658Y-14155622D02*
X14170182Y-14146098D01*
X14170182Y-14146098D02*
X14189230Y-14136575D01*
X14189230Y-14136575D02*
X14217801Y-14136575D01*
X14217801Y-14136575D02*
X14236849Y-14146098D01*
X14236849Y-14146098D02*
X14246372Y-14165146D01*
X14246372Y-14165146D02*
X14246372Y-14269908D01*
X14370182Y-14269908D02*
X14351134Y-14260384D01*
X14351134Y-14260384D02*
X14341611Y-14250860D01*
X14341611Y-14250860D02*
X14332087Y-14231813D01*
X14332087Y-14231813D02*
X14332087Y-14174670D01*
X14332087Y-14174670D02*
X14341611Y-14155622D01*
X14341611Y-14155622D02*
X14351134Y-14146098D01*
X14351134Y-14146098D02*
X14370182Y-14136575D01*
X14370182Y-14136575D02*
X14398753Y-14136575D01*
X14398753Y-14136575D02*
X14417801Y-14146098D01*
X14417801Y-14146098D02*
X14427325Y-14155622D01*
X14427325Y-14155622D02*
X14436849Y-14174670D01*
X14436849Y-14174670D02*
X14436849Y-14231813D01*
X14436849Y-14231813D02*
X14427325Y-14250860D01*
X14427325Y-14250860D02*
X14417801Y-14260384D01*
X14417801Y-14260384D02*
X14398753Y-14269908D01*
X14398753Y-14269908D02*
X14370182Y-14269908D01*
X14493992Y-14136575D02*
X14570182Y-14136575D01*
X14522563Y-14069908D02*
X14522563Y-14241336D01*
X14522563Y-14241336D02*
X14532087Y-14260384D01*
X14532087Y-14260384D02*
X14551134Y-14269908D01*
X14551134Y-14269908D02*
X14570182Y-14269908D01*
X14789230Y-14136575D02*
X14789230Y-14336575D01*
X14789230Y-14146098D02*
X14808277Y-14136575D01*
X14808277Y-14136575D02*
X14846373Y-14136575D01*
X14846373Y-14136575D02*
X14865420Y-14146098D01*
X14865420Y-14146098D02*
X14874944Y-14155622D01*
X14874944Y-14155622D02*
X14884468Y-14174670D01*
X14884468Y-14174670D02*
X14884468Y-14231813D01*
X14884468Y-14231813D02*
X14874944Y-14250860D01*
X14874944Y-14250860D02*
X14865420Y-14260384D01*
X14865420Y-14260384D02*
X14846373Y-14269908D01*
X14846373Y-14269908D02*
X14808277Y-14269908D01*
X14808277Y-14269908D02*
X14789230Y-14260384D01*
X14998753Y-14269908D02*
X14979706Y-14260384D01*
X14979706Y-14260384D02*
X14970182Y-14241336D01*
X14970182Y-14241336D02*
X14970182Y-14069908D01*
X15160658Y-14269908D02*
X15160658Y-14165146D01*
X15160658Y-14165146D02*
X15151134Y-14146098D01*
X15151134Y-14146098D02*
X15132087Y-14136575D01*
X15132087Y-14136575D02*
X15093992Y-14136575D01*
X15093992Y-14136575D02*
X15074944Y-14146098D01*
X15160658Y-14260384D02*
X15141611Y-14269908D01*
X15141611Y-14269908D02*
X15093992Y-14269908D01*
X15093992Y-14269908D02*
X15074944Y-14260384D01*
X15074944Y-14260384D02*
X15065420Y-14241336D01*
X15065420Y-14241336D02*
X15065420Y-14222289D01*
X15065420Y-14222289D02*
X15074944Y-14203241D01*
X15074944Y-14203241D02*
X15093992Y-14193717D01*
X15093992Y-14193717D02*
X15141611Y-14193717D01*
X15141611Y-14193717D02*
X15160658Y-14184194D01*
X15227325Y-14136575D02*
X15303515Y-14136575D01*
X15255896Y-14069908D02*
X15255896Y-14241336D01*
X15255896Y-14241336D02*
X15265420Y-14260384D01*
X15265420Y-14260384D02*
X15284468Y-14269908D01*
X15284468Y-14269908D02*
X15303515Y-14269908D01*
X15446373Y-14260384D02*
X15427325Y-14269908D01*
X15427325Y-14269908D02*
X15389230Y-14269908D01*
X15389230Y-14269908D02*
X15370182Y-14260384D01*
X15370182Y-14260384D02*
X15360658Y-14241336D01*
X15360658Y-14241336D02*
X15360658Y-14165146D01*
X15360658Y-14165146D02*
X15370182Y-14146098D01*
X15370182Y-14146098D02*
X15389230Y-14136575D01*
X15389230Y-14136575D02*
X15427325Y-14136575D01*
X15427325Y-14136575D02*
X15446373Y-14146098D01*
X15446373Y-14146098D02*
X15455896Y-14165146D01*
X15455896Y-14165146D02*
X15455896Y-14184194D01*
X15455896Y-14184194D02*
X15360658Y-14203241D01*
X15627325Y-14269908D02*
X15627325Y-14069908D01*
X15627325Y-14260384D02*
X15608277Y-14269908D01*
X15608277Y-14269908D02*
X15570182Y-14269908D01*
X15570182Y-14269908D02*
X15551134Y-14260384D01*
X15551134Y-14260384D02*
X15541611Y-14250860D01*
X15541611Y-14250860D02*
X15532087Y-14231813D01*
X15532087Y-14231813D02*
X15532087Y-14174670D01*
X15532087Y-14174670D02*
X15541611Y-14155622D01*
X15541611Y-14155622D02*
X15551134Y-14146098D01*
X15551134Y-14146098D02*
X15570182Y-14136575D01*
X15570182Y-14136575D02*
X15608277Y-14136575D01*
X15608277Y-14136575D02*
X15627325Y-14146098D01*
X15703515Y-14346098D02*
X15713039Y-14336575D01*
X15713039Y-14336575D02*
X15732087Y-14308003D01*
X15732087Y-14308003D02*
X15741611Y-14288956D01*
X15741611Y-14288956D02*
X15751134Y-14260384D01*
X15751134Y-14260384D02*
X15760658Y-14212765D01*
X15760658Y-14212765D02*
X15760658Y-14174670D01*
X15760658Y-14174670D02*
X15751134Y-14127051D01*
X15751134Y-14127051D02*
X15741611Y-14098479D01*
X15741611Y-14098479D02*
X15732087Y-14079432D01*
X15732087Y-14079432D02*
X15713039Y-14050860D01*
X15713039Y-14050860D02*
X15703515Y-14041336D01*
D13*
X8947500Y-14442424D02*
G75*
G03*
X8777320Y-14442424I-85090J0D01*
G01*
X8777320Y-14442424D02*
G75*
G03*
X8947500Y-14442424I85090J0D01*
G01*
D11*
X9313039Y-14533908D02*
X9198753Y-14533908D01*
X9255896Y-14533908D02*
X9255896Y-14333908D01*
X9255896Y-14333908D02*
X9236848Y-14362479D01*
X9236848Y-14362479D02*
X9217801Y-14381527D01*
X9217801Y-14381527D02*
X9198753Y-14391051D01*
X9398753Y-14514860D02*
X9408277Y-14524384D01*
X9408277Y-14524384D02*
X9398753Y-14533908D01*
X9398753Y-14533908D02*
X9389229Y-14524384D01*
X9389229Y-14524384D02*
X9398753Y-14514860D01*
X9398753Y-14514860D02*
X9398753Y-14533908D01*
X9474944Y-14333908D02*
X9608277Y-14333908D01*
X9608277Y-14333908D02*
X9522563Y-14533908D01*
X9722563Y-14333908D02*
X9741610Y-14333908D01*
X9741610Y-14333908D02*
X9760658Y-14343432D01*
X9760658Y-14343432D02*
X9770182Y-14352956D01*
X9770182Y-14352956D02*
X9779705Y-14372003D01*
X9779705Y-14372003D02*
X9789229Y-14410098D01*
X9789229Y-14410098D02*
X9789229Y-14457717D01*
X9789229Y-14457717D02*
X9779705Y-14495813D01*
X9779705Y-14495813D02*
X9770182Y-14514860D01*
X9770182Y-14514860D02*
X9760658Y-14524384D01*
X9760658Y-14524384D02*
X9741610Y-14533908D01*
X9741610Y-14533908D02*
X9722563Y-14533908D01*
X9722563Y-14533908D02*
X9703515Y-14524384D01*
X9703515Y-14524384D02*
X9693991Y-14514860D01*
X9693991Y-14514860D02*
X9684467Y-14495813D01*
X9684467Y-14495813D02*
X9674944Y-14457717D01*
X9674944Y-14457717D02*
X9674944Y-14410098D01*
X9674944Y-14410098D02*
X9684467Y-14372003D01*
X9684467Y-14372003D02*
X9693991Y-14352956D01*
X9693991Y-14352956D02*
X9703515Y-14343432D01*
X9703515Y-14343432D02*
X9722563Y-14333908D01*
X9865420Y-14352956D02*
X9874944Y-14343432D01*
X9874944Y-14343432D02*
X9893991Y-14333908D01*
X9893991Y-14333908D02*
X9941610Y-14333908D01*
X9941610Y-14333908D02*
X9960658Y-14343432D01*
X9960658Y-14343432D02*
X9970182Y-14352956D01*
X9970182Y-14352956D02*
X9979705Y-14372003D01*
X9979705Y-14372003D02*
X9979705Y-14391051D01*
X9979705Y-14391051D02*
X9970182Y-14419622D01*
X9970182Y-14419622D02*
X9855896Y-14533908D01*
X9855896Y-14533908D02*
X9979705Y-14533908D01*
X10065420Y-14533908D02*
X10065420Y-14400575D01*
X10065420Y-14419622D02*
X10074944Y-14410098D01*
X10074944Y-14410098D02*
X10093991Y-14400575D01*
X10093991Y-14400575D02*
X10122563Y-14400575D01*
X10122563Y-14400575D02*
X10141610Y-14410098D01*
X10141610Y-14410098D02*
X10151134Y-14429146D01*
X10151134Y-14429146D02*
X10151134Y-14533908D01*
X10151134Y-14429146D02*
X10160658Y-14410098D01*
X10160658Y-14410098D02*
X10179705Y-14400575D01*
X10179705Y-14400575D02*
X10208277Y-14400575D01*
X10208277Y-14400575D02*
X10227325Y-14410098D01*
X10227325Y-14410098D02*
X10236848Y-14429146D01*
X10236848Y-14429146D02*
X10236848Y-14533908D01*
X10332086Y-14533908D02*
X10332086Y-14400575D01*
X10332086Y-14419622D02*
X10341610Y-14410098D01*
X10341610Y-14410098D02*
X10360658Y-14400575D01*
X10360658Y-14400575D02*
X10389229Y-14400575D01*
X10389229Y-14400575D02*
X10408277Y-14410098D01*
X10408277Y-14410098D02*
X10417801Y-14429146D01*
X10417801Y-14429146D02*
X10417801Y-14533908D01*
X10417801Y-14429146D02*
X10427325Y-14410098D01*
X10427325Y-14410098D02*
X10446372Y-14400575D01*
X10446372Y-14400575D02*
X10474944Y-14400575D01*
X10474944Y-14400575D02*
X10493991Y-14410098D01*
X10493991Y-14410098D02*
X10503515Y-14429146D01*
X10503515Y-14429146D02*
X10503515Y-14533908D01*
X10893991Y-14324384D02*
X10722563Y-14581527D01*
X11151134Y-14333908D02*
X11170182Y-14333908D01*
X11170182Y-14333908D02*
X11189229Y-14343432D01*
X11189229Y-14343432D02*
X11198753Y-14352956D01*
X11198753Y-14352956D02*
X11208277Y-14372003D01*
X11208277Y-14372003D02*
X11217801Y-14410098D01*
X11217801Y-14410098D02*
X11217801Y-14457717D01*
X11217801Y-14457717D02*
X11208277Y-14495813D01*
X11208277Y-14495813D02*
X11198753Y-14514860D01*
X11198753Y-14514860D02*
X11189229Y-14524384D01*
X11189229Y-14524384D02*
X11170182Y-14533908D01*
X11170182Y-14533908D02*
X11151134Y-14533908D01*
X11151134Y-14533908D02*
X11132087Y-14524384D01*
X11132087Y-14524384D02*
X11122563Y-14514860D01*
X11122563Y-14514860D02*
X11113039Y-14495813D01*
X11113039Y-14495813D02*
X11103515Y-14457717D01*
X11103515Y-14457717D02*
X11103515Y-14410098D01*
X11103515Y-14410098D02*
X11113039Y-14372003D01*
X11113039Y-14372003D02*
X11122563Y-14352956D01*
X11122563Y-14352956D02*
X11132087Y-14343432D01*
X11132087Y-14343432D02*
X11151134Y-14333908D01*
X11303515Y-14514860D02*
X11313039Y-14524384D01*
X11313039Y-14524384D02*
X11303515Y-14533908D01*
X11303515Y-14533908D02*
X11293991Y-14524384D01*
X11293991Y-14524384D02*
X11303515Y-14514860D01*
X11303515Y-14514860D02*
X11303515Y-14533908D01*
X11436848Y-14333908D02*
X11455896Y-14333908D01*
X11455896Y-14333908D02*
X11474944Y-14343432D01*
X11474944Y-14343432D02*
X11484467Y-14352956D01*
X11484467Y-14352956D02*
X11493991Y-14372003D01*
X11493991Y-14372003D02*
X11503515Y-14410098D01*
X11503515Y-14410098D02*
X11503515Y-14457717D01*
X11503515Y-14457717D02*
X11493991Y-14495813D01*
X11493991Y-14495813D02*
X11484467Y-14514860D01*
X11484467Y-14514860D02*
X11474944Y-14524384D01*
X11474944Y-14524384D02*
X11455896Y-14533908D01*
X11455896Y-14533908D02*
X11436848Y-14533908D01*
X11436848Y-14533908D02*
X11417801Y-14524384D01*
X11417801Y-14524384D02*
X11408277Y-14514860D01*
X11408277Y-14514860D02*
X11398753Y-14495813D01*
X11398753Y-14495813D02*
X11389229Y-14457717D01*
X11389229Y-14457717D02*
X11389229Y-14410098D01*
X11389229Y-14410098D02*
X11398753Y-14372003D01*
X11398753Y-14372003D02*
X11408277Y-14352956D01*
X11408277Y-14352956D02*
X11417801Y-14343432D01*
X11417801Y-14343432D02*
X11436848Y-14333908D01*
X11674944Y-14333908D02*
X11636848Y-14333908D01*
X11636848Y-14333908D02*
X11617801Y-14343432D01*
X11617801Y-14343432D02*
X11608277Y-14352956D01*
X11608277Y-14352956D02*
X11589229Y-14381527D01*
X11589229Y-14381527D02*
X11579706Y-14419622D01*
X11579706Y-14419622D02*
X11579706Y-14495813D01*
X11579706Y-14495813D02*
X11589229Y-14514860D01*
X11589229Y-14514860D02*
X11598753Y-14524384D01*
X11598753Y-14524384D02*
X11617801Y-14533908D01*
X11617801Y-14533908D02*
X11655896Y-14533908D01*
X11655896Y-14533908D02*
X11674944Y-14524384D01*
X11674944Y-14524384D02*
X11684467Y-14514860D01*
X11684467Y-14514860D02*
X11693991Y-14495813D01*
X11693991Y-14495813D02*
X11693991Y-14448194D01*
X11693991Y-14448194D02*
X11684467Y-14429146D01*
X11684467Y-14429146D02*
X11674944Y-14419622D01*
X11674944Y-14419622D02*
X11655896Y-14410098D01*
X11655896Y-14410098D02*
X11617801Y-14410098D01*
X11617801Y-14410098D02*
X11598753Y-14419622D01*
X11598753Y-14419622D02*
X11589229Y-14429146D01*
X11589229Y-14429146D02*
X11579706Y-14448194D01*
X11760658Y-14333908D02*
X11893991Y-14333908D01*
X11893991Y-14333908D02*
X11808277Y-14533908D01*
X12008277Y-14333908D02*
X12027325Y-14333908D01*
X12027325Y-14333908D02*
X12046372Y-14343432D01*
X12046372Y-14343432D02*
X12055896Y-14352956D01*
X12055896Y-14352956D02*
X12065420Y-14372003D01*
X12065420Y-14372003D02*
X12074944Y-14410098D01*
X12074944Y-14410098D02*
X12074944Y-14457717D01*
X12074944Y-14457717D02*
X12065420Y-14495813D01*
X12065420Y-14495813D02*
X12055896Y-14514860D01*
X12055896Y-14514860D02*
X12046372Y-14524384D01*
X12046372Y-14524384D02*
X12027325Y-14533908D01*
X12027325Y-14533908D02*
X12008277Y-14533908D01*
X12008277Y-14533908D02*
X11989229Y-14524384D01*
X11989229Y-14524384D02*
X11979706Y-14514860D01*
X11979706Y-14514860D02*
X11970182Y-14495813D01*
X11970182Y-14495813D02*
X11960658Y-14457717D01*
X11960658Y-14457717D02*
X11960658Y-14410098D01*
X11960658Y-14410098D02*
X11970182Y-14372003D01*
X11970182Y-14372003D02*
X11979706Y-14352956D01*
X11979706Y-14352956D02*
X11989229Y-14343432D01*
X11989229Y-14343432D02*
X12008277Y-14333908D01*
X12151134Y-14333908D02*
X12151134Y-14372003D01*
X12227325Y-14333908D02*
X12227325Y-14372003D01*
X12522563Y-14610098D02*
X12513039Y-14600575D01*
X12513039Y-14600575D02*
X12493991Y-14572003D01*
X12493991Y-14572003D02*
X12484468Y-14552956D01*
X12484468Y-14552956D02*
X12474944Y-14524384D01*
X12474944Y-14524384D02*
X12465420Y-14476765D01*
X12465420Y-14476765D02*
X12465420Y-14438670D01*
X12465420Y-14438670D02*
X12474944Y-14391051D01*
X12474944Y-14391051D02*
X12484468Y-14362479D01*
X12484468Y-14362479D02*
X12493991Y-14343432D01*
X12493991Y-14343432D02*
X12513039Y-14314860D01*
X12513039Y-14314860D02*
X12522563Y-14305336D01*
X12579706Y-14333908D02*
X12703515Y-14333908D01*
X12703515Y-14333908D02*
X12636848Y-14410098D01*
X12636848Y-14410098D02*
X12665420Y-14410098D01*
X12665420Y-14410098D02*
X12684468Y-14419622D01*
X12684468Y-14419622D02*
X12693991Y-14429146D01*
X12693991Y-14429146D02*
X12703515Y-14448194D01*
X12703515Y-14448194D02*
X12703515Y-14495813D01*
X12703515Y-14495813D02*
X12693991Y-14514860D01*
X12693991Y-14514860D02*
X12684468Y-14524384D01*
X12684468Y-14524384D02*
X12665420Y-14533908D01*
X12665420Y-14533908D02*
X12608277Y-14533908D01*
X12608277Y-14533908D02*
X12589229Y-14524384D01*
X12589229Y-14524384D02*
X12579706Y-14514860D01*
X12874944Y-14400575D02*
X12874944Y-14533908D01*
X12827325Y-14324384D02*
X12779706Y-14467241D01*
X12779706Y-14467241D02*
X12903515Y-14467241D01*
X13132087Y-14533908D02*
X13132087Y-14333908D01*
X13217801Y-14533908D02*
X13217801Y-14429146D01*
X13217801Y-14429146D02*
X13208277Y-14410098D01*
X13208277Y-14410098D02*
X13189230Y-14400575D01*
X13189230Y-14400575D02*
X13160658Y-14400575D01*
X13160658Y-14400575D02*
X13141610Y-14410098D01*
X13141610Y-14410098D02*
X13132087Y-14419622D01*
X13341610Y-14533908D02*
X13322563Y-14524384D01*
X13322563Y-14524384D02*
X13313039Y-14514860D01*
X13313039Y-14514860D02*
X13303515Y-14495813D01*
X13303515Y-14495813D02*
X13303515Y-14438670D01*
X13303515Y-14438670D02*
X13313039Y-14419622D01*
X13313039Y-14419622D02*
X13322563Y-14410098D01*
X13322563Y-14410098D02*
X13341610Y-14400575D01*
X13341610Y-14400575D02*
X13370182Y-14400575D01*
X13370182Y-14400575D02*
X13389230Y-14410098D01*
X13389230Y-14410098D02*
X13398753Y-14419622D01*
X13398753Y-14419622D02*
X13408277Y-14438670D01*
X13408277Y-14438670D02*
X13408277Y-14495813D01*
X13408277Y-14495813D02*
X13398753Y-14514860D01*
X13398753Y-14514860D02*
X13389230Y-14524384D01*
X13389230Y-14524384D02*
X13370182Y-14533908D01*
X13370182Y-14533908D02*
X13341610Y-14533908D01*
X13522563Y-14533908D02*
X13503515Y-14524384D01*
X13503515Y-14524384D02*
X13493991Y-14505336D01*
X13493991Y-14505336D02*
X13493991Y-14333908D01*
X13674944Y-14524384D02*
X13655896Y-14533908D01*
X13655896Y-14533908D02*
X13617801Y-14533908D01*
X13617801Y-14533908D02*
X13598753Y-14524384D01*
X13598753Y-14524384D02*
X13589230Y-14505336D01*
X13589230Y-14505336D02*
X13589230Y-14429146D01*
X13589230Y-14429146D02*
X13598753Y-14410098D01*
X13598753Y-14410098D02*
X13617801Y-14400575D01*
X13617801Y-14400575D02*
X13655896Y-14400575D01*
X13655896Y-14400575D02*
X13674944Y-14410098D01*
X13674944Y-14410098D02*
X13684468Y-14429146D01*
X13684468Y-14429146D02*
X13684468Y-14448194D01*
X13684468Y-14448194D02*
X13589230Y-14467241D01*
X13760658Y-14524384D02*
X13779706Y-14533908D01*
X13779706Y-14533908D02*
X13817801Y-14533908D01*
X13817801Y-14533908D02*
X13836849Y-14524384D01*
X13836849Y-14524384D02*
X13846372Y-14505336D01*
X13846372Y-14505336D02*
X13846372Y-14495813D01*
X13846372Y-14495813D02*
X13836849Y-14476765D01*
X13836849Y-14476765D02*
X13817801Y-14467241D01*
X13817801Y-14467241D02*
X13789230Y-14467241D01*
X13789230Y-14467241D02*
X13770182Y-14457717D01*
X13770182Y-14457717D02*
X13760658Y-14438670D01*
X13760658Y-14438670D02*
X13760658Y-14429146D01*
X13760658Y-14429146D02*
X13770182Y-14410098D01*
X13770182Y-14410098D02*
X13789230Y-14400575D01*
X13789230Y-14400575D02*
X13817801Y-14400575D01*
X13817801Y-14400575D02*
X13836849Y-14410098D01*
X13913039Y-14610098D02*
X13922563Y-14600575D01*
X13922563Y-14600575D02*
X13941611Y-14572003D01*
X13941611Y-14572003D02*
X13951134Y-14552956D01*
X13951134Y-14552956D02*
X13960658Y-14524384D01*
X13960658Y-14524384D02*
X13970182Y-14476765D01*
X13970182Y-14476765D02*
X13970182Y-14438670D01*
X13970182Y-14438670D02*
X13960658Y-14391051D01*
X13960658Y-14391051D02*
X13951134Y-14362479D01*
X13951134Y-14362479D02*
X13941611Y-14343432D01*
X13941611Y-14343432D02*
X13922563Y-14314860D01*
X13922563Y-14314860D02*
X13913039Y-14305336D01*
X14274944Y-14610098D02*
X14265420Y-14600575D01*
X14265420Y-14600575D02*
X14246372Y-14572003D01*
X14246372Y-14572003D02*
X14236849Y-14552956D01*
X14236849Y-14552956D02*
X14227325Y-14524384D01*
X14227325Y-14524384D02*
X14217801Y-14476765D01*
X14217801Y-14476765D02*
X14217801Y-14438670D01*
X14217801Y-14438670D02*
X14227325Y-14391051D01*
X14227325Y-14391051D02*
X14236849Y-14362479D01*
X14236849Y-14362479D02*
X14246372Y-14343432D01*
X14246372Y-14343432D02*
X14265420Y-14314860D01*
X14265420Y-14314860D02*
X14274944Y-14305336D01*
X14351134Y-14400575D02*
X14351134Y-14533908D01*
X14351134Y-14419622D02*
X14360658Y-14410098D01*
X14360658Y-14410098D02*
X14379706Y-14400575D01*
X14379706Y-14400575D02*
X14408277Y-14400575D01*
X14408277Y-14400575D02*
X14427325Y-14410098D01*
X14427325Y-14410098D02*
X14436849Y-14429146D01*
X14436849Y-14429146D02*
X14436849Y-14533908D01*
X14560658Y-14533908D02*
X14541611Y-14524384D01*
X14541611Y-14524384D02*
X14532087Y-14514860D01*
X14532087Y-14514860D02*
X14522563Y-14495813D01*
X14522563Y-14495813D02*
X14522563Y-14438670D01*
X14522563Y-14438670D02*
X14532087Y-14419622D01*
X14532087Y-14419622D02*
X14541611Y-14410098D01*
X14541611Y-14410098D02*
X14560658Y-14400575D01*
X14560658Y-14400575D02*
X14589230Y-14400575D01*
X14589230Y-14400575D02*
X14608277Y-14410098D01*
X14608277Y-14410098D02*
X14617801Y-14419622D01*
X14617801Y-14419622D02*
X14627325Y-14438670D01*
X14627325Y-14438670D02*
X14627325Y-14495813D01*
X14627325Y-14495813D02*
X14617801Y-14514860D01*
X14617801Y-14514860D02*
X14608277Y-14524384D01*
X14608277Y-14524384D02*
X14589230Y-14533908D01*
X14589230Y-14533908D02*
X14560658Y-14533908D01*
X14684468Y-14400575D02*
X14760658Y-14400575D01*
X14713039Y-14333908D02*
X14713039Y-14505336D01*
X14713039Y-14505336D02*
X14722563Y-14524384D01*
X14722563Y-14524384D02*
X14741611Y-14533908D01*
X14741611Y-14533908D02*
X14760658Y-14533908D01*
X14979706Y-14400575D02*
X14979706Y-14600575D01*
X14979706Y-14410098D02*
X14998753Y-14400575D01*
X14998753Y-14400575D02*
X15036849Y-14400575D01*
X15036849Y-14400575D02*
X15055896Y-14410098D01*
X15055896Y-14410098D02*
X15065420Y-14419622D01*
X15065420Y-14419622D02*
X15074944Y-14438670D01*
X15074944Y-14438670D02*
X15074944Y-14495813D01*
X15074944Y-14495813D02*
X15065420Y-14514860D01*
X15065420Y-14514860D02*
X15055896Y-14524384D01*
X15055896Y-14524384D02*
X15036849Y-14533908D01*
X15036849Y-14533908D02*
X14998753Y-14533908D01*
X14998753Y-14533908D02*
X14979706Y-14524384D01*
X15189230Y-14533908D02*
X15170182Y-14524384D01*
X15170182Y-14524384D02*
X15160658Y-14505336D01*
X15160658Y-14505336D02*
X15160658Y-14333908D01*
X15351134Y-14533908D02*
X15351134Y-14429146D01*
X15351134Y-14429146D02*
X15341611Y-14410098D01*
X15341611Y-14410098D02*
X15322563Y-14400575D01*
X15322563Y-14400575D02*
X15284468Y-14400575D01*
X15284468Y-14400575D02*
X15265420Y-14410098D01*
X15351134Y-14524384D02*
X15332087Y-14533908D01*
X15332087Y-14533908D02*
X15284468Y-14533908D01*
X15284468Y-14533908D02*
X15265420Y-14524384D01*
X15265420Y-14524384D02*
X15255896Y-14505336D01*
X15255896Y-14505336D02*
X15255896Y-14486289D01*
X15255896Y-14486289D02*
X15265420Y-14467241D01*
X15265420Y-14467241D02*
X15284468Y-14457717D01*
X15284468Y-14457717D02*
X15332087Y-14457717D01*
X15332087Y-14457717D02*
X15351134Y-14448194D01*
X15417801Y-14400575D02*
X15493992Y-14400575D01*
X15446373Y-14333908D02*
X15446373Y-14505336D01*
X15446373Y-14505336D02*
X15455896Y-14524384D01*
X15455896Y-14524384D02*
X15474944Y-14533908D01*
X15474944Y-14533908D02*
X15493992Y-14533908D01*
X15636849Y-14524384D02*
X15617801Y-14533908D01*
X15617801Y-14533908D02*
X15579706Y-14533908D01*
X15579706Y-14533908D02*
X15560658Y-14524384D01*
X15560658Y-14524384D02*
X15551134Y-14505336D01*
X15551134Y-14505336D02*
X15551134Y-14429146D01*
X15551134Y-14429146D02*
X15560658Y-14410098D01*
X15560658Y-14410098D02*
X15579706Y-14400575D01*
X15579706Y-14400575D02*
X15617801Y-14400575D01*
X15617801Y-14400575D02*
X15636849Y-14410098D01*
X15636849Y-14410098D02*
X15646373Y-14429146D01*
X15646373Y-14429146D02*
X15646373Y-14448194D01*
X15646373Y-14448194D02*
X15551134Y-14467241D01*
X15817801Y-14533908D02*
X15817801Y-14333908D01*
X15817801Y-14524384D02*
X15798754Y-14533908D01*
X15798754Y-14533908D02*
X15760658Y-14533908D01*
X15760658Y-14533908D02*
X15741611Y-14524384D01*
X15741611Y-14524384D02*
X15732087Y-14514860D01*
X15732087Y-14514860D02*
X15722563Y-14495813D01*
X15722563Y-14495813D02*
X15722563Y-14438670D01*
X15722563Y-14438670D02*
X15732087Y-14419622D01*
X15732087Y-14419622D02*
X15741611Y-14410098D01*
X15741611Y-14410098D02*
X15760658Y-14400575D01*
X15760658Y-14400575D02*
X15798754Y-14400575D01*
X15798754Y-14400575D02*
X15817801Y-14410098D01*
X15893992Y-14610098D02*
X15903515Y-14600575D01*
X15903515Y-14600575D02*
X15922563Y-14572003D01*
X15922563Y-14572003D02*
X15932087Y-14552956D01*
X15932087Y-14552956D02*
X15941611Y-14524384D01*
X15941611Y-14524384D02*
X15951134Y-14476765D01*
X15951134Y-14476765D02*
X15951134Y-14438670D01*
X15951134Y-14438670D02*
X15941611Y-14391051D01*
X15941611Y-14391051D02*
X15932087Y-14362479D01*
X15932087Y-14362479D02*
X15922563Y-14343432D01*
X15922563Y-14343432D02*
X15903515Y-14314860D01*
X15903515Y-14314860D02*
X15893992Y-14305336D01*
X8847500Y-14632604D02*
X8847500Y-14832604D01*
X8747500Y-14732604D02*
X8947500Y-14732604D01*
X9189229Y-14624088D02*
X9313039Y-14624088D01*
X9313039Y-14624088D02*
X9246372Y-14700278D01*
X9246372Y-14700278D02*
X9274944Y-14700278D01*
X9274944Y-14700278D02*
X9293991Y-14709802D01*
X9293991Y-14709802D02*
X9303515Y-14719326D01*
X9303515Y-14719326D02*
X9313039Y-14738374D01*
X9313039Y-14738374D02*
X9313039Y-14785993D01*
X9313039Y-14785993D02*
X9303515Y-14805040D01*
X9303515Y-14805040D02*
X9293991Y-14814564D01*
X9293991Y-14814564D02*
X9274944Y-14824088D01*
X9274944Y-14824088D02*
X9217801Y-14824088D01*
X9217801Y-14824088D02*
X9198753Y-14814564D01*
X9198753Y-14814564D02*
X9189229Y-14805040D01*
X9398753Y-14805040D02*
X9408277Y-14814564D01*
X9408277Y-14814564D02*
X9398753Y-14824088D01*
X9398753Y-14824088D02*
X9389229Y-14814564D01*
X9389229Y-14814564D02*
X9398753Y-14805040D01*
X9398753Y-14805040D02*
X9398753Y-14824088D01*
X9532086Y-14624088D02*
X9551134Y-14624088D01*
X9551134Y-14624088D02*
X9570182Y-14633612D01*
X9570182Y-14633612D02*
X9579705Y-14643136D01*
X9579705Y-14643136D02*
X9589229Y-14662183D01*
X9589229Y-14662183D02*
X9598753Y-14700278D01*
X9598753Y-14700278D02*
X9598753Y-14747897D01*
X9598753Y-14747897D02*
X9589229Y-14785993D01*
X9589229Y-14785993D02*
X9579705Y-14805040D01*
X9579705Y-14805040D02*
X9570182Y-14814564D01*
X9570182Y-14814564D02*
X9551134Y-14824088D01*
X9551134Y-14824088D02*
X9532086Y-14824088D01*
X9532086Y-14824088D02*
X9513039Y-14814564D01*
X9513039Y-14814564D02*
X9503515Y-14805040D01*
X9503515Y-14805040D02*
X9493991Y-14785993D01*
X9493991Y-14785993D02*
X9484467Y-14747897D01*
X9484467Y-14747897D02*
X9484467Y-14700278D01*
X9484467Y-14700278D02*
X9493991Y-14662183D01*
X9493991Y-14662183D02*
X9503515Y-14643136D01*
X9503515Y-14643136D02*
X9513039Y-14633612D01*
X9513039Y-14633612D02*
X9532086Y-14624088D01*
X9722563Y-14624088D02*
X9741610Y-14624088D01*
X9741610Y-14624088D02*
X9760658Y-14633612D01*
X9760658Y-14633612D02*
X9770182Y-14643136D01*
X9770182Y-14643136D02*
X9779705Y-14662183D01*
X9779705Y-14662183D02*
X9789229Y-14700278D01*
X9789229Y-14700278D02*
X9789229Y-14747897D01*
X9789229Y-14747897D02*
X9779705Y-14785993D01*
X9779705Y-14785993D02*
X9770182Y-14805040D01*
X9770182Y-14805040D02*
X9760658Y-14814564D01*
X9760658Y-14814564D02*
X9741610Y-14824088D01*
X9741610Y-14824088D02*
X9722563Y-14824088D01*
X9722563Y-14824088D02*
X9703515Y-14814564D01*
X9703515Y-14814564D02*
X9693991Y-14805040D01*
X9693991Y-14805040D02*
X9684467Y-14785993D01*
X9684467Y-14785993D02*
X9674944Y-14747897D01*
X9674944Y-14747897D02*
X9674944Y-14700278D01*
X9674944Y-14700278D02*
X9684467Y-14662183D01*
X9684467Y-14662183D02*
X9693991Y-14643136D01*
X9693991Y-14643136D02*
X9703515Y-14633612D01*
X9703515Y-14633612D02*
X9722563Y-14624088D01*
X9913039Y-14624088D02*
X9932086Y-14624088D01*
X9932086Y-14624088D02*
X9951134Y-14633612D01*
X9951134Y-14633612D02*
X9960658Y-14643136D01*
X9960658Y-14643136D02*
X9970182Y-14662183D01*
X9970182Y-14662183D02*
X9979705Y-14700278D01*
X9979705Y-14700278D02*
X9979705Y-14747897D01*
X9979705Y-14747897D02*
X9970182Y-14785993D01*
X9970182Y-14785993D02*
X9960658Y-14805040D01*
X9960658Y-14805040D02*
X9951134Y-14814564D01*
X9951134Y-14814564D02*
X9932086Y-14824088D01*
X9932086Y-14824088D02*
X9913039Y-14824088D01*
X9913039Y-14824088D02*
X9893991Y-14814564D01*
X9893991Y-14814564D02*
X9884467Y-14805040D01*
X9884467Y-14805040D02*
X9874944Y-14785993D01*
X9874944Y-14785993D02*
X9865420Y-14747897D01*
X9865420Y-14747897D02*
X9865420Y-14700278D01*
X9865420Y-14700278D02*
X9874944Y-14662183D01*
X9874944Y-14662183D02*
X9884467Y-14643136D01*
X9884467Y-14643136D02*
X9893991Y-14633612D01*
X9893991Y-14633612D02*
X9913039Y-14624088D01*
X10065420Y-14824088D02*
X10065420Y-14690755D01*
X10065420Y-14709802D02*
X10074944Y-14700278D01*
X10074944Y-14700278D02*
X10093991Y-14690755D01*
X10093991Y-14690755D02*
X10122563Y-14690755D01*
X10122563Y-14690755D02*
X10141610Y-14700278D01*
X10141610Y-14700278D02*
X10151134Y-14719326D01*
X10151134Y-14719326D02*
X10151134Y-14824088D01*
X10151134Y-14719326D02*
X10160658Y-14700278D01*
X10160658Y-14700278D02*
X10179705Y-14690755D01*
X10179705Y-14690755D02*
X10208277Y-14690755D01*
X10208277Y-14690755D02*
X10227325Y-14700278D01*
X10227325Y-14700278D02*
X10236848Y-14719326D01*
X10236848Y-14719326D02*
X10236848Y-14824088D01*
X10332086Y-14824088D02*
X10332086Y-14690755D01*
X10332086Y-14709802D02*
X10341610Y-14700278D01*
X10341610Y-14700278D02*
X10360658Y-14690755D01*
X10360658Y-14690755D02*
X10389229Y-14690755D01*
X10389229Y-14690755D02*
X10408277Y-14700278D01*
X10408277Y-14700278D02*
X10417801Y-14719326D01*
X10417801Y-14719326D02*
X10417801Y-14824088D01*
X10417801Y-14719326D02*
X10427325Y-14700278D01*
X10427325Y-14700278D02*
X10446372Y-14690755D01*
X10446372Y-14690755D02*
X10474944Y-14690755D01*
X10474944Y-14690755D02*
X10493991Y-14700278D01*
X10493991Y-14700278D02*
X10503515Y-14719326D01*
X10503515Y-14719326D02*
X10503515Y-14824088D01*
X10893991Y-14614564D02*
X10722563Y-14871707D01*
X11151134Y-14624088D02*
X11170182Y-14624088D01*
X11170182Y-14624088D02*
X11189229Y-14633612D01*
X11189229Y-14633612D02*
X11198753Y-14643136D01*
X11198753Y-14643136D02*
X11208277Y-14662183D01*
X11208277Y-14662183D02*
X11217801Y-14700278D01*
X11217801Y-14700278D02*
X11217801Y-14747897D01*
X11217801Y-14747897D02*
X11208277Y-14785993D01*
X11208277Y-14785993D02*
X11198753Y-14805040D01*
X11198753Y-14805040D02*
X11189229Y-14814564D01*
X11189229Y-14814564D02*
X11170182Y-14824088D01*
X11170182Y-14824088D02*
X11151134Y-14824088D01*
X11151134Y-14824088D02*
X11132087Y-14814564D01*
X11132087Y-14814564D02*
X11122563Y-14805040D01*
X11122563Y-14805040D02*
X11113039Y-14785993D01*
X11113039Y-14785993D02*
X11103515Y-14747897D01*
X11103515Y-14747897D02*
X11103515Y-14700278D01*
X11103515Y-14700278D02*
X11113039Y-14662183D01*
X11113039Y-14662183D02*
X11122563Y-14643136D01*
X11122563Y-14643136D02*
X11132087Y-14633612D01*
X11132087Y-14633612D02*
X11151134Y-14624088D01*
X11303515Y-14805040D02*
X11313039Y-14814564D01*
X11313039Y-14814564D02*
X11303515Y-14824088D01*
X11303515Y-14824088D02*
X11293991Y-14814564D01*
X11293991Y-14814564D02*
X11303515Y-14805040D01*
X11303515Y-14805040D02*
X11303515Y-14824088D01*
X11503515Y-14824088D02*
X11389229Y-14824088D01*
X11446372Y-14824088D02*
X11446372Y-14624088D01*
X11446372Y-14624088D02*
X11427325Y-14652659D01*
X11427325Y-14652659D02*
X11408277Y-14671707D01*
X11408277Y-14671707D02*
X11389229Y-14681231D01*
X11693991Y-14824088D02*
X11579706Y-14824088D01*
X11636848Y-14824088D02*
X11636848Y-14624088D01*
X11636848Y-14624088D02*
X11617801Y-14652659D01*
X11617801Y-14652659D02*
X11598753Y-14671707D01*
X11598753Y-14671707D02*
X11579706Y-14681231D01*
X11808277Y-14709802D02*
X11789229Y-14700278D01*
X11789229Y-14700278D02*
X11779706Y-14690755D01*
X11779706Y-14690755D02*
X11770182Y-14671707D01*
X11770182Y-14671707D02*
X11770182Y-14662183D01*
X11770182Y-14662183D02*
X11779706Y-14643136D01*
X11779706Y-14643136D02*
X11789229Y-14633612D01*
X11789229Y-14633612D02*
X11808277Y-14624088D01*
X11808277Y-14624088D02*
X11846372Y-14624088D01*
X11846372Y-14624088D02*
X11865420Y-14633612D01*
X11865420Y-14633612D02*
X11874944Y-14643136D01*
X11874944Y-14643136D02*
X11884467Y-14662183D01*
X11884467Y-14662183D02*
X11884467Y-14671707D01*
X11884467Y-14671707D02*
X11874944Y-14690755D01*
X11874944Y-14690755D02*
X11865420Y-14700278D01*
X11865420Y-14700278D02*
X11846372Y-14709802D01*
X11846372Y-14709802D02*
X11808277Y-14709802D01*
X11808277Y-14709802D02*
X11789229Y-14719326D01*
X11789229Y-14719326D02*
X11779706Y-14728850D01*
X11779706Y-14728850D02*
X11770182Y-14747897D01*
X11770182Y-14747897D02*
X11770182Y-14785993D01*
X11770182Y-14785993D02*
X11779706Y-14805040D01*
X11779706Y-14805040D02*
X11789229Y-14814564D01*
X11789229Y-14814564D02*
X11808277Y-14824088D01*
X11808277Y-14824088D02*
X11846372Y-14824088D01*
X11846372Y-14824088D02*
X11865420Y-14814564D01*
X11865420Y-14814564D02*
X11874944Y-14805040D01*
X11874944Y-14805040D02*
X11884467Y-14785993D01*
X11884467Y-14785993D02*
X11884467Y-14747897D01*
X11884467Y-14747897D02*
X11874944Y-14728850D01*
X11874944Y-14728850D02*
X11865420Y-14719326D01*
X11865420Y-14719326D02*
X11846372Y-14709802D01*
X12074944Y-14824088D02*
X11960658Y-14824088D01*
X12017801Y-14824088D02*
X12017801Y-14624088D01*
X12017801Y-14624088D02*
X11998753Y-14652659D01*
X11998753Y-14652659D02*
X11979706Y-14671707D01*
X11979706Y-14671707D02*
X11960658Y-14681231D01*
X12151134Y-14624088D02*
X12151134Y-14662183D01*
X12227325Y-14624088D02*
X12227325Y-14662183D01*
X12522563Y-14900278D02*
X12513039Y-14890755D01*
X12513039Y-14890755D02*
X12493991Y-14862183D01*
X12493991Y-14862183D02*
X12484468Y-14843136D01*
X12484468Y-14843136D02*
X12474944Y-14814564D01*
X12474944Y-14814564D02*
X12465420Y-14766945D01*
X12465420Y-14766945D02*
X12465420Y-14728850D01*
X12465420Y-14728850D02*
X12474944Y-14681231D01*
X12474944Y-14681231D02*
X12484468Y-14652659D01*
X12484468Y-14652659D02*
X12493991Y-14633612D01*
X12493991Y-14633612D02*
X12513039Y-14605040D01*
X12513039Y-14605040D02*
X12522563Y-14595516D01*
X12693991Y-14624088D02*
X12598753Y-14624088D01*
X12598753Y-14624088D02*
X12589229Y-14719326D01*
X12589229Y-14719326D02*
X12598753Y-14709802D01*
X12598753Y-14709802D02*
X12617801Y-14700278D01*
X12617801Y-14700278D02*
X12665420Y-14700278D01*
X12665420Y-14700278D02*
X12684468Y-14709802D01*
X12684468Y-14709802D02*
X12693991Y-14719326D01*
X12693991Y-14719326D02*
X12703515Y-14738374D01*
X12703515Y-14738374D02*
X12703515Y-14785993D01*
X12703515Y-14785993D02*
X12693991Y-14805040D01*
X12693991Y-14805040D02*
X12684468Y-14814564D01*
X12684468Y-14814564D02*
X12665420Y-14824088D01*
X12665420Y-14824088D02*
X12617801Y-14824088D01*
X12617801Y-14824088D02*
X12598753Y-14814564D01*
X12598753Y-14814564D02*
X12589229Y-14805040D01*
X12893991Y-14824088D02*
X12779706Y-14824088D01*
X12836848Y-14824088D02*
X12836848Y-14624088D01*
X12836848Y-14624088D02*
X12817801Y-14652659D01*
X12817801Y-14652659D02*
X12798753Y-14671707D01*
X12798753Y-14671707D02*
X12779706Y-14681231D01*
X13132087Y-14824088D02*
X13132087Y-14624088D01*
X13217801Y-14824088D02*
X13217801Y-14719326D01*
X13217801Y-14719326D02*
X13208277Y-14700278D01*
X13208277Y-14700278D02*
X13189230Y-14690755D01*
X13189230Y-14690755D02*
X13160658Y-14690755D01*
X13160658Y-14690755D02*
X13141610Y-14700278D01*
X13141610Y-14700278D02*
X13132087Y-14709802D01*
X13341610Y-14824088D02*
X13322563Y-14814564D01*
X13322563Y-14814564D02*
X13313039Y-14805040D01*
X13313039Y-14805040D02*
X13303515Y-14785993D01*
X13303515Y-14785993D02*
X13303515Y-14728850D01*
X13303515Y-14728850D02*
X13313039Y-14709802D01*
X13313039Y-14709802D02*
X13322563Y-14700278D01*
X13322563Y-14700278D02*
X13341610Y-14690755D01*
X13341610Y-14690755D02*
X13370182Y-14690755D01*
X13370182Y-14690755D02*
X13389230Y-14700278D01*
X13389230Y-14700278D02*
X13398753Y-14709802D01*
X13398753Y-14709802D02*
X13408277Y-14728850D01*
X13408277Y-14728850D02*
X13408277Y-14785993D01*
X13408277Y-14785993D02*
X13398753Y-14805040D01*
X13398753Y-14805040D02*
X13389230Y-14814564D01*
X13389230Y-14814564D02*
X13370182Y-14824088D01*
X13370182Y-14824088D02*
X13341610Y-14824088D01*
X13522563Y-14824088D02*
X13503515Y-14814564D01*
X13503515Y-14814564D02*
X13493991Y-14795516D01*
X13493991Y-14795516D02*
X13493991Y-14624088D01*
X13674944Y-14814564D02*
X13655896Y-14824088D01*
X13655896Y-14824088D02*
X13617801Y-14824088D01*
X13617801Y-14824088D02*
X13598753Y-14814564D01*
X13598753Y-14814564D02*
X13589230Y-14795516D01*
X13589230Y-14795516D02*
X13589230Y-14719326D01*
X13589230Y-14719326D02*
X13598753Y-14700278D01*
X13598753Y-14700278D02*
X13617801Y-14690755D01*
X13617801Y-14690755D02*
X13655896Y-14690755D01*
X13655896Y-14690755D02*
X13674944Y-14700278D01*
X13674944Y-14700278D02*
X13684468Y-14719326D01*
X13684468Y-14719326D02*
X13684468Y-14738374D01*
X13684468Y-14738374D02*
X13589230Y-14757421D01*
X13760658Y-14814564D02*
X13779706Y-14824088D01*
X13779706Y-14824088D02*
X13817801Y-14824088D01*
X13817801Y-14824088D02*
X13836849Y-14814564D01*
X13836849Y-14814564D02*
X13846372Y-14795516D01*
X13846372Y-14795516D02*
X13846372Y-14785993D01*
X13846372Y-14785993D02*
X13836849Y-14766945D01*
X13836849Y-14766945D02*
X13817801Y-14757421D01*
X13817801Y-14757421D02*
X13789230Y-14757421D01*
X13789230Y-14757421D02*
X13770182Y-14747897D01*
X13770182Y-14747897D02*
X13760658Y-14728850D01*
X13760658Y-14728850D02*
X13760658Y-14719326D01*
X13760658Y-14719326D02*
X13770182Y-14700278D01*
X13770182Y-14700278D02*
X13789230Y-14690755D01*
X13789230Y-14690755D02*
X13817801Y-14690755D01*
X13817801Y-14690755D02*
X13836849Y-14700278D01*
X13913039Y-14900278D02*
X13922563Y-14890755D01*
X13922563Y-14890755D02*
X13941611Y-14862183D01*
X13941611Y-14862183D02*
X13951134Y-14843136D01*
X13951134Y-14843136D02*
X13960658Y-14814564D01*
X13960658Y-14814564D02*
X13970182Y-14766945D01*
X13970182Y-14766945D02*
X13970182Y-14728850D01*
X13970182Y-14728850D02*
X13960658Y-14681231D01*
X13960658Y-14681231D02*
X13951134Y-14652659D01*
X13951134Y-14652659D02*
X13941611Y-14633612D01*
X13941611Y-14633612D02*
X13922563Y-14605040D01*
X13922563Y-14605040D02*
X13913039Y-14595516D01*
X14274944Y-14900278D02*
X14265420Y-14890755D01*
X14265420Y-14890755D02*
X14246372Y-14862183D01*
X14246372Y-14862183D02*
X14236849Y-14843136D01*
X14236849Y-14843136D02*
X14227325Y-14814564D01*
X14227325Y-14814564D02*
X14217801Y-14766945D01*
X14217801Y-14766945D02*
X14217801Y-14728850D01*
X14217801Y-14728850D02*
X14227325Y-14681231D01*
X14227325Y-14681231D02*
X14236849Y-14652659D01*
X14236849Y-14652659D02*
X14246372Y-14633612D01*
X14246372Y-14633612D02*
X14265420Y-14605040D01*
X14265420Y-14605040D02*
X14274944Y-14595516D01*
X14351134Y-14690755D02*
X14351134Y-14824088D01*
X14351134Y-14709802D02*
X14360658Y-14700278D01*
X14360658Y-14700278D02*
X14379706Y-14690755D01*
X14379706Y-14690755D02*
X14408277Y-14690755D01*
X14408277Y-14690755D02*
X14427325Y-14700278D01*
X14427325Y-14700278D02*
X14436849Y-14719326D01*
X14436849Y-14719326D02*
X14436849Y-14824088D01*
X14560658Y-14824088D02*
X14541611Y-14814564D01*
X14541611Y-14814564D02*
X14532087Y-14805040D01*
X14532087Y-14805040D02*
X14522563Y-14785993D01*
X14522563Y-14785993D02*
X14522563Y-14728850D01*
X14522563Y-14728850D02*
X14532087Y-14709802D01*
X14532087Y-14709802D02*
X14541611Y-14700278D01*
X14541611Y-14700278D02*
X14560658Y-14690755D01*
X14560658Y-14690755D02*
X14589230Y-14690755D01*
X14589230Y-14690755D02*
X14608277Y-14700278D01*
X14608277Y-14700278D02*
X14617801Y-14709802D01*
X14617801Y-14709802D02*
X14627325Y-14728850D01*
X14627325Y-14728850D02*
X14627325Y-14785993D01*
X14627325Y-14785993D02*
X14617801Y-14805040D01*
X14617801Y-14805040D02*
X14608277Y-14814564D01*
X14608277Y-14814564D02*
X14589230Y-14824088D01*
X14589230Y-14824088D02*
X14560658Y-14824088D01*
X14684468Y-14690755D02*
X14760658Y-14690755D01*
X14713039Y-14624088D02*
X14713039Y-14795516D01*
X14713039Y-14795516D02*
X14722563Y-14814564D01*
X14722563Y-14814564D02*
X14741611Y-14824088D01*
X14741611Y-14824088D02*
X14760658Y-14824088D01*
X14979706Y-14690755D02*
X14979706Y-14890755D01*
X14979706Y-14700278D02*
X14998753Y-14690755D01*
X14998753Y-14690755D02*
X15036849Y-14690755D01*
X15036849Y-14690755D02*
X15055896Y-14700278D01*
X15055896Y-14700278D02*
X15065420Y-14709802D01*
X15065420Y-14709802D02*
X15074944Y-14728850D01*
X15074944Y-14728850D02*
X15074944Y-14785993D01*
X15074944Y-14785993D02*
X15065420Y-14805040D01*
X15065420Y-14805040D02*
X15055896Y-14814564D01*
X15055896Y-14814564D02*
X15036849Y-14824088D01*
X15036849Y-14824088D02*
X14998753Y-14824088D01*
X14998753Y-14824088D02*
X14979706Y-14814564D01*
X15189230Y-14824088D02*
X15170182Y-14814564D01*
X15170182Y-14814564D02*
X15160658Y-14795516D01*
X15160658Y-14795516D02*
X15160658Y-14624088D01*
X15351134Y-14824088D02*
X15351134Y-14719326D01*
X15351134Y-14719326D02*
X15341611Y-14700278D01*
X15341611Y-14700278D02*
X15322563Y-14690755D01*
X15322563Y-14690755D02*
X15284468Y-14690755D01*
X15284468Y-14690755D02*
X15265420Y-14700278D01*
X15351134Y-14814564D02*
X15332087Y-14824088D01*
X15332087Y-14824088D02*
X15284468Y-14824088D01*
X15284468Y-14824088D02*
X15265420Y-14814564D01*
X15265420Y-14814564D02*
X15255896Y-14795516D01*
X15255896Y-14795516D02*
X15255896Y-14776469D01*
X15255896Y-14776469D02*
X15265420Y-14757421D01*
X15265420Y-14757421D02*
X15284468Y-14747897D01*
X15284468Y-14747897D02*
X15332087Y-14747897D01*
X15332087Y-14747897D02*
X15351134Y-14738374D01*
X15417801Y-14690755D02*
X15493992Y-14690755D01*
X15446373Y-14624088D02*
X15446373Y-14795516D01*
X15446373Y-14795516D02*
X15455896Y-14814564D01*
X15455896Y-14814564D02*
X15474944Y-14824088D01*
X15474944Y-14824088D02*
X15493992Y-14824088D01*
X15636849Y-14814564D02*
X15617801Y-14824088D01*
X15617801Y-14824088D02*
X15579706Y-14824088D01*
X15579706Y-14824088D02*
X15560658Y-14814564D01*
X15560658Y-14814564D02*
X15551134Y-14795516D01*
X15551134Y-14795516D02*
X15551134Y-14719326D01*
X15551134Y-14719326D02*
X15560658Y-14700278D01*
X15560658Y-14700278D02*
X15579706Y-14690755D01*
X15579706Y-14690755D02*
X15617801Y-14690755D01*
X15617801Y-14690755D02*
X15636849Y-14700278D01*
X15636849Y-14700278D02*
X15646373Y-14719326D01*
X15646373Y-14719326D02*
X15646373Y-14738374D01*
X15646373Y-14738374D02*
X15551134Y-14757421D01*
X15817801Y-14824088D02*
X15817801Y-14624088D01*
X15817801Y-14814564D02*
X15798754Y-14824088D01*
X15798754Y-14824088D02*
X15760658Y-14824088D01*
X15760658Y-14824088D02*
X15741611Y-14814564D01*
X15741611Y-14814564D02*
X15732087Y-14805040D01*
X15732087Y-14805040D02*
X15722563Y-14785993D01*
X15722563Y-14785993D02*
X15722563Y-14728850D01*
X15722563Y-14728850D02*
X15732087Y-14709802D01*
X15732087Y-14709802D02*
X15741611Y-14700278D01*
X15741611Y-14700278D02*
X15760658Y-14690755D01*
X15760658Y-14690755D02*
X15798754Y-14690755D01*
X15798754Y-14690755D02*
X15817801Y-14700278D01*
X15893992Y-14900278D02*
X15903515Y-14890755D01*
X15903515Y-14890755D02*
X15922563Y-14862183D01*
X15922563Y-14862183D02*
X15932087Y-14843136D01*
X15932087Y-14843136D02*
X15941611Y-14814564D01*
X15941611Y-14814564D02*
X15951134Y-14766945D01*
X15951134Y-14766945D02*
X15951134Y-14728850D01*
X15951134Y-14728850D02*
X15941611Y-14681231D01*
X15941611Y-14681231D02*
X15932087Y-14652659D01*
X15932087Y-14652659D02*
X15922563Y-14633612D01*
X15922563Y-14633612D02*
X15903515Y-14605040D01*
X15903515Y-14605040D02*
X15893992Y-14595516D01*
X8918211Y-15123316D02*
X8918211Y-14981893D01*
X8776789Y-14981893D01*
X8776789Y-15123316D01*
X8918211Y-15123316D01*
X9189229Y-14944088D02*
X9313039Y-14944088D01*
X9313039Y-14944088D02*
X9246372Y-15020278D01*
X9246372Y-15020278D02*
X9274944Y-15020278D01*
X9274944Y-15020278D02*
X9293991Y-15029802D01*
X9293991Y-15029802D02*
X9303515Y-15039326D01*
X9303515Y-15039326D02*
X9313039Y-15058374D01*
X9313039Y-15058374D02*
X9313039Y-15105993D01*
X9313039Y-15105993D02*
X9303515Y-15125040D01*
X9303515Y-15125040D02*
X9293991Y-15134564D01*
X9293991Y-15134564D02*
X9274944Y-15144088D01*
X9274944Y-15144088D02*
X9217801Y-15144088D01*
X9217801Y-15144088D02*
X9198753Y-15134564D01*
X9198753Y-15134564D02*
X9189229Y-15125040D01*
X9398753Y-15125040D02*
X9408277Y-15134564D01*
X9408277Y-15134564D02*
X9398753Y-15144088D01*
X9398753Y-15144088D02*
X9389229Y-15134564D01*
X9389229Y-15134564D02*
X9398753Y-15125040D01*
X9398753Y-15125040D02*
X9398753Y-15144088D01*
X9579705Y-15010755D02*
X9579705Y-15144088D01*
X9532086Y-14934564D02*
X9484467Y-15077421D01*
X9484467Y-15077421D02*
X9608277Y-15077421D01*
X9674944Y-14963136D02*
X9684467Y-14953612D01*
X9684467Y-14953612D02*
X9703515Y-14944088D01*
X9703515Y-14944088D02*
X9751134Y-14944088D01*
X9751134Y-14944088D02*
X9770182Y-14953612D01*
X9770182Y-14953612D02*
X9779705Y-14963136D01*
X9779705Y-14963136D02*
X9789229Y-14982183D01*
X9789229Y-14982183D02*
X9789229Y-15001231D01*
X9789229Y-15001231D02*
X9779705Y-15029802D01*
X9779705Y-15029802D02*
X9665420Y-15144088D01*
X9665420Y-15144088D02*
X9789229Y-15144088D01*
X9884467Y-15144088D02*
X9922563Y-15144088D01*
X9922563Y-15144088D02*
X9941610Y-15134564D01*
X9941610Y-15134564D02*
X9951134Y-15125040D01*
X9951134Y-15125040D02*
X9970182Y-15096469D01*
X9970182Y-15096469D02*
X9979705Y-15058374D01*
X9979705Y-15058374D02*
X9979705Y-14982183D01*
X9979705Y-14982183D02*
X9970182Y-14963136D01*
X9970182Y-14963136D02*
X9960658Y-14953612D01*
X9960658Y-14953612D02*
X9941610Y-14944088D01*
X9941610Y-14944088D02*
X9903515Y-14944088D01*
X9903515Y-14944088D02*
X9884467Y-14953612D01*
X9884467Y-14953612D02*
X9874944Y-14963136D01*
X9874944Y-14963136D02*
X9865420Y-14982183D01*
X9865420Y-14982183D02*
X9865420Y-15029802D01*
X9865420Y-15029802D02*
X9874944Y-15048850D01*
X9874944Y-15048850D02*
X9884467Y-15058374D01*
X9884467Y-15058374D02*
X9903515Y-15067897D01*
X9903515Y-15067897D02*
X9941610Y-15067897D01*
X9941610Y-15067897D02*
X9960658Y-15058374D01*
X9960658Y-15058374D02*
X9970182Y-15048850D01*
X9970182Y-15048850D02*
X9979705Y-15029802D01*
X10065420Y-15144088D02*
X10065420Y-15010755D01*
X10065420Y-15029802D02*
X10074944Y-15020278D01*
X10074944Y-15020278D02*
X10093991Y-15010755D01*
X10093991Y-15010755D02*
X10122563Y-15010755D01*
X10122563Y-15010755D02*
X10141610Y-15020278D01*
X10141610Y-15020278D02*
X10151134Y-15039326D01*
X10151134Y-15039326D02*
X10151134Y-15144088D01*
X10151134Y-15039326D02*
X10160658Y-15020278D01*
X10160658Y-15020278D02*
X10179705Y-15010755D01*
X10179705Y-15010755D02*
X10208277Y-15010755D01*
X10208277Y-15010755D02*
X10227325Y-15020278D01*
X10227325Y-15020278D02*
X10236848Y-15039326D01*
X10236848Y-15039326D02*
X10236848Y-15144088D01*
X10332086Y-15144088D02*
X10332086Y-15010755D01*
X10332086Y-15029802D02*
X10341610Y-15020278D01*
X10341610Y-15020278D02*
X10360658Y-15010755D01*
X10360658Y-15010755D02*
X10389229Y-15010755D01*
X10389229Y-15010755D02*
X10408277Y-15020278D01*
X10408277Y-15020278D02*
X10417801Y-15039326D01*
X10417801Y-15039326D02*
X10417801Y-15144088D01*
X10417801Y-15039326D02*
X10427325Y-15020278D01*
X10427325Y-15020278D02*
X10446372Y-15010755D01*
X10446372Y-15010755D02*
X10474944Y-15010755D01*
X10474944Y-15010755D02*
X10493991Y-15020278D01*
X10493991Y-15020278D02*
X10503515Y-15039326D01*
X10503515Y-15039326D02*
X10503515Y-15144088D01*
X10893991Y-14934564D02*
X10722563Y-15191707D01*
X11151134Y-14944088D02*
X11170182Y-14944088D01*
X11170182Y-14944088D02*
X11189229Y-14953612D01*
X11189229Y-14953612D02*
X11198753Y-14963136D01*
X11198753Y-14963136D02*
X11208277Y-14982183D01*
X11208277Y-14982183D02*
X11217801Y-15020278D01*
X11217801Y-15020278D02*
X11217801Y-15067897D01*
X11217801Y-15067897D02*
X11208277Y-15105993D01*
X11208277Y-15105993D02*
X11198753Y-15125040D01*
X11198753Y-15125040D02*
X11189229Y-15134564D01*
X11189229Y-15134564D02*
X11170182Y-15144088D01*
X11170182Y-15144088D02*
X11151134Y-15144088D01*
X11151134Y-15144088D02*
X11132087Y-15134564D01*
X11132087Y-15134564D02*
X11122563Y-15125040D01*
X11122563Y-15125040D02*
X11113039Y-15105993D01*
X11113039Y-15105993D02*
X11103515Y-15067897D01*
X11103515Y-15067897D02*
X11103515Y-15020278D01*
X11103515Y-15020278D02*
X11113039Y-14982183D01*
X11113039Y-14982183D02*
X11122563Y-14963136D01*
X11122563Y-14963136D02*
X11132087Y-14953612D01*
X11132087Y-14953612D02*
X11151134Y-14944088D01*
X11303515Y-15125040D02*
X11313039Y-15134564D01*
X11313039Y-15134564D02*
X11303515Y-15144088D01*
X11303515Y-15144088D02*
X11293991Y-15134564D01*
X11293991Y-15134564D02*
X11303515Y-15125040D01*
X11303515Y-15125040D02*
X11303515Y-15144088D01*
X11503515Y-15144088D02*
X11389229Y-15144088D01*
X11446372Y-15144088D02*
X11446372Y-14944088D01*
X11446372Y-14944088D02*
X11427325Y-14972659D01*
X11427325Y-14972659D02*
X11408277Y-14991707D01*
X11408277Y-14991707D02*
X11389229Y-15001231D01*
X11570182Y-14944088D02*
X11693991Y-14944088D01*
X11693991Y-14944088D02*
X11627325Y-15020278D01*
X11627325Y-15020278D02*
X11655896Y-15020278D01*
X11655896Y-15020278D02*
X11674944Y-15029802D01*
X11674944Y-15029802D02*
X11684467Y-15039326D01*
X11684467Y-15039326D02*
X11693991Y-15058374D01*
X11693991Y-15058374D02*
X11693991Y-15105993D01*
X11693991Y-15105993D02*
X11684467Y-15125040D01*
X11684467Y-15125040D02*
X11674944Y-15134564D01*
X11674944Y-15134564D02*
X11655896Y-15144088D01*
X11655896Y-15144088D02*
X11598753Y-15144088D01*
X11598753Y-15144088D02*
X11579706Y-15134564D01*
X11579706Y-15134564D02*
X11570182Y-15125040D01*
X11874944Y-14944088D02*
X11779706Y-14944088D01*
X11779706Y-14944088D02*
X11770182Y-15039326D01*
X11770182Y-15039326D02*
X11779706Y-15029802D01*
X11779706Y-15029802D02*
X11798753Y-15020278D01*
X11798753Y-15020278D02*
X11846372Y-15020278D01*
X11846372Y-15020278D02*
X11865420Y-15029802D01*
X11865420Y-15029802D02*
X11874944Y-15039326D01*
X11874944Y-15039326D02*
X11884467Y-15058374D01*
X11884467Y-15058374D02*
X11884467Y-15105993D01*
X11884467Y-15105993D02*
X11874944Y-15125040D01*
X11874944Y-15125040D02*
X11865420Y-15134564D01*
X11865420Y-15134564D02*
X11846372Y-15144088D01*
X11846372Y-15144088D02*
X11798753Y-15144088D01*
X11798753Y-15144088D02*
X11779706Y-15134564D01*
X11779706Y-15134564D02*
X11770182Y-15125040D01*
X12008277Y-14944088D02*
X12027325Y-14944088D01*
X12027325Y-14944088D02*
X12046372Y-14953612D01*
X12046372Y-14953612D02*
X12055896Y-14963136D01*
X12055896Y-14963136D02*
X12065420Y-14982183D01*
X12065420Y-14982183D02*
X12074944Y-15020278D01*
X12074944Y-15020278D02*
X12074944Y-15067897D01*
X12074944Y-15067897D02*
X12065420Y-15105993D01*
X12065420Y-15105993D02*
X12055896Y-15125040D01*
X12055896Y-15125040D02*
X12046372Y-15134564D01*
X12046372Y-15134564D02*
X12027325Y-15144088D01*
X12027325Y-15144088D02*
X12008277Y-15144088D01*
X12008277Y-15144088D02*
X11989229Y-15134564D01*
X11989229Y-15134564D02*
X11979706Y-15125040D01*
X11979706Y-15125040D02*
X11970182Y-15105993D01*
X11970182Y-15105993D02*
X11960658Y-15067897D01*
X11960658Y-15067897D02*
X11960658Y-15020278D01*
X11960658Y-15020278D02*
X11970182Y-14982183D01*
X11970182Y-14982183D02*
X11979706Y-14963136D01*
X11979706Y-14963136D02*
X11989229Y-14953612D01*
X11989229Y-14953612D02*
X12008277Y-14944088D01*
X12151134Y-14944088D02*
X12151134Y-14982183D01*
X12227325Y-14944088D02*
X12227325Y-14982183D01*
X12522563Y-15220278D02*
X12513039Y-15210755D01*
X12513039Y-15210755D02*
X12493991Y-15182183D01*
X12493991Y-15182183D02*
X12484468Y-15163136D01*
X12484468Y-15163136D02*
X12474944Y-15134564D01*
X12474944Y-15134564D02*
X12465420Y-15086945D01*
X12465420Y-15086945D02*
X12465420Y-15048850D01*
X12465420Y-15048850D02*
X12474944Y-15001231D01*
X12474944Y-15001231D02*
X12484468Y-14972659D01*
X12484468Y-14972659D02*
X12493991Y-14953612D01*
X12493991Y-14953612D02*
X12513039Y-14925040D01*
X12513039Y-14925040D02*
X12522563Y-14915516D01*
X12703515Y-15144088D02*
X12589229Y-15144088D01*
X12646372Y-15144088D02*
X12646372Y-14944088D01*
X12646372Y-14944088D02*
X12627325Y-14972659D01*
X12627325Y-14972659D02*
X12608277Y-14991707D01*
X12608277Y-14991707D02*
X12589229Y-15001231D01*
X12770182Y-14944088D02*
X12903515Y-14944088D01*
X12903515Y-14944088D02*
X12817801Y-15144088D01*
X13132087Y-15144088D02*
X13132087Y-14944088D01*
X13217801Y-15144088D02*
X13217801Y-15039326D01*
X13217801Y-15039326D02*
X13208277Y-15020278D01*
X13208277Y-15020278D02*
X13189230Y-15010755D01*
X13189230Y-15010755D02*
X13160658Y-15010755D01*
X13160658Y-15010755D02*
X13141610Y-15020278D01*
X13141610Y-15020278D02*
X13132087Y-15029802D01*
X13341610Y-15144088D02*
X13322563Y-15134564D01*
X13322563Y-15134564D02*
X13313039Y-15125040D01*
X13313039Y-15125040D02*
X13303515Y-15105993D01*
X13303515Y-15105993D02*
X13303515Y-15048850D01*
X13303515Y-15048850D02*
X13313039Y-15029802D01*
X13313039Y-15029802D02*
X13322563Y-15020278D01*
X13322563Y-15020278D02*
X13341610Y-15010755D01*
X13341610Y-15010755D02*
X13370182Y-15010755D01*
X13370182Y-15010755D02*
X13389230Y-15020278D01*
X13389230Y-15020278D02*
X13398753Y-15029802D01*
X13398753Y-15029802D02*
X13408277Y-15048850D01*
X13408277Y-15048850D02*
X13408277Y-15105993D01*
X13408277Y-15105993D02*
X13398753Y-15125040D01*
X13398753Y-15125040D02*
X13389230Y-15134564D01*
X13389230Y-15134564D02*
X13370182Y-15144088D01*
X13370182Y-15144088D02*
X13341610Y-15144088D01*
X13522563Y-15144088D02*
X13503515Y-15134564D01*
X13503515Y-15134564D02*
X13493991Y-15115516D01*
X13493991Y-15115516D02*
X13493991Y-14944088D01*
X13674944Y-15134564D02*
X13655896Y-15144088D01*
X13655896Y-15144088D02*
X13617801Y-15144088D01*
X13617801Y-15144088D02*
X13598753Y-15134564D01*
X13598753Y-15134564D02*
X13589230Y-15115516D01*
X13589230Y-15115516D02*
X13589230Y-15039326D01*
X13589230Y-15039326D02*
X13598753Y-15020278D01*
X13598753Y-15020278D02*
X13617801Y-15010755D01*
X13617801Y-15010755D02*
X13655896Y-15010755D01*
X13655896Y-15010755D02*
X13674944Y-15020278D01*
X13674944Y-15020278D02*
X13684468Y-15039326D01*
X13684468Y-15039326D02*
X13684468Y-15058374D01*
X13684468Y-15058374D02*
X13589230Y-15077421D01*
X13760658Y-15134564D02*
X13779706Y-15144088D01*
X13779706Y-15144088D02*
X13817801Y-15144088D01*
X13817801Y-15144088D02*
X13836849Y-15134564D01*
X13836849Y-15134564D02*
X13846372Y-15115516D01*
X13846372Y-15115516D02*
X13846372Y-15105993D01*
X13846372Y-15105993D02*
X13836849Y-15086945D01*
X13836849Y-15086945D02*
X13817801Y-15077421D01*
X13817801Y-15077421D02*
X13789230Y-15077421D01*
X13789230Y-15077421D02*
X13770182Y-15067897D01*
X13770182Y-15067897D02*
X13760658Y-15048850D01*
X13760658Y-15048850D02*
X13760658Y-15039326D01*
X13760658Y-15039326D02*
X13770182Y-15020278D01*
X13770182Y-15020278D02*
X13789230Y-15010755D01*
X13789230Y-15010755D02*
X13817801Y-15010755D01*
X13817801Y-15010755D02*
X13836849Y-15020278D01*
X13913039Y-15220278D02*
X13922563Y-15210755D01*
X13922563Y-15210755D02*
X13941611Y-15182183D01*
X13941611Y-15182183D02*
X13951134Y-15163136D01*
X13951134Y-15163136D02*
X13960658Y-15134564D01*
X13960658Y-15134564D02*
X13970182Y-15086945D01*
X13970182Y-15086945D02*
X13970182Y-15048850D01*
X13970182Y-15048850D02*
X13960658Y-15001231D01*
X13960658Y-15001231D02*
X13951134Y-14972659D01*
X13951134Y-14972659D02*
X13941611Y-14953612D01*
X13941611Y-14953612D02*
X13922563Y-14925040D01*
X13922563Y-14925040D02*
X13913039Y-14915516D01*
X14274944Y-15220278D02*
X14265420Y-15210755D01*
X14265420Y-15210755D02*
X14246372Y-15182183D01*
X14246372Y-15182183D02*
X14236849Y-15163136D01*
X14236849Y-15163136D02*
X14227325Y-15134564D01*
X14227325Y-15134564D02*
X14217801Y-15086945D01*
X14217801Y-15086945D02*
X14217801Y-15048850D01*
X14217801Y-15048850D02*
X14227325Y-15001231D01*
X14227325Y-15001231D02*
X14236849Y-14972659D01*
X14236849Y-14972659D02*
X14246372Y-14953612D01*
X14246372Y-14953612D02*
X14265420Y-14925040D01*
X14265420Y-14925040D02*
X14274944Y-14915516D01*
X14351134Y-15010755D02*
X14351134Y-15144088D01*
X14351134Y-15029802D02*
X14360658Y-15020278D01*
X14360658Y-15020278D02*
X14379706Y-15010755D01*
X14379706Y-15010755D02*
X14408277Y-15010755D01*
X14408277Y-15010755D02*
X14427325Y-15020278D01*
X14427325Y-15020278D02*
X14436849Y-15039326D01*
X14436849Y-15039326D02*
X14436849Y-15144088D01*
X14560658Y-15144088D02*
X14541611Y-15134564D01*
X14541611Y-15134564D02*
X14532087Y-15125040D01*
X14532087Y-15125040D02*
X14522563Y-15105993D01*
X14522563Y-15105993D02*
X14522563Y-15048850D01*
X14522563Y-15048850D02*
X14532087Y-15029802D01*
X14532087Y-15029802D02*
X14541611Y-15020278D01*
X14541611Y-15020278D02*
X14560658Y-15010755D01*
X14560658Y-15010755D02*
X14589230Y-15010755D01*
X14589230Y-15010755D02*
X14608277Y-15020278D01*
X14608277Y-15020278D02*
X14617801Y-15029802D01*
X14617801Y-15029802D02*
X14627325Y-15048850D01*
X14627325Y-15048850D02*
X14627325Y-15105993D01*
X14627325Y-15105993D02*
X14617801Y-15125040D01*
X14617801Y-15125040D02*
X14608277Y-15134564D01*
X14608277Y-15134564D02*
X14589230Y-15144088D01*
X14589230Y-15144088D02*
X14560658Y-15144088D01*
X14684468Y-15010755D02*
X14760658Y-15010755D01*
X14713039Y-14944088D02*
X14713039Y-15115516D01*
X14713039Y-15115516D02*
X14722563Y-15134564D01*
X14722563Y-15134564D02*
X14741611Y-15144088D01*
X14741611Y-15144088D02*
X14760658Y-15144088D01*
X14979706Y-15010755D02*
X14979706Y-15210755D01*
X14979706Y-15020278D02*
X14998753Y-15010755D01*
X14998753Y-15010755D02*
X15036849Y-15010755D01*
X15036849Y-15010755D02*
X15055896Y-15020278D01*
X15055896Y-15020278D02*
X15065420Y-15029802D01*
X15065420Y-15029802D02*
X15074944Y-15048850D01*
X15074944Y-15048850D02*
X15074944Y-15105993D01*
X15074944Y-15105993D02*
X15065420Y-15125040D01*
X15065420Y-15125040D02*
X15055896Y-15134564D01*
X15055896Y-15134564D02*
X15036849Y-15144088D01*
X15036849Y-15144088D02*
X14998753Y-15144088D01*
X14998753Y-15144088D02*
X14979706Y-15134564D01*
X15189230Y-15144088D02*
X15170182Y-15134564D01*
X15170182Y-15134564D02*
X15160658Y-15115516D01*
X15160658Y-15115516D02*
X15160658Y-14944088D01*
X15351134Y-15144088D02*
X15351134Y-15039326D01*
X15351134Y-15039326D02*
X15341611Y-15020278D01*
X15341611Y-15020278D02*
X15322563Y-15010755D01*
X15322563Y-15010755D02*
X15284468Y-15010755D01*
X15284468Y-15010755D02*
X15265420Y-15020278D01*
X15351134Y-15134564D02*
X15332087Y-15144088D01*
X15332087Y-15144088D02*
X15284468Y-15144088D01*
X15284468Y-15144088D02*
X15265420Y-15134564D01*
X15265420Y-15134564D02*
X15255896Y-15115516D01*
X15255896Y-15115516D02*
X15255896Y-15096469D01*
X15255896Y-15096469D02*
X15265420Y-15077421D01*
X15265420Y-15077421D02*
X15284468Y-15067897D01*
X15284468Y-15067897D02*
X15332087Y-15067897D01*
X15332087Y-15067897D02*
X15351134Y-15058374D01*
X15417801Y-15010755D02*
X15493992Y-15010755D01*
X15446373Y-14944088D02*
X15446373Y-15115516D01*
X15446373Y-15115516D02*
X15455896Y-15134564D01*
X15455896Y-15134564D02*
X15474944Y-15144088D01*
X15474944Y-15144088D02*
X15493992Y-15144088D01*
X15636849Y-15134564D02*
X15617801Y-15144088D01*
X15617801Y-15144088D02*
X15579706Y-15144088D01*
X15579706Y-15144088D02*
X15560658Y-15134564D01*
X15560658Y-15134564D02*
X15551134Y-15115516D01*
X15551134Y-15115516D02*
X15551134Y-15039326D01*
X15551134Y-15039326D02*
X15560658Y-15020278D01*
X15560658Y-15020278D02*
X15579706Y-15010755D01*
X15579706Y-15010755D02*
X15617801Y-15010755D01*
X15617801Y-15010755D02*
X15636849Y-15020278D01*
X15636849Y-15020278D02*
X15646373Y-15039326D01*
X15646373Y-15039326D02*
X15646373Y-15058374D01*
X15646373Y-15058374D02*
X15551134Y-15077421D01*
X15817801Y-15144088D02*
X15817801Y-14944088D01*
X15817801Y-15134564D02*
X15798754Y-15144088D01*
X15798754Y-15144088D02*
X15760658Y-15144088D01*
X15760658Y-15144088D02*
X15741611Y-15134564D01*
X15741611Y-15134564D02*
X15732087Y-15125040D01*
X15732087Y-15125040D02*
X15722563Y-15105993D01*
X15722563Y-15105993D02*
X15722563Y-15048850D01*
X15722563Y-15048850D02*
X15732087Y-15029802D01*
X15732087Y-15029802D02*
X15741611Y-15020278D01*
X15741611Y-15020278D02*
X15760658Y-15010755D01*
X15760658Y-15010755D02*
X15798754Y-15010755D01*
X15798754Y-15010755D02*
X15817801Y-15020278D01*
X15893992Y-15220278D02*
X15903515Y-15210755D01*
X15903515Y-15210755D02*
X15922563Y-15182183D01*
X15922563Y-15182183D02*
X15932087Y-15163136D01*
X15932087Y-15163136D02*
X15941611Y-15134564D01*
X15941611Y-15134564D02*
X15951134Y-15086945D01*
X15951134Y-15086945D02*
X15951134Y-15048850D01*
X15951134Y-15048850D02*
X15941611Y-15001231D01*
X15941611Y-15001231D02*
X15932087Y-14972659D01*
X15932087Y-14972659D02*
X15922563Y-14953612D01*
X15922563Y-14953612D02*
X15903515Y-14925040D01*
X15903515Y-14925040D02*
X15893992Y-14915516D01*
M02*
