M48
; DRILL file {KiCad 7.0.10} date Mon Jan 15 23:59:12 2024
; FORMAT={-:-/ absolute / metric / decimal}
; #@! TF.CreationDate,2024-01-15T23:59:12+02:00
; #@! TF.GenerationSoftware,Kicad,Pcbnew,7.0.10
; #@! TF.FileFunction,NonPlated,1,2,NPTH
FMAT,2
METRIC
; #@! TA.AperFunction,NonPlated,NPTH,ComponentDrill
T1C0.900
; #@! TA.AperFunction,NonPlated,NPTH,ComponentDrill
T2C1.702
; #@! TA.AperFunction,NonPlated,NPTH,ComponentDrill
T3C3.000
; #@! TA.AperFunction,NonPlated,NPTH,ComponentDrill
T4C3.429
%
G90
G05
T1
X191.8Y-57.125
X194.8Y-57.125
T2
X94.5Y-65.0
X94.5Y-82.5
X94.5Y-100.0
X105.5Y-65.0
X105.5Y-82.5
X105.5Y-100.0
X113.0Y-53.0
X113.0Y-70.5
X113.0Y-88.0
X124.0Y-53.0
X124.0Y-70.5
X124.0Y-88.0
X131.5Y-47.0
X131.5Y-64.5
X131.5Y-82.0
X142.5Y-47.0
X142.5Y-64.5
X142.5Y-82.0
X150.0Y-53.0
X150.0Y-70.5
X150.0Y-88.0
X161.0Y-53.0
X161.0Y-70.5
X161.0Y-88.0
X161.187Y-111.826
X168.5Y-56.0
X168.5Y-73.5
X168.5Y-91.0
X171.813Y-114.674
X179.5Y-56.0
X179.5Y-73.5
X179.5Y-91.0
X184.115Y-119.311
X194.085Y-123.959
T3
X95.0Y-61.25
X95.0Y-78.75
X95.0Y-96.25
X100.0Y-59.05
X100.0Y-76.55
X100.0Y-94.05
X105.0Y-61.25
X105.0Y-78.75
X105.0Y-96.25
X113.5Y-49.25
X113.5Y-66.75
X113.5Y-84.25
X118.5Y-47.05
X118.5Y-64.55
X118.5Y-82.05
X123.5Y-49.25
X123.5Y-66.75
X123.5Y-84.25
X132.0Y-43.25
X132.0Y-60.75
X132.0Y-78.25
X137.0Y-41.05
X137.0Y-58.55
X137.0Y-76.05
X142.0Y-43.25
X142.0Y-60.75
X142.0Y-78.25
X150.5Y-49.25
X150.5Y-66.75
X150.5Y-84.25
X155.5Y-47.05
X155.5Y-64.55
X155.5Y-82.05
X160.5Y-49.25
X160.5Y-66.75
X160.5Y-84.25
X162.641Y-108.334
X168.04Y-107.503
X169.0Y-52.25
X169.0Y-69.75
X169.0Y-87.25
X172.3Y-110.922
X174.0Y-50.05
X174.0Y-67.55
X174.0Y-85.05
X179.0Y-52.25
X179.0Y-69.75
X179.0Y-87.25
X186.153Y-116.123
X191.614Y-116.242
X195.216Y-120.349
T4
X100.0Y-65.0
X100.0Y-82.5
X100.0Y-100.0
X118.5Y-53.0
X118.5Y-70.5
X118.5Y-88.0
X137.0Y-47.0
X137.0Y-64.5
X137.0Y-82.0
X155.5Y-53.0
X155.5Y-70.5
X155.5Y-88.0
X166.5Y-113.25
X174.0Y-56.0
X174.0Y-73.5
X174.0Y-91.0
X189.1Y-121.635
M30
