%TF.GenerationSoftware,KiCad,Pcbnew,7.0.10*%
%TF.CreationDate,2024-01-15T23:59:05+02:00*%
%TF.ProjectId,snak_final,736e616b-5f66-4696-9e61-6c2e6b696361,0.1*%
%TF.SameCoordinates,Original*%
%TF.FileFunction,Drillmap*%
%TF.FilePolarity,Positive*%
%FSLAX45Y45*%
G04 Gerber Fmt 4.5, Leading zero omitted, Abs format (unit mm)*
G04 Created by KiCad (PCBNEW 7.0.10) date 2024-01-15 23:59:05*
%MOMM*%
%LPD*%
G01*
G04 APERTURE LIST*
%ADD10C,0.150000*%
%ADD11C,0.200000*%
%ADD12C,0.100000*%
%ADD13C,0.220000*%
G04 APERTURE END LIST*
D10*
X8955000Y-10813657D02*
X8955000Y-5585343D01*
X18800000Y-5530000D02*
X20055000Y-5530000D01*
X20355000Y-5830000D02*
X20355000Y-11555000D01*
X20355000Y-11555000D02*
X20332926Y-11714821D01*
X20332926Y-11714821D02*
X19566834Y-13357710D01*
X8955000Y-10813657D02*
G75*
G03*
X9172953Y-11102219I300000J0D01*
G01*
X18505000Y-5284544D02*
G75*
G03*
X18800000Y-5530000I295000J54544D01*
G01*
X20355000Y-5830000D02*
G75*
G03*
X20055000Y-5530000I-300000J0D01*
G01*
X19252830Y-13527954D02*
G75*
G03*
X19566834Y-13357710I42111J297030D01*
G01*
X18505000Y-5284544D02*
X18505000Y-4815509D01*
X12409448Y-3647250D02*
G75*
G03*
X9071134Y-5348291I2790552J-9602750D01*
G01*
X18319617Y-4538267D02*
G75*
G03*
X12467326Y-3636447I-4775717J-11551733D01*
G01*
X19252830Y-13527954D02*
G75*
G03*
X9172953Y-11102219I-10402830J-21072046D01*
G01*
X9071134Y-5348291D02*
G75*
G03*
X8955000Y-5585343I183866J-237051D01*
G01*
X12467326Y-3636447D02*
G75*
G03*
X12409448Y-3647250I25838J-298885D01*
G01*
X18505000Y-4815509D02*
G75*
G03*
X18319617Y-4538267I-300000J0D01*
G01*
D11*
D12*
X9385000Y-6985000D02*
X9415000Y-7015000D01*
X9415000Y-6985000D02*
X9385000Y-7015000D01*
X9385000Y-8735000D02*
X9415000Y-8765000D01*
X9415000Y-8735000D02*
X9385000Y-8765000D01*
X9460000Y-6735000D02*
X9490000Y-6765000D01*
X9490000Y-6735000D02*
X9460000Y-6765000D01*
X9460000Y-8485000D02*
X9490000Y-8515000D01*
X9490000Y-8485000D02*
X9460000Y-8515000D01*
X9585000Y-6335000D02*
X9615000Y-6365000D01*
X9615000Y-6335000D02*
X9585000Y-6365000D01*
X9585000Y-8085000D02*
X9615000Y-8115000D01*
X9615000Y-8085000D02*
X9585000Y-8115000D01*
X9585000Y-9835000D02*
X9615000Y-9865000D01*
X9615000Y-9835000D02*
X9585000Y-9865000D01*
X9985000Y-6185000D02*
X10015000Y-6215000D01*
X10015000Y-6185000D02*
X9985000Y-6215000D01*
X9985000Y-7935000D02*
X10015000Y-7965000D01*
X10015000Y-7935000D02*
X9985000Y-7965000D01*
X9985000Y-9685000D02*
X10015000Y-9715000D01*
X10015000Y-9685000D02*
X9985000Y-9715000D01*
X10167095Y-4730860D02*
X10197095Y-4760860D01*
X10197095Y-4730860D02*
X10167095Y-4760860D01*
X10231908Y-4830661D02*
X10261908Y-4860661D01*
X10261908Y-4830661D02*
X10231908Y-4860661D01*
X10334830Y-4621932D02*
X10364830Y-4651932D01*
X10364830Y-4621932D02*
X10334830Y-4651932D01*
X10399642Y-4721734D02*
X10429642Y-4751734D01*
X10429642Y-4721734D02*
X10399642Y-4751734D01*
X11235000Y-5785000D02*
X11265000Y-5815000D01*
X11265000Y-5785000D02*
X11235000Y-5815000D01*
X11235000Y-7535000D02*
X11265000Y-7565000D01*
X11265000Y-7535000D02*
X11235000Y-7565000D01*
X11310000Y-5535000D02*
X11340000Y-5565000D01*
X11340000Y-5535000D02*
X11310000Y-5565000D01*
X11310000Y-7285000D02*
X11340000Y-7315000D01*
X11340000Y-7285000D02*
X11310000Y-7315000D01*
X11435000Y-5135000D02*
X11465000Y-5165000D01*
X11465000Y-5135000D02*
X11435000Y-5165000D01*
X11435000Y-6885000D02*
X11465000Y-6915000D01*
X11465000Y-6885000D02*
X11435000Y-6915000D01*
X11435000Y-8635000D02*
X11465000Y-8665000D01*
X11465000Y-8635000D02*
X11435000Y-8665000D01*
X11835000Y-4985000D02*
X11865000Y-5015000D01*
X11865000Y-4985000D02*
X11835000Y-5015000D01*
X11835000Y-6735000D02*
X11865000Y-6765000D01*
X11865000Y-6735000D02*
X11835000Y-6765000D01*
X11835000Y-8485000D02*
X11865000Y-8515000D01*
X11865000Y-8485000D02*
X11835000Y-8515000D01*
X13085000Y-5185000D02*
X13115000Y-5215000D01*
X13115000Y-5185000D02*
X13085000Y-5215000D01*
X13085000Y-6935000D02*
X13115000Y-6965000D01*
X13115000Y-6935000D02*
X13085000Y-6965000D01*
X13160000Y-4935000D02*
X13190000Y-4965000D01*
X13190000Y-4935000D02*
X13160000Y-4965000D01*
X13160000Y-6685000D02*
X13190000Y-6715000D01*
X13190000Y-6685000D02*
X13160000Y-6715000D01*
X13285000Y-4535000D02*
X13315000Y-4565000D01*
X13315000Y-4535000D02*
X13285000Y-4565000D01*
X13285000Y-6285000D02*
X13315000Y-6315000D01*
X13315000Y-6285000D02*
X13285000Y-6315000D01*
X13285000Y-8035000D02*
X13315000Y-8065000D01*
X13315000Y-8035000D02*
X13285000Y-8065000D01*
X13685000Y-4385000D02*
X13715000Y-4415000D01*
X13715000Y-4385000D02*
X13685000Y-4415000D01*
X13685000Y-6135000D02*
X13715000Y-6165000D01*
X13715000Y-6135000D02*
X13685000Y-6165000D01*
X13685000Y-7885000D02*
X13715000Y-7915000D01*
X13715000Y-7885000D02*
X13685000Y-7915000D01*
X14935000Y-5785000D02*
X14965000Y-5815000D01*
X14965000Y-5785000D02*
X14935000Y-5815000D01*
X14935000Y-7535000D02*
X14965000Y-7565000D01*
X14965000Y-7535000D02*
X14935000Y-7565000D01*
X15010000Y-5535000D02*
X15040000Y-5565000D01*
X15040000Y-5535000D02*
X15010000Y-5565000D01*
X15010000Y-7285000D02*
X15040000Y-7315000D01*
X15040000Y-7285000D02*
X15010000Y-7315000D01*
X15135000Y-5135000D02*
X15165000Y-5165000D01*
X15165000Y-5135000D02*
X15135000Y-5165000D01*
X15135000Y-6885000D02*
X15165000Y-6915000D01*
X15165000Y-6885000D02*
X15135000Y-6915000D01*
X15135000Y-8635000D02*
X15165000Y-8665000D01*
X15165000Y-8635000D02*
X15135000Y-8665000D01*
X15535000Y-4985000D02*
X15565000Y-5015000D01*
X15565000Y-4985000D02*
X15535000Y-5015000D01*
X15535000Y-6735000D02*
X15565000Y-6765000D01*
X15565000Y-6735000D02*
X15535000Y-6765000D01*
X15535000Y-8485000D02*
X15565000Y-8515000D01*
X15565000Y-8485000D02*
X15535000Y-8515000D01*
X16287452Y-11061584D02*
X16317452Y-11091584D01*
X16317452Y-11061584D02*
X16287452Y-11091584D01*
X16785000Y-6085000D02*
X16815000Y-6115000D01*
X16815000Y-6085000D02*
X16785000Y-6115000D01*
X16785000Y-7835000D02*
X16815000Y-7865000D01*
X16815000Y-7835000D02*
X16785000Y-7865000D01*
X16854996Y-10488963D02*
X16884996Y-10518963D01*
X16884996Y-10488963D02*
X16854996Y-10518963D01*
X16860000Y-5835000D02*
X16890000Y-5865000D01*
X16890000Y-5835000D02*
X16860000Y-5865000D01*
X16860000Y-7585000D02*
X16890000Y-7615000D01*
X16890000Y-7585000D02*
X16860000Y-7615000D01*
X16985000Y-5435000D02*
X17015000Y-5465000D01*
X17015000Y-5435000D02*
X16985000Y-5465000D01*
X16985000Y-7185000D02*
X17015000Y-7215000D01*
X17015000Y-7185000D02*
X16985000Y-7215000D01*
X16985000Y-8935000D02*
X17015000Y-8965000D01*
X17015000Y-8935000D02*
X16985000Y-8965000D01*
X17385000Y-5285000D02*
X17415000Y-5315000D01*
X17415000Y-5285000D02*
X17385000Y-5315000D01*
X17385000Y-7035000D02*
X17415000Y-7065000D01*
X17415000Y-7035000D02*
X17385000Y-7065000D01*
X17385000Y-8785000D02*
X17415000Y-8815000D01*
X17415000Y-8785000D02*
X17385000Y-8815000D01*
X17480990Y-12209612D02*
X17510990Y-12239612D01*
X17510990Y-12209612D02*
X17480990Y-12239612D01*
X18515000Y-9045000D02*
X18545000Y-9075000D01*
X18545000Y-9045000D02*
X18515000Y-9075000D01*
X18595000Y-9120000D02*
X18625000Y-9150000D01*
X18625000Y-9120000D02*
X18595000Y-9150000D01*
X18595857Y-11843506D02*
X18625857Y-11873506D01*
X18625857Y-11843506D02*
X18595857Y-11873506D01*
X18675000Y-9195000D02*
X18705000Y-9225000D01*
X18705000Y-9195000D02*
X18675000Y-9225000D01*
X19254213Y-11378137D02*
X19284213Y-11408137D01*
X19284213Y-11378137D02*
X19254213Y-11408137D01*
X19315000Y-5586250D02*
X19345000Y-5616250D01*
X19345000Y-5586250D02*
X19315000Y-5616250D01*
X19350000Y-9515000D02*
X19380000Y-9545000D01*
X19380000Y-9515000D02*
X19350000Y-9545000D01*
X19472500Y-9960000D02*
X19502500Y-9990000D01*
X19502500Y-9960000D02*
X19472500Y-9990000D01*
X20100000Y-9960000D02*
X20130000Y-9990000D01*
X20130000Y-9960000D02*
X20100000Y-9990000D01*
X19058800Y-6070000D02*
G75*
G03*
X19018800Y-6070000I-20000J0D01*
G01*
X19018800Y-6070000D02*
G75*
G03*
X19058800Y-6070000I20000J0D01*
G01*
X19058800Y-6324000D02*
G75*
G03*
X19018800Y-6324000I-20000J0D01*
G01*
X19018800Y-6324000D02*
G75*
G03*
X19058800Y-6324000I20000J0D01*
G01*
X19058800Y-6578000D02*
G75*
G03*
X19018800Y-6578000I-20000J0D01*
G01*
X19018800Y-6578000D02*
G75*
G03*
X19058800Y-6578000I20000J0D01*
G01*
X19058800Y-6832000D02*
G75*
G03*
X19018800Y-6832000I-20000J0D01*
G01*
X19018800Y-6832000D02*
G75*
G03*
X19058800Y-6832000I20000J0D01*
G01*
X19058800Y-7086000D02*
G75*
G03*
X19018800Y-7086000I-20000J0D01*
G01*
X19018800Y-7086000D02*
G75*
G03*
X19058800Y-7086000I20000J0D01*
G01*
X19058800Y-7340000D02*
G75*
G03*
X19018800Y-7340000I-20000J0D01*
G01*
X19018800Y-7340000D02*
G75*
G03*
X19058800Y-7340000I20000J0D01*
G01*
X19058800Y-7594000D02*
G75*
G03*
X19018800Y-7594000I-20000J0D01*
G01*
X19018800Y-7594000D02*
G75*
G03*
X19058800Y-7594000I20000J0D01*
G01*
X19058800Y-7848000D02*
G75*
G03*
X19018800Y-7848000I-20000J0D01*
G01*
X19018800Y-7848000D02*
G75*
G03*
X19058800Y-7848000I20000J0D01*
G01*
X19058800Y-8102000D02*
G75*
G03*
X19018800Y-8102000I-20000J0D01*
G01*
X19018800Y-8102000D02*
G75*
G03*
X19058800Y-8102000I20000J0D01*
G01*
X19058800Y-8356000D02*
G75*
G03*
X19018800Y-8356000I-20000J0D01*
G01*
X19018800Y-8356000D02*
G75*
G03*
X19058800Y-8356000I20000J0D01*
G01*
X19058800Y-8610000D02*
G75*
G03*
X19018800Y-8610000I-20000J0D01*
G01*
X19018800Y-8610000D02*
G75*
G03*
X19058800Y-8610000I20000J0D01*
G01*
X19058800Y-8864000D02*
G75*
G03*
X19018800Y-8864000I-20000J0D01*
G01*
X19018800Y-8864000D02*
G75*
G03*
X19058800Y-8864000I20000J0D01*
G01*
X19711200Y-6070000D02*
G75*
G03*
X19671200Y-6070000I-20000J0D01*
G01*
X19671200Y-6070000D02*
G75*
G03*
X19711200Y-6070000I20000J0D01*
G01*
X19711200Y-6324000D02*
G75*
G03*
X19671200Y-6324000I-20000J0D01*
G01*
X19671200Y-6324000D02*
G75*
G03*
X19711200Y-6324000I20000J0D01*
G01*
X19711200Y-6578000D02*
G75*
G03*
X19671200Y-6578000I-20000J0D01*
G01*
X19671200Y-6578000D02*
G75*
G03*
X19711200Y-6578000I20000J0D01*
G01*
X19711200Y-6832000D02*
G75*
G03*
X19671200Y-6832000I-20000J0D01*
G01*
X19671200Y-6832000D02*
G75*
G03*
X19711200Y-6832000I20000J0D01*
G01*
X19711200Y-7086000D02*
G75*
G03*
X19671200Y-7086000I-20000J0D01*
G01*
X19671200Y-7086000D02*
G75*
G03*
X19711200Y-7086000I20000J0D01*
G01*
X19711200Y-7340000D02*
G75*
G03*
X19671200Y-7340000I-20000J0D01*
G01*
X19671200Y-7340000D02*
G75*
G03*
X19711200Y-7340000I20000J0D01*
G01*
X19711200Y-7594000D02*
G75*
G03*
X19671200Y-7594000I-20000J0D01*
G01*
X19671200Y-7594000D02*
G75*
G03*
X19711200Y-7594000I20000J0D01*
G01*
X19711200Y-7848000D02*
G75*
G03*
X19671200Y-7848000I-20000J0D01*
G01*
X19671200Y-7848000D02*
G75*
G03*
X19711200Y-7848000I20000J0D01*
G01*
X19711200Y-8102000D02*
G75*
G03*
X19671200Y-8102000I-20000J0D01*
G01*
X19671200Y-8102000D02*
G75*
G03*
X19711200Y-8102000I20000J0D01*
G01*
X19711200Y-8356000D02*
G75*
G03*
X19671200Y-8356000I-20000J0D01*
G01*
X19671200Y-8356000D02*
G75*
G03*
X19711200Y-8356000I20000J0D01*
G01*
X19711200Y-8610000D02*
G75*
G03*
X19671200Y-8610000I-20000J0D01*
G01*
X19671200Y-8610000D02*
G75*
G03*
X19711200Y-8610000I20000J0D01*
G01*
X19711200Y-8864000D02*
G75*
G03*
X19671200Y-8864000I-20000J0D01*
G01*
X19671200Y-8864000D02*
G75*
G03*
X19711200Y-8864000I20000J0D01*
G01*
X19880000Y-9837500D02*
X19880000Y-9912500D01*
X19842500Y-9875000D02*
X19917500Y-9875000D01*
X19880000Y-10037500D02*
X19880000Y-10112500D01*
X19842500Y-10075000D02*
X19917500Y-10075000D01*
X9654023Y-7035023D02*
X9654023Y-6964977D01*
X9583977Y-6964977D01*
X9583977Y-7035023D01*
X9654023Y-7035023D01*
X9654023Y-8785023D02*
X9654023Y-8714977D01*
X9583977Y-8714977D01*
X9583977Y-8785023D01*
X9654023Y-8785023D01*
X9654023Y-10535023D02*
X9654023Y-10464977D01*
X9583977Y-10464977D01*
X9583977Y-10535023D01*
X9654023Y-10535023D01*
X10416023Y-7035023D02*
X10416023Y-6964977D01*
X10345977Y-6964977D01*
X10345977Y-7035023D01*
X10416023Y-7035023D01*
X10416023Y-8785023D02*
X10416023Y-8714977D01*
X10345977Y-8714977D01*
X10345977Y-8785023D01*
X10416023Y-8785023D01*
X10416023Y-10535023D02*
X10416023Y-10464977D01*
X10345977Y-10464977D01*
X10345977Y-10535023D01*
X10416023Y-10535023D01*
X11504023Y-5835023D02*
X11504023Y-5764977D01*
X11433977Y-5764977D01*
X11433977Y-5835023D01*
X11504023Y-5835023D01*
X11504023Y-7585023D02*
X11504023Y-7514977D01*
X11433977Y-7514977D01*
X11433977Y-7585023D01*
X11504023Y-7585023D01*
X11504023Y-9335023D02*
X11504023Y-9264977D01*
X11433977Y-9264977D01*
X11433977Y-9335023D01*
X11504023Y-9335023D01*
X12266023Y-5835023D02*
X12266023Y-5764977D01*
X12195977Y-5764977D01*
X12195977Y-5835023D01*
X12266023Y-5835023D01*
X12266023Y-7585023D02*
X12266023Y-7514977D01*
X12195977Y-7514977D01*
X12195977Y-7585023D01*
X12266023Y-7585023D01*
X12266023Y-9335023D02*
X12266023Y-9264977D01*
X12195977Y-9264977D01*
X12195977Y-9335023D01*
X12266023Y-9335023D01*
X13354023Y-5235023D02*
X13354023Y-5164977D01*
X13283977Y-5164977D01*
X13283977Y-5235023D01*
X13354023Y-5235023D01*
X13354023Y-6985023D02*
X13354023Y-6914977D01*
X13283977Y-6914977D01*
X13283977Y-6985023D01*
X13354023Y-6985023D01*
X13354023Y-8735023D02*
X13354023Y-8664977D01*
X13283977Y-8664977D01*
X13283977Y-8735023D01*
X13354023Y-8735023D01*
X14116023Y-5235023D02*
X14116023Y-5164977D01*
X14045977Y-5164977D01*
X14045977Y-5235023D01*
X14116023Y-5235023D01*
X14116023Y-6985023D02*
X14116023Y-6914977D01*
X14045977Y-6914977D01*
X14045977Y-6985023D01*
X14116023Y-6985023D01*
X14116023Y-8735023D02*
X14116023Y-8664977D01*
X14045977Y-8664977D01*
X14045977Y-8735023D01*
X14116023Y-8735023D01*
X15204023Y-5835023D02*
X15204023Y-5764977D01*
X15133977Y-5764977D01*
X15133977Y-5835023D01*
X15204023Y-5835023D01*
X15204023Y-7585023D02*
X15204023Y-7514977D01*
X15133977Y-7514977D01*
X15133977Y-7585023D01*
X15204023Y-7585023D01*
X15204023Y-9335023D02*
X15204023Y-9264977D01*
X15133977Y-9264977D01*
X15133977Y-9335023D01*
X15204023Y-9335023D01*
X15966023Y-5835023D02*
X15966023Y-5764977D01*
X15895977Y-5764977D01*
X15895977Y-5835023D01*
X15966023Y-5835023D01*
X15966023Y-7585023D02*
X15966023Y-7514977D01*
X15895977Y-7514977D01*
X15895977Y-7585023D01*
X15966023Y-7585023D01*
X15966023Y-9335023D02*
X15966023Y-9264977D01*
X15895977Y-9264977D01*
X15895977Y-9335023D01*
X15966023Y-9335023D01*
X16187596Y-11744376D02*
X16187596Y-11674329D01*
X16117549Y-11674329D01*
X16117549Y-11744376D01*
X16187596Y-11744376D01*
X16923632Y-11941596D02*
X16923632Y-11871550D01*
X16853585Y-11871550D01*
X16853585Y-11941596D01*
X16923632Y-11941596D01*
X17054023Y-6135023D02*
X17054023Y-6064977D01*
X16983977Y-6064977D01*
X16983977Y-6135023D01*
X17054023Y-6135023D01*
X17054023Y-7885023D02*
X17054023Y-7814977D01*
X16983977Y-7814977D01*
X16983977Y-7885023D01*
X17054023Y-7885023D01*
X17054023Y-9635023D02*
X17054023Y-9564977D01*
X16983977Y-9564977D01*
X16983977Y-9635023D01*
X17054023Y-9635023D01*
X17816023Y-6135023D02*
X17816023Y-6064977D01*
X17745977Y-6064977D01*
X17745977Y-6135023D01*
X17816023Y-6135023D01*
X17816023Y-7885023D02*
X17816023Y-7814977D01*
X17745977Y-7814977D01*
X17745977Y-7885023D01*
X17816023Y-7885023D01*
X17816023Y-9635023D02*
X17816023Y-9564977D01*
X17745977Y-9564977D01*
X17745977Y-9635023D01*
X17816023Y-9635023D01*
X18388399Y-12490659D02*
X18388399Y-12420612D01*
X18318352Y-12420612D01*
X18318352Y-12490659D01*
X18388399Y-12490659D01*
X19079005Y-12812694D02*
X19079005Y-12742647D01*
X19008959Y-12742647D01*
X19008959Y-12812694D01*
X19079005Y-12812694D01*
X18603000Y-6120000D02*
X18653000Y-6070000D01*
X18603000Y-6020000D01*
X18553000Y-6070000D01*
X18603000Y-6120000D01*
X18603000Y-6374000D02*
X18653000Y-6324000D01*
X18603000Y-6274000D01*
X18553000Y-6324000D01*
X18603000Y-6374000D01*
X18603000Y-6628000D02*
X18653000Y-6578000D01*
X18603000Y-6528000D01*
X18553000Y-6578000D01*
X18603000Y-6628000D01*
X18603000Y-6882000D02*
X18653000Y-6832000D01*
X18603000Y-6782000D01*
X18553000Y-6832000D01*
X18603000Y-6882000D01*
X18603000Y-7136000D02*
X18653000Y-7086000D01*
X18603000Y-7036000D01*
X18553000Y-7086000D01*
X18603000Y-7136000D01*
X18603000Y-7390000D02*
X18653000Y-7340000D01*
X18603000Y-7290000D01*
X18553000Y-7340000D01*
X18603000Y-7390000D01*
X18603000Y-7644000D02*
X18653000Y-7594000D01*
X18603000Y-7544000D01*
X18553000Y-7594000D01*
X18603000Y-7644000D01*
X18603000Y-7898000D02*
X18653000Y-7848000D01*
X18603000Y-7798000D01*
X18553000Y-7848000D01*
X18603000Y-7898000D01*
X18603000Y-8152000D02*
X18653000Y-8102000D01*
X18603000Y-8052000D01*
X18553000Y-8102000D01*
X18603000Y-8152000D01*
X18603000Y-8406000D02*
X18653000Y-8356000D01*
X18603000Y-8306000D01*
X18553000Y-8356000D01*
X18603000Y-8406000D01*
X18603000Y-8660000D02*
X18653000Y-8610000D01*
X18603000Y-8560000D01*
X18553000Y-8610000D01*
X18603000Y-8660000D01*
X18603000Y-8914000D02*
X18653000Y-8864000D01*
X18603000Y-8814000D01*
X18553000Y-8864000D01*
X18603000Y-8914000D01*
X18857000Y-9240000D02*
X18907000Y-9190000D01*
X18857000Y-9140000D01*
X18807000Y-9190000D01*
X18857000Y-9240000D01*
X19111000Y-9240000D02*
X19161000Y-9190000D01*
X19111000Y-9140000D01*
X19061000Y-9190000D01*
X19111000Y-9240000D01*
X19365000Y-9240000D02*
X19415000Y-9190000D01*
X19365000Y-9140000D01*
X19315000Y-9190000D01*
X19365000Y-9240000D01*
X19619000Y-9240000D02*
X19669000Y-9190000D01*
X19619000Y-9140000D01*
X19569000Y-9190000D01*
X19619000Y-9240000D01*
X19873000Y-9240000D02*
X19923000Y-9190000D01*
X19873000Y-9140000D01*
X19823000Y-9190000D01*
X19873000Y-9240000D01*
X20127000Y-6120000D02*
X20177000Y-6070000D01*
X20127000Y-6020000D01*
X20077000Y-6070000D01*
X20127000Y-6120000D01*
X20127000Y-6374000D02*
X20177000Y-6324000D01*
X20127000Y-6274000D01*
X20077000Y-6324000D01*
X20127000Y-6374000D01*
X20127000Y-6628000D02*
X20177000Y-6578000D01*
X20127000Y-6528000D01*
X20077000Y-6578000D01*
X20127000Y-6628000D01*
X20127000Y-6882000D02*
X20177000Y-6832000D01*
X20127000Y-6782000D01*
X20077000Y-6832000D01*
X20127000Y-6882000D01*
X20127000Y-7136000D02*
X20177000Y-7086000D01*
X20127000Y-7036000D01*
X20077000Y-7086000D01*
X20127000Y-7136000D01*
X20127000Y-7390000D02*
X20177000Y-7340000D01*
X20127000Y-7290000D01*
X20077000Y-7340000D01*
X20127000Y-7390000D01*
X20127000Y-7644000D02*
X20177000Y-7594000D01*
X20127000Y-7544000D01*
X20077000Y-7594000D01*
X20127000Y-7644000D01*
X20127000Y-7898000D02*
X20177000Y-7848000D01*
X20127000Y-7798000D01*
X20077000Y-7848000D01*
X20127000Y-7898000D01*
X20127000Y-8152000D02*
X20177000Y-8102000D01*
X20127000Y-8052000D01*
X20077000Y-8102000D01*
X20127000Y-8152000D01*
X20127000Y-8406000D02*
X20177000Y-8356000D01*
X20127000Y-8306000D01*
X20077000Y-8356000D01*
X20127000Y-8406000D01*
X20127000Y-8660000D02*
X20177000Y-8610000D01*
X20127000Y-8560000D01*
X20077000Y-8610000D01*
X20127000Y-8660000D01*
X20127000Y-8914000D02*
X20177000Y-8864000D01*
X20127000Y-8814000D01*
X20077000Y-8864000D01*
X20127000Y-8914000D01*
D13*
X10815000Y-5640000D02*
X11035000Y-5860000D01*
X11035000Y-5640000D02*
X10815000Y-5860000D01*
X11035000Y-5750000D02*
G75*
G03*
X10815000Y-5750000I-110000J0D01*
G01*
X10815000Y-5750000D02*
G75*
G03*
X11035000Y-5750000I110000J0D01*
G01*
X10815000Y-9140000D02*
X11035000Y-9360000D01*
X11035000Y-9140000D02*
X10815000Y-9360000D01*
X11035000Y-9250000D02*
G75*
G03*
X10815000Y-9250000I-110000J0D01*
G01*
X10815000Y-9250000D02*
G75*
G03*
X11035000Y-9250000I110000J0D01*
G01*
X16365000Y-5690000D02*
X16585000Y-5910000D01*
X16585000Y-5690000D02*
X16365000Y-5910000D01*
X16585000Y-5800000D02*
G75*
G03*
X16365000Y-5800000I-110000J0D01*
G01*
X16365000Y-5800000D02*
G75*
G03*
X16585000Y-5800000I110000J0D01*
G01*
X16365000Y-9190000D02*
X16585000Y-9410000D01*
X16585000Y-9190000D02*
X16365000Y-9410000D01*
X16585000Y-9300000D02*
G75*
G03*
X16365000Y-9300000I-110000J0D01*
G01*
X16365000Y-9300000D02*
G75*
G03*
X16585000Y-9300000I110000J0D01*
G01*
X17699111Y-11525583D02*
X17919111Y-11745583D01*
X17919111Y-11525583D02*
X17699111Y-11745583D01*
X17919111Y-11635583D02*
G75*
G03*
X17699111Y-11635583I-110000J0D01*
G01*
X17699111Y-11635583D02*
G75*
G03*
X17919111Y-11635583I110000J0D01*
G01*
D11*
X9208277Y-13849908D02*
X9208277Y-13649908D01*
X9208277Y-13649908D02*
X9255896Y-13649908D01*
X9255896Y-13649908D02*
X9284467Y-13659432D01*
X9284467Y-13659432D02*
X9303515Y-13678479D01*
X9303515Y-13678479D02*
X9313039Y-13697527D01*
X9313039Y-13697527D02*
X9322563Y-13735622D01*
X9322563Y-13735622D02*
X9322563Y-13764194D01*
X9322563Y-13764194D02*
X9313039Y-13802289D01*
X9313039Y-13802289D02*
X9303515Y-13821336D01*
X9303515Y-13821336D02*
X9284467Y-13840384D01*
X9284467Y-13840384D02*
X9255896Y-13849908D01*
X9255896Y-13849908D02*
X9208277Y-13849908D01*
X9408277Y-13849908D02*
X9408277Y-13716575D01*
X9408277Y-13754670D02*
X9417801Y-13735622D01*
X9417801Y-13735622D02*
X9427324Y-13726098D01*
X9427324Y-13726098D02*
X9446372Y-13716575D01*
X9446372Y-13716575D02*
X9465420Y-13716575D01*
X9532086Y-13849908D02*
X9532086Y-13716575D01*
X9532086Y-13649908D02*
X9522563Y-13659432D01*
X9522563Y-13659432D02*
X9532086Y-13668956D01*
X9532086Y-13668956D02*
X9541610Y-13659432D01*
X9541610Y-13659432D02*
X9532086Y-13649908D01*
X9532086Y-13649908D02*
X9532086Y-13668956D01*
X9655896Y-13849908D02*
X9636848Y-13840384D01*
X9636848Y-13840384D02*
X9627324Y-13821336D01*
X9627324Y-13821336D02*
X9627324Y-13649908D01*
X9760658Y-13849908D02*
X9741610Y-13840384D01*
X9741610Y-13840384D02*
X9732086Y-13821336D01*
X9732086Y-13821336D02*
X9732086Y-13649908D01*
X9989229Y-13849908D02*
X9989229Y-13649908D01*
X9989229Y-13649908D02*
X10055896Y-13792765D01*
X10055896Y-13792765D02*
X10122563Y-13649908D01*
X10122563Y-13649908D02*
X10122563Y-13849908D01*
X10303515Y-13849908D02*
X10303515Y-13745146D01*
X10303515Y-13745146D02*
X10293991Y-13726098D01*
X10293991Y-13726098D02*
X10274944Y-13716575D01*
X10274944Y-13716575D02*
X10236848Y-13716575D01*
X10236848Y-13716575D02*
X10217801Y-13726098D01*
X10303515Y-13840384D02*
X10284467Y-13849908D01*
X10284467Y-13849908D02*
X10236848Y-13849908D01*
X10236848Y-13849908D02*
X10217801Y-13840384D01*
X10217801Y-13840384D02*
X10208277Y-13821336D01*
X10208277Y-13821336D02*
X10208277Y-13802289D01*
X10208277Y-13802289D02*
X10217801Y-13783241D01*
X10217801Y-13783241D02*
X10236848Y-13773717D01*
X10236848Y-13773717D02*
X10284467Y-13773717D01*
X10284467Y-13773717D02*
X10303515Y-13764194D01*
X10398753Y-13716575D02*
X10398753Y-13916575D01*
X10398753Y-13726098D02*
X10417801Y-13716575D01*
X10417801Y-13716575D02*
X10455896Y-13716575D01*
X10455896Y-13716575D02*
X10474944Y-13726098D01*
X10474944Y-13726098D02*
X10484467Y-13735622D01*
X10484467Y-13735622D02*
X10493991Y-13754670D01*
X10493991Y-13754670D02*
X10493991Y-13811813D01*
X10493991Y-13811813D02*
X10484467Y-13830860D01*
X10484467Y-13830860D02*
X10474944Y-13840384D01*
X10474944Y-13840384D02*
X10455896Y-13849908D01*
X10455896Y-13849908D02*
X10417801Y-13849908D01*
X10417801Y-13849908D02*
X10398753Y-13840384D01*
X10579705Y-13830860D02*
X10589229Y-13840384D01*
X10589229Y-13840384D02*
X10579705Y-13849908D01*
X10579705Y-13849908D02*
X10570182Y-13840384D01*
X10570182Y-13840384D02*
X10579705Y-13830860D01*
X10579705Y-13830860D02*
X10579705Y-13849908D01*
X10579705Y-13726098D02*
X10589229Y-13735622D01*
X10589229Y-13735622D02*
X10579705Y-13745146D01*
X10579705Y-13745146D02*
X10570182Y-13735622D01*
X10570182Y-13735622D02*
X10579705Y-13726098D01*
X10579705Y-13726098D02*
X10579705Y-13745146D01*
D12*
X8917500Y-14163424D02*
X8947500Y-14193424D01*
X8947500Y-14163424D02*
X8917500Y-14193424D01*
D11*
X9246372Y-14069908D02*
X9265420Y-14069908D01*
X9265420Y-14069908D02*
X9284467Y-14079432D01*
X9284467Y-14079432D02*
X9293991Y-14088956D01*
X9293991Y-14088956D02*
X9303515Y-14108003D01*
X9303515Y-14108003D02*
X9313039Y-14146098D01*
X9313039Y-14146098D02*
X9313039Y-14193717D01*
X9313039Y-14193717D02*
X9303515Y-14231813D01*
X9303515Y-14231813D02*
X9293991Y-14250860D01*
X9293991Y-14250860D02*
X9284467Y-14260384D01*
X9284467Y-14260384D02*
X9265420Y-14269908D01*
X9265420Y-14269908D02*
X9246372Y-14269908D01*
X9246372Y-14269908D02*
X9227324Y-14260384D01*
X9227324Y-14260384D02*
X9217801Y-14250860D01*
X9217801Y-14250860D02*
X9208277Y-14231813D01*
X9208277Y-14231813D02*
X9198753Y-14193717D01*
X9198753Y-14193717D02*
X9198753Y-14146098D01*
X9198753Y-14146098D02*
X9208277Y-14108003D01*
X9208277Y-14108003D02*
X9217801Y-14088956D01*
X9217801Y-14088956D02*
X9227324Y-14079432D01*
X9227324Y-14079432D02*
X9246372Y-14069908D01*
X9398753Y-14250860D02*
X9408277Y-14260384D01*
X9408277Y-14260384D02*
X9398753Y-14269908D01*
X9398753Y-14269908D02*
X9389229Y-14260384D01*
X9389229Y-14260384D02*
X9398753Y-14250860D01*
X9398753Y-14250860D02*
X9398753Y-14269908D01*
X9474944Y-14069908D02*
X9598753Y-14069908D01*
X9598753Y-14069908D02*
X9532086Y-14146098D01*
X9532086Y-14146098D02*
X9560658Y-14146098D01*
X9560658Y-14146098D02*
X9579705Y-14155622D01*
X9579705Y-14155622D02*
X9589229Y-14165146D01*
X9589229Y-14165146D02*
X9598753Y-14184194D01*
X9598753Y-14184194D02*
X9598753Y-14231813D01*
X9598753Y-14231813D02*
X9589229Y-14250860D01*
X9589229Y-14250860D02*
X9579705Y-14260384D01*
X9579705Y-14260384D02*
X9560658Y-14269908D01*
X9560658Y-14269908D02*
X9503515Y-14269908D01*
X9503515Y-14269908D02*
X9484467Y-14260384D01*
X9484467Y-14260384D02*
X9474944Y-14250860D01*
X9722563Y-14069908D02*
X9741610Y-14069908D01*
X9741610Y-14069908D02*
X9760658Y-14079432D01*
X9760658Y-14079432D02*
X9770182Y-14088956D01*
X9770182Y-14088956D02*
X9779705Y-14108003D01*
X9779705Y-14108003D02*
X9789229Y-14146098D01*
X9789229Y-14146098D02*
X9789229Y-14193717D01*
X9789229Y-14193717D02*
X9779705Y-14231813D01*
X9779705Y-14231813D02*
X9770182Y-14250860D01*
X9770182Y-14250860D02*
X9760658Y-14260384D01*
X9760658Y-14260384D02*
X9741610Y-14269908D01*
X9741610Y-14269908D02*
X9722563Y-14269908D01*
X9722563Y-14269908D02*
X9703515Y-14260384D01*
X9703515Y-14260384D02*
X9693991Y-14250860D01*
X9693991Y-14250860D02*
X9684467Y-14231813D01*
X9684467Y-14231813D02*
X9674944Y-14193717D01*
X9674944Y-14193717D02*
X9674944Y-14146098D01*
X9674944Y-14146098D02*
X9684467Y-14108003D01*
X9684467Y-14108003D02*
X9693991Y-14088956D01*
X9693991Y-14088956D02*
X9703515Y-14079432D01*
X9703515Y-14079432D02*
X9722563Y-14069908D01*
X9913039Y-14069908D02*
X9932086Y-14069908D01*
X9932086Y-14069908D02*
X9951134Y-14079432D01*
X9951134Y-14079432D02*
X9960658Y-14088956D01*
X9960658Y-14088956D02*
X9970182Y-14108003D01*
X9970182Y-14108003D02*
X9979705Y-14146098D01*
X9979705Y-14146098D02*
X9979705Y-14193717D01*
X9979705Y-14193717D02*
X9970182Y-14231813D01*
X9970182Y-14231813D02*
X9960658Y-14250860D01*
X9960658Y-14250860D02*
X9951134Y-14260384D01*
X9951134Y-14260384D02*
X9932086Y-14269908D01*
X9932086Y-14269908D02*
X9913039Y-14269908D01*
X9913039Y-14269908D02*
X9893991Y-14260384D01*
X9893991Y-14260384D02*
X9884467Y-14250860D01*
X9884467Y-14250860D02*
X9874944Y-14231813D01*
X9874944Y-14231813D02*
X9865420Y-14193717D01*
X9865420Y-14193717D02*
X9865420Y-14146098D01*
X9865420Y-14146098D02*
X9874944Y-14108003D01*
X9874944Y-14108003D02*
X9884467Y-14088956D01*
X9884467Y-14088956D02*
X9893991Y-14079432D01*
X9893991Y-14079432D02*
X9913039Y-14069908D01*
X10065420Y-14269908D02*
X10065420Y-14136575D01*
X10065420Y-14155622D02*
X10074944Y-14146098D01*
X10074944Y-14146098D02*
X10093991Y-14136575D01*
X10093991Y-14136575D02*
X10122563Y-14136575D01*
X10122563Y-14136575D02*
X10141610Y-14146098D01*
X10141610Y-14146098D02*
X10151134Y-14165146D01*
X10151134Y-14165146D02*
X10151134Y-14269908D01*
X10151134Y-14165146D02*
X10160658Y-14146098D01*
X10160658Y-14146098D02*
X10179705Y-14136575D01*
X10179705Y-14136575D02*
X10208277Y-14136575D01*
X10208277Y-14136575D02*
X10227325Y-14146098D01*
X10227325Y-14146098D02*
X10236848Y-14165146D01*
X10236848Y-14165146D02*
X10236848Y-14269908D01*
X10332086Y-14269908D02*
X10332086Y-14136575D01*
X10332086Y-14155622D02*
X10341610Y-14146098D01*
X10341610Y-14146098D02*
X10360658Y-14136575D01*
X10360658Y-14136575D02*
X10389229Y-14136575D01*
X10389229Y-14136575D02*
X10408277Y-14146098D01*
X10408277Y-14146098D02*
X10417801Y-14165146D01*
X10417801Y-14165146D02*
X10417801Y-14269908D01*
X10417801Y-14165146D02*
X10427325Y-14146098D01*
X10427325Y-14146098D02*
X10446372Y-14136575D01*
X10446372Y-14136575D02*
X10474944Y-14136575D01*
X10474944Y-14136575D02*
X10493991Y-14146098D01*
X10493991Y-14146098D02*
X10503515Y-14165146D01*
X10503515Y-14165146D02*
X10503515Y-14269908D01*
X10893991Y-14060384D02*
X10722563Y-14317527D01*
X11151134Y-14069908D02*
X11170182Y-14069908D01*
X11170182Y-14069908D02*
X11189229Y-14079432D01*
X11189229Y-14079432D02*
X11198753Y-14088956D01*
X11198753Y-14088956D02*
X11208277Y-14108003D01*
X11208277Y-14108003D02*
X11217801Y-14146098D01*
X11217801Y-14146098D02*
X11217801Y-14193717D01*
X11217801Y-14193717D02*
X11208277Y-14231813D01*
X11208277Y-14231813D02*
X11198753Y-14250860D01*
X11198753Y-14250860D02*
X11189229Y-14260384D01*
X11189229Y-14260384D02*
X11170182Y-14269908D01*
X11170182Y-14269908D02*
X11151134Y-14269908D01*
X11151134Y-14269908D02*
X11132087Y-14260384D01*
X11132087Y-14260384D02*
X11122563Y-14250860D01*
X11122563Y-14250860D02*
X11113039Y-14231813D01*
X11113039Y-14231813D02*
X11103515Y-14193717D01*
X11103515Y-14193717D02*
X11103515Y-14146098D01*
X11103515Y-14146098D02*
X11113039Y-14108003D01*
X11113039Y-14108003D02*
X11122563Y-14088956D01*
X11122563Y-14088956D02*
X11132087Y-14079432D01*
X11132087Y-14079432D02*
X11151134Y-14069908D01*
X11303515Y-14250860D02*
X11313039Y-14260384D01*
X11313039Y-14260384D02*
X11303515Y-14269908D01*
X11303515Y-14269908D02*
X11293991Y-14260384D01*
X11293991Y-14260384D02*
X11303515Y-14250860D01*
X11303515Y-14250860D02*
X11303515Y-14269908D01*
X11436848Y-14069908D02*
X11455896Y-14069908D01*
X11455896Y-14069908D02*
X11474944Y-14079432D01*
X11474944Y-14079432D02*
X11484467Y-14088956D01*
X11484467Y-14088956D02*
X11493991Y-14108003D01*
X11493991Y-14108003D02*
X11503515Y-14146098D01*
X11503515Y-14146098D02*
X11503515Y-14193717D01*
X11503515Y-14193717D02*
X11493991Y-14231813D01*
X11493991Y-14231813D02*
X11484467Y-14250860D01*
X11484467Y-14250860D02*
X11474944Y-14260384D01*
X11474944Y-14260384D02*
X11455896Y-14269908D01*
X11455896Y-14269908D02*
X11436848Y-14269908D01*
X11436848Y-14269908D02*
X11417801Y-14260384D01*
X11417801Y-14260384D02*
X11408277Y-14250860D01*
X11408277Y-14250860D02*
X11398753Y-14231813D01*
X11398753Y-14231813D02*
X11389229Y-14193717D01*
X11389229Y-14193717D02*
X11389229Y-14146098D01*
X11389229Y-14146098D02*
X11398753Y-14108003D01*
X11398753Y-14108003D02*
X11408277Y-14088956D01*
X11408277Y-14088956D02*
X11417801Y-14079432D01*
X11417801Y-14079432D02*
X11436848Y-14069908D01*
X11693991Y-14269908D02*
X11579706Y-14269908D01*
X11636848Y-14269908D02*
X11636848Y-14069908D01*
X11636848Y-14069908D02*
X11617801Y-14098479D01*
X11617801Y-14098479D02*
X11598753Y-14117527D01*
X11598753Y-14117527D02*
X11579706Y-14127051D01*
X11884467Y-14269908D02*
X11770182Y-14269908D01*
X11827325Y-14269908D02*
X11827325Y-14069908D01*
X11827325Y-14069908D02*
X11808277Y-14098479D01*
X11808277Y-14098479D02*
X11789229Y-14117527D01*
X11789229Y-14117527D02*
X11770182Y-14127051D01*
X11998753Y-14155622D02*
X11979706Y-14146098D01*
X11979706Y-14146098D02*
X11970182Y-14136575D01*
X11970182Y-14136575D02*
X11960658Y-14117527D01*
X11960658Y-14117527D02*
X11960658Y-14108003D01*
X11960658Y-14108003D02*
X11970182Y-14088956D01*
X11970182Y-14088956D02*
X11979706Y-14079432D01*
X11979706Y-14079432D02*
X11998753Y-14069908D01*
X11998753Y-14069908D02*
X12036848Y-14069908D01*
X12036848Y-14069908D02*
X12055896Y-14079432D01*
X12055896Y-14079432D02*
X12065420Y-14088956D01*
X12065420Y-14088956D02*
X12074944Y-14108003D01*
X12074944Y-14108003D02*
X12074944Y-14117527D01*
X12074944Y-14117527D02*
X12065420Y-14136575D01*
X12065420Y-14136575D02*
X12055896Y-14146098D01*
X12055896Y-14146098D02*
X12036848Y-14155622D01*
X12036848Y-14155622D02*
X11998753Y-14155622D01*
X11998753Y-14155622D02*
X11979706Y-14165146D01*
X11979706Y-14165146D02*
X11970182Y-14174670D01*
X11970182Y-14174670D02*
X11960658Y-14193717D01*
X11960658Y-14193717D02*
X11960658Y-14231813D01*
X11960658Y-14231813D02*
X11970182Y-14250860D01*
X11970182Y-14250860D02*
X11979706Y-14260384D01*
X11979706Y-14260384D02*
X11998753Y-14269908D01*
X11998753Y-14269908D02*
X12036848Y-14269908D01*
X12036848Y-14269908D02*
X12055896Y-14260384D01*
X12055896Y-14260384D02*
X12065420Y-14250860D01*
X12065420Y-14250860D02*
X12074944Y-14231813D01*
X12074944Y-14231813D02*
X12074944Y-14193717D01*
X12074944Y-14193717D02*
X12065420Y-14174670D01*
X12065420Y-14174670D02*
X12055896Y-14165146D01*
X12055896Y-14165146D02*
X12036848Y-14155622D01*
X12151134Y-14069908D02*
X12151134Y-14108003D01*
X12227325Y-14069908D02*
X12227325Y-14108003D01*
X12522563Y-14346098D02*
X12513039Y-14336575D01*
X12513039Y-14336575D02*
X12493991Y-14308003D01*
X12493991Y-14308003D02*
X12484468Y-14288956D01*
X12484468Y-14288956D02*
X12474944Y-14260384D01*
X12474944Y-14260384D02*
X12465420Y-14212765D01*
X12465420Y-14212765D02*
X12465420Y-14174670D01*
X12465420Y-14174670D02*
X12474944Y-14127051D01*
X12474944Y-14127051D02*
X12484468Y-14098479D01*
X12484468Y-14098479D02*
X12493991Y-14079432D01*
X12493991Y-14079432D02*
X12513039Y-14050860D01*
X12513039Y-14050860D02*
X12522563Y-14041336D01*
X12684468Y-14069908D02*
X12646372Y-14069908D01*
X12646372Y-14069908D02*
X12627325Y-14079432D01*
X12627325Y-14079432D02*
X12617801Y-14088956D01*
X12617801Y-14088956D02*
X12598753Y-14117527D01*
X12598753Y-14117527D02*
X12589229Y-14155622D01*
X12589229Y-14155622D02*
X12589229Y-14231813D01*
X12589229Y-14231813D02*
X12598753Y-14250860D01*
X12598753Y-14250860D02*
X12608277Y-14260384D01*
X12608277Y-14260384D02*
X12627325Y-14269908D01*
X12627325Y-14269908D02*
X12665420Y-14269908D01*
X12665420Y-14269908D02*
X12684468Y-14260384D01*
X12684468Y-14260384D02*
X12693991Y-14250860D01*
X12693991Y-14250860D02*
X12703515Y-14231813D01*
X12703515Y-14231813D02*
X12703515Y-14184194D01*
X12703515Y-14184194D02*
X12693991Y-14165146D01*
X12693991Y-14165146D02*
X12684468Y-14155622D01*
X12684468Y-14155622D02*
X12665420Y-14146098D01*
X12665420Y-14146098D02*
X12627325Y-14146098D01*
X12627325Y-14146098D02*
X12608277Y-14155622D01*
X12608277Y-14155622D02*
X12598753Y-14165146D01*
X12598753Y-14165146D02*
X12589229Y-14184194D01*
X12874944Y-14069908D02*
X12836848Y-14069908D01*
X12836848Y-14069908D02*
X12817801Y-14079432D01*
X12817801Y-14079432D02*
X12808277Y-14088956D01*
X12808277Y-14088956D02*
X12789229Y-14117527D01*
X12789229Y-14117527D02*
X12779706Y-14155622D01*
X12779706Y-14155622D02*
X12779706Y-14231813D01*
X12779706Y-14231813D02*
X12789229Y-14250860D01*
X12789229Y-14250860D02*
X12798753Y-14260384D01*
X12798753Y-14260384D02*
X12817801Y-14269908D01*
X12817801Y-14269908D02*
X12855896Y-14269908D01*
X12855896Y-14269908D02*
X12874944Y-14260384D01*
X12874944Y-14260384D02*
X12884468Y-14250860D01*
X12884468Y-14250860D02*
X12893991Y-14231813D01*
X12893991Y-14231813D02*
X12893991Y-14184194D01*
X12893991Y-14184194D02*
X12884468Y-14165146D01*
X12884468Y-14165146D02*
X12874944Y-14155622D01*
X12874944Y-14155622D02*
X12855896Y-14146098D01*
X12855896Y-14146098D02*
X12817801Y-14146098D01*
X12817801Y-14146098D02*
X12798753Y-14155622D01*
X12798753Y-14155622D02*
X12789229Y-14165146D01*
X12789229Y-14165146D02*
X12779706Y-14184194D01*
X13132087Y-14269908D02*
X13132087Y-14069908D01*
X13217801Y-14269908D02*
X13217801Y-14165146D01*
X13217801Y-14165146D02*
X13208277Y-14146098D01*
X13208277Y-14146098D02*
X13189230Y-14136575D01*
X13189230Y-14136575D02*
X13160658Y-14136575D01*
X13160658Y-14136575D02*
X13141610Y-14146098D01*
X13141610Y-14146098D02*
X13132087Y-14155622D01*
X13341610Y-14269908D02*
X13322563Y-14260384D01*
X13322563Y-14260384D02*
X13313039Y-14250860D01*
X13313039Y-14250860D02*
X13303515Y-14231813D01*
X13303515Y-14231813D02*
X13303515Y-14174670D01*
X13303515Y-14174670D02*
X13313039Y-14155622D01*
X13313039Y-14155622D02*
X13322563Y-14146098D01*
X13322563Y-14146098D02*
X13341610Y-14136575D01*
X13341610Y-14136575D02*
X13370182Y-14136575D01*
X13370182Y-14136575D02*
X13389230Y-14146098D01*
X13389230Y-14146098D02*
X13398753Y-14155622D01*
X13398753Y-14155622D02*
X13408277Y-14174670D01*
X13408277Y-14174670D02*
X13408277Y-14231813D01*
X13408277Y-14231813D02*
X13398753Y-14250860D01*
X13398753Y-14250860D02*
X13389230Y-14260384D01*
X13389230Y-14260384D02*
X13370182Y-14269908D01*
X13370182Y-14269908D02*
X13341610Y-14269908D01*
X13522563Y-14269908D02*
X13503515Y-14260384D01*
X13503515Y-14260384D02*
X13493991Y-14241336D01*
X13493991Y-14241336D02*
X13493991Y-14069908D01*
X13674944Y-14260384D02*
X13655896Y-14269908D01*
X13655896Y-14269908D02*
X13617801Y-14269908D01*
X13617801Y-14269908D02*
X13598753Y-14260384D01*
X13598753Y-14260384D02*
X13589230Y-14241336D01*
X13589230Y-14241336D02*
X13589230Y-14165146D01*
X13589230Y-14165146D02*
X13598753Y-14146098D01*
X13598753Y-14146098D02*
X13617801Y-14136575D01*
X13617801Y-14136575D02*
X13655896Y-14136575D01*
X13655896Y-14136575D02*
X13674944Y-14146098D01*
X13674944Y-14146098D02*
X13684468Y-14165146D01*
X13684468Y-14165146D02*
X13684468Y-14184194D01*
X13684468Y-14184194D02*
X13589230Y-14203241D01*
X13760658Y-14260384D02*
X13779706Y-14269908D01*
X13779706Y-14269908D02*
X13817801Y-14269908D01*
X13817801Y-14269908D02*
X13836849Y-14260384D01*
X13836849Y-14260384D02*
X13846372Y-14241336D01*
X13846372Y-14241336D02*
X13846372Y-14231813D01*
X13846372Y-14231813D02*
X13836849Y-14212765D01*
X13836849Y-14212765D02*
X13817801Y-14203241D01*
X13817801Y-14203241D02*
X13789230Y-14203241D01*
X13789230Y-14203241D02*
X13770182Y-14193717D01*
X13770182Y-14193717D02*
X13760658Y-14174670D01*
X13760658Y-14174670D02*
X13760658Y-14165146D01*
X13760658Y-14165146D02*
X13770182Y-14146098D01*
X13770182Y-14146098D02*
X13789230Y-14136575D01*
X13789230Y-14136575D02*
X13817801Y-14136575D01*
X13817801Y-14136575D02*
X13836849Y-14146098D01*
X13913039Y-14346098D02*
X13922563Y-14336575D01*
X13922563Y-14336575D02*
X13941611Y-14308003D01*
X13941611Y-14308003D02*
X13951134Y-14288956D01*
X13951134Y-14288956D02*
X13960658Y-14260384D01*
X13960658Y-14260384D02*
X13970182Y-14212765D01*
X13970182Y-14212765D02*
X13970182Y-14174670D01*
X13970182Y-14174670D02*
X13960658Y-14127051D01*
X13960658Y-14127051D02*
X13951134Y-14098479D01*
X13951134Y-14098479D02*
X13941611Y-14079432D01*
X13941611Y-14079432D02*
X13922563Y-14050860D01*
X13922563Y-14050860D02*
X13913039Y-14041336D01*
D12*
X8947500Y-14442424D02*
G75*
G03*
X8907500Y-14442424I-20000J0D01*
G01*
X8907500Y-14442424D02*
G75*
G03*
X8947500Y-14442424I20000J0D01*
G01*
D11*
X9246372Y-14333908D02*
X9265420Y-14333908D01*
X9265420Y-14333908D02*
X9284467Y-14343432D01*
X9284467Y-14343432D02*
X9293991Y-14352956D01*
X9293991Y-14352956D02*
X9303515Y-14372003D01*
X9303515Y-14372003D02*
X9313039Y-14410098D01*
X9313039Y-14410098D02*
X9313039Y-14457717D01*
X9313039Y-14457717D02*
X9303515Y-14495813D01*
X9303515Y-14495813D02*
X9293991Y-14514860D01*
X9293991Y-14514860D02*
X9284467Y-14524384D01*
X9284467Y-14524384D02*
X9265420Y-14533908D01*
X9265420Y-14533908D02*
X9246372Y-14533908D01*
X9246372Y-14533908D02*
X9227324Y-14524384D01*
X9227324Y-14524384D02*
X9217801Y-14514860D01*
X9217801Y-14514860D02*
X9208277Y-14495813D01*
X9208277Y-14495813D02*
X9198753Y-14457717D01*
X9198753Y-14457717D02*
X9198753Y-14410098D01*
X9198753Y-14410098D02*
X9208277Y-14372003D01*
X9208277Y-14372003D02*
X9217801Y-14352956D01*
X9217801Y-14352956D02*
X9227324Y-14343432D01*
X9227324Y-14343432D02*
X9246372Y-14333908D01*
X9398753Y-14514860D02*
X9408277Y-14524384D01*
X9408277Y-14524384D02*
X9398753Y-14533908D01*
X9398753Y-14533908D02*
X9389229Y-14524384D01*
X9389229Y-14524384D02*
X9398753Y-14514860D01*
X9398753Y-14514860D02*
X9398753Y-14533908D01*
X9579705Y-14400575D02*
X9579705Y-14533908D01*
X9532086Y-14324384D02*
X9484467Y-14467241D01*
X9484467Y-14467241D02*
X9608277Y-14467241D01*
X9722563Y-14333908D02*
X9741610Y-14333908D01*
X9741610Y-14333908D02*
X9760658Y-14343432D01*
X9760658Y-14343432D02*
X9770182Y-14352956D01*
X9770182Y-14352956D02*
X9779705Y-14372003D01*
X9779705Y-14372003D02*
X9789229Y-14410098D01*
X9789229Y-14410098D02*
X9789229Y-14457717D01*
X9789229Y-14457717D02*
X9779705Y-14495813D01*
X9779705Y-14495813D02*
X9770182Y-14514860D01*
X9770182Y-14514860D02*
X9760658Y-14524384D01*
X9760658Y-14524384D02*
X9741610Y-14533908D01*
X9741610Y-14533908D02*
X9722563Y-14533908D01*
X9722563Y-14533908D02*
X9703515Y-14524384D01*
X9703515Y-14524384D02*
X9693991Y-14514860D01*
X9693991Y-14514860D02*
X9684467Y-14495813D01*
X9684467Y-14495813D02*
X9674944Y-14457717D01*
X9674944Y-14457717D02*
X9674944Y-14410098D01*
X9674944Y-14410098D02*
X9684467Y-14372003D01*
X9684467Y-14372003D02*
X9693991Y-14352956D01*
X9693991Y-14352956D02*
X9703515Y-14343432D01*
X9703515Y-14343432D02*
X9722563Y-14333908D01*
X9913039Y-14333908D02*
X9932086Y-14333908D01*
X9932086Y-14333908D02*
X9951134Y-14343432D01*
X9951134Y-14343432D02*
X9960658Y-14352956D01*
X9960658Y-14352956D02*
X9970182Y-14372003D01*
X9970182Y-14372003D02*
X9979705Y-14410098D01*
X9979705Y-14410098D02*
X9979705Y-14457717D01*
X9979705Y-14457717D02*
X9970182Y-14495813D01*
X9970182Y-14495813D02*
X9960658Y-14514860D01*
X9960658Y-14514860D02*
X9951134Y-14524384D01*
X9951134Y-14524384D02*
X9932086Y-14533908D01*
X9932086Y-14533908D02*
X9913039Y-14533908D01*
X9913039Y-14533908D02*
X9893991Y-14524384D01*
X9893991Y-14524384D02*
X9884467Y-14514860D01*
X9884467Y-14514860D02*
X9874944Y-14495813D01*
X9874944Y-14495813D02*
X9865420Y-14457717D01*
X9865420Y-14457717D02*
X9865420Y-14410098D01*
X9865420Y-14410098D02*
X9874944Y-14372003D01*
X9874944Y-14372003D02*
X9884467Y-14352956D01*
X9884467Y-14352956D02*
X9893991Y-14343432D01*
X9893991Y-14343432D02*
X9913039Y-14333908D01*
X10065420Y-14533908D02*
X10065420Y-14400575D01*
X10065420Y-14419622D02*
X10074944Y-14410098D01*
X10074944Y-14410098D02*
X10093991Y-14400575D01*
X10093991Y-14400575D02*
X10122563Y-14400575D01*
X10122563Y-14400575D02*
X10141610Y-14410098D01*
X10141610Y-14410098D02*
X10151134Y-14429146D01*
X10151134Y-14429146D02*
X10151134Y-14533908D01*
X10151134Y-14429146D02*
X10160658Y-14410098D01*
X10160658Y-14410098D02*
X10179705Y-14400575D01*
X10179705Y-14400575D02*
X10208277Y-14400575D01*
X10208277Y-14400575D02*
X10227325Y-14410098D01*
X10227325Y-14410098D02*
X10236848Y-14429146D01*
X10236848Y-14429146D02*
X10236848Y-14533908D01*
X10332086Y-14533908D02*
X10332086Y-14400575D01*
X10332086Y-14419622D02*
X10341610Y-14410098D01*
X10341610Y-14410098D02*
X10360658Y-14400575D01*
X10360658Y-14400575D02*
X10389229Y-14400575D01*
X10389229Y-14400575D02*
X10408277Y-14410098D01*
X10408277Y-14410098D02*
X10417801Y-14429146D01*
X10417801Y-14429146D02*
X10417801Y-14533908D01*
X10417801Y-14429146D02*
X10427325Y-14410098D01*
X10427325Y-14410098D02*
X10446372Y-14400575D01*
X10446372Y-14400575D02*
X10474944Y-14400575D01*
X10474944Y-14400575D02*
X10493991Y-14410098D01*
X10493991Y-14410098D02*
X10503515Y-14429146D01*
X10503515Y-14429146D02*
X10503515Y-14533908D01*
X10893991Y-14324384D02*
X10722563Y-14581527D01*
X11151134Y-14333908D02*
X11170182Y-14333908D01*
X11170182Y-14333908D02*
X11189229Y-14343432D01*
X11189229Y-14343432D02*
X11198753Y-14352956D01*
X11198753Y-14352956D02*
X11208277Y-14372003D01*
X11208277Y-14372003D02*
X11217801Y-14410098D01*
X11217801Y-14410098D02*
X11217801Y-14457717D01*
X11217801Y-14457717D02*
X11208277Y-14495813D01*
X11208277Y-14495813D02*
X11198753Y-14514860D01*
X11198753Y-14514860D02*
X11189229Y-14524384D01*
X11189229Y-14524384D02*
X11170182Y-14533908D01*
X11170182Y-14533908D02*
X11151134Y-14533908D01*
X11151134Y-14533908D02*
X11132087Y-14524384D01*
X11132087Y-14524384D02*
X11122563Y-14514860D01*
X11122563Y-14514860D02*
X11113039Y-14495813D01*
X11113039Y-14495813D02*
X11103515Y-14457717D01*
X11103515Y-14457717D02*
X11103515Y-14410098D01*
X11103515Y-14410098D02*
X11113039Y-14372003D01*
X11113039Y-14372003D02*
X11122563Y-14352956D01*
X11122563Y-14352956D02*
X11132087Y-14343432D01*
X11132087Y-14343432D02*
X11151134Y-14333908D01*
X11303515Y-14514860D02*
X11313039Y-14524384D01*
X11313039Y-14524384D02*
X11303515Y-14533908D01*
X11303515Y-14533908D02*
X11293991Y-14524384D01*
X11293991Y-14524384D02*
X11303515Y-14514860D01*
X11303515Y-14514860D02*
X11303515Y-14533908D01*
X11436848Y-14333908D02*
X11455896Y-14333908D01*
X11455896Y-14333908D02*
X11474944Y-14343432D01*
X11474944Y-14343432D02*
X11484467Y-14352956D01*
X11484467Y-14352956D02*
X11493991Y-14372003D01*
X11493991Y-14372003D02*
X11503515Y-14410098D01*
X11503515Y-14410098D02*
X11503515Y-14457717D01*
X11503515Y-14457717D02*
X11493991Y-14495813D01*
X11493991Y-14495813D02*
X11484467Y-14514860D01*
X11484467Y-14514860D02*
X11474944Y-14524384D01*
X11474944Y-14524384D02*
X11455896Y-14533908D01*
X11455896Y-14533908D02*
X11436848Y-14533908D01*
X11436848Y-14533908D02*
X11417801Y-14524384D01*
X11417801Y-14524384D02*
X11408277Y-14514860D01*
X11408277Y-14514860D02*
X11398753Y-14495813D01*
X11398753Y-14495813D02*
X11389229Y-14457717D01*
X11389229Y-14457717D02*
X11389229Y-14410098D01*
X11389229Y-14410098D02*
X11398753Y-14372003D01*
X11398753Y-14372003D02*
X11408277Y-14352956D01*
X11408277Y-14352956D02*
X11417801Y-14343432D01*
X11417801Y-14343432D02*
X11436848Y-14333908D01*
X11693991Y-14533908D02*
X11579706Y-14533908D01*
X11636848Y-14533908D02*
X11636848Y-14333908D01*
X11636848Y-14333908D02*
X11617801Y-14362479D01*
X11617801Y-14362479D02*
X11598753Y-14381527D01*
X11598753Y-14381527D02*
X11579706Y-14391051D01*
X11874944Y-14333908D02*
X11779706Y-14333908D01*
X11779706Y-14333908D02*
X11770182Y-14429146D01*
X11770182Y-14429146D02*
X11779706Y-14419622D01*
X11779706Y-14419622D02*
X11798753Y-14410098D01*
X11798753Y-14410098D02*
X11846372Y-14410098D01*
X11846372Y-14410098D02*
X11865420Y-14419622D01*
X11865420Y-14419622D02*
X11874944Y-14429146D01*
X11874944Y-14429146D02*
X11884467Y-14448194D01*
X11884467Y-14448194D02*
X11884467Y-14495813D01*
X11884467Y-14495813D02*
X11874944Y-14514860D01*
X11874944Y-14514860D02*
X11865420Y-14524384D01*
X11865420Y-14524384D02*
X11846372Y-14533908D01*
X11846372Y-14533908D02*
X11798753Y-14533908D01*
X11798753Y-14533908D02*
X11779706Y-14524384D01*
X11779706Y-14524384D02*
X11770182Y-14514860D01*
X11951134Y-14333908D02*
X12084467Y-14333908D01*
X12084467Y-14333908D02*
X11998753Y-14533908D01*
X12151134Y-14333908D02*
X12151134Y-14372003D01*
X12227325Y-14333908D02*
X12227325Y-14372003D01*
X12522563Y-14610098D02*
X12513039Y-14600575D01*
X12513039Y-14600575D02*
X12493991Y-14572003D01*
X12493991Y-14572003D02*
X12484468Y-14552956D01*
X12484468Y-14552956D02*
X12474944Y-14524384D01*
X12474944Y-14524384D02*
X12465420Y-14476765D01*
X12465420Y-14476765D02*
X12465420Y-14438670D01*
X12465420Y-14438670D02*
X12474944Y-14391051D01*
X12474944Y-14391051D02*
X12484468Y-14362479D01*
X12484468Y-14362479D02*
X12493991Y-14343432D01*
X12493991Y-14343432D02*
X12513039Y-14314860D01*
X12513039Y-14314860D02*
X12522563Y-14305336D01*
X12589229Y-14352956D02*
X12598753Y-14343432D01*
X12598753Y-14343432D02*
X12617801Y-14333908D01*
X12617801Y-14333908D02*
X12665420Y-14333908D01*
X12665420Y-14333908D02*
X12684468Y-14343432D01*
X12684468Y-14343432D02*
X12693991Y-14352956D01*
X12693991Y-14352956D02*
X12703515Y-14372003D01*
X12703515Y-14372003D02*
X12703515Y-14391051D01*
X12703515Y-14391051D02*
X12693991Y-14419622D01*
X12693991Y-14419622D02*
X12579706Y-14533908D01*
X12579706Y-14533908D02*
X12703515Y-14533908D01*
X12874944Y-14400575D02*
X12874944Y-14533908D01*
X12827325Y-14324384D02*
X12779706Y-14467241D01*
X12779706Y-14467241D02*
X12903515Y-14467241D01*
X13132087Y-14533908D02*
X13132087Y-14333908D01*
X13217801Y-14533908D02*
X13217801Y-14429146D01*
X13217801Y-14429146D02*
X13208277Y-14410098D01*
X13208277Y-14410098D02*
X13189230Y-14400575D01*
X13189230Y-14400575D02*
X13160658Y-14400575D01*
X13160658Y-14400575D02*
X13141610Y-14410098D01*
X13141610Y-14410098D02*
X13132087Y-14419622D01*
X13341610Y-14533908D02*
X13322563Y-14524384D01*
X13322563Y-14524384D02*
X13313039Y-14514860D01*
X13313039Y-14514860D02*
X13303515Y-14495813D01*
X13303515Y-14495813D02*
X13303515Y-14438670D01*
X13303515Y-14438670D02*
X13313039Y-14419622D01*
X13313039Y-14419622D02*
X13322563Y-14410098D01*
X13322563Y-14410098D02*
X13341610Y-14400575D01*
X13341610Y-14400575D02*
X13370182Y-14400575D01*
X13370182Y-14400575D02*
X13389230Y-14410098D01*
X13389230Y-14410098D02*
X13398753Y-14419622D01*
X13398753Y-14419622D02*
X13408277Y-14438670D01*
X13408277Y-14438670D02*
X13408277Y-14495813D01*
X13408277Y-14495813D02*
X13398753Y-14514860D01*
X13398753Y-14514860D02*
X13389230Y-14524384D01*
X13389230Y-14524384D02*
X13370182Y-14533908D01*
X13370182Y-14533908D02*
X13341610Y-14533908D01*
X13522563Y-14533908D02*
X13503515Y-14524384D01*
X13503515Y-14524384D02*
X13493991Y-14505336D01*
X13493991Y-14505336D02*
X13493991Y-14333908D01*
X13674944Y-14524384D02*
X13655896Y-14533908D01*
X13655896Y-14533908D02*
X13617801Y-14533908D01*
X13617801Y-14533908D02*
X13598753Y-14524384D01*
X13598753Y-14524384D02*
X13589230Y-14505336D01*
X13589230Y-14505336D02*
X13589230Y-14429146D01*
X13589230Y-14429146D02*
X13598753Y-14410098D01*
X13598753Y-14410098D02*
X13617801Y-14400575D01*
X13617801Y-14400575D02*
X13655896Y-14400575D01*
X13655896Y-14400575D02*
X13674944Y-14410098D01*
X13674944Y-14410098D02*
X13684468Y-14429146D01*
X13684468Y-14429146D02*
X13684468Y-14448194D01*
X13684468Y-14448194D02*
X13589230Y-14467241D01*
X13760658Y-14524384D02*
X13779706Y-14533908D01*
X13779706Y-14533908D02*
X13817801Y-14533908D01*
X13817801Y-14533908D02*
X13836849Y-14524384D01*
X13836849Y-14524384D02*
X13846372Y-14505336D01*
X13846372Y-14505336D02*
X13846372Y-14495813D01*
X13846372Y-14495813D02*
X13836849Y-14476765D01*
X13836849Y-14476765D02*
X13817801Y-14467241D01*
X13817801Y-14467241D02*
X13789230Y-14467241D01*
X13789230Y-14467241D02*
X13770182Y-14457717D01*
X13770182Y-14457717D02*
X13760658Y-14438670D01*
X13760658Y-14438670D02*
X13760658Y-14429146D01*
X13760658Y-14429146D02*
X13770182Y-14410098D01*
X13770182Y-14410098D02*
X13789230Y-14400575D01*
X13789230Y-14400575D02*
X13817801Y-14400575D01*
X13817801Y-14400575D02*
X13836849Y-14410098D01*
X13913039Y-14610098D02*
X13922563Y-14600575D01*
X13922563Y-14600575D02*
X13941611Y-14572003D01*
X13941611Y-14572003D02*
X13951134Y-14552956D01*
X13951134Y-14552956D02*
X13960658Y-14524384D01*
X13960658Y-14524384D02*
X13970182Y-14476765D01*
X13970182Y-14476765D02*
X13970182Y-14438670D01*
X13970182Y-14438670D02*
X13960658Y-14391051D01*
X13960658Y-14391051D02*
X13951134Y-14362479D01*
X13951134Y-14362479D02*
X13941611Y-14343432D01*
X13941611Y-14343432D02*
X13922563Y-14314860D01*
X13922563Y-14314860D02*
X13913039Y-14305336D01*
D12*
X8910000Y-14668924D02*
X8910000Y-14743924D01*
X8872500Y-14706424D02*
X8947500Y-14706424D01*
D11*
X9246372Y-14597908D02*
X9265420Y-14597908D01*
X9265420Y-14597908D02*
X9284467Y-14607432D01*
X9284467Y-14607432D02*
X9293991Y-14616956D01*
X9293991Y-14616956D02*
X9303515Y-14636003D01*
X9303515Y-14636003D02*
X9313039Y-14674098D01*
X9313039Y-14674098D02*
X9313039Y-14721717D01*
X9313039Y-14721717D02*
X9303515Y-14759813D01*
X9303515Y-14759813D02*
X9293991Y-14778860D01*
X9293991Y-14778860D02*
X9284467Y-14788384D01*
X9284467Y-14788384D02*
X9265420Y-14797908D01*
X9265420Y-14797908D02*
X9246372Y-14797908D01*
X9246372Y-14797908D02*
X9227324Y-14788384D01*
X9227324Y-14788384D02*
X9217801Y-14778860D01*
X9217801Y-14778860D02*
X9208277Y-14759813D01*
X9208277Y-14759813D02*
X9198753Y-14721717D01*
X9198753Y-14721717D02*
X9198753Y-14674098D01*
X9198753Y-14674098D02*
X9208277Y-14636003D01*
X9208277Y-14636003D02*
X9217801Y-14616956D01*
X9217801Y-14616956D02*
X9227324Y-14607432D01*
X9227324Y-14607432D02*
X9246372Y-14597908D01*
X9398753Y-14778860D02*
X9408277Y-14788384D01*
X9408277Y-14788384D02*
X9398753Y-14797908D01*
X9398753Y-14797908D02*
X9389229Y-14788384D01*
X9389229Y-14788384D02*
X9398753Y-14778860D01*
X9398753Y-14778860D02*
X9398753Y-14797908D01*
X9474944Y-14597908D02*
X9608277Y-14597908D01*
X9608277Y-14597908D02*
X9522563Y-14797908D01*
X9779705Y-14597908D02*
X9684467Y-14597908D01*
X9684467Y-14597908D02*
X9674944Y-14693146D01*
X9674944Y-14693146D02*
X9684467Y-14683622D01*
X9684467Y-14683622D02*
X9703515Y-14674098D01*
X9703515Y-14674098D02*
X9751134Y-14674098D01*
X9751134Y-14674098D02*
X9770182Y-14683622D01*
X9770182Y-14683622D02*
X9779705Y-14693146D01*
X9779705Y-14693146D02*
X9789229Y-14712194D01*
X9789229Y-14712194D02*
X9789229Y-14759813D01*
X9789229Y-14759813D02*
X9779705Y-14778860D01*
X9779705Y-14778860D02*
X9770182Y-14788384D01*
X9770182Y-14788384D02*
X9751134Y-14797908D01*
X9751134Y-14797908D02*
X9703515Y-14797908D01*
X9703515Y-14797908D02*
X9684467Y-14788384D01*
X9684467Y-14788384D02*
X9674944Y-14778860D01*
X9913039Y-14597908D02*
X9932086Y-14597908D01*
X9932086Y-14597908D02*
X9951134Y-14607432D01*
X9951134Y-14607432D02*
X9960658Y-14616956D01*
X9960658Y-14616956D02*
X9970182Y-14636003D01*
X9970182Y-14636003D02*
X9979705Y-14674098D01*
X9979705Y-14674098D02*
X9979705Y-14721717D01*
X9979705Y-14721717D02*
X9970182Y-14759813D01*
X9970182Y-14759813D02*
X9960658Y-14778860D01*
X9960658Y-14778860D02*
X9951134Y-14788384D01*
X9951134Y-14788384D02*
X9932086Y-14797908D01*
X9932086Y-14797908D02*
X9913039Y-14797908D01*
X9913039Y-14797908D02*
X9893991Y-14788384D01*
X9893991Y-14788384D02*
X9884467Y-14778860D01*
X9884467Y-14778860D02*
X9874944Y-14759813D01*
X9874944Y-14759813D02*
X9865420Y-14721717D01*
X9865420Y-14721717D02*
X9865420Y-14674098D01*
X9865420Y-14674098D02*
X9874944Y-14636003D01*
X9874944Y-14636003D02*
X9884467Y-14616956D01*
X9884467Y-14616956D02*
X9893991Y-14607432D01*
X9893991Y-14607432D02*
X9913039Y-14597908D01*
X10065420Y-14797908D02*
X10065420Y-14664575D01*
X10065420Y-14683622D02*
X10074944Y-14674098D01*
X10074944Y-14674098D02*
X10093991Y-14664575D01*
X10093991Y-14664575D02*
X10122563Y-14664575D01*
X10122563Y-14664575D02*
X10141610Y-14674098D01*
X10141610Y-14674098D02*
X10151134Y-14693146D01*
X10151134Y-14693146D02*
X10151134Y-14797908D01*
X10151134Y-14693146D02*
X10160658Y-14674098D01*
X10160658Y-14674098D02*
X10179705Y-14664575D01*
X10179705Y-14664575D02*
X10208277Y-14664575D01*
X10208277Y-14664575D02*
X10227325Y-14674098D01*
X10227325Y-14674098D02*
X10236848Y-14693146D01*
X10236848Y-14693146D02*
X10236848Y-14797908D01*
X10332086Y-14797908D02*
X10332086Y-14664575D01*
X10332086Y-14683622D02*
X10341610Y-14674098D01*
X10341610Y-14674098D02*
X10360658Y-14664575D01*
X10360658Y-14664575D02*
X10389229Y-14664575D01*
X10389229Y-14664575D02*
X10408277Y-14674098D01*
X10408277Y-14674098D02*
X10417801Y-14693146D01*
X10417801Y-14693146D02*
X10417801Y-14797908D01*
X10417801Y-14693146D02*
X10427325Y-14674098D01*
X10427325Y-14674098D02*
X10446372Y-14664575D01*
X10446372Y-14664575D02*
X10474944Y-14664575D01*
X10474944Y-14664575D02*
X10493991Y-14674098D01*
X10493991Y-14674098D02*
X10503515Y-14693146D01*
X10503515Y-14693146D02*
X10503515Y-14797908D01*
X10893991Y-14588384D02*
X10722563Y-14845527D01*
X11151134Y-14597908D02*
X11170182Y-14597908D01*
X11170182Y-14597908D02*
X11189229Y-14607432D01*
X11189229Y-14607432D02*
X11198753Y-14616956D01*
X11198753Y-14616956D02*
X11208277Y-14636003D01*
X11208277Y-14636003D02*
X11217801Y-14674098D01*
X11217801Y-14674098D02*
X11217801Y-14721717D01*
X11217801Y-14721717D02*
X11208277Y-14759813D01*
X11208277Y-14759813D02*
X11198753Y-14778860D01*
X11198753Y-14778860D02*
X11189229Y-14788384D01*
X11189229Y-14788384D02*
X11170182Y-14797908D01*
X11170182Y-14797908D02*
X11151134Y-14797908D01*
X11151134Y-14797908D02*
X11132087Y-14788384D01*
X11132087Y-14788384D02*
X11122563Y-14778860D01*
X11122563Y-14778860D02*
X11113039Y-14759813D01*
X11113039Y-14759813D02*
X11103515Y-14721717D01*
X11103515Y-14721717D02*
X11103515Y-14674098D01*
X11103515Y-14674098D02*
X11113039Y-14636003D01*
X11113039Y-14636003D02*
X11122563Y-14616956D01*
X11122563Y-14616956D02*
X11132087Y-14607432D01*
X11132087Y-14607432D02*
X11151134Y-14597908D01*
X11303515Y-14778860D02*
X11313039Y-14788384D01*
X11313039Y-14788384D02*
X11303515Y-14797908D01*
X11303515Y-14797908D02*
X11293991Y-14788384D01*
X11293991Y-14788384D02*
X11303515Y-14778860D01*
X11303515Y-14778860D02*
X11303515Y-14797908D01*
X11436848Y-14597908D02*
X11455896Y-14597908D01*
X11455896Y-14597908D02*
X11474944Y-14607432D01*
X11474944Y-14607432D02*
X11484467Y-14616956D01*
X11484467Y-14616956D02*
X11493991Y-14636003D01*
X11493991Y-14636003D02*
X11503515Y-14674098D01*
X11503515Y-14674098D02*
X11503515Y-14721717D01*
X11503515Y-14721717D02*
X11493991Y-14759813D01*
X11493991Y-14759813D02*
X11484467Y-14778860D01*
X11484467Y-14778860D02*
X11474944Y-14788384D01*
X11474944Y-14788384D02*
X11455896Y-14797908D01*
X11455896Y-14797908D02*
X11436848Y-14797908D01*
X11436848Y-14797908D02*
X11417801Y-14788384D01*
X11417801Y-14788384D02*
X11408277Y-14778860D01*
X11408277Y-14778860D02*
X11398753Y-14759813D01*
X11398753Y-14759813D02*
X11389229Y-14721717D01*
X11389229Y-14721717D02*
X11389229Y-14674098D01*
X11389229Y-14674098D02*
X11398753Y-14636003D01*
X11398753Y-14636003D02*
X11408277Y-14616956D01*
X11408277Y-14616956D02*
X11417801Y-14607432D01*
X11417801Y-14607432D02*
X11436848Y-14597908D01*
X11579706Y-14616956D02*
X11589229Y-14607432D01*
X11589229Y-14607432D02*
X11608277Y-14597908D01*
X11608277Y-14597908D02*
X11655896Y-14597908D01*
X11655896Y-14597908D02*
X11674944Y-14607432D01*
X11674944Y-14607432D02*
X11684467Y-14616956D01*
X11684467Y-14616956D02*
X11693991Y-14636003D01*
X11693991Y-14636003D02*
X11693991Y-14655051D01*
X11693991Y-14655051D02*
X11684467Y-14683622D01*
X11684467Y-14683622D02*
X11570182Y-14797908D01*
X11570182Y-14797908D02*
X11693991Y-14797908D01*
X11789229Y-14797908D02*
X11827325Y-14797908D01*
X11827325Y-14797908D02*
X11846372Y-14788384D01*
X11846372Y-14788384D02*
X11855896Y-14778860D01*
X11855896Y-14778860D02*
X11874944Y-14750289D01*
X11874944Y-14750289D02*
X11884467Y-14712194D01*
X11884467Y-14712194D02*
X11884467Y-14636003D01*
X11884467Y-14636003D02*
X11874944Y-14616956D01*
X11874944Y-14616956D02*
X11865420Y-14607432D01*
X11865420Y-14607432D02*
X11846372Y-14597908D01*
X11846372Y-14597908D02*
X11808277Y-14597908D01*
X11808277Y-14597908D02*
X11789229Y-14607432D01*
X11789229Y-14607432D02*
X11779706Y-14616956D01*
X11779706Y-14616956D02*
X11770182Y-14636003D01*
X11770182Y-14636003D02*
X11770182Y-14683622D01*
X11770182Y-14683622D02*
X11779706Y-14702670D01*
X11779706Y-14702670D02*
X11789229Y-14712194D01*
X11789229Y-14712194D02*
X11808277Y-14721717D01*
X11808277Y-14721717D02*
X11846372Y-14721717D01*
X11846372Y-14721717D02*
X11865420Y-14712194D01*
X11865420Y-14712194D02*
X11874944Y-14702670D01*
X11874944Y-14702670D02*
X11884467Y-14683622D01*
X12065420Y-14597908D02*
X11970182Y-14597908D01*
X11970182Y-14597908D02*
X11960658Y-14693146D01*
X11960658Y-14693146D02*
X11970182Y-14683622D01*
X11970182Y-14683622D02*
X11989229Y-14674098D01*
X11989229Y-14674098D02*
X12036848Y-14674098D01*
X12036848Y-14674098D02*
X12055896Y-14683622D01*
X12055896Y-14683622D02*
X12065420Y-14693146D01*
X12065420Y-14693146D02*
X12074944Y-14712194D01*
X12074944Y-14712194D02*
X12074944Y-14759813D01*
X12074944Y-14759813D02*
X12065420Y-14778860D01*
X12065420Y-14778860D02*
X12055896Y-14788384D01*
X12055896Y-14788384D02*
X12036848Y-14797908D01*
X12036848Y-14797908D02*
X11989229Y-14797908D01*
X11989229Y-14797908D02*
X11970182Y-14788384D01*
X11970182Y-14788384D02*
X11960658Y-14778860D01*
X12151134Y-14597908D02*
X12151134Y-14636003D01*
X12227325Y-14597908D02*
X12227325Y-14636003D01*
X12522563Y-14874098D02*
X12513039Y-14864575D01*
X12513039Y-14864575D02*
X12493991Y-14836003D01*
X12493991Y-14836003D02*
X12484468Y-14816956D01*
X12484468Y-14816956D02*
X12474944Y-14788384D01*
X12474944Y-14788384D02*
X12465420Y-14740765D01*
X12465420Y-14740765D02*
X12465420Y-14702670D01*
X12465420Y-14702670D02*
X12474944Y-14655051D01*
X12474944Y-14655051D02*
X12484468Y-14626479D01*
X12484468Y-14626479D02*
X12493991Y-14607432D01*
X12493991Y-14607432D02*
X12513039Y-14578860D01*
X12513039Y-14578860D02*
X12522563Y-14569336D01*
X12589229Y-14616956D02*
X12598753Y-14607432D01*
X12598753Y-14607432D02*
X12617801Y-14597908D01*
X12617801Y-14597908D02*
X12665420Y-14597908D01*
X12665420Y-14597908D02*
X12684468Y-14607432D01*
X12684468Y-14607432D02*
X12693991Y-14616956D01*
X12693991Y-14616956D02*
X12703515Y-14636003D01*
X12703515Y-14636003D02*
X12703515Y-14655051D01*
X12703515Y-14655051D02*
X12693991Y-14683622D01*
X12693991Y-14683622D02*
X12579706Y-14797908D01*
X12579706Y-14797908D02*
X12703515Y-14797908D01*
X12941610Y-14797908D02*
X12941610Y-14597908D01*
X13027325Y-14797908D02*
X13027325Y-14693146D01*
X13027325Y-14693146D02*
X13017801Y-14674098D01*
X13017801Y-14674098D02*
X12998753Y-14664575D01*
X12998753Y-14664575D02*
X12970182Y-14664575D01*
X12970182Y-14664575D02*
X12951134Y-14674098D01*
X12951134Y-14674098D02*
X12941610Y-14683622D01*
X13151134Y-14797908D02*
X13132087Y-14788384D01*
X13132087Y-14788384D02*
X13122563Y-14778860D01*
X13122563Y-14778860D02*
X13113039Y-14759813D01*
X13113039Y-14759813D02*
X13113039Y-14702670D01*
X13113039Y-14702670D02*
X13122563Y-14683622D01*
X13122563Y-14683622D02*
X13132087Y-14674098D01*
X13132087Y-14674098D02*
X13151134Y-14664575D01*
X13151134Y-14664575D02*
X13179706Y-14664575D01*
X13179706Y-14664575D02*
X13198753Y-14674098D01*
X13198753Y-14674098D02*
X13208277Y-14683622D01*
X13208277Y-14683622D02*
X13217801Y-14702670D01*
X13217801Y-14702670D02*
X13217801Y-14759813D01*
X13217801Y-14759813D02*
X13208277Y-14778860D01*
X13208277Y-14778860D02*
X13198753Y-14788384D01*
X13198753Y-14788384D02*
X13179706Y-14797908D01*
X13179706Y-14797908D02*
X13151134Y-14797908D01*
X13332087Y-14797908D02*
X13313039Y-14788384D01*
X13313039Y-14788384D02*
X13303515Y-14769336D01*
X13303515Y-14769336D02*
X13303515Y-14597908D01*
X13484468Y-14788384D02*
X13465420Y-14797908D01*
X13465420Y-14797908D02*
X13427325Y-14797908D01*
X13427325Y-14797908D02*
X13408277Y-14788384D01*
X13408277Y-14788384D02*
X13398753Y-14769336D01*
X13398753Y-14769336D02*
X13398753Y-14693146D01*
X13398753Y-14693146D02*
X13408277Y-14674098D01*
X13408277Y-14674098D02*
X13427325Y-14664575D01*
X13427325Y-14664575D02*
X13465420Y-14664575D01*
X13465420Y-14664575D02*
X13484468Y-14674098D01*
X13484468Y-14674098D02*
X13493991Y-14693146D01*
X13493991Y-14693146D02*
X13493991Y-14712194D01*
X13493991Y-14712194D02*
X13398753Y-14731241D01*
X13570182Y-14788384D02*
X13589230Y-14797908D01*
X13589230Y-14797908D02*
X13627325Y-14797908D01*
X13627325Y-14797908D02*
X13646372Y-14788384D01*
X13646372Y-14788384D02*
X13655896Y-14769336D01*
X13655896Y-14769336D02*
X13655896Y-14759813D01*
X13655896Y-14759813D02*
X13646372Y-14740765D01*
X13646372Y-14740765D02*
X13627325Y-14731241D01*
X13627325Y-14731241D02*
X13598753Y-14731241D01*
X13598753Y-14731241D02*
X13579706Y-14721717D01*
X13579706Y-14721717D02*
X13570182Y-14702670D01*
X13570182Y-14702670D02*
X13570182Y-14693146D01*
X13570182Y-14693146D02*
X13579706Y-14674098D01*
X13579706Y-14674098D02*
X13598753Y-14664575D01*
X13598753Y-14664575D02*
X13627325Y-14664575D01*
X13627325Y-14664575D02*
X13646372Y-14674098D01*
X13722563Y-14874098D02*
X13732087Y-14864575D01*
X13732087Y-14864575D02*
X13751134Y-14836003D01*
X13751134Y-14836003D02*
X13760658Y-14816956D01*
X13760658Y-14816956D02*
X13770182Y-14788384D01*
X13770182Y-14788384D02*
X13779706Y-14740765D01*
X13779706Y-14740765D02*
X13779706Y-14702670D01*
X13779706Y-14702670D02*
X13770182Y-14655051D01*
X13770182Y-14655051D02*
X13760658Y-14626479D01*
X13760658Y-14626479D02*
X13751134Y-14607432D01*
X13751134Y-14607432D02*
X13732087Y-14578860D01*
X13732087Y-14578860D02*
X13722563Y-14569336D01*
D12*
X8932993Y-15005447D02*
X8932993Y-14935401D01*
X8862947Y-14935401D01*
X8862947Y-15005447D01*
X8932993Y-15005447D01*
D11*
X9246372Y-14861908D02*
X9265420Y-14861908D01*
X9265420Y-14861908D02*
X9284467Y-14871432D01*
X9284467Y-14871432D02*
X9293991Y-14880956D01*
X9293991Y-14880956D02*
X9303515Y-14900003D01*
X9303515Y-14900003D02*
X9313039Y-14938098D01*
X9313039Y-14938098D02*
X9313039Y-14985717D01*
X9313039Y-14985717D02*
X9303515Y-15023813D01*
X9303515Y-15023813D02*
X9293991Y-15042860D01*
X9293991Y-15042860D02*
X9284467Y-15052384D01*
X9284467Y-15052384D02*
X9265420Y-15061908D01*
X9265420Y-15061908D02*
X9246372Y-15061908D01*
X9246372Y-15061908D02*
X9227324Y-15052384D01*
X9227324Y-15052384D02*
X9217801Y-15042860D01*
X9217801Y-15042860D02*
X9208277Y-15023813D01*
X9208277Y-15023813D02*
X9198753Y-14985717D01*
X9198753Y-14985717D02*
X9198753Y-14938098D01*
X9198753Y-14938098D02*
X9208277Y-14900003D01*
X9208277Y-14900003D02*
X9217801Y-14880956D01*
X9217801Y-14880956D02*
X9227324Y-14871432D01*
X9227324Y-14871432D02*
X9246372Y-14861908D01*
X9398753Y-15042860D02*
X9408277Y-15052384D01*
X9408277Y-15052384D02*
X9398753Y-15061908D01*
X9398753Y-15061908D02*
X9389229Y-15052384D01*
X9389229Y-15052384D02*
X9398753Y-15042860D01*
X9398753Y-15042860D02*
X9398753Y-15061908D01*
X9503515Y-15061908D02*
X9541610Y-15061908D01*
X9541610Y-15061908D02*
X9560658Y-15052384D01*
X9560658Y-15052384D02*
X9570182Y-15042860D01*
X9570182Y-15042860D02*
X9589229Y-15014289D01*
X9589229Y-15014289D02*
X9598753Y-14976194D01*
X9598753Y-14976194D02*
X9598753Y-14900003D01*
X9598753Y-14900003D02*
X9589229Y-14880956D01*
X9589229Y-14880956D02*
X9579705Y-14871432D01*
X9579705Y-14871432D02*
X9560658Y-14861908D01*
X9560658Y-14861908D02*
X9522563Y-14861908D01*
X9522563Y-14861908D02*
X9503515Y-14871432D01*
X9503515Y-14871432D02*
X9493991Y-14880956D01*
X9493991Y-14880956D02*
X9484467Y-14900003D01*
X9484467Y-14900003D02*
X9484467Y-14947622D01*
X9484467Y-14947622D02*
X9493991Y-14966670D01*
X9493991Y-14966670D02*
X9503515Y-14976194D01*
X9503515Y-14976194D02*
X9522563Y-14985717D01*
X9522563Y-14985717D02*
X9560658Y-14985717D01*
X9560658Y-14985717D02*
X9579705Y-14976194D01*
X9579705Y-14976194D02*
X9589229Y-14966670D01*
X9589229Y-14966670D02*
X9598753Y-14947622D01*
X9693991Y-15061908D02*
X9732086Y-15061908D01*
X9732086Y-15061908D02*
X9751134Y-15052384D01*
X9751134Y-15052384D02*
X9760658Y-15042860D01*
X9760658Y-15042860D02*
X9779705Y-15014289D01*
X9779705Y-15014289D02*
X9789229Y-14976194D01*
X9789229Y-14976194D02*
X9789229Y-14900003D01*
X9789229Y-14900003D02*
X9779705Y-14880956D01*
X9779705Y-14880956D02*
X9770182Y-14871432D01*
X9770182Y-14871432D02*
X9751134Y-14861908D01*
X9751134Y-14861908D02*
X9713039Y-14861908D01*
X9713039Y-14861908D02*
X9693991Y-14871432D01*
X9693991Y-14871432D02*
X9684467Y-14880956D01*
X9684467Y-14880956D02*
X9674944Y-14900003D01*
X9674944Y-14900003D02*
X9674944Y-14947622D01*
X9674944Y-14947622D02*
X9684467Y-14966670D01*
X9684467Y-14966670D02*
X9693991Y-14976194D01*
X9693991Y-14976194D02*
X9713039Y-14985717D01*
X9713039Y-14985717D02*
X9751134Y-14985717D01*
X9751134Y-14985717D02*
X9770182Y-14976194D01*
X9770182Y-14976194D02*
X9779705Y-14966670D01*
X9779705Y-14966670D02*
X9789229Y-14947622D01*
X9979705Y-15061908D02*
X9865420Y-15061908D01*
X9922563Y-15061908D02*
X9922563Y-14861908D01*
X9922563Y-14861908D02*
X9903515Y-14890479D01*
X9903515Y-14890479D02*
X9884467Y-14909527D01*
X9884467Y-14909527D02*
X9865420Y-14919051D01*
X10065420Y-15061908D02*
X10065420Y-14928575D01*
X10065420Y-14947622D02*
X10074944Y-14938098D01*
X10074944Y-14938098D02*
X10093991Y-14928575D01*
X10093991Y-14928575D02*
X10122563Y-14928575D01*
X10122563Y-14928575D02*
X10141610Y-14938098D01*
X10141610Y-14938098D02*
X10151134Y-14957146D01*
X10151134Y-14957146D02*
X10151134Y-15061908D01*
X10151134Y-14957146D02*
X10160658Y-14938098D01*
X10160658Y-14938098D02*
X10179705Y-14928575D01*
X10179705Y-14928575D02*
X10208277Y-14928575D01*
X10208277Y-14928575D02*
X10227325Y-14938098D01*
X10227325Y-14938098D02*
X10236848Y-14957146D01*
X10236848Y-14957146D02*
X10236848Y-15061908D01*
X10332086Y-15061908D02*
X10332086Y-14928575D01*
X10332086Y-14947622D02*
X10341610Y-14938098D01*
X10341610Y-14938098D02*
X10360658Y-14928575D01*
X10360658Y-14928575D02*
X10389229Y-14928575D01*
X10389229Y-14928575D02*
X10408277Y-14938098D01*
X10408277Y-14938098D02*
X10417801Y-14957146D01*
X10417801Y-14957146D02*
X10417801Y-15061908D01*
X10417801Y-14957146D02*
X10427325Y-14938098D01*
X10427325Y-14938098D02*
X10446372Y-14928575D01*
X10446372Y-14928575D02*
X10474944Y-14928575D01*
X10474944Y-14928575D02*
X10493991Y-14938098D01*
X10493991Y-14938098D02*
X10503515Y-14957146D01*
X10503515Y-14957146D02*
X10503515Y-15061908D01*
X10893991Y-14852384D02*
X10722563Y-15109527D01*
X11151134Y-14861908D02*
X11170182Y-14861908D01*
X11170182Y-14861908D02*
X11189229Y-14871432D01*
X11189229Y-14871432D02*
X11198753Y-14880956D01*
X11198753Y-14880956D02*
X11208277Y-14900003D01*
X11208277Y-14900003D02*
X11217801Y-14938098D01*
X11217801Y-14938098D02*
X11217801Y-14985717D01*
X11217801Y-14985717D02*
X11208277Y-15023813D01*
X11208277Y-15023813D02*
X11198753Y-15042860D01*
X11198753Y-15042860D02*
X11189229Y-15052384D01*
X11189229Y-15052384D02*
X11170182Y-15061908D01*
X11170182Y-15061908D02*
X11151134Y-15061908D01*
X11151134Y-15061908D02*
X11132087Y-15052384D01*
X11132087Y-15052384D02*
X11122563Y-15042860D01*
X11122563Y-15042860D02*
X11113039Y-15023813D01*
X11113039Y-15023813D02*
X11103515Y-14985717D01*
X11103515Y-14985717D02*
X11103515Y-14938098D01*
X11103515Y-14938098D02*
X11113039Y-14900003D01*
X11113039Y-14900003D02*
X11122563Y-14880956D01*
X11122563Y-14880956D02*
X11132087Y-14871432D01*
X11132087Y-14871432D02*
X11151134Y-14861908D01*
X11303515Y-15042860D02*
X11313039Y-15052384D01*
X11313039Y-15052384D02*
X11303515Y-15061908D01*
X11303515Y-15061908D02*
X11293991Y-15052384D01*
X11293991Y-15052384D02*
X11303515Y-15042860D01*
X11303515Y-15042860D02*
X11303515Y-15061908D01*
X11436848Y-14861908D02*
X11455896Y-14861908D01*
X11455896Y-14861908D02*
X11474944Y-14871432D01*
X11474944Y-14871432D02*
X11484467Y-14880956D01*
X11484467Y-14880956D02*
X11493991Y-14900003D01*
X11493991Y-14900003D02*
X11503515Y-14938098D01*
X11503515Y-14938098D02*
X11503515Y-14985717D01*
X11503515Y-14985717D02*
X11493991Y-15023813D01*
X11493991Y-15023813D02*
X11484467Y-15042860D01*
X11484467Y-15042860D02*
X11474944Y-15052384D01*
X11474944Y-15052384D02*
X11455896Y-15061908D01*
X11455896Y-15061908D02*
X11436848Y-15061908D01*
X11436848Y-15061908D02*
X11417801Y-15052384D01*
X11417801Y-15052384D02*
X11408277Y-15042860D01*
X11408277Y-15042860D02*
X11398753Y-15023813D01*
X11398753Y-15023813D02*
X11389229Y-14985717D01*
X11389229Y-14985717D02*
X11389229Y-14938098D01*
X11389229Y-14938098D02*
X11398753Y-14900003D01*
X11398753Y-14900003D02*
X11408277Y-14880956D01*
X11408277Y-14880956D02*
X11417801Y-14871432D01*
X11417801Y-14871432D02*
X11436848Y-14861908D01*
X11570182Y-14861908D02*
X11693991Y-14861908D01*
X11693991Y-14861908D02*
X11627325Y-14938098D01*
X11627325Y-14938098D02*
X11655896Y-14938098D01*
X11655896Y-14938098D02*
X11674944Y-14947622D01*
X11674944Y-14947622D02*
X11684467Y-14957146D01*
X11684467Y-14957146D02*
X11693991Y-14976194D01*
X11693991Y-14976194D02*
X11693991Y-15023813D01*
X11693991Y-15023813D02*
X11684467Y-15042860D01*
X11684467Y-15042860D02*
X11674944Y-15052384D01*
X11674944Y-15052384D02*
X11655896Y-15061908D01*
X11655896Y-15061908D02*
X11598753Y-15061908D01*
X11598753Y-15061908D02*
X11579706Y-15052384D01*
X11579706Y-15052384D02*
X11570182Y-15042860D01*
X11789229Y-15061908D02*
X11827325Y-15061908D01*
X11827325Y-15061908D02*
X11846372Y-15052384D01*
X11846372Y-15052384D02*
X11855896Y-15042860D01*
X11855896Y-15042860D02*
X11874944Y-15014289D01*
X11874944Y-15014289D02*
X11884467Y-14976194D01*
X11884467Y-14976194D02*
X11884467Y-14900003D01*
X11884467Y-14900003D02*
X11874944Y-14880956D01*
X11874944Y-14880956D02*
X11865420Y-14871432D01*
X11865420Y-14871432D02*
X11846372Y-14861908D01*
X11846372Y-14861908D02*
X11808277Y-14861908D01*
X11808277Y-14861908D02*
X11789229Y-14871432D01*
X11789229Y-14871432D02*
X11779706Y-14880956D01*
X11779706Y-14880956D02*
X11770182Y-14900003D01*
X11770182Y-14900003D02*
X11770182Y-14947622D01*
X11770182Y-14947622D02*
X11779706Y-14966670D01*
X11779706Y-14966670D02*
X11789229Y-14976194D01*
X11789229Y-14976194D02*
X11808277Y-14985717D01*
X11808277Y-14985717D02*
X11846372Y-14985717D01*
X11846372Y-14985717D02*
X11865420Y-14976194D01*
X11865420Y-14976194D02*
X11874944Y-14966670D01*
X11874944Y-14966670D02*
X11884467Y-14947622D01*
X12008277Y-14861908D02*
X12027325Y-14861908D01*
X12027325Y-14861908D02*
X12046372Y-14871432D01*
X12046372Y-14871432D02*
X12055896Y-14880956D01*
X12055896Y-14880956D02*
X12065420Y-14900003D01*
X12065420Y-14900003D02*
X12074944Y-14938098D01*
X12074944Y-14938098D02*
X12074944Y-14985717D01*
X12074944Y-14985717D02*
X12065420Y-15023813D01*
X12065420Y-15023813D02*
X12055896Y-15042860D01*
X12055896Y-15042860D02*
X12046372Y-15052384D01*
X12046372Y-15052384D02*
X12027325Y-15061908D01*
X12027325Y-15061908D02*
X12008277Y-15061908D01*
X12008277Y-15061908D02*
X11989229Y-15052384D01*
X11989229Y-15052384D02*
X11979706Y-15042860D01*
X11979706Y-15042860D02*
X11970182Y-15023813D01*
X11970182Y-15023813D02*
X11960658Y-14985717D01*
X11960658Y-14985717D02*
X11960658Y-14938098D01*
X11960658Y-14938098D02*
X11970182Y-14900003D01*
X11970182Y-14900003D02*
X11979706Y-14880956D01*
X11979706Y-14880956D02*
X11989229Y-14871432D01*
X11989229Y-14871432D02*
X12008277Y-14861908D01*
X12151134Y-14861908D02*
X12151134Y-14900003D01*
X12227325Y-14861908D02*
X12227325Y-14900003D01*
X12522563Y-15138098D02*
X12513039Y-15128575D01*
X12513039Y-15128575D02*
X12493991Y-15100003D01*
X12493991Y-15100003D02*
X12484468Y-15080956D01*
X12484468Y-15080956D02*
X12474944Y-15052384D01*
X12474944Y-15052384D02*
X12465420Y-15004765D01*
X12465420Y-15004765D02*
X12465420Y-14966670D01*
X12465420Y-14966670D02*
X12474944Y-14919051D01*
X12474944Y-14919051D02*
X12484468Y-14890479D01*
X12484468Y-14890479D02*
X12493991Y-14871432D01*
X12493991Y-14871432D02*
X12513039Y-14842860D01*
X12513039Y-14842860D02*
X12522563Y-14833336D01*
X12579706Y-14861908D02*
X12703515Y-14861908D01*
X12703515Y-14861908D02*
X12636848Y-14938098D01*
X12636848Y-14938098D02*
X12665420Y-14938098D01*
X12665420Y-14938098D02*
X12684468Y-14947622D01*
X12684468Y-14947622D02*
X12693991Y-14957146D01*
X12693991Y-14957146D02*
X12703515Y-14976194D01*
X12703515Y-14976194D02*
X12703515Y-15023813D01*
X12703515Y-15023813D02*
X12693991Y-15042860D01*
X12693991Y-15042860D02*
X12684468Y-15052384D01*
X12684468Y-15052384D02*
X12665420Y-15061908D01*
X12665420Y-15061908D02*
X12608277Y-15061908D01*
X12608277Y-15061908D02*
X12589229Y-15052384D01*
X12589229Y-15052384D02*
X12579706Y-15042860D01*
X12874944Y-14928575D02*
X12874944Y-15061908D01*
X12827325Y-14852384D02*
X12779706Y-14995241D01*
X12779706Y-14995241D02*
X12903515Y-14995241D01*
X13132087Y-15061908D02*
X13132087Y-14861908D01*
X13217801Y-15061908D02*
X13217801Y-14957146D01*
X13217801Y-14957146D02*
X13208277Y-14938098D01*
X13208277Y-14938098D02*
X13189230Y-14928575D01*
X13189230Y-14928575D02*
X13160658Y-14928575D01*
X13160658Y-14928575D02*
X13141610Y-14938098D01*
X13141610Y-14938098D02*
X13132087Y-14947622D01*
X13341610Y-15061908D02*
X13322563Y-15052384D01*
X13322563Y-15052384D02*
X13313039Y-15042860D01*
X13313039Y-15042860D02*
X13303515Y-15023813D01*
X13303515Y-15023813D02*
X13303515Y-14966670D01*
X13303515Y-14966670D02*
X13313039Y-14947622D01*
X13313039Y-14947622D02*
X13322563Y-14938098D01*
X13322563Y-14938098D02*
X13341610Y-14928575D01*
X13341610Y-14928575D02*
X13370182Y-14928575D01*
X13370182Y-14928575D02*
X13389230Y-14938098D01*
X13389230Y-14938098D02*
X13398753Y-14947622D01*
X13398753Y-14947622D02*
X13408277Y-14966670D01*
X13408277Y-14966670D02*
X13408277Y-15023813D01*
X13408277Y-15023813D02*
X13398753Y-15042860D01*
X13398753Y-15042860D02*
X13389230Y-15052384D01*
X13389230Y-15052384D02*
X13370182Y-15061908D01*
X13370182Y-15061908D02*
X13341610Y-15061908D01*
X13522563Y-15061908D02*
X13503515Y-15052384D01*
X13503515Y-15052384D02*
X13493991Y-15033336D01*
X13493991Y-15033336D02*
X13493991Y-14861908D01*
X13674944Y-15052384D02*
X13655896Y-15061908D01*
X13655896Y-15061908D02*
X13617801Y-15061908D01*
X13617801Y-15061908D02*
X13598753Y-15052384D01*
X13598753Y-15052384D02*
X13589230Y-15033336D01*
X13589230Y-15033336D02*
X13589230Y-14957146D01*
X13589230Y-14957146D02*
X13598753Y-14938098D01*
X13598753Y-14938098D02*
X13617801Y-14928575D01*
X13617801Y-14928575D02*
X13655896Y-14928575D01*
X13655896Y-14928575D02*
X13674944Y-14938098D01*
X13674944Y-14938098D02*
X13684468Y-14957146D01*
X13684468Y-14957146D02*
X13684468Y-14976194D01*
X13684468Y-14976194D02*
X13589230Y-14995241D01*
X13760658Y-15052384D02*
X13779706Y-15061908D01*
X13779706Y-15061908D02*
X13817801Y-15061908D01*
X13817801Y-15061908D02*
X13836849Y-15052384D01*
X13836849Y-15052384D02*
X13846372Y-15033336D01*
X13846372Y-15033336D02*
X13846372Y-15023813D01*
X13846372Y-15023813D02*
X13836849Y-15004765D01*
X13836849Y-15004765D02*
X13817801Y-14995241D01*
X13817801Y-14995241D02*
X13789230Y-14995241D01*
X13789230Y-14995241D02*
X13770182Y-14985717D01*
X13770182Y-14985717D02*
X13760658Y-14966670D01*
X13760658Y-14966670D02*
X13760658Y-14957146D01*
X13760658Y-14957146D02*
X13770182Y-14938098D01*
X13770182Y-14938098D02*
X13789230Y-14928575D01*
X13789230Y-14928575D02*
X13817801Y-14928575D01*
X13817801Y-14928575D02*
X13836849Y-14938098D01*
X13913039Y-15138098D02*
X13922563Y-15128575D01*
X13922563Y-15128575D02*
X13941611Y-15100003D01*
X13941611Y-15100003D02*
X13951134Y-15080956D01*
X13951134Y-15080956D02*
X13960658Y-15052384D01*
X13960658Y-15052384D02*
X13970182Y-15004765D01*
X13970182Y-15004765D02*
X13970182Y-14966670D01*
X13970182Y-14966670D02*
X13960658Y-14919051D01*
X13960658Y-14919051D02*
X13951134Y-14890479D01*
X13951134Y-14890479D02*
X13941611Y-14871432D01*
X13941611Y-14871432D02*
X13922563Y-14842860D01*
X13922563Y-14842860D02*
X13913039Y-14833336D01*
D12*
X8897500Y-15284424D02*
X8947500Y-15234424D01*
X8897500Y-15184424D01*
X8847500Y-15234424D01*
X8897500Y-15284424D01*
D11*
X9313039Y-15325908D02*
X9198753Y-15325908D01*
X9255896Y-15325908D02*
X9255896Y-15125908D01*
X9255896Y-15125908D02*
X9236848Y-15154479D01*
X9236848Y-15154479D02*
X9217801Y-15173527D01*
X9217801Y-15173527D02*
X9198753Y-15183051D01*
X9398753Y-15306860D02*
X9408277Y-15316384D01*
X9408277Y-15316384D02*
X9398753Y-15325908D01*
X9398753Y-15325908D02*
X9389229Y-15316384D01*
X9389229Y-15316384D02*
X9398753Y-15306860D01*
X9398753Y-15306860D02*
X9398753Y-15325908D01*
X9532086Y-15125908D02*
X9551134Y-15125908D01*
X9551134Y-15125908D02*
X9570182Y-15135432D01*
X9570182Y-15135432D02*
X9579705Y-15144956D01*
X9579705Y-15144956D02*
X9589229Y-15164003D01*
X9589229Y-15164003D02*
X9598753Y-15202098D01*
X9598753Y-15202098D02*
X9598753Y-15249717D01*
X9598753Y-15249717D02*
X9589229Y-15287813D01*
X9589229Y-15287813D02*
X9579705Y-15306860D01*
X9579705Y-15306860D02*
X9570182Y-15316384D01*
X9570182Y-15316384D02*
X9551134Y-15325908D01*
X9551134Y-15325908D02*
X9532086Y-15325908D01*
X9532086Y-15325908D02*
X9513039Y-15316384D01*
X9513039Y-15316384D02*
X9503515Y-15306860D01*
X9503515Y-15306860D02*
X9493991Y-15287813D01*
X9493991Y-15287813D02*
X9484467Y-15249717D01*
X9484467Y-15249717D02*
X9484467Y-15202098D01*
X9484467Y-15202098D02*
X9493991Y-15164003D01*
X9493991Y-15164003D02*
X9503515Y-15144956D01*
X9503515Y-15144956D02*
X9513039Y-15135432D01*
X9513039Y-15135432D02*
X9532086Y-15125908D01*
X9722563Y-15125908D02*
X9741610Y-15125908D01*
X9741610Y-15125908D02*
X9760658Y-15135432D01*
X9760658Y-15135432D02*
X9770182Y-15144956D01*
X9770182Y-15144956D02*
X9779705Y-15164003D01*
X9779705Y-15164003D02*
X9789229Y-15202098D01*
X9789229Y-15202098D02*
X9789229Y-15249717D01*
X9789229Y-15249717D02*
X9779705Y-15287813D01*
X9779705Y-15287813D02*
X9770182Y-15306860D01*
X9770182Y-15306860D02*
X9760658Y-15316384D01*
X9760658Y-15316384D02*
X9741610Y-15325908D01*
X9741610Y-15325908D02*
X9722563Y-15325908D01*
X9722563Y-15325908D02*
X9703515Y-15316384D01*
X9703515Y-15316384D02*
X9693991Y-15306860D01*
X9693991Y-15306860D02*
X9684467Y-15287813D01*
X9684467Y-15287813D02*
X9674944Y-15249717D01*
X9674944Y-15249717D02*
X9674944Y-15202098D01*
X9674944Y-15202098D02*
X9684467Y-15164003D01*
X9684467Y-15164003D02*
X9693991Y-15144956D01*
X9693991Y-15144956D02*
X9703515Y-15135432D01*
X9703515Y-15135432D02*
X9722563Y-15125908D01*
X9913039Y-15125908D02*
X9932086Y-15125908D01*
X9932086Y-15125908D02*
X9951134Y-15135432D01*
X9951134Y-15135432D02*
X9960658Y-15144956D01*
X9960658Y-15144956D02*
X9970182Y-15164003D01*
X9970182Y-15164003D02*
X9979705Y-15202098D01*
X9979705Y-15202098D02*
X9979705Y-15249717D01*
X9979705Y-15249717D02*
X9970182Y-15287813D01*
X9970182Y-15287813D02*
X9960658Y-15306860D01*
X9960658Y-15306860D02*
X9951134Y-15316384D01*
X9951134Y-15316384D02*
X9932086Y-15325908D01*
X9932086Y-15325908D02*
X9913039Y-15325908D01*
X9913039Y-15325908D02*
X9893991Y-15316384D01*
X9893991Y-15316384D02*
X9884467Y-15306860D01*
X9884467Y-15306860D02*
X9874944Y-15287813D01*
X9874944Y-15287813D02*
X9865420Y-15249717D01*
X9865420Y-15249717D02*
X9865420Y-15202098D01*
X9865420Y-15202098D02*
X9874944Y-15164003D01*
X9874944Y-15164003D02*
X9884467Y-15144956D01*
X9884467Y-15144956D02*
X9893991Y-15135432D01*
X9893991Y-15135432D02*
X9913039Y-15125908D01*
X10065420Y-15325908D02*
X10065420Y-15192575D01*
X10065420Y-15211622D02*
X10074944Y-15202098D01*
X10074944Y-15202098D02*
X10093991Y-15192575D01*
X10093991Y-15192575D02*
X10122563Y-15192575D01*
X10122563Y-15192575D02*
X10141610Y-15202098D01*
X10141610Y-15202098D02*
X10151134Y-15221146D01*
X10151134Y-15221146D02*
X10151134Y-15325908D01*
X10151134Y-15221146D02*
X10160658Y-15202098D01*
X10160658Y-15202098D02*
X10179705Y-15192575D01*
X10179705Y-15192575D02*
X10208277Y-15192575D01*
X10208277Y-15192575D02*
X10227325Y-15202098D01*
X10227325Y-15202098D02*
X10236848Y-15221146D01*
X10236848Y-15221146D02*
X10236848Y-15325908D01*
X10332086Y-15325908D02*
X10332086Y-15192575D01*
X10332086Y-15211622D02*
X10341610Y-15202098D01*
X10341610Y-15202098D02*
X10360658Y-15192575D01*
X10360658Y-15192575D02*
X10389229Y-15192575D01*
X10389229Y-15192575D02*
X10408277Y-15202098D01*
X10408277Y-15202098D02*
X10417801Y-15221146D01*
X10417801Y-15221146D02*
X10417801Y-15325908D01*
X10417801Y-15221146D02*
X10427325Y-15202098D01*
X10427325Y-15202098D02*
X10446372Y-15192575D01*
X10446372Y-15192575D02*
X10474944Y-15192575D01*
X10474944Y-15192575D02*
X10493991Y-15202098D01*
X10493991Y-15202098D02*
X10503515Y-15221146D01*
X10503515Y-15221146D02*
X10503515Y-15325908D01*
X10893991Y-15116384D02*
X10722563Y-15373527D01*
X11151134Y-15125908D02*
X11170182Y-15125908D01*
X11170182Y-15125908D02*
X11189229Y-15135432D01*
X11189229Y-15135432D02*
X11198753Y-15144956D01*
X11198753Y-15144956D02*
X11208277Y-15164003D01*
X11208277Y-15164003D02*
X11217801Y-15202098D01*
X11217801Y-15202098D02*
X11217801Y-15249717D01*
X11217801Y-15249717D02*
X11208277Y-15287813D01*
X11208277Y-15287813D02*
X11198753Y-15306860D01*
X11198753Y-15306860D02*
X11189229Y-15316384D01*
X11189229Y-15316384D02*
X11170182Y-15325908D01*
X11170182Y-15325908D02*
X11151134Y-15325908D01*
X11151134Y-15325908D02*
X11132087Y-15316384D01*
X11132087Y-15316384D02*
X11122563Y-15306860D01*
X11122563Y-15306860D02*
X11113039Y-15287813D01*
X11113039Y-15287813D02*
X11103515Y-15249717D01*
X11103515Y-15249717D02*
X11103515Y-15202098D01*
X11103515Y-15202098D02*
X11113039Y-15164003D01*
X11113039Y-15164003D02*
X11122563Y-15144956D01*
X11122563Y-15144956D02*
X11132087Y-15135432D01*
X11132087Y-15135432D02*
X11151134Y-15125908D01*
X11303515Y-15306860D02*
X11313039Y-15316384D01*
X11313039Y-15316384D02*
X11303515Y-15325908D01*
X11303515Y-15325908D02*
X11293991Y-15316384D01*
X11293991Y-15316384D02*
X11303515Y-15306860D01*
X11303515Y-15306860D02*
X11303515Y-15325908D01*
X11436848Y-15125908D02*
X11455896Y-15125908D01*
X11455896Y-15125908D02*
X11474944Y-15135432D01*
X11474944Y-15135432D02*
X11484467Y-15144956D01*
X11484467Y-15144956D02*
X11493991Y-15164003D01*
X11493991Y-15164003D02*
X11503515Y-15202098D01*
X11503515Y-15202098D02*
X11503515Y-15249717D01*
X11503515Y-15249717D02*
X11493991Y-15287813D01*
X11493991Y-15287813D02*
X11484467Y-15306860D01*
X11484467Y-15306860D02*
X11474944Y-15316384D01*
X11474944Y-15316384D02*
X11455896Y-15325908D01*
X11455896Y-15325908D02*
X11436848Y-15325908D01*
X11436848Y-15325908D02*
X11417801Y-15316384D01*
X11417801Y-15316384D02*
X11408277Y-15306860D01*
X11408277Y-15306860D02*
X11398753Y-15287813D01*
X11398753Y-15287813D02*
X11389229Y-15249717D01*
X11389229Y-15249717D02*
X11389229Y-15202098D01*
X11389229Y-15202098D02*
X11398753Y-15164003D01*
X11398753Y-15164003D02*
X11408277Y-15144956D01*
X11408277Y-15144956D02*
X11417801Y-15135432D01*
X11417801Y-15135432D02*
X11436848Y-15125908D01*
X11570182Y-15125908D02*
X11693991Y-15125908D01*
X11693991Y-15125908D02*
X11627325Y-15202098D01*
X11627325Y-15202098D02*
X11655896Y-15202098D01*
X11655896Y-15202098D02*
X11674944Y-15211622D01*
X11674944Y-15211622D02*
X11684467Y-15221146D01*
X11684467Y-15221146D02*
X11693991Y-15240194D01*
X11693991Y-15240194D02*
X11693991Y-15287813D01*
X11693991Y-15287813D02*
X11684467Y-15306860D01*
X11684467Y-15306860D02*
X11674944Y-15316384D01*
X11674944Y-15316384D02*
X11655896Y-15325908D01*
X11655896Y-15325908D02*
X11598753Y-15325908D01*
X11598753Y-15325908D02*
X11579706Y-15316384D01*
X11579706Y-15316384D02*
X11570182Y-15306860D01*
X11789229Y-15325908D02*
X11827325Y-15325908D01*
X11827325Y-15325908D02*
X11846372Y-15316384D01*
X11846372Y-15316384D02*
X11855896Y-15306860D01*
X11855896Y-15306860D02*
X11874944Y-15278289D01*
X11874944Y-15278289D02*
X11884467Y-15240194D01*
X11884467Y-15240194D02*
X11884467Y-15164003D01*
X11884467Y-15164003D02*
X11874944Y-15144956D01*
X11874944Y-15144956D02*
X11865420Y-15135432D01*
X11865420Y-15135432D02*
X11846372Y-15125908D01*
X11846372Y-15125908D02*
X11808277Y-15125908D01*
X11808277Y-15125908D02*
X11789229Y-15135432D01*
X11789229Y-15135432D02*
X11779706Y-15144956D01*
X11779706Y-15144956D02*
X11770182Y-15164003D01*
X11770182Y-15164003D02*
X11770182Y-15211622D01*
X11770182Y-15211622D02*
X11779706Y-15230670D01*
X11779706Y-15230670D02*
X11789229Y-15240194D01*
X11789229Y-15240194D02*
X11808277Y-15249717D01*
X11808277Y-15249717D02*
X11846372Y-15249717D01*
X11846372Y-15249717D02*
X11865420Y-15240194D01*
X11865420Y-15240194D02*
X11874944Y-15230670D01*
X11874944Y-15230670D02*
X11884467Y-15211622D01*
X12055896Y-15192575D02*
X12055896Y-15325908D01*
X12008277Y-15116384D02*
X11960658Y-15259241D01*
X11960658Y-15259241D02*
X12084467Y-15259241D01*
X12151134Y-15125908D02*
X12151134Y-15164003D01*
X12227325Y-15125908D02*
X12227325Y-15164003D01*
X12522563Y-15402098D02*
X12513039Y-15392575D01*
X12513039Y-15392575D02*
X12493991Y-15364003D01*
X12493991Y-15364003D02*
X12484468Y-15344956D01*
X12484468Y-15344956D02*
X12474944Y-15316384D01*
X12474944Y-15316384D02*
X12465420Y-15268765D01*
X12465420Y-15268765D02*
X12465420Y-15230670D01*
X12465420Y-15230670D02*
X12474944Y-15183051D01*
X12474944Y-15183051D02*
X12484468Y-15154479D01*
X12484468Y-15154479D02*
X12493991Y-15135432D01*
X12493991Y-15135432D02*
X12513039Y-15106860D01*
X12513039Y-15106860D02*
X12522563Y-15097336D01*
X12589229Y-15144956D02*
X12598753Y-15135432D01*
X12598753Y-15135432D02*
X12617801Y-15125908D01*
X12617801Y-15125908D02*
X12665420Y-15125908D01*
X12665420Y-15125908D02*
X12684468Y-15135432D01*
X12684468Y-15135432D02*
X12693991Y-15144956D01*
X12693991Y-15144956D02*
X12703515Y-15164003D01*
X12703515Y-15164003D02*
X12703515Y-15183051D01*
X12703515Y-15183051D02*
X12693991Y-15211622D01*
X12693991Y-15211622D02*
X12579706Y-15325908D01*
X12579706Y-15325908D02*
X12703515Y-15325908D01*
X12798753Y-15325908D02*
X12836848Y-15325908D01*
X12836848Y-15325908D02*
X12855896Y-15316384D01*
X12855896Y-15316384D02*
X12865420Y-15306860D01*
X12865420Y-15306860D02*
X12884468Y-15278289D01*
X12884468Y-15278289D02*
X12893991Y-15240194D01*
X12893991Y-15240194D02*
X12893991Y-15164003D01*
X12893991Y-15164003D02*
X12884468Y-15144956D01*
X12884468Y-15144956D02*
X12874944Y-15135432D01*
X12874944Y-15135432D02*
X12855896Y-15125908D01*
X12855896Y-15125908D02*
X12817801Y-15125908D01*
X12817801Y-15125908D02*
X12798753Y-15135432D01*
X12798753Y-15135432D02*
X12789229Y-15144956D01*
X12789229Y-15144956D02*
X12779706Y-15164003D01*
X12779706Y-15164003D02*
X12779706Y-15211622D01*
X12779706Y-15211622D02*
X12789229Y-15230670D01*
X12789229Y-15230670D02*
X12798753Y-15240194D01*
X12798753Y-15240194D02*
X12817801Y-15249717D01*
X12817801Y-15249717D02*
X12855896Y-15249717D01*
X12855896Y-15249717D02*
X12874944Y-15240194D01*
X12874944Y-15240194D02*
X12884468Y-15230670D01*
X12884468Y-15230670D02*
X12893991Y-15211622D01*
X13132087Y-15325908D02*
X13132087Y-15125908D01*
X13217801Y-15325908D02*
X13217801Y-15221146D01*
X13217801Y-15221146D02*
X13208277Y-15202098D01*
X13208277Y-15202098D02*
X13189230Y-15192575D01*
X13189230Y-15192575D02*
X13160658Y-15192575D01*
X13160658Y-15192575D02*
X13141610Y-15202098D01*
X13141610Y-15202098D02*
X13132087Y-15211622D01*
X13341610Y-15325908D02*
X13322563Y-15316384D01*
X13322563Y-15316384D02*
X13313039Y-15306860D01*
X13313039Y-15306860D02*
X13303515Y-15287813D01*
X13303515Y-15287813D02*
X13303515Y-15230670D01*
X13303515Y-15230670D02*
X13313039Y-15211622D01*
X13313039Y-15211622D02*
X13322563Y-15202098D01*
X13322563Y-15202098D02*
X13341610Y-15192575D01*
X13341610Y-15192575D02*
X13370182Y-15192575D01*
X13370182Y-15192575D02*
X13389230Y-15202098D01*
X13389230Y-15202098D02*
X13398753Y-15211622D01*
X13398753Y-15211622D02*
X13408277Y-15230670D01*
X13408277Y-15230670D02*
X13408277Y-15287813D01*
X13408277Y-15287813D02*
X13398753Y-15306860D01*
X13398753Y-15306860D02*
X13389230Y-15316384D01*
X13389230Y-15316384D02*
X13370182Y-15325908D01*
X13370182Y-15325908D02*
X13341610Y-15325908D01*
X13522563Y-15325908D02*
X13503515Y-15316384D01*
X13503515Y-15316384D02*
X13493991Y-15297336D01*
X13493991Y-15297336D02*
X13493991Y-15125908D01*
X13674944Y-15316384D02*
X13655896Y-15325908D01*
X13655896Y-15325908D02*
X13617801Y-15325908D01*
X13617801Y-15325908D02*
X13598753Y-15316384D01*
X13598753Y-15316384D02*
X13589230Y-15297336D01*
X13589230Y-15297336D02*
X13589230Y-15221146D01*
X13589230Y-15221146D02*
X13598753Y-15202098D01*
X13598753Y-15202098D02*
X13617801Y-15192575D01*
X13617801Y-15192575D02*
X13655896Y-15192575D01*
X13655896Y-15192575D02*
X13674944Y-15202098D01*
X13674944Y-15202098D02*
X13684468Y-15221146D01*
X13684468Y-15221146D02*
X13684468Y-15240194D01*
X13684468Y-15240194D02*
X13589230Y-15259241D01*
X13760658Y-15316384D02*
X13779706Y-15325908D01*
X13779706Y-15325908D02*
X13817801Y-15325908D01*
X13817801Y-15325908D02*
X13836849Y-15316384D01*
X13836849Y-15316384D02*
X13846372Y-15297336D01*
X13846372Y-15297336D02*
X13846372Y-15287813D01*
X13846372Y-15287813D02*
X13836849Y-15268765D01*
X13836849Y-15268765D02*
X13817801Y-15259241D01*
X13817801Y-15259241D02*
X13789230Y-15259241D01*
X13789230Y-15259241D02*
X13770182Y-15249717D01*
X13770182Y-15249717D02*
X13760658Y-15230670D01*
X13760658Y-15230670D02*
X13760658Y-15221146D01*
X13760658Y-15221146D02*
X13770182Y-15202098D01*
X13770182Y-15202098D02*
X13789230Y-15192575D01*
X13789230Y-15192575D02*
X13817801Y-15192575D01*
X13817801Y-15192575D02*
X13836849Y-15202098D01*
X13913039Y-15402098D02*
X13922563Y-15392575D01*
X13922563Y-15392575D02*
X13941611Y-15364003D01*
X13941611Y-15364003D02*
X13951134Y-15344956D01*
X13951134Y-15344956D02*
X13960658Y-15316384D01*
X13960658Y-15316384D02*
X13970182Y-15268765D01*
X13970182Y-15268765D02*
X13970182Y-15230670D01*
X13970182Y-15230670D02*
X13960658Y-15183051D01*
X13960658Y-15183051D02*
X13951134Y-15154479D01*
X13951134Y-15154479D02*
X13941611Y-15135432D01*
X13941611Y-15135432D02*
X13922563Y-15106860D01*
X13922563Y-15106860D02*
X13913039Y-15097336D01*
X8747500Y-15398424D02*
X8947500Y-15598424D01*
X8947500Y-15398424D02*
X8747500Y-15598424D01*
X8947500Y-15498424D02*
G75*
G03*
X8747500Y-15498424I-100000J0D01*
G01*
X8747500Y-15498424D02*
G75*
G03*
X8947500Y-15498424I100000J0D01*
G01*
X9198753Y-15408956D02*
X9208277Y-15399432D01*
X9208277Y-15399432D02*
X9227324Y-15389908D01*
X9227324Y-15389908D02*
X9274944Y-15389908D01*
X9274944Y-15389908D02*
X9293991Y-15399432D01*
X9293991Y-15399432D02*
X9303515Y-15408956D01*
X9303515Y-15408956D02*
X9313039Y-15428003D01*
X9313039Y-15428003D02*
X9313039Y-15447051D01*
X9313039Y-15447051D02*
X9303515Y-15475622D01*
X9303515Y-15475622D02*
X9189229Y-15589908D01*
X9189229Y-15589908D02*
X9313039Y-15589908D01*
X9398753Y-15570860D02*
X9408277Y-15580384D01*
X9408277Y-15580384D02*
X9398753Y-15589908D01*
X9398753Y-15589908D02*
X9389229Y-15580384D01*
X9389229Y-15580384D02*
X9398753Y-15570860D01*
X9398753Y-15570860D02*
X9398753Y-15589908D01*
X9484467Y-15408956D02*
X9493991Y-15399432D01*
X9493991Y-15399432D02*
X9513039Y-15389908D01*
X9513039Y-15389908D02*
X9560658Y-15389908D01*
X9560658Y-15389908D02*
X9579705Y-15399432D01*
X9579705Y-15399432D02*
X9589229Y-15408956D01*
X9589229Y-15408956D02*
X9598753Y-15428003D01*
X9598753Y-15428003D02*
X9598753Y-15447051D01*
X9598753Y-15447051D02*
X9589229Y-15475622D01*
X9589229Y-15475622D02*
X9474944Y-15589908D01*
X9474944Y-15589908D02*
X9598753Y-15589908D01*
X9722563Y-15389908D02*
X9741610Y-15389908D01*
X9741610Y-15389908D02*
X9760658Y-15399432D01*
X9760658Y-15399432D02*
X9770182Y-15408956D01*
X9770182Y-15408956D02*
X9779705Y-15428003D01*
X9779705Y-15428003D02*
X9789229Y-15466098D01*
X9789229Y-15466098D02*
X9789229Y-15513717D01*
X9789229Y-15513717D02*
X9779705Y-15551813D01*
X9779705Y-15551813D02*
X9770182Y-15570860D01*
X9770182Y-15570860D02*
X9760658Y-15580384D01*
X9760658Y-15580384D02*
X9741610Y-15589908D01*
X9741610Y-15589908D02*
X9722563Y-15589908D01*
X9722563Y-15589908D02*
X9703515Y-15580384D01*
X9703515Y-15580384D02*
X9693991Y-15570860D01*
X9693991Y-15570860D02*
X9684467Y-15551813D01*
X9684467Y-15551813D02*
X9674944Y-15513717D01*
X9674944Y-15513717D02*
X9674944Y-15466098D01*
X9674944Y-15466098D02*
X9684467Y-15428003D01*
X9684467Y-15428003D02*
X9693991Y-15408956D01*
X9693991Y-15408956D02*
X9703515Y-15399432D01*
X9703515Y-15399432D02*
X9722563Y-15389908D01*
X9913039Y-15389908D02*
X9932086Y-15389908D01*
X9932086Y-15389908D02*
X9951134Y-15399432D01*
X9951134Y-15399432D02*
X9960658Y-15408956D01*
X9960658Y-15408956D02*
X9970182Y-15428003D01*
X9970182Y-15428003D02*
X9979705Y-15466098D01*
X9979705Y-15466098D02*
X9979705Y-15513717D01*
X9979705Y-15513717D02*
X9970182Y-15551813D01*
X9970182Y-15551813D02*
X9960658Y-15570860D01*
X9960658Y-15570860D02*
X9951134Y-15580384D01*
X9951134Y-15580384D02*
X9932086Y-15589908D01*
X9932086Y-15589908D02*
X9913039Y-15589908D01*
X9913039Y-15589908D02*
X9893991Y-15580384D01*
X9893991Y-15580384D02*
X9884467Y-15570860D01*
X9884467Y-15570860D02*
X9874944Y-15551813D01*
X9874944Y-15551813D02*
X9865420Y-15513717D01*
X9865420Y-15513717D02*
X9865420Y-15466098D01*
X9865420Y-15466098D02*
X9874944Y-15428003D01*
X9874944Y-15428003D02*
X9884467Y-15408956D01*
X9884467Y-15408956D02*
X9893991Y-15399432D01*
X9893991Y-15399432D02*
X9913039Y-15389908D01*
X10065420Y-15589908D02*
X10065420Y-15456575D01*
X10065420Y-15475622D02*
X10074944Y-15466098D01*
X10074944Y-15466098D02*
X10093991Y-15456575D01*
X10093991Y-15456575D02*
X10122563Y-15456575D01*
X10122563Y-15456575D02*
X10141610Y-15466098D01*
X10141610Y-15466098D02*
X10151134Y-15485146D01*
X10151134Y-15485146D02*
X10151134Y-15589908D01*
X10151134Y-15485146D02*
X10160658Y-15466098D01*
X10160658Y-15466098D02*
X10179705Y-15456575D01*
X10179705Y-15456575D02*
X10208277Y-15456575D01*
X10208277Y-15456575D02*
X10227325Y-15466098D01*
X10227325Y-15466098D02*
X10236848Y-15485146D01*
X10236848Y-15485146D02*
X10236848Y-15589908D01*
X10332086Y-15589908D02*
X10332086Y-15456575D01*
X10332086Y-15475622D02*
X10341610Y-15466098D01*
X10341610Y-15466098D02*
X10360658Y-15456575D01*
X10360658Y-15456575D02*
X10389229Y-15456575D01*
X10389229Y-15456575D02*
X10408277Y-15466098D01*
X10408277Y-15466098D02*
X10417801Y-15485146D01*
X10417801Y-15485146D02*
X10417801Y-15589908D01*
X10417801Y-15485146D02*
X10427325Y-15466098D01*
X10427325Y-15466098D02*
X10446372Y-15456575D01*
X10446372Y-15456575D02*
X10474944Y-15456575D01*
X10474944Y-15456575D02*
X10493991Y-15466098D01*
X10493991Y-15466098D02*
X10503515Y-15485146D01*
X10503515Y-15485146D02*
X10503515Y-15589908D01*
X10893991Y-15380384D02*
X10722563Y-15637527D01*
X11151134Y-15389908D02*
X11170182Y-15389908D01*
X11170182Y-15389908D02*
X11189229Y-15399432D01*
X11189229Y-15399432D02*
X11198753Y-15408956D01*
X11198753Y-15408956D02*
X11208277Y-15428003D01*
X11208277Y-15428003D02*
X11217801Y-15466098D01*
X11217801Y-15466098D02*
X11217801Y-15513717D01*
X11217801Y-15513717D02*
X11208277Y-15551813D01*
X11208277Y-15551813D02*
X11198753Y-15570860D01*
X11198753Y-15570860D02*
X11189229Y-15580384D01*
X11189229Y-15580384D02*
X11170182Y-15589908D01*
X11170182Y-15589908D02*
X11151134Y-15589908D01*
X11151134Y-15589908D02*
X11132087Y-15580384D01*
X11132087Y-15580384D02*
X11122563Y-15570860D01*
X11122563Y-15570860D02*
X11113039Y-15551813D01*
X11113039Y-15551813D02*
X11103515Y-15513717D01*
X11103515Y-15513717D02*
X11103515Y-15466098D01*
X11103515Y-15466098D02*
X11113039Y-15428003D01*
X11113039Y-15428003D02*
X11122563Y-15408956D01*
X11122563Y-15408956D02*
X11132087Y-15399432D01*
X11132087Y-15399432D02*
X11151134Y-15389908D01*
X11303515Y-15570860D02*
X11313039Y-15580384D01*
X11313039Y-15580384D02*
X11303515Y-15589908D01*
X11303515Y-15589908D02*
X11293991Y-15580384D01*
X11293991Y-15580384D02*
X11303515Y-15570860D01*
X11303515Y-15570860D02*
X11303515Y-15589908D01*
X11436848Y-15389908D02*
X11455896Y-15389908D01*
X11455896Y-15389908D02*
X11474944Y-15399432D01*
X11474944Y-15399432D02*
X11484467Y-15408956D01*
X11484467Y-15408956D02*
X11493991Y-15428003D01*
X11493991Y-15428003D02*
X11503515Y-15466098D01*
X11503515Y-15466098D02*
X11503515Y-15513717D01*
X11503515Y-15513717D02*
X11493991Y-15551813D01*
X11493991Y-15551813D02*
X11484467Y-15570860D01*
X11484467Y-15570860D02*
X11474944Y-15580384D01*
X11474944Y-15580384D02*
X11455896Y-15589908D01*
X11455896Y-15589908D02*
X11436848Y-15589908D01*
X11436848Y-15589908D02*
X11417801Y-15580384D01*
X11417801Y-15580384D02*
X11408277Y-15570860D01*
X11408277Y-15570860D02*
X11398753Y-15551813D01*
X11398753Y-15551813D02*
X11389229Y-15513717D01*
X11389229Y-15513717D02*
X11389229Y-15466098D01*
X11389229Y-15466098D02*
X11398753Y-15428003D01*
X11398753Y-15428003D02*
X11408277Y-15408956D01*
X11408277Y-15408956D02*
X11417801Y-15399432D01*
X11417801Y-15399432D02*
X11436848Y-15389908D01*
X11617801Y-15475622D02*
X11598753Y-15466098D01*
X11598753Y-15466098D02*
X11589229Y-15456575D01*
X11589229Y-15456575D02*
X11579706Y-15437527D01*
X11579706Y-15437527D02*
X11579706Y-15428003D01*
X11579706Y-15428003D02*
X11589229Y-15408956D01*
X11589229Y-15408956D02*
X11598753Y-15399432D01*
X11598753Y-15399432D02*
X11617801Y-15389908D01*
X11617801Y-15389908D02*
X11655896Y-15389908D01*
X11655896Y-15389908D02*
X11674944Y-15399432D01*
X11674944Y-15399432D02*
X11684467Y-15408956D01*
X11684467Y-15408956D02*
X11693991Y-15428003D01*
X11693991Y-15428003D02*
X11693991Y-15437527D01*
X11693991Y-15437527D02*
X11684467Y-15456575D01*
X11684467Y-15456575D02*
X11674944Y-15466098D01*
X11674944Y-15466098D02*
X11655896Y-15475622D01*
X11655896Y-15475622D02*
X11617801Y-15475622D01*
X11617801Y-15475622D02*
X11598753Y-15485146D01*
X11598753Y-15485146D02*
X11589229Y-15494670D01*
X11589229Y-15494670D02*
X11579706Y-15513717D01*
X11579706Y-15513717D02*
X11579706Y-15551813D01*
X11579706Y-15551813D02*
X11589229Y-15570860D01*
X11589229Y-15570860D02*
X11598753Y-15580384D01*
X11598753Y-15580384D02*
X11617801Y-15589908D01*
X11617801Y-15589908D02*
X11655896Y-15589908D01*
X11655896Y-15589908D02*
X11674944Y-15580384D01*
X11674944Y-15580384D02*
X11684467Y-15570860D01*
X11684467Y-15570860D02*
X11693991Y-15551813D01*
X11693991Y-15551813D02*
X11693991Y-15513717D01*
X11693991Y-15513717D02*
X11684467Y-15494670D01*
X11684467Y-15494670D02*
X11674944Y-15485146D01*
X11674944Y-15485146D02*
X11655896Y-15475622D01*
X11865420Y-15389908D02*
X11827325Y-15389908D01*
X11827325Y-15389908D02*
X11808277Y-15399432D01*
X11808277Y-15399432D02*
X11798753Y-15408956D01*
X11798753Y-15408956D02*
X11779706Y-15437527D01*
X11779706Y-15437527D02*
X11770182Y-15475622D01*
X11770182Y-15475622D02*
X11770182Y-15551813D01*
X11770182Y-15551813D02*
X11779706Y-15570860D01*
X11779706Y-15570860D02*
X11789229Y-15580384D01*
X11789229Y-15580384D02*
X11808277Y-15589908D01*
X11808277Y-15589908D02*
X11846372Y-15589908D01*
X11846372Y-15589908D02*
X11865420Y-15580384D01*
X11865420Y-15580384D02*
X11874944Y-15570860D01*
X11874944Y-15570860D02*
X11884467Y-15551813D01*
X11884467Y-15551813D02*
X11884467Y-15504194D01*
X11884467Y-15504194D02*
X11874944Y-15485146D01*
X11874944Y-15485146D02*
X11865420Y-15475622D01*
X11865420Y-15475622D02*
X11846372Y-15466098D01*
X11846372Y-15466098D02*
X11808277Y-15466098D01*
X11808277Y-15466098D02*
X11789229Y-15475622D01*
X11789229Y-15475622D02*
X11779706Y-15485146D01*
X11779706Y-15485146D02*
X11770182Y-15504194D01*
X12055896Y-15389908D02*
X12017801Y-15389908D01*
X12017801Y-15389908D02*
X11998753Y-15399432D01*
X11998753Y-15399432D02*
X11989229Y-15408956D01*
X11989229Y-15408956D02*
X11970182Y-15437527D01*
X11970182Y-15437527D02*
X11960658Y-15475622D01*
X11960658Y-15475622D02*
X11960658Y-15551813D01*
X11960658Y-15551813D02*
X11970182Y-15570860D01*
X11970182Y-15570860D02*
X11979706Y-15580384D01*
X11979706Y-15580384D02*
X11998753Y-15589908D01*
X11998753Y-15589908D02*
X12036848Y-15589908D01*
X12036848Y-15589908D02*
X12055896Y-15580384D01*
X12055896Y-15580384D02*
X12065420Y-15570860D01*
X12065420Y-15570860D02*
X12074944Y-15551813D01*
X12074944Y-15551813D02*
X12074944Y-15504194D01*
X12074944Y-15504194D02*
X12065420Y-15485146D01*
X12065420Y-15485146D02*
X12055896Y-15475622D01*
X12055896Y-15475622D02*
X12036848Y-15466098D01*
X12036848Y-15466098D02*
X11998753Y-15466098D01*
X11998753Y-15466098D02*
X11979706Y-15475622D01*
X11979706Y-15475622D02*
X11970182Y-15485146D01*
X11970182Y-15485146D02*
X11960658Y-15504194D01*
X12151134Y-15389908D02*
X12151134Y-15428003D01*
X12227325Y-15389908D02*
X12227325Y-15428003D01*
X12522563Y-15666098D02*
X12513039Y-15656575D01*
X12513039Y-15656575D02*
X12493991Y-15628003D01*
X12493991Y-15628003D02*
X12484468Y-15608956D01*
X12484468Y-15608956D02*
X12474944Y-15580384D01*
X12474944Y-15580384D02*
X12465420Y-15532765D01*
X12465420Y-15532765D02*
X12465420Y-15494670D01*
X12465420Y-15494670D02*
X12474944Y-15447051D01*
X12474944Y-15447051D02*
X12484468Y-15418479D01*
X12484468Y-15418479D02*
X12493991Y-15399432D01*
X12493991Y-15399432D02*
X12513039Y-15370860D01*
X12513039Y-15370860D02*
X12522563Y-15361336D01*
X12693991Y-15389908D02*
X12598753Y-15389908D01*
X12598753Y-15389908D02*
X12589229Y-15485146D01*
X12589229Y-15485146D02*
X12598753Y-15475622D01*
X12598753Y-15475622D02*
X12617801Y-15466098D01*
X12617801Y-15466098D02*
X12665420Y-15466098D01*
X12665420Y-15466098D02*
X12684468Y-15475622D01*
X12684468Y-15475622D02*
X12693991Y-15485146D01*
X12693991Y-15485146D02*
X12703515Y-15504194D01*
X12703515Y-15504194D02*
X12703515Y-15551813D01*
X12703515Y-15551813D02*
X12693991Y-15570860D01*
X12693991Y-15570860D02*
X12684468Y-15580384D01*
X12684468Y-15580384D02*
X12665420Y-15589908D01*
X12665420Y-15589908D02*
X12617801Y-15589908D01*
X12617801Y-15589908D02*
X12598753Y-15580384D01*
X12598753Y-15580384D02*
X12589229Y-15570860D01*
X12941610Y-15589908D02*
X12941610Y-15389908D01*
X13027325Y-15589908D02*
X13027325Y-15485146D01*
X13027325Y-15485146D02*
X13017801Y-15466098D01*
X13017801Y-15466098D02*
X12998753Y-15456575D01*
X12998753Y-15456575D02*
X12970182Y-15456575D01*
X12970182Y-15456575D02*
X12951134Y-15466098D01*
X12951134Y-15466098D02*
X12941610Y-15475622D01*
X13151134Y-15589908D02*
X13132087Y-15580384D01*
X13132087Y-15580384D02*
X13122563Y-15570860D01*
X13122563Y-15570860D02*
X13113039Y-15551813D01*
X13113039Y-15551813D02*
X13113039Y-15494670D01*
X13113039Y-15494670D02*
X13122563Y-15475622D01*
X13122563Y-15475622D02*
X13132087Y-15466098D01*
X13132087Y-15466098D02*
X13151134Y-15456575D01*
X13151134Y-15456575D02*
X13179706Y-15456575D01*
X13179706Y-15456575D02*
X13198753Y-15466098D01*
X13198753Y-15466098D02*
X13208277Y-15475622D01*
X13208277Y-15475622D02*
X13217801Y-15494670D01*
X13217801Y-15494670D02*
X13217801Y-15551813D01*
X13217801Y-15551813D02*
X13208277Y-15570860D01*
X13208277Y-15570860D02*
X13198753Y-15580384D01*
X13198753Y-15580384D02*
X13179706Y-15589908D01*
X13179706Y-15589908D02*
X13151134Y-15589908D01*
X13332087Y-15589908D02*
X13313039Y-15580384D01*
X13313039Y-15580384D02*
X13303515Y-15561336D01*
X13303515Y-15561336D02*
X13303515Y-15389908D01*
X13484468Y-15580384D02*
X13465420Y-15589908D01*
X13465420Y-15589908D02*
X13427325Y-15589908D01*
X13427325Y-15589908D02*
X13408277Y-15580384D01*
X13408277Y-15580384D02*
X13398753Y-15561336D01*
X13398753Y-15561336D02*
X13398753Y-15485146D01*
X13398753Y-15485146D02*
X13408277Y-15466098D01*
X13408277Y-15466098D02*
X13427325Y-15456575D01*
X13427325Y-15456575D02*
X13465420Y-15456575D01*
X13465420Y-15456575D02*
X13484468Y-15466098D01*
X13484468Y-15466098D02*
X13493991Y-15485146D01*
X13493991Y-15485146D02*
X13493991Y-15504194D01*
X13493991Y-15504194D02*
X13398753Y-15523241D01*
X13570182Y-15580384D02*
X13589230Y-15589908D01*
X13589230Y-15589908D02*
X13627325Y-15589908D01*
X13627325Y-15589908D02*
X13646372Y-15580384D01*
X13646372Y-15580384D02*
X13655896Y-15561336D01*
X13655896Y-15561336D02*
X13655896Y-15551813D01*
X13655896Y-15551813D02*
X13646372Y-15532765D01*
X13646372Y-15532765D02*
X13627325Y-15523241D01*
X13627325Y-15523241D02*
X13598753Y-15523241D01*
X13598753Y-15523241D02*
X13579706Y-15513717D01*
X13579706Y-15513717D02*
X13570182Y-15494670D01*
X13570182Y-15494670D02*
X13570182Y-15485146D01*
X13570182Y-15485146D02*
X13579706Y-15466098D01*
X13579706Y-15466098D02*
X13598753Y-15456575D01*
X13598753Y-15456575D02*
X13627325Y-15456575D01*
X13627325Y-15456575D02*
X13646372Y-15466098D01*
X13722563Y-15666098D02*
X13732087Y-15656575D01*
X13732087Y-15656575D02*
X13751134Y-15628003D01*
X13751134Y-15628003D02*
X13760658Y-15608956D01*
X13760658Y-15608956D02*
X13770182Y-15580384D01*
X13770182Y-15580384D02*
X13779706Y-15532765D01*
X13779706Y-15532765D02*
X13779706Y-15494670D01*
X13779706Y-15494670D02*
X13770182Y-15447051D01*
X13770182Y-15447051D02*
X13760658Y-15418479D01*
X13760658Y-15418479D02*
X13751134Y-15399432D01*
X13751134Y-15399432D02*
X13732087Y-15370860D01*
X13732087Y-15370860D02*
X13722563Y-15361336D01*
M02*
