  0
SECTION
  2
HEADER
  9
$ANGBASE
  50
0.0
  9
$ANGDIR
  70
1
  9
$MEASUREMENT
  70
1
  0
ENDSEC
  0
SECTION
  2
TABLES
  0
TABLE
  2
LTYPE
  70
4
  0
LTYPE
  5
40F
  2
CONTINUOUS
  70
0
  3
Solid line
  72
65
  73
0
  40
0.0
  0
LTYPE
  5
410
  2
DASHDOT
 70
0
  3
Dash Dot ____ _ ____ _
 72
65
 73
4
 40
2.0
 49
1.25
 49
-0.25
 49
0.25
 49
-0.25
  0
LTYPE
  5
411
  2
DASHED
 70
0
  3
Dashed __ __ __ __ __
 72
65
 73
2
 40
0.75
 49
0.5
 49
-0.25
  0
LTYPE
  5
43B
  2
DOTTED
 70
0
  3
Dotted .  .  .  .
 72
65
 73
2
 40
0.2
 49
0.0
 49
-0.2
  0
ENDTAB
  0
TABLE
  2
STYLE
  70
4
  0
STYLE
  2
KICAD
  70
0
  40
0
  41
1
  42
1
  50
0
  71
0
  3
isocp.shx
  0
STYLE
  2
KICADB
  70
0
  40
0
  41
1
  42
1
  50
0
  71
0
  3
isocp.shx
  0
STYLE
  2
KICADI
  70
0
  40
0
  41
1
  42
1
  50
15
  71
0
  3
isocp.shx
  0
STYLE
  2
KICADBI
  70
0
  40
0
  41
1
  42
1
  50
15
  71
0
  3
isocp.shx
  0
ENDTAB
  0
TABLE
  2
LAYER
  70
1
  0
LAYER
  2
BLACK
  70
0
  62
7
  6
CONTINUOUS
  0
ENDTAB
  0
ENDSEC
  0
SECTION
  2
ENTITIES
0
LINE
8
BLACK
6
CONTINUOUS
10
184.007
20
-112.234
11
184.026
21
-112.236
0
LINE
8
BLACK
6
CONTINUOUS
10
184.026
20
-112.236
11
196.669
21
-118.131
0
LINE
8
BLACK
6
CONTINUOUS
10
196.669
20
-118.131
11
196.677
21
-118.137
0
LINE
8
BLACK
6
CONTINUOUS
10
196.677
20
-118.137
11
196.68
21
-118.138
0
LINE
8
BLACK
6
CONTINUOUS
10
196.68
20
-118.138
11
196.682
21
-118.14
0
LINE
8
BLACK
6
CONTINUOUS
10
196.682
20
-118.14
11
196.69
21
-118.146
0
LINE
8
BLACK
6
CONTINUOUS
10
196.69
20
-118.146
11
196.699
21
-118.164
0
LINE
8
BLACK
6
CONTINUOUS
10
196.699
20
-118.164
11
196.71
21
-118.18
0
LINE
8
BLACK
6
CONTINUOUS
10
196.71
20
-118.18
11
196.709
21
-118.186
0
LINE
8
BLACK
6
CONTINUOUS
10
196.709
20
-118.186
11
196.712
21
-118.193
0
LINE
8
BLACK
6
CONTINUOUS
10
196.712
20
-118.193
11
196.707
21
-118.211
0
LINE
8
BLACK
6
CONTINUOUS
10
196.707
20
-118.211
11
196.705
21
-118.231
0
LINE
8
BLACK
6
CONTINUOUS
10
196.705
20
-118.231
11
190.81
21
-130.874
0
LINE
8
BLACK
6
CONTINUOUS
10
190.81
20
-130.874
11
190.804
21
-130.882
0
LINE
8
BLACK
6
CONTINUOUS
10
190.804
20
-130.882
11
190.803
21
-130.885
0
LINE
8
BLACK
6
CONTINUOUS
10
190.803
20
-130.885
11
190.8
21
-130.887
0
LINE
8
BLACK
6
CONTINUOUS
10
190.8
20
-130.887
11
190.795
21
-130.895
0
LINE
8
BLACK
6
CONTINUOUS
10
190.795
20
-130.895
11
190.777
21
-130.903
0
LINE
8
BLACK
6
CONTINUOUS
10
190.777
20
-130.903
11
190.761
21
-130.915
0
LINE
8
BLACK
6
CONTINUOUS
10
190.761
20
-130.915
11
190.754
21
-130.914
0
LINE
8
BLACK
6
CONTINUOUS
10
190.754
20
-130.914
11
190.748
21
-130.917
0
LINE
8
BLACK
6
CONTINUOUS
10
190.748
20
-130.917
11
190.73
21
-130.912
0
LINE
8
BLACK
6
CONTINUOUS
10
190.73
20
-130.912
11
190.71
21
-130.91
0
LINE
8
BLACK
6
CONTINUOUS
10
190.71
20
-130.91
11
178.067
21
-125.015
0
LINE
8
BLACK
6
CONTINUOUS
10
178.067
20
-125.015
11
178.059
21
-125.009
0
LINE
8
BLACK
6
CONTINUOUS
10
178.059
20
-125.009
11
178.056
21
-125.008
0
LINE
8
BLACK
6
CONTINUOUS
10
178.056
20
-125.008
11
178.054
21
-125.005
0
LINE
8
BLACK
6
CONTINUOUS
10
178.054
20
-125.005
11
178.046
21
-125
0
LINE
8
BLACK
6
CONTINUOUS
10
178.046
20
-125
11
178.038
21
-124.982
0
LINE
8
BLACK
6
CONTINUOUS
10
178.038
20
-124.982
11
178.026
21
-124.966
0
LINE
8
BLACK
6
CONTINUOUS
10
178.026
20
-124.966
11
178.027
21
-124.959
0
LINE
8
BLACK
6
CONTINUOUS
10
178.027
20
-124.959
11
178.024
21
-124.953
0
LINE
8
BLACK
6
CONTINUOUS
10
178.024
20
-124.953
11
178.029
21
-124.934
0
LINE
8
BLACK
6
CONTINUOUS
10
178.029
20
-124.934
11
178.031
21
-124.915
0
LINE
8
BLACK
6
CONTINUOUS
10
178.031
20
-124.915
11
183.926
21
-112.272
0
LINE
8
BLACK
6
CONTINUOUS
10
183.926
20
-112.272
11
183.932
21
-112.264
0
LINE
8
BLACK
6
CONTINUOUS
10
183.932
20
-112.264
11
183.933
21
-112.261
0
LINE
8
BLACK
6
CONTINUOUS
10
183.933
20
-112.261
11
183.936
21
-112.259
0
LINE
8
BLACK
6
CONTINUOUS
10
183.936
20
-112.259
11
183.941
21
-112.251
0
LINE
8
BLACK
6
CONTINUOUS
10
183.941
20
-112.251
11
183.959
21
-112.242
0
LINE
8
BLACK
6
CONTINUOUS
10
183.959
20
-112.242
11
183.975
21
-112.231
0
LINE
8
BLACK
6
CONTINUOUS
10
183.975
20
-112.231
11
183.982
21
-112.232
0
LINE
8
BLACK
6
CONTINUOUS
10
183.982
20
-112.232
11
183.988
21
-112.229
0
LINE
8
BLACK
6
CONTINUOUS
10
183.988
20
-112.229
11
184.007
21
-112.234
0
LINE
8
BLACK
6
CONTINUOUS
10
178.198
20
-124.91
11
190.706
21
-130.742
0
LINE
8
BLACK
6
CONTINUOUS
10
190.706
20
-130.742
11
196.538
21
-118.235
0
LINE
8
BLACK
6
CONTINUOUS
10
196.538
20
-118.235
11
184.031
21
-112.403
0
LINE
8
BLACK
6
CONTINUOUS
10
184.031
20
-112.403
11
178.198
21
-124.91
0
LINE
8
BLACK
6
CONTINUOUS
10
160.068
20
-104.637
11
160.087
21
-104.635
0
LINE
8
BLACK
6
CONTINUOUS
10
160.087
20
-104.635
11
173.562
21
-108.245
0
LINE
8
BLACK
6
CONTINUOUS
10
173.562
20
-108.245
11
173.571
21
-108.25
0
LINE
8
BLACK
6
CONTINUOUS
10
173.571
20
-108.25
11
173.574
21
-108.25
0
LINE
8
BLACK
6
CONTINUOUS
10
173.574
20
-108.25
11
173.577
21
-108.252
0
LINE
8
BLACK
6
CONTINUOUS
10
173.577
20
-108.252
11
173.586
21
-108.256
0
LINE
8
BLACK
6
CONTINUOUS
10
173.586
20
-108.256
11
173.597
21
-108.272
0
LINE
8
BLACK
6
CONTINUOUS
10
173.597
20
-108.272
11
173.611
21
-108.286
0
LINE
8
BLACK
6
CONTINUOUS
10
173.611
20
-108.286
11
173.611
21
-108.293
0
LINE
8
BLACK
6
CONTINUOUS
10
173.611
20
-108.293
11
173.615
21
-108.299
0
LINE
8
BLACK
6
CONTINUOUS
10
173.615
20
-108.299
11
173.613
21
-108.318
0
LINE
8
BLACK
6
CONTINUOUS
10
173.613
20
-108.318
11
173.615
21
-108.337
0
LINE
8
BLACK
6
CONTINUOUS
10
173.615
20
-108.337
11
170.005
21
-121.812
0
LINE
8
BLACK
6
CONTINUOUS
10
170.005
20
-121.812
11
170
21
-121.821
0
LINE
8
BLACK
6
CONTINUOUS
10
170
20
-121.821
11
170
21
-121.824
0
LINE
8
BLACK
6
CONTINUOUS
10
170
20
-121.824
11
169.998
21
-121.827
0
LINE
8
BLACK
6
CONTINUOUS
10
169.998
20
-121.827
11
169.994
21
-121.836
0
LINE
8
BLACK
6
CONTINUOUS
10
169.994
20
-121.836
11
169.978
21
-121.847
0
LINE
8
BLACK
6
CONTINUOUS
10
169.978
20
-121.847
11
169.964
21
-121.861
0
LINE
8
BLACK
6
CONTINUOUS
10
169.964
20
-121.861
11
169.957
21
-121.861
0
LINE
8
BLACK
6
CONTINUOUS
10
169.957
20
-121.861
11
169.951
21
-121.865
0
LINE
8
BLACK
6
CONTINUOUS
10
169.951
20
-121.865
11
169.932
21
-121.863
0
LINE
8
BLACK
6
CONTINUOUS
10
169.932
20
-121.863
11
169.913
21
-121.865
0
LINE
8
BLACK
6
CONTINUOUS
10
169.913
20
-121.865
11
156.438
21
-118.255
0
LINE
8
BLACK
6
CONTINUOUS
10
156.438
20
-118.255
11
156.429
21
-118.25
0
LINE
8
BLACK
6
CONTINUOUS
10
156.429
20
-118.25
11
156.426
21
-118.25
0
LINE
8
BLACK
6
CONTINUOUS
10
156.426
20
-118.25
11
156.423
21
-118.248
0
LINE
8
BLACK
6
CONTINUOUS
10
156.423
20
-118.248
11
156.414
21
-118.244
0
LINE
8
BLACK
6
CONTINUOUS
10
156.414
20
-118.244
11
156.403
21
-118.228
0
LINE
8
BLACK
6
CONTINUOUS
10
156.403
20
-118.228
11
156.389
21
-118.214
0
LINE
8
BLACK
6
CONTINUOUS
10
156.389
20
-118.214
11
156.389
21
-118.207
0
LINE
8
BLACK
6
CONTINUOUS
10
156.389
20
-118.207
11
156.385
21
-118.201
0
LINE
8
BLACK
6
CONTINUOUS
10
156.385
20
-118.201
11
156.387
21
-118.182
0
LINE
8
BLACK
6
CONTINUOUS
10
156.387
20
-118.182
11
156.385
21
-118.163
0
LINE
8
BLACK
6
CONTINUOUS
10
156.385
20
-118.163
11
159.995
21
-104.688
0
LINE
8
BLACK
6
CONTINUOUS
10
159.995
20
-104.688
11
160
21
-104.679
0
LINE
8
BLACK
6
CONTINUOUS
10
160
20
-104.679
11
160
21
-104.676
0
LINE
8
BLACK
6
CONTINUOUS
10
160
20
-104.676
11
160.002
21
-104.673
0
LINE
8
BLACK
6
CONTINUOUS
10
160.002
20
-104.673
11
160.006
21
-104.664
0
LINE
8
BLACK
6
CONTINUOUS
10
160.006
20
-104.664
11
160.022
21
-104.653
0
LINE
8
BLACK
6
CONTINUOUS
10
160.022
20
-104.653
11
160.036
21
-104.639
0
LINE
8
BLACK
6
CONTINUOUS
10
160.036
20
-104.639
11
160.043
21
-104.639
0
LINE
8
BLACK
6
CONTINUOUS
10
160.043
20
-104.639
11
160.049
21
-104.635
0
LINE
8
BLACK
6
CONTINUOUS
10
160.049
20
-104.635
11
160.068
21
-104.637
0
LINE
8
BLACK
6
CONTINUOUS
10
156.549
20
-118.129
11
169.879
21
-121.701
0
LINE
8
BLACK
6
CONTINUOUS
10
169.879
20
-121.701
11
173.451
21
-108.371
0
LINE
8
BLACK
6
CONTINUOUS
10
173.451
20
-108.371
11
160.121
21
-104.799
0
LINE
8
BLACK
6
CONTINUOUS
10
160.121
20
-104.799
11
156.549
21
-118.129
0
LINE
8
BLACK
6
CONTINUOUS
10
106.985
20
-92.9517
11
106.988
21
-92.9511
0
LINE
8
BLACK
6
CONTINUOUS
10
106.988
20
-92.9511
11
106.991
21
-92.9528
0
LINE
8
BLACK
6
CONTINUOUS
10
106.991
20
-92.9528
11
107.001
21
-92.9545
0
LINE
8
BLACK
6
CONTINUOUS
10
107.001
20
-92.9545
11
107.016
21
-92.967
0
LINE
8
BLACK
6
CONTINUOUS
10
107.016
20
-92.967
11
107.032
21
-92.9768
0
LINE
8
BLACK
6
CONTINUOUS
10
107.032
20
-92.9768
11
107.035
21
-92.9831
0
LINE
8
BLACK
6
CONTINUOUS
10
107.035
20
-92.9831
11
107.04
21
-92.9875
0
LINE
8
BLACK
6
CONTINUOUS
10
107.04
20
-92.9875
11
107.043
21
-93.0067
0
LINE
8
BLACK
6
CONTINUOUS
10
107.043
20
-93.0067
11
107.05
21
-93.025
0
LINE
8
BLACK
6
CONTINUOUS
10
107.05
20
-93.025
11
107.05
21
-106.975
0
LINE
8
BLACK
6
CONTINUOUS
10
107.05
20
-106.975
11
107.048
21
-106.985
0
LINE
8
BLACK
6
CONTINUOUS
10
107.048
20
-106.985
11
107.049
21
-106.988
0
LINE
8
BLACK
6
CONTINUOUS
10
107.049
20
-106.988
11
107.047
21
-106.991
0
LINE
8
BLACK
6
CONTINUOUS
10
107.047
20
-106.991
11
107.045
21
-107.001
0
LINE
8
BLACK
6
CONTINUOUS
10
107.045
20
-107.001
11
107.033
21
-107.016
0
LINE
8
BLACK
6
CONTINUOUS
10
107.033
20
-107.016
11
107.023
21
-107.032
0
LINE
8
BLACK
6
CONTINUOUS
10
107.023
20
-107.032
11
107.017
21
-107.035
0
LINE
8
BLACK
6
CONTINUOUS
10
107.017
20
-107.035
11
107.012
21
-107.04
0
LINE
8
BLACK
6
CONTINUOUS
10
107.012
20
-107.04
11
106.993
21
-107.043
0
LINE
8
BLACK
6
CONTINUOUS
10
106.993
20
-107.043
11
106.975
21
-107.05
0
LINE
8
BLACK
6
CONTINUOUS
10
106.975
20
-107.05
11
93.025
21
-107.05
0
LINE
8
BLACK
6
CONTINUOUS
10
93.025
20
-107.05
11
93.0153
21
-107.048
0
LINE
8
BLACK
6
CONTINUOUS
10
93.0153
20
-107.048
11
93.012
21
-107.049
0
LINE
8
BLACK
6
CONTINUOUS
10
93.012
20
-107.049
11
93.0091
21
-107.047
0
LINE
8
BLACK
6
CONTINUOUS
10
93.0091
20
-107.047
11
92.9993
21
-107.045
0
LINE
8
BLACK
6
CONTINUOUS
10
92.9993
20
-107.045
11
92.9844
21
-107.033
0
LINE
8
BLACK
6
CONTINUOUS
10
92.9844
20
-107.033
11
92.9675
21
-107.023
0
LINE
8
BLACK
6
CONTINUOUS
10
92.9675
20
-107.023
11
92.9652
21
-107.017
0
LINE
8
BLACK
6
CONTINUOUS
10
92.9652
20
-107.017
11
92.96
21
-107.012
0
LINE
8
BLACK
6
CONTINUOUS
10
92.96
20
-107.012
11
92.9567
21
-106.993
0
LINE
8
BLACK
6
CONTINUOUS
10
92.9567
20
-106.993
11
92.95
21
-106.975
0
LINE
8
BLACK
6
CONTINUOUS
10
92.95
20
-106.975
11
92.95
21
-93.025
0
LINE
8
BLACK
6
CONTINUOUS
10
92.95
20
-93.025
11
92.9517
21
-93.0153
0
LINE
8
BLACK
6
CONTINUOUS
10
92.9517
20
-93.0153
11
92.9511
21
-93.012
0
LINE
8
BLACK
6
CONTINUOUS
10
92.9511
20
-93.012
11
92.9528
21
-93.0091
0
LINE
8
BLACK
6
CONTINUOUS
10
92.9528
20
-93.0091
11
92.9545
21
-92.9993
0
LINE
8
BLACK
6
CONTINUOUS
10
92.9545
20
-92.9993
11
92.967
21
-92.9844
0
LINE
8
BLACK
6
CONTINUOUS
10
92.967
20
-92.9844
11
92.9768
21
-92.9675
0
LINE
8
BLACK
6
CONTINUOUS
10
92.9768
20
-92.9675
11
92.9831
21
-92.9652
0
LINE
8
BLACK
6
CONTINUOUS
10
92.9831
20
-92.9652
11
92.9875
21
-92.96
0
LINE
8
BLACK
6
CONTINUOUS
10
92.9875
20
-92.96
11
93.0067
21
-92.9567
0
LINE
8
BLACK
6
CONTINUOUS
10
93.0067
20
-92.9567
11
93.025
21
-92.95
0
LINE
8
BLACK
6
CONTINUOUS
10
93.025
20
-92.95
11
106.975
21
-92.95
0
LINE
8
BLACK
6
CONTINUOUS
10
106.975
20
-92.95
11
106.985
21
-92.9517
0
LINE
8
BLACK
6
CONTINUOUS
10
93.1
20
-93.1
11
93.1
21
-106.9
0
LINE
8
BLACK
6
CONTINUOUS
10
93.1
20
-106.9
11
106.9
21
-106.9
0
LINE
8
BLACK
6
CONTINUOUS
10
106.9
20
-106.9
11
106.9
21
-93.1
0
LINE
8
BLACK
6
CONTINUOUS
10
106.9
20
-93.1
11
93.1
21
-93.1
0
LINE
8
BLACK
6
CONTINUOUS
10
184.568
20
-99.0924
11
184.55
21
-99.05
0
LINE
8
BLACK
6
CONTINUOUS
10
184.55
20
-99.05
11
184.55
21
-95.32
0
LINE
8
BLACK
6
CONTINUOUS
10
184.55
20
-95.32
11
184.568
21
-95.2776
0
LINE
8
BLACK
6
CONTINUOUS
10
184.568
20
-95.2776
11
184.61
21
-95.26
0
LINE
8
BLACK
6
CONTINUOUS
10
184.61
20
-95.26
11
198.48
21
-95.26
0
LINE
8
BLACK
6
CONTINUOUS
10
198.48
20
-95.26
11
198.522
21
-95.2776
0
LINE
8
BLACK
6
CONTINUOUS
10
198.522
20
-95.2776
11
198.54
21
-95.32
0
LINE
8
BLACK
6
CONTINUOUS
10
198.54
20
-95.32
11
198.54
21
-99.05
0
LINE
8
BLACK
6
CONTINUOUS
10
198.54
20
-99.05
11
198.522
21
-99.0924
0
LINE
8
BLACK
6
CONTINUOUS
10
198.522
20
-99.0924
11
198.48
21
-99.11
0
LINE
8
BLACK
6
CONTINUOUS
10
198.48
20
-99.11
11
184.61
21
-99.11
0
LINE
8
BLACK
6
CONTINUOUS
10
184.61
20
-99.11
11
184.568
21
-99.0924
0
LINE
8
BLACK
6
CONTINUOUS
10
184.67
20
-95.38
11
184.67
21
-98.99
0
LINE
8
BLACK
6
CONTINUOUS
10
184.67
20
-98.99
11
198.42
21
-98.99
0
LINE
8
BLACK
6
CONTINUOUS
10
198.42
20
-98.99
11
198.42
21
-95.38
0
LINE
8
BLACK
6
CONTINUOUS
10
198.42
20
-95.38
11
184.67
21
-95.38
0
LINE
8
BLACK
6
CONTINUOUS
10
178.985
20
-83.9517
11
178.988
21
-83.9511
0
LINE
8
BLACK
6
CONTINUOUS
10
178.988
20
-83.9511
11
178.991
21
-83.9528
0
LINE
8
BLACK
6
CONTINUOUS
10
178.991
20
-83.9528
11
179.001
21
-83.9545
0
LINE
8
BLACK
6
CONTINUOUS
10
179.001
20
-83.9545
11
179.016
21
-83.967
0
LINE
8
BLACK
6
CONTINUOUS
10
179.016
20
-83.967
11
179.032
21
-83.9768
0
LINE
8
BLACK
6
CONTINUOUS
10
179.032
20
-83.9768
11
179.035
21
-83.9831
0
LINE
8
BLACK
6
CONTINUOUS
10
179.035
20
-83.9831
11
179.04
21
-83.9875
0
LINE
8
BLACK
6
CONTINUOUS
10
179.04
20
-83.9875
11
179.043
21
-84.0067
0
LINE
8
BLACK
6
CONTINUOUS
10
179.043
20
-84.0067
11
179.05
21
-84.025
0
LINE
8
BLACK
6
CONTINUOUS
10
179.05
20
-84.025
11
179.05
21
-97.975
0
LINE
8
BLACK
6
CONTINUOUS
10
179.05
20
-97.975
11
179.048
21
-97.9847
0
LINE
8
BLACK
6
CONTINUOUS
10
179.048
20
-97.9847
11
179.049
21
-97.988
0
LINE
8
BLACK
6
CONTINUOUS
10
179.049
20
-97.988
11
179.047
21
-97.9909
0
LINE
8
BLACK
6
CONTINUOUS
10
179.047
20
-97.9909
11
179.045
21
-98.0007
0
LINE
8
BLACK
6
CONTINUOUS
10
179.045
20
-98.0007
11
179.033
21
-98.0156
0
LINE
8
BLACK
6
CONTINUOUS
10
179.033
20
-98.0156
11
179.023
21
-98.0325
0
LINE
8
BLACK
6
CONTINUOUS
10
179.023
20
-98.0325
11
179.017
21
-98.0348
0
LINE
8
BLACK
6
CONTINUOUS
10
179.017
20
-98.0348
11
179.012
21
-98.04
0
LINE
8
BLACK
6
CONTINUOUS
10
179.012
20
-98.04
11
178.993
21
-98.0433
0
LINE
8
BLACK
6
CONTINUOUS
10
178.993
20
-98.0433
11
178.975
21
-98.05
0
LINE
8
BLACK
6
CONTINUOUS
10
178.975
20
-98.05
11
165.025
21
-98.05
0
LINE
8
BLACK
6
CONTINUOUS
10
165.025
20
-98.05
11
165.015
21
-98.0483
0
LINE
8
BLACK
6
CONTINUOUS
10
165.015
20
-98.0483
11
165.012
21
-98.0489
0
LINE
8
BLACK
6
CONTINUOUS
10
165.012
20
-98.0489
11
165.009
21
-98.0472
0
LINE
8
BLACK
6
CONTINUOUS
10
165.009
20
-98.0472
11
164.999
21
-98.0455
0
LINE
8
BLACK
6
CONTINUOUS
10
164.999
20
-98.0455
11
164.984
21
-98.033
0
LINE
8
BLACK
6
CONTINUOUS
10
164.984
20
-98.033
11
164.968
21
-98.0232
0
LINE
8
BLACK
6
CONTINUOUS
10
164.968
20
-98.0232
11
164.965
21
-98.0168
0
LINE
8
BLACK
6
CONTINUOUS
10
164.965
20
-98.0168
11
164.96
21
-98.0125
0
LINE
8
BLACK
6
CONTINUOUS
10
164.96
20
-98.0125
11
164.957
21
-97.9933
0
LINE
8
BLACK
6
CONTINUOUS
10
164.957
20
-97.9933
11
164.95
21
-97.975
0
LINE
8
BLACK
6
CONTINUOUS
10
164.95
20
-97.975
11
164.95
21
-84.025
0
LINE
8
BLACK
6
CONTINUOUS
10
164.95
20
-84.025
11
164.952
21
-84.0153
0
LINE
8
BLACK
6
CONTINUOUS
10
164.952
20
-84.0153
11
164.951
21
-84.012
0
LINE
8
BLACK
6
CONTINUOUS
10
164.951
20
-84.012
11
164.953
21
-84.0091
0
LINE
8
BLACK
6
CONTINUOUS
10
164.953
20
-84.0091
11
164.955
21
-83.9993
0
LINE
8
BLACK
6
CONTINUOUS
10
164.955
20
-83.9993
11
164.967
21
-83.9844
0
LINE
8
BLACK
6
CONTINUOUS
10
164.967
20
-83.9844
11
164.977
21
-83.9675
0
LINE
8
BLACK
6
CONTINUOUS
10
164.977
20
-83.9675
11
164.983
21
-83.9652
0
LINE
8
BLACK
6
CONTINUOUS
10
164.983
20
-83.9652
11
164.987
21
-83.96
0
LINE
8
BLACK
6
CONTINUOUS
10
164.987
20
-83.96
11
165.007
21
-83.9567
0
LINE
8
BLACK
6
CONTINUOUS
10
165.007
20
-83.9567
11
165.025
21
-83.95
0
LINE
8
BLACK
6
CONTINUOUS
10
165.025
20
-83.95
11
178.975
21
-83.95
0
LINE
8
BLACK
6
CONTINUOUS
10
178.975
20
-83.95
11
178.985
21
-83.9517
0
LINE
8
BLACK
6
CONTINUOUS
10
165.1
20
-84.1
11
165.1
21
-97.9
0
LINE
8
BLACK
6
CONTINUOUS
10
165.1
20
-97.9
11
178.9
21
-97.9
0
LINE
8
BLACK
6
CONTINUOUS
10
178.9
20
-97.9
11
178.9
21
-84.1
0
LINE
8
BLACK
6
CONTINUOUS
10
178.9
20
-84.1
11
165.1
21
-84.1
0
LINE
8
BLACK
6
CONTINUOUS
10
160.985
20
-80.9517
11
160.988
21
-80.9511
0
LINE
8
BLACK
6
CONTINUOUS
10
160.988
20
-80.9511
11
160.991
21
-80.9528
0
LINE
8
BLACK
6
CONTINUOUS
10
160.991
20
-80.9528
11
161.001
21
-80.9545
0
LINE
8
BLACK
6
CONTINUOUS
10
161.001
20
-80.9545
11
161.016
21
-80.967
0
LINE
8
BLACK
6
CONTINUOUS
10
161.016
20
-80.967
11
161.032
21
-80.9768
0
LINE
8
BLACK
6
CONTINUOUS
10
161.032
20
-80.9768
11
161.035
21
-80.9831
0
LINE
8
BLACK
6
CONTINUOUS
10
161.035
20
-80.9831
11
161.04
21
-80.9875
0
LINE
8
BLACK
6
CONTINUOUS
10
161.04
20
-80.9875
11
161.043
21
-81.0067
0
LINE
8
BLACK
6
CONTINUOUS
10
161.043
20
-81.0067
11
161.05
21
-81.025
0
LINE
8
BLACK
6
CONTINUOUS
10
161.05
20
-81.025
11
161.05
21
-94.975
0
LINE
8
BLACK
6
CONTINUOUS
10
161.05
20
-94.975
11
161.048
21
-94.9847
0
LINE
8
BLACK
6
CONTINUOUS
10
161.048
20
-94.9847
11
161.049
21
-94.988
0
LINE
8
BLACK
6
CONTINUOUS
10
161.049
20
-94.988
11
161.047
21
-94.9909
0
LINE
8
BLACK
6
CONTINUOUS
10
161.047
20
-94.9909
11
161.045
21
-95.0007
0
LINE
8
BLACK
6
CONTINUOUS
10
161.045
20
-95.0007
11
161.033
21
-95.0156
0
LINE
8
BLACK
6
CONTINUOUS
10
161.033
20
-95.0156
11
161.023
21
-95.0325
0
LINE
8
BLACK
6
CONTINUOUS
10
161.023
20
-95.0325
11
161.017
21
-95.0348
0
LINE
8
BLACK
6
CONTINUOUS
10
161.017
20
-95.0348
11
161.012
21
-95.04
0
LINE
8
BLACK
6
CONTINUOUS
10
161.012
20
-95.04
11
160.993
21
-95.0433
0
LINE
8
BLACK
6
CONTINUOUS
10
160.993
20
-95.0433
11
160.975
21
-95.05
0
LINE
8
BLACK
6
CONTINUOUS
10
160.975
20
-95.05
11
147.025
21
-95.05
0
LINE
8
BLACK
6
CONTINUOUS
10
147.025
20
-95.05
11
147.015
21
-95.0483
0
LINE
8
BLACK
6
CONTINUOUS
10
147.015
20
-95.0483
11
147.012
21
-95.0489
0
LINE
8
BLACK
6
CONTINUOUS
10
147.012
20
-95.0489
11
147.009
21
-95.0472
0
LINE
8
BLACK
6
CONTINUOUS
10
147.009
20
-95.0472
11
146.999
21
-95.0455
0
LINE
8
BLACK
6
CONTINUOUS
10
146.999
20
-95.0455
11
146.984
21
-95.033
0
LINE
8
BLACK
6
CONTINUOUS
10
146.984
20
-95.033
11
146.968
21
-95.0232
0
LINE
8
BLACK
6
CONTINUOUS
10
146.968
20
-95.0232
11
146.965
21
-95.0168
0
LINE
8
BLACK
6
CONTINUOUS
10
146.965
20
-95.0168
11
146.96
21
-95.0125
0
LINE
8
BLACK
6
CONTINUOUS
10
146.96
20
-95.0125
11
146.957
21
-94.9933
0
LINE
8
BLACK
6
CONTINUOUS
10
146.957
20
-94.9933
11
146.95
21
-94.975
0
LINE
8
BLACK
6
CONTINUOUS
10
146.95
20
-94.975
11
146.95
21
-81.025
0
LINE
8
BLACK
6
CONTINUOUS
10
146.95
20
-81.025
11
146.952
21
-81.0153
0
LINE
8
BLACK
6
CONTINUOUS
10
146.952
20
-81.0153
11
146.951
21
-81.012
0
LINE
8
BLACK
6
CONTINUOUS
10
146.951
20
-81.012
11
146.953
21
-81.0091
0
LINE
8
BLACK
6
CONTINUOUS
10
146.953
20
-81.0091
11
146.955
21
-80.9993
0
LINE
8
BLACK
6
CONTINUOUS
10
146.955
20
-80.9993
11
146.967
21
-80.9844
0
LINE
8
BLACK
6
CONTINUOUS
10
146.967
20
-80.9844
11
146.977
21
-80.9675
0
LINE
8
BLACK
6
CONTINUOUS
10
146.977
20
-80.9675
11
146.983
21
-80.9652
0
LINE
8
BLACK
6
CONTINUOUS
10
146.983
20
-80.9652
11
146.987
21
-80.96
0
LINE
8
BLACK
6
CONTINUOUS
10
146.987
20
-80.96
11
147.007
21
-80.9567
0
LINE
8
BLACK
6
CONTINUOUS
10
147.007
20
-80.9567
11
147.025
21
-80.95
0
LINE
8
BLACK
6
CONTINUOUS
10
147.025
20
-80.95
11
160.975
21
-80.95
0
LINE
8
BLACK
6
CONTINUOUS
10
160.975
20
-80.95
11
160.985
21
-80.9517
0
LINE
8
BLACK
6
CONTINUOUS
10
147.1
20
-81.1
11
147.1
21
-94.9
0
LINE
8
BLACK
6
CONTINUOUS
10
147.1
20
-94.9
11
160.9
21
-94.9
0
LINE
8
BLACK
6
CONTINUOUS
10
160.9
20
-94.9
11
160.9
21
-81.1
0
LINE
8
BLACK
6
CONTINUOUS
10
160.9
20
-81.1
11
147.1
21
-81.1
0
LINE
8
BLACK
6
CONTINUOUS
10
124.985
20
-80.9517
11
124.988
21
-80.9511
0
LINE
8
BLACK
6
CONTINUOUS
10
124.988
20
-80.9511
11
124.991
21
-80.9528
0
LINE
8
BLACK
6
CONTINUOUS
10
124.991
20
-80.9528
11
125.001
21
-80.9545
0
LINE
8
BLACK
6
CONTINUOUS
10
125.001
20
-80.9545
11
125.016
21
-80.967
0
LINE
8
BLACK
6
CONTINUOUS
10
125.016
20
-80.967
11
125.032
21
-80.9768
0
LINE
8
BLACK
6
CONTINUOUS
10
125.032
20
-80.9768
11
125.035
21
-80.9831
0
LINE
8
BLACK
6
CONTINUOUS
10
125.035
20
-80.9831
11
125.04
21
-80.9875
0
LINE
8
BLACK
6
CONTINUOUS
10
125.04
20
-80.9875
11
125.043
21
-81.0067
0
LINE
8
BLACK
6
CONTINUOUS
10
125.043
20
-81.0067
11
125.05
21
-81.025
0
LINE
8
BLACK
6
CONTINUOUS
10
125.05
20
-81.025
11
125.05
21
-94.975
0
LINE
8
BLACK
6
CONTINUOUS
10
125.05
20
-94.975
11
125.048
21
-94.9847
0
LINE
8
BLACK
6
CONTINUOUS
10
125.048
20
-94.9847
11
125.049
21
-94.988
0
LINE
8
BLACK
6
CONTINUOUS
10
125.049
20
-94.988
11
125.047
21
-94.9909
0
LINE
8
BLACK
6
CONTINUOUS
10
125.047
20
-94.9909
11
125.045
21
-95.0007
0
LINE
8
BLACK
6
CONTINUOUS
10
125.045
20
-95.0007
11
125.033
21
-95.0156
0
LINE
8
BLACK
6
CONTINUOUS
10
125.033
20
-95.0156
11
125.023
21
-95.0325
0
LINE
8
BLACK
6
CONTINUOUS
10
125.023
20
-95.0325
11
125.017
21
-95.0348
0
LINE
8
BLACK
6
CONTINUOUS
10
125.017
20
-95.0348
11
125.012
21
-95.04
0
LINE
8
BLACK
6
CONTINUOUS
10
125.012
20
-95.04
11
124.993
21
-95.0433
0
LINE
8
BLACK
6
CONTINUOUS
10
124.993
20
-95.0433
11
124.975
21
-95.05
0
LINE
8
BLACK
6
CONTINUOUS
10
124.975
20
-95.05
11
111.025
21
-95.05
0
LINE
8
BLACK
6
CONTINUOUS
10
111.025
20
-95.05
11
111.015
21
-95.0483
0
LINE
8
BLACK
6
CONTINUOUS
10
111.015
20
-95.0483
11
111.012
21
-95.0489
0
LINE
8
BLACK
6
CONTINUOUS
10
111.012
20
-95.0489
11
111.009
21
-95.0472
0
LINE
8
BLACK
6
CONTINUOUS
10
111.009
20
-95.0472
11
110.999
21
-95.0455
0
LINE
8
BLACK
6
CONTINUOUS
10
110.999
20
-95.0455
11
110.984
21
-95.033
0
LINE
8
BLACK
6
CONTINUOUS
10
110.984
20
-95.033
11
110.968
21
-95.0232
0
LINE
8
BLACK
6
CONTINUOUS
10
110.968
20
-95.0232
11
110.965
21
-95.0168
0
LINE
8
BLACK
6
CONTINUOUS
10
110.965
20
-95.0168
11
110.96
21
-95.0125
0
LINE
8
BLACK
6
CONTINUOUS
10
110.96
20
-95.0125
11
110.957
21
-94.9933
0
LINE
8
BLACK
6
CONTINUOUS
10
110.957
20
-94.9933
11
110.95
21
-94.975
0
LINE
8
BLACK
6
CONTINUOUS
10
110.95
20
-94.975
11
110.95
21
-81.025
0
LINE
8
BLACK
6
CONTINUOUS
10
110.95
20
-81.025
11
110.952
21
-81.0153
0
LINE
8
BLACK
6
CONTINUOUS
10
110.952
20
-81.0153
11
110.951
21
-81.012
0
LINE
8
BLACK
6
CONTINUOUS
10
110.951
20
-81.012
11
110.953
21
-81.0091
0
LINE
8
BLACK
6
CONTINUOUS
10
110.953
20
-81.0091
11
110.955
21
-80.9993
0
LINE
8
BLACK
6
CONTINUOUS
10
110.955
20
-80.9993
11
110.967
21
-80.9844
0
LINE
8
BLACK
6
CONTINUOUS
10
110.967
20
-80.9844
11
110.977
21
-80.9675
0
LINE
8
BLACK
6
CONTINUOUS
10
110.977
20
-80.9675
11
110.983
21
-80.9652
0
LINE
8
BLACK
6
CONTINUOUS
10
110.983
20
-80.9652
11
110.987
21
-80.96
0
LINE
8
BLACK
6
CONTINUOUS
10
110.987
20
-80.96
11
111.007
21
-80.9567
0
LINE
8
BLACK
6
CONTINUOUS
10
111.007
20
-80.9567
11
111.025
21
-80.95
0
LINE
8
BLACK
6
CONTINUOUS
10
111.025
20
-80.95
11
124.975
21
-80.95
0
LINE
8
BLACK
6
CONTINUOUS
10
124.975
20
-80.95
11
124.985
21
-80.9517
0
LINE
8
BLACK
6
CONTINUOUS
10
111.1
20
-81.1
11
111.1
21
-94.9
0
LINE
8
BLACK
6
CONTINUOUS
10
111.1
20
-94.9
11
124.9
21
-94.9
0
LINE
8
BLACK
6
CONTINUOUS
10
124.9
20
-94.9
11
124.9
21
-81.1
0
LINE
8
BLACK
6
CONTINUOUS
10
124.9
20
-81.1
11
111.1
21
-81.1
0
LINE
8
BLACK
6
CONTINUOUS
10
106.985
20
-75.9517
11
106.988
21
-75.9511
0
LINE
8
BLACK
6
CONTINUOUS
10
106.988
20
-75.9511
11
106.991
21
-75.9528
0
LINE
8
BLACK
6
CONTINUOUS
10
106.991
20
-75.9528
11
107.001
21
-75.9545
0
LINE
8
BLACK
6
CONTINUOUS
10
107.001
20
-75.9545
11
107.016
21
-75.967
0
LINE
8
BLACK
6
CONTINUOUS
10
107.016
20
-75.967
11
107.032
21
-75.9768
0
LINE
8
BLACK
6
CONTINUOUS
10
107.032
20
-75.9768
11
107.035
21
-75.9831
0
LINE
8
BLACK
6
CONTINUOUS
10
107.035
20
-75.9831
11
107.04
21
-75.9875
0
LINE
8
BLACK
6
CONTINUOUS
10
107.04
20
-75.9875
11
107.043
21
-76.0067
0
LINE
8
BLACK
6
CONTINUOUS
10
107.043
20
-76.0067
11
107.05
21
-76.025
0
LINE
8
BLACK
6
CONTINUOUS
10
107.05
20
-76.025
11
107.05
21
-89.975
0
LINE
8
BLACK
6
CONTINUOUS
10
107.05
20
-89.975
11
107.048
21
-89.9847
0
LINE
8
BLACK
6
CONTINUOUS
10
107.048
20
-89.9847
11
107.049
21
-89.988
0
LINE
8
BLACK
6
CONTINUOUS
10
107.049
20
-89.988
11
107.047
21
-89.9909
0
LINE
8
BLACK
6
CONTINUOUS
10
107.047
20
-89.9909
11
107.045
21
-90.0007
0
LINE
8
BLACK
6
CONTINUOUS
10
107.045
20
-90.0007
11
107.033
21
-90.0156
0
LINE
8
BLACK
6
CONTINUOUS
10
107.033
20
-90.0156
11
107.023
21
-90.0325
0
LINE
8
BLACK
6
CONTINUOUS
10
107.023
20
-90.0325
11
107.017
21
-90.0348
0
LINE
8
BLACK
6
CONTINUOUS
10
107.017
20
-90.0348
11
107.012
21
-90.04
0
LINE
8
BLACK
6
CONTINUOUS
10
107.012
20
-90.04
11
106.993
21
-90.0433
0
LINE
8
BLACK
6
CONTINUOUS
10
106.993
20
-90.0433
11
106.975
21
-90.05
0
LINE
8
BLACK
6
CONTINUOUS
10
106.975
20
-90.05
11
93.025
21
-90.05
0
LINE
8
BLACK
6
CONTINUOUS
10
93.025
20
-90.05
11
93.0153
21
-90.0483
0
LINE
8
BLACK
6
CONTINUOUS
10
93.0153
20
-90.0483
11
93.012
21
-90.0489
0
LINE
8
BLACK
6
CONTINUOUS
10
93.012
20
-90.0489
11
93.0091
21
-90.0472
0
LINE
8
BLACK
6
CONTINUOUS
10
93.0091
20
-90.0472
11
92.9993
21
-90.0455
0
LINE
8
BLACK
6
CONTINUOUS
10
92.9993
20
-90.0455
11
92.9844
21
-90.033
0
LINE
8
BLACK
6
CONTINUOUS
10
92.9844
20
-90.033
11
92.9675
21
-90.0232
0
LINE
8
BLACK
6
CONTINUOUS
10
92.9675
20
-90.0232
11
92.9652
21
-90.0168
0
LINE
8
BLACK
6
CONTINUOUS
10
92.9652
20
-90.0168
11
92.96
21
-90.0125
0
LINE
8
BLACK
6
CONTINUOUS
10
92.96
20
-90.0125
11
92.9567
21
-89.9933
0
LINE
8
BLACK
6
CONTINUOUS
10
92.9567
20
-89.9933
11
92.95
21
-89.975
0
LINE
8
BLACK
6
CONTINUOUS
10
92.95
20
-89.975
11
92.95
21
-76.025
0
LINE
8
BLACK
6
CONTINUOUS
10
92.95
20
-76.025
11
92.9517
21
-76.0153
0
LINE
8
BLACK
6
CONTINUOUS
10
92.9517
20
-76.0153
11
92.9511
21
-76.012
0
LINE
8
BLACK
6
CONTINUOUS
10
92.9511
20
-76.012
11
92.9528
21
-76.0091
0
LINE
8
BLACK
6
CONTINUOUS
10
92.9528
20
-76.0091
11
92.9545
21
-75.9993
0
LINE
8
BLACK
6
CONTINUOUS
10
92.9545
20
-75.9993
11
92.967
21
-75.9844
0
LINE
8
BLACK
6
CONTINUOUS
10
92.967
20
-75.9844
11
92.9768
21
-75.9675
0
LINE
8
BLACK
6
CONTINUOUS
10
92.9768
20
-75.9675
11
92.9831
21
-75.9652
0
LINE
8
BLACK
6
CONTINUOUS
10
92.9831
20
-75.9652
11
92.9875
21
-75.96
0
LINE
8
BLACK
6
CONTINUOUS
10
92.9875
20
-75.96
11
93.0067
21
-75.9567
0
LINE
8
BLACK
6
CONTINUOUS
10
93.0067
20
-75.9567
11
93.025
21
-75.95
0
LINE
8
BLACK
6
CONTINUOUS
10
93.025
20
-75.95
11
106.975
21
-75.95
0
LINE
8
BLACK
6
CONTINUOUS
10
106.975
20
-75.95
11
106.985
21
-75.9517
0
LINE
8
BLACK
6
CONTINUOUS
10
93.1
20
-76.1
11
93.1
21
-89.9
0
LINE
8
BLACK
6
CONTINUOUS
10
93.1
20
-89.9
11
106.9
21
-89.9
0
LINE
8
BLACK
6
CONTINUOUS
10
106.9
20
-89.9
11
106.9
21
-76.1
0
LINE
8
BLACK
6
CONTINUOUS
10
106.9
20
-76.1
11
93.1
21
-76.1
0
LINE
8
BLACK
6
CONTINUOUS
10
142.985
20
-74.9517
11
142.988
21
-74.9511
0
LINE
8
BLACK
6
CONTINUOUS
10
142.988
20
-74.9511
11
142.991
21
-74.9528
0
LINE
8
BLACK
6
CONTINUOUS
10
142.991
20
-74.9528
11
143.001
21
-74.9545
0
LINE
8
BLACK
6
CONTINUOUS
10
143.001
20
-74.9545
11
143.016
21
-74.967
0
LINE
8
BLACK
6
CONTINUOUS
10
143.016
20
-74.967
11
143.032
21
-74.9768
0
LINE
8
BLACK
6
CONTINUOUS
10
143.032
20
-74.9768
11
143.035
21
-74.9831
0
LINE
8
BLACK
6
CONTINUOUS
10
143.035
20
-74.9831
11
143.04
21
-74.9875
0
LINE
8
BLACK
6
CONTINUOUS
10
143.04
20
-74.9875
11
143.043
21
-75.0067
0
LINE
8
BLACK
6
CONTINUOUS
10
143.043
20
-75.0067
11
143.05
21
-75.025
0
LINE
8
BLACK
6
CONTINUOUS
10
143.05
20
-75.025
11
143.05
21
-88.975
0
LINE
8
BLACK
6
CONTINUOUS
10
143.05
20
-88.975
11
143.048
21
-88.9847
0
LINE
8
BLACK
6
CONTINUOUS
10
143.048
20
-88.9847
11
143.049
21
-88.988
0
LINE
8
BLACK
6
CONTINUOUS
10
143.049
20
-88.988
11
143.047
21
-88.9909
0
LINE
8
BLACK
6
CONTINUOUS
10
143.047
20
-88.9909
11
143.045
21
-89.0007
0
LINE
8
BLACK
6
CONTINUOUS
10
143.045
20
-89.0007
11
143.033
21
-89.0156
0
LINE
8
BLACK
6
CONTINUOUS
10
143.033
20
-89.0156
11
143.023
21
-89.0325
0
LINE
8
BLACK
6
CONTINUOUS
10
143.023
20
-89.0325
11
143.017
21
-89.0348
0
LINE
8
BLACK
6
CONTINUOUS
10
143.017
20
-89.0348
11
143.012
21
-89.04
0
LINE
8
BLACK
6
CONTINUOUS
10
143.012
20
-89.04
11
142.993
21
-89.0433
0
LINE
8
BLACK
6
CONTINUOUS
10
142.993
20
-89.0433
11
142.975
21
-89.05
0
LINE
8
BLACK
6
CONTINUOUS
10
142.975
20
-89.05
11
129.025
21
-89.05
0
LINE
8
BLACK
6
CONTINUOUS
10
129.025
20
-89.05
11
129.015
21
-89.0483
0
LINE
8
BLACK
6
CONTINUOUS
10
129.015
20
-89.0483
11
129.012
21
-89.0489
0
LINE
8
BLACK
6
CONTINUOUS
10
129.012
20
-89.0489
11
129.009
21
-89.0472
0
LINE
8
BLACK
6
CONTINUOUS
10
129.009
20
-89.0472
11
128.999
21
-89.0455
0
LINE
8
BLACK
6
CONTINUOUS
10
128.999
20
-89.0455
11
128.984
21
-89.033
0
LINE
8
BLACK
6
CONTINUOUS
10
128.984
20
-89.033
11
128.968
21
-89.0232
0
LINE
8
BLACK
6
CONTINUOUS
10
128.968
20
-89.0232
11
128.965
21
-89.0168
0
LINE
8
BLACK
6
CONTINUOUS
10
128.965
20
-89.0168
11
128.96
21
-89.0125
0
LINE
8
BLACK
6
CONTINUOUS
10
128.96
20
-89.0125
11
128.957
21
-88.9933
0
LINE
8
BLACK
6
CONTINUOUS
10
128.957
20
-88.9933
11
128.95
21
-88.975
0
LINE
8
BLACK
6
CONTINUOUS
10
128.95
20
-88.975
11
128.95
21
-75.025
0
LINE
8
BLACK
6
CONTINUOUS
10
128.95
20
-75.025
11
128.952
21
-75.0153
0
LINE
8
BLACK
6
CONTINUOUS
10
128.952
20
-75.0153
11
128.951
21
-75.012
0
LINE
8
BLACK
6
CONTINUOUS
10
128.951
20
-75.012
11
128.953
21
-75.0091
0
LINE
8
BLACK
6
CONTINUOUS
10
128.953
20
-75.0091
11
128.955
21
-74.9993
0
LINE
8
BLACK
6
CONTINUOUS
10
128.955
20
-74.9993
11
128.967
21
-74.9844
0
LINE
8
BLACK
6
CONTINUOUS
10
128.967
20
-74.9844
11
128.977
21
-74.9675
0
LINE
8
BLACK
6
CONTINUOUS
10
128.977
20
-74.9675
11
128.983
21
-74.9652
0
LINE
8
BLACK
6
CONTINUOUS
10
128.983
20
-74.9652
11
128.987
21
-74.96
0
LINE
8
BLACK
6
CONTINUOUS
10
128.987
20
-74.96
11
129.007
21
-74.9567
0
LINE
8
BLACK
6
CONTINUOUS
10
129.007
20
-74.9567
11
129.025
21
-74.95
0
LINE
8
BLACK
6
CONTINUOUS
10
129.025
20
-74.95
11
142.975
21
-74.95
0
LINE
8
BLACK
6
CONTINUOUS
10
142.975
20
-74.95
11
142.985
21
-74.9517
0
LINE
8
BLACK
6
CONTINUOUS
10
129.1
20
-75.1
11
129.1
21
-88.9
0
LINE
8
BLACK
6
CONTINUOUS
10
129.1
20
-88.9
11
142.9
21
-88.9
0
LINE
8
BLACK
6
CONTINUOUS
10
142.9
20
-88.9
11
142.9
21
-75.1
0
LINE
8
BLACK
6
CONTINUOUS
10
142.9
20
-75.1
11
129.1
21
-75.1
0
LINE
8
BLACK
6
CONTINUOUS
10
178.985
20
-66.9517
11
178.988
21
-66.9511
0
LINE
8
BLACK
6
CONTINUOUS
10
178.988
20
-66.9511
11
178.991
21
-66.9528
0
LINE
8
BLACK
6
CONTINUOUS
10
178.991
20
-66.9528
11
179.001
21
-66.9545
0
LINE
8
BLACK
6
CONTINUOUS
10
179.001
20
-66.9545
11
179.016
21
-66.967
0
LINE
8
BLACK
6
CONTINUOUS
10
179.016
20
-66.967
11
179.032
21
-66.9768
0
LINE
8
BLACK
6
CONTINUOUS
10
179.032
20
-66.9768
11
179.035
21
-66.9831
0
LINE
8
BLACK
6
CONTINUOUS
10
179.035
20
-66.9831
11
179.04
21
-66.9875
0
LINE
8
BLACK
6
CONTINUOUS
10
179.04
20
-66.9875
11
179.043
21
-67.0067
0
LINE
8
BLACK
6
CONTINUOUS
10
179.043
20
-67.0067
11
179.05
21
-67.025
0
LINE
8
BLACK
6
CONTINUOUS
10
179.05
20
-67.025
11
179.05
21
-80.975
0
LINE
8
BLACK
6
CONTINUOUS
10
179.05
20
-80.975
11
179.048
21
-80.9847
0
LINE
8
BLACK
6
CONTINUOUS
10
179.048
20
-80.9847
11
179.049
21
-80.988
0
LINE
8
BLACK
6
CONTINUOUS
10
179.049
20
-80.988
11
179.047
21
-80.9909
0
LINE
8
BLACK
6
CONTINUOUS
10
179.047
20
-80.9909
11
179.045
21
-81.0007
0
LINE
8
BLACK
6
CONTINUOUS
10
179.045
20
-81.0007
11
179.033
21
-81.0156
0
LINE
8
BLACK
6
CONTINUOUS
10
179.033
20
-81.0156
11
179.023
21
-81.0325
0
LINE
8
BLACK
6
CONTINUOUS
10
179.023
20
-81.0325
11
179.017
21
-81.0348
0
LINE
8
BLACK
6
CONTINUOUS
10
179.017
20
-81.0348
11
179.012
21
-81.04
0
LINE
8
BLACK
6
CONTINUOUS
10
179.012
20
-81.04
11
178.993
21
-81.0433
0
LINE
8
BLACK
6
CONTINUOUS
10
178.993
20
-81.0433
11
178.975
21
-81.05
0
LINE
8
BLACK
6
CONTINUOUS
10
178.975
20
-81.05
11
165.025
21
-81.05
0
LINE
8
BLACK
6
CONTINUOUS
10
165.025
20
-81.05
11
165.015
21
-81.0483
0
LINE
8
BLACK
6
CONTINUOUS
10
165.015
20
-81.0483
11
165.012
21
-81.0489
0
LINE
8
BLACK
6
CONTINUOUS
10
165.012
20
-81.0489
11
165.009
21
-81.0472
0
LINE
8
BLACK
6
CONTINUOUS
10
165.009
20
-81.0472
11
164.999
21
-81.0455
0
LINE
8
BLACK
6
CONTINUOUS
10
164.999
20
-81.0455
11
164.984
21
-81.033
0
LINE
8
BLACK
6
CONTINUOUS
10
164.984
20
-81.033
11
164.968
21
-81.0232
0
LINE
8
BLACK
6
CONTINUOUS
10
164.968
20
-81.0232
11
164.965
21
-81.0168
0
LINE
8
BLACK
6
CONTINUOUS
10
164.965
20
-81.0168
11
164.96
21
-81.0125
0
LINE
8
BLACK
6
CONTINUOUS
10
164.96
20
-81.0125
11
164.957
21
-80.9933
0
LINE
8
BLACK
6
CONTINUOUS
10
164.957
20
-80.9933
11
164.95
21
-80.975
0
LINE
8
BLACK
6
CONTINUOUS
10
164.95
20
-80.975
11
164.95
21
-67.025
0
LINE
8
BLACK
6
CONTINUOUS
10
164.95
20
-67.025
11
164.952
21
-67.0153
0
LINE
8
BLACK
6
CONTINUOUS
10
164.952
20
-67.0153
11
164.951
21
-67.012
0
LINE
8
BLACK
6
CONTINUOUS
10
164.951
20
-67.012
11
164.953
21
-67.0091
0
LINE
8
BLACK
6
CONTINUOUS
10
164.953
20
-67.0091
11
164.955
21
-66.9993
0
LINE
8
BLACK
6
CONTINUOUS
10
164.955
20
-66.9993
11
164.967
21
-66.9844
0
LINE
8
BLACK
6
CONTINUOUS
10
164.967
20
-66.9844
11
164.977
21
-66.9675
0
LINE
8
BLACK
6
CONTINUOUS
10
164.977
20
-66.9675
11
164.983
21
-66.9652
0
LINE
8
BLACK
6
CONTINUOUS
10
164.983
20
-66.9652
11
164.987
21
-66.96
0
LINE
8
BLACK
6
CONTINUOUS
10
164.987
20
-66.96
11
165.007
21
-66.9567
0
LINE
8
BLACK
6
CONTINUOUS
10
165.007
20
-66.9567
11
165.025
21
-66.95
0
LINE
8
BLACK
6
CONTINUOUS
10
165.025
20
-66.95
11
178.975
21
-66.95
0
LINE
8
BLACK
6
CONTINUOUS
10
178.975
20
-66.95
11
178.985
21
-66.9517
0
LINE
8
BLACK
6
CONTINUOUS
10
165.1
20
-67.1
11
165.1
21
-80.9
0
LINE
8
BLACK
6
CONTINUOUS
10
165.1
20
-80.9
11
178.9
21
-80.9
0
LINE
8
BLACK
6
CONTINUOUS
10
178.9
20
-80.9
11
178.9
21
-67.1
0
LINE
8
BLACK
6
CONTINUOUS
10
178.9
20
-67.1
11
165.1
21
-67.1
0
LINE
8
BLACK
6
CONTINUOUS
10
160.985
20
-63.9517
11
160.988
21
-63.9511
0
LINE
8
BLACK
6
CONTINUOUS
10
160.988
20
-63.9511
11
160.991
21
-63.9528
0
LINE
8
BLACK
6
CONTINUOUS
10
160.991
20
-63.9528
11
161.001
21
-63.9545
0
LINE
8
BLACK
6
CONTINUOUS
10
161.001
20
-63.9545
11
161.016
21
-63.967
0
LINE
8
BLACK
6
CONTINUOUS
10
161.016
20
-63.967
11
161.032
21
-63.9768
0
LINE
8
BLACK
6
CONTINUOUS
10
161.032
20
-63.9768
11
161.035
21
-63.9831
0
LINE
8
BLACK
6
CONTINUOUS
10
161.035
20
-63.9831
11
161.04
21
-63.9875
0
LINE
8
BLACK
6
CONTINUOUS
10
161.04
20
-63.9875
11
161.043
21
-64.0067
0
LINE
8
BLACK
6
CONTINUOUS
10
161.043
20
-64.0067
11
161.05
21
-64.025
0
LINE
8
BLACK
6
CONTINUOUS
10
161.05
20
-64.025
11
161.05
21
-77.975
0
LINE
8
BLACK
6
CONTINUOUS
10
161.05
20
-77.975
11
161.048
21
-77.9847
0
LINE
8
BLACK
6
CONTINUOUS
10
161.048
20
-77.9847
11
161.049
21
-77.988
0
LINE
8
BLACK
6
CONTINUOUS
10
161.049
20
-77.988
11
161.047
21
-77.9909
0
LINE
8
BLACK
6
CONTINUOUS
10
161.047
20
-77.9909
11
161.045
21
-78.0007
0
LINE
8
BLACK
6
CONTINUOUS
10
161.045
20
-78.0007
11
161.033
21
-78.0156
0
LINE
8
BLACK
6
CONTINUOUS
10
161.033
20
-78.0156
11
161.023
21
-78.0325
0
LINE
8
BLACK
6
CONTINUOUS
10
161.023
20
-78.0325
11
161.017
21
-78.0348
0
LINE
8
BLACK
6
CONTINUOUS
10
161.017
20
-78.0348
11
161.012
21
-78.04
0
LINE
8
BLACK
6
CONTINUOUS
10
161.012
20
-78.04
11
160.993
21
-78.0433
0
LINE
8
BLACK
6
CONTINUOUS
10
160.993
20
-78.0433
11
160.975
21
-78.05
0
LINE
8
BLACK
6
CONTINUOUS
10
160.975
20
-78.05
11
147.025
21
-78.05
0
LINE
8
BLACK
6
CONTINUOUS
10
147.025
20
-78.05
11
147.015
21
-78.0483
0
LINE
8
BLACK
6
CONTINUOUS
10
147.015
20
-78.0483
11
147.012
21
-78.0489
0
LINE
8
BLACK
6
CONTINUOUS
10
147.012
20
-78.0489
11
147.009
21
-78.0472
0
LINE
8
BLACK
6
CONTINUOUS
10
147.009
20
-78.0472
11
146.999
21
-78.0455
0
LINE
8
BLACK
6
CONTINUOUS
10
146.999
20
-78.0455
11
146.984
21
-78.033
0
LINE
8
BLACK
6
CONTINUOUS
10
146.984
20
-78.033
11
146.968
21
-78.0232
0
LINE
8
BLACK
6
CONTINUOUS
10
146.968
20
-78.0232
11
146.965
21
-78.0168
0
LINE
8
BLACK
6
CONTINUOUS
10
146.965
20
-78.0168
11
146.96
21
-78.0125
0
LINE
8
BLACK
6
CONTINUOUS
10
146.96
20
-78.0125
11
146.957
21
-77.9933
0
LINE
8
BLACK
6
CONTINUOUS
10
146.957
20
-77.9933
11
146.95
21
-77.975
0
LINE
8
BLACK
6
CONTINUOUS
10
146.95
20
-77.975
11
146.95
21
-64.025
0
LINE
8
BLACK
6
CONTINUOUS
10
146.95
20
-64.025
11
146.952
21
-64.0153
0
LINE
8
BLACK
6
CONTINUOUS
10
146.952
20
-64.0153
11
146.951
21
-64.012
0
LINE
8
BLACK
6
CONTINUOUS
10
146.951
20
-64.012
11
146.953
21
-64.0091
0
LINE
8
BLACK
6
CONTINUOUS
10
146.953
20
-64.0091
11
146.955
21
-63.9993
0
LINE
8
BLACK
6
CONTINUOUS
10
146.955
20
-63.9993
11
146.967
21
-63.9844
0
LINE
8
BLACK
6
CONTINUOUS
10
146.967
20
-63.9844
11
146.977
21
-63.9675
0
LINE
8
BLACK
6
CONTINUOUS
10
146.977
20
-63.9675
11
146.983
21
-63.9652
0
LINE
8
BLACK
6
CONTINUOUS
10
146.983
20
-63.9652
11
146.987
21
-63.96
0
LINE
8
BLACK
6
CONTINUOUS
10
146.987
20
-63.96
11
147.007
21
-63.9567
0
LINE
8
BLACK
6
CONTINUOUS
10
147.007
20
-63.9567
11
147.025
21
-63.95
0
LINE
8
BLACK
6
CONTINUOUS
10
147.025
20
-63.95
11
160.975
21
-63.95
0
LINE
8
BLACK
6
CONTINUOUS
10
160.975
20
-63.95
11
160.985
21
-63.9517
0
LINE
8
BLACK
6
CONTINUOUS
10
147.1
20
-64.1
11
147.1
21
-77.9
0
LINE
8
BLACK
6
CONTINUOUS
10
147.1
20
-77.9
11
160.9
21
-77.9
0
LINE
8
BLACK
6
CONTINUOUS
10
160.9
20
-77.9
11
160.9
21
-64.1
0
LINE
8
BLACK
6
CONTINUOUS
10
160.9
20
-64.1
11
147.1
21
-64.1
0
LINE
8
BLACK
6
CONTINUOUS
10
124.985
20
-63.9517
11
124.988
21
-63.9511
0
LINE
8
BLACK
6
CONTINUOUS
10
124.988
20
-63.9511
11
124.991
21
-63.9528
0
LINE
8
BLACK
6
CONTINUOUS
10
124.991
20
-63.9528
11
125.001
21
-63.9545
0
LINE
8
BLACK
6
CONTINUOUS
10
125.001
20
-63.9545
11
125.016
21
-63.967
0
LINE
8
BLACK
6
CONTINUOUS
10
125.016
20
-63.967
11
125.032
21
-63.9768
0
LINE
8
BLACK
6
CONTINUOUS
10
125.032
20
-63.9768
11
125.035
21
-63.9831
0
LINE
8
BLACK
6
CONTINUOUS
10
125.035
20
-63.9831
11
125.04
21
-63.9875
0
LINE
8
BLACK
6
CONTINUOUS
10
125.04
20
-63.9875
11
125.043
21
-64.0067
0
LINE
8
BLACK
6
CONTINUOUS
10
125.043
20
-64.0067
11
125.05
21
-64.025
0
LINE
8
BLACK
6
CONTINUOUS
10
125.05
20
-64.025
11
125.05
21
-77.975
0
LINE
8
BLACK
6
CONTINUOUS
10
125.05
20
-77.975
11
125.048
21
-77.9847
0
LINE
8
BLACK
6
CONTINUOUS
10
125.048
20
-77.9847
11
125.049
21
-77.988
0
LINE
8
BLACK
6
CONTINUOUS
10
125.049
20
-77.988
11
125.047
21
-77.9909
0
LINE
8
BLACK
6
CONTINUOUS
10
125.047
20
-77.9909
11
125.045
21
-78.0007
0
LINE
8
BLACK
6
CONTINUOUS
10
125.045
20
-78.0007
11
125.033
21
-78.0156
0
LINE
8
BLACK
6
CONTINUOUS
10
125.033
20
-78.0156
11
125.023
21
-78.0325
0
LINE
8
BLACK
6
CONTINUOUS
10
125.023
20
-78.0325
11
125.017
21
-78.0348
0
LINE
8
BLACK
6
CONTINUOUS
10
125.017
20
-78.0348
11
125.012
21
-78.04
0
LINE
8
BLACK
6
CONTINUOUS
10
125.012
20
-78.04
11
124.993
21
-78.0433
0
LINE
8
BLACK
6
CONTINUOUS
10
124.993
20
-78.0433
11
124.975
21
-78.05
0
LINE
8
BLACK
6
CONTINUOUS
10
124.975
20
-78.05
11
111.025
21
-78.05
0
LINE
8
BLACK
6
CONTINUOUS
10
111.025
20
-78.05
11
111.015
21
-78.0483
0
LINE
8
BLACK
6
CONTINUOUS
10
111.015
20
-78.0483
11
111.012
21
-78.0489
0
LINE
8
BLACK
6
CONTINUOUS
10
111.012
20
-78.0489
11
111.009
21
-78.0472
0
LINE
8
BLACK
6
CONTINUOUS
10
111.009
20
-78.0472
11
110.999
21
-78.0455
0
LINE
8
BLACK
6
CONTINUOUS
10
110.999
20
-78.0455
11
110.984
21
-78.033
0
LINE
8
BLACK
6
CONTINUOUS
10
110.984
20
-78.033
11
110.968
21
-78.0232
0
LINE
8
BLACK
6
CONTINUOUS
10
110.968
20
-78.0232
11
110.965
21
-78.0168
0
LINE
8
BLACK
6
CONTINUOUS
10
110.965
20
-78.0168
11
110.96
21
-78.0125
0
LINE
8
BLACK
6
CONTINUOUS
10
110.96
20
-78.0125
11
110.957
21
-77.9933
0
LINE
8
BLACK
6
CONTINUOUS
10
110.957
20
-77.9933
11
110.95
21
-77.975
0
LINE
8
BLACK
6
CONTINUOUS
10
110.95
20
-77.975
11
110.95
21
-64.025
0
LINE
8
BLACK
6
CONTINUOUS
10
110.95
20
-64.025
11
110.952
21
-64.0153
0
LINE
8
BLACK
6
CONTINUOUS
10
110.952
20
-64.0153
11
110.951
21
-64.012
0
LINE
8
BLACK
6
CONTINUOUS
10
110.951
20
-64.012
11
110.953
21
-64.0091
0
LINE
8
BLACK
6
CONTINUOUS
10
110.953
20
-64.0091
11
110.955
21
-63.9993
0
LINE
8
BLACK
6
CONTINUOUS
10
110.955
20
-63.9993
11
110.967
21
-63.9844
0
LINE
8
BLACK
6
CONTINUOUS
10
110.967
20
-63.9844
11
110.977
21
-63.9675
0
LINE
8
BLACK
6
CONTINUOUS
10
110.977
20
-63.9675
11
110.983
21
-63.9652
0
LINE
8
BLACK
6
CONTINUOUS
10
110.983
20
-63.9652
11
110.987
21
-63.96
0
LINE
8
BLACK
6
CONTINUOUS
10
110.987
20
-63.96
11
111.007
21
-63.9567
0
LINE
8
BLACK
6
CONTINUOUS
10
111.007
20
-63.9567
11
111.025
21
-63.95
0
LINE
8
BLACK
6
CONTINUOUS
10
111.025
20
-63.95
11
124.975
21
-63.95
0
LINE
8
BLACK
6
CONTINUOUS
10
124.975
20
-63.95
11
124.985
21
-63.9517
0
LINE
8
BLACK
6
CONTINUOUS
10
111.1
20
-64.1
11
111.1
21
-77.9
0
LINE
8
BLACK
6
CONTINUOUS
10
111.1
20
-77.9
11
124.9
21
-77.9
0
LINE
8
BLACK
6
CONTINUOUS
10
124.9
20
-77.9
11
124.9
21
-64.1
0
LINE
8
BLACK
6
CONTINUOUS
10
124.9
20
-64.1
11
111.1
21
-64.1
0
LINE
8
BLACK
6
CONTINUOUS
10
106.985
20
-58.9517
11
106.988
21
-58.9511
0
LINE
8
BLACK
6
CONTINUOUS
10
106.988
20
-58.9511
11
106.991
21
-58.9528
0
LINE
8
BLACK
6
CONTINUOUS
10
106.991
20
-58.9528
11
107.001
21
-58.9545
0
LINE
8
BLACK
6
CONTINUOUS
10
107.001
20
-58.9545
11
107.016
21
-58.967
0
LINE
8
BLACK
6
CONTINUOUS
10
107.016
20
-58.967
11
107.032
21
-58.9768
0
LINE
8
BLACK
6
CONTINUOUS
10
107.032
20
-58.9768
11
107.035
21
-58.9831
0
LINE
8
BLACK
6
CONTINUOUS
10
107.035
20
-58.9831
11
107.04
21
-58.9875
0
LINE
8
BLACK
6
CONTINUOUS
10
107.04
20
-58.9875
11
107.043
21
-59.0067
0
LINE
8
BLACK
6
CONTINUOUS
10
107.043
20
-59.0067
11
107.05
21
-59.025
0
LINE
8
BLACK
6
CONTINUOUS
10
107.05
20
-59.025
11
107.05
21
-72.975
0
LINE
8
BLACK
6
CONTINUOUS
10
107.05
20
-72.975
11
107.048
21
-72.9847
0
LINE
8
BLACK
6
CONTINUOUS
10
107.048
20
-72.9847
11
107.049
21
-72.988
0
LINE
8
BLACK
6
CONTINUOUS
10
107.049
20
-72.988
11
107.047
21
-72.9909
0
LINE
8
BLACK
6
CONTINUOUS
10
107.047
20
-72.9909
11
107.045
21
-73.0007
0
LINE
8
BLACK
6
CONTINUOUS
10
107.045
20
-73.0007
11
107.033
21
-73.0156
0
LINE
8
BLACK
6
CONTINUOUS
10
107.033
20
-73.0156
11
107.023
21
-73.0325
0
LINE
8
BLACK
6
CONTINUOUS
10
107.023
20
-73.0325
11
107.017
21
-73.0348
0
LINE
8
BLACK
6
CONTINUOUS
10
107.017
20
-73.0348
11
107.012
21
-73.04
0
LINE
8
BLACK
6
CONTINUOUS
10
107.012
20
-73.04
11
106.993
21
-73.0433
0
LINE
8
BLACK
6
CONTINUOUS
10
106.993
20
-73.0433
11
106.975
21
-73.05
0
LINE
8
BLACK
6
CONTINUOUS
10
106.975
20
-73.05
11
93.025
21
-73.05
0
LINE
8
BLACK
6
CONTINUOUS
10
93.025
20
-73.05
11
93.0153
21
-73.0483
0
LINE
8
BLACK
6
CONTINUOUS
10
93.0153
20
-73.0483
11
93.012
21
-73.0489
0
LINE
8
BLACK
6
CONTINUOUS
10
93.012
20
-73.0489
11
93.0091
21
-73.0472
0
LINE
8
BLACK
6
CONTINUOUS
10
93.0091
20
-73.0472
11
92.9993
21
-73.0455
0
LINE
8
BLACK
6
CONTINUOUS
10
92.9993
20
-73.0455
11
92.9844
21
-73.033
0
LINE
8
BLACK
6
CONTINUOUS
10
92.9844
20
-73.033
11
92.9675
21
-73.0232
0
LINE
8
BLACK
6
CONTINUOUS
10
92.9675
20
-73.0232
11
92.9652
21
-73.0168
0
LINE
8
BLACK
6
CONTINUOUS
10
92.9652
20
-73.0168
11
92.96
21
-73.0125
0
LINE
8
BLACK
6
CONTINUOUS
10
92.96
20
-73.0125
11
92.9567
21
-72.9933
0
LINE
8
BLACK
6
CONTINUOUS
10
92.9567
20
-72.9933
11
92.95
21
-72.975
0
LINE
8
BLACK
6
CONTINUOUS
10
92.95
20
-72.975
11
92.95
21
-59.025
0
LINE
8
BLACK
6
CONTINUOUS
10
92.95
20
-59.025
11
92.9517
21
-59.0153
0
LINE
8
BLACK
6
CONTINUOUS
10
92.9517
20
-59.0153
11
92.9511
21
-59.012
0
LINE
8
BLACK
6
CONTINUOUS
10
92.9511
20
-59.012
11
92.9528
21
-59.0091
0
LINE
8
BLACK
6
CONTINUOUS
10
92.9528
20
-59.0091
11
92.9545
21
-58.9993
0
LINE
8
BLACK
6
CONTINUOUS
10
92.9545
20
-58.9993
11
92.967
21
-58.9844
0
LINE
8
BLACK
6
CONTINUOUS
10
92.967
20
-58.9844
11
92.9768
21
-58.9675
0
LINE
8
BLACK
6
CONTINUOUS
10
92.9768
20
-58.9675
11
92.9831
21
-58.9652
0
LINE
8
BLACK
6
CONTINUOUS
10
92.9831
20
-58.9652
11
92.9875
21
-58.96
0
LINE
8
BLACK
6
CONTINUOUS
10
92.9875
20
-58.96
11
93.0067
21
-58.9567
0
LINE
8
BLACK
6
CONTINUOUS
10
93.0067
20
-58.9567
11
93.025
21
-58.95
0
LINE
8
BLACK
6
CONTINUOUS
10
93.025
20
-58.95
11
106.975
21
-58.95
0
LINE
8
BLACK
6
CONTINUOUS
10
106.975
20
-58.95
11
106.985
21
-58.9517
0
LINE
8
BLACK
6
CONTINUOUS
10
93.1
20
-59.1
11
93.1
21
-72.9
0
LINE
8
BLACK
6
CONTINUOUS
10
93.1
20
-72.9
11
106.9
21
-72.9
0
LINE
8
BLACK
6
CONTINUOUS
10
106.9
20
-72.9
11
106.9
21
-59.1
0
LINE
8
BLACK
6
CONTINUOUS
10
106.9
20
-59.1
11
93.1
21
-59.1
0
LINE
8
BLACK
6
CONTINUOUS
10
142.985
20
-57.9517
11
142.988
21
-57.9511
0
LINE
8
BLACK
6
CONTINUOUS
10
142.988
20
-57.9511
11
142.991
21
-57.9528
0
LINE
8
BLACK
6
CONTINUOUS
10
142.991
20
-57.9528
11
143.001
21
-57.9545
0
LINE
8
BLACK
6
CONTINUOUS
10
143.001
20
-57.9545
11
143.016
21
-57.967
0
LINE
8
BLACK
6
CONTINUOUS
10
143.016
20
-57.967
11
143.032
21
-57.9768
0
LINE
8
BLACK
6
CONTINUOUS
10
143.032
20
-57.9768
11
143.035
21
-57.9831
0
LINE
8
BLACK
6
CONTINUOUS
10
143.035
20
-57.9831
11
143.04
21
-57.9875
0
LINE
8
BLACK
6
CONTINUOUS
10
143.04
20
-57.9875
11
143.043
21
-58.0067
0
LINE
8
BLACK
6
CONTINUOUS
10
143.043
20
-58.0067
11
143.05
21
-58.025
0
LINE
8
BLACK
6
CONTINUOUS
10
143.05
20
-58.025
11
143.05
21
-71.975
0
LINE
8
BLACK
6
CONTINUOUS
10
143.05
20
-71.975
11
143.048
21
-71.9847
0
LINE
8
BLACK
6
CONTINUOUS
10
143.048
20
-71.9847
11
143.049
21
-71.988
0
LINE
8
BLACK
6
CONTINUOUS
10
143.049
20
-71.988
11
143.047
21
-71.9909
0
LINE
8
BLACK
6
CONTINUOUS
10
143.047
20
-71.9909
11
143.045
21
-72.0007
0
LINE
8
BLACK
6
CONTINUOUS
10
143.045
20
-72.0007
11
143.033
21
-72.0156
0
LINE
8
BLACK
6
CONTINUOUS
10
143.033
20
-72.0156
11
143.023
21
-72.0325
0
LINE
8
BLACK
6
CONTINUOUS
10
143.023
20
-72.0325
11
143.017
21
-72.0348
0
LINE
8
BLACK
6
CONTINUOUS
10
143.017
20
-72.0348
11
143.012
21
-72.04
0
LINE
8
BLACK
6
CONTINUOUS
10
143.012
20
-72.04
11
142.993
21
-72.0433
0
LINE
8
BLACK
6
CONTINUOUS
10
142.993
20
-72.0433
11
142.975
21
-72.05
0
LINE
8
BLACK
6
CONTINUOUS
10
142.975
20
-72.05
11
129.025
21
-72.05
0
LINE
8
BLACK
6
CONTINUOUS
10
129.025
20
-72.05
11
129.015
21
-72.0483
0
LINE
8
BLACK
6
CONTINUOUS
10
129.015
20
-72.0483
11
129.012
21
-72.0489
0
LINE
8
BLACK
6
CONTINUOUS
10
129.012
20
-72.0489
11
129.009
21
-72.0472
0
LINE
8
BLACK
6
CONTINUOUS
10
129.009
20
-72.0472
11
128.999
21
-72.0455
0
LINE
8
BLACK
6
CONTINUOUS
10
128.999
20
-72.0455
11
128.984
21
-72.033
0
LINE
8
BLACK
6
CONTINUOUS
10
128.984
20
-72.033
11
128.968
21
-72.0232
0
LINE
8
BLACK
6
CONTINUOUS
10
128.968
20
-72.0232
11
128.965
21
-72.0168
0
LINE
8
BLACK
6
CONTINUOUS
10
128.965
20
-72.0168
11
128.96
21
-72.0125
0
LINE
8
BLACK
6
CONTINUOUS
10
128.96
20
-72.0125
11
128.957
21
-71.9933
0
LINE
8
BLACK
6
CONTINUOUS
10
128.957
20
-71.9933
11
128.95
21
-71.975
0
LINE
8
BLACK
6
CONTINUOUS
10
128.95
20
-71.975
11
128.95
21
-58.025
0
LINE
8
BLACK
6
CONTINUOUS
10
128.95
20
-58.025
11
128.952
21
-58.0153
0
LINE
8
BLACK
6
CONTINUOUS
10
128.952
20
-58.0153
11
128.951
21
-58.012
0
LINE
8
BLACK
6
CONTINUOUS
10
128.951
20
-58.012
11
128.953
21
-58.0091
0
LINE
8
BLACK
6
CONTINUOUS
10
128.953
20
-58.0091
11
128.955
21
-57.9993
0
LINE
8
BLACK
6
CONTINUOUS
10
128.955
20
-57.9993
11
128.967
21
-57.9844
0
LINE
8
BLACK
6
CONTINUOUS
10
128.967
20
-57.9844
11
128.977
21
-57.9675
0
LINE
8
BLACK
6
CONTINUOUS
10
128.977
20
-57.9675
11
128.983
21
-57.9652
0
LINE
8
BLACK
6
CONTINUOUS
10
128.983
20
-57.9652
11
128.987
21
-57.96
0
LINE
8
BLACK
6
CONTINUOUS
10
128.987
20
-57.96
11
129.007
21
-57.9567
0
LINE
8
BLACK
6
CONTINUOUS
10
129.007
20
-57.9567
11
129.025
21
-57.95
0
LINE
8
BLACK
6
CONTINUOUS
10
129.025
20
-57.95
11
142.975
21
-57.95
0
LINE
8
BLACK
6
CONTINUOUS
10
142.975
20
-57.95
11
142.985
21
-57.9517
0
LINE
8
BLACK
6
CONTINUOUS
10
129.1
20
-58.1
11
129.1
21
-71.9
0
LINE
8
BLACK
6
CONTINUOUS
10
129.1
20
-71.9
11
142.9
21
-71.9
0
LINE
8
BLACK
6
CONTINUOUS
10
142.9
20
-71.9
11
142.9
21
-58.1
0
LINE
8
BLACK
6
CONTINUOUS
10
142.9
20
-58.1
11
129.1
21
-58.1
0
LINE
8
BLACK
6
CONTINUOUS
10
178.985
20
-49.9517
11
178.988
21
-49.9511
0
LINE
8
BLACK
6
CONTINUOUS
10
178.988
20
-49.9511
11
178.991
21
-49.9528
0
LINE
8
BLACK
6
CONTINUOUS
10
178.991
20
-49.9528
11
179.001
21
-49.9545
0
LINE
8
BLACK
6
CONTINUOUS
10
179.001
20
-49.9545
11
179.016
21
-49.967
0
LINE
8
BLACK
6
CONTINUOUS
10
179.016
20
-49.967
11
179.032
21
-49.9768
0
LINE
8
BLACK
6
CONTINUOUS
10
179.032
20
-49.9768
11
179.035
21
-49.9831
0
LINE
8
BLACK
6
CONTINUOUS
10
179.035
20
-49.9831
11
179.04
21
-49.9875
0
LINE
8
BLACK
6
CONTINUOUS
10
179.04
20
-49.9875
11
179.043
21
-50.0067
0
LINE
8
BLACK
6
CONTINUOUS
10
179.043
20
-50.0067
11
179.05
21
-50.025
0
LINE
8
BLACK
6
CONTINUOUS
10
179.05
20
-50.025
11
179.05
21
-63.975
0
LINE
8
BLACK
6
CONTINUOUS
10
179.05
20
-63.975
11
179.048
21
-63.9847
0
LINE
8
BLACK
6
CONTINUOUS
10
179.048
20
-63.9847
11
179.049
21
-63.988
0
LINE
8
BLACK
6
CONTINUOUS
10
179.049
20
-63.988
11
179.047
21
-63.9909
0
LINE
8
BLACK
6
CONTINUOUS
10
179.047
20
-63.9909
11
179.045
21
-64.0007
0
LINE
8
BLACK
6
CONTINUOUS
10
179.045
20
-64.0007
11
179.033
21
-64.0156
0
LINE
8
BLACK
6
CONTINUOUS
10
179.033
20
-64.0156
11
179.023
21
-64.0325
0
LINE
8
BLACK
6
CONTINUOUS
10
179.023
20
-64.0325
11
179.017
21
-64.0348
0
LINE
8
BLACK
6
CONTINUOUS
10
179.017
20
-64.0348
11
179.012
21
-64.04
0
LINE
8
BLACK
6
CONTINUOUS
10
179.012
20
-64.04
11
178.993
21
-64.0433
0
LINE
8
BLACK
6
CONTINUOUS
10
178.993
20
-64.0433
11
178.975
21
-64.05
0
LINE
8
BLACK
6
CONTINUOUS
10
178.975
20
-64.05
11
165.025
21
-64.05
0
LINE
8
BLACK
6
CONTINUOUS
10
165.025
20
-64.05
11
165.015
21
-64.0483
0
LINE
8
BLACK
6
CONTINUOUS
10
165.015
20
-64.0483
11
165.012
21
-64.0489
0
LINE
8
BLACK
6
CONTINUOUS
10
165.012
20
-64.0489
11
165.009
21
-64.0472
0
LINE
8
BLACK
6
CONTINUOUS
10
165.009
20
-64.0472
11
164.999
21
-64.0455
0
LINE
8
BLACK
6
CONTINUOUS
10
164.999
20
-64.0455
11
164.984
21
-64.033
0
LINE
8
BLACK
6
CONTINUOUS
10
164.984
20
-64.033
11
164.968
21
-64.0232
0
LINE
8
BLACK
6
CONTINUOUS
10
164.968
20
-64.0232
11
164.965
21
-64.0168
0
LINE
8
BLACK
6
CONTINUOUS
10
164.965
20
-64.0168
11
164.96
21
-64.0125
0
LINE
8
BLACK
6
CONTINUOUS
10
164.96
20
-64.0125
11
164.957
21
-63.9933
0
LINE
8
BLACK
6
CONTINUOUS
10
164.957
20
-63.9933
11
164.95
21
-63.975
0
LINE
8
BLACK
6
CONTINUOUS
10
164.95
20
-63.975
11
164.95
21
-50.025
0
LINE
8
BLACK
6
CONTINUOUS
10
164.95
20
-50.025
11
164.952
21
-50.0153
0
LINE
8
BLACK
6
CONTINUOUS
10
164.952
20
-50.0153
11
164.951
21
-50.012
0
LINE
8
BLACK
6
CONTINUOUS
10
164.951
20
-50.012
11
164.953
21
-50.0091
0
LINE
8
BLACK
6
CONTINUOUS
10
164.953
20
-50.0091
11
164.955
21
-49.9993
0
LINE
8
BLACK
6
CONTINUOUS
10
164.955
20
-49.9993
11
164.967
21
-49.9844
0
LINE
8
BLACK
6
CONTINUOUS
10
164.967
20
-49.9844
11
164.977
21
-49.9675
0
LINE
8
BLACK
6
CONTINUOUS
10
164.977
20
-49.9675
11
164.983
21
-49.9652
0
LINE
8
BLACK
6
CONTINUOUS
10
164.983
20
-49.9652
11
164.987
21
-49.96
0
LINE
8
BLACK
6
CONTINUOUS
10
164.987
20
-49.96
11
165.007
21
-49.9567
0
LINE
8
BLACK
6
CONTINUOUS
10
165.007
20
-49.9567
11
165.025
21
-49.95
0
LINE
8
BLACK
6
CONTINUOUS
10
165.025
20
-49.95
11
178.975
21
-49.95
0
LINE
8
BLACK
6
CONTINUOUS
10
178.975
20
-49.95
11
178.985
21
-49.9517
0
LINE
8
BLACK
6
CONTINUOUS
10
165.1
20
-50.1
11
165.1
21
-63.9
0
LINE
8
BLACK
6
CONTINUOUS
10
165.1
20
-63.9
11
178.9
21
-63.9
0
LINE
8
BLACK
6
CONTINUOUS
10
178.9
20
-63.9
11
178.9
21
-50.1
0
LINE
8
BLACK
6
CONTINUOUS
10
178.9
20
-50.1
11
165.1
21
-50.1
0
LINE
8
BLACK
6
CONTINUOUS
10
160.985
20
-46.9517
11
160.988
21
-46.9511
0
LINE
8
BLACK
6
CONTINUOUS
10
160.988
20
-46.9511
11
160.991
21
-46.9528
0
LINE
8
BLACK
6
CONTINUOUS
10
160.991
20
-46.9528
11
161.001
21
-46.9545
0
LINE
8
BLACK
6
CONTINUOUS
10
161.001
20
-46.9545
11
161.016
21
-46.967
0
LINE
8
BLACK
6
CONTINUOUS
10
161.016
20
-46.967
11
161.032
21
-46.9768
0
LINE
8
BLACK
6
CONTINUOUS
10
161.032
20
-46.9768
11
161.035
21
-46.9831
0
LINE
8
BLACK
6
CONTINUOUS
10
161.035
20
-46.9831
11
161.04
21
-46.9875
0
LINE
8
BLACK
6
CONTINUOUS
10
161.04
20
-46.9875
11
161.043
21
-47.0067
0
LINE
8
BLACK
6
CONTINUOUS
10
161.043
20
-47.0067
11
161.05
21
-47.025
0
LINE
8
BLACK
6
CONTINUOUS
10
161.05
20
-47.025
11
161.05
21
-60.975
0
LINE
8
BLACK
6
CONTINUOUS
10
161.05
20
-60.975
11
161.048
21
-60.9847
0
LINE
8
BLACK
6
CONTINUOUS
10
161.048
20
-60.9847
11
161.049
21
-60.988
0
LINE
8
BLACK
6
CONTINUOUS
10
161.049
20
-60.988
11
161.047
21
-60.9909
0
LINE
8
BLACK
6
CONTINUOUS
10
161.047
20
-60.9909
11
161.045
21
-61.0007
0
LINE
8
BLACK
6
CONTINUOUS
10
161.045
20
-61.0007
11
161.033
21
-61.0156
0
LINE
8
BLACK
6
CONTINUOUS
10
161.033
20
-61.0156
11
161.023
21
-61.0325
0
LINE
8
BLACK
6
CONTINUOUS
10
161.023
20
-61.0325
11
161.017
21
-61.0348
0
LINE
8
BLACK
6
CONTINUOUS
10
161.017
20
-61.0348
11
161.012
21
-61.04
0
LINE
8
BLACK
6
CONTINUOUS
10
161.012
20
-61.04
11
160.993
21
-61.0433
0
LINE
8
BLACK
6
CONTINUOUS
10
160.993
20
-61.0433
11
160.975
21
-61.05
0
LINE
8
BLACK
6
CONTINUOUS
10
160.975
20
-61.05
11
147.025
21
-61.05
0
LINE
8
BLACK
6
CONTINUOUS
10
147.025
20
-61.05
11
147.015
21
-61.0483
0
LINE
8
BLACK
6
CONTINUOUS
10
147.015
20
-61.0483
11
147.012
21
-61.0489
0
LINE
8
BLACK
6
CONTINUOUS
10
147.012
20
-61.0489
11
147.009
21
-61.0472
0
LINE
8
BLACK
6
CONTINUOUS
10
147.009
20
-61.0472
11
146.999
21
-61.0455
0
LINE
8
BLACK
6
CONTINUOUS
10
146.999
20
-61.0455
11
146.984
21
-61.033
0
LINE
8
BLACK
6
CONTINUOUS
10
146.984
20
-61.033
11
146.968
21
-61.0232
0
LINE
8
BLACK
6
CONTINUOUS
10
146.968
20
-61.0232
11
146.965
21
-61.0168
0
LINE
8
BLACK
6
CONTINUOUS
10
146.965
20
-61.0168
11
146.96
21
-61.0125
0
LINE
8
BLACK
6
CONTINUOUS
10
146.96
20
-61.0125
11
146.957
21
-60.9933
0
LINE
8
BLACK
6
CONTINUOUS
10
146.957
20
-60.9933
11
146.95
21
-60.975
0
LINE
8
BLACK
6
CONTINUOUS
10
146.95
20
-60.975
11
146.95
21
-47.025
0
LINE
8
BLACK
6
CONTINUOUS
10
146.95
20
-47.025
11
146.952
21
-47.0153
0
LINE
8
BLACK
6
CONTINUOUS
10
146.952
20
-47.0153
11
146.951
21
-47.012
0
LINE
8
BLACK
6
CONTINUOUS
10
146.951
20
-47.012
11
146.953
21
-47.0091
0
LINE
8
BLACK
6
CONTINUOUS
10
146.953
20
-47.0091
11
146.955
21
-46.9993
0
LINE
8
BLACK
6
CONTINUOUS
10
146.955
20
-46.9993
11
146.967
21
-46.9844
0
LINE
8
BLACK
6
CONTINUOUS
10
146.967
20
-46.9844
11
146.977
21
-46.9675
0
LINE
8
BLACK
6
CONTINUOUS
10
146.977
20
-46.9675
11
146.983
21
-46.9652
0
LINE
8
BLACK
6
CONTINUOUS
10
146.983
20
-46.9652
11
146.987
21
-46.96
0
LINE
8
BLACK
6
CONTINUOUS
10
146.987
20
-46.96
11
147.007
21
-46.9567
0
LINE
8
BLACK
6
CONTINUOUS
10
147.007
20
-46.9567
11
147.025
21
-46.95
0
LINE
8
BLACK
6
CONTINUOUS
10
147.025
20
-46.95
11
160.975
21
-46.95
0
LINE
8
BLACK
6
CONTINUOUS
10
160.975
20
-46.95
11
160.985
21
-46.9517
0
LINE
8
BLACK
6
CONTINUOUS
10
147.1
20
-47.1
11
147.1
21
-60.9
0
LINE
8
BLACK
6
CONTINUOUS
10
147.1
20
-60.9
11
160.9
21
-60.9
0
LINE
8
BLACK
6
CONTINUOUS
10
160.9
20
-60.9
11
160.9
21
-47.1
0
LINE
8
BLACK
6
CONTINUOUS
10
160.9
20
-47.1
11
147.1
21
-47.1
0
LINE
8
BLACK
6
CONTINUOUS
10
124.985
20
-46.9517
11
124.988
21
-46.9511
0
LINE
8
BLACK
6
CONTINUOUS
10
124.988
20
-46.9511
11
124.991
21
-46.9528
0
LINE
8
BLACK
6
CONTINUOUS
10
124.991
20
-46.9528
11
125.001
21
-46.9545
0
LINE
8
BLACK
6
CONTINUOUS
10
125.001
20
-46.9545
11
125.016
21
-46.967
0
LINE
8
BLACK
6
CONTINUOUS
10
125.016
20
-46.967
11
125.032
21
-46.9768
0
LINE
8
BLACK
6
CONTINUOUS
10
125.032
20
-46.9768
11
125.035
21
-46.9831
0
LINE
8
BLACK
6
CONTINUOUS
10
125.035
20
-46.9831
11
125.04
21
-46.9875
0
LINE
8
BLACK
6
CONTINUOUS
10
125.04
20
-46.9875
11
125.043
21
-47.0067
0
LINE
8
BLACK
6
CONTINUOUS
10
125.043
20
-47.0067
11
125.05
21
-47.025
0
LINE
8
BLACK
6
CONTINUOUS
10
125.05
20
-47.025
11
125.05
21
-60.975
0
LINE
8
BLACK
6
CONTINUOUS
10
125.05
20
-60.975
11
125.048
21
-60.9847
0
LINE
8
BLACK
6
CONTINUOUS
10
125.048
20
-60.9847
11
125.049
21
-60.988
0
LINE
8
BLACK
6
CONTINUOUS
10
125.049
20
-60.988
11
125.047
21
-60.9909
0
LINE
8
BLACK
6
CONTINUOUS
10
125.047
20
-60.9909
11
125.045
21
-61.0007
0
LINE
8
BLACK
6
CONTINUOUS
10
125.045
20
-61.0007
11
125.033
21
-61.0156
0
LINE
8
BLACK
6
CONTINUOUS
10
125.033
20
-61.0156
11
125.023
21
-61.0325
0
LINE
8
BLACK
6
CONTINUOUS
10
125.023
20
-61.0325
11
125.017
21
-61.0348
0
LINE
8
BLACK
6
CONTINUOUS
10
125.017
20
-61.0348
11
125.012
21
-61.04
0
LINE
8
BLACK
6
CONTINUOUS
10
125.012
20
-61.04
11
124.993
21
-61.0433
0
LINE
8
BLACK
6
CONTINUOUS
10
124.993
20
-61.0433
11
124.975
21
-61.05
0
LINE
8
BLACK
6
CONTINUOUS
10
124.975
20
-61.05
11
111.025
21
-61.05
0
LINE
8
BLACK
6
CONTINUOUS
10
111.025
20
-61.05
11
111.015
21
-61.0483
0
LINE
8
BLACK
6
CONTINUOUS
10
111.015
20
-61.0483
11
111.012
21
-61.0489
0
LINE
8
BLACK
6
CONTINUOUS
10
111.012
20
-61.0489
11
111.009
21
-61.0472
0
LINE
8
BLACK
6
CONTINUOUS
10
111.009
20
-61.0472
11
110.999
21
-61.0455
0
LINE
8
BLACK
6
CONTINUOUS
10
110.999
20
-61.0455
11
110.984
21
-61.033
0
LINE
8
BLACK
6
CONTINUOUS
10
110.984
20
-61.033
11
110.968
21
-61.0232
0
LINE
8
BLACK
6
CONTINUOUS
10
110.968
20
-61.0232
11
110.965
21
-61.0168
0
LINE
8
BLACK
6
CONTINUOUS
10
110.965
20
-61.0168
11
110.96
21
-61.0125
0
LINE
8
BLACK
6
CONTINUOUS
10
110.96
20
-61.0125
11
110.957
21
-60.9933
0
LINE
8
BLACK
6
CONTINUOUS
10
110.957
20
-60.9933
11
110.95
21
-60.975
0
LINE
8
BLACK
6
CONTINUOUS
10
110.95
20
-60.975
11
110.95
21
-47.025
0
LINE
8
BLACK
6
CONTINUOUS
10
110.95
20
-47.025
11
110.952
21
-47.0153
0
LINE
8
BLACK
6
CONTINUOUS
10
110.952
20
-47.0153
11
110.951
21
-47.012
0
LINE
8
BLACK
6
CONTINUOUS
10
110.951
20
-47.012
11
110.953
21
-47.0091
0
LINE
8
BLACK
6
CONTINUOUS
10
110.953
20
-47.0091
11
110.955
21
-46.9993
0
LINE
8
BLACK
6
CONTINUOUS
10
110.955
20
-46.9993
11
110.967
21
-46.9844
0
LINE
8
BLACK
6
CONTINUOUS
10
110.967
20
-46.9844
11
110.977
21
-46.9675
0
LINE
8
BLACK
6
CONTINUOUS
10
110.977
20
-46.9675
11
110.983
21
-46.9652
0
LINE
8
BLACK
6
CONTINUOUS
10
110.983
20
-46.9652
11
110.987
21
-46.96
0
LINE
8
BLACK
6
CONTINUOUS
10
110.987
20
-46.96
11
111.007
21
-46.9567
0
LINE
8
BLACK
6
CONTINUOUS
10
111.007
20
-46.9567
11
111.025
21
-46.95
0
LINE
8
BLACK
6
CONTINUOUS
10
111.025
20
-46.95
11
124.975
21
-46.95
0
LINE
8
BLACK
6
CONTINUOUS
10
124.975
20
-46.95
11
124.985
21
-46.9517
0
LINE
8
BLACK
6
CONTINUOUS
10
111.1
20
-47.1
11
111.1
21
-60.9
0
LINE
8
BLACK
6
CONTINUOUS
10
111.1
20
-60.9
11
124.9
21
-60.9
0
LINE
8
BLACK
6
CONTINUOUS
10
124.9
20
-60.9
11
124.9
21
-47.1
0
LINE
8
BLACK
6
CONTINUOUS
10
124.9
20
-47.1
11
111.1
21
-47.1
0
LINE
8
BLACK
6
CONTINUOUS
10
142.985
20
-40.9517
11
142.988
21
-40.9511
0
LINE
8
BLACK
6
CONTINUOUS
10
142.988
20
-40.9511
11
142.991
21
-40.9528
0
LINE
8
BLACK
6
CONTINUOUS
10
142.991
20
-40.9528
11
143.001
21
-40.9545
0
LINE
8
BLACK
6
CONTINUOUS
10
143.001
20
-40.9545
11
143.016
21
-40.967
0
LINE
8
BLACK
6
CONTINUOUS
10
143.016
20
-40.967
11
143.032
21
-40.9768
0
LINE
8
BLACK
6
CONTINUOUS
10
143.032
20
-40.9768
11
143.035
21
-40.9831
0
LINE
8
BLACK
6
CONTINUOUS
10
143.035
20
-40.9831
11
143.04
21
-40.9875
0
LINE
8
BLACK
6
CONTINUOUS
10
143.04
20
-40.9875
11
143.043
21
-41.0067
0
LINE
8
BLACK
6
CONTINUOUS
10
143.043
20
-41.0067
11
143.05
21
-41.025
0
LINE
8
BLACK
6
CONTINUOUS
10
143.05
20
-41.025
11
143.05
21
-54.975
0
LINE
8
BLACK
6
CONTINUOUS
10
143.05
20
-54.975
11
143.048
21
-54.9847
0
LINE
8
BLACK
6
CONTINUOUS
10
143.048
20
-54.9847
11
143.049
21
-54.988
0
LINE
8
BLACK
6
CONTINUOUS
10
143.049
20
-54.988
11
143.047
21
-54.9909
0
LINE
8
BLACK
6
CONTINUOUS
10
143.047
20
-54.9909
11
143.045
21
-55.0007
0
LINE
8
BLACK
6
CONTINUOUS
10
143.045
20
-55.0007
11
143.033
21
-55.0156
0
LINE
8
BLACK
6
CONTINUOUS
10
143.033
20
-55.0156
11
143.023
21
-55.0325
0
LINE
8
BLACK
6
CONTINUOUS
10
143.023
20
-55.0325
11
143.017
21
-55.0348
0
LINE
8
BLACK
6
CONTINUOUS
10
143.017
20
-55.0348
11
143.012
21
-55.04
0
LINE
8
BLACK
6
CONTINUOUS
10
143.012
20
-55.04
11
142.993
21
-55.0433
0
LINE
8
BLACK
6
CONTINUOUS
10
142.993
20
-55.0433
11
142.975
21
-55.05
0
LINE
8
BLACK
6
CONTINUOUS
10
142.975
20
-55.05
11
129.025
21
-55.05
0
LINE
8
BLACK
6
CONTINUOUS
10
129.025
20
-55.05
11
129.015
21
-55.0483
0
LINE
8
BLACK
6
CONTINUOUS
10
129.015
20
-55.0483
11
129.012
21
-55.0489
0
LINE
8
BLACK
6
CONTINUOUS
10
129.012
20
-55.0489
11
129.009
21
-55.0472
0
LINE
8
BLACK
6
CONTINUOUS
10
129.009
20
-55.0472
11
128.999
21
-55.0455
0
LINE
8
BLACK
6
CONTINUOUS
10
128.999
20
-55.0455
11
128.984
21
-55.033
0
LINE
8
BLACK
6
CONTINUOUS
10
128.984
20
-55.033
11
128.968
21
-55.0232
0
LINE
8
BLACK
6
CONTINUOUS
10
128.968
20
-55.0232
11
128.965
21
-55.0168
0
LINE
8
BLACK
6
CONTINUOUS
10
128.965
20
-55.0168
11
128.96
21
-55.0125
0
LINE
8
BLACK
6
CONTINUOUS
10
128.96
20
-55.0125
11
128.957
21
-54.9933
0
LINE
8
BLACK
6
CONTINUOUS
10
128.957
20
-54.9933
11
128.95
21
-54.975
0
LINE
8
BLACK
6
CONTINUOUS
10
128.95
20
-54.975
11
128.95
21
-41.025
0
LINE
8
BLACK
6
CONTINUOUS
10
128.95
20
-41.025
11
128.952
21
-41.0153
0
LINE
8
BLACK
6
CONTINUOUS
10
128.952
20
-41.0153
11
128.951
21
-41.012
0
LINE
8
BLACK
6
CONTINUOUS
10
128.951
20
-41.012
11
128.953
21
-41.0091
0
LINE
8
BLACK
6
CONTINUOUS
10
128.953
20
-41.0091
11
128.955
21
-40.9993
0
LINE
8
BLACK
6
CONTINUOUS
10
128.955
20
-40.9993
11
128.967
21
-40.9844
0
LINE
8
BLACK
6
CONTINUOUS
10
128.967
20
-40.9844
11
128.977
21
-40.9675
0
LINE
8
BLACK
6
CONTINUOUS
10
128.977
20
-40.9675
11
128.983
21
-40.9652
0
LINE
8
BLACK
6
CONTINUOUS
10
128.983
20
-40.9652
11
128.987
21
-40.96
0
LINE
8
BLACK
6
CONTINUOUS
10
128.987
20
-40.96
11
129.007
21
-40.9567
0
LINE
8
BLACK
6
CONTINUOUS
10
129.007
20
-40.9567
11
129.025
21
-40.95
0
LINE
8
BLACK
6
CONTINUOUS
10
129.025
20
-40.95
11
142.975
21
-40.95
0
LINE
8
BLACK
6
CONTINUOUS
10
142.975
20
-40.95
11
142.985
21
-40.9517
0
LINE
8
BLACK
6
CONTINUOUS
10
129.1
20
-41.1
11
129.1
21
-54.9
0
LINE
8
BLACK
6
CONTINUOUS
10
129.1
20
-54.9
11
142.9
21
-54.9
0
LINE
8
BLACK
6
CONTINUOUS
10
142.9
20
-54.9
11
142.9
21
-41.1
0
LINE
8
BLACK
6
CONTINUOUS
10
142.9
20
-41.1
11
129.1
21
-41.1
0
LINE
8
BLACK
6
CONTINUOUS
10
175.093
20
-115.869
11
175.188
21
-115.641
0
LINE
8
BLACK
6
CONTINUOUS
10
175.188
20
-115.641
11
175.317
21
-115.43
0
LINE
8
BLACK
6
CONTINUOUS
10
175.317
20
-115.43
11
175.477
21
-115.242
0
LINE
8
BLACK
6
CONTINUOUS
10
175.477
20
-115.242
11
175.665
21
-115.082
0
LINE
8
BLACK
6
CONTINUOUS
10
175.665
20
-115.082
11
175.876
21
-114.952
0
LINE
8
BLACK
6
CONTINUOUS
10
175.876
20
-114.952
11
176.104
21
-114.858
0
LINE
8
BLACK
6
CONTINUOUS
10
176.104
20
-114.858
11
176.345
21
-114.8
0
LINE
8
BLACK
6
CONTINUOUS
10
176.345
20
-114.8
11
176.591
21
-114.781
0
LINE
8
BLACK
6
CONTINUOUS
10
176.591
20
-114.781
11
176.837
21
-114.8
0
LINE
8
BLACK
6
CONTINUOUS
10
176.837
20
-114.8
11
177.078
21
-114.858
0
LINE
8
BLACK
6
CONTINUOUS
10
177.078
20
-114.858
11
177.306
21
-114.952
0
LINE
8
BLACK
6
CONTINUOUS
10
177.306
20
-114.952
11
177.517
21
-115.082
0
LINE
8
BLACK
6
CONTINUOUS
10
177.517
20
-115.082
11
177.705
21
-115.242
0
LINE
8
BLACK
6
CONTINUOUS
10
177.705
20
-115.242
11
177.865
21
-115.43
0
LINE
8
BLACK
6
CONTINUOUS
10
177.865
20
-115.43
11
177.994
21
-115.641
0
LINE
8
BLACK
6
CONTINUOUS
10
177.994
20
-115.641
11
178.089
21
-115.869
0
LINE
8
BLACK
6
CONTINUOUS
10
178.089
20
-115.869
11
178.147
21
-116.109
0
LINE
8
BLACK
6
CONTINUOUS
10
178.147
20
-116.109
11
178.166
21
-116.356
0
LINE
8
BLACK
6
CONTINUOUS
10
178.166
20
-116.356
11
178.147
21
-116.602
0
LINE
8
BLACK
6
CONTINUOUS
10
178.147
20
-116.602
11
178.089
21
-116.843
0
LINE
8
BLACK
6
CONTINUOUS
10
178.089
20
-116.843
11
177.994
21
-117.071
0
LINE
8
BLACK
6
CONTINUOUS
10
177.994
20
-117.071
11
177.865
21
-117.282
0
LINE
8
BLACK
6
CONTINUOUS
10
177.865
20
-117.282
11
177.705
21
-117.47
0
LINE
8
BLACK
6
CONTINUOUS
10
177.705
20
-117.47
11
177.517
21
-117.63
0
LINE
8
BLACK
6
CONTINUOUS
10
177.517
20
-117.63
11
177.306
21
-117.759
0
LINE
8
BLACK
6
CONTINUOUS
10
177.306
20
-117.759
11
177.078
21
-117.854
0
LINE
8
BLACK
6
CONTINUOUS
10
177.078
20
-117.854
11
176.837
21
-117.911
0
LINE
8
BLACK
6
CONTINUOUS
10
176.837
20
-117.911
11
176.591
21
-117.931
0
LINE
8
BLACK
6
CONTINUOUS
10
176.591
20
-117.931
11
176.345
21
-117.911
0
LINE
8
BLACK
6
CONTINUOUS
10
176.345
20
-117.911
11
176.104
21
-117.854
0
LINE
8
BLACK
6
CONTINUOUS
10
176.104
20
-117.854
11
175.876
21
-117.759
0
LINE
8
BLACK
6
CONTINUOUS
10
175.876
20
-117.759
11
175.665
21
-117.63
0
LINE
8
BLACK
6
CONTINUOUS
10
175.665
20
-117.63
11
175.477
21
-117.47
0
LINE
8
BLACK
6
CONTINUOUS
10
175.477
20
-117.47
11
175.317
21
-117.282
0
LINE
8
BLACK
6
CONTINUOUS
10
175.317
20
-117.282
11
175.188
21
-117.071
0
LINE
8
BLACK
6
CONTINUOUS
10
175.188
20
-117.071
11
175.093
21
-116.843
0
LINE
8
BLACK
6
CONTINUOUS
10
175.093
20
-116.843
11
175.036
21
-116.602
0
LINE
8
BLACK
6
CONTINUOUS
10
175.036
20
-116.602
11
175.016
21
-116.356
0
LINE
8
BLACK
6
CONTINUOUS
10
175.016
20
-116.356
11
175.019
21
-116.321
0
LINE
8
BLACK
6
CONTINUOUS
10
175.019
20
-116.321
11
175.036
21
-116.109
0
LINE
8
BLACK
6
CONTINUOUS
10
175.036
20
-116.109
11
175.093
21
-115.869
0
LINE
8
BLACK
6
CONTINUOUS
10
175.227
20
-116.783
11
175.315
21
-117.001
0
LINE
8
BLACK
6
CONTINUOUS
10
175.315
20
-117.001
11
175.437
21
-117.2
0
LINE
8
BLACK
6
CONTINUOUS
10
175.437
20
-117.2
11
175.591
21
-117.377
0
LINE
8
BLACK
6
CONTINUOUS
10
175.591
20
-117.377
11
175.771
21
-117.527
0
LINE
8
BLACK
6
CONTINUOUS
10
175.771
20
-117.527
11
175.973
21
-117.645
0
LINE
8
BLACK
6
CONTINUOUS
10
175.973
20
-117.645
11
176.192
21
-117.729
0
LINE
8
BLACK
6
CONTINUOUS
10
176.192
20
-117.729
11
176.422
21
-117.776
0
LINE
8
BLACK
6
CONTINUOUS
10
176.422
20
-117.776
11
176.656
21
-117.784
0
LINE
8
BLACK
6
CONTINUOUS
10
176.656
20
-117.784
11
176.888
21
-117.754
0
LINE
8
BLACK
6
CONTINUOUS
10
176.888
20
-117.754
11
177.113
21
-117.687
0
LINE
8
BLACK
6
CONTINUOUS
10
177.113
20
-117.687
11
177.323
21
-117.584
0
LINE
8
BLACK
6
CONTINUOUS
10
177.323
20
-117.584
11
177.514
21
-117.448
0
LINE
8
BLACK
6
CONTINUOUS
10
177.514
20
-117.448
11
177.68
21
-117.283
0
LINE
8
BLACK
6
CONTINUOUS
10
177.68
20
-117.283
11
177.817
21
-117.092
0
LINE
8
BLACK
6
CONTINUOUS
10
177.817
20
-117.092
11
177.921
21
-116.882
0
LINE
8
BLACK
6
CONTINUOUS
10
177.921
20
-116.882
11
177.989
21
-116.658
0
LINE
8
BLACK
6
CONTINUOUS
10
177.989
20
-116.658
11
178.019
21
-116.426
0
LINE
8
BLACK
6
CONTINUOUS
10
178.019
20
-116.426
11
178.021
21
-116.356
0
LINE
8
BLACK
6
CONTINUOUS
10
178.021
20
-116.356
11
178.002
21
-116.122
0
LINE
8
BLACK
6
CONTINUOUS
10
178.002
20
-116.122
11
177.945
21
-115.895
0
LINE
8
BLACK
6
CONTINUOUS
10
177.945
20
-115.895
11
177.851
21
-115.68
0
LINE
8
BLACK
6
CONTINUOUS
10
177.851
20
-115.68
11
177.724
21
-115.483
0
LINE
8
BLACK
6
CONTINUOUS
10
177.724
20
-115.483
11
177.566
21
-115.31
0
LINE
8
BLACK
6
CONTINUOUS
10
177.566
20
-115.31
11
177.382
21
-115.165
0
LINE
8
BLACK
6
CONTINUOUS
10
177.382
20
-115.165
11
177.177
21
-115.052
0
LINE
8
BLACK
6
CONTINUOUS
10
177.177
20
-115.052
11
176.956
21
-114.973
0
LINE
8
BLACK
6
CONTINUOUS
10
176.956
20
-114.973
11
176.726
21
-114.932
0
LINE
8
BLACK
6
CONTINUOUS
10
176.726
20
-114.932
11
176.491
21
-114.929
0
LINE
8
BLACK
6
CONTINUOUS
10
176.491
20
-114.929
11
176.26
21
-114.965
0
LINE
8
BLACK
6
CONTINUOUS
10
176.26
20
-114.965
11
176.037
21
-115.038
0
LINE
8
BLACK
6
CONTINUOUS
10
176.037
20
-115.038
11
175.829
21
-115.146
0
LINE
8
BLACK
6
CONTINUOUS
10
175.829
20
-115.146
11
175.642
21
-115.287
0
LINE
8
BLACK
6
CONTINUOUS
10
175.642
20
-115.287
11
175.48
21
-115.456
0
LINE
8
BLACK
6
CONTINUOUS
10
175.48
20
-115.456
11
175.348
21
-115.65
0
LINE
8
BLACK
6
CONTINUOUS
10
175.348
20
-115.65
11
175.249
21
-115.862
0
LINE
8
BLACK
6
CONTINUOUS
10
175.249
20
-115.862
11
175.187
21
-116.088
0
LINE
8
BLACK
6
CONTINUOUS
10
175.187
20
-116.088
11
175.162
21
-116.321
0
LINE
8
BLACK
6
CONTINUOUS
10
175.162
20
-116.321
11
175.175
21
-116.555
0
LINE
8
BLACK
6
CONTINUOUS
10
175.175
20
-116.555
11
175.227
21
-116.783
0
LINE
8
BLACK
6
CONTINUOUS
10
198.002
20
-113.013
11
198.097
21
-112.785
0
LINE
8
BLACK
6
CONTINUOUS
10
198.097
20
-112.785
11
198.226
21
-112.574
0
LINE
8
BLACK
6
CONTINUOUS
10
198.226
20
-112.574
11
198.386
21
-112.386
0
LINE
8
BLACK
6
CONTINUOUS
10
198.386
20
-112.386
11
198.574
21
-112.226
0
LINE
8
BLACK
6
CONTINUOUS
10
198.574
20
-112.226
11
198.785
21
-112.097
0
LINE
8
BLACK
6
CONTINUOUS
10
198.785
20
-112.097
11
199.013
21
-112.002
0
LINE
8
BLACK
6
CONTINUOUS
10
199.013
20
-112.002
11
199.254
21
-111.944
0
LINE
8
BLACK
6
CONTINUOUS
10
199.254
20
-111.944
11
199.5
21
-111.925
0
LINE
8
BLACK
6
CONTINUOUS
10
199.5
20
-111.925
11
199.746
21
-111.944
0
LINE
8
BLACK
6
CONTINUOUS
10
199.746
20
-111.944
11
199.987
21
-112.002
0
LINE
8
BLACK
6
CONTINUOUS
10
199.987
20
-112.002
11
200.215
21
-112.097
0
LINE
8
BLACK
6
CONTINUOUS
10
200.215
20
-112.097
11
200.426
21
-112.226
0
LINE
8
BLACK
6
CONTINUOUS
10
200.426
20
-112.226
11
200.614
21
-112.386
0
LINE
8
BLACK
6
CONTINUOUS
10
200.614
20
-112.386
11
200.774
21
-112.574
0
LINE
8
BLACK
6
CONTINUOUS
10
200.774
20
-112.574
11
200.903
21
-112.785
0
LINE
8
BLACK
6
CONTINUOUS
10
200.903
20
-112.785
11
200.998
21
-113.013
0
LINE
8
BLACK
6
CONTINUOUS
10
200.998
20
-113.013
11
201.056
21
-113.254
0
LINE
8
BLACK
6
CONTINUOUS
10
201.056
20
-113.254
11
201.075
21
-113.5
0
LINE
8
BLACK
6
CONTINUOUS
10
201.075
20
-113.5
11
201.056
21
-113.746
0
LINE
8
BLACK
6
CONTINUOUS
10
201.056
20
-113.746
11
200.998
21
-113.987
0
LINE
8
BLACK
6
CONTINUOUS
10
200.998
20
-113.987
11
200.903
21
-114.215
0
LINE
8
BLACK
6
CONTINUOUS
10
200.903
20
-114.215
11
200.774
21
-114.426
0
LINE
8
BLACK
6
CONTINUOUS
10
200.774
20
-114.426
11
200.614
21
-114.614
0
LINE
8
BLACK
6
CONTINUOUS
10
200.614
20
-114.614
11
200.426
21
-114.774
0
LINE
8
BLACK
6
CONTINUOUS
10
200.426
20
-114.774
11
200.215
21
-114.903
0
LINE
8
BLACK
6
CONTINUOUS
10
200.215
20
-114.903
11
199.987
21
-114.998
0
LINE
8
BLACK
6
CONTINUOUS
10
199.987
20
-114.998
11
199.746
21
-115.056
0
LINE
8
BLACK
6
CONTINUOUS
10
199.746
20
-115.056
11
199.5
21
-115.075
0
LINE
8
BLACK
6
CONTINUOUS
10
199.5
20
-115.075
11
199.254
21
-115.056
0
LINE
8
BLACK
6
CONTINUOUS
10
199.254
20
-115.056
11
199.013
21
-114.998
0
LINE
8
BLACK
6
CONTINUOUS
10
199.013
20
-114.998
11
198.785
21
-114.903
0
LINE
8
BLACK
6
CONTINUOUS
10
198.785
20
-114.903
11
198.574
21
-114.774
0
LINE
8
BLACK
6
CONTINUOUS
10
198.574
20
-114.774
11
198.386
21
-114.614
0
LINE
8
BLACK
6
CONTINUOUS
10
198.386
20
-114.614
11
198.226
21
-114.426
0
LINE
8
BLACK
6
CONTINUOUS
10
198.226
20
-114.426
11
198.097
21
-114.215
0
LINE
8
BLACK
6
CONTINUOUS
10
198.097
20
-114.215
11
198.002
21
-113.987
0
LINE
8
BLACK
6
CONTINUOUS
10
198.002
20
-113.987
11
197.944
21
-113.746
0
LINE
8
BLACK
6
CONTINUOUS
10
197.944
20
-113.746
11
197.925
21
-113.5
0
LINE
8
BLACK
6
CONTINUOUS
10
197.925
20
-113.5
11
197.928
21
-113.465
0
LINE
8
BLACK
6
CONTINUOUS
10
197.928
20
-113.465
11
197.944
21
-113.254
0
LINE
8
BLACK
6
CONTINUOUS
10
197.944
20
-113.254
11
198.002
21
-113.013
0
LINE
8
BLACK
6
CONTINUOUS
10
198.136
20
-113.928
11
198.224
21
-114.145
0
LINE
8
BLACK
6
CONTINUOUS
10
198.224
20
-114.145
11
198.346
21
-114.344
0
LINE
8
BLACK
6
CONTINUOUS
10
198.346
20
-114.344
11
198.5
21
-114.522
0
LINE
8
BLACK
6
CONTINUOUS
10
198.5
20
-114.522
11
198.68
21
-114.671
0
LINE
8
BLACK
6
CONTINUOUS
10
198.68
20
-114.671
11
198.882
21
-114.79
0
LINE
8
BLACK
6
CONTINUOUS
10
198.882
20
-114.79
11
199.101
21
-114.873
0
LINE
8
BLACK
6
CONTINUOUS
10
199.101
20
-114.873
11
199.331
21
-114.92
0
LINE
8
BLACK
6
CONTINUOUS
10
199.331
20
-114.92
11
199.565
21
-114.928
0
LINE
8
BLACK
6
CONTINUOUS
10
199.565
20
-114.928
11
199.797
21
-114.899
0
LINE
8
BLACK
6
CONTINUOUS
10
199.797
20
-114.899
11
200.022
21
-114.831
0
LINE
8
BLACK
6
CONTINUOUS
10
200.022
20
-114.831
11
200.232
21
-114.728
0
LINE
8
BLACK
6
CONTINUOUS
10
200.232
20
-114.728
11
200.423
21
-114.592
0
LINE
8
BLACK
6
CONTINUOUS
10
200.423
20
-114.592
11
200.589
21
-114.427
0
LINE
8
BLACK
6
CONTINUOUS
10
200.589
20
-114.427
11
200.726
21
-114.236
0
LINE
8
BLACK
6
CONTINUOUS
10
200.726
20
-114.236
11
200.829
21
-114.026
0
LINE
8
BLACK
6
CONTINUOUS
10
200.829
20
-114.026
11
200.898
21
-113.802
0
LINE
8
BLACK
6
CONTINUOUS
10
200.898
20
-113.802
11
200.928
21
-113.57
0
LINE
8
BLACK
6
CONTINUOUS
10
200.928
20
-113.57
11
200.93
21
-113.5
0
LINE
8
BLACK
6
CONTINUOUS
10
200.93
20
-113.5
11
200.911
21
-113.266
0
LINE
8
BLACK
6
CONTINUOUS
10
200.911
20
-113.266
11
200.854
21
-113.039
0
LINE
8
BLACK
6
CONTINUOUS
10
200.854
20
-113.039
11
200.76
21
-112.824
0
LINE
8
BLACK
6
CONTINUOUS
10
200.76
20
-112.824
11
200.633
21
-112.628
0
LINE
8
BLACK
6
CONTINUOUS
10
200.633
20
-112.628
11
200.475
21
-112.454
0
LINE
8
BLACK
6
CONTINUOUS
10
200.475
20
-112.454
11
200.291
21
-112.309
0
LINE
8
BLACK
6
CONTINUOUS
10
200.291
20
-112.309
11
200.086
21
-112.196
0
LINE
8
BLACK
6
CONTINUOUS
10
200.086
20
-112.196
11
199.865
21
-112.118
0
LINE
8
BLACK
6
CONTINUOUS
10
199.865
20
-112.118
11
199.635
21
-112.076
0
LINE
8
BLACK
6
CONTINUOUS
10
199.635
20
-112.076
11
199.4
21
-112.074
0
LINE
8
BLACK
6
CONTINUOUS
10
199.4
20
-112.074
11
199.169
21
-112.109
0
LINE
8
BLACK
6
CONTINUOUS
10
199.169
20
-112.109
11
198.946
21
-112.182
0
LINE
8
BLACK
6
CONTINUOUS
10
198.946
20
-112.182
11
198.738
21
-112.29
0
LINE
8
BLACK
6
CONTINUOUS
10
198.738
20
-112.29
11
198.551
21
-112.431
0
LINE
8
BLACK
6
CONTINUOUS
10
198.551
20
-112.431
11
198.389
21
-112.6
0
LINE
8
BLACK
6
CONTINUOUS
10
198.389
20
-112.6
11
198.257
21
-112.794
0
LINE
8
BLACK
6
CONTINUOUS
10
198.257
20
-112.794
11
198.158
21
-113.006
0
LINE
8
BLACK
6
CONTINUOUS
10
198.158
20
-113.006
11
198.095
21
-113.232
0
LINE
8
BLACK
6
CONTINUOUS
10
198.095
20
-113.232
11
198.071
21
-113.465
0
LINE
8
BLACK
6
CONTINUOUS
10
198.071
20
-113.465
11
198.084
21
-113.699
0
LINE
8
BLACK
6
CONTINUOUS
10
198.084
20
-113.699
11
198.136
21
-113.928
0
LINE
8
BLACK
6
CONTINUOUS
10
183.002
20
-107.013
11
183.097
21
-106.785
0
LINE
8
BLACK
6
CONTINUOUS
10
183.097
20
-106.785
11
183.226
21
-106.574
0
LINE
8
BLACK
6
CONTINUOUS
10
183.226
20
-106.574
11
183.386
21
-106.386
0
LINE
8
BLACK
6
CONTINUOUS
10
183.386
20
-106.386
11
183.574
21
-106.226
0
LINE
8
BLACK
6
CONTINUOUS
10
183.574
20
-106.226
11
183.785
21
-106.097
0
LINE
8
BLACK
6
CONTINUOUS
10
183.785
20
-106.097
11
184.013
21
-106.002
0
LINE
8
BLACK
6
CONTINUOUS
10
184.013
20
-106.002
11
184.254
21
-105.944
0
LINE
8
BLACK
6
CONTINUOUS
10
184.254
20
-105.944
11
184.5
21
-105.925
0
LINE
8
BLACK
6
CONTINUOUS
10
184.5
20
-105.925
11
184.746
21
-105.944
0
LINE
8
BLACK
6
CONTINUOUS
10
184.746
20
-105.944
11
184.987
21
-106.002
0
LINE
8
BLACK
6
CONTINUOUS
10
184.987
20
-106.002
11
185.215
21
-106.097
0
LINE
8
BLACK
6
CONTINUOUS
10
185.215
20
-106.097
11
185.426
21
-106.226
0
LINE
8
BLACK
6
CONTINUOUS
10
185.426
20
-106.226
11
185.614
21
-106.386
0
LINE
8
BLACK
6
CONTINUOUS
10
185.614
20
-106.386
11
185.774
21
-106.574
0
LINE
8
BLACK
6
CONTINUOUS
10
185.774
20
-106.574
11
185.903
21
-106.785
0
LINE
8
BLACK
6
CONTINUOUS
10
185.903
20
-106.785
11
185.998
21
-107.013
0
LINE
8
BLACK
6
CONTINUOUS
10
185.998
20
-107.013
11
186.056
21
-107.254
0
LINE
8
BLACK
6
CONTINUOUS
10
186.056
20
-107.254
11
186.075
21
-107.5
0
LINE
8
BLACK
6
CONTINUOUS
10
186.075
20
-107.5
11
186.056
21
-107.746
0
LINE
8
BLACK
6
CONTINUOUS
10
186.056
20
-107.746
11
185.998
21
-107.987
0
LINE
8
BLACK
6
CONTINUOUS
10
185.998
20
-107.987
11
185.903
21
-108.215
0
LINE
8
BLACK
6
CONTINUOUS
10
185.903
20
-108.215
11
185.774
21
-108.426
0
LINE
8
BLACK
6
CONTINUOUS
10
185.774
20
-108.426
11
185.614
21
-108.614
0
LINE
8
BLACK
6
CONTINUOUS
10
185.614
20
-108.614
11
185.426
21
-108.774
0
LINE
8
BLACK
6
CONTINUOUS
10
185.426
20
-108.774
11
185.215
21
-108.903
0
LINE
8
BLACK
6
CONTINUOUS
10
185.215
20
-108.903
11
184.987
21
-108.998
0
LINE
8
BLACK
6
CONTINUOUS
10
184.987
20
-108.998
11
184.746
21
-109.056
0
LINE
8
BLACK
6
CONTINUOUS
10
184.746
20
-109.056
11
184.5
21
-109.075
0
LINE
8
BLACK
6
CONTINUOUS
10
184.5
20
-109.075
11
184.254
21
-109.056
0
LINE
8
BLACK
6
CONTINUOUS
10
184.254
20
-109.056
11
184.013
21
-108.998
0
LINE
8
BLACK
6
CONTINUOUS
10
184.013
20
-108.998
11
183.785
21
-108.903
0
LINE
8
BLACK
6
CONTINUOUS
10
183.785
20
-108.903
11
183.574
21
-108.774
0
LINE
8
BLACK
6
CONTINUOUS
10
183.574
20
-108.774
11
183.386
21
-108.614
0
LINE
8
BLACK
6
CONTINUOUS
10
183.386
20
-108.614
11
183.226
21
-108.426
0
LINE
8
BLACK
6
CONTINUOUS
10
183.226
20
-108.426
11
183.097
21
-108.215
0
LINE
8
BLACK
6
CONTINUOUS
10
183.097
20
-108.215
11
183.002
21
-107.987
0
LINE
8
BLACK
6
CONTINUOUS
10
183.002
20
-107.987
11
182.944
21
-107.746
0
LINE
8
BLACK
6
CONTINUOUS
10
182.944
20
-107.746
11
182.925
21
-107.5
0
LINE
8
BLACK
6
CONTINUOUS
10
182.925
20
-107.5
11
182.928
21
-107.465
0
LINE
8
BLACK
6
CONTINUOUS
10
182.928
20
-107.465
11
182.944
21
-107.254
0
LINE
8
BLACK
6
CONTINUOUS
10
182.944
20
-107.254
11
183.002
21
-107.013
0
LINE
8
BLACK
6
CONTINUOUS
10
183.136
20
-107.928
11
183.224
21
-108.145
0
LINE
8
BLACK
6
CONTINUOUS
10
183.224
20
-108.145
11
183.346
21
-108.344
0
LINE
8
BLACK
6
CONTINUOUS
10
183.346
20
-108.344
11
183.5
21
-108.522
0
LINE
8
BLACK
6
CONTINUOUS
10
183.5
20
-108.522
11
183.68
21
-108.671
0
LINE
8
BLACK
6
CONTINUOUS
10
183.68
20
-108.671
11
183.882
21
-108.79
0
LINE
8
BLACK
6
CONTINUOUS
10
183.882
20
-108.79
11
184.101
21
-108.873
0
LINE
8
BLACK
6
CONTINUOUS
10
184.101
20
-108.873
11
184.331
21
-108.92
0
LINE
8
BLACK
6
CONTINUOUS
10
184.331
20
-108.92
11
184.565
21
-108.928
0
LINE
8
BLACK
6
CONTINUOUS
10
184.565
20
-108.928
11
184.797
21
-108.899
0
LINE
8
BLACK
6
CONTINUOUS
10
184.797
20
-108.899
11
185.022
21
-108.831
0
LINE
8
BLACK
6
CONTINUOUS
10
185.022
20
-108.831
11
185.232
21
-108.728
0
LINE
8
BLACK
6
CONTINUOUS
10
185.232
20
-108.728
11
185.423
21
-108.592
0
LINE
8
BLACK
6
CONTINUOUS
10
185.423
20
-108.592
11
185.589
21
-108.427
0
LINE
8
BLACK
6
CONTINUOUS
10
185.589
20
-108.427
11
185.726
21
-108.236
0
LINE
8
BLACK
6
CONTINUOUS
10
185.726
20
-108.236
11
185.829
21
-108.026
0
LINE
8
BLACK
6
CONTINUOUS
10
185.829
20
-108.026
11
185.898
21
-107.802
0
LINE
8
BLACK
6
CONTINUOUS
10
185.898
20
-107.802
11
185.928
21
-107.57
0
LINE
8
BLACK
6
CONTINUOUS
10
185.928
20
-107.57
11
185.93
21
-107.5
0
LINE
8
BLACK
6
CONTINUOUS
10
185.93
20
-107.5
11
185.911
21
-107.266
0
LINE
8
BLACK
6
CONTINUOUS
10
185.911
20
-107.266
11
185.854
21
-107.039
0
LINE
8
BLACK
6
CONTINUOUS
10
185.854
20
-107.039
11
185.76
21
-106.824
0
LINE
8
BLACK
6
CONTINUOUS
10
185.76
20
-106.824
11
185.633
21
-106.628
0
LINE
8
BLACK
6
CONTINUOUS
10
185.633
20
-106.628
11
185.475
21
-106.454
0
LINE
8
BLACK
6
CONTINUOUS
10
185.475
20
-106.454
11
185.291
21
-106.309
0
LINE
8
BLACK
6
CONTINUOUS
10
185.291
20
-106.309
11
185.086
21
-106.196
0
LINE
8
BLACK
6
CONTINUOUS
10
185.086
20
-106.196
11
184.865
21
-106.118
0
LINE
8
BLACK
6
CONTINUOUS
10
184.865
20
-106.118
11
184.635
21
-106.076
0
LINE
8
BLACK
6
CONTINUOUS
10
184.635
20
-106.076
11
184.4
21
-106.074
0
LINE
8
BLACK
6
CONTINUOUS
10
184.4
20
-106.074
11
184.169
21
-106.109
0
LINE
8
BLACK
6
CONTINUOUS
10
184.169
20
-106.109
11
183.946
21
-106.182
0
LINE
8
BLACK
6
CONTINUOUS
10
183.946
20
-106.182
11
183.738
21
-106.29
0
LINE
8
BLACK
6
CONTINUOUS
10
183.738
20
-106.29
11
183.551
21
-106.431
0
LINE
8
BLACK
6
CONTINUOUS
10
183.551
20
-106.431
11
183.389
21
-106.6
0
LINE
8
BLACK
6
CONTINUOUS
10
183.389
20
-106.6
11
183.257
21
-106.794
0
LINE
8
BLACK
6
CONTINUOUS
10
183.257
20
-106.794
11
183.158
21
-107.006
0
LINE
8
BLACK
6
CONTINUOUS
10
183.158
20
-107.006
11
183.095
21
-107.232
0
LINE
8
BLACK
6
CONTINUOUS
10
183.095
20
-107.232
11
183.071
21
-107.465
0
LINE
8
BLACK
6
CONTINUOUS
10
183.071
20
-107.465
11
183.084
21
-107.699
0
LINE
8
BLACK
6
CONTINUOUS
10
183.084
20
-107.699
11
183.136
21
-107.928
0
LINE
8
BLACK
6
CONTINUOUS
10
161.502
20
-91.5133
11
161.597
21
-91.285
0
LINE
8
BLACK
6
CONTINUOUS
10
161.597
20
-91.285
11
161.726
21
-91.0742
0
LINE
8
BLACK
6
CONTINUOUS
10
161.726
20
-91.0742
11
161.886
21
-90.8863
0
LINE
8
BLACK
6
CONTINUOUS
10
161.886
20
-90.8863
11
162.074
21
-90.7258
0
LINE
8
BLACK
6
CONTINUOUS
10
162.074
20
-90.7258
11
162.285
21
-90.5967
0
LINE
8
BLACK
6
CONTINUOUS
10
162.285
20
-90.5967
11
162.513
21
-90.5021
0
LINE
8
BLACK
6
CONTINUOUS
10
162.513
20
-90.5021
11
162.754
21
-90.4444
0
LINE
8
BLACK
6
CONTINUOUS
10
162.754
20
-90.4444
11
163
21
-90.425
0
LINE
8
BLACK
6
CONTINUOUS
10
163
20
-90.425
11
163.246
21
-90.4444
0
LINE
8
BLACK
6
CONTINUOUS
10
163.246
20
-90.4444
11
163.487
21
-90.5021
0
LINE
8
BLACK
6
CONTINUOUS
10
163.487
20
-90.5021
11
163.715
21
-90.5967
0
LINE
8
BLACK
6
CONTINUOUS
10
163.715
20
-90.5967
11
163.926
21
-90.7258
0
LINE
8
BLACK
6
CONTINUOUS
10
163.926
20
-90.7258
11
164.114
21
-90.8863
0
LINE
8
BLACK
6
CONTINUOUS
10
164.114
20
-90.8863
11
164.274
21
-91.0742
0
LINE
8
BLACK
6
CONTINUOUS
10
164.274
20
-91.0742
11
164.403
21
-91.285
0
LINE
8
BLACK
6
CONTINUOUS
10
164.403
20
-91.285
11
164.498
21
-91.5133
0
LINE
8
BLACK
6
CONTINUOUS
10
164.498
20
-91.5133
11
164.556
21
-91.7536
0
LINE
8
BLACK
6
CONTINUOUS
10
164.556
20
-91.7536
11
164.575
21
-92
0
LINE
8
BLACK
6
CONTINUOUS
10
164.575
20
-92
11
164.556
21
-92.2464
0
LINE
8
BLACK
6
CONTINUOUS
10
164.556
20
-92.2464
11
164.498
21
-92.4867
0
LINE
8
BLACK
6
CONTINUOUS
10
164.498
20
-92.4867
11
164.403
21
-92.715
0
LINE
8
BLACK
6
CONTINUOUS
10
164.403
20
-92.715
11
164.274
21
-92.9258
0
LINE
8
BLACK
6
CONTINUOUS
10
164.274
20
-92.9258
11
164.114
21
-93.1137
0
LINE
8
BLACK
6
CONTINUOUS
10
164.114
20
-93.1137
11
163.926
21
-93.2742
0
LINE
8
BLACK
6
CONTINUOUS
10
163.926
20
-93.2742
11
163.715
21
-93.4033
0
LINE
8
BLACK
6
CONTINUOUS
10
163.715
20
-93.4033
11
163.487
21
-93.4979
0
LINE
8
BLACK
6
CONTINUOUS
10
163.487
20
-93.4979
11
163.246
21
-93.5556
0
LINE
8
BLACK
6
CONTINUOUS
10
163.246
20
-93.5556
11
163
21
-93.575
0
LINE
8
BLACK
6
CONTINUOUS
10
163
20
-93.575
11
162.754
21
-93.5556
0
LINE
8
BLACK
6
CONTINUOUS
10
162.754
20
-93.5556
11
162.513
21
-93.4979
0
LINE
8
BLACK
6
CONTINUOUS
10
162.513
20
-93.4979
11
162.285
21
-93.4033
0
LINE
8
BLACK
6
CONTINUOUS
10
162.285
20
-93.4033
11
162.074
21
-93.2742
0
LINE
8
BLACK
6
CONTINUOUS
10
162.074
20
-93.2742
11
161.886
21
-93.1137
0
LINE
8
BLACK
6
CONTINUOUS
10
161.886
20
-93.1137
11
161.726
21
-92.9258
0
LINE
8
BLACK
6
CONTINUOUS
10
161.726
20
-92.9258
11
161.597
21
-92.715
0
LINE
8
BLACK
6
CONTINUOUS
10
161.597
20
-92.715
11
161.502
21
-92.4867
0
LINE
8
BLACK
6
CONTINUOUS
10
161.502
20
-92.4867
11
161.444
21
-92.2464
0
LINE
8
BLACK
6
CONTINUOUS
10
161.444
20
-92.2464
11
161.425
21
-92
0
LINE
8
BLACK
6
CONTINUOUS
10
161.425
20
-92
11
161.428
21
-91.9651
0
LINE
8
BLACK
6
CONTINUOUS
10
161.428
20
-91.9651
11
161.444
21
-91.7536
0
LINE
8
BLACK
6
CONTINUOUS
10
161.444
20
-91.7536
11
161.502
21
-91.5133
0
LINE
8
BLACK
6
CONTINUOUS
10
161.636
20
-92.4276
11
161.724
21
-92.6447
0
LINE
8
BLACK
6
CONTINUOUS
10
161.724
20
-92.6447
11
161.846
21
-92.8445
0
LINE
8
BLACK
6
CONTINUOUS
10
161.846
20
-92.8445
11
162
21
-93.0216
0
LINE
8
BLACK
6
CONTINUOUS
10
162
20
-93.0216
11
162.18
21
-93.1713
0
LINE
8
BLACK
6
CONTINUOUS
10
162.18
20
-93.1713
11
162.382
21
-93.2895
0
LINE
8
BLACK
6
CONTINUOUS
10
162.382
20
-93.2895
11
162.601
21
-93.3731
0
LINE
8
BLACK
6
CONTINUOUS
10
162.601
20
-93.3731
11
162.831
21
-93.4198
0
LINE
8
BLACK
6
CONTINUOUS
10
162.831
20
-93.4198
11
163.065
21
-93.4284
0
LINE
8
BLACK
6
CONTINUOUS
10
163.065
20
-93.4284
11
163.297
21
-93.3986
0
LINE
8
BLACK
6
CONTINUOUS
10
163.297
20
-93.3986
11
163.522
21
-93.3313
0
LINE
8
BLACK
6
CONTINUOUS
10
163.522
20
-93.3313
11
163.732
21
-93.2282
0
LINE
8
BLACK
6
CONTINUOUS
10
163.732
20
-93.2282
11
163.923
21
-93.0921
0
LINE
8
BLACK
6
CONTINUOUS
10
163.923
20
-93.0921
11
164.089
21
-92.9267
0
LINE
8
BLACK
6
CONTINUOUS
10
164.089
20
-92.9267
11
164.226
21
-92.7364
0
LINE
8
BLACK
6
CONTINUOUS
10
164.226
20
-92.7364
11
164.329
21
-92.5264
0
LINE
8
BLACK
6
CONTINUOUS
10
164.329
20
-92.5264
11
164.398
21
-92.3022
0
LINE
8
BLACK
6
CONTINUOUS
10
164.398
20
-92.3022
11
164.428
21
-92.0699
0
LINE
8
BLACK
6
CONTINUOUS
10
164.428
20
-92.0699
11
164.43
21
-92
0
LINE
8
BLACK
6
CONTINUOUS
10
164.43
20
-92
11
164.411
21
-91.7665
0
LINE
8
BLACK
6
CONTINUOUS
10
164.411
20
-91.7665
11
164.354
21
-91.5392
0
LINE
8
BLACK
6
CONTINUOUS
10
164.354
20
-91.5392
11
164.26
21
-91.3243
0
LINE
8
BLACK
6
CONTINUOUS
10
164.26
20
-91.3243
11
164.133
21
-91.1276
0
LINE
8
BLACK
6
CONTINUOUS
10
164.133
20
-91.1276
11
163.975
21
-90.9542
0
LINE
8
BLACK
6
CONTINUOUS
10
163.975
20
-90.9542
11
163.791
21
-90.809
0
LINE
8
BLACK
6
CONTINUOUS
10
163.791
20
-90.809
11
163.586
21
-90.6958
0
LINE
8
BLACK
6
CONTINUOUS
10
163.586
20
-90.6958
11
163.365
21
-90.6176
0
LINE
8
BLACK
6
CONTINUOUS
10
163.365
20
-90.6176
11
163.135
21
-90.5765
0
LINE
8
BLACK
6
CONTINUOUS
10
163.135
20
-90.5765
11
162.9
21
-90.5736
0
LINE
8
BLACK
6
CONTINUOUS
10
162.9
20
-90.5736
11
162.669
21
-90.609
0
LINE
8
BLACK
6
CONTINUOUS
10
162.669
20
-90.609
11
162.446
21
-90.6818
0
LINE
8
BLACK
6
CONTINUOUS
10
162.446
20
-90.6818
11
162.238
21
-90.79
0
LINE
8
BLACK
6
CONTINUOUS
10
162.238
20
-90.79
11
162.051
21
-90.9307
0
LINE
8
BLACK
6
CONTINUOUS
10
162.051
20
-90.9307
11
161.889
21
-91.1001
0
LINE
8
BLACK
6
CONTINUOUS
10
161.889
20
-91.1001
11
161.757
21
-91.2937
0
LINE
8
BLACK
6
CONTINUOUS
10
161.757
20
-91.2937
11
161.658
21
-91.5063
0
LINE
8
BLACK
6
CONTINUOUS
10
161.658
20
-91.5063
11
161.595
21
-91.7321
0
LINE
8
BLACK
6
CONTINUOUS
10
161.595
20
-91.7321
11
161.571
21
-91.9651
0
LINE
8
BLACK
6
CONTINUOUS
10
161.571
20
-91.9651
11
161.584
21
-92.199
0
LINE
8
BLACK
6
CONTINUOUS
10
161.584
20
-92.199
11
161.636
21
-92.4276
0
LINE
8
BLACK
6
CONTINUOUS
10
107.502
20
-89.0133
11
107.597
21
-88.785
0
LINE
8
BLACK
6
CONTINUOUS
10
107.597
20
-88.785
11
107.726
21
-88.5742
0
LINE
8
BLACK
6
CONTINUOUS
10
107.726
20
-88.5742
11
107.886
21
-88.3863
0
LINE
8
BLACK
6
CONTINUOUS
10
107.886
20
-88.3863
11
108.074
21
-88.2258
0
LINE
8
BLACK
6
CONTINUOUS
10
108.074
20
-88.2258
11
108.285
21
-88.0967
0
LINE
8
BLACK
6
CONTINUOUS
10
108.285
20
-88.0967
11
108.513
21
-88.0021
0
LINE
8
BLACK
6
CONTINUOUS
10
108.513
20
-88.0021
11
108.754
21
-87.9444
0
LINE
8
BLACK
6
CONTINUOUS
10
108.754
20
-87.9444
11
109
21
-87.925
0
LINE
8
BLACK
6
CONTINUOUS
10
109
20
-87.925
11
109.246
21
-87.9444
0
LINE
8
BLACK
6
CONTINUOUS
10
109.246
20
-87.9444
11
109.487
21
-88.0021
0
LINE
8
BLACK
6
CONTINUOUS
10
109.487
20
-88.0021
11
109.715
21
-88.0967
0
LINE
8
BLACK
6
CONTINUOUS
10
109.715
20
-88.0967
11
109.926
21
-88.2258
0
LINE
8
BLACK
6
CONTINUOUS
10
109.926
20
-88.2258
11
110.114
21
-88.3863
0
LINE
8
BLACK
6
CONTINUOUS
10
110.114
20
-88.3863
11
110.274
21
-88.5742
0
LINE
8
BLACK
6
CONTINUOUS
10
110.274
20
-88.5742
11
110.403
21
-88.785
0
LINE
8
BLACK
6
CONTINUOUS
10
110.403
20
-88.785
11
110.498
21
-89.0133
0
LINE
8
BLACK
6
CONTINUOUS
10
110.498
20
-89.0133
11
110.556
21
-89.2536
0
LINE
8
BLACK
6
CONTINUOUS
10
110.556
20
-89.2536
11
110.575
21
-89.5
0
LINE
8
BLACK
6
CONTINUOUS
10
110.575
20
-89.5
11
110.556
21
-89.7464
0
LINE
8
BLACK
6
CONTINUOUS
10
110.556
20
-89.7464
11
110.498
21
-89.9867
0
LINE
8
BLACK
6
CONTINUOUS
10
110.498
20
-89.9867
11
110.403
21
-90.215
0
LINE
8
BLACK
6
CONTINUOUS
10
110.403
20
-90.215
11
110.274
21
-90.4258
0
LINE
8
BLACK
6
CONTINUOUS
10
110.274
20
-90.4258
11
110.114
21
-90.6137
0
LINE
8
BLACK
6
CONTINUOUS
10
110.114
20
-90.6137
11
109.926
21
-90.7742
0
LINE
8
BLACK
6
CONTINUOUS
10
109.926
20
-90.7742
11
109.715
21
-90.9033
0
LINE
8
BLACK
6
CONTINUOUS
10
109.715
20
-90.9033
11
109.487
21
-90.9979
0
LINE
8
BLACK
6
CONTINUOUS
10
109.487
20
-90.9979
11
109.246
21
-91.0556
0
LINE
8
BLACK
6
CONTINUOUS
10
109.246
20
-91.0556
11
109
21
-91.075
0
LINE
8
BLACK
6
CONTINUOUS
10
109
20
-91.075
11
108.754
21
-91.0556
0
LINE
8
BLACK
6
CONTINUOUS
10
108.754
20
-91.0556
11
108.513
21
-90.9979
0
LINE
8
BLACK
6
CONTINUOUS
10
108.513
20
-90.9979
11
108.285
21
-90.9033
0
LINE
8
BLACK
6
CONTINUOUS
10
108.285
20
-90.9033
11
108.074
21
-90.7742
0
LINE
8
BLACK
6
CONTINUOUS
10
108.074
20
-90.7742
11
107.886
21
-90.6137
0
LINE
8
BLACK
6
CONTINUOUS
10
107.886
20
-90.6137
11
107.726
21
-90.4258
0
LINE
8
BLACK
6
CONTINUOUS
10
107.726
20
-90.4258
11
107.597
21
-90.215
0
LINE
8
BLACK
6
CONTINUOUS
10
107.597
20
-90.215
11
107.502
21
-89.9867
0
LINE
8
BLACK
6
CONTINUOUS
10
107.502
20
-89.9867
11
107.444
21
-89.7464
0
LINE
8
BLACK
6
CONTINUOUS
10
107.444
20
-89.7464
11
107.425
21
-89.5
0
LINE
8
BLACK
6
CONTINUOUS
10
107.425
20
-89.5
11
107.428
21
-89.4651
0
LINE
8
BLACK
6
CONTINUOUS
10
107.428
20
-89.4651
11
107.444
21
-89.2536
0
LINE
8
BLACK
6
CONTINUOUS
10
107.444
20
-89.2536
11
107.502
21
-89.0133
0
LINE
8
BLACK
6
CONTINUOUS
10
107.636
20
-89.9276
11
107.724
21
-90.1447
0
LINE
8
BLACK
6
CONTINUOUS
10
107.724
20
-90.1447
11
107.846
21
-90.3445
0
LINE
8
BLACK
6
CONTINUOUS
10
107.846
20
-90.3445
11
108
21
-90.5216
0
LINE
8
BLACK
6
CONTINUOUS
10
108
20
-90.5216
11
108.18
21
-90.6713
0
LINE
8
BLACK
6
CONTINUOUS
10
108.18
20
-90.6713
11
108.382
21
-90.7895
0
LINE
8
BLACK
6
CONTINUOUS
10
108.382
20
-90.7895
11
108.601
21
-90.8731
0
LINE
8
BLACK
6
CONTINUOUS
10
108.601
20
-90.8731
11
108.831
21
-90.9198
0
LINE
8
BLACK
6
CONTINUOUS
10
108.831
20
-90.9198
11
109.065
21
-90.9284
0
LINE
8
BLACK
6
CONTINUOUS
10
109.065
20
-90.9284
11
109.297
21
-90.8986
0
LINE
8
BLACK
6
CONTINUOUS
10
109.297
20
-90.8986
11
109.522
21
-90.8313
0
LINE
8
BLACK
6
CONTINUOUS
10
109.522
20
-90.8313
11
109.732
21
-90.7282
0
LINE
8
BLACK
6
CONTINUOUS
10
109.732
20
-90.7282
11
109.923
21
-90.5921
0
LINE
8
BLACK
6
CONTINUOUS
10
109.923
20
-90.5921
11
110.089
21
-90.4267
0
LINE
8
BLACK
6
CONTINUOUS
10
110.089
20
-90.4267
11
110.226
21
-90.2364
0
LINE
8
BLACK
6
CONTINUOUS
10
110.226
20
-90.2364
11
110.329
21
-90.0264
0
LINE
8
BLACK
6
CONTINUOUS
10
110.329
20
-90.0264
11
110.398
21
-89.8022
0
LINE
8
BLACK
6
CONTINUOUS
10
110.398
20
-89.8022
11
110.428
21
-89.5699
0
LINE
8
BLACK
6
CONTINUOUS
10
110.428
20
-89.5699
11
110.43
21
-89.5
0
LINE
8
BLACK
6
CONTINUOUS
10
110.43
20
-89.5
11
110.411
21
-89.2665
0
LINE
8
BLACK
6
CONTINUOUS
10
110.411
20
-89.2665
11
110.354
21
-89.0392
0
LINE
8
BLACK
6
CONTINUOUS
10
110.354
20
-89.0392
11
110.26
21
-88.8243
0
LINE
8
BLACK
6
CONTINUOUS
10
110.26
20
-88.8243
11
110.133
21
-88.6276
0
LINE
8
BLACK
6
CONTINUOUS
10
110.133
20
-88.6276
11
109.975
21
-88.4542
0
LINE
8
BLACK
6
CONTINUOUS
10
109.975
20
-88.4542
11
109.791
21
-88.309
0
LINE
8
BLACK
6
CONTINUOUS
10
109.791
20
-88.309
11
109.586
21
-88.1958
0
LINE
8
BLACK
6
CONTINUOUS
10
109.586
20
-88.1958
11
109.365
21
-88.1176
0
LINE
8
BLACK
6
CONTINUOUS
10
109.365
20
-88.1176
11
109.135
21
-88.0765
0
LINE
8
BLACK
6
CONTINUOUS
10
109.135
20
-88.0765
11
108.9
21
-88.0736
0
LINE
8
BLACK
6
CONTINUOUS
10
108.9
20
-88.0736
11
108.669
21
-88.109
0
LINE
8
BLACK
6
CONTINUOUS
10
108.669
20
-88.109
11
108.446
21
-88.1818
0
LINE
8
BLACK
6
CONTINUOUS
10
108.446
20
-88.1818
11
108.238
21
-88.29
0
LINE
8
BLACK
6
CONTINUOUS
10
108.238
20
-88.29
11
108.051
21
-88.4307
0
LINE
8
BLACK
6
CONTINUOUS
10
108.051
20
-88.4307
11
107.889
21
-88.6001
0
LINE
8
BLACK
6
CONTINUOUS
10
107.889
20
-88.6001
11
107.757
21
-88.7937
0
LINE
8
BLACK
6
CONTINUOUS
10
107.757
20
-88.7937
11
107.658
21
-89.0063
0
LINE
8
BLACK
6
CONTINUOUS
10
107.658
20
-89.0063
11
107.595
21
-89.2321
0
LINE
8
BLACK
6
CONTINUOUS
10
107.595
20
-89.2321
11
107.571
21
-89.4651
0
LINE
8
BLACK
6
CONTINUOUS
10
107.571
20
-89.4651
11
107.584
21
-89.699
0
LINE
8
BLACK
6
CONTINUOUS
10
107.584
20
-89.699
11
107.636
21
-89.9276
0
LINE
8
BLACK
6
CONTINUOUS
10
161.502
20
-57.5133
11
161.597
21
-57.285
0
LINE
8
BLACK
6
CONTINUOUS
10
161.597
20
-57.285
11
161.726
21
-57.0742
0
LINE
8
BLACK
6
CONTINUOUS
10
161.726
20
-57.0742
11
161.886
21
-56.8863
0
LINE
8
BLACK
6
CONTINUOUS
10
161.886
20
-56.8863
11
162.074
21
-56.7258
0
LINE
8
BLACK
6
CONTINUOUS
10
162.074
20
-56.7258
11
162.285
21
-56.5967
0
LINE
8
BLACK
6
CONTINUOUS
10
162.285
20
-56.5967
11
162.513
21
-56.5021
0
LINE
8
BLACK
6
CONTINUOUS
10
162.513
20
-56.5021
11
162.754
21
-56.4444
0
LINE
8
BLACK
6
CONTINUOUS
10
162.754
20
-56.4444
11
163
21
-56.425
0
LINE
8
BLACK
6
CONTINUOUS
10
163
20
-56.425
11
163.246
21
-56.4444
0
LINE
8
BLACK
6
CONTINUOUS
10
163.246
20
-56.4444
11
163.487
21
-56.5021
0
LINE
8
BLACK
6
CONTINUOUS
10
163.487
20
-56.5021
11
163.715
21
-56.5967
0
LINE
8
BLACK
6
CONTINUOUS
10
163.715
20
-56.5967
11
163.926
21
-56.7258
0
LINE
8
BLACK
6
CONTINUOUS
10
163.926
20
-56.7258
11
164.114
21
-56.8863
0
LINE
8
BLACK
6
CONTINUOUS
10
164.114
20
-56.8863
11
164.274
21
-57.0742
0
LINE
8
BLACK
6
CONTINUOUS
10
164.274
20
-57.0742
11
164.403
21
-57.285
0
LINE
8
BLACK
6
CONTINUOUS
10
164.403
20
-57.285
11
164.498
21
-57.5133
0
LINE
8
BLACK
6
CONTINUOUS
10
164.498
20
-57.5133
11
164.556
21
-57.7536
0
LINE
8
BLACK
6
CONTINUOUS
10
164.556
20
-57.7536
11
164.575
21
-58
0
LINE
8
BLACK
6
CONTINUOUS
10
164.575
20
-58
11
164.556
21
-58.2464
0
LINE
8
BLACK
6
CONTINUOUS
10
164.556
20
-58.2464
11
164.498
21
-58.4867
0
LINE
8
BLACK
6
CONTINUOUS
10
164.498
20
-58.4867
11
164.403
21
-58.715
0
LINE
8
BLACK
6
CONTINUOUS
10
164.403
20
-58.715
11
164.274
21
-58.9258
0
LINE
8
BLACK
6
CONTINUOUS
10
164.274
20
-58.9258
11
164.114
21
-59.1137
0
LINE
8
BLACK
6
CONTINUOUS
10
164.114
20
-59.1137
11
163.926
21
-59.2742
0
LINE
8
BLACK
6
CONTINUOUS
10
163.926
20
-59.2742
11
163.715
21
-59.4033
0
LINE
8
BLACK
6
CONTINUOUS
10
163.715
20
-59.4033
11
163.487
21
-59.4979
0
LINE
8
BLACK
6
CONTINUOUS
10
163.487
20
-59.4979
11
163.246
21
-59.5556
0
LINE
8
BLACK
6
CONTINUOUS
10
163.246
20
-59.5556
11
163
21
-59.575
0
LINE
8
BLACK
6
CONTINUOUS
10
163
20
-59.575
11
162.754
21
-59.5556
0
LINE
8
BLACK
6
CONTINUOUS
10
162.754
20
-59.5556
11
162.513
21
-59.4979
0
LINE
8
BLACK
6
CONTINUOUS
10
162.513
20
-59.4979
11
162.285
21
-59.4033
0
LINE
8
BLACK
6
CONTINUOUS
10
162.285
20
-59.4033
11
162.074
21
-59.2742
0
LINE
8
BLACK
6
CONTINUOUS
10
162.074
20
-59.2742
11
161.886
21
-59.1137
0
LINE
8
BLACK
6
CONTINUOUS
10
161.886
20
-59.1137
11
161.726
21
-58.9258
0
LINE
8
BLACK
6
CONTINUOUS
10
161.726
20
-58.9258
11
161.597
21
-58.715
0
LINE
8
BLACK
6
CONTINUOUS
10
161.597
20
-58.715
11
161.502
21
-58.4867
0
LINE
8
BLACK
6
CONTINUOUS
10
161.502
20
-58.4867
11
161.444
21
-58.2464
0
LINE
8
BLACK
6
CONTINUOUS
10
161.444
20
-58.2464
11
161.425
21
-58
0
LINE
8
BLACK
6
CONTINUOUS
10
161.425
20
-58
11
161.428
21
-57.9651
0
LINE
8
BLACK
6
CONTINUOUS
10
161.428
20
-57.9651
11
161.444
21
-57.7536
0
LINE
8
BLACK
6
CONTINUOUS
10
161.444
20
-57.7536
11
161.502
21
-57.5133
0
LINE
8
BLACK
6
CONTINUOUS
10
161.636
20
-58.4276
11
161.724
21
-58.6447
0
LINE
8
BLACK
6
CONTINUOUS
10
161.724
20
-58.6447
11
161.846
21
-58.8445
0
LINE
8
BLACK
6
CONTINUOUS
10
161.846
20
-58.8445
11
162
21
-59.0216
0
LINE
8
BLACK
6
CONTINUOUS
10
162
20
-59.0216
11
162.18
21
-59.1713
0
LINE
8
BLACK
6
CONTINUOUS
10
162.18
20
-59.1713
11
162.382
21
-59.2895
0
LINE
8
BLACK
6
CONTINUOUS
10
162.382
20
-59.2895
11
162.601
21
-59.3731
0
LINE
8
BLACK
6
CONTINUOUS
10
162.601
20
-59.3731
11
162.831
21
-59.4198
0
LINE
8
BLACK
6
CONTINUOUS
10
162.831
20
-59.4198
11
163.065
21
-59.4284
0
LINE
8
BLACK
6
CONTINUOUS
10
163.065
20
-59.4284
11
163.297
21
-59.3986
0
LINE
8
BLACK
6
CONTINUOUS
10
163.297
20
-59.3986
11
163.522
21
-59.3313
0
LINE
8
BLACK
6
CONTINUOUS
10
163.522
20
-59.3313
11
163.732
21
-59.2282
0
LINE
8
BLACK
6
CONTINUOUS
10
163.732
20
-59.2282
11
163.923
21
-59.0921
0
LINE
8
BLACK
6
CONTINUOUS
10
163.923
20
-59.0921
11
164.089
21
-58.9267
0
LINE
8
BLACK
6
CONTINUOUS
10
164.089
20
-58.9267
11
164.226
21
-58.7364
0
LINE
8
BLACK
6
CONTINUOUS
10
164.226
20
-58.7364
11
164.329
21
-58.5264
0
LINE
8
BLACK
6
CONTINUOUS
10
164.329
20
-58.5264
11
164.398
21
-58.3022
0
LINE
8
BLACK
6
CONTINUOUS
10
164.398
20
-58.3022
11
164.428
21
-58.0698
0
LINE
8
BLACK
6
CONTINUOUS
10
164.428
20
-58.0698
11
164.43
21
-58
0
LINE
8
BLACK
6
CONTINUOUS
10
164.43
20
-58
11
164.411
21
-57.7665
0
LINE
8
BLACK
6
CONTINUOUS
10
164.411
20
-57.7665
11
164.354
21
-57.5392
0
LINE
8
BLACK
6
CONTINUOUS
10
164.354
20
-57.5392
11
164.26
21
-57.3243
0
LINE
8
BLACK
6
CONTINUOUS
10
164.26
20
-57.3243
11
164.133
21
-57.1276
0
LINE
8
BLACK
6
CONTINUOUS
10
164.133
20
-57.1276
11
163.975
21
-56.9542
0
LINE
8
BLACK
6
CONTINUOUS
10
163.975
20
-56.9542
11
163.791
21
-56.809
0
LINE
8
BLACK
6
CONTINUOUS
10
163.791
20
-56.809
11
163.586
21
-56.6958
0
LINE
8
BLACK
6
CONTINUOUS
10
163.586
20
-56.6958
11
163.365
21
-56.6176
0
LINE
8
BLACK
6
CONTINUOUS
10
163.365
20
-56.6176
11
163.135
21
-56.5765
0
LINE
8
BLACK
6
CONTINUOUS
10
163.135
20
-56.5765
11
162.9
21
-56.5736
0
LINE
8
BLACK
6
CONTINUOUS
10
162.9
20
-56.5736
11
162.669
21
-56.609
0
LINE
8
BLACK
6
CONTINUOUS
10
162.669
20
-56.609
11
162.446
21
-56.6818
0
LINE
8
BLACK
6
CONTINUOUS
10
162.446
20
-56.6818
11
162.238
21
-56.79
0
LINE
8
BLACK
6
CONTINUOUS
10
162.238
20
-56.79
11
162.051
21
-56.9307
0
LINE
8
BLACK
6
CONTINUOUS
10
162.051
20
-56.9307
11
161.889
21
-57.1001
0
LINE
8
BLACK
6
CONTINUOUS
10
161.889
20
-57.1001
11
161.757
21
-57.2937
0
LINE
8
BLACK
6
CONTINUOUS
10
161.757
20
-57.2937
11
161.658
21
-57.5063
0
LINE
8
BLACK
6
CONTINUOUS
10
161.658
20
-57.5063
11
161.595
21
-57.7321
0
LINE
8
BLACK
6
CONTINUOUS
10
161.595
20
-57.7321
11
161.571
21
-57.9651
0
LINE
8
BLACK
6
CONTINUOUS
10
161.571
20
-57.9651
11
161.584
21
-58.199
0
LINE
8
BLACK
6
CONTINUOUS
10
161.584
20
-58.199
11
161.636
21
-58.4276
0
LINE
8
BLACK
6
CONTINUOUS
10
107.502
20
-55.0133
11
107.597
21
-54.785
0
LINE
8
BLACK
6
CONTINUOUS
10
107.597
20
-54.785
11
107.726
21
-54.5742
0
LINE
8
BLACK
6
CONTINUOUS
10
107.726
20
-54.5742
11
107.886
21
-54.3863
0
LINE
8
BLACK
6
CONTINUOUS
10
107.886
20
-54.3863
11
108.074
21
-54.2258
0
LINE
8
BLACK
6
CONTINUOUS
10
108.074
20
-54.2258
11
108.285
21
-54.0967
0
LINE
8
BLACK
6
CONTINUOUS
10
108.285
20
-54.0967
11
108.513
21
-54.0021
0
LINE
8
BLACK
6
CONTINUOUS
10
108.513
20
-54.0021
11
108.754
21
-53.9444
0
LINE
8
BLACK
6
CONTINUOUS
10
108.754
20
-53.9444
11
109
21
-53.925
0
LINE
8
BLACK
6
CONTINUOUS
10
109
20
-53.925
11
109.246
21
-53.9444
0
LINE
8
BLACK
6
CONTINUOUS
10
109.246
20
-53.9444
11
109.487
21
-54.0021
0
LINE
8
BLACK
6
CONTINUOUS
10
109.487
20
-54.0021
11
109.715
21
-54.0967
0
LINE
8
BLACK
6
CONTINUOUS
10
109.715
20
-54.0967
11
109.926
21
-54.2258
0
LINE
8
BLACK
6
CONTINUOUS
10
109.926
20
-54.2258
11
110.114
21
-54.3863
0
LINE
8
BLACK
6
CONTINUOUS
10
110.114
20
-54.3863
11
110.274
21
-54.5742
0
LINE
8
BLACK
6
CONTINUOUS
10
110.274
20
-54.5742
11
110.403
21
-54.785
0
LINE
8
BLACK
6
CONTINUOUS
10
110.403
20
-54.785
11
110.498
21
-55.0133
0
LINE
8
BLACK
6
CONTINUOUS
10
110.498
20
-55.0133
11
110.556
21
-55.2536
0
LINE
8
BLACK
6
CONTINUOUS
10
110.556
20
-55.2536
11
110.575
21
-55.5
0
LINE
8
BLACK
6
CONTINUOUS
10
110.575
20
-55.5
11
110.556
21
-55.7464
0
LINE
8
BLACK
6
CONTINUOUS
10
110.556
20
-55.7464
11
110.498
21
-55.9867
0
LINE
8
BLACK
6
CONTINUOUS
10
110.498
20
-55.9867
11
110.403
21
-56.215
0
LINE
8
BLACK
6
CONTINUOUS
10
110.403
20
-56.215
11
110.274
21
-56.4258
0
LINE
8
BLACK
6
CONTINUOUS
10
110.274
20
-56.4258
11
110.114
21
-56.6137
0
LINE
8
BLACK
6
CONTINUOUS
10
110.114
20
-56.6137
11
109.926
21
-56.7742
0
LINE
8
BLACK
6
CONTINUOUS
10
109.926
20
-56.7742
11
109.715
21
-56.9033
0
LINE
8
BLACK
6
CONTINUOUS
10
109.715
20
-56.9033
11
109.487
21
-56.9979
0
LINE
8
BLACK
6
CONTINUOUS
10
109.487
20
-56.9979
11
109.246
21
-57.0556
0
LINE
8
BLACK
6
CONTINUOUS
10
109.246
20
-57.0556
11
109
21
-57.075
0
LINE
8
BLACK
6
CONTINUOUS
10
109
20
-57.075
11
108.754
21
-57.0556
0
LINE
8
BLACK
6
CONTINUOUS
10
108.754
20
-57.0556
11
108.513
21
-56.9979
0
LINE
8
BLACK
6
CONTINUOUS
10
108.513
20
-56.9979
11
108.285
21
-56.9033
0
LINE
8
BLACK
6
CONTINUOUS
10
108.285
20
-56.9033
11
108.074
21
-56.7742
0
LINE
8
BLACK
6
CONTINUOUS
10
108.074
20
-56.7742
11
107.886
21
-56.6137
0
LINE
8
BLACK
6
CONTINUOUS
10
107.886
20
-56.6137
11
107.726
21
-56.4258
0
LINE
8
BLACK
6
CONTINUOUS
10
107.726
20
-56.4258
11
107.597
21
-56.215
0
LINE
8
BLACK
6
CONTINUOUS
10
107.597
20
-56.215
11
107.502
21
-55.9867
0
LINE
8
BLACK
6
CONTINUOUS
10
107.502
20
-55.9867
11
107.444
21
-55.7464
0
LINE
8
BLACK
6
CONTINUOUS
10
107.444
20
-55.7464
11
107.425
21
-55.5
0
LINE
8
BLACK
6
CONTINUOUS
10
107.425
20
-55.5
11
107.428
21
-55.4651
0
LINE
8
BLACK
6
CONTINUOUS
10
107.428
20
-55.4651
11
107.444
21
-55.2536
0
LINE
8
BLACK
6
CONTINUOUS
10
107.444
20
-55.2536
11
107.502
21
-55.0133
0
LINE
8
BLACK
6
CONTINUOUS
10
107.636
20
-55.9276
11
107.724
21
-56.1447
0
LINE
8
BLACK
6
CONTINUOUS
10
107.724
20
-56.1447
11
107.846
21
-56.3445
0
LINE
8
BLACK
6
CONTINUOUS
10
107.846
20
-56.3445
11
108
21
-56.5216
0
LINE
8
BLACK
6
CONTINUOUS
10
108
20
-56.5216
11
108.18
21
-56.6713
0
LINE
8
BLACK
6
CONTINUOUS
10
108.18
20
-56.6713
11
108.382
21
-56.7895
0
LINE
8
BLACK
6
CONTINUOUS
10
108.382
20
-56.7895
11
108.601
21
-56.8731
0
LINE
8
BLACK
6
CONTINUOUS
10
108.601
20
-56.8731
11
108.831
21
-56.9198
0
LINE
8
BLACK
6
CONTINUOUS
10
108.831
20
-56.9198
11
109.065
21
-56.9284
0
LINE
8
BLACK
6
CONTINUOUS
10
109.065
20
-56.9284
11
109.297
21
-56.8986
0
LINE
8
BLACK
6
CONTINUOUS
10
109.297
20
-56.8986
11
109.522
21
-56.8313
0
LINE
8
BLACK
6
CONTINUOUS
10
109.522
20
-56.8313
11
109.732
21
-56.7282
0
LINE
8
BLACK
6
CONTINUOUS
10
109.732
20
-56.7282
11
109.923
21
-56.5921
0
LINE
8
BLACK
6
CONTINUOUS
10
109.923
20
-56.5921
11
110.089
21
-56.4267
0
LINE
8
BLACK
6
CONTINUOUS
10
110.089
20
-56.4267
11
110.226
21
-56.2364
0
LINE
8
BLACK
6
CONTINUOUS
10
110.226
20
-56.2364
11
110.329
21
-56.0264
0
LINE
8
BLACK
6
CONTINUOUS
10
110.329
20
-56.0264
11
110.398
21
-55.8022
0
LINE
8
BLACK
6
CONTINUOUS
10
110.398
20
-55.8022
11
110.428
21
-55.5698
0
LINE
8
BLACK
6
CONTINUOUS
10
110.428
20
-55.5698
11
110.43
21
-55.5
0
LINE
8
BLACK
6
CONTINUOUS
10
110.43
20
-55.5
11
110.411
21
-55.2665
0
LINE
8
BLACK
6
CONTINUOUS
10
110.411
20
-55.2665
11
110.354
21
-55.0392
0
LINE
8
BLACK
6
CONTINUOUS
10
110.354
20
-55.0392
11
110.26
21
-54.8243
0
LINE
8
BLACK
6
CONTINUOUS
10
110.26
20
-54.8243
11
110.133
21
-54.6276
0
LINE
8
BLACK
6
CONTINUOUS
10
110.133
20
-54.6276
11
109.975
21
-54.4542
0
LINE
8
BLACK
6
CONTINUOUS
10
109.975
20
-54.4542
11
109.791
21
-54.309
0
LINE
8
BLACK
6
CONTINUOUS
10
109.791
20
-54.309
11
109.586
21
-54.1958
0
LINE
8
BLACK
6
CONTINUOUS
10
109.586
20
-54.1958
11
109.365
21
-54.1176
0
LINE
8
BLACK
6
CONTINUOUS
10
109.365
20
-54.1176
11
109.135
21
-54.0765
0
LINE
8
BLACK
6
CONTINUOUS
10
109.135
20
-54.0765
11
108.9
21
-54.0736
0
LINE
8
BLACK
6
CONTINUOUS
10
108.9
20
-54.0736
11
108.669
21
-54.109
0
LINE
8
BLACK
6
CONTINUOUS
10
108.669
20
-54.109
11
108.446
21
-54.1818
0
LINE
8
BLACK
6
CONTINUOUS
10
108.446
20
-54.1818
11
108.238
21
-54.29
0
LINE
8
BLACK
6
CONTINUOUS
10
108.238
20
-54.29
11
108.051
21
-54.4307
0
LINE
8
BLACK
6
CONTINUOUS
10
108.051
20
-54.4307
11
107.889
21
-54.6001
0
LINE
8
BLACK
6
CONTINUOUS
10
107.889
20
-54.6001
11
107.757
21
-54.7937
0
LINE
8
BLACK
6
CONTINUOUS
10
107.757
20
-54.7937
11
107.658
21
-55.0063
0
LINE
8
BLACK
6
CONTINUOUS
10
107.658
20
-55.0063
11
107.595
21
-55.2321
0
LINE
8
BLACK
6
CONTINUOUS
10
107.595
20
-55.2321
11
107.571
21
-55.4651
0
LINE
8
BLACK
6
CONTINUOUS
10
107.571
20
-55.4651
11
107.584
21
-55.699
0
LINE
8
BLACK
6
CONTINUOUS
10
107.584
20
-55.699
11
107.636
21
-55.9276
0
LINE
8
BLACK
6
CONTINUOUS
10
197.504
20
-58.575
11
197.887
21
-58.5919
0
LINE
8
BLACK
6
CONTINUOUS
10
197.887
20
-58.5919
11
198.268
21
-58.6425
0
LINE
8
BLACK
6
CONTINUOUS
10
198.268
20
-58.6425
11
198.642
21
-58.7264
0
LINE
8
BLACK
6
CONTINUOUS
10
198.642
20
-58.7264
11
199.007
21
-58.843
0
LINE
8
BLACK
6
CONTINUOUS
10
199.007
20
-58.843
11
199.361
21
-58.9914
0
LINE
8
BLACK
6
CONTINUOUS
10
199.361
20
-58.9914
11
199.7
21
-59.1705
0
LINE
8
BLACK
6
CONTINUOUS
10
199.7
20
-59.1705
11
200.023
21
-59.3787
0
LINE
8
BLACK
6
CONTINUOUS
10
200.023
20
-59.3787
11
200.325
21
-59.6146
0
LINE
8
BLACK
6
CONTINUOUS
10
200.325
20
-59.6146
11
200.606
21
-59.8762
0
LINE
8
BLACK
6
CONTINUOUS
10
200.606
20
-59.8762
11
200.862
21
-60.1615
0
LINE
8
BLACK
6
CONTINUOUS
10
200.862
20
-60.1615
11
201.093
21
-60.4684
0
LINE
8
BLACK
6
CONTINUOUS
10
201.093
20
-60.4684
11
201.295
21
-60.7943
0
LINE
8
BLACK
6
CONTINUOUS
10
201.295
20
-60.7943
11
201.468
21
-61.1369
0
LINE
8
BLACK
6
CONTINUOUS
10
201.468
20
-61.1369
11
201.61
21
-61.4933
0
LINE
8
BLACK
6
CONTINUOUS
10
201.61
20
-61.4933
11
201.719
21
-61.8609
0
LINE
8
BLACK
6
CONTINUOUS
10
201.719
20
-61.8609
11
201.797
21
-62.2367
0
LINE
8
BLACK
6
CONTINUOUS
10
201.797
20
-62.2367
11
201.84
21
-62.6179
0
LINE
8
BLACK
6
CONTINUOUS
10
201.84
20
-62.6179
11
201.85
21
-62.9998
0
LINE
8
BLACK
6
CONTINUOUS
10
201.85
20
-62.9998
11
201.85
21
-63
0
LINE
8
BLACK
6
CONTINUOUS
10
201.85
20
-63
11
201.85
21
-114
0
LINE
8
BLACK
6
CONTINUOUS
10
201.85
20
-114
11
201.85
21
-114
0
LINE
8
BLACK
6
CONTINUOUS
10
201.85
20
-114
11
201.85
21
-114.373
0
LINE
8
BLACK
6
CONTINUOUS
10
201.85
20
-114.373
11
201.826
21
-114.748
0
LINE
8
BLACK
6
CONTINUOUS
10
201.826
20
-114.748
11
201.779
21
-115.12
0
LINE
8
BLACK
6
CONTINUOUS
10
201.779
20
-115.12
11
201.708
21
-115.489
0
LINE
8
BLACK
6
CONTINUOUS
10
201.708
20
-115.489
11
201.613
21
-115.853
0
LINE
8
BLACK
6
CONTINUOUS
10
201.613
20
-115.853
11
201.495
21
-116.209
0
LINE
8
BLACK
6
CONTINUOUS
10
201.495
20
-116.209
11
201.495
21
-116.209
0
LINE
8
BLACK
6
CONTINUOUS
10
201.495
20
-116.209
11
201.494
21
-116.211
0
LINE
8
BLACK
6
CONTINUOUS
10
201.494
20
-116.211
11
201.494
21
-116.213
0
LINE
8
BLACK
6
CONTINUOUS
10
201.494
20
-116.213
11
194.544
21
-132.488
0
LINE
8
BLACK
6
CONTINUOUS
10
194.544
20
-132.488
11
194.543
21
-132.49
0
LINE
8
BLACK
6
CONTINUOUS
10
194.543
20
-132.49
11
194.542
21
-132.491
0
LINE
8
BLACK
6
CONTINUOUS
10
194.542
20
-132.491
11
194.542
21
-132.491
0
LINE
8
BLACK
6
CONTINUOUS
10
194.542
20
-132.491
11
194.356
21
-132.84
0
LINE
8
BLACK
6
CONTINUOUS
10
194.356
20
-132.84
11
194.139
21
-133.171
0
LINE
8
BLACK
6
CONTINUOUS
10
194.139
20
-133.171
11
193.893
21
-133.481
0
LINE
8
BLACK
6
CONTINUOUS
10
193.893
20
-133.481
11
193.621
21
-133.768
0
LINE
8
BLACK
6
CONTINUOUS
10
193.621
20
-133.768
11
193.324
21
-134.029
0
LINE
8
BLACK
6
CONTINUOUS
10
193.324
20
-134.029
11
193.004
21
-134.263
0
LINE
8
BLACK
6
CONTINUOUS
10
193.004
20
-134.263
11
192.666
21
-134.468
0
LINE
8
BLACK
6
CONTINUOUS
10
192.666
20
-134.468
11
192.31
21
-134.641
0
LINE
8
BLACK
6
CONTINUOUS
10
192.31
20
-134.641
11
191.94
21
-134.782
0
LINE
8
BLACK
6
CONTINUOUS
10
191.94
20
-134.782
11
191.559
21
-134.889
0
LINE
8
BLACK
6
CONTINUOUS
10
191.559
20
-134.889
11
191.17
21
-134.962
0
LINE
8
BLACK
6
CONTINUOUS
10
191.17
20
-134.962
11
190.776
21
-135
0
LINE
8
BLACK
6
CONTINUOUS
10
190.776
20
-135
11
190.381
21
-135.003
0
LINE
8
BLACK
6
CONTINUOUS
10
190.381
20
-135.003
11
189.986
21
-134.97
0
LINE
8
BLACK
6
CONTINUOUS
10
189.986
20
-134.97
11
189.596
21
-134.902
0
LINE
8
BLACK
6
CONTINUOUS
10
189.596
20
-134.902
11
189.214
21
-134.799
0
LINE
8
BLACK
6
CONTINUOUS
10
189.214
20
-134.799
11
188.843
21
-134.663
0
LINE
8
BLACK
6
CONTINUOUS
10
188.843
20
-134.663
11
188.843
21
-134.663
0
LINE
8
BLACK
6
CONTINUOUS
10
188.843
20
-134.663
11
182.799
21
-132.133
0
LINE
8
BLACK
6
CONTINUOUS
10
182.799
20
-132.133
11
182.799
21
-132.133
0
LINE
8
BLACK
6
CONTINUOUS
10
182.799
20
-132.133
11
182.799
21
-132.133
0
LINE
8
BLACK
6
CONTINUOUS
10
182.799
20
-132.133
11
182.794
21
-132.13
0
LINE
8
BLACK
6
CONTINUOUS
10
182.794
20
-132.13
11
182.625
21
-132.064
0
LINE
8
BLACK
6
CONTINUOUS
10
182.625
20
-132.064
11
182.447
21
-132.003
0
LINE
8
BLACK
6
CONTINUOUS
10
182.447
20
-132.003
11
182.271
21
-131.951
0
LINE
8
BLACK
6
CONTINUOUS
10
182.271
20
-131.951
11
182.268
21
-131.951
0
LINE
8
BLACK
6
CONTINUOUS
10
182.268
20
-131.951
11
182.262
21
-131.948
0
LINE
8
BLACK
6
CONTINUOUS
10
182.262
20
-131.948
11
182.256
21
-131.947
0
LINE
8
BLACK
6
CONTINUOUS
10
182.256
20
-131.947
11
182.245
21
-131.937
0
LINE
8
BLACK
6
CONTINUOUS
10
182.245
20
-131.937
11
179.626
21
-130.756
0
LINE
8
BLACK
6
CONTINUOUS
10
179.626
20
-130.756
11
176.979
21
-129.603
0
LINE
8
BLACK
6
CONTINUOUS
10
176.979
20
-129.603
11
174.318
21
-128.483
0
LINE
8
BLACK
6
CONTINUOUS
10
174.318
20
-128.483
11
171.642
21
-127.398
0
LINE
8
BLACK
6
CONTINUOUS
10
171.642
20
-127.398
11
168.953
21
-126.346
0
LINE
8
BLACK
6
CONTINUOUS
10
168.953
20
-126.346
11
166.251
21
-125.329
0
LINE
8
BLACK
6
CONTINUOUS
10
166.251
20
-125.329
11
163.537
21
-124.346
0
LINE
8
BLACK
6
CONTINUOUS
10
163.537
20
-124.346
11
160.81
21
-123.398
0
LINE
8
BLACK
6
CONTINUOUS
10
160.81
20
-123.398
11
158.071
21
-122.485
0
LINE
8
BLACK
6
CONTINUOUS
10
158.071
20
-122.485
11
155.32
21
-121.606
0
LINE
8
BLACK
6
CONTINUOUS
10
155.32
20
-121.606
11
152.559
21
-120.763
0
LINE
8
BLACK
6
CONTINUOUS
10
152.559
20
-120.763
11
149.788
21
-119.954
0
LINE
8
BLACK
6
CONTINUOUS
10
149.788
20
-119.954
11
147.006
21
-119.181
0
LINE
8
BLACK
6
CONTINUOUS
10
147.006
20
-119.181
11
144.214
21
-118.444
0
LINE
8
BLACK
6
CONTINUOUS
10
144.214
20
-118.444
11
141.414
21
-117.742
0
LINE
8
BLACK
6
CONTINUOUS
10
141.414
20
-117.742
11
138.605
21
-117.075
0
LINE
8
BLACK
6
CONTINUOUS
10
138.605
20
-117.075
11
135.787
21
-116.445
0
LINE
8
BLACK
6
CONTINUOUS
10
135.787
20
-116.445
11
132.962
21
-115.85
0
LINE
8
BLACK
6
CONTINUOUS
10
132.962
20
-115.85
11
130.129
21
-115.291
0
LINE
8
BLACK
6
CONTINUOUS
10
130.129
20
-115.291
11
127.29
21
-114.769
0
LINE
8
BLACK
6
CONTINUOUS
10
127.29
20
-114.769
11
124.444
21
-114.282
0
LINE
8
BLACK
6
CONTINUOUS
10
124.444
20
-114.282
11
121.592
21
-113.832
0
LINE
8
BLACK
6
CONTINUOUS
10
121.592
20
-113.832
11
118.735
21
-113.418
0
LINE
8
BLACK
6
CONTINUOUS
10
118.735
20
-113.418
11
115.873
21
-113.04
0
LINE
8
BLACK
6
CONTINUOUS
10
115.873
20
-113.04
11
113.006
21
-112.699
0
LINE
8
BLACK
6
CONTINUOUS
10
113.006
20
-112.699
11
110.135
21
-112.394
0
LINE
8
BLACK
6
CONTINUOUS
10
110.135
20
-112.394
11
107.26
21
-112.125
0
LINE
8
BLACK
6
CONTINUOUS
10
107.26
20
-112.125
11
104.382
21
-111.894
0
LINE
8
BLACK
6
CONTINUOUS
10
104.382
20
-111.894
11
101.502
21
-111.698
0
LINE
8
BLACK
6
CONTINUOUS
10
101.502
20
-111.698
11
98.6188
21
-111.54
0
LINE
8
BLACK
6
CONTINUOUS
10
98.6188
20
-111.54
11
95.7342
21
-111.418
0
LINE
8
BLACK
6
CONTINUOUS
10
95.7342
20
-111.418
11
92.8622
21
-111.333
0
LINE
8
BLACK
6
CONTINUOUS
10
92.8622
20
-111.333
11
92.8482
21
-111.338
0
LINE
8
BLACK
6
CONTINUOUS
10
92.8482
20
-111.338
11
92.8467
21
-111.337
0
LINE
8
BLACK
6
CONTINUOUS
10
92.8467
20
-111.337
11
92.8451
21
-111.337
0
LINE
8
BLACK
6
CONTINUOUS
10
92.8451
20
-111.337
11
92.8451
21
-111.337
0
LINE
8
BLACK
6
CONTINUOUS
10
92.8451
20
-111.337
11
92.4555
21
-111.295
0
LINE
8
BLACK
6
CONTINUOUS
10
92.4555
20
-111.295
11
92.0711
21
-111.218
0
LINE
8
BLACK
6
CONTINUOUS
10
92.0711
20
-111.218
11
91.695
21
-111.107
0
LINE
8
BLACK
6
CONTINUOUS
10
91.695
20
-111.107
11
91.3302
21
-110.964
0
LINE
8
BLACK
6
CONTINUOUS
10
91.3302
20
-110.964
11
90.9796
21
-110.789
0
LINE
8
BLACK
6
CONTINUOUS
10
90.9796
20
-110.789
11
90.6458
21
-110.583
0
LINE
8
BLACK
6
CONTINUOUS
10
90.6458
20
-110.583
11
90.3315
21
-110.349
0
LINE
8
BLACK
6
CONTINUOUS
10
90.3315
20
-110.349
11
90.0391
21
-110.088
0
LINE
8
BLACK
6
CONTINUOUS
10
90.0391
20
-110.088
11
89.771
21
-109.802
0
LINE
8
BLACK
6
CONTINUOUS
10
89.771
20
-109.802
11
89.5293
21
-109.494
0
LINE
8
BLACK
6
CONTINUOUS
10
89.5293
20
-109.494
11
89.3158
21
-109.165
0
LINE
8
BLACK
6
CONTINUOUS
10
89.3158
20
-109.165
11
89.1322
21
-108.819
0
LINE
8
BLACK
6
CONTINUOUS
10
89.1322
20
-108.819
11
88.9801
21
-108.457
0
LINE
8
BLACK
6
CONTINUOUS
10
88.9801
20
-108.457
11
88.8604
21
-108.084
0
LINE
8
BLACK
6
CONTINUOUS
10
88.8604
20
-108.084
11
88.7743
21
-107.702
0
LINE
8
BLACK
6
CONTINUOUS
10
88.7743
20
-107.702
11
88.7224
21
-107.313
0
LINE
8
BLACK
6
CONTINUOUS
10
88.7224
20
-107.313
11
88.705
21
-106.922
0
LINE
8
BLACK
6
CONTINUOUS
10
88.705
20
-106.922
11
88.705
21
-59.5775
0
LINE
8
BLACK
6
CONTINUOUS
10
88.705
20
-59.5775
11
88.7
21
-57.3002
0
LINE
8
BLACK
6
CONTINUOUS
10
88.7
20
-57.3002
11
88.7001
21
-57.2999
0
LINE
8
BLACK
6
CONTINUOUS
10
88.7001
20
-57.2999
11
88.7097
21
-56.9346
0
LINE
8
BLACK
6
CONTINUOUS
10
88.7097
20
-56.9346
11
88.7518
21
-56.5701
0
LINE
8
BLACK
6
CONTINUOUS
10
88.7518
20
-56.5701
11
88.8261
21
-56.2108
0
LINE
8
BLACK
6
CONTINUOUS
10
88.8261
20
-56.2108
11
88.9319
21
-55.8595
0
LINE
8
BLACK
6
CONTINUOUS
10
88.9319
20
-55.8595
11
89.0684
21
-55.519
0
LINE
8
BLACK
6
CONTINUOUS
10
89.0684
20
-55.519
11
89.2346
21
-55.1919
0
LINE
8
BLACK
6
CONTINUOUS
10
89.2346
20
-55.1919
11
89.4291
21
-54.8808
0
LINE
8
BLACK
6
CONTINUOUS
10
89.4291
20
-54.8808
11
89.6505
21
-54.5882
0
LINE
8
BLACK
6
CONTINUOUS
10
89.6505
20
-54.5882
11
89.8969
21
-54.3163
0
LINE
8
BLACK
6
CONTINUOUS
10
89.8969
20
-54.3163
11
90.1664
21
-54.0674
0
LINE
8
BLACK
6
CONTINUOUS
10
90.1664
20
-54.0674
11
90.4529
21
-53.8464
0
LINE
8
BLACK
6
CONTINUOUS
10
90.4529
20
-53.8464
11
90.4531
21
-53.8461
0
LINE
8
BLACK
6
CONTINUOUS
10
90.4531
20
-53.8461
11
90.4531
21
-53.8461
0
LINE
8
BLACK
6
CONTINUOUS
10
90.4531
20
-53.8461
11
91.7123
21
-52.8601
0
LINE
8
BLACK
6
CONTINUOUS
10
91.7123
20
-52.8601
11
92.9934
21
-51.9027
0
LINE
8
BLACK
6
CONTINUOUS
10
92.9934
20
-51.9027
11
94.2956
21
-50.9742
0
LINE
8
BLACK
6
CONTINUOUS
10
94.2956
20
-50.9742
11
95.6183
21
-50.0752
0
LINE
8
BLACK
6
CONTINUOUS
10
95.6183
20
-50.0752
11
96.9609
21
-49.2061
0
LINE
8
BLACK
6
CONTINUOUS
10
96.9609
20
-49.2061
11
98.3227
21
-48.3674
0
LINE
8
BLACK
6
CONTINUOUS
10
98.3227
20
-48.3674
11
99.7029
21
-47.5594
0
LINE
8
BLACK
6
CONTINUOUS
10
99.7029
20
-47.5594
11
101.101
21
-46.7826
0
LINE
8
BLACK
6
CONTINUOUS
10
101.101
20
-46.7826
11
102.516
21
-46.0375
0
LINE
8
BLACK
6
CONTINUOUS
10
102.516
20
-46.0375
11
103.948
21
-45.3242
0
LINE
8
BLACK
6
CONTINUOUS
10
103.948
20
-45.3242
11
105.395
21
-44.6433
0
LINE
8
BLACK
6
CONTINUOUS
10
105.395
20
-44.6433
11
106.857
21
-43.995
0
LINE
8
BLACK
6
CONTINUOUS
10
106.857
20
-43.995
11
108.333
21
-43.3798
0
LINE
8
BLACK
6
CONTINUOUS
10
108.333
20
-43.3798
11
109.823
21
-42.7978
0
LINE
8
BLACK
6
CONTINUOUS
10
109.823
20
-42.7978
11
111.325
21
-42.2494
0
LINE
8
BLACK
6
CONTINUOUS
10
111.325
20
-42.2494
11
112.839
21
-41.7348
0
LINE
8
BLACK
6
CONTINUOUS
10
112.839
20
-41.7348
11
114.365
21
-41.2544
0
LINE
8
BLACK
6
CONTINUOUS
10
114.365
20
-41.2544
11
115.901
21
-40.8083
0
LINE
8
BLACK
6
CONTINUOUS
10
115.901
20
-40.8083
11
117.446
21
-40.3969
0
LINE
8
BLACK
6
CONTINUOUS
10
117.446
20
-40.3969
11
119
21
-40.0202
0
LINE
8
BLACK
6
CONTINUOUS
10
119
20
-40.0202
11
120.563
21
-39.6785
0
LINE
8
BLACK
6
CONTINUOUS
10
120.563
20
-39.6785
11
122.133
21
-39.372
0
LINE
8
BLACK
6
CONTINUOUS
10
122.133
20
-39.372
11
123.709
21
-39.1008
0
LINE
8
BLACK
6
CONTINUOUS
10
123.709
20
-39.1008
11
125.291
21
-38.865
0
LINE
8
BLACK
6
CONTINUOUS
10
125.291
20
-38.865
11
126.877
21
-38.6648
0
LINE
8
BLACK
6
CONTINUOUS
10
126.877
20
-38.6648
11
128.468
21
-38.5003
0
LINE
8
BLACK
6
CONTINUOUS
10
128.468
20
-38.5003
11
128.468
21
-38.5003
0
LINE
8
BLACK
6
CONTINUOUS
10
128.468
20
-38.5003
11
128.468
21
-38.5003
0
LINE
8
BLACK
6
CONTINUOUS
10
128.468
20
-38.5003
11
128.468
21
-38.5003
0
LINE
8
BLACK
6
CONTINUOUS
10
128.468
20
-38.5003
11
128.468
21
-38.5003
0
LINE
8
BLACK
6
CONTINUOUS
10
128.468
20
-38.5003
11
128.468
21
-38.5003
0
LINE
8
BLACK
6
CONTINUOUS
10
128.468
20
-38.5003
11
130.503
21
-38.3303
0
LINE
8
BLACK
6
CONTINUOUS
10
130.503
20
-38.3303
11
132.541
21
-38.1966
0
LINE
8
BLACK
6
CONTINUOUS
10
132.541
20
-38.1966
11
134.58
21
-38.0993
0
LINE
8
BLACK
6
CONTINUOUS
10
134.58
20
-38.0993
11
136.621
21
-38.0384
0
LINE
8
BLACK
6
CONTINUOUS
10
136.621
20
-38.0384
11
138.663
21
-38.0138
0
LINE
8
BLACK
6
CONTINUOUS
10
138.663
20
-38.0138
11
140.705
21
-38.0257
0
LINE
8
BLACK
6
CONTINUOUS
10
140.705
20
-38.0257
11
142.746
21
-38.074
0
LINE
8
BLACK
6
CONTINUOUS
10
142.746
20
-38.074
11
144.786
21
-38.1587
0
LINE
8
BLACK
6
CONTINUOUS
10
144.786
20
-38.1587
11
146.825
21
-38.2797
0
LINE
8
BLACK
6
CONTINUOUS
10
146.825
20
-38.2797
11
148.861
21
-38.4371
0
LINE
8
BLACK
6
CONTINUOUS
10
148.861
20
-38.4371
11
150.893
21
-38.6308
0
LINE
8
BLACK
6
CONTINUOUS
10
150.893
20
-38.6308
11
152.922
21
-38.8606
0
LINE
8
BLACK
6
CONTINUOUS
10
152.922
20
-38.8606
11
154.947
21
-39.1267
0
LINE
8
BLACK
6
CONTINUOUS
10
154.947
20
-39.1267
11
156.966
21
-39.4287
0
LINE
8
BLACK
6
CONTINUOUS
10
156.966
20
-39.4287
11
158.98
21
-39.7668
0
LINE
8
BLACK
6
CONTINUOUS
10
158.98
20
-39.7668
11
160.988
21
-40.1407
0
LINE
8
BLACK
6
CONTINUOUS
10
160.988
20
-40.1407
11
162.988
21
-40.5503
0
LINE
8
BLACK
6
CONTINUOUS
10
162.988
20
-40.5503
11
164.981
21
-40.9956
0
LINE
8
BLACK
6
CONTINUOUS
10
164.981
20
-40.9956
11
166.966
21
-41.4763
0
LINE
8
BLACK
6
CONTINUOUS
10
166.966
20
-41.4763
11
168.941
21
-41.9923
0
LINE
8
BLACK
6
CONTINUOUS
10
168.941
20
-41.9923
11
170.907
21
-42.5435
0
LINE
8
BLACK
6
CONTINUOUS
10
170.907
20
-42.5435
11
172.863
21
-43.1296
0
LINE
8
BLACK
6
CONTINUOUS
10
172.863
20
-43.1296
11
174.809
21
-43.7505
0
LINE
8
BLACK
6
CONTINUOUS
10
174.809
20
-43.7505
11
176.743
21
-44.406
0
LINE
8
BLACK
6
CONTINUOUS
10
176.743
20
-44.406
11
178.664
21
-45.0959
0
LINE
8
BLACK
6
CONTINUOUS
10
178.664
20
-45.0959
11
180.574
21
-45.82
0
LINE
8
BLACK
6
CONTINUOUS
10
180.574
20
-45.82
11
180.574
21
-45.82
0
LINE
8
BLACK
6
CONTINUOUS
10
180.574
20
-45.82
11
180.574
21
-45.82
0
LINE
8
BLACK
6
CONTINUOUS
10
180.574
20
-45.82
11
180.574
21
-45.8204
0
LINE
8
BLACK
6
CONTINUOUS
10
180.574
20
-45.8204
11
180.575
21
-45.8204
0
LINE
8
BLACK
6
CONTINUOUS
10
180.575
20
-45.8204
11
180.921
21
-45.9786
0
LINE
8
BLACK
6
CONTINUOUS
10
180.921
20
-45.9786
11
181.253
21
-46.1657
0
LINE
8
BLACK
6
CONTINUOUS
10
181.253
20
-46.1657
11
181.567
21
-46.3805
0
LINE
8
BLACK
6
CONTINUOUS
10
181.567
20
-46.3805
11
181.862
21
-46.6213
0
LINE
8
BLACK
6
CONTINUOUS
10
181.862
20
-46.6213
11
182.136
21
-46.8865
0
LINE
8
BLACK
6
CONTINUOUS
10
182.136
20
-46.8865
11
182.385
21
-47.174
0
LINE
8
BLACK
6
CONTINUOUS
10
182.385
20
-47.174
11
182.61
21
-47.4818
0
LINE
8
BLACK
6
CONTINUOUS
10
182.61
20
-47.4818
11
182.807
21
-47.8076
0
LINE
8
BLACK
6
CONTINUOUS
10
182.807
20
-47.8076
11
182.976
21
-48.1491
0
LINE
8
BLACK
6
CONTINUOUS
10
182.976
20
-48.1491
11
183.114
21
-48.5037
0
LINE
8
BLACK
6
CONTINUOUS
10
183.114
20
-48.5037
11
183.223
21
-48.8689
0
LINE
8
BLACK
6
CONTINUOUS
10
183.223
20
-48.8689
11
183.299
21
-49.2419
0
LINE
8
BLACK
6
CONTINUOUS
10
183.299
20
-49.2419
11
183.344
21
-49.6202
0
LINE
8
BLACK
6
CONTINUOUS
10
183.344
20
-49.6202
11
183.356
21
-49.9998
0
LINE
8
BLACK
6
CONTINUOUS
10
183.356
20
-49.9998
11
183.356
21
-50
0
LINE
8
BLACK
6
CONTINUOUS
10
183.356
20
-50
11
183.356
21
-54.4656
0
LINE
8
BLACK
6
CONTINUOUS
10
183.356
20
-54.4656
11
183.353
21
-54.4817
0
LINE
8
BLACK
6
CONTINUOUS
10
183.353
20
-54.4817
11
183.383
21
-54.8473
0
LINE
8
BLACK
6
CONTINUOUS
10
183.383
20
-54.8473
11
183.45
21
-55.2272
0
LINE
8
BLACK
6
CONTINUOUS
10
183.45
20
-55.2272
11
183.55
21
-55.5996
0
LINE
8
BLACK
6
CONTINUOUS
10
183.55
20
-55.5996
11
183.684
21
-55.9614
0
LINE
8
BLACK
6
CONTINUOUS
10
183.684
20
-55.9614
11
183.849
21
-56.3097
0
LINE
8
BLACK
6
CONTINUOUS
10
183.849
20
-56.3097
11
184.046
21
-56.6417
0
LINE
8
BLACK
6
CONTINUOUS
10
184.046
20
-56.6417
11
184.271
21
-56.9547
0
LINE
8
BLACK
6
CONTINUOUS
10
184.271
20
-56.9547
11
184.524
21
-57.2461
0
LINE
8
BLACK
6
CONTINUOUS
10
184.524
20
-57.2461
11
184.802
21
-57.5136
0
LINE
8
BLACK
6
CONTINUOUS
10
184.802
20
-57.5136
11
185.102
21
-57.755
0
LINE
8
BLACK
6
CONTINUOUS
10
185.102
20
-57.755
11
185.424
21
-57.9683
0
LINE
8
BLACK
6
CONTINUOUS
10
185.424
20
-57.9683
11
185.763
21
-58.1518
0
LINE
8
BLACK
6
CONTINUOUS
10
185.763
20
-58.1518
11
186.117
21
-58.304
0
LINE
8
BLACK
6
CONTINUOUS
10
186.117
20
-58.304
11
186.484
21
-58.4237
0
LINE
8
BLACK
6
CONTINUOUS
10
186.484
20
-58.4237
11
186.86
21
-58.5099
0
LINE
8
BLACK
6
CONTINUOUS
10
186.86
20
-58.5099
11
187.242
21
-58.5619
0
LINE
8
BLACK
6
CONTINUOUS
10
187.242
20
-58.5619
11
187.616
21
-58.5788
0
LINE
8
BLACK
6
CONTINUOUS
10
187.616
20
-58.5788
11
187.627
21
-58.575
0
LINE
8
BLACK
6
CONTINUOUS
10
187.627
20
-58.575
11
197.504
21
-58.575
0
LINE
8
BLACK
6
CONTINUOUS
10
197.504
20
-58.575
11
197.504
21
-58.575
0
LINE
8
BLACK
6
CONTINUOUS
10
187.229
20
-58.707
11
186.834
21
-58.6533
0
LINE
8
BLACK
6
CONTINUOUS
10
186.834
20
-58.6533
11
186.445
21
-58.5641
0
LINE
8
BLACK
6
CONTINUOUS
10
186.445
20
-58.5641
11
186.066
21
-58.4404
0
LINE
8
BLACK
6
CONTINUOUS
10
186.066
20
-58.4404
11
185.7
21
-58.283
0
LINE
8
BLACK
6
CONTINUOUS
10
185.7
20
-58.283
11
185.349
21
-58.0932
0
LINE
8
BLACK
6
CONTINUOUS
10
185.349
20
-58.0932
11
185.016
21
-57.8726
0
LINE
8
BLACK
6
CONTINUOUS
10
185.016
20
-57.8726
11
184.705
21
-57.623
0
LINE
8
BLACK
6
CONTINUOUS
10
184.705
20
-57.623
11
184.418
21
-57.3464
0
LINE
8
BLACK
6
CONTINUOUS
10
184.418
20
-57.3464
11
184.157
21
-57.0451
0
LINE
8
BLACK
6
CONTINUOUS
10
184.157
20
-57.0451
11
183.924
21
-56.7215
0
LINE
8
BLACK
6
CONTINUOUS
10
183.924
20
-56.7215
11
183.721
21
-56.3781
0
LINE
8
BLACK
6
CONTINUOUS
10
183.721
20
-56.3781
11
183.55
21
-56.018
0
LINE
8
BLACK
6
CONTINUOUS
10
183.55
20
-56.018
11
183.411
21
-55.6438
0
LINE
8
BLACK
6
CONTINUOUS
10
183.411
20
-55.6438
11
183.308
21
-55.2587
0
LINE
8
BLACK
6
CONTINUOUS
10
183.308
20
-55.2587
11
183.239
21
-54.8659
0
LINE
8
BLACK
6
CONTINUOUS
10
183.239
20
-54.8659
11
183.206
21
-54.4685
0
LINE
8
BLACK
6
CONTINUOUS
10
183.206
20
-54.4685
11
183.206
21
-54.4684
0
LINE
8
BLACK
6
CONTINUOUS
10
183.206
20
-54.4684
11
183.206
21
-54.4669
0
LINE
8
BLACK
6
CONTINUOUS
10
183.206
20
-54.4669
11
183.206
21
-54.4656
0
LINE
8
BLACK
6
CONTINUOUS
10
183.206
20
-54.4656
11
183.206
21
-50
0
LINE
8
BLACK
6
CONTINUOUS
10
183.206
20
-50
11
183.206
21
-49.9994
0
LINE
8
BLACK
6
CONTINUOUS
10
183.206
20
-49.9994
11
183.206
21
-49.9992
0
LINE
8
BLACK
6
CONTINUOUS
10
183.206
20
-49.9992
11
183.206
21
-49.9983
0
LINE
8
BLACK
6
CONTINUOUS
10
183.206
20
-49.9983
11
183.209
21
-49.9782
0
LINE
8
BLACK
6
CONTINUOUS
10
183.209
20
-49.9782
11
183.196
21
-49.6027
0
LINE
8
BLACK
6
CONTINUOUS
10
183.196
20
-49.6027
11
183.146
21
-49.2091
0
LINE
8
BLACK
6
CONTINUOUS
10
183.146
20
-49.2091
11
183.06
21
-48.8219
0
LINE
8
BLACK
6
CONTINUOUS
10
183.06
20
-48.8219
11
182.939
21
-48.4441
0
LINE
8
BLACK
6
CONTINUOUS
10
182.939
20
-48.4441
11
182.783
21
-48.0792
0
LINE
8
BLACK
6
CONTINUOUS
10
182.783
20
-48.0792
11
182.595
21
-47.73
0
LINE
8
BLACK
6
CONTINUOUS
10
182.595
20
-47.73
11
182.375
21
-47.3997
0
LINE
8
BLACK
6
CONTINUOUS
10
182.375
20
-47.3997
11
182.126
21
-47.091
0
LINE
8
BLACK
6
CONTINUOUS
10
182.126
20
-47.091
11
181.849
21
-46.8065
0
LINE
8
BLACK
6
CONTINUOUS
10
181.849
20
-46.8065
11
181.548
21
-46.5485
0
LINE
8
BLACK
6
CONTINUOUS
10
181.548
20
-46.5485
11
181.224
21
-46.3194
0
LINE
8
BLACK
6
CONTINUOUS
10
181.224
20
-46.3194
11
180.88
21
-46.1211
0
LINE
8
BLACK
6
CONTINUOUS
10
180.88
20
-46.1211
11
180.532
21
-45.9605
0
LINE
8
BLACK
6
CONTINUOUS
10
180.532
20
-45.9605
11
180.519
21
-45.9598
0
LINE
8
BLACK
6
CONTINUOUS
10
180.519
20
-45.9598
11
180.519
21
-45.9594
0
LINE
8
BLACK
6
CONTINUOUS
10
180.519
20
-45.9594
11
180.518
21
-45.9594
0
LINE
8
BLACK
6
CONTINUOUS
10
180.518
20
-45.9594
11
180.508
21
-45.9505
0
LINE
8
BLACK
6
CONTINUOUS
10
180.508
20
-45.9505
11
178.614
21
-45.2324
0
LINE
8
BLACK
6
CONTINUOUS
10
178.614
20
-45.2324
11
176.695
21
-44.5434
0
LINE
8
BLACK
6
CONTINUOUS
10
176.695
20
-44.5434
11
174.763
21
-43.8887
0
LINE
8
BLACK
6
CONTINUOUS
10
174.763
20
-43.8887
11
172.82
21
-43.2685
0
LINE
8
BLACK
6
CONTINUOUS
10
172.82
20
-43.2685
11
170.867
21
-42.6831
0
LINE
8
BLACK
6
CONTINUOUS
10
170.867
20
-42.6831
11
168.903
21
-42.1327
0
LINE
8
BLACK
6
CONTINUOUS
10
168.903
20
-42.1327
11
166.93
21
-41.6173
0
LINE
8
BLACK
6
CONTINUOUS
10
166.93
20
-41.6173
11
164.948
21
-41.1372
0
LINE
8
BLACK
6
CONTINUOUS
10
164.948
20
-41.1372
11
162.958
21
-40.6925
0
LINE
8
BLACK
6
CONTINUOUS
10
162.958
20
-40.6925
11
160.96
21
-40.2834
0
LINE
8
BLACK
6
CONTINUOUS
10
160.96
20
-40.2834
11
158.955
21
-39.91
0
LINE
8
BLACK
6
CONTINUOUS
10
158.955
20
-39.91
11
156.944
21
-39.5724
0
LINE
8
BLACK
6
CONTINUOUS
10
156.944
20
-39.5724
11
154.927
21
-39.2707
0
LINE
8
BLACK
6
CONTINUOUS
10
154.927
20
-39.2707
11
152.905
21
-39.005
0
LINE
8
BLACK
6
CONTINUOUS
10
152.905
20
-39.005
11
150.878
21
-38.7754
0
LINE
8
BLACK
6
CONTINUOUS
10
150.878
20
-38.7754
11
148.848
21
-38.582
0
LINE
8
BLACK
6
CONTINUOUS
10
148.848
20
-38.582
11
146.815
21
-38.4248
0
LINE
8
BLACK
6
CONTINUOUS
10
146.815
20
-38.4248
11
144.779
21
-38.3039
0
LINE
8
BLACK
6
CONTINUOUS
10
144.779
20
-38.3039
11
142.742
21
-38.2194
0
LINE
8
BLACK
6
CONTINUOUS
10
142.742
20
-38.2194
11
140.703
21
-38.1711
0
LINE
8
BLACK
6
CONTINUOUS
10
140.703
20
-38.1711
11
138.663
21
-38.1593
0
LINE
8
BLACK
6
CONTINUOUS
10
138.663
20
-38.1593
11
136.624
21
-38.1838
0
LINE
8
BLACK
6
CONTINUOUS
10
136.624
20
-38.1838
11
134.586
21
-38.2447
0
LINE
8
BLACK
6
CONTINUOUS
10
134.586
20
-38.2447
11
132.549
21
-38.3419
0
LINE
8
BLACK
6
CONTINUOUS
10
132.549
20
-38.3419
11
130.514
21
-38.4754
0
LINE
8
BLACK
6
CONTINUOUS
10
130.514
20
-38.4754
11
128.495
21
-38.644
0
LINE
8
BLACK
6
CONTINUOUS
10
128.495
20
-38.644
11
128.482
21
-38.6497
0
LINE
8
BLACK
6
CONTINUOUS
10
128.482
20
-38.6497
11
128.482
21
-38.6497
0
LINE
8
BLACK
6
CONTINUOUS
10
128.482
20
-38.6497
11
128.482
21
-38.6497
0
LINE
8
BLACK
6
CONTINUOUS
10
128.482
20
-38.6497
11
128.468
21
-38.6466
0
LINE
8
BLACK
6
CONTINUOUS
10
128.468
20
-38.6466
11
126.894
21
-38.8094
0
LINE
8
BLACK
6
CONTINUOUS
10
126.894
20
-38.8094
11
125.31
21
-39.0092
0
LINE
8
BLACK
6
CONTINUOUS
10
125.31
20
-39.0092
11
123.732
21
-39.2445
0
LINE
8
BLACK
6
CONTINUOUS
10
123.732
20
-39.2445
11
122.159
21
-39.5151
0
LINE
8
BLACK
6
CONTINUOUS
10
122.159
20
-39.5151
11
120.592
21
-39.821
0
LINE
8
BLACK
6
CONTINUOUS
10
120.592
20
-39.821
11
119.033
21
-40.162
0
LINE
8
BLACK
6
CONTINUOUS
10
119.033
20
-40.162
11
117.482
21
-40.5379
0
LINE
8
BLACK
6
CONTINUOUS
10
117.482
20
-40.5379
11
115.94
21
-40.9485
0
LINE
8
BLACK
6
CONTINUOUS
10
115.94
20
-40.9485
11
114.407
21
-41.3937
0
LINE
8
BLACK
6
CONTINUOUS
10
114.407
20
-41.3937
11
112.885
21
-41.8731
0
LINE
8
BLACK
6
CONTINUOUS
10
112.885
20
-41.8731
11
111.373
21
-42.3866
0
LINE
8
BLACK
6
CONTINUOUS
10
111.373
20
-42.3866
11
109.874
21
-42.9339
0
LINE
8
BLACK
6
CONTINUOUS
10
109.874
20
-42.9339
11
108.387
21
-43.5147
0
LINE
8
BLACK
6
CONTINUOUS
10
108.387
20
-43.5147
11
106.914
21
-44.1287
0
LINE
8
BLACK
6
CONTINUOUS
10
106.914
20
-44.1287
11
105.455
21
-44.7757
0
LINE
8
BLACK
6
CONTINUOUS
10
105.455
20
-44.7757
11
104.011
21
-45.4552
0
LINE
8
BLACK
6
CONTINUOUS
10
104.011
20
-45.4552
11
102.582
21
-46.167
0
LINE
8
BLACK
6
CONTINUOUS
10
102.582
20
-46.167
11
101.17
21
-46.9106
0
LINE
8
BLACK
6
CONTINUOUS
10
101.17
20
-46.9106
11
99.775
21
-47.6858
0
LINE
8
BLACK
6
CONTINUOUS
10
99.775
20
-47.6858
11
98.3976
21
-48.4921
0
LINE
8
BLACK
6
CONTINUOUS
10
98.3976
20
-48.4921
11
97.0386
21
-49.3291
0
LINE
8
BLACK
6
CONTINUOUS
10
97.0386
20
-49.3291
11
95.6988
21
-50.1965
0
LINE
8
BLACK
6
CONTINUOUS
10
95.6988
20
-50.1965
11
94.3788
21
-51.0936
0
LINE
8
BLACK
6
CONTINUOUS
10
94.3788
20
-51.0936
11
93.0792
21
-52.0202
0
LINE
8
BLACK
6
CONTINUOUS
10
93.0792
20
-52.0202
11
91.8008
21
-52.9757
0
LINE
8
BLACK
6
CONTINUOUS
10
91.8008
20
-52.9757
11
90.5546
21
-53.9515
0
LINE
8
BLACK
6
CONTINUOUS
10
90.5546
20
-53.9515
11
90.5469
21
-53.9632
0
LINE
8
BLACK
6
CONTINUOUS
10
90.5469
20
-53.9632
11
90.5446
21
-53.9641
0
LINE
8
BLACK
6
CONTINUOUS
10
90.5446
20
-53.9641
11
90.5431
21
-53.966
0
LINE
8
BLACK
6
CONTINUOUS
10
90.5431
20
-53.966
11
90.5326
21
-53.9693
0
LINE
8
BLACK
6
CONTINUOUS
10
90.5326
20
-53.9693
11
90.2606
21
-54.179
0
LINE
8
BLACK
6
CONTINUOUS
10
90.2606
20
-54.179
11
90.0006
21
-54.4191
0
LINE
8
BLACK
6
CONTINUOUS
10
90.0006
20
-54.4191
11
89.7629
21
-54.6814
0
LINE
8
BLACK
6
CONTINUOUS
10
89.7629
20
-54.6814
11
89.5494
21
-54.9637
0
LINE
8
BLACK
6
CONTINUOUS
10
89.5494
20
-54.9637
11
89.3618
21
-55.2638
0
LINE
8
BLACK
6
CONTINUOUS
10
89.3618
20
-55.2638
11
89.2015
21
-55.5793
0
LINE
8
BLACK
6
CONTINUOUS
10
89.2015
20
-55.5793
11
89.0698
21
-55.9078
0
LINE
8
BLACK
6
CONTINUOUS
10
89.0698
20
-55.9078
11
88.9677
21
-56.2467
0
LINE
8
BLACK
6
CONTINUOUS
10
88.9677
20
-56.2467
11
88.896
21
-56.5933
0
LINE
8
BLACK
6
CONTINUOUS
10
88.896
20
-56.5933
11
88.8554
21
-56.9449
0
LINE
8
BLACK
6
CONTINUOUS
10
88.8554
20
-56.9449
11
88.8464
21
-57.2881
0
LINE
8
BLACK
6
CONTINUOUS
10
88.8464
20
-57.2881
11
88.85
21
-57.2986
0
LINE
8
BLACK
6
CONTINUOUS
10
88.85
20
-57.2986
11
88.8498
21
-57.2993
0
LINE
8
BLACK
6
CONTINUOUS
10
88.8498
20
-57.2993
11
88.85
21
-57.2998
0
LINE
8
BLACK
6
CONTINUOUS
10
88.85
20
-57.2998
11
88.855
21
-59.5774
0
LINE
8
BLACK
6
CONTINUOUS
10
88.855
20
-59.5774
11
88.855
21
-59.5775
0
LINE
8
BLACK
6
CONTINUOUS
10
88.855
20
-59.5775
11
88.855
21
-59.5775
0
LINE
8
BLACK
6
CONTINUOUS
10
88.855
20
-59.5775
11
88.855
21
-106.922
0
LINE
8
BLACK
6
CONTINUOUS
10
88.855
20
-106.922
11
88.8517
21
-106.941
0
LINE
8
BLACK
6
CONTINUOUS
10
88.8517
20
-106.941
11
88.8676
21
-107.3
0
LINE
8
BLACK
6
CONTINUOUS
10
88.8676
20
-107.3
11
88.9178
21
-107.676
0
LINE
8
BLACK
6
CONTINUOUS
10
88.9178
20
-107.676
11
89.0011
21
-108.046
0
LINE
8
BLACK
6
CONTINUOUS
10
89.0011
20
-108.046
11
89.1168
21
-108.407
0
LINE
8
BLACK
6
CONTINUOUS
10
89.1168
20
-108.407
11
89.264
21
-108.756
0
LINE
8
BLACK
6
CONTINUOUS
10
89.264
20
-108.756
11
89.4415
21
-109.091
0
LINE
8
BLACK
6
CONTINUOUS
10
89.4415
20
-109.091
11
89.6479
21
-109.409
0
LINE
8
BLACK
6
CONTINUOUS
10
89.6479
20
-109.409
11
89.8817
21
-109.707
0
LINE
8
BLACK
6
CONTINUOUS
10
89.8817
20
-109.707
11
90.141
21
-109.984
0
LINE
8
BLACK
6
CONTINUOUS
10
90.141
20
-109.984
11
90.4237
21
-110.236
0
LINE
8
BLACK
6
CONTINUOUS
10
90.4237
20
-110.236
11
90.7276
21
-110.463
0
LINE
8
BLACK
6
CONTINUOUS
10
90.7276
20
-110.463
11
91.0504
21
-110.661
0
LINE
8
BLACK
6
CONTINUOUS
10
91.0504
20
-110.661
11
91.3895
21
-110.831
0
LINE
8
BLACK
6
CONTINUOUS
10
91.3895
20
-110.831
11
91.7423
21
-110.97
0
LINE
8
BLACK
6
CONTINUOUS
10
91.7423
20
-110.97
11
92.106
21
-111.076
0
LINE
8
BLACK
6
CONTINUOUS
10
92.106
20
-111.076
11
92.4777
21
-111.151
0
LINE
8
BLACK
6
CONTINUOUS
10
92.4777
20
-111.151
11
92.8419
21
-111.191
0
LINE
8
BLACK
6
CONTINUOUS
10
92.8419
20
-111.191
11
92.8517
21
-111.188
0
LINE
8
BLACK
6
CONTINUOUS
10
92.8517
20
-111.188
11
92.8517
21
-111.188
0
LINE
8
BLACK
6
CONTINUOUS
10
92.8517
20
-111.188
11
95.7394
21
-111.273
0
LINE
8
BLACK
6
CONTINUOUS
10
95.7394
20
-111.273
11
98.6259
21
-111.395
0
LINE
8
BLACK
6
CONTINUOUS
10
98.6259
20
-111.395
11
101.511
21
-111.553
0
LINE
8
BLACK
6
CONTINUOUS
10
101.511
20
-111.553
11
104.393
21
-111.749
0
LINE
8
BLACK
6
CONTINUOUS
10
104.393
20
-111.749
11
107.273
21
-111.981
0
LINE
8
BLACK
6
CONTINUOUS
10
107.273
20
-111.981
11
110.149
21
-112.249
0
LINE
8
BLACK
6
CONTINUOUS
10
110.149
20
-112.249
11
113.022
21
-112.554
0
LINE
8
BLACK
6
CONTINUOUS
10
113.022
20
-112.554
11
115.891
21
-112.896
0
LINE
8
BLACK
6
CONTINUOUS
10
115.891
20
-112.896
11
118.755
21
-113.274
0
LINE
8
BLACK
6
CONTINUOUS
10
118.755
20
-113.274
11
121.614
21
-113.688
0
LINE
8
BLACK
6
CONTINUOUS
10
121.614
20
-113.688
11
124.468
21
-114.139
0
LINE
8
BLACK
6
CONTINUOUS
10
124.468
20
-114.139
11
127.315
21
-114.625
0
LINE
8
BLACK
6
CONTINUOUS
10
127.315
20
-114.625
11
130.157
21
-115.148
0
LINE
8
BLACK
6
CONTINUOUS
10
130.157
20
-115.148
11
132.991
21
-115.708
0
LINE
8
BLACK
6
CONTINUOUS
10
132.991
20
-115.708
11
135.818
21
-116.303
0
LINE
8
BLACK
6
CONTINUOUS
10
135.818
20
-116.303
11
138.637
21
-116.934
0
LINE
8
BLACK
6
CONTINUOUS
10
138.637
20
-116.934
11
141.448
21
-117.601
0
LINE
8
BLACK
6
CONTINUOUS
10
141.448
20
-117.601
11
144.251
21
-118.303
0
LINE
8
BLACK
6
CONTINUOUS
10
144.251
20
-118.303
11
147.044
21
-119.041
0
LINE
8
BLACK
6
CONTINUOUS
10
147.044
20
-119.041
11
149.827
21
-119.815
0
LINE
8
BLACK
6
CONTINUOUS
10
149.827
20
-119.815
11
152.601
21
-120.623
0
LINE
8
BLACK
6
CONTINUOUS
10
152.601
20
-120.623
11
155.364
21
-121.467
0
LINE
8
BLACK
6
CONTINUOUS
10
155.364
20
-121.467
11
158.116
21
-122.347
0
LINE
8
BLACK
6
CONTINUOUS
10
158.116
20
-122.347
11
160.856
21
-123.261
0
LINE
8
BLACK
6
CONTINUOUS
10
160.856
20
-123.261
11
163.585
21
-124.209
0
LINE
8
BLACK
6
CONTINUOUS
10
163.585
20
-124.209
11
166.302
21
-125.193
0
LINE
8
BLACK
6
CONTINUOUS
10
166.302
20
-125.193
11
169.006
21
-126.211
0
LINE
8
BLACK
6
CONTINUOUS
10
169.006
20
-126.211
11
171.696
21
-127.263
0
LINE
8
BLACK
6
CONTINUOUS
10
171.696
20
-127.263
11
174.373
21
-128.349
0
LINE
8
BLACK
6
CONTINUOUS
10
174.373
20
-128.349
11
177.036
21
-129.469
0
LINE
8
BLACK
6
CONTINUOUS
10
177.036
20
-129.469
11
179.685
21
-130.623
0
LINE
8
BLACK
6
CONTINUOUS
10
179.685
20
-130.623
11
182.313
21
-131.808
0
LINE
8
BLACK
6
CONTINUOUS
10
182.313
20
-131.808
11
182.493
21
-131.861
0
LINE
8
BLACK
6
CONTINUOUS
10
182.493
20
-131.861
11
182.676
21
-131.924
0
LINE
8
BLACK
6
CONTINUOUS
10
182.676
20
-131.924
11
182.856
21
-131.995
0
LINE
8
BLACK
6
CONTINUOUS
10
182.856
20
-131.995
11
182.856
21
-131.995
0
LINE
8
BLACK
6
CONTINUOUS
10
182.856
20
-131.995
11
182.856
21
-131.995
0
LINE
8
BLACK
6
CONTINUOUS
10
182.856
20
-131.995
11
188.901
21
-134.524
0
LINE
8
BLACK
6
CONTINUOUS
10
188.901
20
-134.524
11
188.917
21
-134.535
0
LINE
8
BLACK
6
CONTINUOUS
10
188.917
20
-134.535
11
189.258
21
-134.66
0
LINE
8
BLACK
6
CONTINUOUS
10
189.258
20
-134.66
11
189.628
21
-134.759
0
LINE
8
BLACK
6
CONTINUOUS
10
189.628
20
-134.759
11
190.005
21
-134.825
0
LINE
8
BLACK
6
CONTINUOUS
10
190.005
20
-134.825
11
190.386
21
-134.857
0
LINE
8
BLACK
6
CONTINUOUS
10
190.386
20
-134.857
11
190.769
21
-134.855
0
LINE
8
BLACK
6
CONTINUOUS
10
190.769
20
-134.855
11
191.15
21
-134.818
0
LINE
8
BLACK
6
CONTINUOUS
10
191.15
20
-134.818
11
191.526
21
-134.748
0
LINE
8
BLACK
6
CONTINUOUS
10
191.526
20
-134.748
11
191.894
21
-134.644
0
LINE
8
BLACK
6
CONTINUOUS
10
191.894
20
-134.644
11
192.252
21
-134.508
0
LINE
8
BLACK
6
CONTINUOUS
10
192.252
20
-134.508
11
192.596
21
-134.34
0
LINE
8
BLACK
6
CONTINUOUS
10
192.596
20
-134.34
11
192.924
21
-134.142
0
LINE
8
BLACK
6
CONTINUOUS
10
192.924
20
-134.142
11
193.232
21
-133.916
0
LINE
8
BLACK
6
CONTINUOUS
10
193.232
20
-133.916
11
193.52
21
-133.663
0
LINE
8
BLACK
6
CONTINUOUS
10
193.52
20
-133.663
11
193.783
21
-133.386
0
LINE
8
BLACK
6
CONTINUOUS
10
193.783
20
-133.386
11
194.021
21
-133.086
0
LINE
8
BLACK
6
CONTINUOUS
10
194.021
20
-133.086
11
194.231
21
-132.766
0
LINE
8
BLACK
6
CONTINUOUS
10
194.231
20
-132.766
11
194.405
21
-132.439
0
LINE
8
BLACK
6
CONTINUOUS
10
194.405
20
-132.439
11
194.406
21
-132.429
0
LINE
8
BLACK
6
CONTINUOUS
10
194.406
20
-132.429
11
201.356
21
-116.154
0
LINE
8
BLACK
6
CONTINUOUS
10
201.356
20
-116.154
11
201.362
21
-116.145
0
LINE
8
BLACK
6
CONTINUOUS
10
201.362
20
-116.145
11
201.472
21
-115.811
0
LINE
8
BLACK
6
CONTINUOUS
10
201.472
20
-115.811
11
201.564
21
-115.457
0
LINE
8
BLACK
6
CONTINUOUS
10
201.564
20
-115.457
11
201.633
21
-115.097
0
LINE
8
BLACK
6
CONTINUOUS
10
201.633
20
-115.097
11
201.68
21
-114.734
0
LINE
8
BLACK
6
CONTINUOUS
10
201.68
20
-114.734
11
201.703
21
-114.368
0
LINE
8
BLACK
6
CONTINUOUS
10
201.703
20
-114.368
11
201.703
21
-114.01
0
LINE
8
BLACK
6
CONTINUOUS
10
201.703
20
-114.01
11
201.7
21
-114.002
0
LINE
8
BLACK
6
CONTINUOUS
10
201.7
20
-114.002
11
201.7
21
-114.001
0
LINE
8
BLACK
6
CONTINUOUS
10
201.7
20
-114.001
11
201.7
21
-114
0
LINE
8
BLACK
6
CONTINUOUS
10
201.7
20
-114
11
201.7
21
-63
0
LINE
8
BLACK
6
CONTINUOUS
10
201.7
20
-63
11
201.7
21
-62.9991
0
LINE
8
BLACK
6
CONTINUOUS
10
201.7
20
-62.9991
11
201.7
21
-62.9986
0
LINE
8
BLACK
6
CONTINUOUS
10
201.7
20
-62.9986
11
201.7
21
-62.9972
0
LINE
8
BLACK
6
CONTINUOUS
10
201.7
20
-62.9972
11
201.704
21
-62.9773
0
LINE
8
BLACK
6
CONTINUOUS
10
201.704
20
-62.9773
11
201.694
21
-62.6062
0
LINE
8
BLACK
6
CONTINUOUS
10
201.694
20
-62.6062
11
201.646
21
-62.2165
0
LINE
8
BLACK
6
CONTINUOUS
10
201.646
20
-62.2165
11
201.562
21
-61.833
0
LINE
8
BLACK
6
CONTINUOUS
10
201.562
20
-61.833
11
201.443
21
-61.459
0
LINE
8
BLACK
6
CONTINUOUS
10
201.443
20
-61.459
11
201.289
21
-61.0977
0
LINE
8
BLACK
6
CONTINUOUS
10
201.289
20
-61.0977
11
201.102
21
-60.7523
0
LINE
8
BLACK
6
CONTINUOUS
10
201.102
20
-60.7523
11
200.884
21
-60.4259
0
LINE
8
BLACK
6
CONTINUOUS
10
200.884
20
-60.4259
11
200.636
21
-60.1213
0
LINE
8
BLACK
6
CONTINUOUS
10
200.636
20
-60.1213
11
200.361
21
-59.8412
0
LINE
8
BLACK
6
CONTINUOUS
10
200.361
20
-59.8412
11
200.061
21
-59.5879
0
LINE
8
BLACK
6
CONTINUOUS
10
200.061
20
-59.5879
11
199.739
21
-59.3638
0
LINE
8
BLACK
6
CONTINUOUS
10
199.739
20
-59.3638
11
199.397
21
-59.1708
0
LINE
8
BLACK
6
CONTINUOUS
10
199.397
20
-59.1708
11
199.039
21
-59.0105
0
LINE
8
BLACK
6
CONTINUOUS
10
199.039
20
-59.0105
11
198.667
21
-58.8843
0
LINE
8
BLACK
6
CONTINUOUS
10
198.667
20
-58.8843
11
198.285
21
-58.7935
0
LINE
8
BLACK
6
CONTINUOUS
10
198.285
20
-58.7935
11
197.896
21
-58.7387
0
LINE
8
BLACK
6
CONTINUOUS
10
197.896
20
-58.7387
11
197.516
21
-58.721
0
LINE
8
BLACK
6
CONTINUOUS
10
197.516
20
-58.721
11
197.504
21
-58.725
0
LINE
8
BLACK
6
CONTINUOUS
10
197.504
20
-58.725
11
197.504
21
-58.725
0
LINE
8
BLACK
6
CONTINUOUS
10
197.504
20
-58.725
11
197.504
21
-58.725
0
LINE
8
BLACK
6
CONTINUOUS
10
197.504
20
-58.725
11
187.627
21
-58.725
0
LINE
8
BLACK
6
CONTINUOUS
10
187.627
20
-58.725
11
187.229
21
-58.707
  0
ENDSEC
  0
EOF
