0
SECTION
2
HEADER
9
$INSUNITS
70
4
0
ENDSEC
0
SECTION
2
TABLES
0
TABLE
2
LTYPE
0
LTYPE
72
65
70
64
2
CONTINUOUS
3
______
73
0
40
0
0
ENDTAB
0
TABLE
2
LAYER
0
ENDTAB
0
ENDSEC
0
SECTION
2
ENTITIES
0
LINE
8
0
10
181.0187833
20
-121.4378739
11
164.1504613
21
-121.4378739
0
LINE
8
0
10
161.3689096
20
-117.3140541
11
165.5227124
21
-107.0330316
0
LINE
8
0
10
150.3224968
20
-99.2739437
11
164.6938465
21
-105.0803459
0
LINE
8
0
10
179.6465322
20
-107.0330316
11
183.800335
21
-117.3140541
0
LINE
8
0
10
180.4753981
20
-105.0803459
11
194.8467478
21
-99.2739437
0
ARC
8
0
10
181.0187833
20
-118.4378739
40
3
50
270
51
21.9999994
0
ARC
8
0
10
164.1504613
20
-118.4378739
40
3
50
158.0000006
51
270
0
ARC
8
0
10
172.5846223
20
-212.5884797
40
60
50
68.9094694
51
111.0905306
0
LINE
8
0
10
68.8287188
20
-110.4314604
11
83.7764988
21
-114.1583606
0
LINE
8
0
10
67.7361581
20
-108.613134
11
75.114776
21
-79.0191144
0
LINE
8
0
10
76.9331024
20
-77.9265537
11
94.9793628
21
-82.4259918
0
LINE
8
0
10
85.1107989
20
-119.8994875
11
97.4025404
21
-124.1318734
0
LINE
8
0
10
99.3091705
20
-123.2019479
11
99.9097173
21
-121.4578334
0
LINE
8
0
10
84.8318938
20
-116.1021565
11
84.1808734
21
-117.9928574
0
LINE
8
0
10
101.7147748
20
-71.6780402
11
118.7427012
21
-77.5412254
0
LINE
8
0
10
96.7605235
20
-81.4589005
11
99.8081447
21
-72.6079657
0
LINE
8
0
10
101.889905
20
-120.5554098
11
118.5177787
21
-127.2735069
0
LINE
8
0
10
135.6185372
20
-82.2781773
11
136.1336213
21
-81.0032995
0
LINE
8
0
10
135.3047554
20
-79.0506138
11
123.2513653
21
-74.1807281
0
LINE
8
0
10
121.2986796
20
-75.009594
11
120.6218293
21
-76.6848574
0
LINE
8
0
10
119.6604264
20
-132.4537561
11
121.1671002
21
-133.0624918
0
LINE
8
0
10
119.3466446
20
-129.2261926
11
118.8315605
21
-130.5010704
0
LINE
8
0
10
149.4936309
20
-97.321258
11
151.6476188
21
-91.9899509
0
LINE
8
0
10
136.4474031
20
-84.230863
11
150.8187529
21
-90.0372652
0
LINE
8
0
10
261.3927458
20
-114.1583606
11
276.3405258
21
-110.4314604
0
LINE
8
0
10
270.0544686
20
-79.0191144
11
277.4330865
21
-108.613134
0
LINE
8
0
10
250.1898818
20
-82.4259918
11
268.2361422
21
-77.9265537
0
LINE
8
0
10
247.7667042
20
-124.1318734
11
260.0584457
21
-119.8994875
0
LINE
8
0
10
260.9883712
20
-117.9928574
11
260.3373508
21
-116.1021565
0
LINE
8
0
10
245.2595273
20
-121.4578334
11
245.8600741
21
-123.2019479
0
LINE
8
0
10
245.3610999
20
-72.6079657
11
248.4087211
21
-81.4589005
0
LINE
8
0
10
226.4265434
20
-77.5412254
11
243.4544698
21
-71.6780402
0
LINE
8
0
10
226.6514659
20
-127.2735069
11
243.2793396
21
-120.5554098
0
LINE
8
0
10
224.5474153
20
-76.6848574
11
223.870565
21
-75.009594
0
LINE
8
0
10
221.9178793
20
-74.1807281
11
209.8644892
21
-79.0506138
0
LINE
8
0
10
209.0356233
20
-81.0032995
11
209.5507074
21
-82.2781773
0
LINE
8
0
10
224.0021444
20
-133.0624918
11
225.5088182
21
-132.4537561
0
LINE
8
0
10
226.3376841
20
-130.5010704
11
225.8226
21
-129.2261926
0
LINE
8
0
10
194.3504917
20
-90.0372652
11
208.7218415
21
-84.230863
0
LINE
8
0
10
193.5216258
20
-91.9899509
11
195.6756137
21
-97.321258
0
LINE
8
0
10
115.7073067
20
-154.5843564
11
130.0786564
21
-160.3907586
0
LINE
8
0
10
114.8784408
20
-152.6316707
11
121.9959661
21
-135.0151775
0
LINE
8
0
10
131.2213042
20
-165.5710077
11
143.2746943
21
-170.4408934
0
LINE
8
0
10
145.22738
20
-169.6120275
11
150.1430537
21
-157.4453082
0
LINE
8
0
10
130.9075224
20
-162.3434443
11
130.3924383
21
-163.618322
0
LINE
8
0
10
215.0905882
20
-160.3907586
11
229.4619379
21
-154.5843564
0
LINE
8
0
10
223.1732785
20
-135.0151775
11
230.2908038
21
-152.6316707
0
LINE
8
0
10
201.8945503
20
-170.4408934
11
213.9479404
21
-165.5710077
0
LINE
8
0
10
214.7768063
20
-163.618322
11
214.2617222
21
-162.3434443
0
LINE
8
0
10
195.0261909
20
-157.4453082
11
199.9418646
21
-169.6120275
0
ARC
8
0
10
164.1319366
20
-106.4711217
40
1.5
50
338.0000006
51
68.0000006
0
ARC
8
0
10
150.8844067
20
-97.8831679
40
1.5
50
158.0000006
51
248.0000006
0
ARC
8
0
10
150.256843
20
-91.428041
40
1.5
50
338.0000006
51
68.0000006
0
ARC
8
0
10
137.009313
20
-82.8400872
40
1.5
50
158.0000006
51
248.0000006
0
ARC
8
0
10
134.7428455
20
-80.4413896
40
1.5
50
338.0000006
51
68.0000006
0
ARC
8
0
10
122.6894554
20
-75.5715039
40
1.5
50
68.0000006
51
158.0000006
0
ARC
8
0
10
119.2310535
20
-76.1229475
40
1.5
50
250.999998
51
338.0000006
0
ARC
8
0
10
101.2264226
20
-73.096318
40
1.5
50
70.999998
51
160.999998
0
ARC
8
0
10
95.3422456
20
-80.9705482
40
1.5
50
255.9999994
51
340.999998
0
ARC
8
0
10
76.5702195
20
-79.3819972
40
1.5
50
75.9999994
51
165.9999994
0
ARC
8
0
10
69.1916016
20
-108.9760169
40
1.5
50
165.9999994
51
255.9999994
0
ARC
8
0
10
83.413616
20
-115.6138042
40
1.5
50
340.999998
51
75.9999994
0
ARC
8
0
10
85.5991512
20
-118.4812096
40
1.5
50
160.999998
51
250.999998
0
ARC
8
0
10
97.8908926
20
-122.7135956
40
1.5
50
250.999998
51
340.999998
0
ARC
8
0
10
101.3279952
20
-121.9461856
40
1.5
50
68.0000006
51
160.999998
0
ARC
8
0
10
117.9558688
20
-128.6642827
40
1.5
50
338.0000006
51
68.0000006
0
ARC
8
0
10
120.2223363
20
-131.0629803
40
1.5
50
158.0000006
51
248.0000006
0
ARC
8
0
10
120.6051903
20
-134.4532676
40
1.5
50
338.0000006
51
68.0000006
0
ARC
8
0
10
116.2692166
20
-153.1935806
40
1.5
50
158.0000006
51
248.0000006
0
ARC
8
0
10
129.5167465
20
-161.7815344
40
1.5
50
338.0000006
51
68.0000006
0
ARC
8
0
10
131.7832141
20
-164.1802319
40
1.5
50
158.0000006
51
248.0000006
0
ARC
8
0
10
143.8366042
20
-169.0501176
40
1.5
50
248.0000006
51
338.0000006
0
ARC
8
0
10
151.5338295
20
-158.0072181
40
1.5
50
111.0905306
51
158.0000006
0
ARC
8
0
10
193.6354151
20
-158.0072181
40
1.5
50
21.9999994
51
68.9094694
0
ARC
8
0
10
201.3326404
20
-169.0501176
40
1.5
50
201.9999994
51
291.9999994
0
ARC
8
0
10
213.3860305
20
-164.1802319
40
1.5
50
291.9999994
51
21.9999994
0
ARC
8
0
10
215.6524981
20
-161.7815344
40
1.5
50
111.9999994
51
201.9999994
0
ARC
8
0
10
228.900028
20
-153.1935806
40
1.5
50
291.9999994
51
21.9999994
0
ARC
8
0
10
224.5640543
20
-134.4532676
40
1.5
50
111.9999994
51
201.9999994
0
ARC
8
0
10
224.9469083
20
-131.0629803
40
1.5
50
291.9999994
51
21.9999994
0
ARC
8
0
10
227.2133758
20
-128.6642827
40
1.5
50
111.9999994
51
201.9999994
0
ARC
8
0
10
243.8412494
20
-121.9461856
40
1.5
50
19.000002
51
111.9999994
0
ARC
8
0
10
247.278352
20
-122.7135956
40
1.5
50
199.000002
51
289.000002
0
ARC
8
0
10
259.5700934
20
-118.4812096
40
1.5
50
289.000002
51
19.000002
0
ARC
8
0
10
261.7556286
20
-115.6138042
40
1.5
50
104.0000006
51
199.000002
0
ARC
8
0
10
275.977643
20
-108.9760169
40
1.5
50
284.0000006
51
14.0000006
0
ARC
8
0
10
268.5990251
20
-79.3819972
40
1.5
50
14.0000006
51
104.0000006
0
ARC
8
0
10
249.826999
20
-80.9705482
40
1.5
50
199.000002
51
284.0000006
0
ARC
8
0
10
243.942822
20
-73.096318
40
1.5
50
19.000002
51
109.000002
0
ARC
8
0
10
225.9381911
20
-76.1229475
40
1.5
50
201.9999994
51
289.000002
0
ARC
8
0
10
222.4797892
20
-75.5715039
40
1.5
50
21.9999994
51
111.9999994
0
ARC
8
0
10
210.4263991
20
-80.4413896
40
1.5
50
111.9999994
51
201.9999994
0
ARC
8
0
10
208.1599316
20
-82.8400872
40
1.5
50
291.9999994
51
21.9999994
0
ARC
8
0
10
194.9124016
20
-91.428041
40
1.5
50
111.9999994
51
201.9999994
0
ARC
8
0
10
194.2848379
20
-97.8831679
40
1.5
50
291.9999994
51
21.9999994
0
ARC
8
0
10
181.037308
20
-106.4711217
40
1.5
50
111.9999994
51
201.9999994
0
ENDSEC
0
EOF