0
SECTION
2
HEADER
9
$INSUNITS
70
4
0
ENDSEC
0
SECTION
2
TABLES
0
TABLE
2
LTYPE
0
LTYPE
72
65
70
64
2
CONTINUOUS
3
______
73
0
40
0
0
ENDTAB
0
TABLE
2
LAYER
0
ENDTAB
0
ENDSEC
0
SECTION
2
ENTITIES
0
CIRCLE
8
0
10
104.5
20
-54.35
40
1
0
CIRCLE
8
0
10
104.5
20
-93.15
40
1
0
CIRCLE
8
0
10
118.5
20
-42.15
40
1
0
CIRCLE
8
0
10
118.5
20
-97.65
40
1
0
CIRCLE
8
0
10
155.5
20
-43.35
40
1
0
CIRCLE
8
0
10
155.5
20
-98.85
40
1
0
CIRCLE
8
0
10
171
20
-91.65
40
1
0
CIRCLE
8
0
10
170.4388656
20
-126.85568
40
1
0
CIRCLE
8
0
10
201.15
20
-54
40
1
0
LINE
8
0
10
93.05
20
-89.45
11
106.95
21
-89.45
0
LINE
8
0
10
106.95
20
-89.45
11
106.95
21
-75.55
0
LINE
8
0
10
106.95
20
-75.55
11
93.05
21
-75.55
0
LINE
8
0
10
93.05
20
-75.55
11
93.05
21
-89.45
0
LINE
8
0
10
93.05
20
-71.95
11
106.95
21
-71.95
0
LINE
8
0
10
106.95
20
-71.95
11
106.95
21
-58.05
0
LINE
8
0
10
106.95
20
-58.05
11
93.05
21
-58.05
0
LINE
8
0
10
93.05
20
-58.05
11
93.05
21
-71.95
0
LINE
8
0
10
111.55
20
-93.45
11
125.45
21
-93.45
0
LINE
8
0
10
125.45
20
-93.45
11
125.45
21
-79.55
0
LINE
8
0
10
125.45
20
-79.55
11
111.55
21
-79.55
0
LINE
8
0
10
111.55
20
-79.55
11
111.55
21
-93.45
0
LINE
8
0
10
111.55
20
-75.95
11
125.45
21
-75.95
0
LINE
8
0
10
125.45
20
-75.95
11
125.45
21
-62.05
0
LINE
8
0
10
125.45
20
-62.05
11
111.55
21
-62.05
0
LINE
8
0
10
111.55
20
-62.05
11
111.55
21
-75.95
0
LINE
8
0
10
111.55
20
-58.45
11
125.45
21
-58.45
0
LINE
8
0
10
125.45
20
-58.45
11
125.45
21
-44.55
0
LINE
8
0
10
125.45
20
-44.55
11
111.55
21
-44.55
0
LINE
8
0
10
111.55
20
-44.55
11
111.55
21
-58.45
0
LINE
8
0
10
130.05
20
-87.45
11
143.95
21
-87.45
0
LINE
8
0
10
143.95
20
-87.45
11
143.95
21
-73.55
0
LINE
8
0
10
143.95
20
-73.55
11
130.05
21
-73.55
0
LINE
8
0
10
130.05
20
-73.55
11
130.05
21
-87.45
0
LINE
8
0
10
130.05
20
-69.95
11
143.95
21
-69.95
0
LINE
8
0
10
143.95
20
-69.95
11
143.95
21
-56.05
0
LINE
8
0
10
143.95
20
-56.05
11
130.05
21
-56.05
0
LINE
8
0
10
130.05
20
-56.05
11
130.05
21
-69.95
0
LINE
8
0
10
130.05
20
-52.45
11
143.95
21
-52.45
0
LINE
8
0
10
143.95
20
-52.45
11
143.95
21
-38.55
0
LINE
8
0
10
143.95
20
-38.55
11
130.05
21
-38.55
0
LINE
8
0
10
130.05
20
-38.55
11
130.05
21
-52.45
0
LINE
8
0
10
148.55
20
-94.65
11
162.45
21
-94.65
0
LINE
8
0
10
162.45
20
-94.65
11
162.45
21
-80.75
0
LINE
8
0
10
162.45
20
-80.75
11
148.55
21
-80.75
0
LINE
8
0
10
148.55
20
-80.75
11
148.55
21
-94.65
0
LINE
8
0
10
148.55
20
-77.15
11
162.45
21
-77.15
0
LINE
8
0
10
162.45
20
-77.15
11
162.45
21
-63.25
0
LINE
8
0
10
162.45
20
-63.25
11
148.55
21
-63.25
0
LINE
8
0
10
148.55
20
-63.25
11
148.55
21
-77.15
0
LINE
8
0
10
148.55
20
-59.65
11
162.45
21
-59.65
0
LINE
8
0
10
162.45
20
-59.65
11
162.45
21
-45.75
0
LINE
8
0
10
162.45
20
-45.75
11
148.55
21
-45.75
0
LINE
8
0
10
148.55
20
-45.75
11
148.55
21
-59.65
0
LINE
8
0
10
167.05
20
-87.95
11
180.95
21
-87.95
0
LINE
8
0
10
180.95
20
-87.95
11
180.95
21
-74.05
0
LINE
8
0
10
180.95
20
-74.05
11
167.05
21
-74.05
0
LINE
8
0
10
167.05
20
-74.05
11
167.05
21
-87.95
0
LINE
8
0
10
155.7424891
20
-119.6621747
11
168.9621747
21
-123.9575109
0
LINE
8
0
10
168.9621747
20
-123.9575109
11
173.2575109
21
-110.7378253
0
LINE
8
0
10
173.2575109
20
-110.7378253
11
160.0378253
21
-106.4424891
0
LINE
8
0
10
160.0378253
20
-106.4424891
11
155.7424891
21
-119.6621747
0
LINE
8
0
10
173.0512506
20
-125.8207609
11
184.9658761
21
-132.9797902
0
LINE
8
0
10
184.9658761
20
-132.9797902
11
192.1249054
21
-121.0651647
0
LINE
8
0
10
192.1249054
20
-121.0651647
11
180.2102799
21
-113.9061354
0
LINE
8
0
10
180.2102799
20
-113.9061354
11
173.0512506
21
-125.8207609
0
LINE
8
0
10
188.25
20
-87.7
11
199.05
21
-87.7
0
LINE
8
0
10
199.05
20
-87.7
11
199.05
21
-62.4
0
LINE
8
0
10
199.05
20
-62.4
11
188.25
21
-62.4
0
LINE
8
0
10
188.25
20
-62.4
11
188.25
21
-87.7
0
ENDSEC
0
EOF