0
SECTION
2
HEADER
9
$INSUNITS
70
4
0
ENDSEC
0
SECTION
2
TABLES
0
TABLE
2
LTYPE
0
LTYPE
72
65
70
64
2
CONTINUOUS
3
______
73
0
40
0
0
ENDTAB
0
TABLE
2
LAYER
0
ENDTAB
0
ENDSEC
0
SECTION
2
ENTITIES
0
LINE
8
0
10
181.3083923
20
-135.6451472
11
153.1079058
21
-122.5388376
0
LINE
8
0
10
150.8850514
20
-121.5057555
11
111.0667254
21
-103
0
LINE
8
0
10
185.3641655
20
-51.75
11
201.05
21
-51.75
0
LINE
8
0
10
203.55
20
-54.25
11
203.55
21
-90.6357241
0
LINE
8
0
10
203.3948913
20
-92.0472317
11
197.2215338
21
-119.7972006
0
ARC
8
0
10
197.05
20
-90.6357241
40
6.5
50
347.4580124
51
0
0
ARC
8
0
10
190.8766425
20
-118.3856931
40
6.5
50
345.9606587
51
347.4580124
0
ARC
8
0
10
184.0478902
20
-129.7506454
40
6.5
50
245.0731256
51
264.9404513
0
ARC
8
0
10
138.5
20
-103.25
40
69
50
49.0467605
51
98.4554726
0
ARC
8
0
10
138.5
20
-103.25
40
69
50
116.6972013
51
134.3004617
0
ARC
8
0
10
138.5
20
-103.25
40
69
50
100.4373
51
115.5546938
0
ARC
8
0
10
92.055
20
-55.6568075
40
2.5
50
134.3004617
51
152.4370422
0
ARC
8
0
10
185.3641655
20
-49.25
40
2.5
50
229.0467605
51
270
0
ARC
8
0
10
201.05
20
-54.25
40
2.5
50
0
51
90
0
LINE
8
0
10
121
20
-97
11
121
21
-103
0
LINE
8
0
10
111.0667254
20
-103
11
121
21
-103
0
LINE
8
0
10
97.5
20
-54.5
11
89.8387427
21
-54.5
0
LINE
8
0
10
121
20
-97
11
129.5
21
-97
0
LINE
8
0
10
129.5
20
-97
11
129.5
21
-91
0
LINE
8
0
10
97.5
20
-48.5
11
107.5
21
-48.5
0
LINE
8
0
10
97.5
20
-54.5
11
97.5
21
-48.5
0
LINE
8
0
10
108.7352977
20
-41
11
126
21
-41
0
LINE
8
0
10
107.5000001
20
-41.6058599
11
107.5
21
-48.5
0
LINE
8
0
10
129.5
20
-91
11
144.5
21
-91
0
LINE
8
0
10
148
20
-42.2
11
148
21
-35
0
LINE
8
0
10
148
20
-35
11
128.354188
21
-35
0
LINE
8
0
10
126
20
-35.3916917
11
126
21
-41
0
LINE
8
0
10
144.5
20
-98.2
11
153
21
-98.2
0
LINE
8
0
10
144.5
20
-91
11
144.5
21
-98.2
0
LINE
8
0
10
166.5
20
-49.7
11
176.5
21
-49.7
0
LINE
8
0
10
176.5
20
-49.7
11
176.5
21
-60.5
0
LINE
8
0
10
166.5
20
-49.7
11
166.5
21
-42.2
0
LINE
8
0
10
148
20
-42.2
11
166.5
21
-42.2
0
LINE
8
0
10
185
20
-101.5
11
185
21
-60.5
0
LINE
8
0
10
176.5
20
-60.5
11
185
21
-60.5
0
LINE
8
0
10
153
20
-101.5
11
185
21
-101.5
0
LINE
8
0
10
153
20
-101.5
11
153
21
-98.2
0
LINE
8
0
10
153.1079058
20
-122.5388376
11
169.6320902
21
-127.9078706
0
LINE
8
0
10
177.665246
20
-110.2782868
11
178.2063001
21
-108.6130935
0
LINE
8
0
10
178.2063001
20
-108.6130935
11
157.2830568
21
-101.8147196
0
LINE
8
0
10
157.2830568
20
-101.8147196
11
150.8850514
21
-121.5057555
0
LINE
8
0
10
169.6320902
20
-127.9078706
11
183.4746483
21
-136.2253187
0
LINE
8
0
10
197.1824835
20
-119.9625156
11
178.5671375
21
-108.7772873
0
LINE
8
0
10
178.5671375
20
-108.7772873
11
177.665246
21
-110.2782868
0
LINE
8
0
10
91.25
20
-90.75
11
108.75
21
-90.75
0
LINE
8
0
10
108.75
20
-90.75
11
108.75
21
-74.25
0
LINE
8
0
10
108.75
20
-74.25
11
91.25
21
-74.25
0
LINE
8
0
10
91.25
20
-74.25
11
91.25
21
-90.75
0
LINE
8
0
10
91.25
20
-73.25
11
108.75
21
-73.25
0
LINE
8
0
10
108.75
20
-73.25
11
108.75
21
-56.75
0
LINE
8
0
10
108.75
20
-56.75
11
91.25
21
-56.75
0
LINE
8
0
10
91.25
20
-56.75
11
91.25
21
-73.25
0
LINE
8
0
10
109.75
20
-94.75
11
127.25
21
-94.75
0
LINE
8
0
10
127.25
20
-94.75
11
127.25
21
-78.25
0
LINE
8
0
10
127.25
20
-78.25
11
109.75
21
-78.25
0
LINE
8
0
10
109.75
20
-78.25
11
109.75
21
-94.75
0
LINE
8
0
10
109.75
20
-77.25
11
127.25
21
-77.25
0
LINE
8
0
10
127.25
20
-77.25
11
127.25
21
-60.75
0
LINE
8
0
10
127.25
20
-60.75
11
109.75
21
-60.75
0
LINE
8
0
10
109.75
20
-60.75
11
109.75
21
-77.25
0
LINE
8
0
10
109.75
20
-59.75
11
127.25
21
-59.75
0
LINE
8
0
10
127.25
20
-59.75
11
127.25
21
-43.25
0
LINE
8
0
10
127.25
20
-43.25
11
109.75
21
-43.25
0
LINE
8
0
10
109.75
20
-43.25
11
109.75
21
-59.75
0
LINE
8
0
10
128.25
20
-88.75
11
145.75
21
-88.75
0
LINE
8
0
10
145.75
20
-88.75
11
145.75
21
-72.25
0
LINE
8
0
10
145.75
20
-72.25
11
128.25
21
-72.25
0
LINE
8
0
10
128.25
20
-72.25
11
128.25
21
-88.75
0
LINE
8
0
10
128.25
20
-71.25
11
145.75
21
-71.25
0
LINE
8
0
10
145.75
20
-71.25
11
145.75
21
-54.75
0
LINE
8
0
10
145.75
20
-54.75
11
128.25
21
-54.75
0
LINE
8
0
10
128.25
20
-54.75
11
128.25
21
-71.25
0
LINE
8
0
10
128.25
20
-53.75
11
145.75
21
-53.75
0
LINE
8
0
10
145.75
20
-53.75
11
145.75
21
-37.25
0
LINE
8
0
10
145.75
20
-37.25
11
128.25
21
-37.25
0
LINE
8
0
10
128.25
20
-37.25
11
128.25
21
-53.75
0
LINE
8
0
10
146.75
20
-95.95
11
164.25
21
-95.95
0
LINE
8
0
10
164.25
20
-95.95
11
164.25
21
-79.45
0
LINE
8
0
10
164.25
20
-79.45
11
146.75
21
-79.45
0
LINE
8
0
10
146.75
20
-79.45
11
146.75
21
-95.95
0
LINE
8
0
10
146.75
20
-78.45
11
164.25
21
-78.45
0
LINE
8
0
10
164.25
20
-78.45
11
164.25
21
-61.95
0
LINE
8
0
10
164.25
20
-61.95
11
146.75
21
-61.95
0
LINE
8
0
10
146.75
20
-61.95
11
146.75
21
-78.45
0
LINE
8
0
10
146.75
20
-60.95
11
164.25
21
-60.95
0
LINE
8
0
10
164.25
20
-60.95
11
164.25
21
-44.45
0
LINE
8
0
10
164.25
20
-44.45
11
146.75
21
-44.45
0
LINE
8
0
10
146.75
20
-44.45
11
146.75
21
-60.95
0
LINE
8
0
10
165.25
20
-89.25
11
182.75
21
-89.25
0
LINE
8
0
10
182.75
20
-89.25
11
182.75
21
-72.75
0
LINE
8
0
10
182.75
20
-72.75
11
165.25
21
-72.75
0
LINE
8
0
10
165.25
20
-72.75
11
165.25
21
-89.25
0
LINE
8
0
10
153.6288653
20
-120.3423176
11
170.2723543
21
-125.750115
0
LINE
8
0
10
170.2723543
20
-125.750115
11
175.3711347
21
-110.0576824
0
LINE
8
0
10
175.3711347
20
-110.0576824
11
158.7276457
21
-104.649885
0
LINE
8
0
10
158.7276457
20
-104.649885
11
153.6288653
21
-120.3423176
0
LINE
8
0
10
170.8388
20
-126.0080099
11
185.8392278
21
-135.0211762
0
LINE
8
0
10
185.8392278
20
-135.0211762
11
194.337356
21
-120.8779157
0
LINE
8
0
10
194.337356
20
-120.8779157
11
179.3369282
21
-111.8647494
0
LINE
8
0
10
179.3369282
20
-111.8647494
11
170.8388
21
-126.0080099
0
ENDSEC
0
EOF