0
SECTION
2
HEADER
9
$INSUNITS
70
4
0
ENDSEC
0
SECTION
2
TABLES
0
TABLE
2
LTYPE
0
LTYPE
72
65
70
64
2
CONTINUOUS
3
______
73
0
40
0
0
ENDTAB
0
TABLE
2
LAYER
0
ENDTAB
0
ENDSEC
0
SECTION
2
ENTITIES
0
LINE
8
0
10
181.370949
20
-133.3091404
11
93.4372002
21
-94.7064701
0
LINE
8
0
10
89.55
20
-88.7547243
11
89.55
21
-59.9498647
0
LINE
8
0
10
185.3641655
20
-51.75
11
201.05
21
-51.75
0
LINE
8
0
10
203.55
20
-54.25
11
203.55
21
-90.5713316
0
LINE
8
0
10
203.3660778
20
-92.1066361
11
197.226265
21
-117.3651698
0
LINE
8
0
10
196.4817746
20
-119.1776129
11
189.5553361
21
-130.7051423
0
ARC
8
0
10
96.05
20
-88.7547243
40
6.5
50
180
51
246.2986597
0
ARC
8
0
10
96.05
20
-59.9498647
40
6.5
50
177.7525309
51
180
0
ARC
8
0
10
197.05
20
-90.5713316
40
6.5
50
346.3375896
51
0
0
ARC
8
0
10
190.9101872
20
-115.8298652
40
6.5
50
328.9999987
51
346.3375896
0
ARC
8
0
10
183.9837487
20
-127.3573947
40
6.5
50
246.2986597
51
328.9999987
0
LINE
8
0
10
89.555
20
-55.6568075
11
89.555
21
-59.6949628
0
ARC
8
0
10
138.5
20
-103.25
40
69
50
49.0467605
51
134.3004617
0
ARC
8
0
10
92.055
20
-55.6568075
40
2.5
50
134.3004617
51
180
0
ARC
8
0
10
185.3641655
20
-49.25
40
2.5
50
229.0467605
51
270
0
ARC
8
0
10
201.05
20
-54.25
40
2.5
50
0
51
90
0
LINE
8
0
10
91.25
20
-90.75
11
108.75
21
-90.75
0
LINE
8
0
10
108.75
20
-90.75
11
108.75
21
-74.25
0
LINE
8
0
10
108.75
20
-74.25
11
91.25
21
-74.25
0
LINE
8
0
10
91.25
20
-74.25
11
91.25
21
-90.75
0
LINE
8
0
10
91.25
20
-73.25
11
108.75
21
-73.25
0
LINE
8
0
10
108.75
20
-73.25
11
108.75
21
-56.75
0
LINE
8
0
10
108.75
20
-56.75
11
91.25
21
-56.75
0
LINE
8
0
10
91.25
20
-56.75
11
91.25
21
-73.25
0
LINE
8
0
10
109.75
20
-94.75
11
127.25
21
-94.75
0
LINE
8
0
10
127.25
20
-94.75
11
127.25
21
-78.25
0
LINE
8
0
10
127.25
20
-78.25
11
109.75
21
-78.25
0
LINE
8
0
10
109.75
20
-78.25
11
109.75
21
-94.75
0
LINE
8
0
10
109.75
20
-77.25
11
127.25
21
-77.25
0
LINE
8
0
10
127.25
20
-77.25
11
127.25
21
-60.75
0
LINE
8
0
10
127.25
20
-60.75
11
109.75
21
-60.75
0
LINE
8
0
10
109.75
20
-60.75
11
109.75
21
-77.25
0
LINE
8
0
10
109.75
20
-59.75
11
127.25
21
-59.75
0
LINE
8
0
10
127.25
20
-59.75
11
127.25
21
-43.25
0
LINE
8
0
10
127.25
20
-43.25
11
109.75
21
-43.25
0
LINE
8
0
10
109.75
20
-43.25
11
109.75
21
-59.75
0
LINE
8
0
10
128.25
20
-88.75
11
145.75
21
-88.75
0
LINE
8
0
10
145.75
20
-88.75
11
145.75
21
-72.25
0
LINE
8
0
10
145.75
20
-72.25
11
128.25
21
-72.25
0
LINE
8
0
10
128.25
20
-72.25
11
128.25
21
-88.75
0
LINE
8
0
10
128.25
20
-71.25
11
145.75
21
-71.25
0
LINE
8
0
10
145.75
20
-71.25
11
145.75
21
-54.75
0
LINE
8
0
10
145.75
20
-54.75
11
128.25
21
-54.75
0
LINE
8
0
10
128.25
20
-54.75
11
128.25
21
-71.25
0
LINE
8
0
10
128.25
20
-53.75
11
145.75
21
-53.75
0
LINE
8
0
10
145.75
20
-53.75
11
145.75
21
-37.25
0
LINE
8
0
10
145.75
20
-37.25
11
128.25
21
-37.25
0
LINE
8
0
10
128.25
20
-37.25
11
128.25
21
-53.75
0
LINE
8
0
10
146.75
20
-95.95
11
164.25
21
-95.95
0
LINE
8
0
10
164.25
20
-95.95
11
164.25
21
-79.45
0
LINE
8
0
10
164.25
20
-79.45
11
146.75
21
-79.45
0
LINE
8
0
10
146.75
20
-79.45
11
146.75
21
-95.95
0
LINE
8
0
10
146.75
20
-78.45
11
164.25
21
-78.45
0
LINE
8
0
10
164.25
20
-78.45
11
164.25
21
-61.95
0
LINE
8
0
10
164.25
20
-61.95
11
146.75
21
-61.95
0
LINE
8
0
10
146.75
20
-61.95
11
146.75
21
-78.45
0
LINE
8
0
10
146.75
20
-60.95
11
164.25
21
-60.95
0
LINE
8
0
10
164.25
20
-60.95
11
164.25
21
-44.45
0
LINE
8
0
10
164.25
20
-44.45
11
146.75
21
-44.45
0
LINE
8
0
10
146.75
20
-44.45
11
146.75
21
-60.95
0
LINE
8
0
10
165.25
20
-89.25
11
182.75
21
-89.25
0
LINE
8
0
10
182.75
20
-89.25
11
182.75
21
-72.75
0
LINE
8
0
10
182.75
20
-72.75
11
165.25
21
-72.75
0
LINE
8
0
10
165.25
20
-72.75
11
165.25
21
-89.25
0
LINE
8
0
10
153.6288653
20
-117.8423176
11
170.2723543
21
-123.250115
0
LINE
8
0
10
170.2723543
20
-123.250115
11
175.3711347
21
-107.5576824
0
LINE
8
0
10
175.3711347
20
-107.5576824
11
158.7276457
21
-102.149885
0
LINE
8
0
10
158.7276457
20
-102.149885
11
153.6288653
21
-117.8423176
0
LINE
8
0
10
170.8388
20
-123.5080099
11
185.8392278
21
-132.5211762
0
LINE
8
0
10
185.8392278
20
-132.5211762
11
194.337356
21
-118.3779157
0
LINE
8
0
10
194.337356
20
-118.3779157
11
179.3369282
21
-109.3647494
0
LINE
8
0
10
179.3369282
20
-109.3647494
11
170.8388
21
-123.5080099
0
LINE
8
0
10
184.5
20
-87.3
11
202.8
21
-87.3
0
LINE
8
0
10
202.8
20
-87.3
11
202.8
21
-53.2
0
LINE
8
0
10
202.8
20
-53.2
11
184.5
21
-53.2
0
LINE
8
0
10
184.5
20
-53.2
11
184.5
21
-87.3
0
ENDSEC
0
EOF