0
SECTION
2
HEADER
9
$INSUNITS
70
4
0
ENDSEC
0
SECTION
2
TABLES
0
TABLE
2
LTYPE
0
LTYPE
72
65
70
64
2
CONTINUOUS
3
______
73
0
40
0
0
ENDTAB
0
TABLE
2
LAYER
0
ENDTAB
0
ENDSEC
0
SECTION
2
ENTITIES
0
LINE
8
0
10
181.3083923
20
-135.6451472
11
93.3105021
21
-94.7477112
0
LINE
8
0
10
89.55
20
-88.8532093
11
89.55
21
-55.6616873
0
LINE
8
0
10
183.75
20
-51.45
11
201.05
21
-51.45
0
LINE
8
0
10
203.55
20
-53.95
11
203.55
21
-90.3427507
0
LINE
8
0
10
203.3978927
20
-91.7406985
11
197.2208638
21
-119.7897512
0
LINE
8
0
10
196.4445585
20
-121.739551
11
189.6194776
21
-133.098393
0
ARC
8
0
10
96.05
20
-88.8532093
40
6.5
50
180
51
245.0731256
0
ARC
8
0
10
197.05
20
-90.3427507
40
6.5
50
347.5804307
51
0
0
ARC
8
0
10
190.872971
20
-118.3918033
40
6.5
50
328.9999987
51
347.5804307
0
ARC
8
0
10
184.0478902
20
-129.7506454
40
6.5
50
245.0731256
51
328.9999987
0
ARC
8
0
10
138.5
20
-103.25
40
69
50
49.4149036
51
134.3064813
0
ARC
8
0
10
92.05
20
-55.6616873
40
2.5
50
134.3064813
51
180
0
ARC
8
0
10
185.0162338
20
-48.95
40
2.5
50
229.4149036
51
270
0
ARC
8
0
10
201.05
20
-53.95
40
2.5
50
0
51
90
0
LINE
8
0
10
91.25
20
-90.75
11
108.75
21
-90.75
0
LINE
8
0
10
108.75
20
-90.75
11
108.75
21
-74.25
0
LINE
8
0
10
108.75
20
-74.25
11
91.25
21
-74.25
0
LINE
8
0
10
91.25
20
-74.25
11
91.25
21
-90.75
0
LINE
8
0
10
91.25
20
-73.25
11
108.75
21
-73.25
0
LINE
8
0
10
108.75
20
-73.25
11
108.75
21
-56.75
0
LINE
8
0
10
108.75
20
-56.75
11
91.25
21
-56.75
0
LINE
8
0
10
91.25
20
-56.75
11
91.25
21
-73.25
0
LINE
8
0
10
109.75
20
-94.75
11
127.25
21
-94.75
0
LINE
8
0
10
127.25
20
-94.75
11
127.25
21
-78.25
0
LINE
8
0
10
127.25
20
-78.25
11
109.75
21
-78.25
0
LINE
8
0
10
109.75
20
-78.25
11
109.75
21
-94.75
0
LINE
8
0
10
109.75
20
-77.25
11
127.25
21
-77.25
0
LINE
8
0
10
127.25
20
-77.25
11
127.25
21
-60.75
0
LINE
8
0
10
127.25
20
-60.75
11
109.75
21
-60.75
0
LINE
8
0
10
109.75
20
-60.75
11
109.75
21
-77.25
0
LINE
8
0
10
109.75
20
-59.75
11
127.25
21
-59.75
0
LINE
8
0
10
127.25
20
-59.75
11
127.25
21
-43.25
0
LINE
8
0
10
127.25
20
-43.25
11
109.75
21
-43.25
0
LINE
8
0
10
109.75
20
-43.25
11
109.75
21
-59.75
0
LINE
8
0
10
128.25
20
-88.75
11
145.75
21
-88.75
0
LINE
8
0
10
145.75
20
-88.75
11
145.75
21
-72.25
0
LINE
8
0
10
145.75
20
-72.25
11
128.25
21
-72.25
0
LINE
8
0
10
128.25
20
-72.25
11
128.25
21
-88.75
0
LINE
8
0
10
128.25
20
-71.25
11
145.75
21
-71.25
0
LINE
8
0
10
145.75
20
-71.25
11
145.75
21
-54.75
0
LINE
8
0
10
145.75
20
-54.75
11
128.25
21
-54.75
0
LINE
8
0
10
128.25
20
-54.75
11
128.25
21
-71.25
0
LINE
8
0
10
128.25
20
-53.75
11
145.75
21
-53.75
0
LINE
8
0
10
145.75
20
-53.75
11
145.75
21
-37.25
0
LINE
8
0
10
145.75
20
-37.25
11
128.25
21
-37.25
0
LINE
8
0
10
128.25
20
-37.25
11
128.25
21
-53.75
0
LINE
8
0
10
146.75
20
-95.95
11
164.25
21
-95.95
0
LINE
8
0
10
164.25
20
-95.95
11
164.25
21
-79.45
0
LINE
8
0
10
164.25
20
-79.45
11
146.75
21
-79.45
0
LINE
8
0
10
146.75
20
-79.45
11
146.75
21
-95.95
0
LINE
8
0
10
146.75
20
-78.45
11
164.25
21
-78.45
0
LINE
8
0
10
164.25
20
-78.45
11
164.25
21
-61.95
0
LINE
8
0
10
164.25
20
-61.95
11
146.75
21
-61.95
0
LINE
8
0
10
146.75
20
-61.95
11
146.75
21
-78.45
0
LINE
8
0
10
146.75
20
-60.95
11
164.25
21
-60.95
0
LINE
8
0
10
164.25
20
-60.95
11
164.25
21
-44.45
0
LINE
8
0
10
164.25
20
-44.45
11
146.75
21
-44.45
0
LINE
8
0
10
146.75
20
-44.45
11
146.75
21
-60.95
0
LINE
8
0
10
165.25
20
-70.95
11
182.75
21
-70.95
0
LINE
8
0
10
182.75
20
-70.95
11
182.75
21
-54.45
0
LINE
8
0
10
182.75
20
-54.45
11
165.25
21
-54.45
0
LINE
8
0
10
165.25
20
-54.45
11
165.25
21
-70.95
0
LINE
8
0
10
153.6288653
20
-120.3423176
11
170.2723543
21
-125.750115
0
LINE
8
0
10
170.2723543
20
-125.750115
11
175.3711347
21
-110.0576824
0
LINE
8
0
10
175.3711347
20
-110.0576824
11
158.7276457
21
-104.649885
0
LINE
8
0
10
158.7276457
20
-104.649885
11
153.6288653
21
-120.3423176
0
LINE
8
0
10
170.8388
20
-126.0080099
11
185.8392278
21
-135.0211762
0
LINE
8
0
10
185.8392278
20
-135.0211762
11
194.337356
21
-120.8779157
0
LINE
8
0
10
194.337356
20
-120.8779157
11
179.3369282
21
-111.8647494
0
LINE
8
0
10
179.3369282
20
-111.8647494
11
170.8388
21
-126.0080099
0
LINE
8
0
10
184.5
20
-87
11
202.8
21
-87
0
LINE
8
0
10
202.8
20
-87
11
202.8
21
-52.9
0
LINE
8
0
10
202.8
20
-52.9
11
184.5
21
-52.9
0
LINE
8
0
10
184.5
20
-52.9
11
184.5
21
-87
0
LINE
8
0
10
186.65
20
-92
11
200.65
21
-92
0
LINE
8
0
10
200.65
20
-92
11
200.65
21
-56
0
LINE
8
0
10
200.65
20
-56
11
186.65
21
-56
0
LINE
8
0
10
186.65
20
-56
11
186.65
21
-92
0
LINE
8
0
10
188.25
20
-87.4
11
199.05
21
-87.4
0
LINE
8
0
10
199.05
20
-87.4
11
199.05
21
-62.1
0
LINE
8
0
10
199.05
20
-62.1
11
188.25
21
-62.1
0
LINE
8
0
10
188.25
20
-62.1
11
188.25
21
-87.4
0
LINE
8
0
10
198.95
20
-55.625
11
198.95
21
-51.075
0
LINE
8
0
10
198.95
20
-51.075
11
190.15
21
-51.075
0
LINE
8
0
10
190.15
20
-51.075
11
190.15
21
-55.625
0
LINE
8
0
10
190.15
20
-55.625
11
198.95
21
-55.625
0
LINE
8
0
10
177.45
20
-59
11
177.45
21
-48.65
0
LINE
8
0
10
177.45
20
-48.65
11
170.55
21
-48.65
0
LINE
8
0
10
170.55
20
-59
11
170.55
21
-48.65
0
LINE
8
0
10
170.55
20
-59
11
177.45
21
-59
0
LINE
8
0
10
189.25
20
-54.85
11
189.25
21
-51.45
0
LINE
8
0
10
183.75
20
-51.45
11
183.75
21
-54.85
0
LINE
8
0
10
183.75
20
-54.85
11
189.25
21
-54.85
0
LINE
8
0
10
171.25
20
-76.35
11
171.25
21
-71.2
0
LINE
8
0
10
171.25
20
-71.2
11
176.75
21
-71.2
0
LINE
8
0
10
176.75
20
-71.2
11
176.75
21
-76.35
0
LINE
8
0
10
176.75
20
-76.35
11
180.25
21
-79.85
0
LINE
8
0
10
180.25
20
-79.85
11
180.25
21
-85.85
0
LINE
8
0
10
180.25
20
-85.85
11
176.75
21
-89.35
0
LINE
8
0
10
176.75
20
-89.35
11
176.75
21
-94.5
0
LINE
8
0
10
176.75
20
-94.5
11
171.25
21
-94.5
0
LINE
8
0
10
171.25
20
-94.5
11
171.25
21
-89.35
0
LINE
8
0
10
171.25
20
-89.35
11
167.75
21
-85.85
0
LINE
8
0
10
167.75
20
-85.85
11
167.75
21
-79.85
0
LINE
8
0
10
167.75
20
-79.85
11
171.25
21
-76.35
0
CIRCLE
8
0
10
174
20
-73.35
40
1
0
CIRCLE
8
0
10
174
20
-92.35
40
1
0
CIRCLE
8
0
10
174
20
-73.35
40
1.5
0
CIRCLE
8
0
10
174
20
-92.35
40
1.5
0
CIRCLE
8
0
10
174
20
-82.85
40
3.7
0
CIRCLE
8
0
10
102.5
20
-54.35
40
2.15
0
CIRCLE
8
0
10
102.5
20
-93.15
40
2.15
0
CIRCLE
8
0
10
118.5
20
-40.35
40
2.15
0
CIRCLE
8
0
10
118.5
20
-97.65
40
2.15
0
CIRCLE
8
0
10
155.5
20
-41.55
40
2.15
0
CIRCLE
8
0
10
155.5
20
-98.85
40
2.15
0
CIRCLE
8
0
10
167.5
20
-52.05
40
2.15
0
CIRCLE
8
0
10
167.5
20
-90.85
40
2.15
0
CIRCLE
8
0
10
170.4388656
20
-126.85568
40
2.15
0
CIRCLE
8
0
10
201.15
20
-53.7
40
2.15
0
CIRCLE
8
0
10
102.5
20
-54.35
40
1
0
CIRCLE
8
0
10
102.5
20
-93.15
40
1
0
CIRCLE
8
0
10
118.5
20
-40.35
40
1
0
CIRCLE
8
0
10
118.5
20
-97.65
40
1
0
CIRCLE
8
0
10
155.5
20
-41.55
40
1
0
CIRCLE
8
0
10
155.5
20
-98.85
40
1
0
CIRCLE
8
0
10
167.5
20
-52.05
40
1
0
CIRCLE
8
0
10
167.5
20
-90.85
40
1
0
CIRCLE
8
0
10
170.4388656
20
-126.85568
40
1
0
CIRCLE
8
0
10
201.15
20
-53.7
40
1
0
LINE
8
0
10
93.05
20
-89.45
11
106.95
21
-89.45
0
LINE
8
0
10
106.95
20
-89.45
11
106.95
21
-75.55
0
LINE
8
0
10
106.95
20
-75.55
11
93.05
21
-75.55
0
LINE
8
0
10
93.05
20
-75.55
11
93.05
21
-89.45
0
LINE
8
0
10
93.05
20
-71.95
11
106.95
21
-71.95
0
LINE
8
0
10
106.95
20
-71.95
11
106.95
21
-58.05
0
LINE
8
0
10
106.95
20
-58.05
11
93.05
21
-58.05
0
LINE
8
0
10
93.05
20
-58.05
11
93.05
21
-71.95
0
LINE
8
0
10
111.55
20
-93.45
11
125.45
21
-93.45
0
LINE
8
0
10
125.45
20
-93.45
11
125.45
21
-79.55
0
LINE
8
0
10
125.45
20
-79.55
11
111.55
21
-79.55
0
LINE
8
0
10
111.55
20
-79.55
11
111.55
21
-93.45
0
LINE
8
0
10
111.55
20
-75.95
11
125.45
21
-75.95
0
LINE
8
0
10
125.45
20
-75.95
11
125.45
21
-62.05
0
LINE
8
0
10
125.45
20
-62.05
11
111.55
21
-62.05
0
LINE
8
0
10
111.55
20
-62.05
11
111.55
21
-75.95
0
LINE
8
0
10
111.55
20
-58.45
11
125.45
21
-58.45
0
LINE
8
0
10
125.45
20
-58.45
11
125.45
21
-44.55
0
LINE
8
0
10
125.45
20
-44.55
11
111.55
21
-44.55
0
LINE
8
0
10
111.55
20
-44.55
11
111.55
21
-58.45
0
LINE
8
0
10
130.05
20
-87.45
11
143.95
21
-87.45
0
LINE
8
0
10
143.95
20
-87.45
11
143.95
21
-73.55
0
LINE
8
0
10
143.95
20
-73.55
11
130.05
21
-73.55
0
LINE
8
0
10
130.05
20
-73.55
11
130.05
21
-87.45
0
LINE
8
0
10
130.05
20
-69.95
11
143.95
21
-69.95
0
LINE
8
0
10
143.95
20
-69.95
11
143.95
21
-56.05
0
LINE
8
0
10
143.95
20
-56.05
11
130.05
21
-56.05
0
LINE
8
0
10
130.05
20
-56.05
11
130.05
21
-69.95
0
LINE
8
0
10
130.05
20
-52.45
11
143.95
21
-52.45
0
LINE
8
0
10
143.95
20
-52.45
11
143.95
21
-38.55
0
LINE
8
0
10
143.95
20
-38.55
11
130.05
21
-38.55
0
LINE
8
0
10
130.05
20
-38.55
11
130.05
21
-52.45
0
LINE
8
0
10
148.55
20
-94.65
11
162.45
21
-94.65
0
LINE
8
0
10
162.45
20
-94.65
11
162.45
21
-80.75
0
LINE
8
0
10
162.45
20
-80.75
11
148.55
21
-80.75
0
LINE
8
0
10
148.55
20
-80.75
11
148.55
21
-94.65
0
LINE
8
0
10
148.55
20
-77.15
11
162.45
21
-77.15
0
LINE
8
0
10
162.45
20
-77.15
11
162.45
21
-63.25
0
LINE
8
0
10
162.45
20
-63.25
11
148.55
21
-63.25
0
LINE
8
0
10
148.55
20
-63.25
11
148.55
21
-77.15
0
LINE
8
0
10
148.55
20
-59.65
11
162.45
21
-59.65
0
LINE
8
0
10
162.45
20
-59.65
11
162.45
21
-45.75
0
LINE
8
0
10
162.45
20
-45.75
11
148.55
21
-45.75
0
LINE
8
0
10
148.55
20
-45.75
11
148.55
21
-59.65
0
LINE
8
0
10
167.05
20
-69.65
11
180.95
21
-69.65
0
LINE
8
0
10
180.95
20
-69.65
11
180.95
21
-55.75
0
LINE
8
0
10
180.95
20
-55.75
11
167.05
21
-55.75
0
LINE
8
0
10
167.05
20
-55.75
11
167.05
21
-69.65
0
LINE
8
0
10
155.7424891
20
-119.6621747
11
168.9621747
21
-123.9575109
0
LINE
8
0
10
168.9621747
20
-123.9575109
11
173.2575109
21
-110.7378253
0
LINE
8
0
10
173.2575109
20
-110.7378253
11
160.0378253
21
-106.4424891
0
LINE
8
0
10
160.0378253
20
-106.4424891
11
155.7424891
21
-119.6621747
0
LINE
8
0
10
173.0512506
20
-125.8207609
11
184.9658761
21
-132.9797902
0
LINE
8
0
10
184.9658761
20
-132.9797902
11
192.1249054
21
-121.0651647
0
LINE
8
0
10
192.1249054
20
-121.0651647
11
180.2102799
21
-113.9061354
0
LINE
8
0
10
180.2102799
20
-113.9061354
11
173.0512506
21
-125.8207609
0
ENDSEC
0
EOF