0
SECTION
2
HEADER
9
$INSUNITS
70
4
0
ENDSEC
0
SECTION
2
TABLES
0
TABLE
2
LTYPE
0
LTYPE
72
65
70
64
2
CONTINUOUS
3
______
73
0
40
0
0
ENDTAB
0
TABLE
2
LAYER
0
ENDTAB
0
ENDSEC
0
SECTION
2
ENTITIES
0
LINE
8
0
10
181.370949
20
-133.3091404
11
93.4372002
21
-94.7064701
0
LINE
8
0
10
89.55
20
-88.7547243
11
89.55
21
-59.9498647
0
LINE
8
0
10
185.3641655
20
-51.75
11
201.05
21
-51.75
0
LINE
8
0
10
203.55
20
-54.25
11
203.55
21
-90.5713316
0
LINE
8
0
10
203.3660778
20
-92.1066361
11
197.226265
21
-117.3651698
0
LINE
8
0
10
196.4817746
20
-119.1776129
11
189.5553361
21
-130.7051423
0
ARC
8
0
10
96.05
20
-88.7547243
40
6.5
50
180
51
246.2986597
0
ARC
8
0
10
96.05
20
-59.9498647
40
6.5
50
177.7525309
51
180
0
ARC
8
0
10
197.05
20
-90.5713316
40
6.5
50
346.3375896
51
0
0
ARC
8
0
10
190.9101872
20
-115.8298652
40
6.5
50
328.9999987
51
346.3375896
0
ARC
8
0
10
183.9837487
20
-127.3573947
40
6.5
50
246.2986597
51
328.9999987
0
LINE
8
0
10
89.555
20
-55.6568075
11
89.555
21
-59.6949628
0
ARC
8
0
10
138.5
20
-103.25
40
69
50
49.0467605
51
134.3004617
0
ARC
8
0
10
92.055
20
-55.6568075
40
2.5
50
134.3004617
51
180
0
ARC
8
0
10
185.3641655
20
-49.25
40
2.5
50
229.0467605
51
270
0
ARC
8
0
10
201.05
20
-54.25
40
2.5
50
0
51
90
0
LINE
8
0
10
91.25
20
-90.75
11
108.75
21
-90.75
0
LINE
8
0
10
108.75
20
-90.75
11
108.75
21
-74.25
0
LINE
8
0
10
108.75
20
-74.25
11
91.25
21
-74.25
0
LINE
8
0
10
91.25
20
-74.25
11
91.25
21
-90.75
0
LINE
8
0
10
91.25
20
-73.25
11
108.75
21
-73.25
0
LINE
8
0
10
108.75
20
-73.25
11
108.75
21
-56.75
0
LINE
8
0
10
108.75
20
-56.75
11
91.25
21
-56.75
0
LINE
8
0
10
91.25
20
-56.75
11
91.25
21
-73.25
0
LINE
8
0
10
109.75
20
-94.75
11
127.25
21
-94.75
0
LINE
8
0
10
127.25
20
-94.75
11
127.25
21
-78.25
0
LINE
8
0
10
127.25
20
-78.25
11
109.75
21
-78.25
0
LINE
8
0
10
109.75
20
-78.25
11
109.75
21
-94.75
0
LINE
8
0
10
109.75
20
-77.25
11
127.25
21
-77.25
0
LINE
8
0
10
127.25
20
-77.25
11
127.25
21
-60.75
0
LINE
8
0
10
127.25
20
-60.75
11
109.75
21
-60.75
0
LINE
8
0
10
109.75
20
-60.75
11
109.75
21
-77.25
0
LINE
8
0
10
109.75
20
-59.75
11
127.25
21
-59.75
0
LINE
8
0
10
127.25
20
-59.75
11
127.25
21
-43.25
0
LINE
8
0
10
127.25
20
-43.25
11
109.75
21
-43.25
0
LINE
8
0
10
109.75
20
-43.25
11
109.75
21
-59.75
0
LINE
8
0
10
128.25
20
-88.75
11
145.75
21
-88.75
0
LINE
8
0
10
145.75
20
-88.75
11
145.75
21
-72.25
0
LINE
8
0
10
145.75
20
-72.25
11
128.25
21
-72.25
0
LINE
8
0
10
128.25
20
-72.25
11
128.25
21
-88.75
0
LINE
8
0
10
128.25
20
-71.25
11
145.75
21
-71.25
0
LINE
8
0
10
145.75
20
-71.25
11
145.75
21
-54.75
0
LINE
8
0
10
145.75
20
-54.75
11
128.25
21
-54.75
0
LINE
8
0
10
128.25
20
-54.75
11
128.25
21
-71.25
0
LINE
8
0
10
128.25
20
-53.75
11
145.75
21
-53.75
0
LINE
8
0
10
145.75
20
-53.75
11
145.75
21
-37.25
0
LINE
8
0
10
145.75
20
-37.25
11
128.25
21
-37.25
0
LINE
8
0
10
128.25
20
-37.25
11
128.25
21
-53.75
0
LINE
8
0
10
146.75
20
-95.95
11
164.25
21
-95.95
0
LINE
8
0
10
164.25
20
-95.95
11
164.25
21
-79.45
0
LINE
8
0
10
164.25
20
-79.45
11
146.75
21
-79.45
0
LINE
8
0
10
146.75
20
-79.45
11
146.75
21
-95.95
0
LINE
8
0
10
146.75
20
-78.45
11
164.25
21
-78.45
0
LINE
8
0
10
164.25
20
-78.45
11
164.25
21
-61.95
0
LINE
8
0
10
164.25
20
-61.95
11
146.75
21
-61.95
0
LINE
8
0
10
146.75
20
-61.95
11
146.75
21
-78.45
0
LINE
8
0
10
146.75
20
-60.95
11
164.25
21
-60.95
0
LINE
8
0
10
164.25
20
-60.95
11
164.25
21
-44.45
0
LINE
8
0
10
164.25
20
-44.45
11
146.75
21
-44.45
0
LINE
8
0
10
146.75
20
-44.45
11
146.75
21
-60.95
0
LINE
8
0
10
165.25
20
-89.25
11
182.75
21
-89.25
0
LINE
8
0
10
182.75
20
-89.25
11
182.75
21
-72.75
0
LINE
8
0
10
182.75
20
-72.75
11
165.25
21
-72.75
0
LINE
8
0
10
165.25
20
-72.75
11
165.25
21
-89.25
0
LINE
8
0
10
153.6288653
20
-117.8423176
11
170.2723543
21
-123.250115
0
LINE
8
0
10
170.2723543
20
-123.250115
11
175.3711347
21
-107.5576824
0
LINE
8
0
10
175.3711347
20
-107.5576824
11
158.7276457
21
-102.149885
0
LINE
8
0
10
158.7276457
20
-102.149885
11
153.6288653
21
-117.8423176
0
LINE
8
0
10
170.8388
20
-123.5080099
11
185.8392278
21
-132.5211762
0
LINE
8
0
10
185.8392278
20
-132.5211762
11
194.337356
21
-118.3779157
0
LINE
8
0
10
194.337356
20
-118.3779157
11
179.3369282
21
-109.3647494
0
LINE
8
0
10
179.3369282
20
-109.3647494
11
170.8388
21
-123.5080099
0
LINE
8
0
10
184.5
20
-87.3
11
202.8
21
-87.3
0
LINE
8
0
10
202.8
20
-87.3
11
202.8
21
-53.2
0
LINE
8
0
10
202.8
20
-53.2
11
184.5
21
-53.2
0
LINE
8
0
10
184.5
20
-53.2
11
184.5
21
-87.3
0
LINE
8
0
10
186.65
20
-92.3
11
200.65
21
-92.3
0
LINE
8
0
10
200.65
20
-92.3
11
200.65
21
-56.3
0
LINE
8
0
10
200.65
20
-56.3
11
186.65
21
-56.3
0
LINE
8
0
10
186.65
20
-56.3
11
186.65
21
-92.3
0
LINE
8
0
10
188.25
20
-87.7
11
199.05
21
-87.7
0
LINE
8
0
10
199.05
20
-87.7
11
199.05
21
-62.4
0
LINE
8
0
10
199.05
20
-62.4
11
188.25
21
-62.4
0
LINE
8
0
10
188.25
20
-62.4
11
188.25
21
-87.7
0
LINE
8
0
10
198.05
20
-55.92
11
198.05
21
-51.37
0
LINE
8
0
10
198.05
20
-51.37
11
189.25
21
-51.37
0
LINE
8
0
10
189.25
20
-51.37
11
189.25
21
-55.92
0
LINE
8
0
10
189.25
20
-55.92
11
198.05
21
-55.92
0
LINE
8
0
10
190.35
20
-100.25
11
200.7
21
-100.25
0
LINE
8
0
10
200.7
20
-100.25
11
200.7
21
-93.35
0
LINE
8
0
10
190.35
20
-93.35
11
200.7
21
-93.35
0
LINE
8
0
10
190.35
20
-93.35
11
190.35
21
-100.25
0
LINE
8
0
10
175.4312695
20
-49.0989597
11
177.232995
21
-46.2155962
0
LINE
8
0
10
177.232995
20
-46.2155962
11
172.5687305
21
-43.3010403
0
LINE
8
0
10
172.5687305
20
-43.3010403
11
170.767005
21
-46.1844038
0
LINE
8
0
10
170.767005
20
-46.1844038
11
175.4312695
21
-49.0989597
0
LINE
8
0
10
171.25
20
-55.32
11
171.25
21
-50.17
0
LINE
8
0
10
171.25
20
-50.17
11
176.75
21
-50.17
0
LINE
8
0
10
176.75
20
-50.17
11
176.75
21
-55.32
0
LINE
8
0
10
176.75
20
-55.32
11
180.25
21
-58.82
0
LINE
8
0
10
180.25
20
-58.82
11
180.25
21
-64.82
0
LINE
8
0
10
180.25
20
-64.82
11
176.75
21
-68.32
0
LINE
8
0
10
176.75
20
-68.32
11
176.75
21
-73.47
0
LINE
8
0
10
176.75
20
-73.47
11
171.25
21
-73.47
0
LINE
8
0
10
171.25
20
-73.47
11
171.25
21
-68.32
0
LINE
8
0
10
171.25
20
-68.32
11
167.75
21
-64.82
0
LINE
8
0
10
167.75
20
-64.82
11
167.75
21
-58.82
0
LINE
8
0
10
167.75
20
-58.82
11
171.25
21
-55.32
0
CIRCLE
8
0
10
174
20
-52.32
40
1
0
CIRCLE
8
0
10
174
20
-71.32
40
1
0
CIRCLE
8
0
10
174
20
-52.32
40
2.15
0
CIRCLE
8
0
10
174
20
-71.32
40
2.15
0
CIRCLE
8
0
10
174
20
-61.82
40
3.7
0
CIRCLE
8
0
10
104.5
20
-54.35
40
2.15
0
CIRCLE
8
0
10
104.5
20
-93.15
40
2.15
0
CIRCLE
8
0
10
118.5
20
-42.15
40
2.15
0
CIRCLE
8
0
10
118.5
20
-97.65
40
2.15
0
CIRCLE
8
0
10
155.5
20
-43.35
40
2.15
0
CIRCLE
8
0
10
155.5
20
-98.85
40
2.15
0
CIRCLE
8
0
10
171
20
-91.65
40
2.15
0
CIRCLE
8
0
10
170.4388656
20
-124.35568
40
2.15
0
CIRCLE
8
0
10
201.175
20
-53.975
40
2.15
0
CIRCLE
8
0
10
104.5
20
-54.35
40
1
0
CIRCLE
8
0
10
104.5
20
-93.15
40
1
0
CIRCLE
8
0
10
118.5
20
-42.15
40
1
0
CIRCLE
8
0
10
118.5
20
-97.65
40
1
0
CIRCLE
8
0
10
155.5
20
-43.35
40
1
0
CIRCLE
8
0
10
155.5
20
-98.85
40
1
0
CIRCLE
8
0
10
171
20
-91.65
40
1
0
CIRCLE
8
0
10
170.4388656
20
-124.35568
40
1
0
CIRCLE
8
0
10
201.175
20
-53.975
40
1
0
LINE
8
0
10
93.05
20
-89.45
11
106.95
21
-89.45
0
LINE
8
0
10
106.95
20
-89.45
11
106.95
21
-75.55
0
LINE
8
0
10
106.95
20
-75.55
11
93.05
21
-75.55
0
LINE
8
0
10
93.05
20
-75.55
11
93.05
21
-89.45
0
LINE
8
0
10
93.05
20
-71.95
11
106.95
21
-71.95
0
LINE
8
0
10
106.95
20
-71.95
11
106.95
21
-58.05
0
LINE
8
0
10
106.95
20
-58.05
11
93.05
21
-58.05
0
LINE
8
0
10
93.05
20
-58.05
11
93.05
21
-71.95
0
LINE
8
0
10
111.55
20
-93.45
11
125.45
21
-93.45
0
LINE
8
0
10
125.45
20
-93.45
11
125.45
21
-79.55
0
LINE
8
0
10
125.45
20
-79.55
11
111.55
21
-79.55
0
LINE
8
0
10
111.55
20
-79.55
11
111.55
21
-93.45
0
LINE
8
0
10
111.55
20
-75.95
11
125.45
21
-75.95
0
LINE
8
0
10
125.45
20
-75.95
11
125.45
21
-62.05
0
LINE
8
0
10
125.45
20
-62.05
11
111.55
21
-62.05
0
LINE
8
0
10
111.55
20
-62.05
11
111.55
21
-75.95
0
LINE
8
0
10
111.55
20
-58.45
11
125.45
21
-58.45
0
LINE
8
0
10
125.45
20
-58.45
11
125.45
21
-44.55
0
LINE
8
0
10
125.45
20
-44.55
11
111.55
21
-44.55
0
LINE
8
0
10
111.55
20
-44.55
11
111.55
21
-58.45
0
LINE
8
0
10
130.05
20
-87.45
11
143.95
21
-87.45
0
LINE
8
0
10
143.95
20
-87.45
11
143.95
21
-73.55
0
LINE
8
0
10
143.95
20
-73.55
11
130.05
21
-73.55
0
LINE
8
0
10
130.05
20
-73.55
11
130.05
21
-87.45
0
LINE
8
0
10
130.05
20
-69.95
11
143.95
21
-69.95
0
LINE
8
0
10
143.95
20
-69.95
11
143.95
21
-56.05
0
LINE
8
0
10
143.95
20
-56.05
11
130.05
21
-56.05
0
LINE
8
0
10
130.05
20
-56.05
11
130.05
21
-69.95
0
LINE
8
0
10
130.05
20
-52.45
11
143.95
21
-52.45
0
LINE
8
0
10
143.95
20
-52.45
11
143.95
21
-38.55
0
LINE
8
0
10
143.95
20
-38.55
11
130.05
21
-38.55
0
LINE
8
0
10
130.05
20
-38.55
11
130.05
21
-52.45
0
LINE
8
0
10
148.55
20
-94.65
11
162.45
21
-94.65
0
LINE
8
0
10
162.45
20
-94.65
11
162.45
21
-80.75
0
LINE
8
0
10
162.45
20
-80.75
11
148.55
21
-80.75
0
LINE
8
0
10
148.55
20
-80.75
11
148.55
21
-94.65
0
LINE
8
0
10
148.55
20
-77.15
11
162.45
21
-77.15
0
LINE
8
0
10
162.45
20
-77.15
11
162.45
21
-63.25
0
LINE
8
0
10
162.45
20
-63.25
11
148.55
21
-63.25
0
LINE
8
0
10
148.55
20
-63.25
11
148.55
21
-77.15
0
LINE
8
0
10
148.55
20
-59.65
11
162.45
21
-59.65
0
LINE
8
0
10
162.45
20
-59.65
11
162.45
21
-45.75
0
LINE
8
0
10
162.45
20
-45.75
11
148.55
21
-45.75
0
LINE
8
0
10
148.55
20
-45.75
11
148.55
21
-59.65
0
LINE
8
0
10
167.05
20
-87.95
11
180.95
21
-87.95
0
LINE
8
0
10
180.95
20
-87.95
11
180.95
21
-74.05
0
LINE
8
0
10
180.95
20
-74.05
11
167.05
21
-74.05
0
LINE
8
0
10
167.05
20
-74.05
11
167.05
21
-87.95
0
LINE
8
0
10
155.7424891
20
-117.1621747
11
168.9621747
21
-121.4575109
0
LINE
8
0
10
168.9621747
20
-121.4575109
11
173.2575109
21
-108.2378253
0
LINE
8
0
10
173.2575109
20
-108.2378253
11
160.0378253
21
-103.9424891
0
LINE
8
0
10
160.0378253
20
-103.9424891
11
155.7424891
21
-117.1621747
0
LINE
8
0
10
173.0512506
20
-123.3207609
11
184.9658761
21
-130.4797902
0
LINE
8
0
10
184.9658761
20
-130.4797902
11
192.1249054
21
-118.5651647
0
LINE
8
0
10
192.1249054
20
-118.5651647
11
180.2102799
21
-111.4061354
0
LINE
8
0
10
180.2102799
20
-111.4061354
11
173.0512506
21
-123.3207609
0
ENDSEC
0
EOF