0
SECTION
2
HEADER
9
$INSUNITS
70
4
0
ENDSEC
0
SECTION
2
TABLES
0
TABLE
2
LTYPE
0
LTYPE
72
65
70
64
2
CONTINUOUS
3
______
73
0
40
0
0
ENDTAB
0
TABLE
2
LAYER
0
ENDTAB
0
ENDSEC
0
SECTION
2
ENTITIES
0
LINE
8
0
10
181.3083923
20
-135.6451472
11
93.3105021
21
-94.7477112
0
LINE
8
0
10
89.55
20
-88.8532093
11
89.55
21
-55.6616873
0
LINE
8
0
10
185.0162338
20
-51.45
11
201.05
21
-51.45
0
LINE
8
0
10
203.55
20
-53.95
11
203.55
21
-90.3427507
0
LINE
8
0
10
203.3978927
20
-91.7406985
11
197.2208638
21
-119.7897512
0
LINE
8
0
10
196.4445585
20
-121.739551
11
189.6194776
21
-133.098393
0
ARC
8
0
10
96.05
20
-88.8532093
40
6.5
50
180
51
245.0731256
0
ARC
8
0
10
197.05
20
-90.3427507
40
6.5
50
347.5804307
51
0
0
ARC
8
0
10
190.872971
20
-118.3918033
40
6.5
50
328.9999987
51
347.5804307
0
ARC
8
0
10
184.0478902
20
-129.7506454
40
6.5
50
245.0731256
51
328.9999987
0
ARC
8
0
10
138.5
20
-103.25
40
69
50
49.4149036
51
134.3064813
0
ARC
8
0
10
92.05
20
-55.6616873
40
2.5
50
134.3064813
51
180
0
ARC
8
0
10
185.0162338
20
-48.95
40
2.5
50
229.4149036
51
270
0
ARC
8
0
10
201.05
20
-53.95
40
2.5
50
0
51
90
0
LINE
8
0
10
91.25
20
-90.75
11
108.75
21
-90.75
0
LINE
8
0
10
108.75
20
-90.75
11
108.75
21
-74.25
0
LINE
8
0
10
108.75
20
-74.25
11
91.25
21
-74.25
0
LINE
8
0
10
91.25
20
-74.25
11
91.25
21
-90.75
0
LINE
8
0
10
91.25
20
-73.25
11
108.75
21
-73.25
0
LINE
8
0
10
108.75
20
-73.25
11
108.75
21
-56.75
0
LINE
8
0
10
108.75
20
-56.75
11
91.25
21
-56.75
0
LINE
8
0
10
91.25
20
-56.75
11
91.25
21
-73.25
0
LINE
8
0
10
109.75
20
-94.75
11
127.25
21
-94.75
0
LINE
8
0
10
127.25
20
-94.75
11
127.25
21
-78.25
0
LINE
8
0
10
127.25
20
-78.25
11
109.75
21
-78.25
0
LINE
8
0
10
109.75
20
-78.25
11
109.75
21
-94.75
0
LINE
8
0
10
109.75
20
-77.25
11
127.25
21
-77.25
0
LINE
8
0
10
127.25
20
-77.25
11
127.25
21
-60.75
0
LINE
8
0
10
127.25
20
-60.75
11
109.75
21
-60.75
0
LINE
8
0
10
109.75
20
-60.75
11
109.75
21
-77.25
0
LINE
8
0
10
109.75
20
-59.75
11
127.25
21
-59.75
0
LINE
8
0
10
127.25
20
-59.75
11
127.25
21
-43.25
0
LINE
8
0
10
127.25
20
-43.25
11
109.75
21
-43.25
0
LINE
8
0
10
109.75
20
-43.25
11
109.75
21
-59.75
0
LINE
8
0
10
128.25
20
-88.75
11
145.75
21
-88.75
0
LINE
8
0
10
145.75
20
-88.75
11
145.75
21
-72.25
0
LINE
8
0
10
145.75
20
-72.25
11
128.25
21
-72.25
0
LINE
8
0
10
128.25
20
-72.25
11
128.25
21
-88.75
0
LINE
8
0
10
128.25
20
-71.25
11
145.75
21
-71.25
0
LINE
8
0
10
145.75
20
-71.25
11
145.75
21
-54.75
0
LINE
8
0
10
145.75
20
-54.75
11
128.25
21
-54.75
0
LINE
8
0
10
128.25
20
-54.75
11
128.25
21
-71.25
0
LINE
8
0
10
128.25
20
-53.75
11
145.75
21
-53.75
0
LINE
8
0
10
145.75
20
-53.75
11
145.75
21
-37.25
0
LINE
8
0
10
145.75
20
-37.25
11
128.25
21
-37.25
0
LINE
8
0
10
128.25
20
-37.25
11
128.25
21
-53.75
0
LINE
8
0
10
146.75
20
-95.95
11
164.25
21
-95.95
0
LINE
8
0
10
164.25
20
-95.95
11
164.25
21
-79.45
0
LINE
8
0
10
164.25
20
-79.45
11
146.75
21
-79.45
0
LINE
8
0
10
146.75
20
-79.45
11
146.75
21
-95.95
0
LINE
8
0
10
146.75
20
-78.45
11
164.25
21
-78.45
0
LINE
8
0
10
164.25
20
-78.45
11
164.25
21
-61.95
0
LINE
8
0
10
164.25
20
-61.95
11
146.75
21
-61.95
0
LINE
8
0
10
146.75
20
-61.95
11
146.75
21
-78.45
0
LINE
8
0
10
146.75
20
-60.95
11
164.25
21
-60.95
0
LINE
8
0
10
164.25
20
-60.95
11
164.25
21
-44.45
0
LINE
8
0
10
164.25
20
-44.45
11
146.75
21
-44.45
0
LINE
8
0
10
146.75
20
-44.45
11
146.75
21
-60.95
0
LINE
8
0
10
165.25
20
-70.95
11
182.75
21
-70.95
0
LINE
8
0
10
182.75
20
-70.95
11
182.75
21
-54.45
0
LINE
8
0
10
182.75
20
-54.45
11
165.25
21
-54.45
0
LINE
8
0
10
165.25
20
-54.45
11
165.25
21
-70.95
0
LINE
8
0
10
153.6288653
20
-120.3423176
11
170.2723543
21
-125.750115
0
LINE
8
0
10
170.2723543
20
-125.750115
11
175.3711347
21
-110.0576824
0
LINE
8
0
10
175.3711347
20
-110.0576824
11
158.7276457
21
-104.649885
0
LINE
8
0
10
158.7276457
20
-104.649885
11
153.6288653
21
-120.3423176
0
LINE
8
0
10
170.8388
20
-126.0080099
11
185.8392278
21
-135.0211762
0
LINE
8
0
10
185.8392278
20
-135.0211762
11
194.337356
21
-120.8779157
0
LINE
8
0
10
194.337356
20
-120.8779157
11
179.3369282
21
-111.8647494
0
LINE
8
0
10
179.3369282
20
-111.8647494
11
170.8388
21
-126.0080099
0
LINE
8
0
10
184.5
20
-87
11
202.8
21
-87
0
LINE
8
0
10
202.8
20
-87
11
202.8
21
-52.9
0
LINE
8
0
10
202.8
20
-52.9
11
184.5
21
-52.9
0
LINE
8
0
10
184.5
20
-52.9
11
184.5
21
-87
0
ENDSEC
0
EOF