0
SECTION
2
HEADER
9
$INSUNITS
70
4
0
ENDSEC
0
SECTION
2
TABLES
0
TABLE
2
LTYPE
0
LTYPE
72
65
70
64
2
CONTINUOUS
3
______
73
0
40
0
0
ENDTAB
0
TABLE
2
LAYER
0
ENDTAB
0
ENDSEC
0
SECTION
2
ENTITIES
0
LINE
8
0
10
181.0187833
20
-121.4378739
11
164.1504613
21
-121.4378739
0
LINE
8
0
10
161.3689096
20
-117.3140541
11
165.5227124
21
-107.0330316
0
LINE
8
0
10
150.3224968
20
-99.2739437
11
164.6938465
21
-105.0803459
0
LINE
8
0
10
179.6465322
20
-107.0330316
11
183.800335
21
-117.3140541
0
LINE
8
0
10
180.4753981
20
-105.0803459
11
194.8467478
21
-99.2739437
0
ARC
8
0
10
181.0187833
20
-118.4378739
40
3
50
270
51
21.9999994
0
ARC
8
0
10
164.1504613
20
-118.4378739
40
3
50
158.0000006
51
270
0
ARC
8
0
10
172.5846223
20
-212.5884797
40
60
50
68.9094694
51
111.0905306
0
LINE
8
0
10
68.8287188
20
-110.4314604
11
83.7764988
21
-114.1583606
0
LINE
8
0
10
67.7361581
20
-108.613134
11
75.114776
21
-79.0191144
0
LINE
8
0
10
76.9331024
20
-77.9265537
11
94.9793628
21
-82.4259918
0
LINE
8
0
10
85.1107989
20
-119.8994875
11
97.4025404
21
-124.1318734
0
LINE
8
0
10
99.3091705
20
-123.2019479
11
99.9097173
21
-121.4578334
0
LINE
8
0
10
84.8318938
20
-116.1021565
11
84.1808734
21
-117.9928574
0
LINE
8
0
10
101.7147748
20
-71.6780402
11
118.7427012
21
-77.5412254
0
LINE
8
0
10
96.7605235
20
-81.4589005
11
99.8081447
21
-72.6079657
0
LINE
8
0
10
101.889905
20
-120.5554098
11
118.5177787
21
-127.2735069
0
LINE
8
0
10
135.6185372
20
-82.2781773
11
136.1336213
21
-81.0032995
0
LINE
8
0
10
135.3047554
20
-79.0506138
11
123.2513653
21
-74.1807281
0
LINE
8
0
10
121.2986796
20
-75.009594
11
120.6218293
21
-76.6848574
0
LINE
8
0
10
119.6604264
20
-132.4537561
11
121.1671002
21
-133.0624918
0
LINE
8
0
10
119.3466446
20
-129.2261926
11
118.8315605
21
-130.5010704
0
LINE
8
0
10
149.4936309
20
-97.321258
11
151.6476188
21
-91.9899509
0
LINE
8
0
10
136.4474031
20
-84.230863
11
150.8187529
21
-90.0372652
0
LINE
8
0
10
261.3927458
20
-114.1583606
11
276.3405258
21
-110.4314604
0
LINE
8
0
10
270.0544686
20
-79.0191144
11
277.4330865
21
-108.613134
0
LINE
8
0
10
250.1898818
20
-82.4259918
11
268.2361422
21
-77.9265537
0
LINE
8
0
10
247.7667042
20
-124.1318734
11
260.0584457
21
-119.8994875
0
LINE
8
0
10
260.9883712
20
-117.9928574
11
260.3373508
21
-116.1021565
0
LINE
8
0
10
245.2595273
20
-121.4578334
11
245.8600741
21
-123.2019479
0
LINE
8
0
10
245.3610999
20
-72.6079657
11
248.4087211
21
-81.4589005
0
LINE
8
0
10
226.4265434
20
-77.5412254
11
243.4544698
21
-71.6780402
0
LINE
8
0
10
226.6514659
20
-127.2735069
11
243.2793396
21
-120.5554098
0
LINE
8
0
10
224.5474153
20
-76.6848574
11
223.870565
21
-75.009594
0
LINE
8
0
10
221.9178793
20
-74.1807281
11
209.8644892
21
-79.0506138
0
LINE
8
0
10
209.0356233
20
-81.0032995
11
209.5507074
21
-82.2781773
0
LINE
8
0
10
224.0021444
20
-133.0624918
11
225.5088182
21
-132.4537561
0
LINE
8
0
10
226.3376841
20
-130.5010704
11
225.8226
21
-129.2261926
0
LINE
8
0
10
194.3504917
20
-90.0372652
11
208.7218415
21
-84.230863
0
LINE
8
0
10
193.5216258
20
-91.9899509
11
195.6756137
21
-97.321258
0
LINE
8
0
10
115.7073067
20
-154.5843564
11
130.0786564
21
-160.3907586
0
LINE
8
0
10
114.8784408
20
-152.6316707
11
121.9959661
21
-135.0151775
0
LINE
8
0
10
131.2213042
20
-165.5710077
11
143.2746943
21
-170.4408934
0
LINE
8
0
10
145.22738
20
-169.6120275
11
150.1430537
21
-157.4453082
0
LINE
8
0
10
130.9075224
20
-162.3434443
11
130.3924383
21
-163.618322
0
LINE
8
0
10
215.0905882
20
-160.3907586
11
229.4619379
21
-154.5843564
0
LINE
8
0
10
223.1732785
20
-135.0151775
11
230.2908038
21
-152.6316707
0
LINE
8
0
10
201.8945503
20
-170.4408934
11
213.9479404
21
-165.5710077
0
LINE
8
0
10
214.7768063
20
-163.618322
11
214.2617222
21
-162.3434443
0
LINE
8
0
10
195.0261909
20
-157.4453082
11
199.9418646
21
-169.6120275
0
ARC
8
0
10
164.1319366
20
-106.4711217
40
1.5
50
338.0000006
51
68.0000006
0
ARC
8
0
10
150.8844067
20
-97.8831679
40
1.5
50
158.0000006
51
248.0000006
0
ARC
8
0
10
150.256843
20
-91.428041
40
1.5
50
338.0000006
51
68.0000006
0
ARC
8
0
10
137.009313
20
-82.8400872
40
1.5
50
158.0000006
51
248.0000006
0
ARC
8
0
10
134.7428455
20
-80.4413896
40
1.5
50
338.0000006
51
68.0000006
0
ARC
8
0
10
122.6894554
20
-75.5715039
40
1.5
50
68.0000006
51
158.0000006
0
ARC
8
0
10
119.2310535
20
-76.1229475
40
1.5
50
250.999998
51
338.0000006
0
ARC
8
0
10
101.2264226
20
-73.096318
40
1.5
50
70.999998
51
160.999998
0
ARC
8
0
10
95.3422456
20
-80.9705482
40
1.5
50
255.9999994
51
340.999998
0
ARC
8
0
10
76.5702195
20
-79.3819972
40
1.5
50
75.9999994
51
165.9999994
0
ARC
8
0
10
69.1916016
20
-108.9760169
40
1.5
50
165.9999994
51
255.9999994
0
ARC
8
0
10
83.413616
20
-115.6138042
40
1.5
50
340.999998
51
75.9999994
0
ARC
8
0
10
85.5991512
20
-118.4812096
40
1.5
50
160.999998
51
250.999998
0
ARC
8
0
10
97.8908926
20
-122.7135956
40
1.5
50
250.999998
51
340.999998
0
ARC
8
0
10
101.3279952
20
-121.9461856
40
1.5
50
68.0000006
51
160.999998
0
ARC
8
0
10
117.9558688
20
-128.6642827
40
1.5
50
338.0000006
51
68.0000006
0
ARC
8
0
10
120.2223363
20
-131.0629803
40
1.5
50
158.0000006
51
248.0000006
0
ARC
8
0
10
120.6051903
20
-134.4532676
40
1.5
50
338.0000006
51
68.0000006
0
ARC
8
0
10
116.2692166
20
-153.1935806
40
1.5
50
158.0000006
51
248.0000006
0
ARC
8
0
10
129.5167465
20
-161.7815344
40
1.5
50
338.0000006
51
68.0000006
0
ARC
8
0
10
131.7832141
20
-164.1802319
40
1.5
50
158.0000006
51
248.0000006
0
ARC
8
0
10
143.8366042
20
-169.0501176
40
1.5
50
248.0000006
51
338.0000006
0
ARC
8
0
10
151.5338295
20
-158.0072181
40
1.5
50
111.0905306
51
158.0000006
0
ARC
8
0
10
193.6354151
20
-158.0072181
40
1.5
50
21.9999994
51
68.9094717
0
ARC
8
0
10
201.3326404
20
-169.0501176
40
1.5
50
201.9999994
51
291.9999994
0
ARC
8
0
10
213.3860305
20
-164.1802319
40
1.5
50
291.9999994
51
21.9999994
0
ARC
8
0
10
215.6524981
20
-161.7815344
40
1.5
50
111.9999994
51
201.9999994
0
ARC
8
0
10
228.900028
20
-153.1935806
40
1.5
50
291.9999994
51
21.9999994
0
ARC
8
0
10
224.5640543
20
-134.4532676
40
1.5
50
111.9999994
51
201.9999994
0
ARC
8
0
10
224.9469083
20
-131.0629803
40
1.5
50
291.9999994
51
21.9999994
0
ARC
8
0
10
227.2133758
20
-128.6642827
40
1.5
50
111.9999994
51
201.9999994
0
ARC
8
0
10
243.8412494
20
-121.9461856
40
1.5
50
19.000002
51
111.9999994
0
ARC
8
0
10
247.278352
20
-122.7135956
40
1.5
50
199.000002
51
289.000002
0
ARC
8
0
10
259.5700934
20
-118.4812096
40
1.5
50
289.000002
51
19.000002
0
ARC
8
0
10
261.7556286
20
-115.6138042
40
1.5
50
104.0000006
51
199.000002
0
ARC
8
0
10
275.977643
20
-108.9760169
40
1.5
50
284.0000006
51
14.0000006
0
ARC
8
0
10
268.5990251
20
-79.3819972
40
1.5
50
14.0000006
51
104.0000006
0
ARC
8
0
10
249.826999
20
-80.9705482
40
1.5
50
199.000002
51
284.0000006
0
ARC
8
0
10
243.942822
20
-73.096318
40
1.5
50
19.000002
51
109.000002
0
ARC
8
0
10
225.9381911
20
-76.1229475
40
1.5
50
201.9999994
51
289.000002
0
ARC
8
0
10
222.4797892
20
-75.5715039
40
1.5
50
21.9999994
51
111.9999994
0
ARC
8
0
10
210.4263991
20
-80.4413896
40
1.5
50
111.9999994
51
201.9999994
0
ARC
8
0
10
208.1599316
20
-82.8400872
40
1.5
50
291.9999994
51
21.9999994
0
ARC
8
0
10
194.9124016
20
-91.428041
40
1.5
50
111.9999994
51
201.9999994
0
ARC
8
0
10
194.2848379
20
-97.8831679
40
1.5
50
291.9999994
51
21.9999994
0
ARC
8
0
10
181.037308
20
-106.4711217
40
1.5
50
111.9999994
51
201.9999994
0
LINE
8
0
10
69.0706407
20
-109.4611648
11
81.6844851
21
-112.6061494
0
LINE
8
0
10
82.290594
20
-112.2419625
11
85.4355786
21
-99.6281181
0
LINE
8
0
10
85.0713917
20
-99.0220092
11
72.4575473
21
-95.8770246
0
LINE
8
0
10
71.8514384
20
-96.2412115
11
68.7064538
21
-108.8550559
0
LINE
8
0
10
73.3042739
20
-92.4809896
11
85.9181183
21
-95.6259742
0
LINE
8
0
10
86.5242272
20
-95.2617873
11
89.6692118
21
-82.6479429
0
LINE
8
0
10
89.3050249
20
-82.041834
11
76.6911805
21
-78.8968494
0
LINE
8
0
10
76.0850716
20
-79.2610363
11
72.940087
21
-91.8748807
0
LINE
8
0
10
85.4363671
20
-118.9539689
11
97.7281085
21
-123.1863549
0
LINE
8
0
10
98.3636519
20
-122.8763797
11
102.5960379
21
-110.5846383
0
LINE
8
0
10
102.2860627
20
-109.9490949
11
89.9943213
21
-105.7167089
0
LINE
8
0
10
89.3587779
20
-106.0266841
11
85.1263919
21
-118.3184255
0
LINE
8
0
10
91.1338098
20
-102.4073938
11
103.4255512
21
-106.6397798
0
LINE
8
0
10
104.0610946
20
-106.3298046
11
108.2934806
21
-94.0380632
0
LINE
8
0
10
107.9835054
20
-93.4025198
11
95.691764
21
-89.1701338
0
LINE
8
0
10
95.0562206
20
-89.480109
11
90.8238346
21
-101.7718504
0
LINE
8
0
10
96.8312525
20
-85.8608187
11
109.1229939
21
-90.0932047
0
LINE
8
0
10
109.7585373
20
-89.7832295
11
113.9909233
21
-77.4914881
0
LINE
8
0
10
113.6809481
20
-76.8559447
11
101.3892067
21
-72.6235587
0
LINE
8
0
10
100.7536633
20
-72.9335339
11
96.5212773
21
-85.2252753
0
LINE
8
0
10
104.5210356
20
-120.5399208
11
116.5744257
21
-125.4098065
0
LINE
8
0
10
117.2253209
20
-125.1335179
11
122.0952066
21
-113.0801278
0
LINE
8
0
10
121.818918
20
-112.4292326
11
109.7655279
21
-107.5593469
0
LINE
8
0
10
109.1146327
20
-107.8356355
11
104.244747
21
-119.8890256
0
LINE
8
0
10
111.076651
20
-104.3142033
11
123.1300411
21
-109.184089
0
LINE
8
0
10
123.7809363
20
-108.9078004
11
128.650822
21
-96.8544103
0
LINE
8
0
10
128.3745334
20
-96.2035151
11
116.3211433
21
-91.3336294
0
LINE
8
0
10
115.6702481
20
-91.609918
11
110.8003624
21
-103.6633081
0
LINE
8
0
10
117.6322664
20
-88.0884859
11
129.6856565
21
-92.9583716
0
LINE
8
0
10
130.3365517
20
-92.682083
11
135.2064374
21
-80.6286929
0
LINE
8
0
10
134.9301488
20
-79.9777977
11
122.8767587
21
-75.107912
0
LINE
8
0
10
122.2258635
20
-75.3842006
11
117.3559778
21
-87.4375907
0
LINE
8
0
10
120.035033
20
-131.5265722
11
132.0884231
21
-136.3964579
0
LINE
8
0
10
132.7393183
20
-136.1201693
11
137.609204
21
-124.0667792
0
LINE
8
0
10
137.3329154
20
-123.415884
11
125.2795253
21
-118.5459983
0
LINE
8
0
10
124.6286301
20
-118.8222869
11
119.7587444
21
-130.875677
0
LINE
8
0
10
126.5906485
20
-115.3008548
11
138.6440386
21
-120.1707405
0
LINE
8
0
10
139.2949338
20
-119.8944519
11
144.1648195
21
-107.8410618
0
LINE
8
0
10
143.8885309
20
-107.1901666
11
131.8351408
21
-102.3202809
0
LINE
8
0
10
131.1842456
20
-102.5965695
11
126.3143599
21
-114.6499596
0
LINE
8
0
10
133.1462639
20
-99.0751373
11
145.199654
21
-103.945023
0
LINE
8
0
10
145.8505492
20
-103.6687344
11
150.7204349
21
-91.6153443
0
LINE
8
0
10
150.4441463
20
-90.9644491
11
138.3907562
21
-86.0945634
0
LINE
8
0
10
137.739861
20
-86.370852
11
132.8699753
21
-98.4242421
0
LINE
8
0
10
140.4657421
20
-130.3439354
11
152.5191322
21
-135.2138211
0
LINE
8
0
10
153.1700274
20
-134.9375325
11
158.0399131
21
-122.8841424
0
LINE
8
0
10
157.7636245
20
-122.2332472
11
145.7102344
21
-117.3633615
0
LINE
8
0
10
145.0593392
20
-117.6396501
11
140.1894535
21
-129.6930402
0
LINE
8
0
10
147.0213575
20
-114.118218
11
159.0747476
21
-118.9881037
0
LINE
8
0
10
159.7256428
20
-118.7118151
11
164.5955285
21
-106.658425
0
LINE
8
0
10
164.3192399
20
-106.0075298
11
152.2658498
21
-101.1376441
0
LINE
8
0
10
151.6149546
20
-101.4139327
11
146.7450689
21
-113.4673228
0
LINE
8
0
10
263.4847595
20
-112.6061494
11
276.0986039
21
-109.4611648
0
LINE
8
0
10
276.4627908
20
-108.8550559
11
273.3178062
21
-96.2412115
0
LINE
8
0
10
272.7116973
20
-95.8770246
11
260.0978529
21
-99.0220092
0
LINE
8
0
10
259.733666
20
-99.6281181
11
262.8786506
21
-112.2419625
0
LINE
8
0
10
259.2511263
20
-95.6259742
11
271.8649707
21
-92.4809896
0
LINE
8
0
10
272.2291576
20
-91.8748807
11
269.084173
21
-79.2610363
0
LINE
8
0
10
268.4780641
20
-78.8968494
11
255.8642197
21
-82.041834
0
LINE
8
0
10
255.5000328
20
-82.6479429
11
258.6450174
21
-95.2617873
0
LINE
8
0
10
247.4411361
20
-123.1863549
11
259.7328775
21
-118.9539689
0
LINE
8
0
10
260.0428527
20
-118.3184255
11
255.8104667
21
-106.0266841
0
LINE
8
0
10
255.1749233
20
-105.7167089
11
242.8831819
21
-109.9490949
0
LINE
8
0
10
242.5732067
20
-110.5846383
11
246.8055927
21
-122.8763797
0
LINE
8
0
10
241.7436934
20
-106.6397798
11
254.0354348
21
-102.4073938
0
LINE
8
0
10
254.34541
20
-101.7718504
11
250.113024
21
-89.480109
0
LINE
8
0
10
249.4774806
20
-89.1701338
11
237.1857392
21
-93.4025198
0
LINE
8
0
10
236.875764
20
-94.0380632
11
241.10815
21
-106.3298046
0
LINE
8
0
10
236.0462507
20
-90.0932047
11
248.3379921
21
-85.8608187
0
LINE
8
0
10
248.6479673
20
-85.2252753
11
244.4155813
21
-72.9335339
0
LINE
8
0
10
243.7800379
20
-72.6235587
11
231.4882965
21
-76.8559447
0
LINE
8
0
10
231.1783213
20
-77.4914881
11
235.4107073
21
-89.7832295
0
LINE
8
0
10
228.5948189
20
-125.4098065
11
240.648209
21
-120.5399208
0
LINE
8
0
10
240.9244976
20
-119.8890256
11
236.0546119
21
-107.8356355
0
LINE
8
0
10
235.4037167
20
-107.5593469
11
223.3503266
21
-112.4292326
0
LINE
8
0
10
223.074038
20
-113.0801278
11
227.9439237
21
-125.1335179
0
LINE
8
0
10
222.0392035
20
-109.184089
11
234.0925936
21
-104.3142033
0
LINE
8
0
10
234.3688822
20
-103.6633081
11
229.4989965
21
-91.609918
0
LINE
8
0
10
228.8481013
20
-91.3336294
11
216.7947112
21
-96.2035151
0
LINE
8
0
10
216.5184226
20
-96.8544103
11
221.3883083
21
-108.9078004
0
LINE
8
0
10
215.4835881
20
-92.9583716
11
227.5369782
21
-88.0884859
0
LINE
8
0
10
227.8132668
20
-87.4375907
11
222.9433811
21
-75.3842006
0
LINE
8
0
10
222.2924859
20
-75.107912
11
210.2390958
21
-79.9777977
0
LINE
8
0
10
209.9628072
20
-80.6286929
11
214.8326929
21
-92.682083
0
LINE
8
0
10
213.0808215
20
-136.3964579
11
225.1342116
21
-131.5265722
0
LINE
8
0
10
225.4105002
20
-130.875677
11
220.5406145
21
-118.8222869
0
LINE
8
0
10
219.8897193
20
-118.5459983
11
207.8363292
21
-123.415884
0
LINE
8
0
10
207.5600406
20
-124.0667792
11
212.4299263
21
-136.1201693
0
LINE
8
0
10
206.525206
20
-120.1707405
11
218.5785961
21
-115.3008548
0
LINE
8
0
10
218.8548847
20
-114.6499596
11
213.984999
21
-102.5965695
0
LINE
8
0
10
213.3341038
20
-102.3202809
11
201.2807137
21
-107.1901666
0
LINE
8
0
10
201.0044251
20
-107.8410618
11
205.8743108
21
-119.8944519
0
LINE
8
0
10
199.9695906
20
-103.945023
11
212.0229807
21
-99.0751373
0
LINE
8
0
10
212.2992693
20
-98.4242421
11
207.4293836
21
-86.370852
0
LINE
8
0
10
206.7784884
20
-86.0945634
11
194.7250983
21
-90.9644491
0
LINE
8
0
10
194.4488097
20
-91.6153443
11
199.3186954
21
-103.6687344
0
LINE
8
0
10
192.6501124
20
-135.2138211
11
204.7035025
21
-130.3439354
0
LINE
8
0
10
204.9797911
20
-129.6930402
11
200.1099054
21
-117.6396501
0
LINE
8
0
10
199.4590102
20
-117.3633615
11
187.4056201
21
-122.2332472
0
LINE
8
0
10
187.1293315
20
-122.8841424
11
191.9992172
21
-134.9375325
0
LINE
8
0
10
186.094497
20
-118.9881037
11
198.1478871
21
-114.118218
0
LINE
8
0
10
198.4241757
20
-113.4673228
11
193.55429
21
-101.4139327
0
LINE
8
0
10
192.9033948
20
-101.1376441
11
180.8500047
21
-106.0075298
0
LINE
8
0
10
180.5737161
20
-106.658425
11
185.4436018
21
-118.7118151
0
LINE
8
0
10
116.0819133
20
-153.6571725
11
128.1353034
21
-158.5270582
0
LINE
8
0
10
128.7861986
20
-158.2507696
11
133.6560843
21
-146.1973795
0
LINE
8
0
10
133.3797957
20
-145.5464843
11
121.3264056
21
-140.6765986
0
LINE
8
0
10
120.6755104
20
-140.9528872
11
115.8056247
21
-153.0062773
0
LINE
8
0
10
131.5959108
20
-164.6438238
11
143.6493009
21
-169.5137095
0
LINE
8
0
10
144.3001961
20
-169.2374209
11
149.1700818
21
-157.1840308
0
LINE
8
0
10
148.8937932
20
-156.5331356
11
136.8404031
21
-151.6632499
0
LINE
8
0
10
136.1895079
20
-151.9395385
11
131.3196222
21
-163.9929286
0
LINE
8
0
10
217.0339412
20
-158.5270582
11
229.0873313
21
-153.6571725
0
LINE
8
0
10
229.3636199
20
-153.0062773
11
224.4937342
21
-140.9528872
0
LINE
8
0
10
223.842839
20
-140.6765986
11
211.7894489
21
-145.5464843
0
LINE
8
0
10
211.5131603
20
-146.1973795
11
216.383046
21
-158.2507696
0
LINE
8
0
10
201.5199437
20
-169.5137095
11
213.5733338
21
-164.6438238
0
LINE
8
0
10
213.8496224
20
-163.9929286
11
208.9797367
21
-151.9395385
0
LINE
8
0
10
208.3288415
20
-151.6632499
11
196.2754514
21
-156.5331356
0
LINE
8
0
10
195.9991628
20
-157.1840308
11
200.8690485
21
-169.2374209
0
ARC
8
0
10
193.9952577
20
-157.074205
40
0.5
50
68.9094694
51
68.9094717
0
ARC
8
0
10
81.8054461
20
-112.1210016
40
0.5
50
255.9999994
51
345.9999994
0
ARC
8
0
10
84.9504308
20
-99.5071571
40
0.5
50
345.9999994
51
75.9999994
0
ARC
8
0
10
72.3365863
20
-96.3621724
40
0.5
50
75.9999994
51
165.9999994
0
ARC
8
0
10
69.1916016
20
-108.9760169
40
0.5
50
165.9999994
51
255.9999994
0
ARC
8
0
10
86.0390793
20
-95.1408264
40
0.5
50
255.9999994
51
345.9999994
0
ARC
8
0
10
89.184064
20
-82.5269819
40
0.5
50
345.9999994
51
75.9999994
0
ARC
8
0
10
76.5702195
20
-79.3819972
40
0.5
50
75.9999994
51
165.9999994
0
ARC
8
0
10
73.4252348
20
-91.9958417
40
0.5
50
165.9999994
51
255.9999994
0
ARC
8
0
10
271.7440098
20
-91.9958417
40
0.5
50
284.0000006
51
14.0000006
0
ARC
8
0
10
268.5990251
20
-79.3819972
40
0.5
50
14.0000006
51
104.0000006
0
ARC
8
0
10
255.9851806
20
-82.5269819
40
0.5
50
104.0000006
51
194.0000006
0
ARC
8
0
10
259.1301653
20
-95.1408264
40
0.5
50
194.0000006
51
284.0000006
0
ARC
8
0
10
275.977643
20
-108.9760169
40
0.5
50
284.0000006
51
14.0000006
0
ARC
8
0
10
272.8326583
20
-96.3621724
40
0.5
50
14.0000006
51
104.0000006
0
ARC
8
0
10
260.2188138
20
-99.5071571
40
0.5
50
104.0000006
51
194.0000006
0
ARC
8
0
10
263.3637985
20
-112.1210016
40
0.5
50
194.0000006
51
284.0000006
0
ARC
8
0
10
97.8908926
20
-122.7135956
40
0.5
50
250.999998
51
340.999998
0
ARC
8
0
10
102.1232786
20
-110.4218542
40
0.5
50
340.999998
51
70.999998
0
ARC
8
0
10
89.8315372
20
-106.1894682
40
0.5
50
70.999998
51
160.999998
0
ARC
8
0
10
85.5991512
20
-118.4812096
40
0.5
50
160.999998
51
250.999998
0
ARC
8
0
10
103.5883353
20
-106.1670205
40
0.5
50
250.999998
51
340.999998
0
ARC
8
0
10
107.8207213
20
-93.8752791
40
0.5
50
340.999998
51
70.999998
0
ARC
8
0
10
95.5289799
20
-89.6428931
40
0.5
50
70.999998
51
160.999998
0
ARC
8
0
10
91.2965939
20
-101.9346345
40
0.5
50
160.999998
51
250.999998
0
ARC
8
0
10
109.285778
20
-89.6204454
40
0.5
50
250.999998
51
340.999998
0
ARC
8
0
10
113.518164
20
-77.328704
40
0.5
50
340.999998
51
70.999998
0
ARC
8
0
10
101.2264226
20
-73.096318
40
0.5
50
70.999998
51
160.999998
0
ARC
8
0
10
96.9940366
20
-85.3880594
40
0.5
50
160.999998
51
250.999998
0
ARC
8
0
10
259.5700934
20
-118.4812096
40
0.5
50
289.000002
51
19.000002
0
ARC
8
0
10
255.3377074
20
-106.1894682
40
0.5
50
19.000002
51
109.000002
0
ARC
8
0
10
243.045966
20
-110.4218542
40
0.5
50
109.000002
51
199.000002
0
ARC
8
0
10
247.278352
20
-122.7135956
40
0.5
50
199.000002
51
289.000002
0
ARC
8
0
10
253.8726507
20
-101.9346345
40
0.5
50
289.000002
51
19.000002
0
ARC
8
0
10
249.6402647
20
-89.6428931
40
0.5
50
19.000002
51
109.000002
0
ARC
8
0
10
237.3485233
20
-93.8752791
40
0.5
50
109.000002
51
199.000002
0
ARC
8
0
10
241.5809093
20
-106.1670205
40
0.5
50
199.000002
51
289.000002
0
ARC
8
0
10
248.175208
20
-85.3880594
40
0.5
50
289.000002
51
19.000002
0
ARC
8
0
10
243.942822
20
-73.096318
40
0.5
50
19.000002
51
109.000002
0
ARC
8
0
10
231.6510806
20
-77.328704
40
0.5
50
109.000002
51
199.000002
0
ARC
8
0
10
235.8834666
20
-89.6204454
40
0.5
50
199.000002
51
289.000002
0
ARC
8
0
10
159.2620509
20
-118.5245118
40
0.5
50
248.0000006
51
338.0000006
0
ARC
8
0
10
164.1319366
20
-106.4711217
40
0.5
50
338.0000006
51
68.0000006
0
ARC
8
0
10
152.0785465
20
-101.601236
40
0.5
50
68.0000006
51
158.0000006
0
ARC
8
0
10
147.2086608
20
-113.6546261
40
0.5
50
158.0000006
51
248.0000006
0
ARC
8
0
10
197.9605838
20
-113.6546261
40
0.5
50
291.9999994
51
21.9999994
0
ARC
8
0
10
193.0906981
20
-101.601236
40
0.5
50
21.9999994
51
111.9999994
0
ARC
8
0
10
181.037308
20
-106.4711217
40
0.5
50
111.9999994
51
201.9999994
0
ARC
8
0
10
185.9071937
20
-118.5245118
40
0.5
50
201.9999994
51
291.9999994
0
ARC
8
0
10
132.2757264
20
-135.932866
40
0.5
50
248.0000006
51
338.0000006
0
ARC
8
0
10
137.1456121
20
-123.8794759
40
0.5
50
338.0000006
51
68.0000006
0
ARC
8
0
10
125.092222
20
-119.0095902
40
0.5
50
68.0000006
51
158.0000006
0
ARC
8
0
10
120.2223363
20
-131.0629803
40
0.5
50
158.0000006
51
248.0000006
0
ARC
8
0
10
152.7064355
20
-134.7502292
40
0.5
50
248.0000006
51
338.0000006
0
ARC
8
0
10
157.5763212
20
-122.6968391
40
0.5
50
338.0000006
51
68.0000006
0
ARC
8
0
10
145.5229311
20
-117.8269534
40
0.5
50
68.0000006
51
158.0000006
0
ARC
8
0
10
140.6530454
20
-129.8803435
40
0.5
50
158.0000006
51
248.0000006
0
ARC
8
0
10
224.9469083
20
-131.0629803
40
0.5
50
291.9999994
51
21.9999994
0
ARC
8
0
10
220.0770226
20
-119.0095902
40
0.5
50
21.9999994
51
111.9999994
0
ARC
8
0
10
208.0236325
20
-123.8794759
40
0.5
50
111.9999994
51
201.9999994
0
ARC
8
0
10
212.8935182
20
-135.932866
40
0.5
50
201.9999994
51
291.9999994
0
ARC
8
0
10
204.5161992
20
-129.8803435
40
0.5
50
291.9999994
51
21.9999994
0
ARC
8
0
10
199.6463135
20
-117.8269534
40
0.5
50
21.9999994
51
111.9999994
0
ARC
8
0
10
187.5929234
20
-122.6968391
40
0.5
50
111.9999994
51
201.9999994
0
ARC
8
0
10
192.4628091
20
-134.7502292
40
0.5
50
201.9999994
51
291.9999994
0
ARC
8
0
10
128.3226067
20
-158.0634663
40
0.5
50
248.0000006
51
338.0000006
0
ARC
8
0
10
133.1924924
20
-146.0100762
40
0.5
50
338.0000006
51
68.0000006
0
ARC
8
0
10
121.1391023
20
-141.1401905
40
0.5
50
68.0000006
51
158.0000006
0
ARC
8
0
10
116.2692166
20
-153.1935806
40
0.5
50
158.0000006
51
248.0000006
0
ARC
8
0
10
143.8366042
20
-169.0501176
40
0.5
50
248.0000006
51
338.0000006
0
ARC
8
0
10
148.7064899
20
-156.9967275
40
0.5
50
338.0000006
51
68.0000006
0
ARC
8
0
10
136.6530998
20
-152.1268418
40
0.5
50
68.0000006
51
158.0000006
0
ARC
8
0
10
131.7832141
20
-164.1802319
40
0.5
50
158.0000006
51
248.0000006
0
ARC
8
0
10
228.900028
20
-153.1935806
40
0.5
50
291.9999994
51
21.9999994
0
ARC
8
0
10
224.0301423
20
-141.1401905
40
0.5
50
21.9999994
51
111.9999994
0
ARC
8
0
10
211.9767522
20
-146.0100762
40
0.5
50
111.9999994
51
201.9999994
0
ARC
8
0
10
216.8466379
20
-158.0634663
40
0.5
50
201.9999994
51
291.9999994
0
ARC
8
0
10
213.3860305
20
-164.1802319
40
0.5
50
291.9999994
51
21.9999994
0
ARC
8
0
10
208.5161448
20
-152.1268418
40
0.5
50
21.9999994
51
111.9999994
0
ARC
8
0
10
196.4627547
20
-156.9967275
40
0.5
50
111.9999994
51
201.9999994
0
ARC
8
0
10
201.3326404
20
-169.0501176
40
0.5
50
201.9999994
51
291.9999994
0
ARC
8
0
10
116.761729
20
-124.9462146
40
0.5
50
248.0000006
51
338.0000006
0
ARC
8
0
10
121.6316147
20
-112.8928245
40
0.5
50
338.0000006
51
68.0000006
0
ARC
8
0
10
109.5782246
20
-108.0229388
40
0.5
50
68.0000006
51
158.0000006
0
ARC
8
0
10
104.7083389
20
-120.0763289
40
0.5
50
158.0000006
51
248.0000006
0
ARC
8
0
10
123.3173444
20
-108.7204971
40
0.5
50
248.0000006
51
338.0000006
0
ARC
8
0
10
128.1872301
20
-96.667107
40
0.5
50
338.0000006
51
68.0000006
0
ARC
8
0
10
116.13384
20
-91.7972213
40
0.5
50
68.0000006
51
158.0000006
0
ARC
8
0
10
111.2639543
20
-103.8506114
40
0.5
50
158.0000006
51
248.0000006
0
ARC
8
0
10
138.8313419
20
-119.7071486
40
0.5
50
248.0000006
51
338.0000006
0
ARC
8
0
10
143.7012276
20
-107.6537585
40
0.5
50
338.0000006
51
68.0000006
0
ARC
8
0
10
131.6478375
20
-102.7838728
40
0.5
50
68.0000006
51
158.0000006
0
ARC
8
0
10
126.7779518
20
-114.8372629
40
0.5
50
158.0000006
51
248.0000006
0
ARC
8
0
10
145.3869573
20
-103.4814311
40
0.5
50
248.0000006
51
338.0000006
0
ARC
8
0
10
150.256843
20
-91.428041
40
0.5
50
338.0000006
51
68.0000006
0
ARC
8
0
10
138.2034529
20
-86.5581553
40
0.5
50
68.0000006
51
158.0000006
0
ARC
8
0
10
133.3335672
20
-98.6115454
40
0.5
50
158.0000006
51
248.0000006
0
ARC
8
0
10
240.4609057
20
-120.0763289
40
0.5
50
291.9999994
51
21.9999994
0
ARC
8
0
10
235.59102
20
-108.0229388
40
0.5
50
21.9999994
51
111.9999994
0
ARC
8
0
10
223.5376299
20
-112.8928245
40
0.5
50
111.9999994
51
201.9999994
0
ARC
8
0
10
228.4075156
20
-124.9462146
40
0.5
50
201.9999994
51
291.9999994
0
ARC
8
0
10
233.9052903
20
-103.8506114
40
0.5
50
291.9999994
51
21.9999994
0
ARC
8
0
10
229.0354046
20
-91.7972213
40
0.5
50
21.9999994
51
111.9999994
0
ARC
8
0
10
216.9820145
20
-96.667107
40
0.5
50
111.9999994
51
201.9999994
0
ARC
8
0
10
221.8519002
20
-108.7204971
40
0.5
50
201.9999994
51
291.9999994
0
ARC
8
0
10
227.3496749
20
-87.624894
40
0.5
50
291.9999994
51
21.9999994
0
ARC
8
0
10
222.4797892
20
-75.5715039
40
0.5
50
21.9999994
51
111.9999994
0
ARC
8
0
10
210.4263991
20
-80.4413896
40
0.5
50
111.9999994
51
201.9999994
0
ARC
8
0
10
215.2962848
20
-92.4947797
40
0.5
50
201.9999994
51
291.9999994
0
ARC
8
0
10
218.3912928
20
-114.8372629
40
0.5
50
291.9999994
51
21.9999994
0
ARC
8
0
10
213.5214071
20
-102.7838728
40
0.5
50
21.9999994
51
111.9999994
0
ARC
8
0
10
201.468017
20
-107.6537585
40
0.5
50
111.9999994
51
201.9999994
0
ARC
8
0
10
206.3379027
20
-119.7071486
40
0.5
50
201.9999994
51
291.9999994
0
ARC
8
0
10
211.8356774
20
-98.6115454
40
0.5
50
291.9999994
51
21.9999994
0
ARC
8
0
10
206.9657917
20
-86.5581553
40
0.5
50
21.9999994
51
111.9999994
0
ARC
8
0
10
194.9124016
20
-91.428041
40
0.5
50
111.9999994
51
201.9999994
0
ARC
8
0
10
199.7822873
20
-103.4814311
40
0.5
50
201.9999994
51
291.9999994
0
ARC
8
0
10
129.8729598
20
-92.4947797
40
0.5
50
248.0000006
51
338.0000006
0
ARC
8
0
10
134.7428455
20
-80.4413896
40
0.5
50
338.0000006
51
68.0000006
0
ARC
8
0
10
122.6894554
20
-75.5715039
40
0.5
50
68.0000006
51
158.0000006
0
ARC
8
0
10
117.8195697
20
-87.624894
40
0.5
50
158.0000006
51
248.0000006
0
ENDSEC
0
EOF