M48
; DRILL file {KiCad 7.0.10} date Sun Jan 14 23:41:20 2024
; FORMAT={-:-/ absolute / metric / decimal}
; #@! TF.CreationDate,2024-01-14T23:41:20+02:00
; #@! TF.GenerationSoftware,Kicad,Pcbnew,7.0.10
; #@! TF.FileFunction,Plated,1,2,PTH
FMAT,2
METRIC
; #@! TA.AperFunction,Plated,PTH,ComponentDrill
T1C0.300
; #@! TA.AperFunction,Plated,PTH,ComponentDrill
T2C0.400
; #@! TA.AperFunction,Plated,PTH,ComponentDrill
T3C0.750
; #@! TA.AperFunction,Plated,PTH,ComponentDrill
T4C1.000
; #@! TA.AperFunction,Plated,PTH,ComponentDrill
T5C2.200
%
G90
G05
T1
X95.5Y-63.5
X95.5Y-81.0
X95.5Y-98.5
X96.25Y-67.5
X96.25Y-85.0
X97.0Y-70.0
X97.0Y-87.5
X97.0Y-105.0
X100.0Y-62.0
X100.0Y-79.5
X100.0Y-97.0
X101.65Y-68.5
X101.65Y-86.0
X101.65Y-103.5
X101.914Y-47.601
X102.608Y-48.67
X114.0Y-51.5
X114.0Y-69.0
X114.0Y-86.5
X114.75Y-55.5
X114.75Y-73.0
X115.5Y-58.0
X115.5Y-75.5
X115.5Y-93.0
X118.5Y-50.0
X118.5Y-67.5
X118.5Y-85.0
X120.15Y-56.5
X120.15Y-74.0
X120.15Y-91.5
X132.5Y-45.5
X132.5Y-63.0
X132.5Y-80.5
X133.25Y-49.5
X133.25Y-67.0
X134.0Y-52.0
X134.0Y-69.5
X134.0Y-87.0
X137.0Y-44.0
X137.0Y-61.5
X137.0Y-79.0
X138.65Y-50.5
X138.65Y-68.0
X138.65Y-85.5
X151.0Y-51.5
X151.0Y-69.0
X151.0Y-86.5
X151.75Y-55.5
X151.75Y-73.0
X152.5Y-58.0
X152.5Y-75.5
X152.5Y-93.0
X155.5Y-50.0
X155.5Y-67.5
X155.5Y-85.0
X157.15Y-56.5
X157.15Y-74.0
X157.15Y-91.5
X162.542Y-110.636
X167.188Y-117.058
X168.7Y-105.04
X169.5Y-54.5
X169.5Y-72.0
X169.5Y-89.5
X170.25Y-58.5
X170.25Y-76.0
X171.0Y-61.0
X171.0Y-78.5
X171.0Y-96.0
X174.0Y-53.0
X174.0Y-70.5
X174.0Y-88.0
X174.96Y-122.246
X175.65Y-59.5
X175.65Y-77.0
X175.65Y-94.5
X185.3Y-90.55
X185.655Y-118.374
X186.1Y-91.35
X186.9Y-92.15
X189.116Y-125.504
X192.692Y-113.931
X193.3Y-57.15
X193.65Y-95.3
X194.875Y-99.75
X201.15Y-99.75
T2
X190.388Y-60.7
X190.388Y-63.24
X190.388Y-65.78
X190.388Y-68.32
X190.388Y-70.86
X190.388Y-73.4
X190.388Y-75.94
X190.388Y-78.48
X190.388Y-81.02
X190.388Y-83.56
X190.388Y-86.1
X190.388Y-88.64
X196.912Y-60.7
X196.912Y-63.24
X196.912Y-65.78
X196.912Y-68.32
X196.912Y-70.86
X196.912Y-73.4
X196.912Y-75.94
X196.912Y-78.48
X196.912Y-81.02
X196.912Y-83.56
X196.912Y-86.1
X196.912Y-88.64
T3
X198.8Y-98.75
X198.8Y-100.75
T4
X186.03Y-60.7
X186.03Y-63.24
X186.03Y-65.78
X186.03Y-68.32
X186.03Y-70.86
X186.03Y-73.4
X186.03Y-75.94
X186.03Y-78.48
X186.03Y-81.02
X186.03Y-83.56
X186.03Y-86.1
X186.03Y-88.64
X188.57Y-91.9
X191.11Y-91.9
X193.65Y-91.9
X196.19Y-91.9
X198.73Y-91.9
X201.27Y-60.7
X201.27Y-63.24
X201.27Y-65.78
X201.27Y-68.32
X201.27Y-70.86
X201.27Y-73.4
X201.27Y-75.94
X201.27Y-78.48
X201.27Y-81.02
X201.27Y-83.56
X201.27Y-86.1
X201.27Y-88.64
T5
X109.25Y-57.5
X109.25Y-92.5
X164.75Y-58.0
X164.75Y-93.0
X178.091Y-116.356
M30
