0
SECTION
2
HEADER
9
$INSUNITS
70
4
0
ENDSEC
0
SECTION
2
TABLES
0
TABLE
2
LTYPE
0
LTYPE
72
65
70
64
2
CONTINUOUS
3
______
73
0
40
0
0
ENDTAB
0
TABLE
2
LAYER
0
ENDTAB
0
ENDSEC
0
SECTION
2
ENTITIES
0
LINE
8
0
10
192.0527143
20
-136.3560352
11
91.816242
21
-111.0716535
0
LINE
8
0
10
89.55
20
-108.1627707
11
89.55
21
-62.2182194
0
LINE
8
0
10
90.7094115
20
-59.8492041
11
91.25
21
-59.429198
0
LINE
8
0
10
94.6983871
20
-56.75
11
109.0849209
21
-45.5724925
0
LINE
8
0
10
109.9999953
20
-45.0878394
11
127.5488112
21
-39.3963315
0
LINE
8
0
10
128.4743253
20
-39.25
11
145.6141808
21
-39.25
0
LINE
8
0
10
146.373264
20
-39.3476229
11
182.7590831
21
-48.863914
0
LINE
8
0
10
185
20
-51.7662912
11
185
21
-54.05
0
LINE
8
0
10
188
20
-57.05
11
200.55
21
-57.05
0
LINE
8
0
10
203.55
20
-60.05
11
203.55
21
-92.3932949
0
LINE
8
0
10
203.5499699
20
-92.4067241
11
203.4333765
21
-118.4526279
0
LINE
8
0
10
203.1064262
20
-119.8011703
11
195.4594919
21
-134.8091239
0
ARC
8
0
10
92.55
20
-108.1627707
40
3
50
180
51
255.842631
0
ARC
8
0
10
92.55
20
-62.2182194
40
3
50
127.8451487
51
180
0
ARC
8
0
10
110.9255094
20
-47.9415079
40
3
50
107.9691402
51
127.8451487
0
ARC
8
0
10
128.4743253
20
-42.25
40
3
50
90
51
107.9691402
0
ARC
8
0
10
145.6141808
20
-42.25
40
3
50
75.343251
51
90
0
ARC
8
0
10
182
20
-51.7662912
40
3
50
0
51
75.343251
0
ARC
8
0
10
188
20
-54.05
40
3
50
180
51
270
0
ARC
8
0
10
200.55
20
-60.05
40
3
50
0
51
90
0
ARC
8
0
10
200.55
20
-92.3932949
40
3
50
359.7435203
51
0
0
ARC
8
0
10
200.4334066
20
-118.4391987
40
3
50
332.9999994
51
359.7435203
0
ARC
8
0
10
192.7864723
20
-133.4471524
40
3
50
255.842631
51
332.9999994
0
LINE
8
0
10
91.25
20
-108.25
11
108.75
21
-108.25
0
LINE
8
0
10
108.75
20
-108.25
11
108.75
21
-91.75
0
LINE
8
0
10
108.75
20
-91.75
11
91.25
21
-91.75
0
LINE
8
0
10
91.25
20
-91.75
11
91.25
21
-108.25
0
LINE
8
0
10
91.25
20
-90.75
11
108.75
21
-90.75
0
LINE
8
0
10
108.75
20
-90.75
11
108.75
21
-74.25
0
LINE
8
0
10
108.75
20
-74.25
11
91.25
21
-74.25
0
LINE
8
0
10
91.25
20
-74.25
11
91.25
21
-90.75
0
LINE
8
0
10
91.25
20
-73.25
11
108.75
21
-73.25
0
LINE
8
0
10
108.75
20
-73.25
11
108.75
21
-56.75
0
LINE
8
0
10
108.75
20
-56.75
11
94.6983871
21
-56.75
0
LINE
8
0
10
91.25
20
-59.429198
11
91.25
21
-73.25
0
LINE
8
0
10
109.75
20
-97
11
127.25
21
-97
0
LINE
8
0
10
127.25
20
-97
11
127.25
21
-80.5
0
LINE
8
0
10
127.25
20
-80.5
11
109.75
21
-80.5
0
LINE
8
0
10
109.75
20
-80.5
11
109.75
21
-97
0
LINE
8
0
10
109.75
20
-79.5
11
127.25
21
-79.5
0
LINE
8
0
10
127.25
20
-79.5
11
127.25
21
-63
0
LINE
8
0
10
127.25
20
-63
11
109.75
21
-63
0
LINE
8
0
10
109.75
20
-63
11
109.75
21
-79.5
0
LINE
8
0
10
109.75
20
-62
11
127.25
21
-62
0
LINE
8
0
10
127.25
20
-62
11
127.25
21
-45.5
0
LINE
8
0
10
127.25
20
-45.5
11
109.75
21
-45.5
0
LINE
8
0
10
109.75
20
-45.5
11
109.75
21
-62
0
LINE
8
0
10
128.25
20
-91
11
145.75
21
-91
0
LINE
8
0
10
145.75
20
-91
11
145.75
21
-74.5
0
LINE
8
0
10
145.75
20
-74.5
11
128.25
21
-74.5
0
LINE
8
0
10
128.25
20
-74.5
11
128.25
21
-91
0
LINE
8
0
10
128.25
20
-73.5
11
145.75
21
-73.5
0
LINE
8
0
10
145.75
20
-73.5
11
145.75
21
-57
0
LINE
8
0
10
145.75
20
-57
11
128.25
21
-57
0
LINE
8
0
10
128.25
20
-57
11
128.25
21
-73.5
0
LINE
8
0
10
128.25
20
-56
11
145.75
21
-56
0
LINE
8
0
10
145.75
20
-56
11
145.75
21
-39.5
0
LINE
8
0
10
145.75
20
-39.5
11
128.25
21
-39.5
0
LINE
8
0
10
128.25
20
-39.5
11
128.25
21
-56
0
LINE
8
0
10
146.75
20
-98.2
11
164.25
21
-98.2
0
LINE
8
0
10
164.25
20
-98.2
11
164.25
21
-81.7
0
LINE
8
0
10
164.25
20
-81.7
11
146.75
21
-81.7
0
LINE
8
0
10
146.75
20
-81.7
11
146.75
21
-98.2
0
LINE
8
0
10
146.75
20
-80.7
11
164.25
21
-80.7
0
LINE
8
0
10
164.25
20
-80.7
11
164.25
21
-64.2
0
LINE
8
0
10
164.25
20
-64.2
11
146.75
21
-64.2
0
LINE
8
0
10
146.75
20
-64.2
11
146.75
21
-80.7
0
LINE
8
0
10
146.75
20
-63.2
11
164.25
21
-63.2
0
LINE
8
0
10
164.25
20
-63.2
11
164.25
21
-46.7
0
LINE
8
0
10
164.25
20
-46.7
11
146.75
21
-46.7
0
LINE
8
0
10
146.75
20
-46.7
11
146.75
21
-63.2
0
LINE
8
0
10
165.25
20
-101.2
11
182.75
21
-101.2
0
LINE
8
0
10
182.75
20
-101.2
11
182.75
21
-84.7
0
LINE
8
0
10
182.75
20
-84.7
11
165.25
21
-84.7
0
LINE
8
0
10
165.25
20
-84.7
11
165.25
21
-101.2
0
LINE
8
0
10
165.25
20
-83.7
11
182.75
21
-83.7
0
LINE
8
0
10
182.75
20
-83.7
11
182.75
21
-67.2
0
LINE
8
0
10
182.75
20
-67.2
11
165.25
21
-67.2
0
LINE
8
0
10
165.25
20
-67.2
11
165.25
21
-83.7
0
LINE
8
0
10
165.25
20
-66.2
11
182.75
21
-66.2
0
LINE
8
0
10
182.75
20
-66.2
11
182.75
21
-49.7
0
LINE
8
0
10
182.75
20
-49.7
11
165.25
21
-49.7
0
LINE
8
0
10
165.25
20
-49.7
11
165.25
21
-66.2
0
LINE
8
0
10
159.7202668
20
-120.2812618
11
176.4556001
21
-125.3977667
0
LINE
8
0
10
176.4556001
20
-125.3977667
11
181.2797332
21
-109.6187382
0
LINE
8
0
10
181.2797332
20
-109.6187382
11
164.5443999
21
-104.5022333
0
LINE
8
0
10
164.5443999
20
-104.5022333
11
159.7202668
21
-120.2812618
0
LINE
8
0
10
177.7971735
20
-125.9702626
11
193.3897877
21
-133.9150963
0
LINE
8
0
10
193.3897877
20
-133.9150963
11
200.8806309
21
-119.2134886
0
LINE
8
0
10
200.8806309
20
-119.2134886
11
185.2880167
21
-111.2686549
0
LINE
8
0
10
185.2880167
20
-111.2686549
11
177.7971735
21
-125.9702626
0
ENDSEC
0
EOF