0
SECTION
2
HEADER
9
$INSUNITS
70
4
0
ENDSEC
0
SECTION
2
TABLES
0
TABLE
2
LTYPE
0
LTYPE
72
65
70
64
2
CONTINUOUS
3
______
73
0
40
0
0
ENDTAB
0
TABLE
2
LAYER
0
ENDTAB
0
ENDSEC
0
SECTION
2
ENTITIES
0
LINE
8
0
10
192.2471857
20
-135.2258979
11
91.8477714
21
-111.0532231
0
LINE
8
0
10
89.55
20
-108.1365684
11
89.55
21
-62.1756577
0
LINE
8
0
10
90.6553704
20
-59.8496356
11
91.25
21
-59.3652882
0
LINE
8
0
10
94.4607692
20
-56.75
11
109.0648031
21
-44.8544837
0
LINE
8
0
10
110.0339186
20
-44.3268372
11
127.5488112
21
-38.6463315
0
LINE
8
0
10
128.4743253
20
-38.5
11
145.6583359
21
-38.5
0
LINE
8
0
10
146.3329144
20
-38.5768264
11
182.6745785
21
-46.9633643
0
LINE
8
0
10
185
20
-49.8865379
11
185
21
-52.3
0
LINE
8
0
10
188
20
-55.3
11
200.55
21
-55.3
0
LINE
8
0
10
203.55
20
-58.3
11
203.55
21
-115.55
0
LINE
8
0
10
203.55
20
-115.55
11
203.3292547
21
-117.1482086
0
LINE
8
0
10
203.3292547
20
-117.1482086
11
195.6683377
21
-133.5770981
0
ARC
8
0
10
92.55
20
-108.1365684
40
3
50
180
51
256.4628251
0
ARC
8
0
10
92.55
20
-62.1756577
40
3
50
129.1640687
51
180
0
ARC
8
0
10
110.9594327
20
-47.1805057
40
3
50
107.9691402
51
129.1640687
0
ARC
8
0
10
128.4743253
20
-41.5
40
3
50
90
51
107.9691402
0
ARC
8
0
10
145.6583359
20
-41.5
40
3
50
77.0053836
51
90
0
ARC
8
0
10
182
20
-49.8865379
40
3
50
0
51
77.0053836
0
ARC
8
0
10
188
20
-52.3
40
3
50
180
51
270
0
ARC
8
0
10
200.55
20
-58.3
40
3
50
0
51
90
0
ARC
8
0
10
192.9494144
20
-132.3092432
40
3
50
256.4628251
51
334.9999983
0
LINE
8
0
10
91.25
20
-108.25
11
108.75
21
-108.25
0
LINE
8
0
10
108.75
20
-108.25
11
108.75
21
-91.75
0
LINE
8
0
10
108.75
20
-91.75
11
91.25
21
-91.75
0
LINE
8
0
10
91.25
20
-91.75
11
91.25
21
-108.25
0
LINE
8
0
10
91.25
20
-90.75
11
108.75
21
-90.75
0
LINE
8
0
10
108.75
20
-90.75
11
108.75
21
-74.25
0
LINE
8
0
10
108.75
20
-74.25
11
91.25
21
-74.25
0
LINE
8
0
10
91.25
20
-74.25
11
91.25
21
-90.75
0
LINE
8
0
10
91.25
20
-73.25
11
108.75
21
-73.25
0
LINE
8
0
10
108.75
20
-73.25
11
108.75
21
-56.75
0
LINE
8
0
10
108.75
20
-56.75
11
94.4607692
21
-56.75
0
LINE
8
0
10
91.25
20
-59.3652882
11
91.25
21
-73.25
0
LINE
8
0
10
109.75
20
-96.25
11
127.25
21
-96.25
0
LINE
8
0
10
127.25
20
-96.25
11
127.25
21
-79.75
0
LINE
8
0
10
127.25
20
-79.75
11
109.75
21
-79.75
0
LINE
8
0
10
109.75
20
-79.75
11
109.75
21
-96.25
0
LINE
8
0
10
109.75
20
-78.75
11
127.25
21
-78.75
0
LINE
8
0
10
127.25
20
-78.75
11
127.25
21
-62.25
0
LINE
8
0
10
127.25
20
-62.25
11
109.75
21
-62.25
0
LINE
8
0
10
109.75
20
-62.25
11
109.75
21
-78.75
0
LINE
8
0
10
109.75
20
-61.25
11
127.25
21
-61.25
0
LINE
8
0
10
127.25
20
-61.25
11
127.25
21
-44.75
0
LINE
8
0
10
127.25
20
-44.75
11
109.75
21
-44.75
0
LINE
8
0
10
109.75
20
-44.75
11
109.75
21
-61.25
0
LINE
8
0
10
128.25
20
-90.25
11
145.75
21
-90.25
0
LINE
8
0
10
145.75
20
-90.25
11
145.75
21
-73.75
0
LINE
8
0
10
145.75
20
-73.75
11
128.25
21
-73.75
0
LINE
8
0
10
128.25
20
-73.75
11
128.25
21
-90.25
0
LINE
8
0
10
128.25
20
-72.75
11
145.75
21
-72.75
0
LINE
8
0
10
145.75
20
-72.75
11
145.75
21
-56.25
0
LINE
8
0
10
145.75
20
-56.25
11
128.25
21
-56.25
0
LINE
8
0
10
128.25
20
-56.25
11
128.25
21
-72.75
0
LINE
8
0
10
128.25
20
-55.25
11
145.75
21
-55.25
0
LINE
8
0
10
145.75
20
-55.25
11
145.75
21
-38.75
0
LINE
8
0
10
145.75
20
-38.75
11
128.25
21
-38.75
0
LINE
8
0
10
128.25
20
-38.75
11
128.25
21
-55.25
0
LINE
8
0
10
146.75
20
-96.25
11
164.25
21
-96.25
0
LINE
8
0
10
164.25
20
-96.25
11
164.25
21
-79.75
0
LINE
8
0
10
164.25
20
-79.75
11
146.75
21
-79.75
0
LINE
8
0
10
146.75
20
-79.75
11
146.75
21
-96.25
0
LINE
8
0
10
146.75
20
-78.75
11
164.25
21
-78.75
0
LINE
8
0
10
164.25
20
-78.75
11
164.25
21
-62.25
0
LINE
8
0
10
164.25
20
-62.25
11
146.75
21
-62.25
0
LINE
8
0
10
146.75
20
-62.25
11
146.75
21
-78.75
0
LINE
8
0
10
146.75
20
-61.25
11
164.25
21
-61.25
0
LINE
8
0
10
164.25
20
-61.25
11
164.25
21
-44.75
0
LINE
8
0
10
164.25
20
-44.75
11
146.75
21
-44.75
0
LINE
8
0
10
146.75
20
-44.75
11
146.75
21
-61.25
0
LINE
8
0
10
165.25
20
-99.25
11
182.75
21
-99.25
0
LINE
8
0
10
182.75
20
-99.25
11
182.75
21
-82.75
0
LINE
8
0
10
182.75
20
-82.75
11
165.25
21
-82.75
0
LINE
8
0
10
165.25
20
-82.75
11
165.25
21
-99.25
0
LINE
8
0
10
165.25
20
-81.75
11
182.75
21
-81.75
0
LINE
8
0
10
182.75
20
-81.75
11
182.75
21
-65.25
0
LINE
8
0
10
182.75
20
-65.25
11
165.25
21
-65.25
0
LINE
8
0
10
165.25
20
-65.25
11
165.25
21
-81.75
0
LINE
8
0
10
165.25
20
-64.25
11
182.75
21
-64.25
0
LINE
8
0
10
182.75
20
-64.25
11
182.75
21
-47.75
0
LINE
8
0
10
182.75
20
-47.75
11
165.25
21
-47.75
0
LINE
8
0
10
165.25
20
-47.75
11
165.25
21
-64.25
0
LINE
8
0
10
155.9128919
20
-118.9542214
11
172.8165939
21
-123.4835547
0
LINE
8
0
10
172.8165939
20
-123.4835547
11
177.0871081
21
-107.5457786
0
LINE
8
0
10
177.0871081
20
-107.5457786
11
160.1834061
21
-103.0164453
0
LINE
8
0
10
160.1834061
20
-103.0164453
11
155.9128919
21
-118.9542214
0
LINE
8
0
10
177.6830832
20
-125.4141197
11
193.5434695
21
-132.8099392
0
LINE
8
0
10
193.5434695
20
-132.8099392
11
200.5166708
21
-117.8558607
0
LINE
8
0
10
200.5166708
20
-117.8558607
11
184.6562845
21
-110.4600412
0
LINE
8
0
10
184.6562845
20
-110.4600412
11
177.6830832
21
-125.4141197
0
ENDSEC
0
EOF