0
SECTION
2
HEADER
9
$INSUNITS
70
4
0
ENDSEC
0
SECTION
2
TABLES
0
TABLE
2
LTYPE
0
LTYPE
72
65
70
64
2
CONTINUOUS
3
______
73
0
40
0
0
ENDTAB
0
TABLE
2
LAYER
0
ENDTAB
0
ENDSEC
0
SECTION
2
ENTITIES
0
LINE
8
0
10
192.0527143
20
-136.3560352
11
91.816242
21
-111.0716535
0
LINE
8
0
10
102.4209677
20
-50.75
11
107.5
21
-46.8038847
0
LINE
8
0
10
91.25
20
-59.429198
11
94.6983871
21
-56.75
0
LINE
8
0
10
115.6666667
20
-43.25
11
126
21
-39.8986486
0
LINE
8
0
10
148
20
-39.7730769
11
165.8823529
21
-44.45
0
LINE
8
0
10
166.5
20
-44.6115385
11
177.3529412
21
-47.45
0
LINE
8
0
10
188
20
-57.05
11
200.55
21
-57.05
0
LINE
8
0
10
203.55
20
-60.05
11
203.55
21
-92.3932949
0
LINE
8
0
10
203.5499699
20
-92.4067241
11
203.4354474
21
-117.9899987
0
ARC
8
0
10
92.55
20
-108.1627707
40
3
50
231.1760915
51
255.842631
0
ARC
8
0
10
188
20
-54.05
40
3
50
180
51
270
0
ARC
8
0
10
200.55
20
-60.05
40
3
50
0
51
90
0
ARC
8
0
10
200.55
20
-92.3932949
40
3
50
359.7435203
51
0
0
ARC
8
0
10
192.7864723
20
-133.4471524
40
3
50
255.842631
51
280.0908227
0
LINE
8
0
10
90.6692131
20
-110.5
11
111
21
-110.5
0
LINE
8
0
10
111
20
-110.5
11
111
21
-103
0
LINE
8
0
10
121
20
-99.25
11
121
21
-103
0
LINE
8
0
10
121
20
-103
11
111
21
-103
0
LINE
8
0
10
121
20
-99.25
11
129.5
21
-99.25
0
LINE
8
0
10
129.5
20
-99.25
11
129.5
21
-93.25
0
LINE
8
0
10
102.4209677
20
-50.75
11
107.5
21
-50.75
0
LINE
8
0
10
115.6666667
20
-43.25
11
126
21
-43.25
0
LINE
8
0
10
107.5
20
-46.8038847
11
107.5
21
-50.75
0
LINE
8
0
10
129.5
20
-93.25
11
144.5
21
-93.25
0
LINE
8
0
10
148
20
-44.45
11
148
21
-39.7730769
0
LINE
8
0
10
126
20
-39.8986486
11
126
21
-43.25
0
LINE
8
0
10
144.5
20
-100.45
11
163
21
-100.45
0
LINE
8
0
10
144.5
20
-93.25
11
144.5
21
-100.45
0
LINE
8
0
10
166.5
20
-47.45
11
166.5
21
-44.6115385
0
LINE
8
0
10
148
20
-44.45
11
165.8823529
21
-44.45
0
LINE
8
0
10
168.7983829
20
-103.45
11
185
21
-103.45
0
LINE
8
0
10
185
20
-103.45
11
185
21
-54.05
0
LINE
8
0
10
163
20
-100.45
11
163
21
-101.8580549
0
LINE
8
0
10
166.5
20
-47.45
11
177.3529412
21
-47.45
0
LINE
8
0
10
156.9107448
20
-121.7751112
11
176.1545244
21
-127.6585251
0
LINE
8
0
10
183.6761686
20
-109.4760342
11
184.0892552
21
-108.1248888
0
LINE
8
0
10
184.0892552
20
-108.1248888
11
168.7983829
21
-103.45
0
LINE
8
0
10
163
20
-101.8580549
11
156.9107448
21
-121.7751112
0
LINE
8
0
10
176.1545244
20
-127.6585251
11
193.3120994
21
-136.4007462
0
LINE
8
0
10
203.4354474
20
-117.9899987
11
184.3047307
21
-108.2424116
0
LINE
8
0
10
184.3047307
20
-108.2424116
11
183.6761686
21
-109.4760342
0
LINE
8
0
10
91.25
20
-108.25
11
108.75
21
-108.25
0
LINE
8
0
10
108.75
20
-108.25
11
108.75
21
-91.75
0
LINE
8
0
10
108.75
20
-91.75
11
91.25
21
-91.75
0
LINE
8
0
10
91.25
20
-91.75
11
91.25
21
-108.25
0
LINE
8
0
10
91.25
20
-90.75
11
108.75
21
-90.75
0
LINE
8
0
10
108.75
20
-90.75
11
108.75
21
-74.25
0
LINE
8
0
10
108.75
20
-74.25
11
91.25
21
-74.25
0
LINE
8
0
10
91.25
20
-74.25
11
91.25
21
-90.75
0
LINE
8
0
10
91.25
20
-73.25
11
108.75
21
-73.25
0
LINE
8
0
10
108.75
20
-73.25
11
108.75
21
-56.75
0
LINE
8
0
10
108.75
20
-56.75
11
94.6983871
21
-56.75
0
LINE
8
0
10
91.25
20
-59.429198
11
91.25
21
-73.25
0
LINE
8
0
10
109.75
20
-97
11
127.25
21
-97
0
LINE
8
0
10
127.25
20
-97
11
127.25
21
-80.5
0
LINE
8
0
10
127.25
20
-80.5
11
109.75
21
-80.5
0
LINE
8
0
10
109.75
20
-80.5
11
109.75
21
-97
0
LINE
8
0
10
109.75
20
-79.5
11
127.25
21
-79.5
0
LINE
8
0
10
127.25
20
-79.5
11
127.25
21
-63
0
LINE
8
0
10
127.25
20
-63
11
109.75
21
-63
0
LINE
8
0
10
109.75
20
-63
11
109.75
21
-79.5
0
LINE
8
0
10
109.75
20
-62
11
127.25
21
-62
0
LINE
8
0
10
127.25
20
-62
11
127.25
21
-45.5
0
LINE
8
0
10
127.25
20
-45.5
11
109.75
21
-45.5
0
LINE
8
0
10
109.75
20
-45.5
11
109.75
21
-62
0
LINE
8
0
10
128.25
20
-91
11
145.75
21
-91
0
LINE
8
0
10
145.75
20
-91
11
145.75
21
-74.5
0
LINE
8
0
10
145.75
20
-74.5
11
128.25
21
-74.5
0
LINE
8
0
10
128.25
20
-74.5
11
128.25
21
-91
0
LINE
8
0
10
128.25
20
-73.5
11
145.75
21
-73.5
0
LINE
8
0
10
145.75
20
-73.5
11
145.75
21
-57
0
LINE
8
0
10
145.75
20
-57
11
128.25
21
-57
0
LINE
8
0
10
128.25
20
-57
11
128.25
21
-73.5
0
LINE
8
0
10
128.25
20
-56
11
145.75
21
-56
0
LINE
8
0
10
145.75
20
-56
11
145.75
21
-39.5
0
LINE
8
0
10
145.75
20
-39.5
11
128.25
21
-39.5
0
LINE
8
0
10
128.25
20
-39.5
11
128.25
21
-56
0
LINE
8
0
10
146.75
20
-98.2
11
164.25
21
-98.2
0
LINE
8
0
10
164.25
20
-98.2
11
164.25
21
-81.7
0
LINE
8
0
10
164.25
20
-81.7
11
146.75
21
-81.7
0
LINE
8
0
10
146.75
20
-81.7
11
146.75
21
-98.2
0
LINE
8
0
10
146.75
20
-80.7
11
164.25
21
-80.7
0
LINE
8
0
10
164.25
20
-80.7
11
164.25
21
-64.2
0
LINE
8
0
10
164.25
20
-64.2
11
146.75
21
-64.2
0
LINE
8
0
10
146.75
20
-64.2
11
146.75
21
-80.7
0
LINE
8
0
10
146.75
20
-63.2
11
164.25
21
-63.2
0
LINE
8
0
10
164.25
20
-63.2
11
164.25
21
-46.7
0
LINE
8
0
10
164.25
20
-46.7
11
146.75
21
-46.7
0
LINE
8
0
10
146.75
20
-46.7
11
146.75
21
-63.2
0
LINE
8
0
10
165.25
20
-101.2
11
182.75
21
-101.2
0
LINE
8
0
10
182.75
20
-101.2
11
182.75
21
-84.7
0
LINE
8
0
10
182.75
20
-84.7
11
165.25
21
-84.7
0
LINE
8
0
10
165.25
20
-84.7
11
165.25
21
-101.2
0
LINE
8
0
10
165.25
20
-83.7
11
182.75
21
-83.7
0
LINE
8
0
10
182.75
20
-83.7
11
182.75
21
-67.2
0
LINE
8
0
10
182.75
20
-67.2
11
165.25
21
-67.2
0
LINE
8
0
10
165.25
20
-67.2
11
165.25
21
-83.7
0
LINE
8
0
10
165.25
20
-66.2
11
182.75
21
-66.2
0
LINE
8
0
10
182.75
20
-66.2
11
182.75
21
-49.7
0
LINE
8
0
10
182.75
20
-49.7
11
165.25
21
-49.7
0
LINE
8
0
10
165.25
20
-49.7
11
165.25
21
-66.2
0
LINE
8
0
10
159.7202668
20
-120.2812618
11
176.4556001
21
-125.3977667
0
LINE
8
0
10
176.4556001
20
-125.3977667
11
181.2797332
21
-109.6187382
0
LINE
8
0
10
181.2797332
20
-109.6187382
11
164.5443999
21
-104.5022333
0
LINE
8
0
10
164.5443999
20
-104.5022333
11
159.7202668
21
-120.2812618
0
LINE
8
0
10
177.7971735
20
-125.9702626
11
193.3897877
21
-133.9150963
0
LINE
8
0
10
193.3897877
20
-133.9150963
11
200.8806309
21
-119.2134886
0
LINE
8
0
10
200.8806309
20
-119.2134886
11
185.2880167
21
-111.2686549
0
LINE
8
0
10
185.2880167
20
-111.2686549
11
177.7971735
21
-125.9702626
0
ENDSEC
0
EOF