0
SECTION
2
HEADER
9
$INSUNITS
70
4
0
ENDSEC
0
SECTION
2
TABLES
0
TABLE
2
LTYPE
0
LTYPE
72
65
70
64
2
CONTINUOUS
3
______
73
0
40
0
0
ENDTAB
0
TABLE
2
LAYER
0
ENDTAB
0
ENDSEC
0
SECTION
2
ENTITIES
0
CIRCLE
8
0
10
109.25
20
-57.5
40
1
0
CIRCLE
8
0
10
109.25
20
-92.5
40
1
0
CIRCLE
8
0
10
164.75
20
-59.95
40
1
0
CIRCLE
8
0
10
164.75
20
-94.95
40
1
0
CIRCLE
8
0
10
180.1825857
20
-117.9102635
40
1
0
LINE
8
0
10
93.05
20
-106.95
11
106.95
21
-106.95
0
LINE
8
0
10
106.95
20
-106.95
11
106.95
21
-93.05
0
LINE
8
0
10
106.95
20
-93.05
11
93.05
21
-93.05
0
LINE
8
0
10
93.05
20
-93.05
11
93.05
21
-106.95
0
LINE
8
0
10
93.05
20
-89.45
11
106.95
21
-89.45
0
LINE
8
0
10
106.95
20
-89.45
11
106.95
21
-75.55
0
LINE
8
0
10
106.95
20
-75.55
11
93.05
21
-75.55
0
LINE
8
0
10
93.05
20
-75.55
11
93.05
21
-89.45
0
LINE
8
0
10
93.05
20
-71.95
11
106.95
21
-71.95
0
LINE
8
0
10
106.95
20
-71.95
11
106.95
21
-58.05
0
LINE
8
0
10
106.95
20
-58.05
11
93.05
21
-58.05
0
LINE
8
0
10
93.05
20
-58.05
11
93.05
21
-71.95
0
LINE
8
0
10
111.55
20
-95.7
11
125.45
21
-95.7
0
LINE
8
0
10
125.45
20
-95.7
11
125.45
21
-81.8
0
LINE
8
0
10
125.45
20
-81.8
11
111.55
21
-81.8
0
LINE
8
0
10
111.55
20
-81.8
11
111.55
21
-95.7
0
LINE
8
0
10
111.55
20
-78.2
11
125.45
21
-78.2
0
LINE
8
0
10
125.45
20
-78.2
11
125.45
21
-64.3
0
LINE
8
0
10
125.45
20
-64.3
11
111.55
21
-64.3
0
LINE
8
0
10
111.55
20
-64.3
11
111.55
21
-78.2
0
LINE
8
0
10
111.55
20
-60.7
11
125.45
21
-60.7
0
LINE
8
0
10
125.45
20
-60.7
11
125.45
21
-46.8
0
LINE
8
0
10
125.45
20
-46.8
11
111.55
21
-46.8
0
LINE
8
0
10
111.55
20
-46.8
11
111.55
21
-60.7
0
LINE
8
0
10
130.05
20
-89.7
11
143.95
21
-89.7
0
LINE
8
0
10
143.95
20
-89.7
11
143.95
21
-75.8
0
LINE
8
0
10
143.95
20
-75.8
11
130.05
21
-75.8
0
LINE
8
0
10
130.05
20
-75.8
11
130.05
21
-89.7
0
LINE
8
0
10
130.05
20
-72.2
11
143.95
21
-72.2
0
LINE
8
0
10
143.95
20
-72.2
11
143.95
21
-58.3
0
LINE
8
0
10
143.95
20
-58.3
11
130.05
21
-58.3
0
LINE
8
0
10
130.05
20
-58.3
11
130.05
21
-72.2
0
LINE
8
0
10
130.05
20
-54.7
11
143.95
21
-54.7
0
LINE
8
0
10
143.95
20
-54.7
11
143.95
21
-40.8
0
LINE
8
0
10
143.95
20
-40.8
11
130.05
21
-40.8
0
LINE
8
0
10
130.05
20
-40.8
11
130.05
21
-54.7
0
LINE
8
0
10
148.55
20
-96.9
11
162.45
21
-96.9
0
LINE
8
0
10
162.45
20
-96.9
11
162.45
21
-83
0
LINE
8
0
10
162.45
20
-83
11
148.55
21
-83
0
LINE
8
0
10
148.55
20
-83
11
148.55
21
-96.9
0
LINE
8
0
10
148.55
20
-79.4
11
162.45
21
-79.4
0
LINE
8
0
10
162.45
20
-79.4
11
162.45
21
-65.5
0
LINE
8
0
10
162.45
20
-65.5
11
148.55
21
-65.5
0
LINE
8
0
10
148.55
20
-65.5
11
148.55
21
-79.4
0
LINE
8
0
10
148.55
20
-61.9
11
162.45
21
-61.9
0
LINE
8
0
10
162.45
20
-61.9
11
162.45
21
-48
0
LINE
8
0
10
162.45
20
-48
11
148.55
21
-48
0
LINE
8
0
10
148.55
20
-48
11
148.55
21
-61.9
0
LINE
8
0
10
167.05
20
-99.9
11
180.95
21
-99.9
0
LINE
8
0
10
180.95
20
-99.9
11
180.95
21
-86
0
LINE
8
0
10
180.95
20
-86
11
167.05
21
-86
0
LINE
8
0
10
167.05
20
-86
11
167.05
21
-99.9
0
LINE
8
0
10
167.05
20
-82.4
11
180.95
21
-82.4
0
LINE
8
0
10
180.95
20
-82.4
11
180.95
21
-68.5
0
LINE
8
0
10
180.95
20
-68.5
11
167.05
21
-68.5
0
LINE
8
0
10
167.05
20
-68.5
11
167.05
21
-82.4
0
LINE
8
0
10
167.05
20
-64.9
11
180.95
21
-64.9
0
LINE
8
0
10
180.95
20
-64.9
11
180.95
21
-51
0
LINE
8
0
10
180.95
20
-51
11
167.05
21
-51
0
LINE
8
0
10
167.05
20
-51
11
167.05
21
-64.9
0
LINE
8
0
10
161.8216986
20
-119.5643347
11
175.1143347
21
-123.6283014
0
LINE
8
0
10
175.1143347
20
-123.6283014
11
179.1783014
21
-110.3356653
0
LINE
8
0
10
179.1783014
20
-110.3356653
11
165.8856653
21
-106.2716986
0
LINE
8
0
10
165.8856653
20
-106.2716986
11
161.8216986
21
-119.5643347
0
LINE
8
0
10
179.9911729
20
-125.629137
11
192.3761636
21
-131.9396049
0
LINE
8
0
10
192.3761636
20
-131.9396049
11
198.6866315
21
-119.5546142
0
LINE
8
0
10
198.6866315
20
-119.5546142
11
186.3016408
21
-113.2441463
0
LINE
8
0
10
186.3016408
20
-113.2441463
11
179.9911729
21
-125.629137
0
LINE
8
0
10
188.25
20
-91.7
11
199.05
21
-91.7
0
LINE
8
0
10
199.05
20
-91.7
11
199.05
21
-66.4
0
LINE
8
0
10
199.05
20
-66.4
11
188.25
21
-66.4
0
LINE
8
0
10
188.25
20
-66.4
11
188.25
21
-91.7
0
ENDSEC
0
EOF