0
SECTION
2
HEADER
9
$INSUNITS
70
4
0
ENDSEC
0
SECTION
2
TABLES
0
TABLE
2
LTYPE
0
LTYPE
72
65
70
64
2
CONTINUOUS
3
______
73
0
40
0
0
ENDTAB
0
TABLE
2
LAYER
0
ENDTAB
0
ENDSEC
0
SECTION
2
ENTITIES
0
LINE
8
0
10
188
20
-55.3
11
200.55
21
-55.3
0
LINE
8
0
10
203.55
20
-58.3
11
203.55
21
-115.55
0
LINE
8
0
10
203.55
20
-115.55
11
203.3893892
21
-116.712831
0
ARC
8
0
10
92.55
20
-108.1365684
40
3
50
231.9813703
51
254.1279002
0
ARC
8
0
10
188
20
-52.3
40
3
50
190.4753137
51
270
0
ARC
8
0
10
200.55
20
-58.3
40
3
50
0
51
90
0
ARC
8
0
10
192.9494144
20
-132.3092432
40
3
50
261.9307273
51
280.1571907
0
LINE
8
0
10
185.05
20
-52.8454356
11
185.05
21
-48.1550902
0
ARC
8
0
10
152
20
-132.5
40
100
50
106.2038263
51
115.8419328
0
ARC
8
0
10
152
20
-132.5
40
100
50
116.4233388
51
127.7985167
0
ARC
8
0
10
135.439
20
-160.9
40
125
50
67.5388203
51
84.2327276
0
ARC
8
0
10
135.439
20
-160.9
40
125
50
84.3839351
51
94.9407707
0
ARC
8
0
10
88.5
20
-346
40
235
50
63.7254058
51
71.2884995
0
ARC
8
0
10
88.5
20
-346
40
235
50
73.9998132
51
89.2125782
0
ARC
8
0
10
92.55
20
-55.8534247
40
3
50
127.7985167
51
153.1830507
0
ARC
8
0
10
124.9316422
20
-39.3533199
40
3
50
94.9407707
51
106.2038263
0
ARC
8
0
10
182.05
20
-48.1550902
40
3
50
0
51
10.4753137
0
ARC
8
0
10
182.05
20
-48.1550902
40
3
50
62.2552215
51
67.5388203
0
LINE
8
0
10
90.702247
20
-110.5
11
111
21
-110.5
0
LINE
8
0
10
111
20
-110.5
11
111
21
-103
0
LINE
8
0
10
121
20
-98.5
11
121
21
-103
0
LINE
8
0
10
121
20
-103
11
111
21
-103
0
LINE
8
0
10
97.5
20
-54.5
11
89.8726428
21
-54.5
0
LINE
8
0
10
121
20
-98.5
11
129.5
21
-98.5
0
LINE
8
0
10
129.5
20
-98.5
11
129.5
21
-92.5
0
LINE
8
0
10
97.5
20
-50
11
107.5
21
-50
0
LINE
8
0
10
97.5
20
-54.5
11
97.5
21
-50
0
LINE
8
0
10
108.4110105
20
-42.5
11
126
21
-42.5
0
LINE
8
0
10
107.4999999
20
-42.9469431
11
107.5
21
-50
0
LINE
8
0
10
129.5
20
-92.5
11
144.5
21
-92.5
0
LINE
8
0
10
148
20
-42.5
11
148.0000001
21
-36.5327162
0
LINE
8
0
10
147.6717429
20
-36.5
11
126
21
-36.5
0
LINE
8
0
10
126
20
-36.5
11
126
21
-42.5
0
LINE
8
0
10
144.5
20
-98.5
11
163
21
-98.5
0
LINE
8
0
10
144.5
20
-92.5
11
144.5
21
-98.5
0
LINE
8
0
10
166.5
20
-45.5
11
166.5
21
-42.5
0
LINE
8
0
10
148
20
-42.5
11
166.5
21
-42.5
0
LINE
8
0
10
163.2172878
20
-101.5
11
185
21
-101.5
0
LINE
8
0
10
185
20
-101.5
11
185
21
-47.6096546
0
LINE
8
0
10
163
20
-98.5
11
163
21
-101.4417779
0
LINE
8
0
10
166.5
20
-45.5
11
183.4466016
21
-45.5
0
LINE
8
0
10
163.8887308
20
-123.4207124
11
174.4075841
21
-126.2392307
0
LINE
8
0
10
174.4075841
20
-126.2392307
11
179.8427841
21
-105.9547883
0
LINE
8
0
10
179.8427841
20
-105.9547883
11
163.2172878
21
-101.5
0
LINE
8
0
10
163
20
-101.4417779
11
158.5924159
21
-100.2607693
0
LINE
8
0
10
158.5924159
20
-100.2607693
11
153.2755151
21
-120.1037126
0
LINE
8
0
10
174.6929996
20
-126.5024211
11
193.4784624
21
-135.2622261
0
LINE
8
0
10
203.3893892
20
-116.712831
11
183.5679831
21
-107.4699576
0
LINE
8
0
10
183.5679831
20
-107.4699576
11
174.6929996
21
-126.5024211
0
LINE
8
0
10
91.25
20
-108.25
11
108.75
21
-108.25
0
LINE
8
0
10
108.75
20
-108.25
11
108.75
21
-91.75
0
LINE
8
0
10
108.75
20
-91.75
11
91.25
21
-91.75
0
LINE
8
0
10
91.25
20
-91.75
11
91.25
21
-108.25
0
LINE
8
0
10
91.25
20
-90.75
11
108.75
21
-90.75
0
LINE
8
0
10
108.75
20
-90.75
11
108.75
21
-74.25
0
LINE
8
0
10
108.75
20
-74.25
11
91.25
21
-74.25
0
LINE
8
0
10
91.25
20
-74.25
11
91.25
21
-90.75
0
LINE
8
0
10
91.25
20
-73.25
11
108.75
21
-73.25
0
LINE
8
0
10
108.75
20
-73.25
11
108.75
21
-56.75
0
LINE
8
0
10
108.75
20
-56.75
11
91.25
21
-56.75
0
LINE
8
0
10
91.25
20
-56.75
11
91.25
21
-73.25
0
LINE
8
0
10
109.75
20
-96.25
11
127.25
21
-96.25
0
LINE
8
0
10
127.25
20
-96.25
11
127.25
21
-79.75
0
LINE
8
0
10
127.25
20
-79.75
11
109.75
21
-79.75
0
LINE
8
0
10
109.75
20
-79.75
11
109.75
21
-96.25
0
LINE
8
0
10
109.75
20
-78.75
11
127.25
21
-78.75
0
LINE
8
0
10
127.25
20
-78.75
11
127.25
21
-62.25
0
LINE
8
0
10
127.25
20
-62.25
11
109.75
21
-62.25
0
LINE
8
0
10
109.75
20
-62.25
11
109.75
21
-78.75
0
LINE
8
0
10
109.75
20
-61.25
11
127.25
21
-61.25
0
LINE
8
0
10
127.25
20
-61.25
11
127.25
21
-44.75
0
LINE
8
0
10
127.25
20
-44.75
11
109.75
21
-44.75
0
LINE
8
0
10
109.75
20
-44.75
11
109.75
21
-61.25
0
LINE
8
0
10
128.25
20
-90.25
11
145.75
21
-90.25
0
LINE
8
0
10
145.75
20
-90.25
11
145.75
21
-73.75
0
LINE
8
0
10
145.75
20
-73.75
11
128.25
21
-73.75
0
LINE
8
0
10
128.25
20
-73.75
11
128.25
21
-90.25
0
LINE
8
0
10
128.25
20
-72.75
11
145.75
21
-72.75
0
LINE
8
0
10
145.75
20
-72.75
11
145.75
21
-56.25
0
LINE
8
0
10
145.75
20
-56.25
11
128.25
21
-56.25
0
LINE
8
0
10
128.25
20
-56.25
11
128.25
21
-72.75
0
LINE
8
0
10
128.25
20
-55.25
11
145.75
21
-55.25
0
LINE
8
0
10
145.75
20
-55.25
11
145.75
21
-38.75
0
LINE
8
0
10
145.75
20
-38.75
11
128.25
21
-38.75
0
LINE
8
0
10
128.25
20
-38.75
11
128.25
21
-55.25
0
LINE
8
0
10
146.75
20
-96.25
11
164.25
21
-96.25
0
LINE
8
0
10
164.25
20
-96.25
11
164.25
21
-79.75
0
LINE
8
0
10
164.25
20
-79.75
11
146.75
21
-79.75
0
LINE
8
0
10
146.75
20
-79.75
11
146.75
21
-96.25
0
LINE
8
0
10
146.75
20
-78.75
11
164.25
21
-78.75
0
LINE
8
0
10
164.25
20
-78.75
11
164.25
21
-62.25
0
LINE
8
0
10
164.25
20
-62.25
11
146.75
21
-62.25
0
LINE
8
0
10
146.75
20
-62.25
11
146.75
21
-78.75
0
LINE
8
0
10
146.75
20
-61.25
11
164.25
21
-61.25
0
LINE
8
0
10
164.25
20
-61.25
11
164.25
21
-44.75
0
LINE
8
0
10
164.25
20
-44.75
11
146.75
21
-44.75
0
LINE
8
0
10
146.75
20
-44.75
11
146.75
21
-61.25
0
LINE
8
0
10
165.25
20
-99.25
11
182.75
21
-99.25
0
LINE
8
0
10
182.75
20
-99.25
11
182.75
21
-82.75
0
LINE
8
0
10
182.75
20
-82.75
11
165.25
21
-82.75
0
LINE
8
0
10
165.25
20
-82.75
11
165.25
21
-99.25
0
LINE
8
0
10
165.25
20
-81.75
11
182.75
21
-81.75
0
LINE
8
0
10
182.75
20
-81.75
11
182.75
21
-65.25
0
LINE
8
0
10
182.75
20
-65.25
11
165.25
21
-65.25
0
LINE
8
0
10
165.25
20
-65.25
11
165.25
21
-81.75
0
LINE
8
0
10
165.25
20
-64.25
11
182.75
21
-64.25
0
LINE
8
0
10
182.75
20
-64.25
11
182.75
21
-47.75
0
LINE
8
0
10
182.75
20
-47.75
11
165.25
21
-47.75
0
LINE
8
0
10
165.25
20
-47.75
11
165.25
21
-64.25
0
LINE
8
0
10
155.9128919
20
-118.9542214
11
172.8165939
21
-123.4835547
0
LINE
8
0
10
172.8165939
20
-123.4835547
11
177.0871081
21
-107.5457786
0
LINE
8
0
10
177.0871081
20
-107.5457786
11
160.1834061
21
-103.0164453
0
LINE
8
0
10
160.1834061
20
-103.0164453
11
155.9128919
21
-118.9542214
0
LINE
8
0
10
177.6830832
20
-125.4141197
11
193.5434695
21
-132.8099392
0
LINE
8
0
10
193.5434695
20
-132.8099392
11
200.5166708
21
-117.8558607
0
LINE
8
0
10
200.5166708
20
-117.8558607
11
184.6562845
21
-110.4600412
0
LINE
8
0
10
184.6562845
20
-110.4600412
11
177.6830832
21
-125.4141197
0
ENDSEC
0
EOF