0
SECTION
2
HEADER
9
$INSUNITS
70
4
0
ENDSEC
0
SECTION
2
TABLES
0
TABLE
2
LTYPE
0
LTYPE
72
65
70
64
2
CONTINUOUS
3
______
73
0
40
0
0
ENDTAB
0
TABLE
2
LAYER
0
ENDTAB
0
ENDSEC
0
SECTION
2
ENTITIES
0
LINE
8
0
10
188
20
-57.05
11
200.5538686
21
-57.05
0
LINE
8
0
10
203.5538661
20
-60.0461291
11
203.6285211
21
-117.9026051
0
ARC
8
0
10
92.55
20
-108.1614026
40
3
50
231.2177879
51
252.4028305
0
ARC
8
0
10
188
20
-54.05
40
3
50
190.4753137
51
270
0
ARC
8
0
10
200.5538686
20
-60.05
40
3
50
0.0739288
51
90
0
ARC
8
0
10
200.6285236
20
-117.906476
40
3
50
357.5672619
51
0.0739288
0
LINE
8
0
10
185.05
20
-54.5954356
11
185.05
21
-48.9050902
0
ARC
8
0
10
152
20
-133.25
40
100
50
106.2038263
51
115.8419328
0
ARC
8
0
10
152
20
-133.25
40
100
50
116.4233388
51
127.7985167
0
ARC
8
0
10
135.439
20
-161.65
40
125
50
67.5388203
51
84.2327276
0
ARC
8
0
10
135.439
20
-161.65
40
125
50
84.3839351
51
94.9407707
0
ARC
8
0
10
88.5
20
-346
40
235
50
72.9864029
51
89.2336689
0
ARC
8
0
10
88.5
20
-346
40
235
50
67.1447618
51
69.2140901
0
ARC
8
0
10
92.55
20
-56.6034247
40
3
50
127.7985167
51
135.4813364
0
ARC
8
0
10
124.9316422
20
-40.1033199
40
3
50
94.9407707
51
106.2038263
0
ARC
8
0
10
182.05
20
-48.9050902
40
3
50
0
51
10.4753137
0
ARC
8
0
10
182.05
20
-48.9050902
40
3
50
29.0144426
51
67.5388203
0
LINE
8
0
10
90.6709145
20
-110.5
11
111
21
-110.5
0
LINE
8
0
10
111
20
-110.5
11
111
21
-103
0
LINE
8
0
10
121
20
-99.25
11
121
21
-103
0
LINE
8
0
10
121
20
-103
11
111
21
-103
0
LINE
8
0
10
97.5
20
-54.5
11
90.4109337
21
-54.5
0
LINE
8
0
10
121
20
-99.25
11
129.5
21
-99.25
0
LINE
8
0
10
129.5
20
-99.25
11
129.5
21
-93.25
0
LINE
8
0
10
97.5
20
-50.75
11
107.5
21
-50.75
0
LINE
8
0
10
97.5
20
-54.5
11
97.5
21
-50.75
0
LINE
8
0
10
108.4110105
20
-43.25
11
126
21
-43.25
0
LINE
8
0
10
107.4999999
20
-43.6969431
11
107.5
21
-50.75
0
LINE
8
0
10
129.5
20
-93.25
11
144.5
21
-93.25
0
LINE
8
0
10
148
20
-44.45
11
148.0000001
21
-37.2827162
0
LINE
8
0
10
147.6717429
20
-37.25
11
126
21
-37.25
0
LINE
8
0
10
126
20
-37.25
11
126
21
-43.25
0
LINE
8
0
10
144.5
20
-100.45
11
163
21
-100.45
0
LINE
8
0
10
144.5
20
-93.25
11
144.5
21
-100.45
0
LINE
8
0
10
166.5
20
-47.45
11
166.5
21
-44.45
0
LINE
8
0
10
148
20
-44.45
11
166.5
21
-44.45
0
LINE
8
0
10
168.9983829
20
-103.45
11
185
21
-103.45
0
LINE
8
0
10
185
20
-103.45
11
185
21
-48.3596546
0
LINE
8
0
10
163
20
-100.45
11
163
21
-102.5122254
0
LINE
8
0
10
166.5
20
-47.45
11
184.6734924
21
-47.45
0
LINE
8
0
10
171.8961092
20
-126.2954507
11
176.1154483
21
-127.5854322
0
LINE
8
0
10
184.2743215
20
-108.1737347
11
184.2892552
21
-108.1248888
0
LINE
8
0
10
184.2892552
20
-108.1248888
11
168.9983829
21
-103.45
0
LINE
8
0
10
163
20
-102.5122254
11
157.2606807
21
-121.2846939
0
LINE
8
0
10
176.1154483
20
-127.5854322
11
179.7749785
21
-129.4500559
0
LINE
8
0
10
203.6258198
20
-118.0338156
11
184.2743215
21
-108.1737347
0
LINE
8
0
10
91.25
20
-108.25
11
108.75
21
-108.25
0
LINE
8
0
10
108.75
20
-108.25
11
108.75
21
-91.75
0
LINE
8
0
10
108.75
20
-91.75
11
91.25
21
-91.75
0
LINE
8
0
10
91.25
20
-91.75
11
91.25
21
-108.25
0
LINE
8
0
10
91.25
20
-90.75
11
108.75
21
-90.75
0
LINE
8
0
10
108.75
20
-90.75
11
108.75
21
-74.25
0
LINE
8
0
10
108.75
20
-74.25
11
91.25
21
-74.25
0
LINE
8
0
10
91.25
20
-74.25
11
91.25
21
-90.75
0
LINE
8
0
10
91.25
20
-73.25
11
108.75
21
-73.25
0
LINE
8
0
10
108.75
20
-73.25
11
108.75
21
-56.75
0
LINE
8
0
10
108.75
20
-56.75
11
91.25
21
-56.75
0
LINE
8
0
10
91.25
20
-56.75
11
91.25
21
-73.25
0
LINE
8
0
10
109.75
20
-97
11
127.25
21
-97
0
LINE
8
0
10
127.25
20
-97
11
127.25
21
-80.5
0
LINE
8
0
10
127.25
20
-80.5
11
109.75
21
-80.5
0
LINE
8
0
10
109.75
20
-80.5
11
109.75
21
-97
0
LINE
8
0
10
109.75
20
-79.5
11
127.25
21
-79.5
0
LINE
8
0
10
127.25
20
-79.5
11
127.25
21
-63
0
LINE
8
0
10
127.25
20
-63
11
109.75
21
-63
0
LINE
8
0
10
109.75
20
-63
11
109.75
21
-79.5
0
LINE
8
0
10
109.75
20
-62
11
127.25
21
-62
0
LINE
8
0
10
127.25
20
-62
11
127.25
21
-45.5
0
LINE
8
0
10
127.25
20
-45.5
11
109.75
21
-45.5
0
LINE
8
0
10
109.75
20
-45.5
11
109.75
21
-62
0
LINE
8
0
10
128.25
20
-91
11
145.75
21
-91
0
LINE
8
0
10
145.75
20
-91
11
145.75
21
-74.5
0
LINE
8
0
10
145.75
20
-74.5
11
128.25
21
-74.5
0
LINE
8
0
10
128.25
20
-74.5
11
128.25
21
-91
0
LINE
8
0
10
128.25
20
-73.5
11
145.75
21
-73.5
0
LINE
8
0
10
145.75
20
-73.5
11
145.75
21
-57
0
LINE
8
0
10
145.75
20
-57
11
128.25
21
-57
0
LINE
8
0
10
128.25
20
-57
11
128.25
21
-73.5
0
LINE
8
0
10
128.25
20
-56
11
145.75
21
-56
0
LINE
8
0
10
145.75
20
-56
11
145.75
21
-39.5
0
LINE
8
0
10
145.75
20
-39.5
11
128.25
21
-39.5
0
LINE
8
0
10
128.25
20
-39.5
11
128.25
21
-56
0
LINE
8
0
10
146.75
20
-98.2
11
164.25
21
-98.2
0
LINE
8
0
10
164.25
20
-98.2
11
164.25
21
-81.7
0
LINE
8
0
10
164.25
20
-81.7
11
146.75
21
-81.7
0
LINE
8
0
10
146.75
20
-81.7
11
146.75
21
-98.2
0
LINE
8
0
10
146.75
20
-80.7
11
164.25
21
-80.7
0
LINE
8
0
10
164.25
20
-80.7
11
164.25
21
-64.2
0
LINE
8
0
10
164.25
20
-64.2
11
146.75
21
-64.2
0
LINE
8
0
10
146.75
20
-64.2
11
146.75
21
-80.7
0
LINE
8
0
10
146.75
20
-63.2
11
164.25
21
-63.2
0
LINE
8
0
10
164.25
20
-63.2
11
164.25
21
-46.7
0
LINE
8
0
10
164.25
20
-46.7
11
146.75
21
-46.7
0
LINE
8
0
10
146.75
20
-46.7
11
146.75
21
-63.2
0
LINE
8
0
10
165.25
20
-101.2
11
182.75
21
-101.2
0
LINE
8
0
10
182.75
20
-101.2
11
182.75
21
-84.7
0
LINE
8
0
10
182.75
20
-84.7
11
165.25
21
-84.7
0
LINE
8
0
10
165.25
20
-84.7
11
165.25
21
-101.2
0
LINE
8
0
10
165.25
20
-83.7
11
182.75
21
-83.7
0
LINE
8
0
10
182.75
20
-83.7
11
182.75
21
-67.2
0
LINE
8
0
10
182.75
20
-67.2
11
165.25
21
-67.2
0
LINE
8
0
10
165.25
20
-67.2
11
165.25
21
-83.7
0
LINE
8
0
10
165.25
20
-66.2
11
182.75
21
-66.2
0
LINE
8
0
10
182.75
20
-66.2
11
182.75
21
-49.7
0
LINE
8
0
10
182.75
20
-49.7
11
165.25
21
-49.7
0
LINE
8
0
10
165.25
20
-49.7
11
165.25
21
-66.2
0
LINE
8
0
10
159.9202668
20
-120.2812618
11
176.6556001
21
-125.3977667
0
LINE
8
0
10
176.6556001
20
-125.3977667
11
181.4797332
21
-109.6187382
0
LINE
8
0
10
181.4797332
20
-109.6187382
11
164.7443999
21
-104.5022333
0
LINE
8
0
10
164.7443999
20
-104.5022333
11
159.9202668
21
-120.2812618
0
LINE
8
0
10
177.7580974
20
-125.8971697
11
193.3507116
21
-133.8420034
0
LINE
8
0
10
193.3507116
20
-133.8420034
11
200.8415548
21
-119.1403957
0
LINE
8
0
10
200.8415548
20
-119.1403957
11
185.2489406
21
-111.195562
0
LINE
8
0
10
185.2489406
20
-111.195562
11
177.7580974
21
-125.8971697
0
ENDSEC
0
EOF