0
SECTION
2
HEADER
9
$INSUNITS
70
4
0
ENDSEC
0
SECTION
2
TABLES
0
TABLE
2
LTYPE
0
LTYPE
72
65
70
64
2
CONTINUOUS
3
______
73
0
40
0
0
ENDTAB
0
TABLE
2
LAYER
0
ENDTAB
0
ENDSEC
0
SECTION
2
ENTITIES
0
LINE
8
0
10
192.2493903
20
-135.2294153
11
191.8009056
21
-135.1219981
0
LINE
8
0
10
92.0335379
20
-111.2265672
11
91.3012289
21
-111.0511708
0
LINE
8
0
10
89
20
-108.1336857
11
89
21
-62.2001513
0
LINE
8
0
10
185
20
-49.8865379
11
185
21
-52.85
0
LINE
8
0
10
188
20
-55.85
11
200.5
21
-55.85
0
LINE
8
0
10
203.5
20
-58.85
11
203.5
21
-90.3496241
0
LINE
8
0
10
203.5000001
20
-90.3503912
11
203.5065842
21
-116.1020728
0
LINE
8
0
10
203.2255077
20
-117.3706948
11
195.6670847
21
-133.5797851
0
ARC
8
0
10
92
20
-108.1336857
40
3
50
180
51
256.5307363
0
ARC
8
0
10
92
20
-62.2001513
40
3
50
171.8903852
51
180
0
ARC
8
0
10
182
20
-49.8865379
40
3
50
0
51
8.1096148
0
ARC
8
0
10
188
20
-52.85
40
3
50
180
51
270
0
ARC
8
0
10
200.5
20
-58.85
40
3
50
0
51
90
0
ARC
8
0
10
206.5
20
-90.3496241
40
3
50
180
51
180.0146505
0
ARC
8
0
10
200.5065843
20
-116.1028399
40
3
50
334.9999983
51
0.0146505
0
ARC
8
0
10
192.9481614
20
-132.3119302
40
3
50
256.5307363
51
334.9999983
0
LINE
8
0
10
184.97
20
-49.4633358
11
184.97
21
-48.2894697
0
LINE
8
0
10
89.0300001
20
-56.3811185
11
89.03
21
-61.7769492
0
ARC
8
0
10
152
20
-132.5
40
100
50
106.2184233
51
128.1163915
0
ARC
8
0
10
135.439
20
-160.9
40
125
50
67.6581768
51
94.9291679
0
ARC
8
0
10
88.5
20
-346.2
40
235
50
63.9230205
51
89.1384492
0
ARC
8
0
10
92.2800001
20
-56.3811185
40
3.25
50
128.1163915
51
180
0
ARC
8
0
10
124.9777374
20
-39.6002701
40
3.25
50
94.9291679
51
106.2184233
0
ARC
8
0
10
181.7200001
20
-48.2894697
40
3.25
50
0
51
67.6581768
0
LINE
8
0
10
91.25
20
-108.25
11
108.75
21
-108.25
0
LINE
8
0
10
108.75
20
-108.25
11
108.75
21
-91.75
0
LINE
8
0
10
108.75
20
-91.75
11
91.25
21
-91.75
0
LINE
8
0
10
91.25
20
-91.75
11
91.25
21
-108.25
0
LINE
8
0
10
91.25
20
-90.75
11
108.75
21
-90.75
0
LINE
8
0
10
108.75
20
-90.75
11
108.75
21
-74.25
0
LINE
8
0
10
108.75
20
-74.25
11
91.25
21
-74.25
0
LINE
8
0
10
91.25
20
-74.25
11
91.25
21
-90.75
0
LINE
8
0
10
91.25
20
-73.25
11
108.75
21
-73.25
0
LINE
8
0
10
108.75
20
-73.25
11
108.75
21
-56.75
0
LINE
8
0
10
108.75
20
-56.75
11
91.25
21
-56.75
0
LINE
8
0
10
91.25
20
-56.75
11
91.25
21
-73.25
0
LINE
8
0
10
109.75
20
-96.25
11
127.25
21
-96.25
0
LINE
8
0
10
127.25
20
-96.25
11
127.25
21
-79.75
0
LINE
8
0
10
127.25
20
-79.75
11
109.75
21
-79.75
0
LINE
8
0
10
109.75
20
-79.75
11
109.75
21
-96.25
0
LINE
8
0
10
109.75
20
-78.75
11
127.25
21
-78.75
0
LINE
8
0
10
127.25
20
-78.75
11
127.25
21
-62.25
0
LINE
8
0
10
127.25
20
-62.25
11
109.75
21
-62.25
0
LINE
8
0
10
109.75
20
-62.25
11
109.75
21
-78.75
0
LINE
8
0
10
109.75
20
-61.25
11
127.25
21
-61.25
0
LINE
8
0
10
127.25
20
-61.25
11
127.25
21
-44.75
0
LINE
8
0
10
127.25
20
-44.75
11
109.75
21
-44.75
0
LINE
8
0
10
109.75
20
-44.75
11
109.75
21
-61.25
0
LINE
8
0
10
128.25
20
-90.25
11
145.75
21
-90.25
0
LINE
8
0
10
145.75
20
-90.25
11
145.75
21
-73.75
0
LINE
8
0
10
145.75
20
-73.75
11
128.25
21
-73.75
0
LINE
8
0
10
128.25
20
-73.75
11
128.25
21
-90.25
0
LINE
8
0
10
128.25
20
-72.75
11
145.75
21
-72.75
0
LINE
8
0
10
145.75
20
-72.75
11
145.75
21
-56.25
0
LINE
8
0
10
145.75
20
-56.25
11
128.25
21
-56.25
0
LINE
8
0
10
128.25
20
-56.25
11
128.25
21
-72.75
0
LINE
8
0
10
128.25
20
-55.25
11
145.75
21
-55.25
0
LINE
8
0
10
145.75
20
-55.25
11
145.75
21
-38.75
0
LINE
8
0
10
145.75
20
-38.75
11
128.25
21
-38.75
0
LINE
8
0
10
128.25
20
-38.75
11
128.25
21
-55.25
0
LINE
8
0
10
146.75
20
-96.25
11
164.25
21
-96.25
0
LINE
8
0
10
164.25
20
-96.25
11
164.25
21
-79.75
0
LINE
8
0
10
164.25
20
-79.75
11
146.75
21
-79.75
0
LINE
8
0
10
146.75
20
-79.75
11
146.75
21
-96.25
0
LINE
8
0
10
146.75
20
-78.75
11
164.25
21
-78.75
0
LINE
8
0
10
164.25
20
-78.75
11
164.25
21
-62.25
0
LINE
8
0
10
164.25
20
-62.25
11
146.75
21
-62.25
0
LINE
8
0
10
146.75
20
-62.25
11
146.75
21
-78.75
0
LINE
8
0
10
146.75
20
-61.25
11
164.25
21
-61.25
0
LINE
8
0
10
164.25
20
-61.25
11
164.25
21
-44.75
0
LINE
8
0
10
164.25
20
-44.75
11
146.75
21
-44.75
0
LINE
8
0
10
146.75
20
-44.75
11
146.75
21
-61.25
0
LINE
8
0
10
165.25
20
-99.25
11
182.75
21
-99.25
0
LINE
8
0
10
182.75
20
-99.25
11
182.75
21
-82.75
0
LINE
8
0
10
182.75
20
-82.75
11
165.25
21
-82.75
0
LINE
8
0
10
165.25
20
-82.75
11
165.25
21
-99.25
0
LINE
8
0
10
165.25
20
-81.75
11
182.75
21
-81.75
0
LINE
8
0
10
182.75
20
-81.75
11
182.75
21
-65.25
0
LINE
8
0
10
182.75
20
-65.25
11
165.25
21
-65.25
0
LINE
8
0
10
165.25
20
-65.25
11
165.25
21
-81.75
0
LINE
8
0
10
165.25
20
-64.25
11
182.75
21
-64.25
0
LINE
8
0
10
182.75
20
-64.25
11
182.75
21
-47.75
0
LINE
8
0
10
182.75
20
-47.75
11
165.25
21
-47.75
0
LINE
8
0
10
165.25
20
-47.75
11
165.25
21
-64.25
0
LINE
8
0
10
155.9128919
20
-118.9542214
11
172.8165939
21
-123.4835547
0
LINE
8
0
10
172.8165939
20
-123.4835547
11
177.0871081
21
-107.5457786
0
LINE
8
0
10
177.0871081
20
-107.5457786
11
160.1834061
21
-103.0164453
0
LINE
8
0
10
160.1834061
20
-103.0164453
11
155.9128919
21
-118.9542214
0
LINE
8
0
10
177.6830832
20
-125.4141197
11
193.5434695
21
-132.8099392
0
LINE
8
0
10
193.5434695
20
-132.8099392
11
200.5166708
21
-117.8558607
0
LINE
8
0
10
200.5166708
20
-117.8558607
11
184.6562845
21
-110.4600412
0
LINE
8
0
10
184.6562845
20
-110.4600412
11
177.6830832
21
-125.4141197
0
ENDSEC
0
EOF