0
SECTION
2
HEADER
9
$INSUNITS
70
4
0
ENDSEC
0
SECTION
2
TABLES
0
TABLE
2
LTYPE
0
LTYPE
72
65
70
64
2
CONTINUOUS
3
______
73
0
40
0
0
ENDTAB
0
TABLE
2
LAYER
0
ENDTAB
0
ENDSEC
0
SECTION
2
ENTITIES
0
LINE
8
0
10
191.114193
20
-135.494096
11
161.6190943
21
-123.153452
0
LINE
8
0
10
157.248425
20
-121.3247795
11
113.4507774
21
-103
0
LINE
8
0
10
102.4209677
20
-50.75
11
107.5
21
-46.8038847
0
LINE
8
0
10
91.25
20
-59.429198
11
94.6983871
21
-56.75
0
LINE
8
0
10
115.6666667
20
-43.25
11
126
21
-39.8986486
0
LINE
8
0
10
148
20
-40.526044
11
154.1501895
21
-44.45
0
LINE
8
0
10
157.6767137
20
-46.7
11
164.25
21
-50.8939011
0
LINE
8
0
10
173.7979676
20
-56.9857143
11
176.3663448
21
-58.6243954
0
LINE
8
0
10
180.4612115
20
-58.3859261
11
182
21
-57.1307143
0
LINE
8
0
10
182
20
-57.1307143
11
182.75
21
-57.1307143
0
LINE
8
0
10
185
20
-57.1307143
11
200.0282364
21
-57.1307143
0
LINE
8
0
10
203.5281692
20
-60.6524101
11
203.1739325
21
-117.7970262
0
ARC
8
0
10
178.2488905
20
-55.6737985
40
3.5
50
237.4612295
51
309.2046133
0
ARC
8
0
10
200.0282364
20
-60.6307143
40
3.5
50
359.6448327
51
90
0
ARC
8
0
10
192.4651041
20
-132.2653131
40
3.5
50
247.2957419
51
264.9206759
0
LINE
8
0
10
121
20
-99.25
11
121
21
-103
0
LINE
8
0
10
113.4507774
20
-103
11
121
21
-103
0
LINE
8
0
10
121
20
-99.25
11
129.5
21
-99.25
0
LINE
8
0
10
129.5
20
-99.25
11
129.5
21
-93.25
0
LINE
8
0
10
102.4209677
20
-50.75
11
107.5
21
-50.75
0
LINE
8
0
10
115.6666667
20
-43.25
11
126
21
-43.25
0
LINE
8
0
10
107.5
20
-46.8038847
11
107.5
21
-50.75
0
LINE
8
0
10
129.5
20
-93.25
11
144.5
21
-93.25
0
LINE
8
0
10
148
20
-44.45
11
148
21
-40.526044
0
LINE
8
0
10
126
20
-39.8986486
11
126
21
-43.25
0
LINE
8
0
10
144.5
20
-100.45
11
153
21
-100.45
0
LINE
8
0
10
144.5
20
-93.25
11
144.5
21
-100.45
0
LINE
8
0
10
148
20
-44.45
11
154.1501895
21
-44.45
0
LINE
8
0
10
185
20
-103.2357143
11
185
21
-57.1307143
0
LINE
8
0
10
168.297486
20
-103.2357143
11
185
21
-103.2357143
0
LINE
8
0
10
162.7788072
20
-103.2357143
11
153
21
-103.2357143
0
LINE
8
0
10
153
20
-103.2357143
11
153
21
-100.45
0
LINE
8
0
10
161.6190943
20
-123.153452
11
176.1475457
21
-127.5952453
0
LINE
8
0
10
184.2760518
20
-108.1680751
11
184.2892552
21
-108.1248888
0
LINE
8
0
10
184.2892552
20
-108.1248888
11
184.0443337
21
-108.0500088
0
LINE
8
0
10
184.0409151
20
-108.0489636
11
168.297486
21
-103.2357143
0
LINE
8
0
10
162.7788072
20
-103.2357143
11
157.248425
21
-121.3247795
0
LINE
8
0
10
176.1475457
20
-127.5952453
11
192.1552321
21
-135.7515689
0
LINE
8
0
10
203.1739325
20
-117.7970262
11
184.2760518
21
-108.1680751
0
LINE
8
0
10
184.0443337
20
-108.0500088
11
184.0411969
21
-108.0484105
0
LINE
8
0
10
184.0411969
20
-108.0484105
11
184.0409151
21
-108.0489636
0
LINE
8
0
10
91.25
20
-90.75
11
108.75
21
-90.75
0
LINE
8
0
10
108.75
20
-90.75
11
108.75
21
-74.25
0
LINE
8
0
10
108.75
20
-74.25
11
91.25
21
-74.25
0
LINE
8
0
10
91.25
20
-74.25
11
91.25
21
-90.75
0
LINE
8
0
10
91.25
20
-73.25
11
108.75
21
-73.25
0
LINE
8
0
10
108.75
20
-73.25
11
108.75
21
-56.75
0
LINE
8
0
10
108.75
20
-56.75
11
94.6983871
21
-56.75
0
LINE
8
0
10
91.25
20
-59.429198
11
91.25
21
-73.25
0
LINE
8
0
10
109.75
20
-97
11
127.25
21
-97
0
LINE
8
0
10
127.25
20
-97
11
127.25
21
-80.5
0
LINE
8
0
10
127.25
20
-80.5
11
109.75
21
-80.5
0
LINE
8
0
10
109.75
20
-80.5
11
109.75
21
-97
0
LINE
8
0
10
109.75
20
-79.5
11
127.25
21
-79.5
0
LINE
8
0
10
127.25
20
-79.5
11
127.25
21
-63
0
LINE
8
0
10
127.25
20
-63
11
109.75
21
-63
0
LINE
8
0
10
109.75
20
-63
11
109.75
21
-79.5
0
LINE
8
0
10
109.75
20
-62
11
127.25
21
-62
0
LINE
8
0
10
127.25
20
-62
11
127.25
21
-45.5
0
LINE
8
0
10
127.25
20
-45.5
11
109.75
21
-45.5
0
LINE
8
0
10
109.75
20
-45.5
11
109.75
21
-62
0
LINE
8
0
10
128.25
20
-91
11
145.75
21
-91
0
LINE
8
0
10
145.75
20
-91
11
145.75
21
-74.5
0
LINE
8
0
10
145.75
20
-74.5
11
128.25
21
-74.5
0
LINE
8
0
10
128.25
20
-74.5
11
128.25
21
-91
0
LINE
8
0
10
128.25
20
-73.5
11
145.75
21
-73.5
0
LINE
8
0
10
145.75
20
-73.5
11
145.75
21
-57
0
LINE
8
0
10
145.75
20
-57
11
128.25
21
-57
0
LINE
8
0
10
128.25
20
-57
11
128.25
21
-73.5
0
LINE
8
0
10
128.25
20
-56
11
145.75
21
-56
0
LINE
8
0
10
145.75
20
-56
11
145.75
21
-39.5
0
LINE
8
0
10
145.75
20
-39.5
11
128.25
21
-39.5
0
LINE
8
0
10
128.25
20
-39.5
11
128.25
21
-56
0
LINE
8
0
10
146.75
20
-98.2
11
164.25
21
-98.2
0
LINE
8
0
10
164.25
20
-98.2
11
164.25
21
-81.7
0
LINE
8
0
10
164.25
20
-81.7
11
146.75
21
-81.7
0
LINE
8
0
10
146.75
20
-81.7
11
146.75
21
-98.2
0
LINE
8
0
10
146.75
20
-80.7
11
164.25
21
-80.7
0
LINE
8
0
10
164.25
20
-80.7
11
164.25
21
-64.2
0
LINE
8
0
10
164.25
20
-64.2
11
146.75
21
-64.2
0
LINE
8
0
10
146.75
20
-64.2
11
146.75
21
-80.7
0
LINE
8
0
10
146.75
20
-63.2
11
164.25
21
-63.2
0
LINE
8
0
10
164.25
20
-63.2
11
164.25
21
-50.8939011
0
LINE
8
0
10
157.6767137
20
-46.7
11
146.75
21
-46.7
0
LINE
8
0
10
146.75
20
-46.7
11
146.75
21
-63.2
0
LINE
8
0
10
165.25
20
-90.9857143
11
182.75
21
-90.9857143
0
LINE
8
0
10
182.75
20
-90.9857143
11
182.75
21
-74.4857143
0
LINE
8
0
10
182.75
20
-74.4857143
11
165.25
21
-74.4857143
0
LINE
8
0
10
165.25
20
-74.4857143
11
165.25
21
-90.9857143
0
LINE
8
0
10
165.25
20
-73.4857143
11
182.75
21
-73.4857143
0
LINE
8
0
10
182.75
20
-73.4857143
11
182.75
21
-57.1307143
0
LINE
8
0
10
173.7979676
20
-56.9857143
11
165.25
21
-56.9857143
0
LINE
8
0
10
165.25
20
-56.9857143
11
165.25
21
-73.4857143
0
LINE
8
0
10
159.9202668
20
-120.2812618
11
176.6556001
21
-125.3977667
0
LINE
8
0
10
176.6556001
20
-125.3977667
11
181.4797332
21
-109.6187382
0
LINE
8
0
10
181.4797332
20
-109.6187382
11
164.7443999
21
-104.5022333
0
LINE
8
0
10
164.7443999
20
-104.5022333
11
159.9202668
21
-120.2812618
0
LINE
8
0
10
177.5336397
20
-125.7762615
11
193.1262539
21
-133.7210952
0
LINE
8
0
10
193.1262539
20
-133.7210952
11
200.6170971
21
-119.0194875
0
LINE
8
0
10
200.6170971
20
-119.0194875
11
185.0244829
21
-111.0746538
0
LINE
8
0
10
185.0244829
20
-111.0746538
11
177.5336397
21
-125.7762615
0
ENDSEC
0
EOF