<?xml version="1.0" standalone="no"?>
 <!DOCTYPE svg PUBLIC "-//W3C//DTD SVG 1.1//EN" 
 "http://www.w3.org/Graphics/SVG/1.1/DTD/svg11.dtd"> 
<svg
  xmlns:svg="http://www.w3.org/2000/svg"
  xmlns="http://www.w3.org/2000/svg"
  xmlns:xlink="http://www.w3.org/1999/xlink"
  version="1.1"
  width="419.9890mm" height="297.0022mm" viewBox="0.0000 0.0000 419.9890 297.0022">
<title>SVG Image created as snak_final-brd.svg date 2024/02/07 17:10:07 </title>
  <desc>Image generated by PCBNEW </desc>
<g style="fill:#000000; fill-opacity:1.0000;stroke:#000000; stroke-opacity:1.0000;
stroke-linecap:round; stroke-linejoin:round;"
 transform="translate(0 0) scale(1 1)">
</g>
<g style="fill:#000000; fill-opacity:0.0; 
stroke:#000000; stroke-width:0.0000; stroke-opacity:1; 
stroke-linecap:round; stroke-linejoin:round;">
</g>
<g style="fill:#B4DBD2; fill-opacity:0.0; 
stroke:#B4DBD2; stroke-width:0.0000; stroke-opacity:1; 
stroke-linecap:round; stroke-linejoin:round;">
</g>
<g style="fill:#B4DBD2; fill-opacity:0.0; 
stroke:#B4DBD2; stroke-width:0.1500; stroke-opacity:1; 
stroke-linecap:round; stroke-linejoin:round;">
<path d="M143.9500 71.4500
L143.9500 57.5500
" />
<path d="M162.4500 77.4500
L162.4500 63.5500
" />
<path d="M167.0500 80.4500
L180.9500 80.4500
" />
<path d="M111.5500 46.0500
L111.5500 59.9500
" />
<path d="M161.5856 104.7380
L157.9880 118.1644
" />
<path d="M93.0500 75.5500
L93.0500 89.4500
" />
<path d="M180.9500 49.0500
L167.0500 49.0500
" />
<path d="M199.0500 63.3000
L188.2500 63.3000
" />
<path d="M106.9500 89.4500
L106.9500 75.5500
" />
<path d="M130.0500 88.9500
L143.9500 88.9500
" />
<path d="M180.9500 62.9500
L180.9500 49.0500
" />
<path d="M175.0120 108.3356
L161.5856 104.7380
" />
<path d="M167.0500 62.9500
L180.9500 62.9500
" />
<path d="M93.0500 89.4500
L106.9500 89.4500
" />
<path d="M188.2500 88.6000
L199.0500 88.6000
" />
<path d="M125.4500 63.5500
L111.5500 63.5500
" />
<path d="M167.0500 49.0500
L167.0500 62.9500
" />
<path d="M111.5500 81.0500
L111.5500 94.9500
" />
<path d="M148.5500 94.9500
L162.4500 94.9500
" />
<path d="M125.4500 77.4500
L125.4500 63.5500
" />
<path d="M125.4500 81.0500
L111.5500 81.0500
" />
<path d="M111.5500 77.4500
L125.4500 77.4500
" />
<path d="M192.4615 130.8710
L198.3359 118.2733
" />
<circle cx="109.2500" cy="57.5000" r="1.0000" /> 
<path d="M180.9500 84.0500
L167.0500 84.0500
" />
<path d="M162.4500 63.5500
L148.5500 63.5500
" />
<path d="M106.9500 93.0500
L93.0500 93.0500
" />
<path d="M148.5500 46.0500
L148.5500 59.9500
" />
<path d="M130.0500 57.5500
L130.0500 71.4500
" />
<path d="M157.9880 118.1644
L171.4144 121.7620
" />
<path d="M93.0500 58.0500
L93.0500 71.9500
" />
</g>
<g style="fill:#B4DBD2; fill-opacity:0.0; 
stroke:#B4DBD2; stroke-width:0.1000; stroke-opacity:1; 
stroke-linecap:round; stroke-linejoin:round;">
<path d="M188.9000 53.8450
L188.9000 55.3550
" />
</g>
<g style="fill:#B4DBD2; fill-opacity:0.0; 
stroke:#B4DBD2; stroke-width:0.1500; stroke-opacity:1; 
stroke-linecap:round; stroke-linejoin:round;">
<path d="M162.4500 59.9500
L162.4500 46.0500
" />
<path d="M188.2500 63.3000
L188.2500 88.6000
" />
<path d="M171.4144 121.7620
L175.0120 108.3356
" />
<path d="M125.4500 94.9500
L125.4500 81.0500
" />
<path d="M185.7382 112.3990
L179.8638 124.9966
" />
<path d="M167.0500 97.9500
L180.9500 97.9500
" />
<path d="M143.9500 40.0500
L130.0500 40.0500
" />
<path d="M130.0500 75.0500
L130.0500 88.9500
" />
<path d="M125.4500 59.9500
L125.4500 46.0500
" />
<path d="M199.0500 88.6000
L199.0500 63.3000
" />
<path d="M179.8638 124.9966
L192.4615 130.8710
" />
<path d="M143.9500 53.9500
L143.9500 40.0500
" />
<path d="M111.5500 63.5500
L111.5500 77.4500
" />
<path d="M93.0500 71.9500
L106.9500 71.9500
" />
</g>
<g style="fill:#B4DBD2; fill-opacity:0.0; 
stroke:#B4DBD2; stroke-width:0.1000; stroke-opacity:1; 
stroke-linecap:round; stroke-linejoin:round;">
<path d="M96.6400 48.6300
L98.6700 47.3100
" />
</g>
<g style="fill:#B4DBD2; fill-opacity:0.0; 
stroke:#B4DBD2; stroke-width:0.1500; stroke-opacity:1; 
stroke-linecap:round; stroke-linejoin:round;">
<path d="M130.0500 40.0500
L130.0500 53.9500
" />
<path d="M143.9500 88.9500
L143.9500 75.0500
" />
<path d="M180.9500 80.4500
L180.9500 66.5500
" />
<circle cx="164.7500" cy="93.0000" r="1.0000" /> 
</g>
<g style="fill:#B4DBD2; fill-opacity:0.0; 
stroke:#B4DBD2; stroke-width:0.1000; stroke-opacity:1; 
stroke-linecap:round; stroke-linejoin:round;">
<path d="M197.7000 53.8450
L197.7000 55.3550
" />
<path d="M188.9000 55.3550
L197.7000 55.3550
" />
</g>
<g style="fill:#B4DBD2; fill-opacity:0.0; 
stroke:#B4DBD2; stroke-width:0.1500; stroke-opacity:1; 
stroke-linecap:round; stroke-linejoin:round;">
<path d="M167.0500 66.5500
L167.0500 80.4500
" />
<path d="M130.0500 53.9500
L143.9500 53.9500
" />
</g>
<g style="fill:#B4DBD2; fill-opacity:0.0; 
stroke:#B4DBD2; stroke-width:0.1000; stroke-opacity:1; 
stroke-linecap:round; stroke-linejoin:round;">
<path d="M188.9000 53.8450
L197.7000 53.8450
" />
</g>
<g style="fill:#B4DBD2; fill-opacity:0.0; 
stroke:#B4DBD2; stroke-width:0.1500; stroke-opacity:1; 
stroke-linecap:round; stroke-linejoin:round;">
<path d="M162.4500 81.0500
L148.5500 81.0500
" />
<path d="M106.9500 71.9500
L106.9500 58.0500
" />
<path d="M106.9500 106.9500
L106.9500 93.0500
" />
<path d="M148.5500 59.9500
L162.4500 59.9500
" />
<path d="M143.9500 57.5500
L130.0500 57.5500
" />
<path d="M148.5500 81.0500
L148.5500 94.9500
" />
<path d="M180.9500 97.9500
L180.9500 84.0500
" />
</g>
<g style="fill:#B4DBD2; fill-opacity:0.0; 
stroke:#B4DBD2; stroke-width:0.1000; stroke-opacity:1; 
stroke-linecap:round; stroke-linejoin:round;">
<path d="M97.0650 49.2700
L99.0900 47.9500
" />
</g>
<g style="fill:#B4DBD2; fill-opacity:0.0; 
stroke:#B4DBD2; stroke-width:0.1500; stroke-opacity:1; 
stroke-linecap:round; stroke-linejoin:round;">
<circle cx="164.7500" cy="58.0000" r="1.0000" /> 
<path d="M125.4500 46.0500
L111.5500 46.0500
" />
<path d="M143.9500 75.0500
L130.0500 75.0500
" />
<path d="M106.9500 75.5500
L93.0500 75.5500
" />
<circle cx="178.0911" cy="116.3558" r="1.0000" /> 
<path d="M162.4500 46.0500
L148.5500 46.0500
" />
<circle cx="109.2500" cy="92.5000" r="1.0000" /> 
<path d="M111.5500 59.9500
L125.4500 59.9500
" />
<path d="M93.0500 106.9500
L106.9500 106.9500
" />
<path d="M180.9500 66.5500
L167.0500 66.5500
" />
<path d="M106.9500 58.0500
L93.0500 58.0500
" />
<path d="M93.0500 93.0500
L93.0500 106.9500
" />
<path d="M198.3359 118.2733
L185.7382 112.3990
" />
<path d="M148.5500 63.5500
L148.5500 77.4500
" />
<path d="M130.0500 71.4500
L143.9500 71.4500
" />
<path d="M162.4500 94.9500
L162.4500 81.0500
" />
<path d="M148.5500 77.4500
L162.4500 77.4500
" />
<path d="M111.5500 94.9500
L125.4500 94.9500
" />
</g>
<g style="fill:#B4DBD2; fill-opacity:0.0; 
stroke:#B4DBD2; stroke-width:0.1000; stroke-opacity:1; 
stroke-linecap:round; stroke-linejoin:round;">
<path d="M98.6700 47.3100
L99.0900 47.9500
" />
</g>
<g style="fill:#B4DBD2; fill-opacity:0.0; 
stroke:#B4DBD2; stroke-width:0.1500; stroke-opacity:1; 
stroke-linecap:round; stroke-linejoin:round;">
<path d="M167.0500 84.0500
L167.0500 97.9500
" />
</g>
<g style="fill:#B4DBD2; fill-opacity:0.0; 
stroke:#B4DBD2; stroke-width:0.1000; stroke-opacity:1; 
stroke-linecap:round; stroke-linejoin:round;">
<path d="M96.6400 48.6300
L97.0650 49.2700
" />
<g >
</g>
<g >
</g>
<g >
</g>
<g >
</g>
<g >
</g>
<g >
</g>
<g >
</g>
<g >
</g>
<g >
</g>
<g >
</g>
<g >
</g>
<g >
</g>
<g >
</g>
<g >
</g>
<g >
</g>
<g >
</g>
<g >
</g>
<g >
</g>
<g >
</g>
<g >
</g>
<g >
</g>
<g >
</g>
<g >
</g>
<g >
</g>
<g >
</g>
<g >
</g>
<g >
</g>
<g >
</g>
<g >
</g>
<g >
</g>
<g >
</g>
<g >
</g>
<g >
</g>
<g >
</g>
<g >
</g>
<g >
</g>
<g >
</g>
<g >
</g>
<g >
</g>
<g >
</g>
<g >
</g>
<g >
</g>
<g >
</g>
<g >
</g>
<g >
</g>
<g >
</g>
<g >
</g>
<g >
</g>
<g >
</g>
<g >
</g>
<g >
</g>
<g >
</g>
<g >
</g>
<g >
</g>
<g >
</g>
<g >
</g>
<g >
</g>
<g >
</g>
<g >
</g>
<g >
</g>
<g >
</g>
<g >
</g>
<g >
</g>
<g >
</g>
<g >
</g>
<g >
</g>
<g >
</g>
<g >
</g>
<g >
</g>
<g >
</g>
<g >
</g>
<g >
</g>
<g >
</g>
<g >
</g>
<g >
</g>
<g >
</g>
<g >
</g>
<g >
</g>
<g >
</g>
<g >
</g>
<g >
</g>
<g >
</g>
<g >
</g>
<g >
</g>
<g >
</g>
<g >
</g>
<g >
</g>
<g >
</g>
<g >
</g>
<g >
</g>
<g >
</g>
<g >
</g>
<g >
</g>
<g >
</g>
<g >
</g>
<g >
</g>
<g >
</g>
<g >
</g>
<g >
</g>
<g >
</g>
<g >
</g>
<g >
</g>
<g >
</g>
<g >
</g>
<g >
</g>
<g >
</g>
<g >
</g>
<g >
</g>
<g >
</g>
<g >
</g>
<g >
</g>
<g >
</g>
<g >
</g>
<g >
</g>
<g >
</g>
</g>
<g style="fill:#000000; fill-opacity:0.0; 
stroke:#000000; stroke-width:0.1000; stroke-opacity:1; 
stroke-linecap:round; stroke-linejoin:round;">
</g>
<g style="fill:#D8C852; fill-opacity:0.0; 
stroke:#D8C852; stroke-width:0.1000; stroke-opacity:1; 
stroke-linecap:round; stroke-linejoin:round;">
</g>
<g style="fill:#D8C852; fill-opacity:0.0; 
stroke:#D8C852; stroke-width:0.1500; stroke-opacity:1; 
stroke-linecap:round; stroke-linejoin:round;">
<path d="M200.6500 103.2000
L200.6500 96.3000
" />
<path d="M190.3000 96.3000
L200.6500 96.3000
" />
<path d="M190.3000 96.3000
L190.3000 103.2000
" />
<path d="M184.5000 90.4500
L202.8000 90.4500
" />
<circle cx="164.7500" cy="93.0000" r="1.5000" /> 
<circle cx="164.7500" cy="58.0000" r="1.5000" /> 
<circle cx="178.0911" cy="116.3558" r="1.5000" /> 
<path d="M190.3000 103.2000
L200.6500 103.2000
" />
<circle cx="109.2500" cy="92.5000" r="1.5000" /> 
<path d="M184.5000 56.3500
L184.5000 90.4500
" />
<path d="M202.8000 56.3500
L184.5000 56.3500
" />
<path d="M202.8000 90.4500
L202.8000 56.3500
" />
<circle cx="109.2500" cy="57.5000" r="1.5000" /> 
<g >
</g>
<g >
</g>
<g >
</g>
<g >
</g>
<g >
</g>
<g >
</g>
<g >
</g>
<g >
</g>
<g >
</g>
<g >
</g>
<g >
</g>
<g >
</g>
<g >
</g>
<g >
</g>
<g >
</g>
<g >
</g>
<g >
</g>
<g >
</g>
<g >
</g>
<g >
</g>
<g >
</g>
<g >
</g>
<g >
</g>
<g >
</g>
<g >
</g>
<g >
</g>
<g >
</g>
<g >
</g>
<g >
</g>
<g >
</g>
<g >
</g>
<g >
</g>
<g >
</g>
<g >
</g>
<g >
</g>
<g >
</g>
<g >
</g>
<g >
</g>
<g >
</g>
<g >
</g>
<g >
</g>
<g >
</g>
<g >
</g>
<g >
</g>
<g >
</g>
<g >
</g>
<g >
</g>
<g >
</g>
<g >
</g>
<g >
</g>
<g >
</g>
<g >
</g>
<g >
</g>
<g >
</g>
<g >
</g>
<g >
</g>
<g >
</g>
<g >
</g>
<g >
</g>
<g >
</g>
<g >
</g>
<g >
</g>
<g >
</g>
<g >
</g>
<g >
</g>
<g >
</g>
<g >
</g>
<g >
</g>
<g >
</g>
<g >
</g>
<g >
</g>
<g >
</g>
<g >
</g>
<g >
</g>
<g >
</g>
<g >
</g>
<g >
</g>
<g >
</g>
<g >
</g>
<g >
</g>
<g >
</g>
<g >
</g>
<g >
</g>
<g >
</g>
<g >
</g>
<g >
</g>
<g >
</g>
<g >
</g>
<g >
</g>
<g >
</g>
<g >
</g>
<g >
</g>
<g >
</g>
<g >
</g>
<g >
</g>
<g >
</g>
<g >
</g>
<g >
</g>
<g >
</g>
<g >
</g>
<g >
</g>
<g >
</g>
<g >
</g>
<g >
</g>
<g >
</g>
<g >
</g>
<g >
</g>
<g >
</g>
<g >
</g>
<g >
</g>
<g >
</g>
<g >
</g>
<g >
</g>
<g >
</g>
<g >
</g>
</g>
<g style="fill:#000000; fill-opacity:0.0; 
stroke:#000000; stroke-width:0.1500; stroke-opacity:1; 
stroke-linecap:round; stroke-linejoin:round;">
</g>
<g style="fill:#D0D2CD; fill-opacity:0.0; 
stroke:#D0D2CD; stroke-width:0.1500; stroke-opacity:1; 
stroke-linecap:round; stroke-linejoin:round;">
<path d="M203.5500 58.3000
L203.5500 115.0000
" />
<path d="M192.5000 135.2500 A235.7067 235.7067 0.0 0 0 91.5000 110.5000" />
<path d="M203.5500 58.3000 A3.0000 3.0000 0.0 0 0 200.5500 55.3000" />
<path d="M183.0000 46.0000 A96.3376 96.3376 0.0 0 0 124.0000 38.0000" />
<path d="M203.1000 117.0000
L195.5000 133.7500
" />
<path d="M124.0000 38.0000 A74.2232 74.2232 0.0 0 0 90.5000 54.1000" />
<path d="M90.5000 54.1000 A4.1632 4.1632 0.0 0 0 89.5500 57.0000" />
<path d="M185.0500 51.7500 A3.2638 3.2638 0.0 0 0 188.0000 55.3000" />
<path d="M89.5500 108.0000
L89.5500 57.0000
" />
<path d="M203.1000 117.0000 A4.7357 4.7357 0.0 0 0 203.5500 115.0000" />
<path d="M89.5500 108.0000 A2.6303 2.6303 0.0 0 0 91.5000 110.5000" />
<path d="M188.0000 55.3000
L200.5500 55.3000
" />
<path d="M185.0500 51.7500
L185.0500 49.5000
" />
<path d="M192.5000 135.2500 A2.8171 2.8171 0.0 0 0 195.5000 133.7500" />
<path d="M185.0500 49.5000 A4.0562 4.0562 0.0 0 0 183.0000 46.0000" />
<g >
</g>
<g >
</g>
<g >
</g>
<g >
</g>
<g >
</g>
<g >
</g>
<g >
</g>
<g >
</g>
<g >
</g>
<g >
</g>
<g >
</g>
<g >
</g>
<g >
</g>
<g >
</g>
<g >
</g>
<g >
</g>
<g >
</g>
<g >
</g>
<g >
</g>
<g >
</g>
<g >
</g>
<g >
</g>
<g >
</g>
<g >
</g>
<g >
</g>
<g >
</g>
<g >
</g>
<g >
</g>
<g >
</g>
<g >
</g>
<g >
</g>
<g >
</g>
<g >
</g>
<g >
</g>
<g >
</g>
<g >
</g>
<g >
</g>
<g >
</g>
<g >
</g>
<g >
</g>
<g >
</g>
<g >
</g>
<g >
</g>
<g >
</g>
<g >
</g>
<g >
</g>
<g >
</g>
<g >
</g>
<g >
</g>
<g >
</g>
<g >
</g>
<g >
</g>
<g >
</g>
<g >
</g>
<g >
</g>
<g >
</g>
<g >
</g>
<g >
</g>
<g >
</g>
<g >
</g>
<g >
</g>
<g >
</g>
<g >
</g>
<g >
</g>
<g >
</g>
<g >
</g>
<g >
</g>
<g >
</g>
<g >
</g>
<g >
</g>
<g >
</g>
<g >
</g>
<g >
</g>
<g >
</g>
<g >
</g>
<g >
</g>
<g >
</g>
<g >
</g>
<g >
</g>
<g >
</g>
<g >
</g>
<g >
</g>
<g >
</g>
<g >
</g>
<g >
</g>
<g >
</g>
<g >
</g>
<g >
</g>
<g >
</g>
<g >
</g>
<g >
</g>
<g >
</g>
<g >
</g>
<g >
</g>
<g >
</g>
<g >
</g>
<g >
</g>
<g >
</g>
<g >
</g>
<g >
</g>
<g >
</g>
<g >
</g>
<g >
</g>
<g >
</g>
<g >
</g>
<g >
</g>
<g >
</g>
<g >
</g>
<g >
</g>
<g >
</g>
<g >
</g>
<g >
</g>
<g >
</g>
<g >
</g>
<g >
</g>
</g> 
</svg>
