M48
; DRILL file {KiCad 7.0.10} date Tue Jan 16 00:43:59 2024
; FORMAT={-:-/ absolute / metric / decimal}
; #@! TF.CreationDate,2024-01-16T00:43:59+02:00
; #@! TF.GenerationSoftware,Kicad,Pcbnew,7.0.10
; #@! TF.FileFunction,Plated,1,2,PTH
FMAT,2
METRIC
; #@! TA.AperFunction,Plated,PTH,ComponentDrill
T1C0.300
; #@! TA.AperFunction,Plated,PTH,ComponentDrill
T2C0.400
; #@! TA.AperFunction,Plated,PTH,ComponentDrill
T3C0.750
; #@! TA.AperFunction,Plated,PTH,ComponentDrill
T4C0.991
; #@! TA.AperFunction,Plated,PTH,ComponentDrill
T5C1.000
; #@! TA.AperFunction,Plated,PTH,ComponentDrill
T6C2.200
%
G90
G05
T1
X94.0Y-70.0
X94.0Y-87.5
X94.75Y-67.5
X94.75Y-85.0
X96.0Y-63.5
X96.0Y-81.0
X96.0Y-98.5
X100.0Y-62.0
X100.0Y-79.5
X100.0Y-97.0
X101.821Y-47.459
X102.469Y-48.457
X103.498Y-46.369
X104.146Y-47.367
X112.5Y-58.0
X112.5Y-75.5
X113.25Y-55.5
X113.25Y-73.0
X114.5Y-51.5
X114.5Y-69.0
X114.5Y-86.5
X118.5Y-50.0
X118.5Y-67.5
X118.5Y-85.0
X131.0Y-52.0
X131.0Y-69.5
X131.75Y-49.5
X131.75Y-67.0
X133.0Y-45.5
X133.0Y-63.0
X133.0Y-80.5
X137.0Y-44.0
X137.0Y-61.5
X137.0Y-79.0
X149.5Y-58.0
X149.5Y-75.5
X150.25Y-55.5
X150.25Y-73.0
X151.5Y-51.5
X151.5Y-69.0
X151.5Y-86.5
X155.5Y-50.0
X155.5Y-67.5
X155.5Y-85.0
X163.025Y-110.766
X168.0Y-61.0
X168.0Y-78.5
X168.7Y-105.04
X168.75Y-58.5
X168.75Y-76.0
X170.0Y-54.5
X170.0Y-72.0
X170.0Y-89.5
X174.0Y-53.0
X174.0Y-70.5
X174.0Y-88.0
X174.96Y-122.246
X185.3Y-90.6
X186.1Y-91.35
X186.109Y-118.585
X186.9Y-92.1
X192.692Y-113.931
X193.3Y-56.012
X193.65Y-95.3
X194.875Y-99.75
X201.15Y-99.75
T2
X190.388Y-60.7
X190.388Y-63.24
X190.388Y-65.78
X190.388Y-68.32
X190.388Y-70.86
X190.388Y-73.4
X190.388Y-75.94
X190.388Y-78.48
X190.388Y-81.02
X190.388Y-83.56
X190.388Y-86.1
X190.388Y-88.64
X196.912Y-60.7
X196.912Y-63.24
X196.912Y-65.78
X196.912Y-68.32
X196.912Y-70.86
X196.912Y-73.4
X196.912Y-75.94
X196.912Y-78.48
X196.912Y-81.02
X196.912Y-83.56
X196.912Y-86.1
X196.912Y-88.64
T3
X198.8Y-98.75
X198.8Y-100.75
T4
X96.19Y-70.0
X96.19Y-87.5
X96.19Y-105.0
X103.81Y-70.0
X103.81Y-87.5
X103.81Y-105.0
X114.69Y-58.0
X114.69Y-75.5
X114.69Y-93.0
X122.31Y-58.0
X122.31Y-75.5
X122.31Y-93.0
X133.19Y-52.0
X133.19Y-69.5
X133.19Y-87.0
X140.81Y-52.0
X140.81Y-69.5
X140.81Y-87.0
X151.69Y-58.0
X151.69Y-75.5
X151.69Y-93.0
X159.31Y-58.0
X159.31Y-75.5
X159.31Y-93.0
X161.526Y-117.094
X168.886Y-119.066
X170.19Y-61.0
X170.19Y-78.5
X170.19Y-96.0
X177.81Y-61.0
X177.81Y-78.5
X177.81Y-96.0
X183.534Y-124.556
X190.44Y-127.777
T5
X186.03Y-60.7
X186.03Y-63.24
X186.03Y-65.78
X186.03Y-68.32
X186.03Y-70.86
X186.03Y-73.4
X186.03Y-75.94
X186.03Y-78.48
X186.03Y-81.02
X186.03Y-83.56
X186.03Y-86.1
X186.03Y-88.64
X188.57Y-91.9
X191.11Y-91.9
X193.65Y-91.9
X196.19Y-91.9
X198.73Y-91.9
X201.27Y-60.7
X201.27Y-63.24
X201.27Y-65.78
X201.27Y-68.32
X201.27Y-70.86
X201.27Y-73.4
X201.27Y-75.94
X201.27Y-78.48
X201.27Y-81.02
X201.27Y-83.56
X201.27Y-86.1
X201.27Y-88.64
T6
X109.25Y-57.5
X109.25Y-92.5
X164.75Y-58.0
X164.75Y-93.0
X178.091Y-116.356
M30
