0
SECTION
2
HEADER
9
$INSUNITS
70
4
0
ENDSEC
0
SECTION
2
TABLES
0
TABLE
2
LTYPE
0
LTYPE
72
65
70
64
2
CONTINUOUS
3
______
73
0
40
0
0
ENDTAB
0
TABLE
2
LAYER
0
ENDTAB
0
ENDSEC
0
SECTION
2
ENTITIES
0
LINE
8
0
10
187.9361381
20
-135.5973361
11
93.4674226
21
-94.6960902
0
LINE
8
0
10
89.55
20
-88.7311683
11
89.55
21
-60.2968419
0
LINE
8
0
10
92.8572403
20
-54.6350149
11
108.9323826
21
-45.570085
0
LINE
8
0
10
110.1198617
20
-45.0489638
11
127.0224239
21
-39.5670517
0
LINE
8
0
10
129.0277044
20
-39.25
11
144.1251394
21
-39.25
0
LINE
8
0
10
147.5868541
20
-40.2484975
11
157.8398533
21
-46.7
0
LINE
8
0
10
164.25
20
-50.7334615
11
172.8106898
21
-56.1201109
0
LINE
8
0
10
181.8869675
20
-53.89377
11
182
21
-53.7
0
LINE
8
0
10
182
20
-53.7
11
203.55
21
-53.7
0
LINE
8
0
10
203.55
20
-53.7
11
203.5423967
21
-118.7759446
0
LINE
8
0
10
202.6139841
20
-122.1229331
11
196.0903029
21
-132.9801618
0
ARC
8
0
10
96.05
20
-88.7311683
40
6.5
50
180
51
246.5892797
0
ARC
8
0
10
96.05
20
-60.2968419
40
6.5
50
119.4190772
51
180
0
ARC
8
0
10
112.1251423
20
-51.231912
40
6.5
50
107.9691402
51
119.4190772
0
ARC
8
0
10
129.0277044
20
-45.75
40
6.5
50
90
51
107.9691402
0
ARC
8
0
10
144.1251394
20
-45.75
40
6.5
50
57.8206335
51
90
0
ARC
8
0
10
176.2724045
20
-50.6186084
40
6.5
50
237.8206335
51
249.3250866
0
ARC
8
0
10
176.2724045
20
-50.6186084
40
6.5
50
290.6749134
51
329.7435641
0
ARC
8
0
10
197.0423967
20
-118.7751854
40
6.5
50
328.9999987
51
359.9933079
0
ARC
8
0
10
190.5187155
20
-129.6324141
40
6.5
50
246.5892797
51
328.9999987
0
LINE
8
0
10
91.25
20
-90.75
11
108.75
21
-90.75
0
LINE
8
0
10
108.75
20
-90.75
11
108.75
21
-74.25
0
LINE
8
0
10
108.75
20
-74.25
11
91.25
21
-74.25
0
LINE
8
0
10
91.25
20
-74.25
11
91.25
21
-90.75
0
LINE
8
0
10
91.25
20
-73.25
11
108.75
21
-73.25
0
LINE
8
0
10
108.75
20
-73.25
11
108.75
21
-56.75
0
LINE
8
0
10
108.75
20
-56.75
11
91.25
21
-56.75
0
LINE
8
0
10
91.25
20
-56.75
11
91.25
21
-73.25
0
LINE
8
0
10
109.75
20
-97
11
127.25
21
-97
0
LINE
8
0
10
127.25
20
-97
11
127.25
21
-80.5
0
LINE
8
0
10
127.25
20
-80.5
11
109.75
21
-80.5
0
LINE
8
0
10
109.75
20
-80.5
11
109.75
21
-97
0
LINE
8
0
10
109.75
20
-79.5
11
127.25
21
-79.5
0
LINE
8
0
10
127.25
20
-79.5
11
127.25
21
-63
0
LINE
8
0
10
127.25
20
-63
11
109.75
21
-63
0
LINE
8
0
10
109.75
20
-63
11
109.75
21
-79.5
0
LINE
8
0
10
109.75
20
-62
11
127.25
21
-62
0
LINE
8
0
10
127.25
20
-62
11
127.25
21
-45.5
0
LINE
8
0
10
127.25
20
-45.5
11
109.75
21
-45.5
0
LINE
8
0
10
109.75
20
-45.5
11
109.75
21
-62
0
LINE
8
0
10
128.25
20
-91
11
145.75
21
-91
0
LINE
8
0
10
145.75
20
-91
11
145.75
21
-74.5
0
LINE
8
0
10
145.75
20
-74.5
11
128.25
21
-74.5
0
LINE
8
0
10
128.25
20
-74.5
11
128.25
21
-91
0
LINE
8
0
10
128.25
20
-73.5
11
145.75
21
-73.5
0
LINE
8
0
10
145.75
20
-73.5
11
145.75
21
-57
0
LINE
8
0
10
145.75
20
-57
11
128.25
21
-57
0
LINE
8
0
10
128.25
20
-57
11
128.25
21
-73.5
0
LINE
8
0
10
128.25
20
-56
11
145.75
21
-56
0
LINE
8
0
10
145.75
20
-56
11
145.75
21
-39.5
0
LINE
8
0
10
145.75
20
-39.5
11
128.25
21
-39.5
0
LINE
8
0
10
128.25
20
-39.5
11
128.25
21
-56
0
LINE
8
0
10
146.75
20
-98.2
11
164.25
21
-98.2
0
LINE
8
0
10
164.25
20
-98.2
11
164.25
21
-81.7
0
LINE
8
0
10
164.25
20
-81.7
11
146.75
21
-81.7
0
LINE
8
0
10
146.75
20
-81.7
11
146.75
21
-98.2
0
LINE
8
0
10
146.75
20
-80.7
11
164.25
21
-80.7
0
LINE
8
0
10
164.25
20
-80.7
11
164.25
21
-64.2
0
LINE
8
0
10
164.25
20
-64.2
11
146.75
21
-64.2
0
LINE
8
0
10
146.75
20
-64.2
11
146.75
21
-80.7
0
LINE
8
0
10
146.75
20
-63.2
11
164.25
21
-63.2
0
LINE
8
0
10
164.25
20
-63.2
11
164.25
21
-50.7334615
0
LINE
8
0
10
157.8398533
20
-46.7
11
146.75
21
-46.7
0
LINE
8
0
10
146.75
20
-46.7
11
146.75
21
-63.2
0
LINE
8
0
10
165.25
20
-90.7
11
182.75
21
-90.7
0
LINE
8
0
10
182.75
20
-90.7
11
182.75
21
-74.2
0
LINE
8
0
10
182.75
20
-74.2
11
165.25
21
-74.2
0
LINE
8
0
10
165.25
20
-74.2
11
165.25
21
-90.7
0
LINE
8
0
10
165.25
20
-73.2
11
182.75
21
-73.2
0
LINE
8
0
10
182.75
20
-73.2
11
182.75
21
-56.7
0
LINE
8
0
10
182.75
20
-56.7
11
178.5673285
21
-56.7
0
LINE
8
0
10
173.9774805
20
-56.7
11
165.25
21
-56.7
0
LINE
8
0
10
165.25
20
-56.7
11
165.25
21
-73.2
0
LINE
8
0
10
160.1788653
20
-120.0923176
11
176.8223543
21
-125.500115
0
LINE
8
0
10
176.8223543
20
-125.500115
11
181.9211347
21
-109.8076824
0
LINE
8
0
10
181.9211347
20
-109.8076824
11
165.2776457
21
-104.399885
0
LINE
8
0
10
165.2776457
20
-104.399885
11
160.1788653
21
-120.0923176
0
LINE
8
0
10
177.3888
20
-125.7580099
11
192.3892278
21
-134.7711762
0
LINE
8
0
10
192.3892278
20
-134.7711762
11
200.887356
21
-120.6279157
0
LINE
8
0
10
200.887356
20
-120.6279157
11
185.8869282
21
-111.6147494
0
LINE
8
0
10
185.8869282
20
-111.6147494
11
177.3888
21
-125.7580099
0
ENDSEC
0
EOF