0
SECTION
2
HEADER
9
$INSUNITS
70
4
0
ENDSEC
0
SECTION
2
TABLES
0
TABLE
2
LTYPE
0
LTYPE
72
65
70
64
2
CONTINUOUS
3
______
73
0
40
0
0
ENDTAB
0
TABLE
2
LAYER
0
ENDTAB
0
ENDSEC
0
SECTION
2
ENTITIES
0
LINE
8
0
10
191.114193
20
-135.494096
11
91.6990889
21
-93.8991711
0
LINE
8
0
10
89.55
20
-90.6703882
11
89.55
21
-62.4629228
0
LINE
8
0
10
90.9026467
20
-59.6990715
11
91.25
21
-59.429198
0
LINE
8
0
10
94.6983871
20
-56.75
11
109.0157414
21
-45.626241
0
LINE
8
0
10
110.0833282
20
-45.0608125
11
127.473613
21
-39.4207201
0
LINE
8
0
10
128.5533794
20
-39.25
11
145.0758076
21
-39.25
0
LINE
8
0
10
146.8037142
20
-39.7062624
11
159.1233062
21
-46.7
0
LINE
8
0
10
164.25
20
-49.6103846
11
173.2154472
21
-54.7
0
LINE
8
0
10
183.1032778
20
-60.15
11
200.048444
21
-60.15
0
LINE
8
0
10
203.5484437
20
-63.6515557
11
203.524541
21
-117.430638
0
LINE
8
0
10
203.1430641
20
-119.018049
11
195.5836269
21
-133.8542799
0
ARC
8
0
10
93.05
20
-90.6703882
40
3.5
50
180
51
247.2957419
0
ARC
8
0
10
93.05
20
-62.4629228
40
3.5
50
127.8451487
51
180
0
ARC
8
0
10
111.1630947
20
-48.3900923
40
3.5
50
107.9691402
51
127.8451487
0
ARC
8
0
10
128.5533794
20
-42.75
40
3.5
50
90
51
107.9691402
0
ARC
8
0
10
145.0758076
20
-42.75
40
3.5
50
60.416753
51
90
0
ARC
8
0
10
183.1032778
20
-56.65
40
3.5
50
264.2068983
51
270
0
ARC
8
0
10
200.048444
20
-63.65
40
3.5
50
359.974532
51
90
0
ARC
8
0
10
200.0245413
20
-117.4290822
40
3.5
50
332.9999994
51
359.974532
0
ARC
8
0
10
192.4651041
20
-132.2653131
40
3.5
50
247.2957419
51
332.9999994
0
LINE
8
0
10
91.25
20
-90.75
11
108.75
21
-90.75
0
LINE
8
0
10
108.75
20
-90.75
11
108.75
21
-74.25
0
LINE
8
0
10
108.75
20
-74.25
11
91.25
21
-74.25
0
LINE
8
0
10
91.25
20
-74.25
11
91.25
21
-90.75
0
LINE
8
0
10
91.25
20
-73.25
11
108.75
21
-73.25
0
LINE
8
0
10
108.75
20
-73.25
11
108.75
21
-56.75
0
LINE
8
0
10
108.75
20
-56.75
11
94.6983871
21
-56.75
0
LINE
8
0
10
91.25
20
-59.429198
11
91.25
21
-73.25
0
LINE
8
0
10
109.75
20
-97
11
127.25
21
-97
0
LINE
8
0
10
127.25
20
-97
11
127.25
21
-80.5
0
LINE
8
0
10
127.25
20
-80.5
11
109.75
21
-80.5
0
LINE
8
0
10
109.75
20
-80.5
11
109.75
21
-97
0
LINE
8
0
10
109.75
20
-79.5
11
127.25
21
-79.5
0
LINE
8
0
10
127.25
20
-79.5
11
127.25
21
-63
0
LINE
8
0
10
127.25
20
-63
11
109.75
21
-63
0
LINE
8
0
10
109.75
20
-63
11
109.75
21
-79.5
0
LINE
8
0
10
109.75
20
-62
11
127.25
21
-62
0
LINE
8
0
10
127.25
20
-62
11
127.25
21
-45.5
0
LINE
8
0
10
127.25
20
-45.5
11
109.75
21
-45.5
0
LINE
8
0
10
109.75
20
-45.5
11
109.75
21
-62
0
LINE
8
0
10
128.25
20
-91
11
145.75
21
-91
0
LINE
8
0
10
145.75
20
-91
11
145.75
21
-74.5
0
LINE
8
0
10
145.75
20
-74.5
11
128.25
21
-74.5
0
LINE
8
0
10
128.25
20
-74.5
11
128.25
21
-91
0
LINE
8
0
10
128.25
20
-73.5
11
145.75
21
-73.5
0
LINE
8
0
10
145.75
20
-73.5
11
145.75
21
-57
0
LINE
8
0
10
145.75
20
-57
11
128.25
21
-57
0
LINE
8
0
10
128.25
20
-57
11
128.25
21
-73.5
0
LINE
8
0
10
128.25
20
-56
11
145.75
21
-56
0
LINE
8
0
10
145.75
20
-56
11
145.75
21
-39.5
0
LINE
8
0
10
145.75
20
-39.5
11
128.25
21
-39.5
0
LINE
8
0
10
128.25
20
-39.5
11
128.25
21
-56
0
LINE
8
0
10
146.75
20
-98.2
11
164.25
21
-98.2
0
LINE
8
0
10
164.25
20
-98.2
11
164.25
21
-81.7
0
LINE
8
0
10
164.25
20
-81.7
11
146.75
21
-81.7
0
LINE
8
0
10
146.75
20
-81.7
11
146.75
21
-98.2
0
LINE
8
0
10
146.75
20
-80.7
11
164.25
21
-80.7
0
LINE
8
0
10
164.25
20
-80.7
11
164.25
21
-64.2
0
LINE
8
0
10
164.25
20
-64.2
11
146.75
21
-64.2
0
LINE
8
0
10
146.75
20
-64.2
11
146.75
21
-80.7
0
LINE
8
0
10
146.75
20
-63.2
11
164.25
21
-63.2
0
LINE
8
0
10
164.25
20
-63.2
11
164.25
21
-49.6103846
0
LINE
8
0
10
159.1233062
20
-46.7
11
146.75
21
-46.7
0
LINE
8
0
10
146.75
20
-46.7
11
146.75
21
-63.2
0
LINE
8
0
10
165.25
20
-88.7
11
182.75
21
-88.7
0
LINE
8
0
10
182.75
20
-88.7
11
182.75
21
-72.2
0
LINE
8
0
10
182.75
20
-72.2
11
165.25
21
-72.2
0
LINE
8
0
10
165.25
20
-72.2
11
165.25
21
-88.7
0
LINE
8
0
10
165.25
20
-71.2
11
182.75
21
-71.2
0
LINE
8
0
10
182.75
20
-71.2
11
182.75
21
-60.132125
0
LINE
8
0
10
173.2154472
20
-54.7
11
165.25
21
-54.7
0
LINE
8
0
10
165.25
20
-54.7
11
165.25
21
-71.2
0
LINE
8
0
10
159.9202668
20
-120.2812618
11
176.6556001
21
-125.3977667
0
LINE
8
0
10
176.6556001
20
-125.3977667
11
181.4797332
21
-109.6187382
0
LINE
8
0
10
181.4797332
20
-109.6187382
11
164.7443999
21
-104.5022333
0
LINE
8
0
10
164.7443999
20
-104.5022333
11
159.9202668
21
-120.2812618
0
LINE
8
0
10
177.5336397
20
-125.7762615
11
193.1262539
21
-133.7210952
0
LINE
8
0
10
193.1262539
20
-133.7210952
11
200.6170971
21
-119.0194875
0
LINE
8
0
10
200.6170971
20
-119.0194875
11
185.0244829
21
-111.0746538
0
LINE
8
0
10
185.0244829
20
-111.0746538
11
177.5336397
21
-125.7762615
0
ENDSEC
0
EOF