0
SECTION
2
HEADER
9
$INSUNITS
70
4
0
ENDSEC
0
SECTION
2
TABLES
0
TABLE
2
LTYPE
0
LTYPE
72
65
70
64
2
CONTINUOUS
3
______
73
0
40
0
0
ENDTAB
0
TABLE
2
LAYER
0
ENDTAB
0
ENDSEC
0
SECTION
2
ENTITIES
0
LINE
8
0
10
190.3330289
20
-136.6064564
11
91.6321221
21
-92.8725779
0
LINE
8
0
10
89.55
20
-89.6726369
11
89.55
21
-62.4629228
0
LINE
8
0
10
90.9026467
20
-59.6990715
11
91.25
21
-59.429198
0
LINE
8
0
10
94.6983871
20
-56.75
11
109.0157414
21
-45.626241
0
LINE
8
0
10
110.0833282
20
-45.0608125
11
127.473613
21
-39.4207201
0
LINE
8
0
10
128.5533794
20
-39.25
11
144.9904596
21
-39.25
0
LINE
8
0
10
146.8544599
20
-39.7876525
11
157.8398533
21
-46.7
0
LINE
8
0
10
164.25
20
-50.7334615
11
173.7322738
21
-56.7
0
LINE
8
0
10
180.3237518
20
-56.5735684
11
182
21
-53.7
0
LINE
8
0
10
182
20
-53.7
11
200.049591
21
-53.7
0
LINE
8
0
10
203.549591
20
-57.2004088
11
203.5422995
21
-119.6077296
0
LINE
8
0
10
203.042385
20
-121.4099541
11
194.7509924
21
-135.2091488
0
ARC
8
0
10
93.05
20
-89.6726369
40
3.5
50
180
51
246.1021063
0
ARC
8
0
10
93.05
20
-62.4629228
40
3.5
50
127.8451487
51
180
0
ARC
8
0
10
111.1630947
20
-48.3900923
40
3.5
50
107.9691402
51
127.8451487
0
ARC
8
0
10
128.5533794
20
-42.75
40
3.5
50
90
51
107.9691402
0
ARC
8
0
10
144.9904596
20
-42.75
40
3.5
50
57.8206335
51
90
0
ARC
8
0
10
177.3005255
20
-54.8100199
40
3.5
50
327.316748
51
329.7435641
0
ARC
8
0
10
200.049591
20
-57.2
40
3.5
50
359.9933078
51
90
0
ARC
8
0
10
200.0422995
20
-119.6073208
40
3.5
50
328.9999987
51
359.9933079
0
ARC
8
0
10
191.7509068
20
-133.4065154
40
3.5
50
246.1021063
51
328.9999987
0
LINE
8
0
10
91.25
20
-90.75
11
108.75
21
-90.75
0
LINE
8
0
10
108.75
20
-90.75
11
108.75
21
-74.25
0
LINE
8
0
10
108.75
20
-74.25
11
91.25
21
-74.25
0
LINE
8
0
10
91.25
20
-74.25
11
91.25
21
-90.75
0
LINE
8
0
10
91.25
20
-73.25
11
108.75
21
-73.25
0
LINE
8
0
10
108.75
20
-73.25
11
108.75
21
-56.75
0
LINE
8
0
10
108.75
20
-56.75
11
94.6983871
21
-56.75
0
LINE
8
0
10
91.25
20
-59.429198
11
91.25
21
-73.25
0
LINE
8
0
10
109.75
20
-97
11
127.25
21
-97
0
LINE
8
0
10
127.25
20
-97
11
127.25
21
-80.5
0
LINE
8
0
10
127.25
20
-80.5
11
109.75
21
-80.5
0
LINE
8
0
10
109.75
20
-80.5
11
109.75
21
-97
0
LINE
8
0
10
109.75
20
-79.5
11
127.25
21
-79.5
0
LINE
8
0
10
127.25
20
-79.5
11
127.25
21
-63
0
LINE
8
0
10
127.25
20
-63
11
109.75
21
-63
0
LINE
8
0
10
109.75
20
-63
11
109.75
21
-79.5
0
LINE
8
0
10
109.75
20
-62
11
127.25
21
-62
0
LINE
8
0
10
127.25
20
-62
11
127.25
21
-45.5
0
LINE
8
0
10
127.25
20
-45.5
11
109.75
21
-45.5
0
LINE
8
0
10
109.75
20
-45.5
11
109.75
21
-62
0
LINE
8
0
10
128.25
20
-91
11
145.75
21
-91
0
LINE
8
0
10
145.75
20
-91
11
145.75
21
-74.5
0
LINE
8
0
10
145.75
20
-74.5
11
128.25
21
-74.5
0
LINE
8
0
10
128.25
20
-74.5
11
128.25
21
-91
0
LINE
8
0
10
128.25
20
-73.5
11
145.75
21
-73.5
0
LINE
8
0
10
145.75
20
-73.5
11
145.75
21
-57
0
LINE
8
0
10
145.75
20
-57
11
128.25
21
-57
0
LINE
8
0
10
128.25
20
-57
11
128.25
21
-73.5
0
LINE
8
0
10
128.25
20
-56
11
145.75
21
-56
0
LINE
8
0
10
145.75
20
-56
11
145.75
21
-39.5
0
LINE
8
0
10
145.75
20
-39.5
11
128.25
21
-39.5
0
LINE
8
0
10
128.25
20
-39.5
11
128.25
21
-56
0
LINE
8
0
10
146.75
20
-98.2
11
164.25
21
-98.2
0
LINE
8
0
10
164.25
20
-98.2
11
164.25
21
-81.7
0
LINE
8
0
10
164.25
20
-81.7
11
146.75
21
-81.7
0
LINE
8
0
10
146.75
20
-81.7
11
146.75
21
-98.2
0
LINE
8
0
10
146.75
20
-80.7
11
164.25
21
-80.7
0
LINE
8
0
10
164.25
20
-80.7
11
164.25
21
-64.2
0
LINE
8
0
10
164.25
20
-64.2
11
146.75
21
-64.2
0
LINE
8
0
10
146.75
20
-64.2
11
146.75
21
-80.7
0
LINE
8
0
10
146.75
20
-63.2
11
164.25
21
-63.2
0
LINE
8
0
10
164.25
20
-63.2
11
164.25
21
-50.7334615
0
LINE
8
0
10
157.8398533
20
-46.7
11
146.75
21
-46.7
0
LINE
8
0
10
146.75
20
-46.7
11
146.75
21
-63.2
0
LINE
8
0
10
165.25
20
-90.7
11
182.75
21
-90.7
0
LINE
8
0
10
182.75
20
-90.7
11
182.75
21
-74.2
0
LINE
8
0
10
182.75
20
-74.2
11
165.25
21
-74.2
0
LINE
8
0
10
165.25
20
-74.2
11
165.25
21
-90.7
0
LINE
8
0
10
165.25
20
-73.2
11
182.75
21
-73.2
0
LINE
8
0
10
182.75
20
-73.2
11
182.75
21
-56.7
0
LINE
8
0
10
182.75
20
-56.7
11
180.2463658
21
-56.7
0
LINE
8
0
10
173.7322738
20
-56.7
11
165.25
21
-56.7
0
LINE
8
0
10
165.25
20
-56.7
11
165.25
21
-73.2
0
LINE
8
0
10
160.1788653
20
-120.0923176
11
176.8223543
21
-125.500115
0
LINE
8
0
10
176.8223543
20
-125.500115
11
181.9211347
21
-109.8076824
0
LINE
8
0
10
181.9211347
20
-109.8076824
11
165.2776457
21
-104.399885
0
LINE
8
0
10
165.2776457
20
-104.399885
11
160.1788653
21
-120.0923176
0
LINE
8
0
10
177.3888
20
-125.7580099
11
192.3892278
21
-134.7711762
0
LINE
8
0
10
192.3892278
20
-134.7711762
11
200.887356
21
-120.6279157
0
LINE
8
0
10
200.887356
20
-120.6279157
11
185.8869282
21
-111.6147494
0
LINE
8
0
10
185.8869282
20
-111.6147494
11
177.3888
21
-125.7580099
0
ENDSEC
0
EOF