0
SECTION
2
HEADER
9
$INSUNITS
70
4
0
ENDSEC
0
SECTION
2
TABLES
0
TABLE
2
LTYPE
0
LTYPE
72
65
70
64
2
CONTINUOUS
3
______
73
0
40
0
0
ENDTAB
0
TABLE
2
LAYER
0
ENDTAB
0
ENDSEC
0
SECTION
2
ENTITIES
0
CIRCLE
8
0
10
104.5
20
-54.35
40
1
0
CIRCLE
8
0
10
104.5
20
-93.15
40
1
0
CIRCLE
8
0
10
118.5
20
-43.1
40
1
0
CIRCLE
8
0
10
118.5
20
-99.4
40
1
0
CIRCLE
8
0
10
155.5
20
-44.3
40
1
0
CIRCLE
8
0
10
155.5
20
-100.6
40
1
0
CIRCLE
8
0
10
169.5
20
-52.3
40
1
0
CIRCLE
8
0
10
169.5
20
-91.1
40
1
0
CIRCLE
8
0
10
176.8413807
20
-126.5002573
40
1
0
CIRCLE
8
0
10
199.9
20
-62.5
40
1
0
LINE
8
0
10
93.05
20
-89.45
11
106.95
21
-89.45
0
LINE
8
0
10
106.95
20
-89.45
11
106.95
21
-75.55
0
LINE
8
0
10
106.95
20
-75.55
11
93.05
21
-75.55
0
LINE
8
0
10
93.05
20
-75.55
11
93.05
21
-89.45
0
LINE
8
0
10
93.05
20
-71.95
11
106.95
21
-71.95
0
LINE
8
0
10
106.95
20
-71.95
11
106.95
21
-58.05
0
LINE
8
0
10
106.95
20
-58.05
11
93.05
21
-58.05
0
LINE
8
0
10
93.05
20
-58.05
11
93.05
21
-71.95
0
LINE
8
0
10
111.55
20
-95.7
11
125.45
21
-95.7
0
LINE
8
0
10
125.45
20
-95.7
11
125.45
21
-81.8
0
LINE
8
0
10
125.45
20
-81.8
11
111.55
21
-81.8
0
LINE
8
0
10
111.55
20
-81.8
11
111.55
21
-95.7
0
LINE
8
0
10
111.55
20
-78.2
11
125.45
21
-78.2
0
LINE
8
0
10
125.45
20
-78.2
11
125.45
21
-64.3
0
LINE
8
0
10
125.45
20
-64.3
11
111.55
21
-64.3
0
LINE
8
0
10
111.55
20
-64.3
11
111.55
21
-78.2
0
LINE
8
0
10
111.55
20
-60.7
11
125.45
21
-60.7
0
LINE
8
0
10
125.45
20
-60.7
11
125.45
21
-46.8
0
LINE
8
0
10
125.45
20
-46.8
11
111.55
21
-46.8
0
LINE
8
0
10
111.55
20
-46.8
11
111.55
21
-60.7
0
LINE
8
0
10
130.05
20
-89.7
11
143.95
21
-89.7
0
LINE
8
0
10
143.95
20
-89.7
11
143.95
21
-75.8
0
LINE
8
0
10
143.95
20
-75.8
11
130.05
21
-75.8
0
LINE
8
0
10
130.05
20
-75.8
11
130.05
21
-89.7
0
LINE
8
0
10
130.05
20
-72.2
11
143.95
21
-72.2
0
LINE
8
0
10
143.95
20
-72.2
11
143.95
21
-58.3
0
LINE
8
0
10
143.95
20
-58.3
11
130.05
21
-58.3
0
LINE
8
0
10
130.05
20
-58.3
11
130.05
21
-72.2
0
LINE
8
0
10
130.05
20
-54.7
11
143.95
21
-54.7
0
LINE
8
0
10
143.95
20
-54.7
11
143.95
21
-40.8
0
LINE
8
0
10
143.95
20
-40.8
11
130.05
21
-40.8
0
LINE
8
0
10
130.05
20
-40.8
11
130.05
21
-54.7
0
LINE
8
0
10
148.55
20
-96.9
11
162.45
21
-96.9
0
LINE
8
0
10
162.45
20
-96.9
11
162.45
21
-83
0
LINE
8
0
10
162.45
20
-83
11
148.55
21
-83
0
LINE
8
0
10
148.55
20
-83
11
148.55
21
-96.9
0
LINE
8
0
10
148.55
20
-79.4
11
162.45
21
-79.4
0
LINE
8
0
10
162.45
20
-79.4
11
162.45
21
-65.5
0
LINE
8
0
10
162.45
20
-65.5
11
148.55
21
-65.5
0
LINE
8
0
10
148.55
20
-65.5
11
148.55
21
-79.4
0
LINE
8
0
10
148.55
20
-61.9
11
162.45
21
-61.9
0
LINE
8
0
10
162.45
20
-61.9
11
162.45
21
-48
0
LINE
8
0
10
162.45
20
-48
11
148.55
21
-48
0
LINE
8
0
10
148.55
20
-48
11
148.55
21
-61.9
0
LINE
8
0
10
167.05
20
-87.4
11
180.95
21
-87.4
0
LINE
8
0
10
180.95
20
-87.4
11
180.95
21
-73.5
0
LINE
8
0
10
180.95
20
-73.5
11
167.05
21
-73.5
0
LINE
8
0
10
167.05
20
-73.5
11
167.05
21
-87.4
0
LINE
8
0
10
167.05
20
-69.9
11
180.95
21
-69.9
0
LINE
8
0
10
180.95
20
-69.9
11
180.95
21
-56
0
LINE
8
0
10
180.95
20
-56
11
167.05
21
-56
0
LINE
8
0
10
167.05
20
-56
11
167.05
21
-69.9
0
LINE
8
0
10
162.0216986
20
-119.5643347
11
175.3143347
21
-123.6283014
0
LINE
8
0
10
175.3143347
20
-123.6283014
11
179.3783014
21
-110.3356653
0
LINE
8
0
10
179.3783014
20
-110.3356653
11
166.0856653
21
-106.2716986
0
LINE
8
0
10
166.0856653
20
-106.2716986
11
162.0216986
21
-119.5643347
0
LINE
8
0
10
179.7276391
20
-125.4351359
11
192.1126298
21
-131.7456038
0
LINE
8
0
10
192.1126298
20
-131.7456038
11
198.4230977
21
-119.3606131
0
LINE
8
0
10
198.4230977
20
-119.3606131
11
186.038107
21
-113.0501452
0
LINE
8
0
10
186.038107
20
-113.0501452
11
179.7276391
21
-125.4351359
0
LINE
8
0
10
188.25
20
-97.65
11
199.05
21
-97.65
0
LINE
8
0
10
199.05
20
-97.65
11
199.05
21
-72.35
0
LINE
8
0
10
199.05
20
-72.35
11
188.25
21
-72.35
0
LINE
8
0
10
188.25
20
-72.35
11
188.25
21
-97.65
0
ENDSEC
0
EOF