0
SECTION
2
HEADER
9
$INSUNITS
70
4
0
ENDSEC
0
SECTION
2
TABLES
0
TABLE
2
LTYPE
0
LTYPE
72
65
70
64
2
CONTINUOUS
3
______
73
0
40
0
0
ENDTAB
0
TABLE
2
LAYER
0
ENDTAB
0
ENDSEC
0
SECTION
2
ENTITIES
0
LINE
8
0
10
190.3330289
20
-136.6064564
11
91.6321221
21
-92.8725779
0
LINE
8
0
10
89.55
20
-89.6726369
11
89.55
21
-58.6923717
0
LINE
8
0
10
184.0390866
20
-53.7
11
200.049591
21
-53.7
0
LINE
8
0
10
203.549591
20
-57.2004088
11
203.5422995
21
-119.6077296
0
LINE
8
0
10
203.042385
20
-121.4099541
11
194.7509924
21
-135.2091488
0
ARC
8
0
10
93.05
20
-89.6726369
40
3.5
50
180
51
246.1021063
0
ARC
8
0
10
200.049591
20
-57.2
40
3.5
50
359.9933078
51
90
0
ARC
8
0
10
200.0422995
20
-119.6073208
40
3.5
50
328.9999987
51
359.9933079
0
ARC
8
0
10
191.7509068
20
-133.4065154
40
3.5
50
246.1021063
51
328.9999987
0
ARC
8
0
10
138
20
-104.25
40
67.5
50
49.576075
51
134.6153472
0
ARC
8
0
10
93.05
20
-58.6923717
40
3.5
50
134.6153472
51
180
0
ARC
8
0
10
184.0390866
20
-50.2
40
3.5
50
229.576075
51
270
0
LINE
8
0
10
91.25
20
-90.75
11
108.75
21
-90.75
0
LINE
8
0
10
108.75
20
-90.75
11
108.75
21
-74.25
0
LINE
8
0
10
108.75
20
-74.25
11
91.25
21
-74.25
0
LINE
8
0
10
91.25
20
-74.25
11
91.25
21
-90.75
0
LINE
8
0
10
91.25
20
-73.25
11
108.75
21
-73.25
0
LINE
8
0
10
108.75
20
-73.25
11
108.75
21
-56.75
0
LINE
8
0
10
108.75
20
-56.75
11
91.25
21
-56.75
0
LINE
8
0
10
91.25
20
-56.75
11
91.25
21
-73.25
0
LINE
8
0
10
109.75
20
-97
11
127.25
21
-97
0
LINE
8
0
10
127.25
20
-97
11
127.25
21
-80.5
0
LINE
8
0
10
127.25
20
-80.5
11
109.75
21
-80.5
0
LINE
8
0
10
109.75
20
-80.5
11
109.75
21
-97
0
LINE
8
0
10
109.75
20
-79.5
11
127.25
21
-79.5
0
LINE
8
0
10
127.25
20
-79.5
11
127.25
21
-63
0
LINE
8
0
10
127.25
20
-63
11
109.75
21
-63
0
LINE
8
0
10
109.75
20
-63
11
109.75
21
-79.5
0
LINE
8
0
10
109.75
20
-62
11
127.25
21
-62
0
LINE
8
0
10
127.25
20
-62
11
127.25
21
-45.5
0
LINE
8
0
10
127.25
20
-45.5
11
109.75
21
-45.5
0
LINE
8
0
10
109.75
20
-45.5
11
109.75
21
-62
0
LINE
8
0
10
128.25
20
-91
11
145.75
21
-91
0
LINE
8
0
10
145.75
20
-91
11
145.75
21
-74.5
0
LINE
8
0
10
145.75
20
-74.5
11
128.25
21
-74.5
0
LINE
8
0
10
128.25
20
-74.5
11
128.25
21
-91
0
LINE
8
0
10
128.25
20
-73.5
11
145.75
21
-73.5
0
LINE
8
0
10
145.75
20
-73.5
11
145.75
21
-57
0
LINE
8
0
10
145.75
20
-57
11
128.25
21
-57
0
LINE
8
0
10
128.25
20
-57
11
128.25
21
-73.5
0
LINE
8
0
10
128.25
20
-56
11
145.75
21
-56
0
LINE
8
0
10
145.75
20
-56
11
145.75
21
-39.5
0
LINE
8
0
10
145.75
20
-39.5
11
128.25
21
-39.5
0
LINE
8
0
10
128.25
20
-39.5
11
128.25
21
-56
0
LINE
8
0
10
146.75
20
-98.2
11
164.25
21
-98.2
0
LINE
8
0
10
164.25
20
-98.2
11
164.25
21
-81.7
0
LINE
8
0
10
164.25
20
-81.7
11
146.75
21
-81.7
0
LINE
8
0
10
146.75
20
-81.7
11
146.75
21
-98.2
0
LINE
8
0
10
146.75
20
-80.7
11
164.25
21
-80.7
0
LINE
8
0
10
164.25
20
-80.7
11
164.25
21
-64.2
0
LINE
8
0
10
164.25
20
-64.2
11
146.75
21
-64.2
0
LINE
8
0
10
146.75
20
-64.2
11
146.75
21
-80.7
0
LINE
8
0
10
146.75
20
-63.2
11
164.25
21
-63.2
0
LINE
8
0
10
164.25
20
-63.2
11
164.25
21
-46.7
0
LINE
8
0
10
164.25
20
-46.7
11
146.75
21
-46.7
0
LINE
8
0
10
146.75
20
-46.7
11
146.75
21
-63.2
0
LINE
8
0
10
165.25
20
-90.7
11
182.75
21
-90.7
0
LINE
8
0
10
182.75
20
-90.7
11
182.75
21
-74.2
0
LINE
8
0
10
182.75
20
-74.2
11
165.25
21
-74.2
0
LINE
8
0
10
165.25
20
-74.2
11
165.25
21
-90.7
0
LINE
8
0
10
165.25
20
-73.2
11
182.75
21
-73.2
0
LINE
8
0
10
182.75
20
-73.2
11
182.75
21
-56.7
0
LINE
8
0
10
182.75
20
-56.7
11
165.25
21
-56.7
0
LINE
8
0
10
165.25
20
-56.7
11
165.25
21
-73.2
0
LINE
8
0
10
160.1788653
20
-120.0923176
11
176.8223543
21
-125.500115
0
LINE
8
0
10
176.8223543
20
-125.500115
11
181.9211347
21
-109.8076824
0
LINE
8
0
10
181.9211347
20
-109.8076824
11
165.2776457
21
-104.399885
0
LINE
8
0
10
165.2776457
20
-104.399885
11
160.1788653
21
-120.0923176
0
LINE
8
0
10
177.3888
20
-125.7580099
11
192.3892278
21
-134.7711762
0
LINE
8
0
10
192.3892278
20
-134.7711762
11
200.887356
21
-120.6279157
0
LINE
8
0
10
200.887356
20
-120.6279157
11
185.8869282
21
-111.6147494
0
LINE
8
0
10
185.8869282
20
-111.6147494
11
177.3888
21
-125.7580099
0
LINE
8
0
10
184.5
20
-89.25
11
202.8
21
-89.25
0
LINE
8
0
10
202.8
20
-89.25
11
202.8
21
-55.15
0
LINE
8
0
10
202.8
20
-55.15
11
184.5
21
-55.15
0
LINE
8
0
10
184.5
20
-55.15
11
184.5
21
-89.25
0
LINE
8
0
10
186.65
20
-94.25
11
200.65
21
-94.25
0
LINE
8
0
10
200.65
20
-94.25
11
200.65
21
-58.25
0
LINE
8
0
10
200.65
20
-58.25
11
186.65
21
-58.25
0
LINE
8
0
10
186.65
20
-58.25
11
186.65
21
-94.25
0
LINE
8
0
10
188.25
20
-89.65
11
199.05
21
-89.65
0
LINE
8
0
10
199.05
20
-89.65
11
199.05
21
-64.35
0
LINE
8
0
10
199.05
20
-64.35
11
188.25
21
-64.35
0
LINE
8
0
10
188.25
20
-64.35
11
188.25
21
-89.65
0
LINE
8
0
10
198.5
20
-57.875
11
198.5
21
-53.325
0
LINE
8
0
10
198.5
20
-53.325
11
189.7
21
-53.325
0
LINE
8
0
10
189.7
20
-53.325
11
189.7
21
-57.875
0
LINE
8
0
10
189.7
20
-57.875
11
198.5
21
-57.875
0
LINE
8
0
10
180.05
20
-62
11
180.05
21
-51.65
0
LINE
8
0
10
180.05
20
-51.65
11
173.15
21
-51.65
0
LINE
8
0
10
173.15
20
-62
11
173.15
21
-51.65
0
LINE
8
0
10
173.15
20
-62
11
180.05
21
-62
0
LINE
8
0
10
188.75
20
-56.95
11
188.75
21
-53.55
0
LINE
8
0
10
188.75
20
-53.55
11
183.25
21
-53.55
0
LINE
8
0
10
183.25
20
-53.55
11
183.25
21
-56.95
0
LINE
8
0
10
183.25
20
-56.95
11
188.75
21
-56.95
0
CIRCLE
8
0
10
103.6
20
-54.35
40
2.15
0
CIRCLE
8
0
10
103.6
20
-93.15
40
2.15
0
CIRCLE
8
0
10
118.5
20
-43.1
40
2.15
0
CIRCLE
8
0
10
118.5
20
-99.4
40
2.15
0
CIRCLE
8
0
10
155.5
20
-44.3
40
2.15
0
CIRCLE
8
0
10
155.5
20
-100.6
40
2.15
0
CIRCLE
8
0
10
170.4
20
-54.3
40
2.15
0
CIRCLE
8
0
10
170.4
20
-93.1
40
2.15
0
CIRCLE
8
0
10
176.9888656
20
-126.60568
40
2.15
0
CIRCLE
8
0
10
200.65
20
-55.95
40
2.15
0
CIRCLE
8
0
10
103.6
20
-54.35
40
1
0
CIRCLE
8
0
10
103.6
20
-93.15
40
1
0
CIRCLE
8
0
10
118.5
20
-43.1
40
1
0
CIRCLE
8
0
10
118.5
20
-99.4
40
1
0
CIRCLE
8
0
10
155.5
20
-44.3
40
1
0
CIRCLE
8
0
10
155.5
20
-100.6
40
1
0
CIRCLE
8
0
10
170.4
20
-54.3
40
1
0
CIRCLE
8
0
10
170.4
20
-93.1
40
1
0
CIRCLE
8
0
10
176.9888656
20
-126.60568
40
1
0
CIRCLE
8
0
10
200.65
20
-55.95
40
1
0
LINE
8
0
10
93.05
20
-89.45
11
106.95
21
-89.45
0
LINE
8
0
10
106.95
20
-89.45
11
106.95
21
-75.55
0
LINE
8
0
10
106.95
20
-75.55
11
93.05
21
-75.55
0
LINE
8
0
10
93.05
20
-75.55
11
93.05
21
-89.45
0
LINE
8
0
10
93.05
20
-71.95
11
106.95
21
-71.95
0
LINE
8
0
10
106.95
20
-71.95
11
106.95
21
-58.05
0
LINE
8
0
10
106.95
20
-58.05
11
93.05
21
-58.05
0
LINE
8
0
10
93.05
20
-58.05
11
93.05
21
-71.95
0
LINE
8
0
10
111.55
20
-95.7
11
125.45
21
-95.7
0
LINE
8
0
10
125.45
20
-95.7
11
125.45
21
-81.8
0
LINE
8
0
10
125.45
20
-81.8
11
111.55
21
-81.8
0
LINE
8
0
10
111.55
20
-81.8
11
111.55
21
-95.7
0
LINE
8
0
10
111.55
20
-78.2
11
125.45
21
-78.2
0
LINE
8
0
10
125.45
20
-78.2
11
125.45
21
-64.3
0
LINE
8
0
10
125.45
20
-64.3
11
111.55
21
-64.3
0
LINE
8
0
10
111.55
20
-64.3
11
111.55
21
-78.2
0
LINE
8
0
10
111.55
20
-60.7
11
125.45
21
-60.7
0
LINE
8
0
10
125.45
20
-60.7
11
125.45
21
-46.8
0
LINE
8
0
10
125.45
20
-46.8
11
111.55
21
-46.8
0
LINE
8
0
10
111.55
20
-46.8
11
111.55
21
-60.7
0
LINE
8
0
10
130.05
20
-89.7
11
143.95
21
-89.7
0
LINE
8
0
10
143.95
20
-89.7
11
143.95
21
-75.8
0
LINE
8
0
10
143.95
20
-75.8
11
130.05
21
-75.8
0
LINE
8
0
10
130.05
20
-75.8
11
130.05
21
-89.7
0
LINE
8
0
10
130.05
20
-72.2
11
143.95
21
-72.2
0
LINE
8
0
10
143.95
20
-72.2
11
143.95
21
-58.3
0
LINE
8
0
10
143.95
20
-58.3
11
130.05
21
-58.3
0
LINE
8
0
10
130.05
20
-58.3
11
130.05
21
-72.2
0
LINE
8
0
10
130.05
20
-54.7
11
143.95
21
-54.7
0
LINE
8
0
10
143.95
20
-54.7
11
143.95
21
-40.8
0
LINE
8
0
10
143.95
20
-40.8
11
130.05
21
-40.8
0
LINE
8
0
10
130.05
20
-40.8
11
130.05
21
-54.7
0
LINE
8
0
10
148.55
20
-96.9
11
162.45
21
-96.9
0
LINE
8
0
10
162.45
20
-96.9
11
162.45
21
-83
0
LINE
8
0
10
162.45
20
-83
11
148.55
21
-83
0
LINE
8
0
10
148.55
20
-83
11
148.55
21
-96.9
0
LINE
8
0
10
148.55
20
-79.4
11
162.45
21
-79.4
0
LINE
8
0
10
162.45
20
-79.4
11
162.45
21
-65.5
0
LINE
8
0
10
162.45
20
-65.5
11
148.55
21
-65.5
0
LINE
8
0
10
148.55
20
-65.5
11
148.55
21
-79.4
0
LINE
8
0
10
148.55
20
-61.9
11
162.45
21
-61.9
0
LINE
8
0
10
162.45
20
-61.9
11
162.45
21
-48
0
LINE
8
0
10
162.45
20
-48
11
148.55
21
-48
0
LINE
8
0
10
148.55
20
-48
11
148.55
21
-61.9
0
LINE
8
0
10
167.05
20
-89.4
11
180.95
21
-89.4
0
LINE
8
0
10
180.95
20
-89.4
11
180.95
21
-75.5
0
LINE
8
0
10
180.95
20
-75.5
11
167.05
21
-75.5
0
LINE
8
0
10
167.05
20
-75.5
11
167.05
21
-89.4
0
LINE
8
0
10
167.05
20
-71.9
11
180.95
21
-71.9
0
LINE
8
0
10
180.95
20
-71.9
11
180.95
21
-58
0
LINE
8
0
10
180.95
20
-58
11
167.05
21
-58
0
LINE
8
0
10
167.05
20
-58
11
167.05
21
-71.9
0
LINE
8
0
10
162.2924891
20
-119.4121747
11
175.5121747
21
-123.7075109
0
LINE
8
0
10
175.5121747
20
-123.7075109
11
179.8075109
21
-110.4878253
0
LINE
8
0
10
179.8075109
20
-110.4878253
11
166.5878253
21
-106.1924891
0
LINE
8
0
10
166.5878253
20
-106.1924891
11
162.2924891
21
-119.4121747
0
LINE
8
0
10
179.6012506
20
-125.5707609
11
191.5158761
21
-132.7297902
0
LINE
8
0
10
191.5158761
20
-132.7297902
11
198.6749054
21
-120.8151647
0
LINE
8
0
10
198.6749054
20
-120.8151647
11
186.7602799
21
-113.6561354
0
LINE
8
0
10
186.7602799
20
-113.6561354
11
179.6012506
21
-125.5707609
0
ENDSEC
0
EOF