0
SECTION
2
HEADER
9
$INSUNITS
70
4
0
ENDSEC
0
SECTION
2
TABLES
0
TABLE
2
LTYPE
0
LTYPE
72
65
70
64
2
CONTINUOUS
3
______
73
0
40
0
0
ENDTAB
0
TABLE
2
LAYER
0
ENDTAB
0
ENDSEC
0
SECTION
2
ENTITIES
0
LINE
8
0
10
191.4662752
20
-135.4991454
11
91.7029271
21
-93.8977718
0
LINE
8
0
10
89.55
20
-90.6673857
11
89.55
21
-58.6923717
0
LINE
8
0
10
187.45
20
-60.2
11
200.0480134
21
-60.2
0
LINE
8
0
10
203.5480128
20
-63.7019859
11
203.5171266
21
-118.1325328
0
LINE
8
0
10
203.13565
20
-119.7195136
11
195.931871
21
-133.8577261
0
ARC
8
0
10
93.05
20
-90.6673857
40
3.5
50
180
51
247.3638344
0
ARC
8
0
10
200.0480134
20
-63.7
40
3.5
50
359.9674904
51
90
0
ARC
8
0
10
200.0171272
20
-118.1305469
40
3.5
50
332.9999994
51
359.9674904
0
ARC
8
0
10
192.8133481
20
-132.2687593
40
3.5
50
247.3638344
51
332.9999994
0
LINE
8
0
10
183.95
20
-56.7
11
183.95
21
-56.354306
0
ARC
8
0
10
138
20
-104.25
40
67.5
50
48.4493977
51
134.6153472
0
ARC
8
0
10
93.05
20
-58.6923717
40
3.5
50
134.6153472
51
180
0
ARC
8
0
10
180.45
20
-56.354306
40
3.5
50
0
51
48.4493977
0
ARC
8
0
10
187.45
20
-56.7
40
3.5
50
180
51
270
0
LINE
8
0
10
91.25
20
-90.75
11
108.75
21
-90.75
0
LINE
8
0
10
108.75
20
-90.75
11
108.75
21
-74.25
0
LINE
8
0
10
108.75
20
-74.25
11
91.25
21
-74.25
0
LINE
8
0
10
91.25
20
-74.25
11
91.25
21
-90.75
0
LINE
8
0
10
91.25
20
-73.25
11
108.75
21
-73.25
0
LINE
8
0
10
108.75
20
-73.25
11
108.75
21
-56.75
0
LINE
8
0
10
108.75
20
-56.75
11
91.25
21
-56.75
0
LINE
8
0
10
91.25
20
-56.75
11
91.25
21
-73.25
0
LINE
8
0
10
109.75
20
-97
11
127.25
21
-97
0
LINE
8
0
10
127.25
20
-97
11
127.25
21
-80.5
0
LINE
8
0
10
127.25
20
-80.5
11
109.75
21
-80.5
0
LINE
8
0
10
109.75
20
-80.5
11
109.75
21
-97
0
LINE
8
0
10
109.75
20
-79.5
11
127.25
21
-79.5
0
LINE
8
0
10
127.25
20
-79.5
11
127.25
21
-63
0
LINE
8
0
10
127.25
20
-63
11
109.75
21
-63
0
LINE
8
0
10
109.75
20
-63
11
109.75
21
-79.5
0
LINE
8
0
10
109.75
20
-62
11
127.25
21
-62
0
LINE
8
0
10
127.25
20
-62
11
127.25
21
-45.5
0
LINE
8
0
10
127.25
20
-45.5
11
109.75
21
-45.5
0
LINE
8
0
10
109.75
20
-45.5
11
109.75
21
-62
0
LINE
8
0
10
128.25
20
-91
11
145.75
21
-91
0
LINE
8
0
10
145.75
20
-91
11
145.75
21
-74.5
0
LINE
8
0
10
145.75
20
-74.5
11
128.25
21
-74.5
0
LINE
8
0
10
128.25
20
-74.5
11
128.25
21
-91
0
LINE
8
0
10
128.25
20
-73.5
11
145.75
21
-73.5
0
LINE
8
0
10
145.75
20
-73.5
11
145.75
21
-57
0
LINE
8
0
10
145.75
20
-57
11
128.25
21
-57
0
LINE
8
0
10
128.25
20
-57
11
128.25
21
-73.5
0
LINE
8
0
10
128.25
20
-56
11
145.75
21
-56
0
LINE
8
0
10
145.75
20
-56
11
145.75
21
-39.5
0
LINE
8
0
10
145.75
20
-39.5
11
128.25
21
-39.5
0
LINE
8
0
10
128.25
20
-39.5
11
128.25
21
-56
0
LINE
8
0
10
146.75
20
-98.2
11
164.25
21
-98.2
0
LINE
8
0
10
164.25
20
-98.2
11
164.25
21
-81.7
0
LINE
8
0
10
164.25
20
-81.7
11
146.75
21
-81.7
0
LINE
8
0
10
146.75
20
-81.7
11
146.75
21
-98.2
0
LINE
8
0
10
146.75
20
-80.7
11
164.25
21
-80.7
0
LINE
8
0
10
164.25
20
-80.7
11
164.25
21
-64.2
0
LINE
8
0
10
164.25
20
-64.2
11
146.75
21
-64.2
0
LINE
8
0
10
146.75
20
-64.2
11
146.75
21
-80.7
0
LINE
8
0
10
146.75
20
-63.2
11
164.25
21
-63.2
0
LINE
8
0
10
164.25
20
-63.2
11
164.25
21
-46.7
0
LINE
8
0
10
164.25
20
-46.7
11
146.75
21
-46.7
0
LINE
8
0
10
146.75
20
-46.7
11
146.75
21
-63.2
0
LINE
8
0
10
165.25
20
-88.7
11
182.75
21
-88.7
0
LINE
8
0
10
182.75
20
-88.7
11
182.75
21
-72.2
0
LINE
8
0
10
182.75
20
-72.2
11
165.25
21
-72.2
0
LINE
8
0
10
165.25
20
-72.2
11
165.25
21
-88.7
0
LINE
8
0
10
165.25
20
-71.2
11
182.75
21
-71.2
0
LINE
8
0
10
182.75
20
-71.2
11
182.75
21
-54.7
0
LINE
8
0
10
182.75
20
-54.7
11
165.25
21
-54.7
0
LINE
8
0
10
165.25
20
-54.7
11
165.25
21
-71.2
0
LINE
8
0
10
160.2702668
20
-120.2812618
11
177.0056001
21
-125.3977667
0
LINE
8
0
10
177.0056001
20
-125.3977667
11
181.8297332
21
-109.6187382
0
LINE
8
0
10
181.8297332
20
-109.6187382
11
165.0943999
21
-104.5022333
0
LINE
8
0
10
165.0943999
20
-104.5022333
11
160.2702668
21
-120.2812618
0
LINE
8
0
10
177.8836397
20
-125.7762615
11
193.4762539
21
-133.7210952
0
LINE
8
0
10
193.4762539
20
-133.7210952
11
200.9670971
21
-119.0194875
0
LINE
8
0
10
200.9670971
20
-119.0194875
11
185.3744829
21
-111.0746538
0
LINE
8
0
10
185.3744829
20
-111.0746538
11
177.8836397
21
-125.7762615
0
LINE
8
0
10
184.5
20
-95.75
11
202.8
21
-95.75
0
LINE
8
0
10
202.8
20
-95.75
11
202.8
21
-61.65
0
LINE
8
0
10
202.8
20
-61.65
11
184.5
21
-61.65
0
LINE
8
0
10
184.5
20
-61.65
11
184.5
21
-95.75
0
LINE
8
0
10
186.65
20
-102.25
11
200.65
21
-102.25
0
LINE
8
0
10
200.65
20
-102.25
11
200.65
21
-66.25
0
LINE
8
0
10
200.65
20
-66.25
11
186.65
21
-66.25
0
LINE
8
0
10
186.65
20
-66.25
11
186.65
21
-102.25
0
LINE
8
0
10
188.25
20
-97.65
11
199.05
21
-97.65
0
LINE
8
0
10
199.05
20
-97.65
11
199.05
21
-72.35
0
LINE
8
0
10
199.05
20
-72.35
11
188.25
21
-72.35
0
LINE
8
0
10
188.25
20
-72.35
11
188.25
21
-97.65
0
LINE
8
0
10
197.55
20
-64.375
11
197.55
21
-59.825
0
LINE
8
0
10
197.55
20
-59.825
11
188.75
21
-59.825
0
LINE
8
0
10
188.75
20
-59.825
11
188.75
21
-64.375
0
LINE
8
0
10
188.75
20
-64.375
11
197.55
21
-64.375
0
LINE
8
0
10
175
20
-102.15
11
175
21
-91.8
0
LINE
8
0
10
175
20
-102.15
11
181.9
21
-102.15
0
LINE
8
0
10
181.9
20
-102.15
11
181.9
21
-91.8
0
LINE
8
0
10
181.9
20
-91.8
11
175
21
-91.8
0
LINE
8
0
10
100.2166161
20
-52.6046067
11
98.1468273
21
-49.9072054
0
LINE
8
0
10
98.1468273
20
-49.9072054
11
93.7833839
21
-53.2553933
0
LINE
8
0
10
93.7833839
20
-53.2553933
11
95.8531727
21
-55.9527946
0
LINE
8
0
10
95.8531727
20
-55.9527946
11
100.2166161
21
-52.6046067
0
ENDSEC
0
EOF