0
SECTION
2
HEADER
9
$INSUNITS
70
4
0
ENDSEC
0
SECTION
2
TABLES
0
TABLE
2
LTYPE
0
LTYPE
72
65
70
64
2
CONTINUOUS
3
______
73
0
40
0
0
ENDTAB
0
TABLE
2
LAYER
0
ENDTAB
0
ENDSEC
0
SECTION
2
ENTITIES
0
LINE
8
0
10
190.3466983
20
-136.641014
11
112.6467819
21
-103
0
LINE
8
0
10
185.1878957
20
-54.7
11
200.0481491
21
-54.7
0
LINE
8
0
10
203.5481486
20
-58.2018504
11
203.5156969
21
-119.5822572
0
ARC
8
0
10
200.0481491
20
-58.2
40
3.5
50
359.9697077
51
90
0
ARC
8
0
10
191.7373169
20
-133.429133
40
3.5
50
246.5892797
51
267.8840492
0
ARC
8
0
10
138
20
-104.25
40
67.5
50
116.8625591
51
132.5203755
0
ARC
8
0
10
138
20
-104.25
40
67.5
50
83.0218678
51
96.9781322
0
ARC
8
0
10
138
20
-104.25
40
67.5
50
100.2403483
51
115.3507443
0
ARC
8
0
10
138
20
-104.25
40
67.5
50
50.1216437
51
81.4803757
0
ARC
8
0
10
185.1878957
20
-51.2
40
3.5
50
266.9226261
51
270
0
LINE
8
0
10
121
20
-99.25
11
121
21
-103
0
LINE
8
0
10
112.6467819
20
-103
11
121
21
-103
0
LINE
8
0
10
97.5
20
-54.5
11
92.379966
21
-54.5
0
LINE
8
0
10
121
20
-99.25
11
129.5
21
-99.25
0
LINE
8
0
10
129.5
20
-99.25
11
129.5
21
-93.25
0
LINE
8
0
10
97.5
20
-50.75
11
107.5
21
-50.75
0
LINE
8
0
10
97.5
20
-54.5
11
97.5
21
-50.75
0
LINE
8
0
10
109.0993079
20
-43.25
11
126
21
-43.25
0
LINE
8
0
10
107.5
20
-44.0337232
11
107.5
21
-50.75
0
LINE
8
0
10
129.5
20
-93.25
11
144.5
21
-93.25
0
LINE
8
0
10
148
20
-44.45
11
148.0000001
21
-37.4948504
0
LINE
8
0
10
146.2006097
20
-37.25
11
129.7993903
21
-37.25
0
LINE
8
0
10
126
20
-37.8252305
11
126
21
-43.25
0
LINE
8
0
10
144.5
20
-100.45
11
153
21
-100.45
0
LINE
8
0
10
144.5
20
-93.25
11
144.5
21
-100.45
0
LINE
8
0
10
166.5
20
-51.95
11
176.5
21
-51.95
0
LINE
8
0
10
176.5
20
-51.95
11
176.5
21
-52.45
0
LINE
8
0
10
166.5
20
-51.95
11
166.5
21
-44.45
0
LINE
8
0
10
148
20
-44.45
11
166.5
21
-44.45
0
LINE
8
0
10
185
20
-100.95
11
185
21
-54.6949528
0
LINE
8
0
10
153
20
-100.95
11
185
21
-100.95
0
LINE
8
0
10
153
20
-100.95
11
153
21
-100.45
0
LINE
8
0
10
181.2782856
20
-52.45
11
176.5
21
-52.45
0
LINE
8
0
10
157.3436999
20
-121.5369065
11
176.1820902
21
-127.6578706
0
LINE
8
0
10
184.215246
20
-110.0282868
11
184.7563001
21
-108.3630935
0
LINE
8
0
10
184.7563001
20
-108.3630935
11
163.8330568
21
-101.5647196
0
LINE
8
0
10
163.8330568
20
-101.5647196
11
157.3436999
21
-121.5369065
0
LINE
8
0
10
176.1820902
20
-127.6578706
11
191.6080902
21
-136.9267465
0
LINE
8
0
10
203.5156969
20
-119.5822572
11
185.1171375
21
-108.5272873
0
LINE
8
0
10
185.1171375
20
-108.5272873
11
184.215246
21
-110.0282868
0
LINE
8
0
10
91.25
20
-90.75
11
108.75
21
-90.75
0
LINE
8
0
10
108.75
20
-90.75
11
108.75
21
-74.25
0
LINE
8
0
10
108.75
20
-74.25
11
91.25
21
-74.25
0
LINE
8
0
10
91.25
20
-74.25
11
91.25
21
-90.75
0
LINE
8
0
10
91.25
20
-73.25
11
108.75
21
-73.25
0
LINE
8
0
10
108.75
20
-73.25
11
108.75
21
-56.75
0
LINE
8
0
10
108.75
20
-56.75
11
91.25
21
-56.75
0
LINE
8
0
10
91.25
20
-56.75
11
91.25
21
-73.25
0
LINE
8
0
10
109.75
20
-97
11
127.25
21
-97
0
LINE
8
0
10
127.25
20
-97
11
127.25
21
-80.5
0
LINE
8
0
10
127.25
20
-80.5
11
109.75
21
-80.5
0
LINE
8
0
10
109.75
20
-80.5
11
109.75
21
-97
0
LINE
8
0
10
109.75
20
-79.5
11
127.25
21
-79.5
0
LINE
8
0
10
127.25
20
-79.5
11
127.25
21
-63
0
LINE
8
0
10
127.25
20
-63
11
109.75
21
-63
0
LINE
8
0
10
109.75
20
-63
11
109.75
21
-79.5
0
LINE
8
0
10
109.75
20
-62
11
127.25
21
-62
0
LINE
8
0
10
127.25
20
-62
11
127.25
21
-45.5
0
LINE
8
0
10
127.25
20
-45.5
11
109.75
21
-45.5
0
LINE
8
0
10
109.75
20
-45.5
11
109.75
21
-62
0
LINE
8
0
10
128.25
20
-91
11
145.75
21
-91
0
LINE
8
0
10
145.75
20
-91
11
145.75
21
-74.5
0
LINE
8
0
10
145.75
20
-74.5
11
128.25
21
-74.5
0
LINE
8
0
10
128.25
20
-74.5
11
128.25
21
-91
0
LINE
8
0
10
128.25
20
-73.5
11
145.75
21
-73.5
0
LINE
8
0
10
145.75
20
-73.5
11
145.75
21
-57
0
LINE
8
0
10
145.75
20
-57
11
128.25
21
-57
0
LINE
8
0
10
128.25
20
-57
11
128.25
21
-73.5
0
LINE
8
0
10
128.25
20
-56
11
145.75
21
-56
0
LINE
8
0
10
145.75
20
-56
11
145.75
21
-39.5
0
LINE
8
0
10
145.75
20
-39.5
11
128.25
21
-39.5
0
LINE
8
0
10
128.25
20
-39.5
11
128.25
21
-56
0
LINE
8
0
10
146.75
20
-98.2
11
164.25
21
-98.2
0
LINE
8
0
10
164.25
20
-98.2
11
164.25
21
-81.7
0
LINE
8
0
10
164.25
20
-81.7
11
146.75
21
-81.7
0
LINE
8
0
10
146.75
20
-81.7
11
146.75
21
-98.2
0
LINE
8
0
10
146.75
20
-80.7
11
164.25
21
-80.7
0
LINE
8
0
10
164.25
20
-80.7
11
164.25
21
-64.2
0
LINE
8
0
10
164.25
20
-64.2
11
146.75
21
-64.2
0
LINE
8
0
10
146.75
20
-64.2
11
146.75
21
-80.7
0
LINE
8
0
10
146.75
20
-63.2
11
164.25
21
-63.2
0
LINE
8
0
10
164.25
20
-63.2
11
164.25
21
-46.7
0
LINE
8
0
10
164.25
20
-46.7
11
146.75
21
-46.7
0
LINE
8
0
10
146.75
20
-46.7
11
146.75
21
-63.2
0
LINE
8
0
10
165.25
20
-88.7
11
182.75
21
-88.7
0
LINE
8
0
10
182.75
20
-88.7
11
182.75
21
-72.2
0
LINE
8
0
10
182.75
20
-72.2
11
165.25
21
-72.2
0
LINE
8
0
10
165.25
20
-72.2
11
165.25
21
-88.7
0
LINE
8
0
10
165.25
20
-71.2
11
182.75
21
-71.2
0
LINE
8
0
10
182.75
20
-71.2
11
182.75
21
-54.7
0
LINE
8
0
10
182.75
20
-54.7
11
165.25
21
-54.7
0
LINE
8
0
10
165.25
20
-54.7
11
165.25
21
-71.2
0
LINE
8
0
10
160.1788653
20
-120.0923176
11
176.8223543
21
-125.500115
0
LINE
8
0
10
176.8223543
20
-125.500115
11
181.9211347
21
-109.8076824
0
LINE
8
0
10
181.9211347
20
-109.8076824
11
165.2776457
21
-104.399885
0
LINE
8
0
10
165.2776457
20
-104.399885
11
160.1788653
21
-120.0923176
0
LINE
8
0
10
177.3888
20
-125.7580099
11
192.3892278
21
-134.7711762
0
LINE
8
0
10
192.3892278
20
-134.7711762
11
200.887356
21
-120.6279157
0
LINE
8
0
10
200.887356
20
-120.6279157
11
185.8869282
21
-111.6147494
0
LINE
8
0
10
185.8869282
20
-111.6147494
11
177.3888
21
-125.7580099
0
ENDSEC
0
EOF