0
SECTION
2
HEADER
9
$INSUNITS
70
4
0
ENDSEC
0
SECTION
2
TABLES
0
TABLE
2
LTYPE
0
LTYPE
72
65
70
64
2
CONTINUOUS
3
______
73
0
40
0
0
ENDTAB
0
TABLE
2
LAYER
0
ENDTAB
0
ENDSEC
0
SECTION
2
ENTITIES
0
LINE
8
0
10
190.3466983
20
-136.641014
11
91.6593814
21
-93.9132794
0
LINE
8
0
10
89.55
20
-90.7013983
11
89.55
21
-58.6923717
0
LINE
8
0
10
185.1878957
20
-54.7
11
200.0481491
21
-54.7
0
LINE
8
0
10
203.5481486
20
-58.2018504
11
203.5156592
21
-119.6535072
0
LINE
8
0
10
203.0157453
20
-121.4542901
11
194.7374024
21
-135.2317663
0
ARC
8
0
10
93.05
20
-90.7013983
40
3.5
50
180
51
246.5892797
0
ARC
8
0
10
200.0481491
20
-58.2
40
3.5
50
359.9697077
51
90
0
ARC
8
0
10
200.0156597
20
-119.6516568
40
3.5
50
328.9999987
51
359.9697077
0
ARC
8
0
10
191.7373169
20
-133.429133
40
3.5
50
246.5892797
51
328.9999987
0
ARC
8
0
10
138
20
-104.25
40
67.5
50
48.3469548
51
134.6153472
0
ARC
8
0
10
93.05
20
-58.6923717
40
3.5
50
134.6153472
51
180
0
ARC
8
0
10
185.1878957
20
-51.2
40
3.5
50
228.3469548
51
270
0
LINE
8
0
10
91.25
20
-90.75
11
108.75
21
-90.75
0
LINE
8
0
10
108.75
20
-90.75
11
108.75
21
-74.25
0
LINE
8
0
10
108.75
20
-74.25
11
91.25
21
-74.25
0
LINE
8
0
10
91.25
20
-74.25
11
91.25
21
-90.75
0
LINE
8
0
10
91.25
20
-73.25
11
108.75
21
-73.25
0
LINE
8
0
10
108.75
20
-73.25
11
108.75
21
-56.75
0
LINE
8
0
10
108.75
20
-56.75
11
91.25
21
-56.75
0
LINE
8
0
10
91.25
20
-56.75
11
91.25
21
-73.25
0
LINE
8
0
10
109.75
20
-97
11
127.25
21
-97
0
LINE
8
0
10
127.25
20
-97
11
127.25
21
-80.5
0
LINE
8
0
10
127.25
20
-80.5
11
109.75
21
-80.5
0
LINE
8
0
10
109.75
20
-80.5
11
109.75
21
-97
0
LINE
8
0
10
109.75
20
-79.5
11
127.25
21
-79.5
0
LINE
8
0
10
127.25
20
-79.5
11
127.25
21
-63
0
LINE
8
0
10
127.25
20
-63
11
109.75
21
-63
0
LINE
8
0
10
109.75
20
-63
11
109.75
21
-79.5
0
LINE
8
0
10
109.75
20
-62
11
127.25
21
-62
0
LINE
8
0
10
127.25
20
-62
11
127.25
21
-45.5
0
LINE
8
0
10
127.25
20
-45.5
11
109.75
21
-45.5
0
LINE
8
0
10
109.75
20
-45.5
11
109.75
21
-62
0
LINE
8
0
10
128.25
20
-91
11
145.75
21
-91
0
LINE
8
0
10
145.75
20
-91
11
145.75
21
-74.5
0
LINE
8
0
10
145.75
20
-74.5
11
128.25
21
-74.5
0
LINE
8
0
10
128.25
20
-74.5
11
128.25
21
-91
0
LINE
8
0
10
128.25
20
-73.5
11
145.75
21
-73.5
0
LINE
8
0
10
145.75
20
-73.5
11
145.75
21
-57
0
LINE
8
0
10
145.75
20
-57
11
128.25
21
-57
0
LINE
8
0
10
128.25
20
-57
11
128.25
21
-73.5
0
LINE
8
0
10
128.25
20
-56
11
145.75
21
-56
0
LINE
8
0
10
145.75
20
-56
11
145.75
21
-39.5
0
LINE
8
0
10
145.75
20
-39.5
11
128.25
21
-39.5
0
LINE
8
0
10
128.25
20
-39.5
11
128.25
21
-56
0
LINE
8
0
10
146.75
20
-98.2
11
164.25
21
-98.2
0
LINE
8
0
10
164.25
20
-98.2
11
164.25
21
-81.7
0
LINE
8
0
10
164.25
20
-81.7
11
146.75
21
-81.7
0
LINE
8
0
10
146.75
20
-81.7
11
146.75
21
-98.2
0
LINE
8
0
10
146.75
20
-80.7
11
164.25
21
-80.7
0
LINE
8
0
10
164.25
20
-80.7
11
164.25
21
-64.2
0
LINE
8
0
10
164.25
20
-64.2
11
146.75
21
-64.2
0
LINE
8
0
10
146.75
20
-64.2
11
146.75
21
-80.7
0
LINE
8
0
10
146.75
20
-63.2
11
164.25
21
-63.2
0
LINE
8
0
10
164.25
20
-63.2
11
164.25
21
-46.7
0
LINE
8
0
10
164.25
20
-46.7
11
146.75
21
-46.7
0
LINE
8
0
10
146.75
20
-46.7
11
146.75
21
-63.2
0
LINE
8
0
10
165.25
20
-88.7
11
182.75
21
-88.7
0
LINE
8
0
10
182.75
20
-88.7
11
182.75
21
-72.2
0
LINE
8
0
10
182.75
20
-72.2
11
165.25
21
-72.2
0
LINE
8
0
10
165.25
20
-72.2
11
165.25
21
-88.7
0
LINE
8
0
10
165.25
20
-71.2
11
182.75
21
-71.2
0
LINE
8
0
10
182.75
20
-71.2
11
182.75
21
-54.7
0
LINE
8
0
10
182.75
20
-54.7
11
165.25
21
-54.7
0
LINE
8
0
10
165.25
20
-54.7
11
165.25
21
-71.2
0
LINE
8
0
10
160.1788653
20
-120.0923176
11
176.8223543
21
-125.500115
0
LINE
8
0
10
176.8223543
20
-125.500115
11
181.9211347
21
-109.8076824
0
LINE
8
0
10
181.9211347
20
-109.8076824
11
165.2776457
21
-104.399885
0
LINE
8
0
10
165.2776457
20
-104.399885
11
160.1788653
21
-120.0923176
0
LINE
8
0
10
177.3888
20
-125.7580099
11
192.3892278
21
-134.7711762
0
LINE
8
0
10
192.3892278
20
-134.7711762
11
200.887356
21
-120.6279157
0
LINE
8
0
10
200.887356
20
-120.6279157
11
185.8869282
21
-111.6147494
0
LINE
8
0
10
185.8869282
20
-111.6147494
11
177.3888
21
-125.7580099
0
LINE
8
0
10
184.5
20
-90.25
11
202.8
21
-90.25
0
LINE
8
0
10
202.8
20
-90.25
11
202.8
21
-56.15
0
LINE
8
0
10
202.8
20
-56.15
11
184.5
21
-56.15
0
LINE
8
0
10
184.5
20
-56.15
11
184.5
21
-90.25
0
LINE
8
0
10
186.65
20
-95.25
11
200.65
21
-95.25
0
LINE
8
0
10
200.65
20
-95.25
11
200.65
21
-59.25
0
LINE
8
0
10
200.65
20
-59.25
11
186.65
21
-59.25
0
LINE
8
0
10
186.65
20
-59.25
11
186.65
21
-95.25
0
LINE
8
0
10
188.25
20
-90.65
11
199.05
21
-90.65
0
LINE
8
0
10
199.05
20
-90.65
11
199.05
21
-65.35
0
LINE
8
0
10
199.05
20
-65.35
11
188.25
21
-65.35
0
LINE
8
0
10
188.25
20
-65.35
11
188.25
21
-90.65
0
LINE
8
0
10
197.55
20
-58.875
11
197.55
21
-54.325
0
LINE
8
0
10
197.55
20
-54.325
11
188.75
21
-54.325
0
LINE
8
0
10
188.75
20
-54.325
11
188.75
21
-58.875
0
LINE
8
0
10
188.75
20
-58.875
11
197.55
21
-58.875
0
LINE
8
0
10
172.45
20
-95.75
11
182.8
21
-95.75
0
LINE
8
0
10
182.8
20
-95.75
11
182.8
21
-88.85
0
LINE
8
0
10
172.45
20
-88.85
11
182.8
21
-88.85
0
LINE
8
0
10
172.45
20
-88.85
11
172.45
21
-95.75
0
LINE
8
0
10
100.2166161
20
-52.6046067
11
98.1468273
21
-49.9072054
0
LINE
8
0
10
98.1468273
20
-49.9072054
11
93.7833839
21
-53.2553933
0
LINE
8
0
10
93.7833839
20
-53.2553933
11
95.8531727
21
-55.9527946
0
LINE
8
0
10
95.8531727
20
-55.9527946
11
100.2166161
21
-52.6046067
0
ENDSEC
0
EOF