0
SECTION
2
HEADER
9
$INSUNITS
70
4
0
ENDSEC
0
SECTION
2
TABLES
0
TABLE
2
LTYPE
0
LTYPE
72
65
70
64
2
CONTINUOUS
3
______
73
0
40
0
0
ENDTAB
0
TABLE
2
LAYER
0
ENDTAB
0
ENDSEC
0
SECTION
2
ENTITIES
0
LINE
8
0
10
187.9361381
20
-135.5973361
11
112.6467819
21
-103
0
LINE
8
0
10
93.0966667
20
-54.5
11
97.5
21
-52.0169173
0
LINE
8
0
10
99.7466667
20
-50.75
11
107.5
21
-46.3778195
0
LINE
8
0
10
115.6666667
20
-43.25
11
126
21
-39.8986486
0
LINE
8
0
10
148
20
-40.5084615
11
154.2640587
21
-44.45
0
LINE
8
0
10
157.8398533
20
-46.7
11
164.25
21
-50.7334615
0
LINE
8
0
10
181.8869675
20
-53.89377
11
182
21
-53.7
0
LINE
8
0
10
182
20
-53.7
11
202.75
21
-53.7
0
LINE
8
0
10
202.75
20
-53.7
11
203.5203435
21
-118.7341406
0
ARC
8
0
10
176.2724045
20
-50.6186084
40
6.5
50
323.8823763
51
329.7435641
0
ARC
8
0
10
176.2724045
20
-50.6186084
40
6.5
50
249.3250866
51
290.6749134
0
ARC
8
0
10
197.0207995
20
-118.8111292
40
6.5
50
353.3898856
51
0.67865
0
ARC
8
0
10
190.5187155
20
-129.6324141
40
6.5
50
246.5892797
51
267.8840478
0
LINE
8
0
10
121
20
-99.25
11
121
21
-103
0
LINE
8
0
10
112.6467819
20
-103
11
121
21
-103
0
LINE
8
0
10
97.5
20
-54.5
11
93.0966667
21
-54.5
0
LINE
8
0
10
121
20
-99.25
11
129.5
21
-99.25
0
LINE
8
0
10
129.5
20
-99.25
11
129.5
21
-93.25
0
LINE
8
0
10
99.7466667
20
-50.75
11
107.5
21
-50.75
0
LINE
8
0
10
97.5
20
-54.5
11
97.5
21
-52.0169173
0
LINE
8
0
10
115.6666667
20
-43.25
11
126
21
-43.25
0
LINE
8
0
10
107.5
20
-46.3778195
11
107.5
21
-50.75
0
LINE
8
0
10
129.5
20
-93.25
11
144.5
21
-93.25
0
LINE
8
0
10
148
20
-44.45
11
148
21
-40.5084615
0
LINE
8
0
10
126
20
-39.8986486
11
126
21
-43.25
0
LINE
8
0
10
144.5
20
-100.45
11
153
21
-100.45
0
LINE
8
0
10
144.5
20
-93.25
11
144.5
21
-100.45
0
LINE
8
0
10
148
20
-44.45
11
154.2640587
21
-44.45
0
LINE
8
0
10
185
20
-102.95
11
185
21
-54.45
0
LINE
8
0
10
168.0965115
20
-102.95
11
185
21
-102.95
0
LINE
8
0
10
163.3829519
20
-102.95
11
153
21
-102.95
0
LINE
8
0
10
153
20
-102.95
11
153
21
-100.45
0
LINE
8
0
10
185
20
-54.45
11
181.5231605
21
-54.45
0
LINE
8
0
10
157.3436999
20
-121.5369065
11
176.1820902
21
-127.6578706
0
LINE
8
0
10
184.215246
20
-110.0282868
11
184.7563001
21
-108.3630935
0
LINE
8
0
10
184.7563001
20
-108.3630935
11
168.0965115
21
-102.95
0
LINE
8
0
10
163.3829519
20
-102.95
11
157.3436999
21
-121.5369065
0
LINE
8
0
10
176.1820902
20
-127.6578706
11
190.2787229
21
-136.1279821
0
LINE
8
0
10
203.4775905
20
-119.5593605
11
185.1171375
21
-108.5272873
0
LINE
8
0
10
185.1171375
20
-108.5272873
11
184.215246
21
-110.0282868
0
LINE
8
0
10
91.25
20
-90.75
11
108.75
21
-90.75
0
LINE
8
0
10
108.75
20
-90.75
11
108.75
21
-74.25
0
LINE
8
0
10
108.75
20
-74.25
11
91.25
21
-74.25
0
LINE
8
0
10
91.25
20
-74.25
11
91.25
21
-90.75
0
LINE
8
0
10
91.25
20
-73.25
11
108.75
21
-73.25
0
LINE
8
0
10
108.75
20
-73.25
11
108.75
21
-56.75
0
LINE
8
0
10
108.75
20
-56.75
11
91.25
21
-56.75
0
LINE
8
0
10
91.25
20
-56.75
11
91.25
21
-73.25
0
LINE
8
0
10
109.75
20
-97
11
127.25
21
-97
0
LINE
8
0
10
127.25
20
-97
11
127.25
21
-80.5
0
LINE
8
0
10
127.25
20
-80.5
11
109.75
21
-80.5
0
LINE
8
0
10
109.75
20
-80.5
11
109.75
21
-97
0
LINE
8
0
10
109.75
20
-79.5
11
127.25
21
-79.5
0
LINE
8
0
10
127.25
20
-79.5
11
127.25
21
-63
0
LINE
8
0
10
127.25
20
-63
11
109.75
21
-63
0
LINE
8
0
10
109.75
20
-63
11
109.75
21
-79.5
0
LINE
8
0
10
109.75
20
-62
11
127.25
21
-62
0
LINE
8
0
10
127.25
20
-62
11
127.25
21
-45.5
0
LINE
8
0
10
127.25
20
-45.5
11
109.75
21
-45.5
0
LINE
8
0
10
109.75
20
-45.5
11
109.75
21
-62
0
LINE
8
0
10
128.25
20
-91
11
145.75
21
-91
0
LINE
8
0
10
145.75
20
-91
11
145.75
21
-74.5
0
LINE
8
0
10
145.75
20
-74.5
11
128.25
21
-74.5
0
LINE
8
0
10
128.25
20
-74.5
11
128.25
21
-91
0
LINE
8
0
10
128.25
20
-73.5
11
145.75
21
-73.5
0
LINE
8
0
10
145.75
20
-73.5
11
145.75
21
-57
0
LINE
8
0
10
145.75
20
-57
11
128.25
21
-57
0
LINE
8
0
10
128.25
20
-57
11
128.25
21
-73.5
0
LINE
8
0
10
128.25
20
-56
11
145.75
21
-56
0
LINE
8
0
10
145.75
20
-56
11
145.75
21
-39.5
0
LINE
8
0
10
145.75
20
-39.5
11
128.25
21
-39.5
0
LINE
8
0
10
128.25
20
-39.5
11
128.25
21
-56
0
LINE
8
0
10
146.75
20
-98.2
11
164.25
21
-98.2
0
LINE
8
0
10
164.25
20
-98.2
11
164.25
21
-81.7
0
LINE
8
0
10
164.25
20
-81.7
11
146.75
21
-81.7
0
LINE
8
0
10
146.75
20
-81.7
11
146.75
21
-98.2
0
LINE
8
0
10
146.75
20
-80.7
11
164.25
21
-80.7
0
LINE
8
0
10
164.25
20
-80.7
11
164.25
21
-64.2
0
LINE
8
0
10
164.25
20
-64.2
11
146.75
21
-64.2
0
LINE
8
0
10
146.75
20
-64.2
11
146.75
21
-80.7
0
LINE
8
0
10
146.75
20
-63.2
11
164.25
21
-63.2
0
LINE
8
0
10
164.25
20
-63.2
11
164.25
21
-50.7334615
0
LINE
8
0
10
157.8398533
20
-46.7
11
146.75
21
-46.7
0
LINE
8
0
10
146.75
20
-46.7
11
146.75
21
-63.2
0
LINE
8
0
10
165.25
20
-90.7
11
182.75
21
-90.7
0
LINE
8
0
10
182.75
20
-90.7
11
182.75
21
-74.2
0
LINE
8
0
10
182.75
20
-74.2
11
165.25
21
-74.2
0
LINE
8
0
10
165.25
20
-74.2
11
165.25
21
-90.7
0
LINE
8
0
10
165.25
20
-73.2
11
182.75
21
-73.2
0
LINE
8
0
10
182.75
20
-73.2
11
182.75
21
-56.7
0
LINE
8
0
10
182.75
20
-56.7
11
178.5673285
21
-56.7
0
LINE
8
0
10
173.9774805
20
-56.7
11
165.25
21
-56.7
0
LINE
8
0
10
165.25
20
-56.7
11
165.25
21
-73.2
0
LINE
8
0
10
160.1788653
20
-120.0923176
11
176.8223543
21
-125.500115
0
LINE
8
0
10
176.8223543
20
-125.500115
11
181.9211347
21
-109.8076824
0
LINE
8
0
10
181.9211347
20
-109.8076824
11
165.2776457
21
-104.399885
0
LINE
8
0
10
165.2776457
20
-104.399885
11
160.1788653
21
-120.0923176
0
LINE
8
0
10
177.3888
20
-125.7580099
11
192.3892278
21
-134.7711762
0
LINE
8
0
10
192.3892278
20
-134.7711762
11
200.887356
21
-120.6279157
0
LINE
8
0
10
200.887356
20
-120.6279157
11
185.8869282
21
-111.6147494
0
LINE
8
0
10
185.8869282
20
-111.6147494
11
177.3888
21
-125.7580099
0
ENDSEC
0
EOF