0
SECTION
2
HEADER
9
$INSUNITS
70
4
0
ENDSEC
0
SECTION
2
TABLES
0
TABLE
2
LTYPE
0
LTYPE
72
65
70
64
2
CONTINUOUS
3
______
73
0
40
0
0
ENDTAB
0
TABLE
2
LAYER
0
ENDTAB
0
ENDSEC
0
SECTION
2
ENTITIES
0
LINE
8
0
10
163.6846223
20
-121.4378739
11
181.4846223
21
-121.4378739
0
LINE
8
0
10
161.3689096
20
-117.3140541
11
165.5227124
21
-107.0330316
0
LINE
8
0
10
150.3224968
20
-99.2739437
11
164.6938465
21
-105.0803459
0
LINE
8
0
10
179.6465322
20
-107.0330316
11
183.800335
21
-117.3140541
0
LINE
8
0
10
180.4753981
20
-105.0803459
11
194.8467478
21
-99.2739437
0
ARC
8
0
10
181.0187833
20
-118.4378739
40
3
50
270
51
21.9999994
0
ARC
8
0
10
164.1504613
20
-118.4378739
40
3
50
158.0000006
51
270
0
ARC
8
0
10
172.5846223
20
-212.5884797
40
60
50
68.9094694
51
111.0905306
0
LINE
8
0
10
68.8287188
20
-110.4314604
11
83.7764988
21
-114.1583606
0
LINE
8
0
10
67.7361581
20
-108.613134
11
75.114776
21
-79.0191144
0
LINE
8
0
10
76.9331024
20
-77.9265537
11
94.9793628
21
-82.4259918
0
LINE
8
0
10
85.1107989
20
-119.8994875
11
97.4025404
21
-124.1318734
0
LINE
8
0
10
99.3091705
20
-123.2019479
11
99.9097173
21
-121.4578334
0
LINE
8
0
10
84.8318938
20
-116.1021565
11
84.1808734
21
-117.9928574
0
LINE
8
0
10
101.7147748
20
-71.6780402
11
118.7427012
21
-77.5412254
0
LINE
8
0
10
96.7605235
20
-81.4589005
11
99.8081447
21
-72.6079657
0
LINE
8
0
10
101.889905
20
-120.5554098
11
118.5177787
21
-127.2735069
0
LINE
8
0
10
135.6185372
20
-82.2781773
11
136.1336213
21
-81.0032995
0
LINE
8
0
10
135.3047554
20
-79.0506138
11
123.2513653
21
-74.1807281
0
LINE
8
0
10
121.2986796
20
-75.009594
11
120.6218293
21
-76.6848574
0
LINE
8
0
10
119.6604264
20
-132.4537561
11
121.1671002
21
-133.0624918
0
LINE
8
0
10
119.3466446
20
-129.2261926
11
118.8315605
21
-130.5010704
0
LINE
8
0
10
149.4936309
20
-97.321258
11
151.6476188
21
-91.9899509
0
LINE
8
0
10
136.4474031
20
-84.230863
11
150.8187529
21
-90.0372652
0
LINE
8
0
10
261.3927458
20
-114.1583606
11
276.3405258
21
-110.4314604
0
LINE
8
0
10
270.0544686
20
-79.0191144
11
277.4330865
21
-108.613134
0
LINE
8
0
10
250.1898818
20
-82.4259918
11
268.2361422
21
-77.9265537
0
LINE
8
0
10
247.7667042
20
-124.1318734
11
260.0584457
21
-119.8994875
0
LINE
8
0
10
260.9883712
20
-117.9928574
11
260.3373508
21
-116.1021565
0
LINE
8
0
10
245.2595273
20
-121.4578334
11
245.8600741
21
-123.2019479
0
LINE
8
0
10
245.3610999
20
-72.6079657
11
248.4087211
21
-81.4589005
0
LINE
8
0
10
226.4265434
20
-77.5412254
11
243.4544698
21
-71.6780402
0
LINE
8
0
10
226.6514659
20
-127.2735069
11
243.2793396
21
-120.5554098
0
LINE
8
0
10
224.5474153
20
-76.6848574
11
223.870565
21
-75.009594
0
LINE
8
0
10
221.9178793
20
-74.1807281
11
209.8644892
21
-79.0506138
0
LINE
8
0
10
209.0356233
20
-81.0032995
11
209.5507074
21
-82.2781773
0
LINE
8
0
10
224.0021444
20
-133.0624918
11
225.5088182
21
-132.4537561
0
LINE
8
0
10
226.3376841
20
-130.5010704
11
225.8226
21
-129.2261926
0
LINE
8
0
10
194.3504917
20
-90.0372652
11
208.7218415
21
-84.230863
0
LINE
8
0
10
193.5216258
20
-91.9899509
11
195.6756137
21
-97.321258
0
LINE
8
0
10
115.7073067
20
-154.5843564
11
130.0786564
21
-160.3907586
0
LINE
8
0
10
114.8784408
20
-152.6316707
11
121.9959661
21
-135.0151775
0
LINE
8
0
10
131.2213042
20
-165.5710077
11
143.2746943
21
-170.4408934
0
LINE
8
0
10
145.22738
20
-169.6120275
11
150.1430537
21
-157.4453082
0
LINE
8
0
10
130.9075224
20
-162.3434443
11
130.3924383
21
-163.618322
0
LINE
8
0
10
215.0905882
20
-160.3907586
11
229.4619379
21
-154.5843564
0
LINE
8
0
10
223.1732785
20
-135.0151775
11
230.2908038
21
-152.6316707
0
LINE
8
0
10
201.8945503
20
-170.4408934
11
213.9479404
21
-165.5710077
0
LINE
8
0
10
214.7768063
20
-163.618322
11
214.2617222
21
-162.3434443
0
LINE
8
0
10
195.0261909
20
-157.4453082
11
199.9418646
21
-169.6120275
0
ARC
8
0
10
164.1319366
20
-106.4711217
40
1.5
50
338.0000006
51
68.0000006
0
ARC
8
0
10
150.8844067
20
-97.8831679
40
1.5
50
158.0000006
51
248.0000006
0
ARC
8
0
10
150.256843
20
-91.428041
40
1.5
50
338.0000006
51
68.0000006
0
ARC
8
0
10
137.009313
20
-82.8400872
40
1.5
50
158.0000006
51
248.0000006
0
ARC
8
0
10
134.7428455
20
-80.4413896
40
1.5
50
338.0000006
51
68.0000006
0
ARC
8
0
10
122.6894554
20
-75.5715039
40
1.5
50
68.0000006
51
158.0000006
0
ARC
8
0
10
119.2310535
20
-76.1229475
40
1.5
50
250.999998
51
338.0000006
0
ARC
8
0
10
101.2264226
20
-73.096318
40
1.5
50
70.999998
51
160.999998
0
ARC
8
0
10
95.3422456
20
-80.9705482
40
1.5
50
255.9999994
51
340.999998
0
ARC
8
0
10
76.5702195
20
-79.3819972
40
1.5
50
75.9999994
51
165.9999994
0
ARC
8
0
10
69.1916016
20
-108.9760169
40
1.5
50
165.9999994
51
255.9999994
0
ARC
8
0
10
83.413616
20
-115.6138042
40
1.5
50
340.999998
51
75.9999994
0
ARC
8
0
10
85.5991512
20
-118.4812096
40
1.5
50
160.999998
51
250.999998
0
ARC
8
0
10
97.8908926
20
-122.7135956
40
1.5
50
250.999998
51
340.999998
0
ARC
8
0
10
101.3279952
20
-121.9461856
40
1.5
50
68.0000006
51
160.999998
0
ARC
8
0
10
117.9558688
20
-128.6642827
40
1.5
50
338.0000006
51
68.0000006
0
ARC
8
0
10
120.2223363
20
-131.0629803
40
1.5
50
158.0000006
51
248.0000006
0
ARC
8
0
10
120.6051903
20
-134.4532676
40
1.5
50
338.0000006
51
68.0000006
0
ARC
8
0
10
116.2692166
20
-153.1935806
40
1.5
50
158.0000006
51
248.0000006
0
ARC
8
0
10
129.5167465
20
-161.7815344
40
1.5
50
338.0000006
51
68.0000006
0
ARC
8
0
10
131.7832141
20
-164.1802319
40
1.5
50
158.0000006
51
248.0000006
0
ARC
8
0
10
143.8366042
20
-169.0501176
40
1.5
50
248.0000006
51
338.0000006
0
ARC
8
0
10
151.5338295
20
-158.0072181
40
1.5
50
111.0905306
51
158.0000006
0
ARC
8
0
10
193.6354151
20
-158.0072181
40
1.5
50
21.9999994
51
68.9094694
0
ARC
8
0
10
201.3326404
20
-169.0501176
40
1.5
50
201.9999994
51
291.9999994
0
ARC
8
0
10
213.3860305
20
-164.1802319
40
1.5
50
291.9999994
51
21.9999994
0
ARC
8
0
10
215.6524981
20
-161.7815344
40
1.5
50
111.9999994
51
201.9999994
0
ARC
8
0
10
228.900028
20
-153.1935806
40
1.5
50
291.9999994
51
21.9999994
0
ARC
8
0
10
224.5640543
20
-134.4532676
40
1.5
50
111.9999994
51
201.9999994
0
ARC
8
0
10
224.9469083
20
-131.0629803
40
1.5
50
291.9999994
51
21.9999994
0
ARC
8
0
10
227.2133758
20
-128.6642827
40
1.5
50
111.9999994
51
201.9999994
0
ARC
8
0
10
243.8412494
20
-121.9461856
40
1.5
50
19.000002
51
111.9999994
0
ARC
8
0
10
247.278352
20
-122.7135956
40
1.5
50
199.000002
51
289.000002
0
ARC
8
0
10
259.5700934
20
-118.4812096
40
1.5
50
289.000002
51
19.000002
0
ARC
8
0
10
261.7556286
20
-115.6138042
40
1.5
50
104.0000006
51
199.000002
0
ARC
8
0
10
275.977643
20
-108.9760169
40
1.5
50
284.0000006
51
14.0000006
0
ARC
8
0
10
268.5990251
20
-79.3819972
40
1.5
50
14.0000006
51
104.0000006
0
ARC
8
0
10
249.826999
20
-80.9705482
40
1.5
50
199.000002
51
284.0000006
0
ARC
8
0
10
243.942822
20
-73.096318
40
1.5
50
19.000002
51
109.000002
0
ARC
8
0
10
225.9381911
20
-76.1229475
40
1.5
50
201.9999994
51
289.000002
0
ARC
8
0
10
222.4797892
20
-75.5715039
40
1.5
50
21.9999994
51
111.9999994
0
ARC
8
0
10
210.4263991
20
-80.4413896
40
1.5
50
111.9999994
51
201.9999994
0
ARC
8
0
10
208.1599316
20
-82.8400872
40
1.5
50
291.9999994
51
21.9999994
0
ARC
8
0
10
194.9124016
20
-91.428041
40
1.5
50
111.9999994
51
201.9999994
0
ARC
8
0
10
194.2848379
20
-97.8831679
40
1.5
50
291.9999994
51
21.9999994
0
ARC
8
0
10
181.037308
20
-106.4711217
40
1.5
50
111.9999994
51
201.9999994
0
LINE
8
0
10
68.5854928
20
-109.3402038
11
82.169633
21
-112.7271104
0
LINE
8
0
10
82.169633
20
-112.7271104
11
85.5565396
21
-99.1429702
0
LINE
8
0
10
85.5565396
20
-99.1429702
11
71.9723994
21
-95.7560636
0
LINE
8
0
10
71.9723994
20
-95.7560636
11
68.5854928
21
-109.3402038
0
LINE
8
0
10
72.819126
20
-92.3600286
11
86.4032662
21
-95.7469352
0
LINE
8
0
10
86.4032662
20
-95.7469352
11
89.7901728
21
-82.162795
0
LINE
8
0
10
89.7901728
20
-82.162795
11
76.2060326
21
-78.7758884
0
LINE
8
0
10
76.2060326
20
-78.7758884
11
72.819126
21
-92.3600286
0
LINE
8
0
10
84.9636078
20
-118.7911848
11
98.2008678
21
-123.349139
0
LINE
8
0
10
98.2008678
20
-123.349139
11
102.758822
21
-110.111879
0
LINE
8
0
10
102.758822
20
-110.111879
11
89.521562
21
-105.5539248
0
LINE
8
0
10
89.521562
20
-105.5539248
11
84.9636078
21
-118.7911848
0
LINE
8
0
10
90.6610505
20
-102.2446097
11
103.8983105
21
-106.8025639
0
LINE
8
0
10
103.8983105
20
-106.8025639
11
108.4562647
21
-93.5653039
0
LINE
8
0
10
108.4562647
20
-93.5653039
11
95.2190047
21
-89.0073497
0
LINE
8
0
10
95.2190047
20
-89.0073497
11
90.6610505
21
-102.2446097
0
LINE
8
0
10
96.3584932
20
-85.6980346
11
109.5957532
21
-90.2559888
0
LINE
8
0
10
109.5957532
20
-90.2559888
11
114.1537074
21
-77.0187288
0
LINE
8
0
10
114.1537074
20
-77.0187288
11
100.9164474
21
-72.4607746
0
LINE
8
0
10
100.9164474
20
-72.4607746
11
96.3584932
21
-85.6980346
0
LINE
8
0
10
104.0574437
20
-120.3526175
11
117.0380176
21
-125.5971098
0
LINE
8
0
10
117.0380176
20
-125.5971098
11
122.2825099
21
-112.6165359
0
LINE
8
0
10
122.2825099
20
-112.6165359
11
109.301936
21
-107.3720436
0
LINE
8
0
10
109.301936
20
-107.3720436
11
104.0574437
21
-120.3526175
0
LINE
8
0
10
110.6130591
20
-104.1269
11
123.593633
21
-109.3713923
0
LINE
8
0
10
123.593633
20
-109.3713923
11
128.8381253
21
-96.3908184
0
LINE
8
0
10
128.8381253
20
-96.3908184
11
115.8575514
21
-91.1463261
0
LINE
8
0
10
115.8575514
20
-91.1463261
11
110.6130591
21
-104.1269
0
LINE
8
0
10
117.1686745
20
-87.9011826
11
130.1492484
21
-93.1456749
0
LINE
8
0
10
130.1492484
20
-93.1456749
11
135.3937407
21
-80.165101
0
LINE
8
0
10
135.3937407
20
-80.165101
11
122.4131668
21
-74.9206087
0
LINE
8
0
10
122.4131668
20
-74.9206087
11
117.1686745
21
-87.9011826
0
LINE
8
0
10
119.5714411
20
-131.3392689
11
132.552015
21
-136.5837612
0
LINE
8
0
10
132.552015
20
-136.5837612
11
137.7965073
21
-123.6031873
0
LINE
8
0
10
137.7965073
20
-123.6031873
11
124.8159334
21
-118.358695
0
LINE
8
0
10
124.8159334
20
-118.358695
11
119.5714411
21
-131.3392689
0
LINE
8
0
10
126.1270566
20
-115.1135515
11
139.1076305
21
-120.3580438
0
LINE
8
0
10
139.1076305
20
-120.3580438
11
144.3521228
21
-107.3774699
0
LINE
8
0
10
144.3521228
20
-107.3774699
11
131.3715489
21
-102.1329776
0
LINE
8
0
10
131.3715489
20
-102.1329776
11
126.1270566
21
-115.1135515
0
LINE
8
0
10
132.682672
20
-98.887834
11
145.6632459
21
-104.1323263
0
LINE
8
0
10
145.6632459
20
-104.1323263
11
150.9077382
21
-91.1517524
0
LINE
8
0
10
150.9077382
20
-91.1517524
11
137.9271643
21
-85.9072601
0
LINE
8
0
10
137.9271643
20
-85.9072601
11
132.682672
21
-98.887834
0
LINE
8
0
10
140.0021502
20
-130.1566321
11
152.9827241
21
-135.4011244
0
LINE
8
0
10
152.9827241
20
-135.4011244
11
158.2272164
21
-122.4205505
0
LINE
8
0
10
158.2272164
20
-122.4205505
11
145.2466425
21
-117.1760582
0
LINE
8
0
10
145.2466425
20
-117.1760582
11
140.0021502
21
-130.1566321
0
LINE
8
0
10
146.5577656
20
-113.9309147
11
159.5383395
21
-119.175407
0
LINE
8
0
10
159.5383395
20
-119.175407
11
164.7828318
21
-106.1948331
0
LINE
8
0
10
164.7828318
20
-106.1948331
11
151.8022579
21
-100.9503408
0
LINE
8
0
10
151.8022579
20
-100.9503408
11
146.5577656
21
-113.9309147
0
LINE
8
0
10
262.9996116
20
-112.7271104
11
276.5837518
21
-109.3402038
0
LINE
8
0
10
276.5837518
20
-109.3402038
11
273.1968452
21
-95.7560636
0
LINE
8
0
10
273.1968452
20
-95.7560636
11
259.612705
21
-99.1429702
0
LINE
8
0
10
259.612705
20
-99.1429702
11
262.9996116
21
-112.7271104
0
LINE
8
0
10
258.7659784
20
-95.7469352
11
272.3501186
21
-92.3600286
0
LINE
8
0
10
272.3501186
20
-92.3600286
11
268.963212
21
-78.7758884
0
LINE
8
0
10
268.963212
20
-78.7758884
11
255.3790718
21
-82.162795
0
LINE
8
0
10
255.3790718
20
-82.162795
11
258.7659784
21
-95.7469352
0
LINE
8
0
10
246.9683768
20
-123.349139
11
260.2056368
21
-118.7911848
0
LINE
8
0
10
260.2056368
20
-118.7911848
11
255.6476826
21
-105.5539248
0
LINE
8
0
10
255.6476826
20
-105.5539248
11
242.4104226
21
-110.111879
0
LINE
8
0
10
242.4104226
20
-110.111879
11
246.9683768
21
-123.349139
0
LINE
8
0
10
241.2709341
20
-106.8025639
11
254.5081941
21
-102.2446097
0
LINE
8
0
10
254.5081941
20
-102.2446097
11
249.9502399
21
-89.0073497
0
LINE
8
0
10
249.9502399
20
-89.0073497
11
236.7129799
21
-93.5653039
0
LINE
8
0
10
236.7129799
20
-93.5653039
11
241.2709341
21
-106.8025639
0
LINE
8
0
10
235.5734914
20
-90.2559888
11
248.8107514
21
-85.6980346
0
LINE
8
0
10
248.8107514
20
-85.6980346
11
244.2527972
21
-72.4607746
0
LINE
8
0
10
244.2527972
20
-72.4607746
11
231.0155372
21
-77.0187288
0
LINE
8
0
10
231.0155372
20
-77.0187288
11
235.5734914
21
-90.2559888
0
LINE
8
0
10
228.131227
20
-125.5971098
11
241.1118009
21
-120.3526175
0
LINE
8
0
10
241.1118009
20
-120.3526175
11
235.8673086
21
-107.3720436
0
LINE
8
0
10
235.8673086
20
-107.3720436
11
222.8867347
21
-112.6165359
0
LINE
8
0
10
222.8867347
20
-112.6165359
11
228.131227
21
-125.5971098
0
LINE
8
0
10
221.5756116
20
-109.3713923
11
234.5561855
21
-104.1269
0
LINE
8
0
10
234.5561855
20
-104.1269
11
229.3116932
21
-91.1463261
0
LINE
8
0
10
229.3116932
20
-91.1463261
11
216.3311193
21
-96.3908184
0
LINE
8
0
10
216.3311193
20
-96.3908184
11
221.5756116
21
-109.3713923
0
LINE
8
0
10
215.0199962
20
-93.1456749
11
228.0005701
21
-87.9011826
0
LINE
8
0
10
228.0005701
20
-87.9011826
11
222.7560778
21
-74.9206087
0
LINE
8
0
10
222.7560778
20
-74.9206087
11
209.7755039
21
-80.165101
0
LINE
8
0
10
209.7755039
20
-80.165101
11
215.0199962
21
-93.1456749
0
LINE
8
0
10
212.6172296
20
-136.5837612
11
225.5978035
21
-131.3392689
0
LINE
8
0
10
225.5978035
20
-131.3392689
11
220.3533112
21
-118.358695
0
LINE
8
0
10
220.3533112
20
-118.358695
11
207.3727373
21
-123.6031873
0
LINE
8
0
10
207.3727373
20
-123.6031873
11
212.6172296
21
-136.5837612
0
LINE
8
0
10
206.0616141
20
-120.3580438
11
219.042188
21
-115.1135515
0
LINE
8
0
10
219.042188
20
-115.1135515
11
213.7976957
21
-102.1329776
0
LINE
8
0
10
213.7976957
20
-102.1329776
11
200.8171218
21
-107.3774699
0
LINE
8
0
10
200.8171218
20
-107.3774699
11
206.0616141
21
-120.3580438
0
LINE
8
0
10
199.5059987
20
-104.1323263
11
212.4865726
21
-98.887834
0
LINE
8
0
10
212.4865726
20
-98.887834
11
207.2420803
21
-85.9072601
0
LINE
8
0
10
207.2420803
20
-85.9072601
11
194.2615064
21
-91.1517524
0
LINE
8
0
10
194.2615064
20
-91.1517524
11
199.5059987
21
-104.1323263
0
LINE
8
0
10
192.1865205
20
-135.4011244
11
205.1670944
21
-130.1566321
0
LINE
8
0
10
205.1670944
20
-130.1566321
11
199.9226021
21
-117.1760582
0
LINE
8
0
10
199.9226021
20
-117.1760582
11
186.9420282
21
-122.4205505
0
LINE
8
0
10
186.9420282
20
-122.4205505
11
192.1865205
21
-135.4011244
0
LINE
8
0
10
185.6309051
20
-119.175407
11
198.611479
21
-113.9309147
0
LINE
8
0
10
198.611479
20
-113.9309147
11
193.3669867
21
-100.9503408
0
LINE
8
0
10
193.3669867
20
-100.9503408
11
180.3864128
21
-106.1948331
0
LINE
8
0
10
180.3864128
20
-106.1948331
11
185.6309051
21
-119.175407
0
LINE
8
0
10
115.6183214
20
-153.4698692
11
128.5988953
21
-158.7143615
0
LINE
8
0
10
128.5988953
20
-158.7143615
11
133.8433876
21
-145.7337876
0
LINE
8
0
10
133.8433876
20
-145.7337876
11
120.8628137
21
-140.4892953
0
LINE
8
0
10
120.8628137
20
-140.4892953
11
115.6183214
21
-153.4698692
0
LINE
8
0
10
131.1323189
20
-164.4565205
11
144.1128928
21
-169.7010128
0
LINE
8
0
10
144.1128928
20
-169.7010128
11
149.3573851
21
-156.7204389
0
LINE
8
0
10
149.3573851
20
-156.7204389
11
136.3768112
21
-151.4759466
0
LINE
8
0
10
136.3768112
20
-151.4759466
11
131.1323189
21
-164.4565205
0
LINE
8
0
10
216.5703493
20
-158.7143615
11
229.5509232
21
-153.4698692
0
LINE
8
0
10
229.5509232
20
-153.4698692
11
224.3064309
21
-140.4892953
0
LINE
8
0
10
224.3064309
20
-140.4892953
11
211.325857
21
-145.7337876
0
LINE
8
0
10
211.325857
20
-145.7337876
11
216.5703493
21
-158.7143615
0
LINE
8
0
10
201.0563518
20
-169.7010128
11
214.0369257
21
-164.4565205
0
LINE
8
0
10
214.0369257
20
-164.4565205
11
208.7924334
21
-151.4759466
0
LINE
8
0
10
208.7924334
20
-151.4759466
11
195.8118595
21
-156.7204389
0
LINE
8
0
10
195.8118595
20
-156.7204389
11
201.0563518
21
-169.7010128
0
LINE
8
0
10
163.6846223
20
-142.4378739
11
181.4846223
21
-142.4378739
0
LINE
8
0
10
181.4846223
20
-142.4378739
11
181.4846223
21
-121.4378739
0
LINE
8
0
10
163.6846223
20
-121.4378739
11
163.6846223
21
-142.4378739
0
CIRCLE
8
0
10
139.1897791
20
-136.8388887
40
1
0
CIRCLE
8
0
10
205.9794655
20
-136.8388887
40
1
0
ENDSEC
0
EOF