0
SECTION
2
HEADER
9
$INSUNITS
70
4
0
ENDSEC
0
SECTION
2
TABLES
0
TABLE
2
LTYPE
0
LTYPE
72
65
70
64
2
CONTINUOUS
3
______
73
0
40
0
0
ENDTAB
0
TABLE
2
LAYER
0
ENDTAB
0
ENDSEC
0
SECTION
2
ENTITIES
0
LINE
8
0
10
163.6846223
20
-121.4378739
11
181.4846223
21
-121.4378739
0
LINE
8
0
10
161.3689096
20
-117.3140541
11
165.5227124
21
-107.0330316
0
LINE
8
0
10
150.3224968
20
-99.2739437
11
166.5482142
21
-105.8295591
0
LINE
8
0
10
179.6465322
20
-107.0330316
11
183.800335
21
-117.3140541
0
LINE
8
0
10
178.6210304
20
-105.8295591
11
194.8467478
21
-99.2739437
0
ARC
8
0
10
181.0187833
20
-118.4378739
40
3
50
270
51
21.9999994
0
ARC
8
0
10
164.1504613
20
-118.4378739
40
3
50
158.0000006
51
270
0
ARC
8
0
10
172.5846223
20
-212.5884797
40
60
50
68.9094694
51
111.0905306
0
LINE
8
0
10
66.8881274
20
-109.9476167
11
83.7764988
21
-114.1583606
0
LINE
8
0
10
67.7361581
20
-108.613134
11
75.114776
21
-79.0191144
0
LINE
8
0
10
74.9925109
20
-77.4427099
11
94.9793628
21
-82.4259918
0
LINE
8
0
10
83.2197618
20
-119.2483512
11
99.2935776
21
-124.7830098
0
LINE
8
0
10
99.3091705
20
-123.2019479
11
99.9097173
21
-121.4578334
0
LINE
8
0
10
84.8318938
20
-116.1021565
11
84.1808734
21
-117.9928574
0
LINE
8
0
10
99.8237376
20
-71.0269038
11
118.7427012
21
-77.5412254
0
LINE
8
0
10
96.7605235
20
-81.4589005
11
99.8081447
21
-72.6079657
0
LINE
8
0
10
101.889905
20
-120.5554098
11
118.5177787
21
-127.2735069
0
LINE
8
0
10
135.6185372
20
-82.2781773
11
136.1336213
21
-81.0032995
0
LINE
8
0
10
121.3969976
20
-73.4315149
11
137.1591231
21
-79.799827
0
LINE
8
0
10
121.2986796
20
-75.009594
11
120.6218293
21
-76.6848574
0
LINE
8
0
10
117.8060587
20
-131.7045429
11
133.5681842
21
-138.072855
0
LINE
8
0
10
119.3466446
20
-129.2261926
11
118.8315605
21
-130.5010704
0
LINE
8
0
10
149.4936309
20
-97.321258
11
151.6476188
21
-91.9899509
0
LINE
8
0
10
136.4474031
20
-84.230863
11
152.6731206
21
-90.7864784
0
LINE
8
0
10
261.3927458
20
-114.1583606
11
278.2811172
21
-109.9476167
0
LINE
8
0
10
270.0544686
20
-79.0191144
11
277.4330865
21
-108.613134
0
LINE
8
0
10
250.1898818
20
-82.4259918
11
270.1767337
21
-77.4427099
0
LINE
8
0
10
245.875667
20
-124.7830098
11
261.9494828
21
-119.2483512
0
LINE
8
0
10
260.9883712
20
-117.9928574
11
260.3373508
21
-116.1021565
0
LINE
8
0
10
245.2595273
20
-121.4578334
11
245.8600741
21
-123.2019479
0
LINE
8
0
10
245.3610999
20
-72.6079657
11
248.4087211
21
-81.4589005
0
LINE
8
0
10
226.4265434
20
-77.5412254
11
245.345507
21
-71.0269038
0
LINE
8
0
10
226.6514659
20
-127.2735069
11
243.2793396
21
-120.5554098
0
LINE
8
0
10
224.5474153
20
-76.6848574
11
223.870565
21
-75.009594
0
LINE
8
0
10
208.0101215
20
-79.799827
11
223.772247
21
-73.4315149
0
LINE
8
0
10
209.0356233
20
-81.0032995
11
209.5507074
21
-82.2781773
0
LINE
8
0
10
211.6010604
20
-138.072855
11
227.3631859
21
-131.7045429
0
LINE
8
0
10
226.3376841
20
-130.5010704
11
225.8226
21
-129.2261926
0
LINE
8
0
10
192.496124
20
-90.7864784
11
208.7218415
21
-84.230863
0
LINE
8
0
10
193.5216258
20
-91.9899509
11
195.6756137
21
-97.321258
0
LINE
8
0
10
113.852939
20
-153.8351432
11
130.0786564
21
-160.3907586
0
LINE
8
0
10
114.8784408
20
-152.6316707
11
121.9959661
21
-135.0151775
0
LINE
8
0
10
129.3669365
20
-164.8217945
11
145.129062
21
-171.1901066
0
LINE
8
0
10
145.22738
20
-169.6120275
11
150.1430537
21
-157.4453082
0
LINE
8
0
10
130.9075224
20
-162.3434443
11
130.3924383
21
-163.618322
0
LINE
8
0
10
215.0905882
20
-160.3907586
11
231.3163056
21
-153.8351432
0
LINE
8
0
10
223.1732785
20
-135.0151775
11
230.2908038
21
-152.6316707
0
LINE
8
0
10
200.0401826
20
-171.1901066
11
215.8023081
21
-164.8217945
0
LINE
8
0
10
214.7768063
20
-163.618322
11
214.2617222
21
-162.3434443
0
LINE
8
0
10
195.0261909
20
-157.4453082
11
199.9418646
21
-169.6120275
0
ARC
8
0
10
164.1319366
20
-106.4711217
40
1.5
50
338.0000006
51
68.0000006
0
ARC
8
0
10
150.8844067
20
-97.8831679
40
1.5
50
158.0000006
51
248.0000006
0
ARC
8
0
10
150.256843
20
-91.428041
40
1.5
50
338.0000006
51
68.0000006
0
ARC
8
0
10
137.009313
20
-82.8400872
40
1.5
50
158.0000006
51
248.0000006
0
ARC
8
0
10
134.7428455
20
-80.4413896
40
1.5
50
338.0000006
51
68.0000006
0
ARC
8
0
10
122.6894554
20
-75.5715039
40
1.5
50
68.0000006
51
158.0000006
0
ARC
8
0
10
119.2310535
20
-76.1229475
40
1.5
50
250.999998
51
338.0000006
0
ARC
8
0
10
101.2264226
20
-73.096318
40
1.5
50
70.999998
51
160.999998
0
ARC
8
0
10
95.3422456
20
-80.9705482
40
1.5
50
255.9999994
51
340.999998
0
ARC
8
0
10
76.5702195
20
-79.3819972
40
1.5
50
75.9999994
51
165.9999994
0
ARC
8
0
10
69.1916016
20
-108.9760169
40
1.5
50
165.9999994
51
255.9999994
0
ARC
8
0
10
83.413616
20
-115.6138042
40
1.5
50
340.999998
51
75.9999994
0
ARC
8
0
10
85.5991512
20
-118.4812096
40
1.5
50
160.999998
51
250.999998
0
ARC
8
0
10
97.8908926
20
-122.7135956
40
1.5
50
250.999998
51
340.999998
0
ARC
8
0
10
101.3279952
20
-121.9461856
40
1.5
50
68.0000006
51
160.999998
0
ARC
8
0
10
117.9558688
20
-128.6642827
40
1.5
50
338.0000006
51
68.0000006
0
ARC
8
0
10
120.2223363
20
-131.0629803
40
1.5
50
158.0000006
51
248.0000006
0
ARC
8
0
10
120.6051903
20
-134.4532676
40
1.5
50
338.0000006
51
68.0000006
0
ARC
8
0
10
116.2692166
20
-153.1935806
40
1.5
50
158.0000006
51
248.0000006
0
ARC
8
0
10
129.5167465
20
-161.7815344
40
1.5
50
338.0000006
51
68.0000006
0
ARC
8
0
10
131.7832141
20
-164.1802319
40
1.5
50
158.0000006
51
248.0000006
0
ARC
8
0
10
143.8366042
20
-169.0501176
40
1.5
50
248.0000006
51
338.0000006
0
ARC
8
0
10
151.5338295
20
-158.0072181
40
1.5
50
111.0905306
51
158.0000006
0
ARC
8
0
10
193.6354151
20
-158.0072181
40
1.5
50
21.9999994
51
68.9094694
0
ARC
8
0
10
201.3326404
20
-169.0501176
40
1.5
50
201.9999994
51
291.9999994
0
ARC
8
0
10
213.3860305
20
-164.1802319
40
1.5
50
291.9999994
51
21.9999994
0
ARC
8
0
10
215.6524981
20
-161.7815344
40
1.5
50
111.9999994
51
201.9999994
0
ARC
8
0
10
228.900028
20
-153.1935806
40
1.5
50
291.9999994
51
21.9999994
0
ARC
8
0
10
224.5640543
20
-134.4532676
40
1.5
50
111.9999994
51
201.9999994
0
ARC
8
0
10
224.9469083
20
-131.0629803
40
1.5
50
291.9999994
51
21.9999994
0
ARC
8
0
10
227.2133758
20
-128.6642827
40
1.5
50
111.9999994
51
201.9999994
0
ARC
8
0
10
243.8412494
20
-121.9461856
40
1.5
50
19.000002
51
111.9999994
0
ARC
8
0
10
247.278352
20
-122.7135956
40
1.5
50
199.000002
51
289.000002
0
ARC
8
0
10
259.5700934
20
-118.4812096
40
1.5
50
289.000002
51
19.000002
0
ARC
8
0
10
261.7556286
20
-115.6138042
40
1.5
50
104.0000006
51
199.000002
0
ARC
8
0
10
275.977643
20
-108.9760169
40
1.5
50
284.0000006
51
14.0000006
0
ARC
8
0
10
268.5990251
20
-79.3819972
40
1.5
50
14.0000006
51
104.0000006
0
ARC
8
0
10
249.826999
20
-80.9705482
40
1.5
50
199.000002
51
284.0000006
0
ARC
8
0
10
243.942822
20
-73.096318
40
1.5
50
19.000002
51
109.000002
0
ARC
8
0
10
225.9381911
20
-76.1229475
40
1.5
50
201.9999994
51
289.000002
0
ARC
8
0
10
222.4797892
20
-75.5715039
40
1.5
50
21.9999994
51
111.9999994
0
ARC
8
0
10
210.4263991
20
-80.4413896
40
1.5
50
111.9999994
51
201.9999994
0
ARC
8
0
10
208.1599316
20
-82.8400872
40
1.5
50
291.9999994
51
21.9999994
0
ARC
8
0
10
194.9124016
20
-91.428041
40
1.5
50
111.9999994
51
201.9999994
0
ARC
8
0
10
194.2848379
20
-97.8831679
40
1.5
50
291.9999994
51
21.9999994
0
ARC
8
0
10
181.037308
20
-106.4711217
40
1.5
50
111.9999994
51
201.9999994
0
LINE
8
0
10
83.3831547
20
-114.0602889
11
87.253905
21
-98.5355573
0
LINE
8
0
10
87.253905
20
-98.5355573
11
70.7588777
21
-94.4228851
0
LINE
8
0
10
70.7588777
20
-94.4228851
11
66.8881274
21
-109.9476167
0
LINE
8
0
10
71.1217606
20
-92.9674415
11
87.6167879
21
-97.0801137
0
LINE
8
0
10
87.6167879
20
-97.0801137
11
91.4875382
21
-81.5553821
0
LINE
8
0
10
74.9925109
20
-77.4427099
11
71.1217606
21
-92.9674415
0
LINE
8
0
10
99.2935776
20
-124.7830098
11
104.502668
21
-109.6547126
0
LINE
8
0
10
104.502668
20
-109.6547126
11
88.4288522
21
-104.120054
0
LINE
8
0
10
88.4288522
20
-104.120054
11
83.2197618
21
-119.2483512
0
LINE
8
0
10
88.9172045
20
-102.7017761
11
104.9910203
21
-108.2364347
0
LINE
8
0
10
104.9910203
20
-108.2364347
11
110.2001107
21
-93.1081375
0
LINE
8
0
10
110.2001107
20
-93.1081375
11
94.1262949
21
-87.5734789
0
LINE
8
0
10
94.1262949
20
-87.5734789
11
88.9172045
21
-102.7017761
0
LINE
8
0
10
94.6146472
20
-86.155201
11
110.688463
21
-91.6898596
0
LINE
8
0
10
110.688463
20
-91.6898596
11
115.8975534
21
-76.5615624
0
LINE
8
0
10
99.8237376
20
-71.0269038
11
94.6146472
21
-86.155201
0
LINE
8
0
10
118.0541868
20
-127.0862036
11
124.0478923
21
-112.2512619
0
LINE
8
0
10
124.0478923
20
-112.2512619
11
108.2857668
21
-105.8829498
0
LINE
8
0
10
108.2857668
20
-105.8829498
11
102.2920613
21
-120.7178915
0
LINE
8
0
10
108.8476767
20
-104.492174
11
124.6098022
21
-110.8604861
0
LINE
8
0
10
124.6098022
20
-110.8604861
11
130.6035077
21
-96.0255444
0
LINE
8
0
10
130.6035077
20
-96.0255444
11
114.8413822
21
-89.6572323
0
LINE
8
0
10
114.8413822
20
-89.6572323
11
108.8476767
21
-104.492174
0
LINE
8
0
10
115.4032921
20
-88.2664566
11
131.1654176
21
-94.6347687
0
LINE
8
0
10
131.1654176
20
-94.6347687
11
137.1591231
21
-79.799827
0
LINE
8
0
10
121.3969976
20
-73.4315149
11
115.4032921
21
-88.2664566
0
LINE
8
0
10
133.5681842
20
-138.072855
11
139.5618897
21
-123.2379133
0
LINE
8
0
10
139.5618897
20
-123.2379133
11
123.7997642
21
-116.8696012
0
LINE
8
0
10
123.7997642
20
-116.8696012
11
117.8060587
21
-131.7045429
0
LINE
8
0
10
124.3616742
20
-115.4788255
11
140.1237997
21
-121.8471376
0
LINE
8
0
10
140.1237997
20
-121.8471376
11
146.1175052
21
-107.0121959
0
LINE
8
0
10
146.1175052
20
-107.0121959
11
130.3553797
21
-100.6438838
0
LINE
8
0
10
130.3553797
20
-100.6438838
11
124.3616742
21
-115.4788255
0
LINE
8
0
10
130.9172896
20
-99.253108
11
146.6794151
21
-105.6214201
0
LINE
8
0
10
146.6794151
20
-105.6214201
11
152.6731206
21
-90.7864784
0
LINE
8
0
10
136.9109951
20
-84.4181663
11
130.9172896
21
-99.253108
0
LINE
8
0
10
138.2367678
20
-130.5219061
11
153.9988933
21
-136.8902182
0
LINE
8
0
10
153.9988933
20
-136.8902182
11
159.9925988
21
-122.0552765
0
LINE
8
0
10
159.9925988
20
-122.0552765
11
144.2304733
21
-115.6869644
0
LINE
8
0
10
144.2304733
20
-115.6869644
11
138.2367678
21
-130.5219061
0
LINE
8
0
10
144.7923832
20
-114.2961887
11
160.5545087
21
-120.6645008
0
LINE
8
0
10
160.5545087
20
-120.6645008
11
166.5482142
21
-105.8295591
0
LINE
8
0
10
150.7860887
20
-99.461247
11
144.7923832
21
-114.2961887
0
LINE
8
0
10
278.2811172
20
-109.9476167
11
274.4103669
21
-94.4228851
0
LINE
8
0
10
274.4103669
20
-94.4228851
11
257.9153396
21
-98.5355573
0
LINE
8
0
10
257.9153396
20
-98.5355573
11
261.7860899
21
-114.0602889
0
LINE
8
0
10
257.5524567
20
-97.0801137
11
274.047484
21
-92.9674415
0
LINE
8
0
10
274.047484
20
-92.9674415
11
270.1767337
21
-77.4427099
0
LINE
8
0
10
253.6817064
20
-81.5553821
11
257.5524567
21
-97.0801137
0
LINE
8
0
10
261.9494828
20
-119.2483512
11
256.7403924
21
-104.120054
0
LINE
8
0
10
256.7403924
20
-104.120054
11
240.6665766
21
-109.6547126
0
LINE
8
0
10
240.6665766
20
-109.6547126
11
245.875667
21
-124.7830098
0
LINE
8
0
10
240.1782243
20
-108.2364347
11
256.2520401
21
-102.7017761
0
LINE
8
0
10
256.2520401
20
-102.7017761
11
251.0429497
21
-87.5734789
0
LINE
8
0
10
251.0429497
20
-87.5734789
11
234.9691339
21
-93.1081375
0
LINE
8
0
10
234.9691339
20
-93.1081375
11
240.1782243
21
-108.2364347
0
LINE
8
0
10
234.4807816
20
-91.6898596
11
250.5545974
21
-86.155201
0
LINE
8
0
10
250.5545974
20
-86.155201
11
245.345507
21
-71.0269038
0
LINE
8
0
10
229.2716912
20
-76.5615624
11
234.4807816
21
-91.6898596
0
LINE
8
0
10
242.8771833
20
-120.7178915
11
236.8834778
21
-105.8829498
0
LINE
8
0
10
236.8834778
20
-105.8829498
11
221.1213523
21
-112.2512619
0
LINE
8
0
10
221.1213523
20
-112.2512619
11
227.1150578
21
-127.0862036
0
LINE
8
0
10
220.5594424
20
-110.8604861
11
236.3215679
21
-104.492174
0
LINE
8
0
10
236.3215679
20
-104.492174
11
230.3278624
21
-89.6572323
0
LINE
8
0
10
230.3278624
20
-89.6572323
11
214.5657369
21
-96.0255444
0
LINE
8
0
10
214.5657369
20
-96.0255444
11
220.5594424
21
-110.8604861
0
LINE
8
0
10
214.003827
20
-94.6347687
11
229.7659525
21
-88.2664566
0
LINE
8
0
10
229.7659525
20
-88.2664566
11
223.772247
21
-73.4315149
0
LINE
8
0
10
208.0101215
20
-79.799827
11
214.003827
21
-94.6347687
0
LINE
8
0
10
227.3631859
20
-131.7045429
11
221.3694804
21
-116.8696012
0
LINE
8
0
10
221.3694804
20
-116.8696012
11
205.6073549
21
-123.2379133
0
LINE
8
0
10
205.6073549
20
-123.2379133
11
211.6010604
21
-138.072855
0
LINE
8
0
10
205.0454449
20
-121.8471376
11
220.8075704
21
-115.4788255
0
LINE
8
0
10
220.8075704
20
-115.4788255
11
214.8138649
21
-100.6438838
0
LINE
8
0
10
214.8138649
20
-100.6438838
11
199.0517394
21
-107.0121959
0
LINE
8
0
10
199.0517394
20
-107.0121959
11
205.0454449
21
-121.8471376
0
LINE
8
0
10
198.4898295
20
-105.6214201
11
214.251955
21
-99.253108
0
LINE
8
0
10
214.251955
20
-99.253108
11
208.2582495
21
-84.4181663
0
LINE
8
0
10
192.496124
20
-90.7864784
11
198.4898295
21
-105.6214201
0
LINE
8
0
10
191.1703513
20
-136.8902182
11
206.9324768
21
-130.5219061
0
LINE
8
0
10
206.9324768
20
-130.5219061
11
200.9387713
21
-115.6869644
0
LINE
8
0
10
200.9387713
20
-115.6869644
11
185.1766458
21
-122.0552765
0
LINE
8
0
10
185.1766458
20
-122.0552765
11
191.1703513
21
-136.8902182
0
LINE
8
0
10
184.6147359
20
-120.6645008
11
200.3768614
21
-114.2961887
0
LINE
8
0
10
200.3768614
20
-114.2961887
11
194.3831559
21
-99.461247
0
LINE
8
0
10
178.6210304
20
-105.8295591
11
184.6147359
21
-120.6645008
0
LINE
8
0
10
129.6150645
20
-160.2034553
11
135.60877
21
-145.3685136
0
LINE
8
0
10
135.60877
20
-145.3685136
11
119.8466445
21
-139.0002015
0
LINE
8
0
10
119.8466445
20
-139.0002015
11
113.852939
21
-153.8351432
0
LINE
8
0
10
145.129062
20
-171.1901066
11
151.1227675
21
-156.3551649
0
LINE
8
0
10
151.1227675
20
-156.3551649
11
135.360642
21
-149.9868528
0
LINE
8
0
10
135.360642
20
-149.9868528
11
129.3669365
21
-164.8217945
0
LINE
8
0
10
231.3163056
20
-153.8351432
11
225.3226001
21
-139.0002015
0
LINE
8
0
10
225.3226001
20
-139.0002015
11
209.5604746
21
-145.3685136
0
LINE
8
0
10
209.5604746
20
-145.3685136
11
215.5541801
21
-160.2034553
0
LINE
8
0
10
215.8023081
20
-164.8217945
11
209.8086026
21
-149.9868528
0
LINE
8
0
10
209.8086026
20
-149.9868528
11
194.0464771
21
-156.3551649
0
LINE
8
0
10
194.0464771
20
-156.3551649
11
200.0401826
21
-171.1901066
0
LINE
8
0
10
163.6846223
20
-142.4378739
11
181.4846223
21
-142.4378739
0
LINE
8
0
10
181.4846223
20
-142.4378739
11
181.4846223
21
-121.4378739
0
LINE
8
0
10
163.6846223
20
-121.4378739
11
163.6846223
21
-142.4378739
0
CIRCLE
8
0
10
139.1897791
20
-136.8388887
40
1
0
CIRCLE
8
0
10
205.9794655
20
-136.8388887
40
1
0
ENDSEC
0
EOF