0
SECTION
2
HEADER
9
$INSUNITS
70
4
0
ENDSEC
0
SECTION
2
TABLES
0
TABLE
2
LTYPE
0
LTYPE
72
65
70
64
2
CONTINUOUS
3
______
73
0
40
0
0
ENDTAB
0
TABLE
2
LAYER
0
ENDTAB
0
ENDSEC
0
SECTION
2
ENTITIES
0
LINE
8
0
10
187.9361383
20
-135.5973362
11
112.6467819
21
-103
0
LINE
8
0
10
184.5162338
20
-53.7
11
200.2794377
21
-53.7
0
LINE
8
0
10
202.7792623
20
-56.170389
11
203.5203435
21
-118.7341407
0
ARC
8
0
10
197.0207995
20
-118.8111292
40
6.5
50
353.3898856
51
0.6786486
0
ARC
8
0
10
190.5187155
20
-129.6324141
40
6.5
50
246.5892829
51
267.8840478
0
ARC
8
0
10
138
20
-105.5
40
69
50
49.4149036
51
98.4554726
0
ARC
8
0
10
138
20
-105.5
40
69
50
116.2334102
51
132.3426055
0
ARC
8
0
10
138
20
-105.5
40
69
50
100.0154102
51
115.5546938
0
ARC
8
0
10
184.5162338
20
-51.2
40
2.5
50
229.4149036
51
270
0
ARC
8
0
10
200.2794377
20
-56.2
40
2.5
50
0.67865
51
90
0
ARC
8
0
10
201.0205189
20
-118.7637517
40
2.5
50
0.6786486
51
0.67865
0
ARC
8
0
10
188.9294373
20
-133.3031354
40
2.5
50
246.5892797
51
246.5892829
0
LINE
8
0
10
121
20
-99.25
11
121
21
-103
0
LINE
8
0
10
112.6467819
20
-103
11
121
21
-103
0
LINE
8
0
10
97.5
20
-54.5
11
91.5241998
21
-54.5
0
LINE
8
0
10
121
20
-99.25
11
129.5
21
-99.25
0
LINE
8
0
10
129.5
20
-99.25
11
129.5
21
-93.25
0
LINE
8
0
10
97.5
20
-50.75
11
107.5
21
-50.75
0
LINE
8
0
10
97.5
20
-54.5
11
97.5
21
-50.75
0
LINE
8
0
10
108.2352977
20
-43.25
11
126
21
-43.25
0
LINE
8
0
10
107.5
20
-43.6069471
11
107.5
21
-50.75
0
LINE
8
0
10
129.5
20
-93.25
11
144.5
21
-93.25
0
LINE
8
0
10
148
20
-44.45
11
148
21
-37.25
0
LINE
8
0
10
148
20
-37.25
11
127.854188
21
-37.25
0
LINE
8
0
10
126
20
-37.5514901
11
126
21
-43.25
0
LINE
8
0
10
144.5
20
-100.45
11
153
21
-100.45
0
LINE
8
0
10
144.5
20
-93.25
11
144.5
21
-100.45
0
LINE
8
0
10
166.5
20
-51.95
11
176.5
21
-51.95
0
LINE
8
0
10
176.5
20
-51.95
11
176.5
21
-54.45
0
LINE
8
0
10
166.5
20
-51.95
11
166.5
21
-44.45
0
LINE
8
0
10
148
20
-44.45
11
166.5
21
-44.45
0
LINE
8
0
10
185
20
-102.95
11
185
21
-54.45
0
LINE
8
0
10
168.0965115
20
-102.95
11
185
21
-102.95
0
LINE
8
0
10
163.3829519
20
-102.95
11
153
21
-102.95
0
LINE
8
0
10
153
20
-102.95
11
153
21
-100.45
0
LINE
8
0
10
185
20
-54.45
11
176.5
21
-54.45
0
LINE
8
0
10
157.3436999
20
-121.5369065
11
176.1820902
21
-127.6578706
0
LINE
8
0
10
184.215246
20
-110.0282868
11
184.7563001
21
-108.3630935
0
LINE
8
0
10
184.7563001
20
-108.3630935
11
168.0965115
21
-102.95
0
LINE
8
0
10
163.3829519
20
-102.95
11
157.3436999
21
-121.5369065
0
LINE
8
0
10
176.1820902
20
-127.6578706
11
190.2787229
21
-136.1279821
0
LINE
8
0
10
203.4775905
20
-119.5593605
11
185.1171375
21
-108.5272873
0
LINE
8
0
10
185.1171375
20
-108.5272873
11
184.215246
21
-110.0282868
0
LINE
8
0
10
91.25
20
-90.75
11
108.75
21
-90.75
0
LINE
8
0
10
108.75
20
-90.75
11
108.75
21
-74.25
0
LINE
8
0
10
108.75
20
-74.25
11
91.25
21
-74.25
0
LINE
8
0
10
91.25
20
-74.25
11
91.25
21
-90.75
0
LINE
8
0
10
91.25
20
-73.25
11
108.75
21
-73.25
0
LINE
8
0
10
108.75
20
-73.25
11
108.75
21
-56.75
0
LINE
8
0
10
108.75
20
-56.75
11
91.25
21
-56.75
0
LINE
8
0
10
91.25
20
-56.75
11
91.25
21
-73.25
0
LINE
8
0
10
109.75
20
-97
11
127.25
21
-97
0
LINE
8
0
10
127.25
20
-97
11
127.25
21
-80.5
0
LINE
8
0
10
127.25
20
-80.5
11
109.75
21
-80.5
0
LINE
8
0
10
109.75
20
-80.5
11
109.75
21
-97
0
LINE
8
0
10
109.75
20
-79.5
11
127.25
21
-79.5
0
LINE
8
0
10
127.25
20
-79.5
11
127.25
21
-63
0
LINE
8
0
10
127.25
20
-63
11
109.75
21
-63
0
LINE
8
0
10
109.75
20
-63
11
109.75
21
-79.5
0
LINE
8
0
10
109.75
20
-62
11
127.25
21
-62
0
LINE
8
0
10
127.25
20
-62
11
127.25
21
-45.5
0
LINE
8
0
10
127.25
20
-45.5
11
109.75
21
-45.5
0
LINE
8
0
10
109.75
20
-45.5
11
109.75
21
-62
0
LINE
8
0
10
128.25
20
-91
11
145.75
21
-91
0
LINE
8
0
10
145.75
20
-91
11
145.75
21
-74.5
0
LINE
8
0
10
145.75
20
-74.5
11
128.25
21
-74.5
0
LINE
8
0
10
128.25
20
-74.5
11
128.25
21
-91
0
LINE
8
0
10
128.25
20
-73.5
11
145.75
21
-73.5
0
LINE
8
0
10
145.75
20
-73.5
11
145.75
21
-57
0
LINE
8
0
10
145.75
20
-57
11
128.25
21
-57
0
LINE
8
0
10
128.25
20
-57
11
128.25
21
-73.5
0
LINE
8
0
10
128.25
20
-56
11
145.75
21
-56
0
LINE
8
0
10
145.75
20
-56
11
145.75
21
-39.5
0
LINE
8
0
10
145.75
20
-39.5
11
128.25
21
-39.5
0
LINE
8
0
10
128.25
20
-39.5
11
128.25
21
-56
0
LINE
8
0
10
146.75
20
-98.2
11
164.25
21
-98.2
0
LINE
8
0
10
164.25
20
-98.2
11
164.25
21
-81.7
0
LINE
8
0
10
164.25
20
-81.7
11
146.75
21
-81.7
0
LINE
8
0
10
146.75
20
-81.7
11
146.75
21
-98.2
0
LINE
8
0
10
146.75
20
-80.7
11
164.25
21
-80.7
0
LINE
8
0
10
164.25
20
-80.7
11
164.25
21
-64.2
0
LINE
8
0
10
164.25
20
-64.2
11
146.75
21
-64.2
0
LINE
8
0
10
146.75
20
-64.2
11
146.75
21
-80.7
0
LINE
8
0
10
146.75
20
-63.2
11
164.25
21
-63.2
0
LINE
8
0
10
164.25
20
-63.2
11
164.25
21
-46.7
0
LINE
8
0
10
164.25
20
-46.7
11
146.75
21
-46.7
0
LINE
8
0
10
146.75
20
-46.7
11
146.75
21
-63.2
0
LINE
8
0
10
165.25
20
-90.7
11
182.75
21
-90.7
0
LINE
8
0
10
182.75
20
-90.7
11
182.75
21
-74.2
0
LINE
8
0
10
182.75
20
-74.2
11
165.25
21
-74.2
0
LINE
8
0
10
165.25
20
-74.2
11
165.25
21
-90.7
0
LINE
8
0
10
165.25
20
-73.2
11
182.75
21
-73.2
0
LINE
8
0
10
182.75
20
-73.2
11
182.75
21
-56.7
0
LINE
8
0
10
182.75
20
-56.7
11
165.25
21
-56.7
0
LINE
8
0
10
165.25
20
-56.7
11
165.25
21
-73.2
0
LINE
8
0
10
160.1788653
20
-120.0923176
11
176.8223543
21
-125.500115
0
LINE
8
0
10
176.8223543
20
-125.500115
11
181.9211347
21
-109.8076824
0
LINE
8
0
10
181.9211347
20
-109.8076824
11
165.2776457
21
-104.399885
0
LINE
8
0
10
165.2776457
20
-104.399885
11
160.1788653
21
-120.0923176
0
LINE
8
0
10
177.3888
20
-125.7580099
11
192.3892278
21
-134.7711762
0
LINE
8
0
10
192.3892278
20
-134.7711762
11
200.887356
21
-120.6279157
0
LINE
8
0
10
200.887356
20
-120.6279157
11
185.8869282
21
-111.6147494
0
LINE
8
0
10
185.8869282
20
-111.6147494
11
177.3888
21
-125.7580099
0
ENDSEC
0
EOF