0
SECTION
2
HEADER
9
$INSUNITS
70
4
0
ENDSEC
0
SECTION
2
TABLES
0
TABLE
2
LTYPE
0
LTYPE
72
65
70
64
2
CONTINUOUS
3
______
73
0
40
0
0
ENDTAB
0
TABLE
2
LAYER
0
ENDTAB
0
ENDSEC
0
SECTION
2
ENTITIES
0
LINE
8
0
10
87.35
20
-108.3822925
11
87.35
21
-56.8441993
0
LINE
8
0
10
89.9246196
20
-52.4718395
11
106.5950615
21
-43.2246224
0
LINE
8
0
10
107.4393029
20
-42.8535657
11
124.2302493
21
-37.2565836
0
LINE
8
0
10
125.8113883
20
-37
11
146.4403628
21
-37
0
LINE
8
0
10
147.5457888
20
-37.1237276
11
180.865426
21
-44.6771199
0
LINE
8
0
10
184.76
20
-49.5533923
11
184.76
21
-52
0
LINE
8
0
10
189.76
20
-57
11
198.9
21
-57
0
LINE
8
0
10
203.9
20
-62
11
203.9
21
-107.5
0
LINE
8
0
10
203.9
20
-107.5
11
203.5341422
21
-110.8650344
0
LINE
8
0
10
203.5341422
20
-110.8650344
11
203.4412735
21
-111.4285869
0
LINE
8
0
10
203.4412735
20
-111.4285869
11
203.3484049
21
-111.9921394
0
LINE
8
0
10
203.3484049
20
-111.9921394
11
203.2555362
21
-112.5556919
0
LINE
8
0
10
203.2555362
20
-112.5556919
11
203.172637
21
-113.1238932
0
LINE
8
0
10
203.172637
20
-113.1238932
11
203.0697989
21
-113.6827968
0
LINE
8
0
10
203.0697989
20
-113.6827968
11
203
21
-114.0621397
0
LINE
8
0
10
202.9746338
20
-114.2
11
202.9669609
21
-114.2417005
0
LINE
8
0
10
202.9669609
20
-114.2417005
11
202.8541535
21
-114.7959554
0
LINE
8
0
10
202.8541535
20
-114.7959554
11
202.7513155
21
-115.3548591
0
LINE
8
0
10
202.7513155
20
-115.3548591
11
202.638508
21
-115.909114
0
LINE
8
0
10
202.638508
20
-115.909114
11
192.8295959
21
-139.1539344
0
LINE
8
0
10
186.7831972
20
-141.9982363
11
90.9102445
21
-113.170518
0
ARC
8
0
10
92.35
20
-56.8441993
40
5
50
119.0174568
51
180
0
ARC
8
0
10
109.0204418
20
-47.5969822
40
5
50
108.4349506
51
119.0174568
0
ARC
8
0
10
125.8113883
20
-42
40
5
50
90
51
108.4349506
0
ARC
8
0
10
146.4403628
20
-42
40
5
50
77.22722
51
90
0
ARC
8
0
10
179.76
20
-49.5533923
40
5
50
0
51
77.22722
0
ARC
8
0
10
189.76
20
-52
40
5
50
180
51
270
0
ARC
8
0
10
198.9
20
-62
40
5
50
0
51
34.9152062
0
ARC
8
0
10
198.9
20
-62
40
5
50
73.7397953
51
90
0
ARC
8
0
10
188.2229527
20
-137.2100108
40
5
50
253.2646687
51
337.1210982
0
ARC
8
0
10
92.35
20
-108.3822925
40
5
50
180
51
253.2646687
0
LINE
8
0
10
203
20
-114.2
11
203
21
-114.0621397
0
LINE
8
0
10
203
20
-59.1381824
11
203
21
-57.2
0
LINE
8
0
10
200.3
20
-57.2
11
203
21
-57.2
0
LINE
8
0
10
202.9746338
20
-114.2
11
203
21
-114.2
0
LINE
8
0
10
91.25
20
-108.25
11
108.75
21
-108.25
0
LINE
8
0
10
108.75
20
-108.25
11
108.75
21
-91.75
0
LINE
8
0
10
108.75
20
-91.75
11
91.25
21
-91.75
0
LINE
8
0
10
91.25
20
-91.75
11
91.25
21
-108.25
0
LINE
8
0
10
91.25
20
-91.25
11
108.75
21
-91.25
0
LINE
8
0
10
108.75
20
-91.25
11
108.75
21
-74.75
0
LINE
8
0
10
108.75
20
-74.75
11
91.25
21
-74.75
0
LINE
8
0
10
91.25
20
-74.75
11
91.25
21
-91.25
0
LINE
8
0
10
91.25
20
-74.25
11
108.75
21
-74.25
0
LINE
8
0
10
108.75
20
-74.25
11
108.75
21
-57.75
0
LINE
8
0
10
108.75
20
-57.75
11
91.25
21
-57.75
0
LINE
8
0
10
91.25
20
-57.75
11
91.25
21
-74.25
0
LINE
8
0
10
109.25
20
-96.25
11
126.75
21
-96.25
0
LINE
8
0
10
126.75
20
-96.25
11
126.75
21
-79.75
0
LINE
8
0
10
126.75
20
-79.75
11
109.25
21
-79.75
0
LINE
8
0
10
109.25
20
-79.75
11
109.25
21
-96.25
0
LINE
8
0
10
109.25
20
-79.25
11
126.75
21
-79.25
0
LINE
8
0
10
126.75
20
-79.25
11
126.75
21
-62.75
0
LINE
8
0
10
126.75
20
-62.75
11
109.25
21
-62.75
0
LINE
8
0
10
109.25
20
-62.75
11
109.25
21
-79.25
0
LINE
8
0
10
109.25
20
-62.25
11
126.75
21
-62.25
0
LINE
8
0
10
126.75
20
-62.25
11
126.75
21
-45.75
0
LINE
8
0
10
126.75
20
-45.75
11
109.25
21
-45.75
0
LINE
8
0
10
109.25
20
-45.75
11
109.25
21
-62.25
0
LINE
8
0
10
127.25
20
-90.25
11
144.75
21
-90.25
0
LINE
8
0
10
144.75
20
-90.25
11
144.75
21
-73.75
0
LINE
8
0
10
144.75
20
-73.75
11
127.25
21
-73.75
0
LINE
8
0
10
127.25
20
-73.75
11
127.25
21
-90.25
0
LINE
8
0
10
127.25
20
-73.25
11
144.75
21
-73.25
0
LINE
8
0
10
144.75
20
-73.25
11
144.75
21
-56.75
0
LINE
8
0
10
144.75
20
-56.75
11
127.25
21
-56.75
0
LINE
8
0
10
127.25
20
-56.75
11
127.25
21
-73.25
0
LINE
8
0
10
127.25
20
-56.25
11
144.75
21
-56.25
0
LINE
8
0
10
144.75
20
-56.25
11
144.75
21
-39.75
0
LINE
8
0
10
144.75
20
-39.75
11
127.25
21
-39.75
0
LINE
8
0
10
127.25
20
-39.75
11
127.25
21
-56.25
0
LINE
8
0
10
145.25
20
-96.25
11
162.75
21
-96.25
0
LINE
8
0
10
162.75
20
-96.25
11
162.75
21
-79.75
0
LINE
8
0
10
162.75
20
-79.75
11
145.25
21
-79.75
0
LINE
8
0
10
145.25
20
-79.75
11
145.25
21
-96.25
0
LINE
8
0
10
145.25
20
-79.25
11
162.75
21
-79.25
0
LINE
8
0
10
162.75
20
-79.25
11
162.75
21
-62.75
0
LINE
8
0
10
162.75
20
-62.75
11
145.25
21
-62.75
0
LINE
8
0
10
145.25
20
-62.75
11
145.25
21
-79.25
0
LINE
8
0
10
145.25
20
-62.25
11
162.75
21
-62.25
0
LINE
8
0
10
162.75
20
-62.25
11
162.75
21
-45.75
0
LINE
8
0
10
162.75
20
-45.75
11
145.25
21
-45.75
0
LINE
8
0
10
145.25
20
-45.75
11
145.25
21
-62.25
0
LINE
8
0
10
163.25
20
-99.25
11
180.75
21
-99.25
0
LINE
8
0
10
180.75
20
-99.25
11
180.75
21
-82.75
0
LINE
8
0
10
180.75
20
-82.75
11
163.25
21
-82.75
0
LINE
8
0
10
163.25
20
-82.75
11
163.25
21
-99.25
0
LINE
8
0
10
163.25
20
-82.25
11
180.75
21
-82.25
0
LINE
8
0
10
180.75
20
-82.25
11
180.75
21
-65.75
0
LINE
8
0
10
180.75
20
-65.75
11
163.25
21
-65.75
0
LINE
8
0
10
163.25
20
-65.75
11
163.25
21
-82.25
0
LINE
8
0
10
163.25
20
-65.25
11
180.75
21
-65.25
0
LINE
8
0
10
180.75
20
-65.25
11
180.75
21
-48.75
0
LINE
8
0
10
180.75
20
-48.75
11
163.25
21
-48.75
0
LINE
8
0
10
163.25
20
-48.75
11
163.25
21
-65.25
0
LINE
8
0
10
155.4128919
20
-118.7042214
11
172.3165939
21
-123.2335547
0
LINE
8
0
10
172.3165939
20
-123.2335547
11
176.5871081
21
-107.2957786
0
LINE
8
0
10
176.5871081
20
-107.2957786
11
159.6834061
21
-102.7664453
0
LINE
8
0
10
159.6834061
20
-102.7664453
11
155.4128919
21
-118.7042214
0
LINE
8
0
10
176.6035277
20
-125.0088283
11
192.463914
21
-132.4046478
0
LINE
8
0
10
192.463914
20
-132.4046478
11
199.4371153
21
-117.4505693
0
LINE
8
0
10
199.4371153
20
-117.4505693
11
183.576729
21
-110.0547498
0
LINE
8
0
10
183.576729
20
-110.0547498
11
176.6035277
21
-125.0088283
0
ENDSEC
0
EOF