0
SECTION
2
HEADER
9
$INSUNITS
70
4
0
ENDSEC
0
SECTION
2
TABLES
0
TABLE
2
LTYPE
0
LTYPE
72
65
70
64
2
CONTINUOUS
3
______
73
0
40
0
0
ENDTAB
0
TABLE
2
LAYER
0
ENDTAB
0
ENDSEC
0
SECTION
2
ENTITIES
0
LINE
8
0
10
87.35
20
-108.3977951
11
87.35
21
-59.7556778
0
LINE
8
0
10
89.4214178
20
-55.7030975
11
106.310532
21
-43.4982415
0
LINE
8
0
10
107.8154412
20
-42.7577897
11
126.5032076
21
-37.206968
0
LINE
8
0
10
127.9268806
20
-37
11
144.2189491
21
-37
0
LINE
8
0
10
145.365566
20
-37.1332485
11
179.146617
21
-45.0921349
0
LINE
8
0
10
183
20
-49.9588863
11
183
21
-54.2
0
LINE
8
0
10
188
20
-59.2
11
197.8
21
-59.2
0
LINE
8
0
10
202.8
20
-64.2
11
202.8
21
-107.5
0
LINE
8
0
10
202.8
20
-107.5
11
202.8220591
21
-110.9303164
0
LINE
8
0
10
202.8220591
20
-110.9303164
11
202.8089456
21
-111.5310593
0
LINE
8
0
10
202.8089456
20
-111.5310593
11
202.7758932
21
-112.1225046
0
LINE
8
0
10
202.7758932
20
-112.1225046
11
202.7229021
21
-112.7046523
0
LINE
8
0
10
202.7229021
20
-112.7046523
11
202.7097886
21
-113.3053952
0
LINE
8
0
10
202.7097886
20
-113.3053952
11
202.7166138
21
-113.9154357
0
LINE
8
0
10
202.7166138
20
-113.9154357
11
202.517763
21
-115.6432836
0
LINE
8
0
10
202.517763
20
-115.6432836
11
202.3850168
21
-116.1882409
0
LINE
8
0
10
202.3850168
20
-116.1882409
11
198.335457
21
-126.4338272
0
LINE
8
0
10
198.3332992
20
-126.4392773
11
193.1272887
21
-139.5657042
0
LINE
8
0
10
187.0205912
20
-142.5047894
11
90.8911066
21
-113.1802244
0
ARC
8
0
10
92.35
20
-59.7556778
40
5
50
125.8536189
51
180
0
ARC
8
0
10
109.2391142
20
-47.5508217
40
5
50
106.5429848
51
125.8536189
0
ARC
8
0
10
127.9268806
20
-42
40
5
50
90
51
106.5429848
0
ARC
8
0
10
144.2189491
20
-42
40
5
50
76.7427594
51
90
0
ARC
8
0
10
178
20
-49.9588863
40
5
50
0
51
76.7427594
0
ARC
8
0
10
188
20
-54.2
40
5
50
180
51
270
0
ARC
8
0
10
197.8
20
-64.2
40
5
50
0
51
90
0
ARC
8
0
10
193.6854951
20
-124.5959332
40
5
50
338.3664575
51
338.4336275
0
ARC
8
0
10
188.4794846
20
-137.7223602
40
5
50
253.0355265
51
338.3664575
0
ARC
8
0
10
92.35
20
-108.3977951
40
5
50
180
51
253.0355265
0
LINE
8
0
10
91.25
20
-108.25
11
108.75
21
-108.25
0
LINE
8
0
10
108.75
20
-108.25
11
108.75
21
-91.75
0
LINE
8
0
10
108.75
20
-91.75
11
91.25
21
-91.75
0
LINE
8
0
10
91.25
20
-91.75
11
91.25
21
-108.25
0
LINE
8
0
10
91.25
20
-91.25
11
108.75
21
-91.25
0
LINE
8
0
10
108.75
20
-91.25
11
108.75
21
-74.75
0
LINE
8
0
10
108.75
20
-74.75
11
91.25
21
-74.75
0
LINE
8
0
10
91.25
20
-74.75
11
91.25
21
-91.25
0
LINE
8
0
10
91.25
20
-74.25
11
108.75
21
-74.25
0
LINE
8
0
10
108.75
20
-74.25
11
108.75
21
-57.75
0
LINE
8
0
10
108.75
20
-57.75
11
91.25
21
-57.75
0
LINE
8
0
10
91.25
20
-57.75
11
91.25
21
-74.25
0
LINE
8
0
10
109.25
20
-96.25
11
126.75
21
-96.25
0
LINE
8
0
10
126.75
20
-96.25
11
126.75
21
-79.75
0
LINE
8
0
10
126.75
20
-79.75
11
109.25
21
-79.75
0
LINE
8
0
10
109.25
20
-79.75
11
109.25
21
-96.25
0
LINE
8
0
10
109.25
20
-79.25
11
126.75
21
-79.25
0
LINE
8
0
10
126.75
20
-79.25
11
126.75
21
-62.75
0
LINE
8
0
10
126.75
20
-62.75
11
109.25
21
-62.75
0
LINE
8
0
10
109.25
20
-62.75
11
109.25
21
-79.25
0
LINE
8
0
10
109.25
20
-62.25
11
126.75
21
-62.25
0
LINE
8
0
10
126.75
20
-62.25
11
126.75
21
-45.75
0
LINE
8
0
10
126.75
20
-45.75
11
109.25
21
-45.75
0
LINE
8
0
10
109.25
20
-45.75
11
109.25
21
-62.25
0
LINE
8
0
10
127.25
20
-90.25
11
144.75
21
-90.25
0
LINE
8
0
10
144.75
20
-90.25
11
144.75
21
-73.75
0
LINE
8
0
10
144.75
20
-73.75
11
127.25
21
-73.75
0
LINE
8
0
10
127.25
20
-73.75
11
127.25
21
-90.25
0
LINE
8
0
10
127.25
20
-73.25
11
144.75
21
-73.25
0
LINE
8
0
10
144.75
20
-73.25
11
144.75
21
-56.75
0
LINE
8
0
10
144.75
20
-56.75
11
127.25
21
-56.75
0
LINE
8
0
10
127.25
20
-56.75
11
127.25
21
-73.25
0
LINE
8
0
10
127.25
20
-56.25
11
144.75
21
-56.25
0
LINE
8
0
10
144.75
20
-56.25
11
144.75
21
-39.75
0
LINE
8
0
10
144.75
20
-39.75
11
127.25
21
-39.75
0
LINE
8
0
10
127.25
20
-39.75
11
127.25
21
-56.25
0
LINE
8
0
10
145.25
20
-96.25
11
162.75
21
-96.25
0
LINE
8
0
10
162.75
20
-96.25
11
162.75
21
-79.75
0
LINE
8
0
10
162.75
20
-79.75
11
145.25
21
-79.75
0
LINE
8
0
10
145.25
20
-79.75
11
145.25
21
-96.25
0
LINE
8
0
10
145.25
20
-79.25
11
162.75
21
-79.25
0
LINE
8
0
10
162.75
20
-79.25
11
162.75
21
-62.75
0
LINE
8
0
10
162.75
20
-62.75
11
145.25
21
-62.75
0
LINE
8
0
10
145.25
20
-62.75
11
145.25
21
-79.25
0
LINE
8
0
10
145.25
20
-62.25
11
162.75
21
-62.25
0
LINE
8
0
10
162.75
20
-62.25
11
162.75
21
-45.75
0
LINE
8
0
10
162.75
20
-45.75
11
145.25
21
-45.75
0
LINE
8
0
10
145.25
20
-45.75
11
145.25
21
-62.25
0
LINE
8
0
10
163.25
20
-99.25
11
180.75
21
-99.25
0
LINE
8
0
10
180.75
20
-99.25
11
180.75
21
-82.75
0
LINE
8
0
10
180.75
20
-82.75
11
163.25
21
-82.75
0
LINE
8
0
10
163.25
20
-82.75
11
163.25
21
-99.25
0
LINE
8
0
10
163.25
20
-82.25
11
180.75
21
-82.25
0
LINE
8
0
10
180.75
20
-82.25
11
180.75
21
-65.75
0
LINE
8
0
10
180.75
20
-65.75
11
163.25
21
-65.75
0
LINE
8
0
10
163.25
20
-65.75
11
163.25
21
-82.25
0
LINE
8
0
10
163.25
20
-65.25
11
180.75
21
-65.25
0
LINE
8
0
10
180.75
20
-65.25
11
180.75
21
-48.75
0
LINE
8
0
10
180.75
20
-48.75
11
163.25
21
-48.75
0
LINE
8
0
10
163.25
20
-48.75
11
163.25
21
-65.25
0
LINE
8
0
10
154.4128919
20
-118.7042214
11
171.3165939
21
-123.2335547
0
LINE
8
0
10
171.3165939
20
-123.2335547
11
175.5871081
21
-107.2957786
0
LINE
8
0
10
175.5871081
20
-107.2957786
11
158.6834061
21
-102.7664453
0
LINE
8
0
10
158.6834061
20
-102.7664453
11
154.4128919
21
-118.7042214
0
LINE
8
0
10
175.951261
20
-125.1020031
11
191.8116473
21
-132.4978226
0
LINE
8
0
10
191.8116473
20
-132.4978226
11
198.7848486
21
-117.5437441
0
LINE
8
0
10
198.7848486
20
-117.5437441
11
182.9244623
21
-110.1479246
0
LINE
8
0
10
182.9244623
20
-110.1479246
11
175.951261
21
-125.1020031
0
ENDSEC
0
EOF