0
SECTION
2
HEADER
9
$INSUNITS
70
4
0
ENDSEC
0
SECTION
2
TABLES
0
TABLE
2
LTYPE
0
LTYPE
72
65
70
64
2
CONTINUOUS
3
______
73
0
40
0
0
ENDTAB
0
TABLE
2
LAYER
0
ENDTAB
0
ENDSEC
0
SECTION
2
ENTITIES
0
LINE
8
0
10
140.9387856
20
-117.7406843
11
122
21
-113.97
0
LINE
8
0
10
122
20
-113.97
11
118.7
21
-113.53
0
LINE
8
0
10
118.7
20
-113.53
11
116.5
21
-113.2
0
LINE
8
0
10
116.5
20
-113.2
11
111.3583263
21
-112.5436161
0
LINE
8
0
10
111.3016249
20
-112.5368472
11
104.5056055
21
-111.7817339
0
LINE
8
0
10
104.2938768
20
-111.7646938
11
100.0174279
21
-111.5508714
0
LINE
8
0
10
99.9825864
20
-111.5489552
11
94.5348503
21
-111.222091
0
LINE
8
0
10
94.4651152
20
-111.2186046
11
92.360112
21
-111.1344045
0
LINE
8
0
10
89
20
-107.6372011
11
89
21
-56.21
0
LINE
8
0
10
89
20
-56.21
11
89.33
21
-54.89
0
LINE
8
0
10
89.33
20
-54.89
11
89.66
21
-54.076
0
LINE
8
0
10
89.66
20
-54.076
11
90.32
21
-53.13
0
LINE
8
0
10
90.32
20
-53.13
11
91.2
21
-52.294
0
LINE
8
0
10
91.2
20
-52.294
11
93.4
21
-50.71
0
LINE
8
0
10
93.4
20
-50.71
11
97.8
21
-48.18
0
LINE
8
0
10
97.8
20
-48.18
11
100
21
-47.08
0
LINE
8
0
10
100
20
-47.08
11
102.6
21
-45.86
0
LINE
8
0
10
102.6
20
-45.86
11
107
21
-43.748
0
LINE
8
0
10
107
20
-43.748
11
109.2
21
-42.824
0
LINE
8
0
10
109.2
20
-42.824
11
113.5129707
21
-41.1635063
0
LINE
8
0
10
113.6886904
20
-41.1011756
11
117.884694
21
-39.7374745
0
LINE
8
0
10
118.1176207
20
-39.6705948
11
122.4
21
-38.6
0
LINE
8
0
10
122.4
20
-38.6
11
125
21
-38.1
0
LINE
8
0
10
125
20
-38.1
11
129.29603
21
-37.670397
0
LINE
8
0
10
129.5044049
20
-37.6558238
11
133.8
21
-37.484
0
LINE
8
0
10
133.8
20
-37.484
11
136
21
-37.374
0
LINE
8
0
10
136
20
-37.374
11
138.2
21
-37.484
0
LINE
8
0
10
138.2
20
-37.484
11
142.4955951
21
-37.6558238
0
LINE
8
0
10
142.70397
20
-37.670397
11
146.9142742
21
-38.0914274
0
LINE
8
0
10
147.0852029
20
-38.1127804
11
156.2
21
-39.48
0
LINE
8
0
10
156.2
20
-39.48
11
160.6
21
-40.36
0
LINE
8
0
10
160.6
20
-40.36
11
165
21
-41.35
0
LINE
8
0
10
165
20
-41.35
11
165.4
21
-41.446
0
LINE
8
0
10
165.4
20
-41.446
11
176.2911362
21
-44.2123486
0
LINE
8
0
10
176.5068674
20
-44.2745748
11
180.14
21
-45.45
0
LINE
8
0
10
180.14
20
-45.45
11
180.8
21
-45.736
0
LINE
8
0
10
180.8
20
-45.736
11
181.68
21
-46.308
0
LINE
8
0
10
181.68
20
-46.308
11
182.12
21
-46.77
0
LINE
8
0
10
182.12
20
-46.77
11
182.34
21
-47.1
0
LINE
8
0
10
182.34
20
-47.1
11
182.67
21
-47.98
0
LINE
8
0
10
182.67
20
-47.98
11
182.89
21
-48.86
0
LINE
8
0
10
182.89
20
-48.86
11
183
21
-50.4
0
LINE
8
0
10
183
20
-50.4
11
183
21
-55.7
0
LINE
8
0
10
186.5
20
-59.2
11
199.3
21
-59.2
0
LINE
8
0
10
202.8
20
-62.7
11
202.8
21
-107.4990172
0
LINE
8
0
10
202.8000006
20
-107.5010388
11
202.8021204
21
-111.1710188
0
LINE
8
0
10
202.8021204
20
-111.1710188
11
202.7890068
21
-111.7717617
0
LINE
8
0
10
202.7890068
20
-111.7717617
11
202.795832
21
-112.3818022
0
LINE
8
0
10
202.795832
20
-112.3818022
11
202.7827185
21
-112.9825451
0
LINE
8
0
10
202.7827185
20
-112.9825451
11
202.7895437
21
-113.5925856
0
LINE
8
0
10
202.7895437
20
-113.5925856
11
202.7698196
21
-114.3116175
0
LINE
8
0
10
202.7698196
20
-114.3116175
11
202.5973033
21
-115.2021444
0
LINE
8
0
10
202.5973033
20
-115.2021444
11
202.3250931
21
-116.0461833
0
LINE
8
0
10
202.3250931
20
-116.0461833
11
197.4374239
21
-126.2675568
0
LINE
8
0
10
197.436984
20
-126.2684766
11
194.1114745
21
-133.2177715
0
LINE
8
0
10
189.6354345
20
-134.9489478
11
172.2849882
21
-127.8903969
0
LINE
8
0
10
172.2849882
20
-127.8903969
11
171.4309552
21
-127.500011
0
LINE
8
0
10
171.4309552
20
-127.500011
11
162.1323534
21
-124.1009582
0
LINE
8
0
10
162.0594582
20
-124.0752208
11
152.7868877
21
-120.9160383
0
LINE
8
0
10
152.6202227
20
-120.8638582
11
146.41926
21
-119.0910488
0
LINE
8
0
10
146.2952655
20
-119.0580459
11
141.0934391
21
-117.7751323
0
ARC
8
0
10
110.9151146
20
-116.0154403
40
3.5
50
82.7249944
51
83.6598095
0
ARC
8
0
10
104.1190952
20
-115.260327
40
3.5
50
83.6598095
51
87.1375956
0
ARC
8
0
10
100.1922095
20
-108.0552382
40
3.5
50
266.566369
51
267.1375956
0
ARC
8
0
10
94.3252272
20
-114.715808
40
3.5
50
86.566369
51
87.7093922
0
ARC
8
0
10
92.5
20
-107.6372011
40
3.5
50
180
51
267.7093922
0
ARC
8
0
10
114.7704917
20
-44.4297948
40
3.5
50
108.0041626
51
111.0567034
0
ARC
8
0
10
118.9664953
20
-43.0660937
40
3.5
50
104.0362421
51
108.0041626
0
ARC
8
0
10
129.6442929
20
-41.1530272
40
3.5
50
92.2906078
51
95.710592
0
ARC
8
0
10
142.3557071
20
-41.1530272
40
3.5
50
84.289408
51
87.7093922
0
ARC
8
0
10
146.5660112
20
-41.5740576
40
3.5
50
81.4692321
51
84.289408
0
ARC
8
0
10
175.4294964
20
-47.6046305
40
3.5
50
72.0720791
51
75.7482555
0
ARC
8
0
10
186.5
20
-55.7
40
3.5
50
180
51
270
0
ARC
8
0
10
199.3
20
-62.7
40
3.5
50
0
51
90
0
ARC
8
0
10
206.3
20
-107.4990172
40
3.5
50
180
51
180.033094
0
ARC
8
0
10
194.2798563
20
-124.7576673
40
3.5
50
334.427059
51
334.4437501
0
ARC
8
0
10
190.9543468
20
-131.7069622
40
3.5
50
247.8624072
51
334.427059
0
ARC
8
0
10
160.9307145
20
-127.388216
40
3.5
50
69.9203942
51
71.1859275
0
ARC
8
0
10
151.6581441
20
-124.2290335
40
3.5
50
71.1859275
51
74.0451599
0
ARC
8
0
10
145.4571813
20
-122.4562241
40
3.5
50
74.0451599
51
76.1457646
0
ARC
8
0
10
140.2553549
20
-121.1733106
40
3.5
50
76.1457646
51
78.7397424
0
ENDSEC
0
EOF