0
SECTION
2
HEADER
9
$INSUNITS
70
4
0
ENDSEC
0
SECTION
2
TABLES
0
TABLE
2
LTYPE
0
LTYPE
72
65
70
64
2
CONTINUOUS
3
______
73
0
40
0
0
ENDTAB
0
TABLE
2
LAYER
0
ENDTAB
0
ENDSEC
0
SECTION
2
ENTITIES
0
LINE
8
0
10
87.35
20
-108.3977951
11
87.35
21
-59.7556778
0
LINE
8
0
10
89.7024648
20
-55.5
11
106.310532
21
-43.4982415
0
LINE
8
0
10
107.8154412
20
-42.7577897
11
125
21
-37.6534653
0
LINE
8
0
10
125.5166667
20
-37.5
11
126.5032076
21
-37.206968
0
LINE
8
0
10
127.9268806
20
-37
11
144.2189491
21
-37
0
LINE
8
0
10
145.365566
20
-37.1332485
11
146.9222222
21
-37.5
0
LINE
8
0
10
147
20
-37.5183246
11
179.146617
21
-45.0921349
0
LINE
8
0
10
188
20
-59.2
11
197.8
21
-59.2
0
LINE
8
0
10
202.8
20
-64.2
11
202.8
21
-107.5
0
LINE
8
0
10
202.8
20
-107.5
11
202.8220591
21
-110.9303164
0
LINE
8
0
10
202.8220591
20
-110.9303164
11
202.8089456
21
-111.5310593
0
LINE
8
0
10
202.8089456
20
-111.5310593
11
202.7758932
21
-112.1225046
0
LINE
8
0
10
202.7758932
20
-112.1225046
11
202.7229021
21
-112.7046523
0
LINE
8
0
10
202.7229021
20
-112.7046523
11
202.7097886
21
-113.3053952
0
LINE
8
0
10
202.7097886
20
-113.3053952
11
202.7166138
21
-113.9154357
0
LINE
8
0
10
202.7166138
20
-113.9154357
11
202.517763
21
-115.6432836
0
LINE
8
0
10
202.517763
20
-115.6432836
11
202.3850168
21
-116.1882409
0
LINE
8
0
10
202.3850168
20
-116.1882409
11
198.335457
21
-126.4338272
0
LINE
8
0
10
198.3332992
20
-126.4392773
11
193.1272887
21
-139.5657042
0
LINE
8
0
10
187.0205912
20
-142.5047894
11
90.8911066
21
-113.1802244
0
ARC
8
0
10
92.35
20
-59.7556778
40
5
50
132.0670647
51
180
0
ARC
8
0
10
109.2391142
20
-47.5508217
40
5
50
106.5429848
51
125.8536189
0
ARC
8
0
10
127.9268806
20
-42
40
5
50
90
51
106.5429848
0
ARC
8
0
10
144.2189491
20
-42
40
5
50
76.7427594
51
90
0
ARC
8
0
10
178
20
-49.9588863
40
5
50
43.7709599
51
76.7427594
0
ARC
8
0
10
188
20
-54.2
40
5
50
180
51
270
0
ARC
8
0
10
197.8
20
-64.2
40
5
50
0
51
90
0
ARC
8
0
10
193.6854951
20
-124.5959332
40
5
50
338.3664575
51
338.4336275
0
ARC
8
0
10
188.4794846
20
-137.7223602
40
5
50
253.0355265
51
338.3664575
0
ARC
8
0
10
92.35
20
-108.3977951
40
5
50
180
51
253.0355265
0
LINE
8
0
10
89
20
-110.5
11
111
21
-110.5
0
LINE
8
0
10
111
20
-110.5
11
111
21
-103.5
0
LINE
8
0
10
89
20
-110.5
11
89
21
-56.0438723
0
LINE
8
0
10
121
20
-98.5
11
121
21
-103.5
0
LINE
8
0
10
121
20
-103.5
11
111
21
-103.5
0
LINE
8
0
10
97
20
-55.5
11
89.7024648
21
-55.5
0
LINE
8
0
10
121
20
-98.5
11
129
21
-98.5
0
LINE
8
0
10
129
20
-98.5
11
129
21
-92.5
0
LINE
8
0
10
97
20
-50.5
11
107
21
-50.5
0
LINE
8
0
10
97
20
-55.5
11
97
21
-50.5
0
LINE
8
0
10
107
20
-43.5
11
125
21
-43.5
0
LINE
8
0
10
107
20
-43.5
11
107
21
-50.5
0
LINE
8
0
10
129
20
-92.5
11
143
21
-92.5
0
LINE
8
0
10
147
20
-43.5
11
147
21
-37.5183246
0
LINE
8
0
10
146.9222222
20
-37.5
11
125.5166667
21
-37.5
0
LINE
8
0
10
125
20
-37.6534653
11
125
21
-43.5
0
LINE
8
0
10
143
20
-98.5
11
161
21
-98.5
0
LINE
8
0
10
143
20
-92.5
11
143
21
-98.5
0
LINE
8
0
10
165
20
-46.5
11
165
21
-43.5
0
LINE
8
0
10
147
20
-43.5
11
165
21
-43.5
0
LINE
8
0
10
162.6503005
20
-101.5
11
183
21
-101.5
0
LINE
8
0
10
183
20
-101.5
11
183
21
-54.2
0
LINE
8
0
10
161
20
-98.5
11
161
21
-101.0578033
0
LINE
8
0
10
165
20
-46.5
11
181.6105547
21
-46.5
0
LINE
8
0
10
151.6572159
20
-120.2952117
11
172.9075841
21
-125.9892307
0
LINE
8
0
10
172.9075841
20
-125.9892307
11
178.3427841
21
-105.7047883
0
LINE
8
0
10
178.3427841
20
-105.7047883
11
162.6503005
21
-101.5
0
LINE
8
0
10
161
20
-101.0578033
11
157.0924159
21
-100.0107693
0
LINE
8
0
10
157.0924159
20
-100.0107693
11
151.6572159
21
-120.2952117
0
LINE
8
0
10
172.9611774
20
-126.1903045
11
192.8999487
21
-135.4879062
0
LINE
8
0
10
192.8999487
20
-135.4879062
11
201.7749322
21
-116.4554427
0
LINE
8
0
10
201.7749322
20
-116.4554427
11
181.8361609
21
-107.157841
0
LINE
8
0
10
181.8361609
20
-107.157841
11
172.9611774
21
-126.1903045
0
ENDSEC
0
EOF