0
SECTION
2
HEADER
9
$INSUNITS
70
4
0
ENDSEC
0
SECTION
2
TABLES
0
TABLE
2
LTYPE
0
LTYPE
72
65
70
64
2
CONTINUOUS
3
______
73
0
40
0
0
ENDTAB
0
TABLE
2
LAYER
0
ENDTAB
0
ENDSEC
0
SECTION
2
ENTITIES
0
LINE
8
0
10
-8.75
20
-8.25
11
8.75
21
-8.25
0
LINE
8
0
10
8.75
20
-8.25
11
8.75
21
8.25
0
LINE
8
0
10
8.75
20
8.25
11
-8.75
21
8.25
0
LINE
8
0
10
-8.75
20
8.25
11
-8.75
21
-8.25
0
LINE
8
0
10
-8.75
20
8.75
11
8.75
21
8.75
0
LINE
8
0
10
8.75
20
8.75
11
8.75
21
25.25
0
LINE
8
0
10
8.75
20
25.25
11
-8.75
21
25.25
0
LINE
8
0
10
-8.75
20
25.25
11
-8.75
21
8.75
0
LINE
8
0
10
-8.75
20
25.75
11
8.75
21
25.75
0
LINE
8
0
10
8.75
20
25.75
11
8.75
21
42.25
0
LINE
8
0
10
8.75
20
42.25
11
-8.75
21
42.25
0
LINE
8
0
10
-8.75
20
42.25
11
-8.75
21
25.75
0
LINE
8
0
10
10.15
20
3.75
11
27.65
21
3.75
0
LINE
8
0
10
27.65
20
3.75
11
27.65
21
37.25
0
LINE
8
0
10
27.65
20
20.25
11
10.15
21
20.25
0
LINE
8
0
10
10.15
20
3.75
11
10.15
21
37.25
0
LINE
8
0
10
10.15
20
20.75
11
27.65
21
20.75
0
LINE
8
0
10
9.75
20
37.25
11
28.05
21
37.25
0
LINE
8
0
10
10.15
20
37.75
11
27.65
21
37.75
0
LINE
8
0
10
27.65
20
37.75
11
27.65
21
54.25
0
LINE
8
0
10
27.65
20
54.25
11
10.15
21
54.25
0
LINE
8
0
10
10.15
20
54.25
11
10.15
21
37.75
0
LINE
8
0
10
29.05
20
9.75
11
46.55
21
9.75
0
LINE
8
0
10
46.55
20
9.75
11
46.55
21
26.25
0
LINE
8
0
10
46.55
20
26.25
11
29.05
21
26.25
0
LINE
8
0
10
29.05
20
26.25
11
29.05
21
9.75
0
LINE
8
0
10
29.05
20
26.75
11
46.55
21
26.75
0
LINE
8
0
10
46.55
20
26.75
11
46.55
21
43.25
0
LINE
8
0
10
46.55
20
43.25
11
29.05
21
43.25
0
LINE
8
0
10
29.05
20
43.25
11
29.05
21
26.75
0
LINE
8
0
10
29.05
20
43.75
11
46.55
21
43.75
0
LINE
8
0
10
46.55
20
43.75
11
46.55
21
60.25
0
LINE
8
0
10
46.55
20
60.25
11
29.05
21
60.25
0
LINE
8
0
10
29.05
20
60.25
11
29.05
21
43.75
0
LINE
8
0
10
47.95
20
3.75
11
65.45
21
3.75
0
LINE
8
0
10
65.45
20
3.75
11
65.45
21
20.25
0
LINE
8
0
10
65.45
20
20.25
11
47.95
21
20.25
0
LINE
8
0
10
47.95
20
-5.507651
11
47.95
21
37.25
0
LINE
8
0
10
47.95
20
20.75
11
65.85
21
20.75
0
LINE
8
0
10
65.45
20
20.75
11
65.45
21
37.25
0
LINE
8
0
10
47.55
20
37.25
11
65.85
21
37.25
0
LINE
8
0
10
47.95
20
37.75
11
65.45
21
37.75
0
LINE
8
0
10
65.45
20
37.75
11
65.45
21
54.25
0
LINE
8
0
10
65.45
20
54.25
11
47.95
21
54.25
0
LINE
8
0
10
47.95
20
54.25
11
47.95
21
37.75
0
LINE
8
0
10
66.85
20
0.75
11
84.35
21
0.75
0
LINE
8
0
10
84.35
20
0.75
11
84.35
21
17.25
0
LINE
8
0
10
66.45
20
17.25
11
84.35
21
17.25
0
LINE
8
0
10
66.85
20
0.75
11
66.85
21
17.25
0
LINE
8
0
10
66.85
20
17.75
11
84.35
21
17.75
0
LINE
8
0
10
84.35
20
17.75
11
84.35
21
34.25
0
LINE
8
0
10
84.35
20
34.25
11
66.85
21
34.25
0
LINE
8
0
10
66.85
20
34.25
11
66.85
21
17.75
0
LINE
8
0
10
66.85
20
34.75
11
84.35
21
34.75
0
LINE
8
0
10
84.35
20
34.75
11
84.35
21
51.25
0
LINE
8
0
10
84.35
20
51.25
11
66.85
21
51.25
0
LINE
8
0
10
66.85
20
51.25
11
66.85
21
34.75
0
LINE
8
0
10
50.1662257
20
-14.5395357
11
75.7632601
21
-21.3982404
0
LINE
8
0
10
54.4367399
20
1.3982404
11
80.0337743
21
-5.4604643
0
LINE
8
0
10
77.4654879
20
-22.3877692
11
93.3258742
21
-29.7835887
0
LINE
8
0
10
93.3258742
20
-29.7835887
11
100.2990755
21
-14.8295102
0
LINE
8
0
10
100.2990755
20
-14.8295102
11
84.4386892
21
-7.4336907
0
LINE
8
0
10
84.4386892
20
-7.4336907
11
77.4654879
21
-22.3877692
0
LINE
8
0
10
75.7632601
20
-21.3982404
11
80.0337743
21
-5.4604643
0
LINE
8
0
10
54.4367399
20
1.3982404
11
50.1662257
21
-14.5395357
0
LINE
8
0
10
9.75
20
8.75
11
10.15
21
8.75
0
LINE
8
0
10
27.65
20
8.75
11
28.05
21
8.75
0
LINE
8
0
10
9.75
20
8.75
11
9.75
21
37.25
0
LINE
8
0
10
47.55
20
-5.4079198
11
47.55
21
37.25
0
LINE
8
0
10
28.05
20
8.75
11
28.05
21
37.25
0
LINE
8
0
10
66.45
20
9.049697
11
66.45
21
17.25
0
LINE
8
0
10
65.85
20
20.75
11
65.85
21
37.25
0
LINE
8
0
10
66.45
20
9.049697
11
66.85
21
8.9425173
0
LINE
8
0
10
47.95
20
-5.507651
11
47.55
21
-5.4079198
0
ENDSEC
0
EOF