0
SECTION
2
HEADER
9
$INSUNITS
70
4
0
ENDSEC
0
SECTION
2
TABLES
0
TABLE
2
LTYPE
0
LTYPE
72
65
70
64
2
CONTINUOUS
3
______
73
0
40
0
0
ENDTAB
0
TABLE
2
LAYER
0
ENDTAB
0
ENDSEC
0
SECTION
2
ENTITIES
0
LINE
8
0
10
89
20
-110.5
11
111
21
-110.5
0
LINE
8
0
10
111
20
-110.5
11
111
21
-103.5
0
LINE
8
0
10
89
20
-110.5
11
89
21
-55.5
0
LINE
8
0
10
121
20
-98.5
11
121
21
-103.5
0
LINE
8
0
10
121
20
-103.5
11
111
21
-103.5
0
LINE
8
0
10
97
20
-55.5
11
89
21
-55.5
0
LINE
8
0
10
121
20
-98.5
11
129
21
-98.5
0
LINE
8
0
10
129
20
-98.5
11
129
21
-92.5
0
LINE
8
0
10
97
20
-50.5
11
107
21
-50.5
0
LINE
8
0
10
97
20
-55.5
11
97
21
-50.5
0
LINE
8
0
10
107
20
-43.5
11
125
21
-43.5
0
LINE
8
0
10
107
20
-43.5
11
107
21
-50.5
0
LINE
8
0
10
129
20
-92.5
11
143
21
-92.5
0
LINE
8
0
10
147
20
-43.5
11
147
21
-37.5
0
LINE
8
0
10
147
20
-37.5
11
125
21
-37.5
0
LINE
8
0
10
125
20
-37.5
11
125
21
-43.5
0
LINE
8
0
10
143
20
-98.5
11
161
21
-98.5
0
LINE
8
0
10
143
20
-92.5
11
143
21
-98.5
0
LINE
8
0
10
165
20
-46.5
11
165
21
-43.5
0
LINE
8
0
10
147
20
-43.5
11
165
21
-43.5
0
LINE
8
0
10
162.6503005
20
-101.5
11
183
21
-101.5
0
LINE
8
0
10
183
20
-101.5
11
183
21
-46.5
0
LINE
8
0
10
161
20
-98.5
11
161
21
-101.0578033
0
LINE
8
0
10
165
20
-46.5
11
183
21
-46.5
0
LINE
8
0
10
151.6572159
20
-120.2952117
11
172.9075841
21
-125.9892307
0
LINE
8
0
10
172.9075841
20
-125.9892307
11
178.3427841
21
-105.7047883
0
LINE
8
0
10
178.3427841
20
-105.7047883
11
162.6503005
21
-101.5
0
LINE
8
0
10
161
20
-101.0578033
11
157.0924159
21
-100.0107693
0
LINE
8
0
10
157.0924159
20
-100.0107693
11
151.6572159
21
-120.2952117
0
LINE
8
0
10
172.9611774
20
-126.1903045
11
192.8999487
21
-135.4879062
0
LINE
8
0
10
192.8999487
20
-135.4879062
11
201.7749322
21
-116.4554427
0
LINE
8
0
10
201.7749322
20
-116.4554427
11
181.8361609
21
-107.157841
0
LINE
8
0
10
181.8361609
20
-107.157841
11
172.9611774
21
-126.1903045
0
ENDSEC
0
EOF