0
SECTION
2
HEADER
9
$INSUNITS
70
4
0
ENDSEC
0
SECTION
2
TABLES
0
TABLE
2
LTYPE
0
LTYPE
72
65
70
64
2
CONTINUOUS
3
______
73
0
40
0
0
ENDTAB
0
TABLE
2
LAYER
0
ENDTAB
0
ENDSEC
0
SECTION
2
ENTITIES
0
LINE
8
0
10
89
20
-110.5
11
111
21
-110.5
0
LINE
8
0
10
111
20
-110.5
11
111
21
-103.5
0
LINE
8
0
10
89
20
-110.5
11
89
21
-55.5
0
LINE
8
0
10
121
20
-98.5
11
121
21
-103.5
0
LINE
8
0
10
121
20
-103.5
11
111
21
-103.5
0
LINE
8
0
10
97
20
-55.5
11
89
21
-55.5
0
LINE
8
0
10
121
20
-98.5
11
129
21
-98.5
0
LINE
8
0
10
129
20
-98.5
11
129
21
-92.5
0
LINE
8
0
10
97
20
-50.5
11
107
21
-50.5
0
LINE
8
0
10
97
20
-55.5
11
97
21
-50.5
0
LINE
8
0
10
107
20
-43.5
11
125
21
-43.5
0
LINE
8
0
10
107
20
-43.5
11
107
21
-50.5
0
LINE
8
0
10
129
20
-92.5
11
143
21
-92.5
0
LINE
8
0
10
147
20
-43.5
11
147
21
-37.5
0
LINE
8
0
10
147
20
-37.5
11
125
21
-37.5
0
LINE
8
0
10
125
20
-37.5
11
125
21
-43.5
0
LINE
8
0
10
143
20
-98.5
11
161
21
-98.5
0
LINE
8
0
10
143
20
-92.5
11
143
21
-98.5
0
LINE
8
0
10
165
20
-46.5
11
165
21
-43.5
0
LINE
8
0
10
147
20
-43.5
11
165
21
-43.5
0
LINE
8
0
10
163.6503005
20
-101.5
11
178
21
-101.5
0
LINE
8
0
10
183
20
-57.2
11
183
21
-46.5
0
LINE
8
0
10
161
20
-98.5
11
161
21
-100.7898541
0
LINE
8
0
10
165
20
-46.5
11
183
21
-46.5
0
LINE
8
0
10
152.6572159
20
-120.2952117
11
173.6908397
21
-125.9311542
0
LINE
8
0
10
174.2369522
20
-124.7600123
11
178
21
-110.7161267
0
LINE
8
0
10
178
20
-105.3449904
11
163.6503005
21
-101.5
0
LINE
8
0
10
161
20
-100.7898541
11
158.0924159
21
-100.0107693
0
LINE
8
0
10
158.0924159
20
-100.0107693
11
152.6572159
21
-120.2952117
0
LINE
8
0
10
173.6134441
20
-126.0971297
11
193.5522154
21
-135.3947314
0
LINE
8
0
10
193.5522154
20
-135.3947314
11
202.4271989
21
-116.3622679
0
LINE
8
0
10
202.4271989
20
-116.3622679
11
197.7902004
21
-114.2
0
LINE
8
0
10
179.1611668
20
-114.2
11
174.2369522
21
-124.7600123
0
LINE
8
0
10
173.6908397
20
-125.9311542
11
173.6134441
21
-126.0971297
0
LINE
8
0
10
203
20
-114.2
11
203
21
-57.2
0
LINE
8
0
10
183
20
-57.2
11
203
21
-57.2
0
LINE
8
0
10
178
20
-114.2
11
179.1611668
21
-114.2
0
LINE
8
0
10
197.7902004
20
-114.2
11
203
21
-114.2
0
LINE
8
0
10
178
20
-114.2
11
178
21
-110.7161267
0
LINE
8
0
10
178
20
-105.3449904
11
178
21
-101.5
0
ENDSEC
0
EOF