0
SECTION
2
HEADER
9
$INSUNITS
70
4
0
ENDSEC
0
SECTION
2
TABLES
0
TABLE
2
LTYPE
0
LTYPE
72
65
70
64
2
CONTINUOUS
3
______
73
0
40
0
0
ENDTAB
0
TABLE
2
LAYER
0
ENDTAB
0
ENDSEC
0
SECTION
2
ENTITIES
0
LINE
8
0
10
98.5605306
20
-111.6250331
11
95.6043711
21
-111.4402732
0
LINE
8
0
10
95.5956537
20
-111.4397196
11
92.849937
21
-111.2625766
0
LINE
8
0
10
88.78
20
-106.9216015
11
88.78
21
-59.5775455
0
LINE
8
0
10
183.145
20
-50.90625
11
183.2805941
21
-54.4655941
0
LINE
8
0
10
187.6274411
20
-58.65
11
197.504
21
-58.65
0
LINE
8
0
10
201.854
20
-63
11
201.854
21
-110.8
0
LINE
8
0
10
201.854
20
-110.8
11
201.8518846
21
-111.3347744
0
LINE
8
0
10
201.8518846
20
-111.3347744
11
201.7465466
21
-114.6840585
0
LINE
8
0
10
201.7465466
20
-114.6840585
11
201.700166
21
-115.1479171
0
LINE
8
0
10
201.700166
20
-115.1479171
11
201.6737241
21
-115.6210734
0
LINE
8
0
10
201.6737241
20
-115.6210734
11
201.4944899
21
-116.2657245
0
LINE
8
0
10
201.4944899
20
-116.2657245
11
197.4870008
21
-126.1452287
0
LINE
8
0
10
197.3798684
20
-126.3878307
11
194.4747834
21
-132.4585673
0
LINE
8
0
10
188.8715759
20
-134.5936127
11
182.8274608
21
-132.0641407
0
ARC
8
0
10
95.8757167
20
-107.0987445
40
4.35
50
266.3086127
51
266.4236649
0
ARC
8
0
10
93.13
20
-106.9216015
40
4.35
50
180
51
266.3086127
0
ARC
8
0
10
93.13
20
-59.5775455
40
4.35
50
174.5036485
51
180
0
ARC
8
0
10
187.6274411
20
-54.3
40
4.35
50
182.1816399
51
270
0
ARC
8
0
10
197.504
20
-63
40
4.35
50
0
51
90
0
ARC
8
0
10
193.4560097
20
-124.5101106
40
4.35
50
334.427059
51
337.9207182
0
ARC
8
0
10
190.5509247
20
-130.5808472
40
4.35
50
247.2906108
51
334.427059
0
ARC
8
0
10
181.1481119
20
-136.0769062
40
4.35
50
67.2906108
51
74.8201398
0
ARC
8
0
10
148
20
-135.72
40
100
50
101.7475566
51
125.0996322
0
LINE
8
0
10
127.64
20
-37.8585118
11
127.6400001
21
-37.8145844
0
LINE
8
0
10
88.8
20
-57.1772728
11
88.8
21
-59.1608922
0
ARC
8
0
10
135
20
-167.65
40
130
50
69.4908389
51
93.245558
0
LINE
8
0
10
183.145
20
-50.90625
11
183.145
21
-49.6363611
0
ARC
8
0
10
88.5
20
-336.4
40
225
50
65.3652721
51
87.4372525
0
ARC
8
0
10
92.8
20
-57.1772728
40
4
50
125.0996322
51
180
0
ARC
8
0
10
179.145
20
-49.6363611
40
4
50
0
51
69.4908389
0
LINE
8
0
10
91.25
20
-108.25
11
108.75
21
-108.25
0
LINE
8
0
10
108.75
20
-108.25
11
108.75
21
-91.75
0
LINE
8
0
10
108.75
20
-91.75
11
91.25
21
-91.75
0
LINE
8
0
10
91.25
20
-91.75
11
91.25
21
-108.25
0
LINE
8
0
10
91.25
20
-91.25
11
108.75
21
-91.25
0
LINE
8
0
10
108.75
20
-91.25
11
108.75
21
-74.75
0
LINE
8
0
10
108.75
20
-74.75
11
91.25
21
-74.75
0
LINE
8
0
10
91.25
20
-74.75
11
91.25
21
-91.25
0
LINE
8
0
10
91.25
20
-74.25
11
108.75
21
-74.25
0
LINE
8
0
10
108.75
20
-74.25
11
108.75
21
-57.75
0
LINE
8
0
10
108.75
20
-57.75
11
91.25
21
-57.75
0
LINE
8
0
10
91.25
20
-57.75
11
91.25
21
-74.25
0
LINE
8
0
10
109.25
20
-96.25
11
126.75
21
-96.25
0
LINE
8
0
10
126.75
20
-96.25
11
126.75
21
-79.75
0
LINE
8
0
10
126.75
20
-79.75
11
109.25
21
-79.75
0
LINE
8
0
10
109.25
20
-79.75
11
109.25
21
-96.25
0
LINE
8
0
10
109.25
20
-79.25
11
126.75
21
-79.25
0
LINE
8
0
10
126.75
20
-79.25
11
126.75
21
-62.75
0
LINE
8
0
10
126.75
20
-62.75
11
109.25
21
-62.75
0
LINE
8
0
10
109.25
20
-62.75
11
109.25
21
-79.25
0
LINE
8
0
10
109.25
20
-62.25
11
126.75
21
-62.25
0
LINE
8
0
10
126.75
20
-62.25
11
126.75
21
-45.75
0
LINE
8
0
10
126.75
20
-45.75
11
109.25
21
-45.75
0
LINE
8
0
10
109.25
20
-45.75
11
109.25
21
-62.25
0
LINE
8
0
10
127.25
20
-90.25
11
144.75
21
-90.25
0
LINE
8
0
10
144.75
20
-90.25
11
144.75
21
-73.75
0
LINE
8
0
10
144.75
20
-73.75
11
127.25
21
-73.75
0
LINE
8
0
10
127.25
20
-73.75
11
127.25
21
-90.25
0
LINE
8
0
10
127.25
20
-73.25
11
144.75
21
-73.25
0
LINE
8
0
10
144.75
20
-73.25
11
144.75
21
-56.75
0
LINE
8
0
10
144.75
20
-56.75
11
127.25
21
-56.75
0
LINE
8
0
10
127.25
20
-56.75
11
127.25
21
-73.25
0
LINE
8
0
10
127.25
20
-56.25
11
144.75
21
-56.25
0
LINE
8
0
10
144.75
20
-56.25
11
144.75
21
-39.75
0
LINE
8
0
10
144.75
20
-39.75
11
127.25
21
-39.75
0
LINE
8
0
10
127.25
20
-39.75
11
127.25
21
-56.25
0
LINE
8
0
10
145.25
20
-96.25
11
162.75
21
-96.25
0
LINE
8
0
10
162.75
20
-96.25
11
162.75
21
-79.75
0
LINE
8
0
10
162.75
20
-79.75
11
145.25
21
-79.75
0
LINE
8
0
10
145.25
20
-79.75
11
145.25
21
-96.25
0
LINE
8
0
10
145.25
20
-79.25
11
162.75
21
-79.25
0
LINE
8
0
10
162.75
20
-79.25
11
162.75
21
-62.75
0
LINE
8
0
10
162.75
20
-62.75
11
145.25
21
-62.75
0
LINE
8
0
10
145.25
20
-62.75
11
145.25
21
-79.25
0
LINE
8
0
10
145.25
20
-62.25
11
162.75
21
-62.25
0
LINE
8
0
10
162.75
20
-62.25
11
162.75
21
-45.75
0
LINE
8
0
10
162.75
20
-45.75
11
145.25
21
-45.75
0
LINE
8
0
10
145.25
20
-45.75
11
145.25
21
-62.25
0
LINE
8
0
10
163.25
20
-99.25
11
180.75
21
-99.25
0
LINE
8
0
10
180.75
20
-99.25
11
180.75
21
-82.75
0
LINE
8
0
10
180.75
20
-82.75
11
163.25
21
-82.75
0
LINE
8
0
10
163.25
20
-82.75
11
163.25
21
-99.25
0
LINE
8
0
10
163.25
20
-82.25
11
180.75
21
-82.25
0
LINE
8
0
10
180.75
20
-82.25
11
180.75
21
-65.75
0
LINE
8
0
10
180.75
20
-65.75
11
163.25
21
-65.75
0
LINE
8
0
10
163.25
20
-65.75
11
163.25
21
-82.25
0
LINE
8
0
10
163.25
20
-65.25
11
180.75
21
-65.25
0
LINE
8
0
10
180.75
20
-65.25
11
180.75
21
-48.75
0
LINE
8
0
10
180.75
20
-48.75
11
163.25
21
-48.75
0
LINE
8
0
10
163.25
20
-48.75
11
163.25
21
-65.25
0
LINE
8
0
10
154.4128919
20
-118.9542214
11
171.3165939
21
-123.4835547
0
LINE
8
0
10
171.3165939
20
-123.4835547
11
175.5871081
21
-107.5457786
0
LINE
8
0
10
175.5871081
20
-107.5457786
11
158.6834061
21
-103.0164453
0
LINE
8
0
10
158.6834061
20
-103.0164453
11
154.4128919
21
-118.9542214
0
LINE
8
0
10
175.951261
20
-125.3520031
11
191.8116473
21
-132.7478226
0
LINE
8
0
10
191.8116473
20
-132.7478226
11
198.7848486
21
-117.7937441
0
LINE
8
0
10
198.7848486
20
-117.7937441
11
182.9244623
21
-110.3979246
0
LINE
8
0
10
182.9244623
20
-110.3979246
11
175.951261
21
-125.3520031
0
ENDSEC
0
EOF