0
SECTION
2
HEADER
9
$INSUNITS
70
4
0
ENDSEC
0
SECTION
2
TABLES
0
TABLE
2
LTYPE
0
LTYPE
72
65
70
64
2
CONTINUOUS
3
______
73
0
40
0
0
ENDTAB
0
TABLE
2
LAYER
0
ENDTAB
0
ENDSEC
0
SECTION
2
ENTITIES
0
LINE
8
0
10
90.3719453
20
-30.5577361
11
92.184561
21
-31.4029726
0
LINE
8
0
10
94.842413
20
-30.4355934
11
95.6876495
21
-28.6229779
0
LINE
8
0
10
95.6876495
20
-28.6229779
11
93.8750338
21
-27.7777414
0
LINE
8
0
10
90.5281657
20
-30.2227204
11
90.3719453
21
-30.5577361
0
ARC
8
0
10
93.0297974
20
-29.590357
40
2
50
245.0000035
51
335.0000035
0
ARC
8
0
10
93.0297974
20
-29.590357
40
2
50
65.0000035
51
95.278984
0
LINE
8
0
10
93.1173138
20
-27.0165483
11
86.98141
21
-24.1553294
0
LINE
8
0
10
85.3542156
20
-27.8100679
11
90.5281657
21
-30.2227204
0
LINE
8
0
10
92.8457867
20
-27.59884
11
93.1173138
21
-27.0165483
0
LINE
8
0
10
87.3845689
20
-23.2498196
11
79.8219103
21
-19.882707
0
LINE
8
0
10
79.4341628
20
-19.7100707
11
78.2491143
21
-19.1824531
0
LINE
8
0
10
78.2491143
20
-19.1824531
11
78.221463
21
-19.2445589
0
LINE
8
0
10
77.5200889
20
-24.3310515
11
85.3508857
21
-27.8175469
0
LINE
8
0
10
85.3508857
20
-27.8175469
11
85.3542156
21
-27.8100679
0
LINE
8
0
10
86.98141
20
-24.1553294
11
87.3845689
21
-23.2498196
0
LINE
8
0
10
79.8298709
20
-19.8619688
11
79.4341628
21
-19.7100707
0
LINE
8
0
10
78.221463
20
-19.2445589
11
75.1619688
21
-18.0701291
0
LINE
8
0
10
75.1619688
20
-18.0701291
11
74.6652352
21
-19.3641644
0
LINE
8
0
10
76.2601389
20
-23.847402
11
77.5200889
21
-24.3310515
0
LINE
8
0
10
79.8219103
20
-19.882707
11
79.8298709
21
-19.8619688
0
LINE
8
0
10
74.6652352
20
-19.3641644
11
64.1106384
21
-15.934768
0
LINE
8
0
10
64.1106384
20
-15.934768
11
64.0951081
21
-15.9825652
0
LINE
8
0
10
64.0415314
20
-20.1181627
11
76.1893616
21
-24.065232
0
LINE
8
0
10
76.1893616
20
-24.065232
11
76.2601389
21
-23.847402
0
LINE
8
0
10
64.0951081
20
-15.9825652
11
50.9330634
21
-12.2084096
0
LINE
8
0
10
49.964786
20
-16.0919582
11
64.0388189
21
-20.1276222
0
LINE
8
0
10
64.0388189
20
-20.1276222
11
64.0415314
21
-20.1181627
0
LINE
8
0
10
52.3313838
20
-6.6000527
11
40.6878351
21
-3.69699
0
LINE
8
0
10
40.6878351
20
-3.69699
11
38.2686162
21
-13.3999473
0
LINE
8
0
10
38.2686162
20
-13.3999473
11
49.9121649
21
-16.30301
0
LINE
8
0
10
49.9121649
20
-16.30301
11
49.964786
21
-16.0919582
0
LINE
8
0
10
50.9330634
20
-12.2084096
11
52.3313838
21
-6.6000527
0
LINE
8
0
10
39.6223848
20
-5.6769681
11
29.8409088
21
-3.5978511
0
LINE
8
0
10
29.8409088
20
-3.5978511
11
29.4025662
21
-5.6600909
0
LINE
8
0
10
31.313912
20
-12.0896724
11
37.9590912
21
-13.5021489
0
LINE
8
0
10
37.9590912
20
-13.5021489
11
39.6223848
21
-5.6769681
0
LINE
8
0
10
29.4025662
20
-5.6600909
11
27.7603569
21
-5.3705251
0
LINE
8
0
10
27.022964
20
-5.2405029
11
25.2469058
21
-4.9273359
0
LINE
8
0
10
25.2469058
20
-4.9273359
11
25.2359698
21
-4.9893572
0
LINE
8
0
10
26.0842171
20
-11.1675361
11
31.313912
21
-12.0896724
0
LINE
8
0
10
27.7639937
20
-5.3446478
11
27.022964
21
-5.2405029
0
LINE
8
0
10
25.2359698
20
-4.9893572
11
16.8710449
21
-3.8137437
0
LINE
8
0
10
16.8710449
20
-3.8137437
11
16.697973
21
-5.0452141
0
LINE
8
0
10
18.7628076
20
-10.1385791
11
26.0842171
21
-11.1675361
0
LINE
8
0
10
27.7603569
20
-5.3705251
11
27.7639937
21
-5.3446478
0
LINE
8
0
10
16.697973
20
-5.0452141
11
4.2464291
21
-3.9558452
0
LINE
8
0
10
4.2464291
20
-3.9558452
11
3.8106504
21
-8.9368187
0
LINE
8
0
10
3.8106504
20
-8.9368187
11
18.7535709
21
-10.2441548
0
LINE
8
0
10
18.7535709
20
-10.2441548
11
18.7628076
21
-10.1385791
0
ENDSEC
0
EOF