0
SECTION
2
HEADER
9
$INSUNITS
70
4
0
ENDSEC
0
SECTION
2
TABLES
0
TABLE
2
LTYPE
0
LTYPE
72
65
70
64
2
CONTINUOUS
3
______
73
0
40
0
0
ENDTAB
0
TABLE
2
LAYER
0
ENDTAB
0
ENDSEC
0
SECTION
2
ENTITIES
0
LINE
8
0
10
181.6542559
20
-133.8261549
11
105.2
21
-114.17
0
LINE
8
0
10
105.2
20
-114.17
11
94.8
21
-113.52
0
LINE
8
0
10
94.8
20
-113.52
11
86.74
21
-113
0
LINE
8
0
10
86.74
20
-113
11
86.74
21
-55.6
0
LINE
8
0
10
86.74
20
-55.6
11
105
21
-43.6
0
LINE
8
0
10
105
20
-43.6
11
125.6
21
-37.6
0
LINE
8
0
10
125.6
20
-37.6
11
146.4
21
-37.6
0
LINE
8
0
10
146.4
20
-37.6
11
183.96
21
-49.2
0
LINE
8
0
10
183.96
20
-49.2
11
185
21
-59.6
0
LINE
8
0
10
185
20
-59.6
11
207.282
21
-59.6
0
LINE
8
0
10
207.282
20
-59.6
11
207.282
21
-114.4
0
LINE
8
0
10
207.282
20
-114.4
11
204.4853081
21
-109.4733018
0
LINE
8
0
10
204.4853081
20
-109.4733018
11
204.3608178
21
-113.4315466
0
LINE
8
0
10
204.3608178
20
-113.4315466
11
204.3060043
21
-113.9797432
0
LINE
8
0
10
204.3060043
20
-113.9797432
11
204.2747549
21
-114.5389279
0
LINE
8
0
10
204.2747549
20
-114.5389279
11
204.0629326
21
-115.3007883
0
LINE
8
0
10
204.0629326
20
-115.3007883
11
199.267876
21
-127.1218514
0
LINE
8
0
10
199.267876
20
-127.1218514
11
193.6560186
21
-138.8489122
0
LINE
8
0
10
193.6560186
20
-138.8489122
11
181.6542559
21
-133.8261549
0
LINE
8
0
10
98.5605306
20
-111.6250331
11
95.6035296
21
-111.4402206
0
LINE
8
0
10
95.5965155
20
-111.4397752
11
92.0546619
21
-111.2112685
0
LINE
8
0
10
88.78
20
-107.7185299
11
88.78
21
-60.2
0
LINE
8
0
10
182.6
20
-55.2
11
182.6848263
21
-56.048263
0
LINE
8
0
10
186.1674565
20
-59.2
11
198.354
21
-59.2
0
LINE
8
0
10
201.854
20
-62.7
11
201.854
21
-110.8
0
LINE
8
0
10
201.854
20
-110.8
11
201.8518846
21
-111.3347744
0
LINE
8
0
10
201.8518846
20
-111.3347744
11
201.7465466
21
-114.6840585
0
LINE
8
0
10
201.7465466
20
-114.6840585
11
201.700166
21
-115.1479171
0
LINE
8
0
10
201.700166
20
-115.1479171
11
201.6737241
21
-115.6210734
0
LINE
8
0
10
201.6737241
20
-115.6210734
11
201.4944899
21
-116.2657245
0
LINE
8
0
10
201.4944899
20
-116.2657245
11
197.4772572
21
-126.169249
0
LINE
8
0
10
197.3910588
20
-126.3644461
11
194.1257668
21
-133.1879049
0
LINE
8
0
10
189.6174389
20
-134.9057576
11
182.7699816
21
-132.0400855
0
ARC
8
0
10
95.8218536
20
-107.9470366
40
3.5
50
266.3086127
51
266.4236649
0
ARC
8
0
10
92.28
20
-107.7185299
40
3.5
50
180
51
266.3086127
0
ARC
8
0
10
186.1674565
20
-55.7
40
3.5
50
185.710592
51
270
0
ARC
8
0
10
198.354
20
-62.7
40
3.5
50
0
51
90
0
ARC
8
0
10
194.2339311
20
-124.8536368
40
3.5
50
334.427059
51
337.9207182
0
ARC
8
0
10
190.9686391
20
-131.6770957
40
3.5
50
247.2906108
51
334.427059
0
ARC
8
0
10
181.4187813
20
-135.2687474
40
3.5
50
67.2906108
51
75.6758274
0
ARC
8
0
10
145
20
-125.465
40
90
50
102.5785446
51
127.239363
0
LINE
8
0
10
88.76
20
-60.2
11
88.78
21
-60.2
0
LINE
8
0
10
88.7599999
20
-57.397222
11
88.76
21
-60.2
0
ARC
8
0
10
136
20
-172.2
40
135
50
71.1794403
51
94.5034152
0
LINE
8
0
10
182.6
20
-55.2
11
182.6
21
-48.6773705
0
LINE
8
0
10
125.4
20
-37.6167915
11
125.4000001
21
-37.6251457
0
ARC
8
0
10
88.5
20
-336.4
40
225
50
65.3659589
51
87.4372525
0
ARC
8
0
10
93.26
20
-57.397222
40
4.5
50
127.239363
51
180
0
ARC
8
0
10
178.1000001
20
-48.6773705
40
4.5
50
0
51
71.1794403
0
ENDSEC
0
EOF