0
SECTION
2
HEADER
9
$INSUNITS
70
4
0
ENDSEC
0
SECTION
2
TABLES
0
TABLE
2
LTYPE
0
LTYPE
72
65
70
64
2
CONTINUOUS
3
______
73
0
40
0
0
ENDTAB
0
TABLE
2
LAYER
0
ENDTAB
0
ENDSEC
0
SECTION
2
ENTITIES
0
LINE
8
0
10
98.5605306
20
-111.6250331
11
95.6035296
21
-111.4402206
0
LINE
8
0
10
95.5965155
20
-111.4397752
11
92.0546619
21
-111.2112685
0
LINE
8
0
10
88.78
20
-107.7185299
11
88.78
21
-60.2
0
LINE
8
0
10
186.1674565
20
-59.2
11
198.354
21
-59.2
0
LINE
8
0
10
201.854
20
-62.7
11
201.854
21
-110.8
0
LINE
8
0
10
201.854
20
-110.8
11
201.8518846
21
-111.3347744
0
LINE
8
0
10
201.8518846
20
-111.3347744
11
201.7465466
21
-114.6840585
0
LINE
8
0
10
201.7465466
20
-114.6840585
11
201.700166
21
-115.1479171
0
LINE
8
0
10
201.700166
20
-115.1479171
11
201.6737241
21
-115.6210734
0
LINE
8
0
10
201.6737241
20
-115.6210734
11
201.4944899
21
-116.2657245
0
LINE
8
0
10
201.4944899
20
-116.2657245
11
201.389104
21
-116.5255281
0
LINE
8
0
10
198.2486055
20
-124.2676747
11
197.4772572
21
-126.169249
0
LINE
8
0
10
197.3910588
20
-126.3644461
11
194.1257668
21
-133.1879049
0
LINE
8
0
10
189.6174389
20
-134.9057576
11
182.7699816
21
-132.0400855
0
ARC
8
0
10
95.8218536
20
-107.9470366
40
3.5
50
266.3086127
51
266.4236649
0
ARC
8
0
10
92.28
20
-107.7185299
40
3.5
50
180
51
200.4228578
0
ARC
8
0
10
92.28
20
-107.7185299
40
3.5
50
232.6274708
51
266.3086127
0
ARC
8
0
10
186.1674565
20
-55.7
40
3.5
50
205.1783906
51
270
0
ARC
8
0
10
198.354
20
-62.7
40
3.5
50
0
51
90
0
ARC
8
0
10
194.2339311
20
-124.8536368
40
3.5
50
334.427059
51
337.9207182
0
ARC
8
0
10
190.9686391
20
-131.6770957
40
3.5
50
247.2906108
51
280.0825305
0
ARC
8
0
10
190.9686391
20
-131.6770957
40
3.5
50
327.0703359
51
334.427059
0
ARC
8
0
10
181.4187813
20
-135.2687474
40
3.5
50
67.2906108
51
75.6758274
0
ARC
8
0
10
145
20
-125.465
40
90
50
114.9749654
51
127.239363
0
ARC
8
0
10
145
20
-125.465
40
90
50
102.8395884
51
114.3946511
0
LINE
8
0
10
88.76
20
-60.2
11
88.78
21
-60.2
0
LINE
8
0
10
88.7599999
20
-57.397222
11
88.76
21
-60.2
0
ARC
8
0
10
136
20
-172.2
40
135
50
71.1794403
51
85.3262736
0
ARC
8
0
10
136
20
-172.2
40
135
50
86.1795737
51
93.8204263
0
ARC
8
0
10
88.5
20
-336.4
40
225
50
65.3659589
51
72.8800564
0
ARC
8
0
10
88.5
20
-336.4
40
225
50
73.691542
51
87.4372525
0
ARC
8
0
10
93.26
20
-57.397222
40
4.5
50
127.239363
51
155.0640477
0
ARC
8
0
10
93.26
20
-57.397222
40
4.5
50
161.2030952
51
180
0
ARC
8
0
10
178.1000001
20
-48.6773705
40
4.5
50
28.9378169
51
71.1794403
0
LINE
8
0
10
90.1555179
20
-110.5
11
111
21
-110.5
0
LINE
8
0
10
111
20
-110.5
11
111
21
-103.5
0
LINE
8
0
10
89
20
-108.9398407
11
89
21
-55.9472565
0
LINE
8
0
10
121
20
-98.5
11
121
21
-103.5
0
LINE
8
0
10
121
20
-103.5
11
111
21
-103.5
0
LINE
8
0
10
97
20
-55.5
11
89.1794916
21
-55.5
0
LINE
8
0
10
121
20
-98.5
11
129
21
-98.5
0
LINE
8
0
10
129
20
-98.5
11
129
21
-92.5
0
LINE
8
0
10
97
20
-50.5
11
107
21
-50.5
0
LINE
8
0
10
97
20
-55.5
11
97
21
-50.5
0
LINE
8
0
10
107.8282531
20
-43.5
11
125
21
-43.5
0
LINE
8
0
10
107
20
-43.8806878
11
107
21
-50.5
0
LINE
8
0
10
129
20
-92.5
11
143
21
-92.5
0
LINE
8
0
10
147
20
-43.5
11
147
21
-37.6488945
0
LINE
8
0
10
144.9949985
20
-37.5
11
127.0050015
21
-37.5
0
LINE
8
0
10
125
20
-37.7153561
11
125
21
-43.5
0
LINE
8
0
10
143
20
-98.5
11
161
21
-98.5
0
LINE
8
0
10
143
20
-92.5
11
143
21
-98.5
0
LINE
8
0
10
165
20
-46.5
11
165
21
-43.5
0
LINE
8
0
10
147
20
-43.5
11
165
21
-43.5
0
LINE
8
0
10
161.7172878
20
-101.5
11
183
21
-101.5
0
LINE
8
0
10
183
20
-101.5
11
183
21
-57.189033
0
LINE
8
0
10
161
20
-98.5
11
161
21
-101.3078033
0
LINE
8
0
10
165
20
-46.5
11
182.0381542
21
-46.5
0
LINE
8
0
10
154.7339253
20
-121.3696134
11
172.9075841
21
-126.2392307
0
LINE
8
0
10
172.9075841
20
-126.2392307
11
178.3427841
21
-105.9547883
0
LINE
8
0
10
178.3427841
20
-105.9547883
11
161.7172878
21
-101.5
0
LINE
8
0
10
161
20
-101.3078033
11
157.0924159
21
-100.2607693
0
LINE
8
0
10
157.0924159
20
-100.2607693
11
151.6818883
21
-120.4531339
0
LINE
8
0
10
172.9611774
20
-126.4403045
11
191.581372
21
-135.1230438
0
LINE
8
0
10
193.906324
20
-133.5797275
11
198.2486055
21
-124.2676747
0
LINE
8
0
10
201.389104
20
-116.5255281
11
181.8361609
21
-107.407841
0
LINE
8
0
10
181.8361609
20
-107.407841
11
172.9611774
21
-126.4403045
0
LINE
8
0
10
91.25
20
-108.25
11
108.75
21
-108.25
0
LINE
8
0
10
108.75
20
-108.25
11
108.75
21
-91.75
0
LINE
8
0
10
108.75
20
-91.75
11
91.25
21
-91.75
0
LINE
8
0
10
91.25
20
-91.75
11
91.25
21
-108.25
0
LINE
8
0
10
91.25
20
-91.25
11
108.75
21
-91.25
0
LINE
8
0
10
108.75
20
-91.25
11
108.75
21
-74.75
0
LINE
8
0
10
108.75
20
-74.75
11
91.25
21
-74.75
0
LINE
8
0
10
91.25
20
-74.75
11
91.25
21
-91.25
0
LINE
8
0
10
91.25
20
-74.25
11
108.75
21
-74.25
0
LINE
8
0
10
108.75
20
-74.25
11
108.75
21
-57.75
0
LINE
8
0
10
108.75
20
-57.75
11
91.25
21
-57.75
0
LINE
8
0
10
91.25
20
-57.75
11
91.25
21
-74.25
0
LINE
8
0
10
109.25
20
-96.25
11
126.75
21
-96.25
0
LINE
8
0
10
126.75
20
-96.25
11
126.75
21
-79.75
0
LINE
8
0
10
126.75
20
-79.75
11
109.25
21
-79.75
0
LINE
8
0
10
109.25
20
-79.75
11
109.25
21
-96.25
0
LINE
8
0
10
109.25
20
-79.25
11
126.75
21
-79.25
0
LINE
8
0
10
126.75
20
-79.25
11
126.75
21
-62.75
0
LINE
8
0
10
126.75
20
-62.75
11
109.25
21
-62.75
0
LINE
8
0
10
109.25
20
-62.75
11
109.25
21
-79.25
0
LINE
8
0
10
109.25
20
-62.25
11
126.75
21
-62.25
0
LINE
8
0
10
126.75
20
-62.25
11
126.75
21
-45.75
0
LINE
8
0
10
126.75
20
-45.75
11
109.25
21
-45.75
0
LINE
8
0
10
109.25
20
-45.75
11
109.25
21
-62.25
0
LINE
8
0
10
127.25
20
-90.25
11
144.75
21
-90.25
0
LINE
8
0
10
144.75
20
-90.25
11
144.75
21
-73.75
0
LINE
8
0
10
144.75
20
-73.75
11
127.25
21
-73.75
0
LINE
8
0
10
127.25
20
-73.75
11
127.25
21
-90.25
0
LINE
8
0
10
127.25
20
-73.25
11
144.75
21
-73.25
0
LINE
8
0
10
144.75
20
-73.25
11
144.75
21
-56.75
0
LINE
8
0
10
144.75
20
-56.75
11
127.25
21
-56.75
0
LINE
8
0
10
127.25
20
-56.75
11
127.25
21
-73.25
0
LINE
8
0
10
127.25
20
-56.25
11
144.75
21
-56.25
0
LINE
8
0
10
144.75
20
-56.25
11
144.75
21
-39.75
0
LINE
8
0
10
144.75
20
-39.75
11
127.25
21
-39.75
0
LINE
8
0
10
127.25
20
-39.75
11
127.25
21
-56.25
0
LINE
8
0
10
145.25
20
-96.25
11
162.75
21
-96.25
0
LINE
8
0
10
162.75
20
-96.25
11
162.75
21
-79.75
0
LINE
8
0
10
162.75
20
-79.75
11
145.25
21
-79.75
0
LINE
8
0
10
145.25
20
-79.75
11
145.25
21
-96.25
0
LINE
8
0
10
145.25
20
-79.25
11
162.75
21
-79.25
0
LINE
8
0
10
162.75
20
-79.25
11
162.75
21
-62.75
0
LINE
8
0
10
162.75
20
-62.75
11
145.25
21
-62.75
0
LINE
8
0
10
145.25
20
-62.75
11
145.25
21
-79.25
0
LINE
8
0
10
145.25
20
-62.25
11
162.75
21
-62.25
0
LINE
8
0
10
162.75
20
-62.25
11
162.75
21
-45.75
0
LINE
8
0
10
162.75
20
-45.75
11
145.25
21
-45.75
0
LINE
8
0
10
145.25
20
-45.75
11
145.25
21
-62.25
0
LINE
8
0
10
163.25
20
-99.25
11
180.75
21
-99.25
0
LINE
8
0
10
180.75
20
-99.25
11
180.75
21
-82.75
0
LINE
8
0
10
180.75
20
-82.75
11
163.25
21
-82.75
0
LINE
8
0
10
163.25
20
-82.75
11
163.25
21
-99.25
0
LINE
8
0
10
163.25
20
-82.25
11
180.75
21
-82.25
0
LINE
8
0
10
180.75
20
-82.25
11
180.75
21
-65.75
0
LINE
8
0
10
180.75
20
-65.75
11
163.25
21
-65.75
0
LINE
8
0
10
163.25
20
-65.75
11
163.25
21
-82.25
0
LINE
8
0
10
163.25
20
-65.25
11
180.75
21
-65.25
0
LINE
8
0
10
180.75
20
-65.25
11
180.75
21
-48.75
0
LINE
8
0
10
180.75
20
-48.75
11
163.25
21
-48.75
0
LINE
8
0
10
163.25
20
-48.75
11
163.25
21
-65.25
0
LINE
8
0
10
154.4128919
20
-118.9542214
11
171.3165939
21
-123.4835547
0
LINE
8
0
10
171.3165939
20
-123.4835547
11
175.5871081
21
-107.5457786
0
LINE
8
0
10
175.5871081
20
-107.5457786
11
158.6834061
21
-103.0164453
0
LINE
8
0
10
158.6834061
20
-103.0164453
11
154.4128919
21
-118.9542214
0
LINE
8
0
10
175.951261
20
-125.3520031
11
191.8116473
21
-132.7478226
0
LINE
8
0
10
191.8116473
20
-132.7478226
11
198.7848486
21
-117.7937441
0
LINE
8
0
10
198.7848486
20
-117.7937441
11
182.9244623
21
-110.3979246
0
LINE
8
0
10
182.9244623
20
-110.3979246
11
175.951261
21
-125.3520031
0
ENDSEC
0
EOF