0
SECTION
2
HEADER
9
$INSUNITS
70
4
0
ENDSEC
0
SECTION
2
TABLES
0
TABLE
2
LTYPE
0
LTYPE
72
65
70
64
2
CONTINUOUS
3
______
73
0
40
0
0
ENDTAB
0
TABLE
2
LAYER
0
ENDTAB
0
ENDSEC
0
SECTION
2
ENTITIES
0
LINE
8
0
10
87.35
20
-108.3822925
11
87.35
21
-56.8441993
0
LINE
8
0
10
189.76
20
-57
11
198.9
21
-57
0
LINE
8
0
10
203.9
20
-62
11
203.9
21
-107.5
0
LINE
8
0
10
203.9
20
-107.5
11
203.5341422
21
-110.8650344
0
LINE
8
0
10
203.5341422
20
-110.8650344
11
203.4412735
21
-111.4285869
0
LINE
8
0
10
203.4412735
20
-111.4285869
11
203.3484049
21
-111.9921394
0
LINE
8
0
10
203.3484049
20
-111.9921394
11
203.2555362
21
-112.5556919
0
LINE
8
0
10
203.2555362
20
-112.5556919
11
203.172637
21
-113.1238932
0
LINE
8
0
10
203.172637
20
-113.1238932
11
203.0697989
21
-113.6827968
0
LINE
8
0
10
203.0697989
20
-113.6827968
11
202.9669609
21
-114.2417005
0
LINE
8
0
10
202.9669609
20
-114.2417005
11
202.8541535
21
-114.7959554
0
LINE
8
0
10
202.8541535
20
-114.7959554
11
202.7513155
21
-115.3548591
0
LINE
8
0
10
202.7513155
20
-115.3548591
11
202.638508
21
-115.909114
0
LINE
8
0
10
202.638508
20
-115.909114
11
196.0795486
21
-131.4523093
0
ARC
8
0
10
92.35
20
-56.8441993
40
5
50
126.7117946
51
180
0
ARC
8
0
10
189.76
20
-52
40
5
50
211.5701285
51
270
0
ARC
8
0
10
198.9
20
-62
40
5
50
0
51
90
0
ARC
8
0
10
92.35
20
-108.3822925
40
5
50
180
51
235.7211231
0
ARC
8
0
10
145
20
-129.45
40
95
50
66.7686699
51
124.9053338
0
LINE
8
0
10
185.5
20
-54.6177089
11
185.5
21
-46.747219
0
ARC
8
0
10
93.5000001
20
-55.6411251
40
5
50
124.9053338
51
145.8724025
0
ARC
8
0
10
180.5000002
20
-46.747219
40
5
50
0
51
66.7686699
0
ARC
8
0
10
92
20
-332.5
40
220
50
64.1466693
51
90.642275
0
ARC
8
0
10
190.5515768
20
-129.119601
40
6
50
244.1466693
51
337.1210982
0
LINE
8
0
10
91.25
20
-108.25
11
108.75
21
-108.25
0
LINE
8
0
10
108.75
20
-108.25
11
108.75
21
-91.75
0
LINE
8
0
10
108.75
20
-91.75
11
91.25
21
-91.75
0
LINE
8
0
10
91.25
20
-91.75
11
91.25
21
-108.25
0
LINE
8
0
10
91.25
20
-91.25
11
108.75
21
-91.25
0
LINE
8
0
10
108.75
20
-91.25
11
108.75
21
-74.75
0
LINE
8
0
10
108.75
20
-74.75
11
91.25
21
-74.75
0
LINE
8
0
10
91.25
20
-74.75
11
91.25
21
-91.25
0
LINE
8
0
10
91.25
20
-74.25
11
108.75
21
-74.25
0
LINE
8
0
10
108.75
20
-74.25
11
108.75
21
-57.75
0
LINE
8
0
10
108.75
20
-57.75
11
91.25
21
-57.75
0
LINE
8
0
10
91.25
20
-57.75
11
91.25
21
-74.25
0
LINE
8
0
10
109.25
20
-96.25
11
126.75
21
-96.25
0
LINE
8
0
10
126.75
20
-96.25
11
126.75
21
-79.75
0
LINE
8
0
10
126.75
20
-79.75
11
109.25
21
-79.75
0
LINE
8
0
10
109.25
20
-79.75
11
109.25
21
-96.25
0
LINE
8
0
10
109.25
20
-79.25
11
126.75
21
-79.25
0
LINE
8
0
10
126.75
20
-79.25
11
126.75
21
-62.75
0
LINE
8
0
10
126.75
20
-62.75
11
109.25
21
-62.75
0
LINE
8
0
10
109.25
20
-62.75
11
109.25
21
-79.25
0
LINE
8
0
10
109.25
20
-62.25
11
126.75
21
-62.25
0
LINE
8
0
10
126.75
20
-62.25
11
126.75
21
-45.75
0
LINE
8
0
10
126.75
20
-45.75
11
109.25
21
-45.75
0
LINE
8
0
10
109.25
20
-45.75
11
109.25
21
-62.25
0
LINE
8
0
10
127.25
20
-90.25
11
144.75
21
-90.25
0
LINE
8
0
10
144.75
20
-90.25
11
144.75
21
-73.75
0
LINE
8
0
10
144.75
20
-73.75
11
127.25
21
-73.75
0
LINE
8
0
10
127.25
20
-73.75
11
127.25
21
-90.25
0
LINE
8
0
10
127.25
20
-73.25
11
144.75
21
-73.25
0
LINE
8
0
10
144.75
20
-73.25
11
144.75
21
-56.75
0
LINE
8
0
10
144.75
20
-56.75
11
127.25
21
-56.75
0
LINE
8
0
10
127.25
20
-56.75
11
127.25
21
-73.25
0
LINE
8
0
10
127.25
20
-56.25
11
144.75
21
-56.25
0
LINE
8
0
10
144.75
20
-56.25
11
144.75
21
-39.75
0
LINE
8
0
10
144.75
20
-39.75
11
127.25
21
-39.75
0
LINE
8
0
10
127.25
20
-39.75
11
127.25
21
-56.25
0
LINE
8
0
10
145.25
20
-96.25
11
162.75
21
-96.25
0
LINE
8
0
10
162.75
20
-96.25
11
162.75
21
-79.75
0
LINE
8
0
10
162.75
20
-79.75
11
145.25
21
-79.75
0
LINE
8
0
10
145.25
20
-79.75
11
145.25
21
-96.25
0
LINE
8
0
10
145.25
20
-79.25
11
162.75
21
-79.25
0
LINE
8
0
10
162.75
20
-79.25
11
162.75
21
-62.75
0
LINE
8
0
10
162.75
20
-62.75
11
145.25
21
-62.75
0
LINE
8
0
10
145.25
20
-62.75
11
145.25
21
-79.25
0
LINE
8
0
10
145.25
20
-62.25
11
162.75
21
-62.25
0
LINE
8
0
10
162.75
20
-62.25
11
162.75
21
-45.75
0
LINE
8
0
10
162.75
20
-45.75
11
145.25
21
-45.75
0
LINE
8
0
10
145.25
20
-45.75
11
145.25
21
-62.25
0
LINE
8
0
10
163.25
20
-99.25
11
180.75
21
-99.25
0
LINE
8
0
10
180.75
20
-99.25
11
180.75
21
-82.75
0
LINE
8
0
10
180.75
20
-82.75
11
163.25
21
-82.75
0
LINE
8
0
10
163.25
20
-82.75
11
163.25
21
-99.25
0
LINE
8
0
10
163.25
20
-82.25
11
180.75
21
-82.25
0
LINE
8
0
10
180.75
20
-82.25
11
180.75
21
-65.75
0
LINE
8
0
10
180.75
20
-65.75
11
163.25
21
-65.75
0
LINE
8
0
10
163.25
20
-65.75
11
163.25
21
-82.25
0
LINE
8
0
10
163.25
20
-65.25
11
180.75
21
-65.25
0
LINE
8
0
10
180.75
20
-65.25
11
180.75
21
-48.75
0
LINE
8
0
10
180.75
20
-48.75
11
163.25
21
-48.75
0
LINE
8
0
10
163.25
20
-48.75
11
163.25
21
-65.25
0
LINE
8
0
10
155.4128919
20
-118.7042214
11
172.3165939
21
-123.2335547
0
LINE
8
0
10
172.3165939
20
-123.2335547
11
176.5871081
21
-107.2957786
0
LINE
8
0
10
176.5871081
20
-107.2957786
11
159.6834061
21
-102.7664453
0
LINE
8
0
10
159.6834061
20
-102.7664453
11
155.4128919
21
-118.7042214
0
LINE
8
0
10
176.6035277
20
-125.0088283
11
192.463914
21
-132.4046478
0
LINE
8
0
10
192.463914
20
-132.4046478
11
199.4371153
21
-117.4505693
0
LINE
8
0
10
199.4371153
20
-117.4505693
11
183.576729
21
-110.0547498
0
LINE
8
0
10
183.576729
20
-110.0547498
11
176.6035277
21
-125.0088283
0
ENDSEC
0
EOF