0
SECTION
2
HEADER
9
$INSUNITS
70
4
0
ENDSEC
0
SECTION
2
TABLES
0
TABLE
2
LTYPE
0
LTYPE
72
65
70
64
2
CONTINUOUS
3
______
73
0
40
0
0
ENDTAB
0
TABLE
2
LAYER
0
ENDTAB
0
ENDSEC
0
SECTION
2
ENTITIES
0
LINE
8
0
10
98.5605306
20
-111.6250331
11
95.6035296
21
-111.4402206
0
LINE
8
0
10
95.5965155
20
-111.4397752
11
92.0546619
21
-111.2112685
0
LINE
8
0
10
88.78
20
-107.7185299
11
88.78
21
-60.2
0
LINE
8
0
10
182.6
20
-55.2
11
182.6848263
21
-56.048263
0
LINE
8
0
10
186.1674565
20
-59.2
11
198.354
21
-59.2
0
LINE
8
0
10
201.854
20
-62.7
11
201.854
21
-110.8
0
LINE
8
0
10
201.854
20
-110.8
11
201.8518846
21
-111.3347744
0
LINE
8
0
10
201.8518846
20
-111.3347744
11
201.7465466
21
-114.6840585
0
LINE
8
0
10
201.7465466
20
-114.6840585
11
201.700166
21
-115.1479171
0
LINE
8
0
10
201.700166
20
-115.1479171
11
201.6737241
21
-115.6210734
0
LINE
8
0
10
201.6737241
20
-115.6210734
11
201.4944899
21
-116.2657245
0
LINE
8
0
10
201.4944899
20
-116.2657245
11
197.4772572
21
-126.169249
0
LINE
8
0
10
197.3910588
20
-126.3644461
11
194.1257668
21
-133.1879049
0
LINE
8
0
10
189.6174389
20
-134.9057576
11
182.7699816
21
-132.0400855
0
ARC
8
0
10
95.8218536
20
-107.9470366
40
3.5
50
266.3086127
51
266.4236649
0
ARC
8
0
10
92.28
20
-107.7185299
40
3.5
50
180
51
266.3086127
0
ARC
8
0
10
186.1674565
20
-55.7
40
3.5
50
185.710592
51
270
0
ARC
8
0
10
198.354
20
-62.7
40
3.5
50
0
51
90
0
ARC
8
0
10
194.2339311
20
-124.8536368
40
3.5
50
334.427059
51
337.9207182
0
ARC
8
0
10
190.9686391
20
-131.6770957
40
3.5
50
247.2906108
51
334.427059
0
ARC
8
0
10
181.4187813
20
-135.2687474
40
3.5
50
67.2906108
51
75.6758274
0
ARC
8
0
10
145
20
-125.465
40
90
50
102.5785446
51
127.239363
0
LINE
8
0
10
88.76
20
-60.2
11
88.78
21
-60.2
0
LINE
8
0
10
88.7599999
20
-57.397222
11
88.76
21
-60.2
0
ARC
8
0
10
136
20
-172.2
40
135
50
71.1794403
51
94.5034152
0
LINE
8
0
10
182.6
20
-55.2
11
182.6
21
-48.6773705
0
LINE
8
0
10
125.4
20
-37.6167915
11
125.4000001
21
-37.6251457
0
ARC
8
0
10
88.5
20
-336.4
40
225
50
65.3659589
51
87.4372525
0
ARC
8
0
10
93.26
20
-57.397222
40
4.5
50
127.239363
51
180
0
ARC
8
0
10
178.1000001
20
-48.6773705
40
4.5
50
0
51
71.1794403
0
LINE
8
0
10
91.25
20
-108.25
11
108.75
21
-108.25
0
LINE
8
0
10
108.75
20
-108.25
11
108.75
21
-91.75
0
LINE
8
0
10
108.75
20
-91.75
11
91.25
21
-91.75
0
LINE
8
0
10
91.25
20
-91.75
11
91.25
21
-108.25
0
LINE
8
0
10
91.25
20
-91.25
11
108.75
21
-91.25
0
LINE
8
0
10
108.75
20
-91.25
11
108.75
21
-74.75
0
LINE
8
0
10
108.75
20
-74.75
11
91.25
21
-74.75
0
LINE
8
0
10
91.25
20
-74.75
11
91.25
21
-91.25
0
LINE
8
0
10
91.25
20
-74.25
11
108.75
21
-74.25
0
LINE
8
0
10
108.75
20
-74.25
11
108.75
21
-57.75
0
LINE
8
0
10
108.75
20
-57.75
11
91.25
21
-57.75
0
LINE
8
0
10
91.25
20
-57.75
11
91.25
21
-74.25
0
LINE
8
0
10
109.25
20
-96.25
11
126.75
21
-96.25
0
LINE
8
0
10
126.75
20
-96.25
11
126.75
21
-79.75
0
LINE
8
0
10
126.75
20
-79.75
11
109.25
21
-79.75
0
LINE
8
0
10
109.25
20
-79.75
11
109.25
21
-96.25
0
LINE
8
0
10
109.25
20
-79.25
11
126.75
21
-79.25
0
LINE
8
0
10
126.75
20
-79.25
11
126.75
21
-62.75
0
LINE
8
0
10
126.75
20
-62.75
11
109.25
21
-62.75
0
LINE
8
0
10
109.25
20
-62.75
11
109.25
21
-79.25
0
LINE
8
0
10
109.25
20
-62.25
11
126.75
21
-62.25
0
LINE
8
0
10
126.75
20
-62.25
11
126.75
21
-45.75
0
LINE
8
0
10
126.75
20
-45.75
11
109.25
21
-45.75
0
LINE
8
0
10
109.25
20
-45.75
11
109.25
21
-62.25
0
LINE
8
0
10
127.25
20
-90.25
11
144.75
21
-90.25
0
LINE
8
0
10
144.75
20
-90.25
11
144.75
21
-73.75
0
LINE
8
0
10
144.75
20
-73.75
11
127.25
21
-73.75
0
LINE
8
0
10
127.25
20
-73.75
11
127.25
21
-90.25
0
LINE
8
0
10
127.25
20
-73.25
11
144.75
21
-73.25
0
LINE
8
0
10
144.75
20
-73.25
11
144.75
21
-56.75
0
LINE
8
0
10
144.75
20
-56.75
11
127.25
21
-56.75
0
LINE
8
0
10
127.25
20
-56.75
11
127.25
21
-73.25
0
LINE
8
0
10
127.25
20
-56.25
11
144.75
21
-56.25
0
LINE
8
0
10
144.75
20
-56.25
11
144.75
21
-39.75
0
LINE
8
0
10
144.75
20
-39.75
11
127.25
21
-39.75
0
LINE
8
0
10
127.25
20
-39.75
11
127.25
21
-56.25
0
LINE
8
0
10
145.25
20
-96.25
11
162.75
21
-96.25
0
LINE
8
0
10
162.75
20
-96.25
11
162.75
21
-79.75
0
LINE
8
0
10
162.75
20
-79.75
11
145.25
21
-79.75
0
LINE
8
0
10
145.25
20
-79.75
11
145.25
21
-96.25
0
LINE
8
0
10
145.25
20
-79.25
11
162.75
21
-79.25
0
LINE
8
0
10
162.75
20
-79.25
11
162.75
21
-62.75
0
LINE
8
0
10
162.75
20
-62.75
11
145.25
21
-62.75
0
LINE
8
0
10
145.25
20
-62.75
11
145.25
21
-79.25
0
LINE
8
0
10
145.25
20
-62.25
11
162.75
21
-62.25
0
LINE
8
0
10
162.75
20
-62.25
11
162.75
21
-45.75
0
LINE
8
0
10
162.75
20
-45.75
11
145.25
21
-45.75
0
LINE
8
0
10
145.25
20
-45.75
11
145.25
21
-62.25
0
LINE
8
0
10
163.25
20
-99.25
11
180.75
21
-99.25
0
LINE
8
0
10
180.75
20
-99.25
11
180.75
21
-82.75
0
LINE
8
0
10
180.75
20
-82.75
11
163.25
21
-82.75
0
LINE
8
0
10
163.25
20
-82.75
11
163.25
21
-99.25
0
LINE
8
0
10
163.25
20
-82.25
11
180.75
21
-82.25
0
LINE
8
0
10
180.75
20
-82.25
11
180.75
21
-65.75
0
LINE
8
0
10
180.75
20
-65.75
11
163.25
21
-65.75
0
LINE
8
0
10
163.25
20
-65.75
11
163.25
21
-82.25
0
LINE
8
0
10
163.25
20
-65.25
11
180.75
21
-65.25
0
LINE
8
0
10
180.75
20
-65.25
11
180.75
21
-48.75
0
LINE
8
0
10
180.75
20
-48.75
11
163.25
21
-48.75
0
LINE
8
0
10
163.25
20
-48.75
11
163.25
21
-65.25
0
LINE
8
0
10
154.4128919
20
-118.9542214
11
171.3165939
21
-123.4835547
0
LINE
8
0
10
171.3165939
20
-123.4835547
11
175.5871081
21
-107.5457786
0
LINE
8
0
10
175.5871081
20
-107.5457786
11
158.6834061
21
-103.0164453
0
LINE
8
0
10
158.6834061
20
-103.0164453
11
154.4128919
21
-118.9542214
0
LINE
8
0
10
175.951261
20
-125.3520031
11
191.8116473
21
-132.7478226
0
LINE
8
0
10
191.8116473
20
-132.7478226
11
198.7848486
21
-117.7937441
0
LINE
8
0
10
198.7848486
20
-117.7937441
11
182.9244623
21
-110.3979246
0
LINE
8
0
10
182.9244623
20
-110.3979246
11
175.951261
21
-125.3520031
0
ENDSEC
0
EOF