0
SECTION
2
HEADER
9
$INSUNITS
70
4
0
ENDSEC
0
SECTION
2
TABLES
0
TABLE
2
LTYPE
0
LTYPE
72
65
70
64
2
CONTINUOUS
3
______
73
0
40
0
0
ENDTAB
0
TABLE
2
LAYER
0
ENDTAB
0
ENDSEC
0
SECTION
2
ENTITIES
0
LINE
8
0
10
98.5605306
20
-111.6250331
11
95.6035296
21
-111.4402206
0
LINE
8
0
10
95.5965155
20
-111.4397752
11
92.0546619
21
-111.2112685
0
LINE
8
0
10
88.78
20
-107.7185299
11
88.78
21
-60.2
0
LINE
8
0
10
182.6
20
-54.9
11
182.6662643
21
-55.5212275
0
LINE
8
0
10
186.1465215
20
-58.65
11
198.354
21
-58.65
0
LINE
8
0
10
201.854
20
-62.15
11
201.854
21
-110.8
0
LINE
8
0
10
201.854
20
-110.8
11
201.8518846
21
-111.3347744
0
LINE
8
0
10
201.8518846
20
-111.3347744
11
201.7465466
21
-114.6840585
0
LINE
8
0
10
201.7465466
20
-114.6840585
11
201.700166
21
-115.1479171
0
LINE
8
0
10
201.700166
20
-115.1479171
11
201.6737241
21
-115.6210734
0
LINE
8
0
10
201.6737241
20
-115.6210734
11
201.4944899
21
-116.2657245
0
LINE
8
0
10
201.4944899
20
-116.2657245
11
197.4772572
21
-126.169249
0
LINE
8
0
10
197.3910588
20
-126.3644461
11
194.1257668
21
-133.1879049
0
LINE
8
0
10
189.6174389
20
-134.9057576
11
182.7699816
21
-132.0400855
0
ARC
8
0
10
95.8218536
20
-107.9470366
40
3.5
50
266.3086127
51
266.4236649
0
ARC
8
0
10
92.28
20
-107.7185299
40
3.5
50
180
51
266.3086127
0
ARC
8
0
10
186.1465215
20
-55.15
40
3.5
50
186.0885292
51
270
0
ARC
8
0
10
198.354
20
-62.15
40
3.5
50
0
51
90
0
ARC
8
0
10
194.2339311
20
-124.8536368
40
3.5
50
334.427059
51
337.9207182
0
ARC
8
0
10
190.9686391
20
-131.6770957
40
3.5
50
247.2906108
51
334.427059
0
ARC
8
0
10
181.4187813
20
-135.2687474
40
3.5
50
67.2906108
51
75.6758274
0
ARC
8
0
10
145
20
-125.465
40
90
50
102.5785446
51
127.239363
0
LINE
8
0
10
88.76
20
-60.2
11
88.78
21
-60.2
0
LINE
8
0
10
88.7599999
20
-57.397222
11
88.76
21
-60.2
0
ARC
8
0
10
136
20
-172.2
40
135
50
71.1794403
51
94.5034152
0
LINE
8
0
10
182.6
20
-54.9
11
182.6
21
-48.6773705
0
LINE
8
0
10
125.4
20
-37.6167915
11
125.4000001
21
-37.6251457
0
ARC
8
0
10
88.5
20
-336.4
40
225
50
65.3659589
51
87.4372525
0
ARC
8
0
10
93.26
20
-57.397222
40
4.5
50
127.239363
51
180
0
ARC
8
0
10
178.1000001
20
-48.6773705
40
4.5
50
0
51
71.1794403
0
LINE
8
0
10
93.025
20
-106.975
11
106.975
21
-106.975
0
LINE
8
0
10
106.975
20
-106.975
11
106.975
21
-93.025
0
LINE
8
0
10
106.975
20
-93.025
11
93.025
21
-93.025
0
LINE
8
0
10
93.025
20
-93.025
11
93.025
21
-106.975
0
LINE
8
0
10
93.025
20
-89.975
11
106.975
21
-89.975
0
LINE
8
0
10
106.975
20
-89.975
11
106.975
21
-76.025
0
LINE
8
0
10
106.975
20
-76.025
11
93.025
21
-76.025
0
LINE
8
0
10
93.025
20
-76.025
11
93.025
21
-89.975
0
LINE
8
0
10
93.025
20
-72.975
11
106.975
21
-72.975
0
LINE
8
0
10
106.975
20
-72.975
11
106.975
21
-59.025
0
LINE
8
0
10
106.975
20
-59.025
11
93.025
21
-59.025
0
LINE
8
0
10
93.025
20
-59.025
11
93.025
21
-72.975
0
LINE
8
0
10
111.025
20
-94.975
11
124.975
21
-94.975
0
LINE
8
0
10
124.975
20
-94.975
11
124.975
21
-81.025
0
LINE
8
0
10
124.975
20
-81.025
11
111.025
21
-81.025
0
LINE
8
0
10
111.025
20
-81.025
11
111.025
21
-94.975
0
LINE
8
0
10
111.025
20
-77.975
11
124.975
21
-77.975
0
LINE
8
0
10
124.975
20
-77.975
11
124.975
21
-64.025
0
LINE
8
0
10
124.975
20
-64.025
11
111.025
21
-64.025
0
LINE
8
0
10
111.025
20
-64.025
11
111.025
21
-77.975
0
LINE
8
0
10
111.025
20
-60.975
11
124.975
21
-60.975
0
LINE
8
0
10
124.975
20
-60.975
11
124.975
21
-47.025
0
LINE
8
0
10
124.975
20
-47.025
11
111.025
21
-47.025
0
LINE
8
0
10
111.025
20
-47.025
11
111.025
21
-60.975
0
LINE
8
0
10
129.025
20
-88.975
11
142.975
21
-88.975
0
LINE
8
0
10
142.975
20
-88.975
11
142.975
21
-75.025
0
LINE
8
0
10
142.975
20
-75.025
11
129.025
21
-75.025
0
LINE
8
0
10
129.025
20
-75.025
11
129.025
21
-88.975
0
LINE
8
0
10
129.025
20
-71.975
11
142.975
21
-71.975
0
LINE
8
0
10
142.975
20
-71.975
11
142.975
21
-58.025
0
LINE
8
0
10
142.975
20
-58.025
11
129.025
21
-58.025
0
LINE
8
0
10
129.025
20
-58.025
11
129.025
21
-71.975
0
LINE
8
0
10
129.025
20
-54.975
11
142.975
21
-54.975
0
LINE
8
0
10
142.975
20
-54.975
11
142.975
21
-41.025
0
LINE
8
0
10
142.975
20
-41.025
11
129.025
21
-41.025
0
LINE
8
0
10
129.025
20
-41.025
11
129.025
21
-54.975
0
LINE
8
0
10
147.025
20
-94.975
11
160.975
21
-94.975
0
LINE
8
0
10
160.975
20
-94.975
11
160.975
21
-81.025
0
LINE
8
0
10
160.975
20
-81.025
11
147.025
21
-81.025
0
LINE
8
0
10
147.025
20
-81.025
11
147.025
21
-94.975
0
LINE
8
0
10
147.025
20
-77.975
11
160.975
21
-77.975
0
LINE
8
0
10
160.975
20
-77.975
11
160.975
21
-64.025
0
LINE
8
0
10
160.975
20
-64.025
11
147.025
21
-64.025
0
LINE
8
0
10
147.025
20
-64.025
11
147.025
21
-77.975
0
LINE
8
0
10
147.025
20
-60.975
11
160.975
21
-60.975
0
LINE
8
0
10
160.975
20
-60.975
11
160.975
21
-47.025
0
LINE
8
0
10
160.975
20
-47.025
11
147.025
21
-47.025
0
LINE
8
0
10
147.025
20
-47.025
11
147.025
21
-60.975
0
LINE
8
0
10
165.025
20
-97.975
11
178.975
21
-97.975
0
LINE
8
0
10
178.975
20
-97.975
11
178.975
21
-84.025
0
LINE
8
0
10
178.975
20
-84.025
11
165.025
21
-84.025
0
LINE
8
0
10
165.025
20
-84.025
11
165.025
21
-97.975
0
LINE
8
0
10
165.025
20
-80.975
11
178.975
21
-80.975
0
LINE
8
0
10
178.975
20
-80.975
11
178.975
21
-67.025
0
LINE
8
0
10
178.975
20
-67.025
11
165.025
21
-67.025
0
LINE
8
0
10
165.025
20
-67.025
11
165.025
21
-80.975
0
LINE
8
0
10
165.025
20
-63.975
11
178.975
21
-63.975
0
LINE
8
0
10
178.975
20
-63.975
11
178.975
21
-50.025
0
LINE
8
0
10
178.975
20
-50.025
11
165.025
21
-50.025
0
LINE
8
0
10
165.025
20
-50.025
11
165.025
21
-63.975
0
LINE
8
0
10
156.4574045
20
-118.1820698
11
169.9320698
21
-121.7925955
0
LINE
8
0
10
169.9320698
20
-121.7925955
11
173.5425955
21
-108.3179302
0
LINE
8
0
10
173.5425955
20
-108.3179302
11
160.0679302
21
-104.7074045
0
LINE
8
0
10
160.0679302
20
-104.7074045
11
156.4574045
21
-118.1820698
0
LINE
8
0
10
178.0987956
20
-124.946608
11
190.7417892
21
-130.8421328
0
LINE
8
0
10
190.7417892
20
-130.8421328
11
196.637314
21
-118.1991392
0
LINE
8
0
10
196.637314
20
-118.1991392
11
183.9943204
21
-112.3036144
0
LINE
8
0
10
183.9943204
20
-112.3036144
11
178.0987956
21
-124.946608
0
CIRCLE
8
0
10
109
20
-55.5
40
1.5
0
CIRCLE
8
0
10
109
20
-89.5
40
1.5
0
CIRCLE
8
0
10
163
20
-58
40
1.5
0
CIRCLE
8
0
10
163
20
-92
40
1.5
0
CIRCLE
8
0
10
176.5911099
20
-116.3558285
40
1.5
0
CIRCLE
8
0
10
184.5
20
-107.5
40
1.5
0
CIRCLE
8
0
10
199.5
20
-113.5
40
1.5
0
ENDSEC
0
EOF