0
SECTION
2
HEADER
9
$INSUNITS
70
4
0
ENDSEC
0
SECTION
2
TABLES
0
TABLE
2
LTYPE
0
LTYPE
72
65
70
64
2
CONTINUOUS
3
______
73
0
40
0
0
ENDTAB
0
TABLE
2
LAYER
0
ENDTAB
0
ENDSEC
0
SECTION
2
ENTITIES
0
LINE
8
0
10
93.025
20
-106.975
11
106.975
21
-106.975
0
LINE
8
0
10
106.975
20
-106.975
11
106.975
21
-93.025
0
LINE
8
0
10
106.975
20
-93.025
11
93.025
21
-93.025
0
LINE
8
0
10
93.025
20
-93.025
11
93.025
21
-106.975
0
LINE
8
0
10
93.025
20
-89.975
11
106.975
21
-89.975
0
LINE
8
0
10
106.975
20
-89.975
11
106.975
21
-76.025
0
LINE
8
0
10
106.975
20
-76.025
11
93.025
21
-76.025
0
LINE
8
0
10
93.025
20
-76.025
11
93.025
21
-89.975
0
LINE
8
0
10
93.025
20
-72.975
11
106.975
21
-72.975
0
LINE
8
0
10
106.975
20
-72.975
11
106.975
21
-59.025
0
LINE
8
0
10
106.975
20
-59.025
11
93.025
21
-59.025
0
LINE
8
0
10
93.025
20
-59.025
11
93.025
21
-72.975
0
LINE
8
0
10
111.025
20
-94.975
11
124.975
21
-94.975
0
LINE
8
0
10
124.975
20
-94.975
11
124.975
21
-81.025
0
LINE
8
0
10
124.975
20
-81.025
11
111.025
21
-81.025
0
LINE
8
0
10
111.025
20
-81.025
11
111.025
21
-94.975
0
LINE
8
0
10
111.025
20
-77.975
11
124.975
21
-77.975
0
LINE
8
0
10
124.975
20
-77.975
11
124.975
21
-64.025
0
LINE
8
0
10
124.975
20
-64.025
11
111.025
21
-64.025
0
LINE
8
0
10
111.025
20
-64.025
11
111.025
21
-77.975
0
LINE
8
0
10
111.025
20
-60.975
11
124.975
21
-60.975
0
LINE
8
0
10
124.975
20
-60.975
11
124.975
21
-47.025
0
LINE
8
0
10
124.975
20
-47.025
11
111.025
21
-47.025
0
LINE
8
0
10
111.025
20
-47.025
11
111.025
21
-60.975
0
LINE
8
0
10
129.025
20
-88.975
11
142.975
21
-88.975
0
LINE
8
0
10
142.975
20
-88.975
11
142.975
21
-75.025
0
LINE
8
0
10
142.975
20
-75.025
11
129.025
21
-75.025
0
LINE
8
0
10
129.025
20
-75.025
11
129.025
21
-88.975
0
LINE
8
0
10
129.025
20
-71.975
11
142.975
21
-71.975
0
LINE
8
0
10
142.975
20
-71.975
11
142.975
21
-58.025
0
LINE
8
0
10
142.975
20
-58.025
11
129.025
21
-58.025
0
LINE
8
0
10
129.025
20
-58.025
11
129.025
21
-71.975
0
LINE
8
0
10
129.025
20
-54.975
11
142.975
21
-54.975
0
LINE
8
0
10
142.975
20
-54.975
11
142.975
21
-41.025
0
LINE
8
0
10
142.975
20
-41.025
11
129.025
21
-41.025
0
LINE
8
0
10
129.025
20
-41.025
11
129.025
21
-54.975
0
LINE
8
0
10
147.025
20
-94.975
11
160.975
21
-94.975
0
LINE
8
0
10
160.975
20
-94.975
11
160.975
21
-81.025
0
LINE
8
0
10
160.975
20
-81.025
11
147.025
21
-81.025
0
LINE
8
0
10
147.025
20
-81.025
11
147.025
21
-94.975
0
LINE
8
0
10
147.025
20
-77.975
11
160.975
21
-77.975
0
LINE
8
0
10
160.975
20
-77.975
11
160.975
21
-64.025
0
LINE
8
0
10
160.975
20
-64.025
11
147.025
21
-64.025
0
LINE
8
0
10
147.025
20
-64.025
11
147.025
21
-77.975
0
LINE
8
0
10
147.025
20
-60.975
11
160.975
21
-60.975
0
LINE
8
0
10
160.975
20
-60.975
11
160.975
21
-47.025
0
LINE
8
0
10
160.975
20
-47.025
11
147.025
21
-47.025
0
LINE
8
0
10
147.025
20
-47.025
11
147.025
21
-60.975
0
LINE
8
0
10
165.025
20
-97.975
11
178.975
21
-97.975
0
LINE
8
0
10
178.975
20
-97.975
11
178.975
21
-84.025
0
LINE
8
0
10
178.975
20
-84.025
11
165.025
21
-84.025
0
LINE
8
0
10
165.025
20
-84.025
11
165.025
21
-97.975
0
LINE
8
0
10
165.025
20
-80.975
11
178.975
21
-80.975
0
LINE
8
0
10
178.975
20
-80.975
11
178.975
21
-67.025
0
LINE
8
0
10
178.975
20
-67.025
11
165.025
21
-67.025
0
LINE
8
0
10
165.025
20
-67.025
11
165.025
21
-80.975
0
LINE
8
0
10
165.025
20
-63.975
11
178.975
21
-63.975
0
LINE
8
0
10
178.975
20
-63.975
11
178.975
21
-50.025
0
LINE
8
0
10
178.975
20
-50.025
11
165.025
21
-50.025
0
LINE
8
0
10
165.025
20
-50.025
11
165.025
21
-63.975
0
LINE
8
0
10
156.4574045
20
-118.1820698
11
169.9320698
21
-121.7925955
0
LINE
8
0
10
169.9320698
20
-121.7925955
11
173.5425955
21
-108.3179302
0
LINE
8
0
10
173.5425955
20
-108.3179302
11
160.0679302
21
-104.7074045
0
LINE
8
0
10
160.0679302
20
-104.7074045
11
156.4574045
21
-118.1820698
0
LINE
8
0
10
178.0987956
20
-124.946608
11
190.7417892
21
-130.8421328
0
LINE
8
0
10
190.7417892
20
-130.8421328
11
196.637314
21
-118.1991392
0
LINE
8
0
10
196.637314
20
-118.1991392
11
183.9943204
21
-112.3036144
0
LINE
8
0
10
183.9943204
20
-112.3036144
11
178.0987956
21
-124.946608
0
CIRCLE
8
0
10
109
20
-55.5
40
1
0
CIRCLE
8
0
10
109
20
-89.5
40
1
0
CIRCLE
8
0
10
163
20
-58
40
1
0
CIRCLE
8
0
10
163
20
-92
40
1
0
CIRCLE
8
0
10
176.5911099
20
-116.3558285
40
1
0
ENDSEC
0
EOF