<?xml version="1.0" encoding="UTF-8" standalone="no"?>
<!-- Created with Inkscape (http://www.inkscape.org/) -->

<svg
   version="1.1"
   id="svg1"
   width="563"
   height="563"
   viewBox="0 0 563 563"
   sodipodi:docname="sisyphus_text.svg"
   inkscape:version="1.3.2 (091e20e, 2023-11-25, custom)"
   xmlns:inkscape="http://www.inkscape.org/namespaces/inkscape"
   xmlns:sodipodi="http://sodipodi.sourceforge.net/DTD/sodipodi-0.dtd"
   xmlns="http://www.w3.org/2000/svg"
   xmlns:svg="http://www.w3.org/2000/svg">
  <defs
     id="defs1">
    <rect
       x="206.36409"
       y="103.18204"
       width="247.91391"
       height="35.317344"
       id="rect9" />
    <rect
       x="180.0492"
       y="128.80443"
       width="349.71096"
       height="89.332105"
       id="rect8" />
  </defs>
  <sodipodi:namedview
     id="namedview1"
     pagecolor="#ffffff"
     bordercolor="#000000"
     borderopacity="0.25"
     inkscape:showpageshadow="2"
     inkscape:pageopacity="0.0"
     inkscape:pagecheckerboard="0"
     inkscape:deskcolor="#d1d1d1"
     inkscape:zoom="1.4440497"
     inkscape:cx="281.84626"
     inkscape:cy="280.80751"
     inkscape:window-width="1920"
     inkscape:window-height="1009"
     inkscape:window-x="-8"
     inkscape:window-y="-8"
     inkscape:window-maximized="1"
     inkscape:current-layer="g1" />
  <g
     inkscape:groupmode="layer"
     inkscape:label="Image"
     id="g1"
     style="display:inline">
    <path
       style="fill:#000000;stroke-width:1.02828"
       d="m 36.397294,460.94421 c 0,-0.074 1.15353,-0.95572 2.56341,-1.95941 1.40989,-1.00369 3.84512,-2.86947 5.41165,-4.14617 1.56654,-1.2767 4.00178,-2.89174 5.41167,-3.58893 1.40987,-0.69723 2.56341,-1.4078 2.56341,-1.57905 0,-0.50983 -1.94452,-1.78994 -2.71897,-1.78994 -0.94759,0 -1.47519,-1.38068 -1.10953,-2.90354 0.16046,-0.6682 0.99658,-2.08962 1.85809,-3.15875 1.14267,-1.41805 1.94441,-3.05194 2.96396,-6.04035 0.92948,-2.72443 1.92417,-4.81896 2.96979,-6.25351 1.00076,-1.37296 2.0151,-3.4692 2.79066,-5.76716 0.67014,-1.98558 1.47537,-3.81045 1.7894,-4.05524 0.42744,-0.33321 0.57097,-1.21929 0.57097,-3.52493 0,-3.9025 0.42901,-5.28235 2.08546,-6.7077 l 1.32616,-1.14115 -4.5e-4,-4.56886 c -2.6e-4,-2.51287 0.16861,-5.61221 0.37526,-6.88743 0.20665,-1.27522 0.38082,-3.68295 0.38706,-5.35055 0.0149,-3.98304 0.97179,-5.94396 4.67863,-9.58782 1.52097,-1.49515 3.47267,-3.60129 4.33709,-4.68033 0.86442,-1.07902 2.69373,-3.13093 4.06514,-4.55978 1.3714,-1.42885 2.49345,-2.89404 2.49345,-3.25595 0,-0.36191 -0.27503,-1.27629 -0.61118,-2.03195 -0.90719,-2.03939 -1.3935,-8.32631 -0.89376,-11.55453 0.22778,-1.4714 1.08332,-5.04098 1.90121,-7.9324 2.35479,-8.32481 4.49725,-11.76421 10.25589,-16.46444 3.34655,-2.73147 3.98888,-3.44308 4.97424,-5.51066 1.99583,-4.18789 3.693096,-5.30171 10.120036,-6.64122 5.0637,-1.05539 7.01174,-1.66674 11.09081,-3.48066 3.99933,-1.77846 7.11138,-2.07496 12.7517,-1.21494 2.07244,0.31601 5.19587,0.73393 6.94093,0.92872 2.50697,0.27983 3.82064,0.66418 6.25951,1.83139 4.05683,1.94152 5.58462,2.42675 8.88715,2.82256 4.78243,0.57318 8.33516,2.98747 10.37326,7.04919 0.6609,1.31711 1.93357,3.13178 2.82815,4.03259 2.65292,2.67146 5.90116,7.72428 7.65892,11.91393 0.90472,2.15643 1.64496,4.10227 1.64496,4.32409 0,0.22183 0.45543,1.6678 1.01208,3.21328 0.90373,2.50919 1.01524,3.36368 1.04168,7.9822 0.0291,5.07755 0.002,5.24727 -1.42417,9.27429 -1.42325,4.01594 -1.44441,4.15259 -1.00777,6.50685 0.24531,1.32261 0.33028,3.04815 0.18883,3.83456 -0.14144,0.78639 -0.17566,1.42981 -0.0761,1.42981 0.0996,0 1.33875,-0.63538 2.75359,-1.41195 1.41483,-0.7766 2.72235,-1.32494 2.90559,-1.21857 0.18324,0.10638 0.6623,-0.19962 1.06458,-0.67998 0.40228,-0.48036 1.2926,-1.08206 1.97851,-1.33711 0.68592,-0.25506 1.56375,-0.71821 1.95076,-1.02922 0.38698,-0.31102 1.92503,-1.13861 3.41787,-1.8391 10.07678,-4.72834 14.99105,-7.30903 16.72995,-8.78559 2.53604,-2.15343 5.52072,-3.93588 8.30941,-4.9624 1.23961,-0.4563 3.31913,-1.37964 4.62118,-2.05187 3.71548,-1.91826 7.76797,-3.49167 8.67898,-3.36967 0.67024,0.0898 0.40816,0.34164 -1.34653,1.29408 -1.19831,0.65046 -2.87848,1.8141 -3.73371,2.58591 -0.85521,0.77178 -1.77577,1.40325 -2.04569,1.40325 -0.26991,0 -1.51851,0.84272 -2.77469,1.8727 -3.00912,2.4673 -8.03725,5.90933 -11.94313,8.17571 -4.8658,2.82339 -6.41016,3.87937 -6.18159,4.22674 0.11555,0.17562 -0.34295,0.58795 -1.01891,0.91627 -0.67595,0.32832 -2.775,1.90576 -4.66453,3.5054 -4.13842,3.50349 -12.55447,8.98113 -18.16358,11.82185 -2.76677,1.40124 -4.76344,2.71203 -6.15711,4.04207 -2.08285,1.98778 -3.07335,2.30554 -1.88745,0.60552 0.77541,-1.11156 0.47515,-1.17099 -0.98436,-0.19484 -0.59856,0.40034 -2.02179,1.02954 -3.16273,1.39824 -1.14095,0.36871 -3.96603,1.57919 -6.27796,2.68996 -3.39421,1.63075 -4.54491,2.39492 -5.97671,3.96907 -2.47749,2.72383 -3.51065,3.3177 -7.38115,4.24272 -4.12388,0.98558 -10.24241,4.03651 -21.80226,10.87142 -4.3863,2.59344 -8.91501,5.16434 -10.06379,5.71311 -6.90695,3.29941 -18.669726,10.03816 -23.355566,13.38014 -2.18866,1.56095 -12.65698,6.91903 -14.62096,7.48354 -0.52218,0.15009 -2.89939,1.13491 -5.28268,2.18848 -2.38329,1.05358 -4.40061,1.85233 -4.48293,1.77501 -0.0824,-0.0773 1.91529,-1.30432 4.43915,-2.72669 4.84522,-2.73062 6.0334,-3.87069 1.64337,-1.57682 -1.42068,0.74233 -5.48826,2.98264 -9.03906,4.97847 -3.55082,1.99584 -7.82317,4.31905 -9.49413,5.1627 -1.67097,0.84366 -4.40923,2.45722 -6.08502,3.58569 -4.61751,3.10942 -9.29548,5.36884 -9.29548,4.48965 z m 26.01142,-16.97343 c 2.92434,-1.87138 8.34837,-4.85362 12.05338,-6.62719 6.67349,-3.19458 6.72888,-3.23076 5.92913,-3.87394 -0.74651,-0.60039 -0.79136,-0.8946 -0.5958,-3.90938 0.11631,-1.79306 0.39664,-3.712 0.62294,-4.2643 0.47073,-1.14875 0.56355,-6.30826 0.11349,-6.30826 -0.16389,0 -1.27044,0.32104 -2.45899,0.71342 -1.18854,0.39236 -2.80613,0.71775 -3.59461,0.72308 -1.41181,0.01 -1.45476,0.0517 -2.82522,2.76445 -0.76539,1.51513 -2.13629,3.48183 -3.04641,4.37043 -0.91013,0.8886 -2.4965,2.65429 -3.52527,3.92374 -1.02875,1.26944 -3.65406,4.22599 -5.83398,6.5701 -4.04959,4.35458 -5.18445,6.08156 -4.74567,7.22173 0.49582,1.28834 1.70266,2.61372 2.14575,2.35652 0.24436,-0.14186 2.83693,-1.78904 5.76126,-3.6604 z m -12.37714,1.14547 c 0.40574,-0.7357 1.84861,-2.76214 3.2064,-4.50321 1.96007,-2.51335 2.59946,-3.66671 3.10334,-5.59795 0.34904,-1.33781 0.52615,-2.59725 0.39357,-2.79874 -0.33727,-0.51257 0.64455,-2.15549 2.02452,-3.38771 0.63966,-0.5712 1.448,-1.85533 1.79627,-2.85363 0.34829,-0.9983 0.95791,-2.25031 1.35474,-2.78225 1.3673,-1.8328 2.20975,-4.86619 2.20975,-7.9565 0,-2.57427 0.12056,-3.09324 1.00212,-4.31339 0.55118,-0.76288 1.1773,-1.86877 1.39139,-2.45754 0.2141,-0.58877 0.55301,-1.17233 0.75315,-1.2968 0.23159,-0.14401 0.22063,-2.1267 -0.0301,-5.45278 -0.35266,-4.677 -0.32056,-5.49701 0.30526,-7.79953 1.39654,-5.13819 3.28143,-9.61991 4.83265,-11.49062 4.88979,-5.89688 6.83833,-8.59337 6.46389,-8.94508 -0.0818,-0.0768 -1.63712,1.67362 -3.4565,3.88968 -1.81934,2.21606 -4.03741,4.60196 -4.92901,5.30198 -0.8916,0.70004 -2.14692,2.21505 -2.7896,3.36671 -1.0629,1.90468 -1.19029,2.497 -1.40924,6.55276 -0.13239,2.45234 -0.42272,5.18112 -0.64517,6.06396 -0.25134,0.99755 -0.30489,3.12489 -0.14143,5.61987 l 0.26303,4.01471 -1.32352,1.15749 c -1.93599,1.69316 -2.18569,2.37345 -2.18569,5.95495 0,2.90151 -0.11425,3.43384 -1.09599,5.10648 -0.6028,1.02702 -1.38945,3.02801 -1.74811,4.44668 -0.44701,1.76818 -1.11673,3.18884 -2.12946,4.51721 -0.93913,1.23186 -2.08421,3.57314 -3.14308,6.42653 -0.95087,2.56232 -2.13356,5.03504 -2.75584,5.76179 -1.41271,1.64981 -2.41798,3.38225 -2.41871,4.16834 -8.3e-4,0.94689 0.28953,0.75878 1.10143,-0.71341 z m 32.46756,-11.9674 c 0.62747,-0.43096 0.6028,-0.49467 -0.34935,-0.90215 -0.85133,-0.36434 -0.98727,-0.60248 -0.8043,-1.40899 0.1211,-0.5338 0.4174,-3.43081 0.65844,-6.43779 0.32412,-4.04352 0.32721,-5.57157 0.0119,-5.86779 -0.31536,-0.29621 -0.42788,0.29153 -0.43202,2.25693 -0.002,1.46159 -0.24108,3.62055 -0.52889,4.79767 -0.28779,1.17712 -0.63815,3.20182 -0.7786,4.49931 -0.20889,1.93004 -0.1423,2.46525 0.36613,2.94281 0.75038,0.7048 0.98333,0.71986 1.85672,0.12 z m 7.62575,-3.54921 c 1.2037,-0.6376 4.34706,-2.50857 6.98524,-4.15769 2.63818,-1.64911 5.480266,-3.35195 6.315746,-3.78407 4.21719,-2.18114 7.41983,-3.97151 9.30426,-5.20135 1.14879,-0.74973 4.08307,-2.64848 6.52061,-4.21943 2.43755,-1.57096 4.52484,-2.99751 4.63843,-3.17014 0.11358,-0.17262 -0.85541,-0.58958 -2.15332,-0.9266 -1.2979,-0.33699 -3.21429,-1.15309 -4.25865,-1.81354 -1.04436,-0.66045 -3.18054,-1.5508 -4.74707,-1.97857 -3.48106,-0.95057 -4.63867,-1.48527 -6.82172,-3.15096 -0.93219,-0.71127 -2.40166,-1.7157 -3.26548,-2.23207 -0.86382,-0.51636 -2.17196,-1.5037 -2.906976,-2.19408 l -1.33641,-1.25525 -1.75688,1.96269 c -2.34059,2.61479 -3.14653,3.16758 -6.18383,4.24138 -3.40547,1.20398 -6.04021,1.20623 -8.61926,0.007 l -1.94254,-0.90296 -0.86277,0.76132 c -0.47646,0.42041 -0.86278,1.18479 -0.86278,1.70705 0,0.5418 -0.3964,1.29554 -0.92802,1.76464 -1.01356,0.89437 -2.11011,2.82936 -2.11011,3.72353 0,0.47329 0.35402,0.5321 2.18366,0.36273 1.51049,-0.13982 2.69593,-0.0282 3.8454,0.36217 0.91395,0.31037 2.56029,0.56431 3.65853,0.56431 1.84013,0 2.10204,0.10945 3.33878,1.39526 2.15309,2.23848 2.30503,2.67322 1.80379,5.16083 -0.66582,3.30429 -1.13529,4.47291 -2.78487,6.93229 -1.78108,2.65544 -2.23252,4.9101 -1.26177,6.30168 0.82365,1.18072 1.57496,1.1342 4.20801,-0.26054 z m 32.748536,-32.93265 c 1.59265,-0.309 3.59346,-0.81657 4.44624,-1.12795 1.72996,-0.63168 7.92174,-4.39439 7.65047,-4.64918 -0.0954,-0.0896 -2.23708,0.52054 -4.75928,1.35589 -4.67352,1.54787 -6.34041,1.75243 -3.28402,0.403 1.69875,-0.75001 3.00746,-1.88785 1.53092,-1.33103 -0.39978,0.15077 -1.41046,0.33948 -2.24594,0.41941 l -1.51907,0.14529 1.32027,-0.57114 c 0.72614,-0.31413 1.88562,-1.03739 2.57663,-1.60726 0.69099,-0.56985 1.44078,-1.03611 1.6662,-1.03611 0.22541,0 1.62934,-0.71157 3.11985,-1.58126 1.4905,-0.86967 4.6708,-2.5174 7.06729,-3.66158 4.10986,-1.9622 4.48172,-2.23193 6.5487,-4.75022 1.20528,-1.46846 2.19243,-2.80759 2.19368,-2.97587 8.2e-4,-0.16827 -1.00978,0.57411 -2.24669,1.64974 -1.94038,1.68736 -4.58684,3.14133 -4.58684,2.52001 0,-0.66352 3.38958,-4.2364 8.74162,-9.21435 3.37488,-3.13899 6.37743,-6.14071 6.67234,-6.67048 0.61381,-1.10265 0.73963,-5.6358 0.15643,-5.6358 -0.20887,0 -0.38197,0.28091 -0.38465,0.62424 -0.002,0.34332 -0.43225,1.42682 -0.95458,2.40774 -0.88927,1.67006 -0.93487,1.7041 -0.71713,0.53507 0.40695,-2.18463 0.89719,-6.82825 1.1569,-10.9581 0.31699,-5.04074 -0.16022,-6.43785 -3.01112,-8.81571 -3.75004,-3.12777 -4.94435,-4.31011 -6.18967,-6.12769 -0.68735,-1.00318 -1.76779,-2.23346 -2.40102,-2.73391 -1.07303,-0.84806 -8.51179,-3.82463 -9.55817,-3.82463 -0.25853,0 -2.36842,-0.791 -4.68864,-1.75779 -4.85357,-2.02238 -7.23721,-2.66357 -9.13017,-2.45599 -1.67884,0.18408 -1.73879,-0.20441 -0.10456,-0.6773 l 1.23423,-0.35715 -1.06907,-0.40785 c -0.58799,-0.22433 -1.84879,-0.40788 -2.80177,-0.40788 -1.61478,0 -1.87796,0.14151 -3.86787,2.07964 -2.00638,1.9542 -2.43304,2.18079 -7.07214,3.75603 -7.03276,2.38802 -7.50551,2.6114 -9.429446,4.45556 -2.20283,2.11147 -6.02572,8.00219 -7.44218,11.46769 -0.6014,1.4714 -1.61612,4.84225 -2.25493,7.49079 -0.63882,2.64851 -1.50989,5.65992 -1.93571,6.69201 -0.52761,1.27876 -0.78191,2.75591 -0.79831,4.63714 -0.027,3.10042 -0.49048,2.68161 -0.92701,-0.83773 -0.14386,-1.15989 -0.51995,-3.21242 -0.83577,-4.56119 -0.32337,-1.38102 -0.50688,-3.44522 -0.42009,-4.72531 0.10735,-1.58369 0.0335,-2.15976 -0.24361,-1.89953 -0.22998,0.21601 -0.45485,2.69765 -0.53321,5.88462 -0.0745,3.0311 -0.26614,5.51108 -0.42579,5.51108 -0.15964,0 -0.43042,-1.6453 -0.60171,-3.65621 l -0.31147,-3.65621 -0.28972,2.49693 c -0.36978,3.18704 -0.16162,4.85761 1.41746,11.37509 0.94041,3.88139 1.54886,5.63381 2.26022,6.50984 1.15996,1.42842 1.48099,1.51348 1.15858,0.30695 -0.42758,-1.60018 0.11903,-0.94527 1.71186,2.05104 0.86042,1.61855 2.0116,3.50114 2.5582,4.18355 l 0.9938,1.24074 -1.22478,-0.81915 c -1.48746,-0.99485 -1.51786,-0.83701 -0.21356,1.10921 2.0531,3.06355 3.42668,4.28005 8.33586,7.38266 5.970106,3.77311 6.961646,4.28307 9.451316,4.86097 2.78572,0.64663 11.04358,0.61227 14.5106,-0.0604 z m -12.99152,-1.80165 c -4.03898,-0.74707 -5.11085,-1.01359 -6.23078,-1.54934 -1.26125,-0.60334 -1.27081,-0.6242 -0.37977,-0.82865 0.50273,-0.11535 3.7297,0.31516 7.17103,0.95669 5.10684,0.95202 6.02306,1.21036 4.98443,1.40548 -1.32726,0.24933 -4.23753,0.25763 -5.54491,0.0158 z m 43.46086,-36.35671 c -0.0122,-1.16732 -0.16103,-4.36964 -0.33062,-7.11625 -0.16958,-2.74661 -0.25501,-5.05133 -0.18985,-5.12158 0.24856,-0.26796 1.29004,2.55603 1.67166,4.53273 0.27591,1.42918 0.27868,3.15233 0.01,5.59494 -0.45378,4.11039 -1.12638,5.33368 -1.16022,2.11016 z m -63.766766,-2.92367 c -0.0294,-1.13263 1.90823,-8.76658 2.57413,-10.14158 0.82607,-1.7057 1.94063,-3.17921 1.95942,-2.59048 0.0171,0.53581 -3.76433,11.96117 -4.17889,12.62621 -0.21749,0.3489 -0.34734,0.38765 -0.35466,0.10585 z m 65.341776,-5.71994 c -0.25179,-1.71038 -0.55179,-3.47094 -0.66668,-3.91236 -0.35368,-1.359 0.51461,-0.88693 1.16142,0.63144 0.64209,1.50731 0.84436,5.8791 0.28696,6.20267 -0.17813,0.10341 -0.52991,-1.21137 -0.7817,-2.92175 z m -8.00648,0.10056 c -0.0197,-1.69404 -0.31734,-3.29672 -1.17938,-6.35249 -0.32088,-1.13749 -0.65807,-1.46927 -2.07156,-2.03836 -2.03843,-0.82072 -2.17657,-1.18017 -0.32836,-0.8545 l 1.35991,0.23963 -0.9504,-1.76163 c -0.52272,-0.9689 -1.73281,-2.6638 -2.68909,-3.76645 -0.95629,-1.10264 -1.7387,-2.09916 -1.7387,-2.21447 0,-0.11531 0.64247,0.0982 1.4277,0.47447 1.34946,0.64664 3.17872,2.20146 4.45795,3.78918 0.53884,0.66878 0.55025,0.64897 0.18219,-0.31701 -1.023,-2.68491 0.86464,-0.52803 2.66334,3.04322 1.13233,2.24819 1.32945,3.58017 0.78426,5.29961 -0.26395,0.83242 -0.31293,0.79089 -0.73631,-0.62424 -0.24945,-0.83379 -0.50641,-1.516 -0.57102,-1.516 -0.0647,0 -0.0363,1.58299 0.0629,3.51775 0.11345,2.21292 0.0259,3.76756 -0.23612,4.19126 -0.34341,0.5554 -0.42012,0.3607 -0.4373,-1.10997 z m -52.393136,-5.36837 c 0.0565,-1.14087 1.06879,-3.79621 1.70302,-4.4669 0.53457,-0.56529 0.61293,-0.83633 0.27399,-0.94769 -0.74435,-0.24455 -0.55746,-0.73843 0.37976,-1.00358 0.46997,-0.13297 1.42954,-0.74571 2.13239,-1.36168 1.196716,-1.04876 1.260506,-1.0661 1.003726,-0.27282 -0.179816,0.55552 -0.101196,0.94753 0.22827,1.13881 0.3654,0.21213 0.21056,0.39593 -0.567616,0.67384 -0.68251,0.24372 -0.99551,0.56468 -0.86418,0.88614 0.11326,0.27722 -0.0683,0.71641 -0.40344,0.97599 -0.33514,0.25958 -1.35036,1.42704 -2.25602,2.59437 -0.90566,1.16733 -1.63912,1.96991 -1.6299,1.78352 z m -3.31809,50.85593 c 1.10214,-0.58423 2.48721,-1.53609 3.07793,-2.11523 l 1.07405,-1.05298 -3.21472,-3.85956 c -4.39134,-5.2722 -5.76856,-7.30663 -7.25465,-10.71661 l -1.27182,-2.91833 -1.5202,1.49901 c -0.83611,0.82445 -2.00197,2.3016 -2.5908,3.28254 -0.58884,0.98092 -1.90705,2.56356 -2.92938,3.51697 -2.10528,1.96333 -2.33612,3.18306 -0.63748,3.36828 0.80144,0.0874 1.36352,-0.2976 2.9573,-2.02561 2.82599,-3.06398 4.67009,-3.19573 7.30481,-0.52188 2.32771,2.3623 2.42298,3.82795 0.38514,5.92542 -0.80584,0.82941 -1.67437,1.88327 -1.93004,2.34192 -0.35499,0.63676 -0.67646,0.78402 -1.35982,0.62293 -1.34927,-0.31809 -1.5037,0.39137 -0.38506,1.76892 0.88351,1.088 1.21122,1.236 2.78585,1.25812 0.98152,0.0138 2.12635,0.16303 2.54409,0.33162 0.41774,0.16862 0.80485,0.31786 0.86023,0.33165 0.0554,0.0138 1.00244,-0.45293 2.10457,-1.03718 z m -10.38457,-11.08017 c 0.78877,-0.63327 1.74738,-1.05562 2.39595,-1.05562 0.62404,0 0.98188,-0.1508 0.8464,-0.3567 -0.6921,-1.05185 -3.80627,0.13239 -4.76283,1.81118 -0.55317,0.97085 -0.007,0.82762 1.52048,-0.39886 z"
       id="path13" />
    <text
       xml:space="preserve"
       style="font-style:normal;font-variant:normal;font-weight:normal;font-stretch:normal;font-size:12px;font-family:'Fira Code';-inkscape-font-specification:'Fira Code';white-space:pre;inline-size:248.759;display:inline;fill:#000000"
       x="340.92908"
       y="331.70599"
       id="text1"
       transform="translate(-327.55105,147.23892)"><tspan
         x="340.92908"
         y="331.70599"
         id="tspan2"><tspan
           style="font-size:13.3333px;text-align:center;text-anchor:middle"
           id="tspan1">SNAK: Sisyphus Needed a </tspan></tspan><tspan
         x="340.92908"
         y="348.37263"
         id="tspan4"><tspan
           style="font-size:13.3333px;text-align:center;text-anchor:middle"
           id="tspan3">Keyboard
</tspan></tspan><tspan
         x="340.92908"
         y="363.87262"
         id="tspan7"><tspan
           style="font-size:10.6667px;text-align:center;text-anchor:middle"
           id="tspan5">Jack Matanky</tspan></tspan></text>
    <text
       xml:space="preserve"
       id="text8"
       style="fill:#000000;font-size:13.33333333px;text-align:center;white-space:pre;shape-inside:url(#rect8)" />
    <text
       xml:space="preserve"
       id="text9"
       style="font-size:13.3333px;text-align:center;white-space:pre;shape-inside:url(#rect9);fill:#000000"><tspan
         x="214.69028"
         y="115.34601"
         id="tspan9"><tspan
   style="font-size:12.6667px"
   id="tspan8">SNAK: Sisyphus Needed a Keyboard</tspan>
</tspan><tspan
         x="294.19259"
         y="132.01264"
         id="tspan13"><tspan
           style="font-size:10.6667px"
           id="tspan10">Jack Matanky</tspan></tspan></text>
  </g>
</svg>
