0
SECTION
2
HEADER
9
$INSUNITS
70
4
0
ENDSEC
0
SECTION
2
TABLES
0
TABLE
2
LTYPE
0
LTYPE
72
65
70
64
2
CONTINUOUS
3
______
73
0
40
0
0
ENDTAB
0
TABLE
2
LAYER
0
ENDTAB
0
ENDSEC
0
SECTION
2
ENTITIES
0
LINE
8
0
10
181.370949
20
-133.3091404
11
112.3291881
21
-103
0
LINE
8
0
10
92.5055556
20
-54.5
11
97.5
21
-51.1203008
0
LINE
8
0
10
101.3722222
20
-48.5
11
107.5
21
-44.3533835
0
LINE
8
0
10
115.6666667
20
-41
11
126
21
-37.6486486
0
LINE
8
0
10
148
20
-38.3384615
11
153.7701149
21
-42.2
0
LINE
8
0
10
157.1321839
20
-44.45
11
164.25
21
-49.2134615
0
LINE
8
0
10
181.7987612
20
-52.1524776
11
182
21
-51.75
0
LINE
8
0
10
182
20
-51.75
11
203.55
21
-51.75
0
LINE
8
0
10
203.55
20
-51.75
11
203.55
21
-90.5713316
0
LINE
8
0
10
203.3660778
20
-92.1066361
11
197.226265
21
-117.3651698
0
ARC
8
0
10
175.9849845
20
-49.2455892
40
6.5
50
274.5444888
51
333.4349488
0
ARC
8
0
10
197.05
20
-90.5713316
40
6.5
50
346.3375896
51
0
0
ARC
8
0
10
190.9101872
20
-115.8298652
40
6.5
50
345.3613871
51
346.3375896
0
ARC
8
0
10
183.9837487
20
-127.3573947
40
6.5
50
246.2986597
51
267.3468276
0
LINE
8
0
10
121
20
-97
11
121
21
-103
0
LINE
8
0
10
112.3291881
20
-103
11
121
21
-103
0
LINE
8
0
10
97.5
20
-54.5
11
92.5055556
21
-54.5
0
LINE
8
0
10
121
20
-97
11
129.5
21
-97
0
LINE
8
0
10
129.5
20
-97
11
129.5
21
-91
0
LINE
8
0
10
101.3722222
20
-48.5
11
107.5
21
-48.5
0
LINE
8
0
10
97.5
20
-54.5
11
97.5
21
-51.1203008
0
LINE
8
0
10
115.6666667
20
-41
11
126
21
-41
0
LINE
8
0
10
107.5
20
-44.3533835
11
107.5
21
-48.5
0
LINE
8
0
10
129.5
20
-91
11
144.5
21
-91
0
LINE
8
0
10
148
20
-42.2
11
148
21
-38.3384615
0
LINE
8
0
10
126
20
-37.6486486
11
126
21
-41
0
LINE
8
0
10
144.5
20
-98.2
11
153
21
-98.2
0
LINE
8
0
10
144.5
20
-91
11
144.5
21
-98.2
0
LINE
8
0
10
176.5
20
-55.7251539
11
176.5
21
-60.5
0
LINE
8
0
10
148
20
-42.2
11
153.7701149
21
-42.2
0
LINE
8
0
10
185
20
-101.5
11
185
21
-60.5
0
LINE
8
0
10
176.5
20
-60.5
11
185
21
-60.5
0
LINE
8
0
10
164.0086583
20
-101.5
11
185
21
-101.5
0
LINE
8
0
10
156.5730162
20
-101.5
11
153
21
-101.5
0
LINE
8
0
10
153
20
-101.5
11
153
21
-98.2
0
LINE
8
0
10
150.7936999
20
-119.2869065
11
169.6320902
21
-125.4078706
0
LINE
8
0
10
177.665246
20
-107.7782868
11
178.2063001
21
-106.1130935
0
LINE
8
0
10
178.2063001
20
-106.1130935
11
164.0086583
21
-101.5
0
LINE
8
0
10
156.5730162
20
-101.5
11
150.7936999
21
-119.2869065
0
LINE
8
0
10
169.6320902
20
-125.4078706
11
183.6828634
21
-133.850427
0
LINE
8
0
10
197.1991912
20
-117.4725547
11
178.5671375
21
-106.2772873
0
LINE
8
0
10
178.5671375
20
-106.2772873
11
177.665246
21
-107.7782868
0
LINE
8
0
10
91.25
20
-90.75
11
108.75
21
-90.75
0
LINE
8
0
10
108.75
20
-90.75
11
108.75
21
-74.25
0
LINE
8
0
10
108.75
20
-74.25
11
91.25
21
-74.25
0
LINE
8
0
10
91.25
20
-74.25
11
91.25
21
-90.75
0
LINE
8
0
10
91.25
20
-73.25
11
108.75
21
-73.25
0
LINE
8
0
10
108.75
20
-73.25
11
108.75
21
-56.75
0
LINE
8
0
10
108.75
20
-56.75
11
91.25
21
-56.75
0
LINE
8
0
10
91.25
20
-56.75
11
91.25
21
-73.25
0
LINE
8
0
10
109.75
20
-94.75
11
127.25
21
-94.75
0
LINE
8
0
10
127.25
20
-94.75
11
127.25
21
-78.25
0
LINE
8
0
10
127.25
20
-78.25
11
109.75
21
-78.25
0
LINE
8
0
10
109.75
20
-78.25
11
109.75
21
-94.75
0
LINE
8
0
10
109.75
20
-77.25
11
127.25
21
-77.25
0
LINE
8
0
10
127.25
20
-77.25
11
127.25
21
-60.75
0
LINE
8
0
10
127.25
20
-60.75
11
109.75
21
-60.75
0
LINE
8
0
10
109.75
20
-60.75
11
109.75
21
-77.25
0
LINE
8
0
10
109.75
20
-59.75
11
127.25
21
-59.75
0
LINE
8
0
10
127.25
20
-59.75
11
127.25
21
-43.25
0
LINE
8
0
10
127.25
20
-43.25
11
109.75
21
-43.25
0
LINE
8
0
10
109.75
20
-43.25
11
109.75
21
-59.75
0
LINE
8
0
10
128.25
20
-88.75
11
145.75
21
-88.75
0
LINE
8
0
10
145.75
20
-88.75
11
145.75
21
-72.25
0
LINE
8
0
10
145.75
20
-72.25
11
128.25
21
-72.25
0
LINE
8
0
10
128.25
20
-72.25
11
128.25
21
-88.75
0
LINE
8
0
10
128.25
20
-71.25
11
145.75
21
-71.25
0
LINE
8
0
10
145.75
20
-71.25
11
145.75
21
-54.75
0
LINE
8
0
10
145.75
20
-54.75
11
128.25
21
-54.75
0
LINE
8
0
10
128.25
20
-54.75
11
128.25
21
-71.25
0
LINE
8
0
10
128.25
20
-53.75
11
145.75
21
-53.75
0
LINE
8
0
10
145.75
20
-53.75
11
145.75
21
-37.25
0
LINE
8
0
10
145.75
20
-37.25
11
128.25
21
-37.25
0
LINE
8
0
10
128.25
20
-37.25
11
128.25
21
-53.75
0
LINE
8
0
10
146.75
20
-95.95
11
164.25
21
-95.95
0
LINE
8
0
10
164.25
20
-95.95
11
164.25
21
-79.45
0
LINE
8
0
10
164.25
20
-79.45
11
146.75
21
-79.45
0
LINE
8
0
10
146.75
20
-79.45
11
146.75
21
-95.95
0
LINE
8
0
10
146.75
20
-78.45
11
164.25
21
-78.45
0
LINE
8
0
10
164.25
20
-78.45
11
164.25
21
-61.95
0
LINE
8
0
10
164.25
20
-61.95
11
146.75
21
-61.95
0
LINE
8
0
10
146.75
20
-61.95
11
146.75
21
-78.45
0
LINE
8
0
10
146.75
20
-60.95
11
164.25
21
-60.95
0
LINE
8
0
10
164.25
20
-60.95
11
164.25
21
-49.2134615
0
LINE
8
0
10
157.1321839
20
-44.45
11
146.75
21
-44.45
0
LINE
8
0
10
146.75
20
-44.45
11
146.75
21
-60.95
0
LINE
8
0
10
165.25
20
-89.25
11
182.75
21
-89.25
0
LINE
8
0
10
182.75
20
-89.25
11
182.75
21
-72.75
0
LINE
8
0
10
182.75
20
-72.75
11
165.25
21
-72.75
0
LINE
8
0
10
165.25
20
-72.75
11
165.25
21
-89.25
0
LINE
8
0
10
153.6288653
20
-117.8423176
11
170.2723543
21
-123.250115
0
LINE
8
0
10
170.2723543
20
-123.250115
11
175.3711347
21
-107.5576824
0
LINE
8
0
10
175.3711347
20
-107.5576824
11
158.7276457
21
-102.149885
0
LINE
8
0
10
158.7276457
20
-102.149885
11
153.6288653
21
-117.8423176
0
LINE
8
0
10
170.8388
20
-123.5080099
11
185.8392278
21
-132.5211762
0
LINE
8
0
10
185.8392278
20
-132.5211762
11
194.337356
21
-118.3779157
0
LINE
8
0
10
194.337356
20
-118.3779157
11
179.3369282
21
-109.3647494
0
LINE
8
0
10
179.3369282
20
-109.3647494
11
170.8388
21
-123.5080099
0
ENDSEC
0
EOF