0
SECTION
2
HEADER
9
$INSUNITS
70
4
0
ENDSEC
0
SECTION
2
TABLES
0
TABLE
2
LTYPE
0
LTYPE
72
65
70
64
2
CONTINUOUS
3
______
73
0
40
0
0
ENDTAB
0
TABLE
2
LAYER
0
ENDTAB
0
ENDSEC
0
SECTION
2
ENTITIES
0
CIRCLE
8
0
10
96.9545275
20
-80.0904464
40
1
0
CIRCLE
8
0
10
240.6219463
20
-80.0904464
40
1
0
CIRCLE
8
0
10
77.8185005
20
-132.6662485
40
1
0
CIRCLE
8
0
10
259.7579733
20
-132.6662485
40
1
0
CIRCLE
8
0
10
131.7231545
20
-92.7451917
40
1
0
CIRCLE
8
0
10
205.8533193
20
-92.7451917
40
1
0
CIRCLE
8
0
10
112.5871275
20
-145.3209938
40
1
0
CIRCLE
8
0
10
224.9893463
20
-145.3209938
40
1
0
CIRCLE
8
0
10
81.7233925
20
-87.5829443
40
1
0
CIRCLE
8
0
10
255.8530813
20
-87.5829443
40
1
0
CIRCLE
8
0
10
68.7950311
20
-123.1033253
40
1
0
CIRCLE
8
0
10
268.7814427
20
-123.1033253
40
1
0
CIRCLE
8
0
10
130.7508309
20
-145.1213034
40
1
0
CIRCLE
8
0
10
206.8256429
20
-145.1213034
40
1
0
CIRCLE
8
0
10
117.6279968
20
-175.14964
40
1
0
CIRCLE
8
0
10
219.948477
20
-175.14964
40
1
0
CIRCLE
8
0
10
193.3203381
20
-108.7467347
40
1
0
CIRCLE
8
0
10
199.8187209
20
-126.6008945
40
1
0
LINE
8
0
10
56.9087822
20
-115.8505956
11
69.8765404
21
-120.5704736
0
LINE
8
0
10
69.8765404
20
-120.5704736
11
74.5964184
21
-107.6027154
0
LINE
8
0
10
74.5964184
20
-107.6027154
11
61.6286602
21
-102.8828374
0
LINE
8
0
10
61.6286602
20
-102.8828374
11
56.9087822
21
-115.8505956
0
LINE
8
0
10
62.8941347
20
-99.4059748
11
75.8618929
21
-104.1258528
0
LINE
8
0
10
75.8618929
20
-104.1258528
11
80.5817709
21
-91.1580946
0
LINE
8
0
10
80.5817709
20
-91.1580946
11
67.6140127
21
-86.4382166
0
LINE
8
0
10
67.6140127
20
-86.4382166
11
62.8941347
21
-99.4059748
0
LINE
8
0
10
72.9250151
20
-125.9367388
11
85.8927733
21
-130.6566168
0
LINE
8
0
10
85.8927733
20
-130.6566168
11
90.6126513
21
-117.6888586
0
LINE
8
0
10
90.6126513
20
-117.6888586
11
77.6448931
21
-112.9689806
0
LINE
8
0
10
77.6448931
20
-112.9689806
11
72.9250151
21
-125.9367388
0
LINE
8
0
10
78.9103676
20
-109.4921179
11
91.8781258
21
-114.2119959
0
LINE
8
0
10
91.8781258
20
-114.2119959
11
96.5980038
21
-101.2442377
0
LINE
8
0
10
96.5980038
20
-101.2442377
11
83.6302456
21
-96.5243597
0
LINE
8
0
10
83.6302456
20
-96.5243597
11
78.9103676
21
-109.4921179
0
LINE
8
0
10
84.8957201
20
-93.0474971
11
97.8634783
21
-97.7673751
0
LINE
8
0
10
97.8634783
20
-97.7673751
11
102.5833563
21
-84.7996169
0
LINE
8
0
10
102.5833563
20
-84.7996169
11
89.6155981
21
-80.0797389
0
LINE
8
0
10
89.6155981
20
-80.0797389
11
84.8957201
21
-93.0474971
0
LINE
8
0
10
92.3614494
20
-126.6259557
11
105.3292076
21
-131.3458337
0
LINE
8
0
10
105.3292076
20
-131.3458337
11
110.0490856
21
-118.3780755
0
LINE
8
0
10
110.0490856
20
-118.3780755
11
97.0813274
21
-113.6581975
0
LINE
8
0
10
97.0813274
20
-113.6581975
11
92.3614494
21
-126.6259557
0
LINE
8
0
10
98.3468019
20
-110.1813348
11
111.3145601
21
-114.9012128
0
LINE
8
0
10
111.3145601
20
-114.9012128
11
116.0344381
21
-101.9334546
0
LINE
8
0
10
116.0344381
20
-101.9334546
11
103.0666799
21
-97.2135766
0
LINE
8
0
10
103.0666799
20
-97.2135766
11
98.3468019
21
-110.1813348
0
LINE
8
0
10
104.3321544
20
-93.736714
11
117.2999126
21
-98.456592
0
LINE
8
0
10
117.2999126
20
-98.456592
11
122.0197906
21
-85.4888338
0
LINE
8
0
10
122.0197906
20
-85.4888338
11
109.0520324
21
-80.7689558
0
LINE
8
0
10
109.0520324
20
-80.7689558
11
104.3321544
21
-93.736714
0
LINE
8
0
10
107.2832179
20
-139.7191152
11
120.2509761
21
-144.4389932
0
LINE
8
0
10
120.2509761
20
-144.4389932
11
124.9708541
21
-131.471235
0
LINE
8
0
10
124.9708541
20
-131.471235
11
112.0030959
21
-126.751357
0
LINE
8
0
10
112.0030959
20
-126.751357
11
107.2832179
21
-139.7191152
0
LINE
8
0
10
113.2685704
20
-123.2744944
11
126.2363286
21
-127.9943724
0
LINE
8
0
10
126.2363286
20
-127.9943724
11
130.9562066
21
-115.0266142
0
LINE
8
0
10
130.9562066
20
-115.0266142
11
117.9884484
21
-110.3067362
0
LINE
8
0
10
117.9884484
20
-110.3067362
11
113.2685704
21
-123.2744944
0
LINE
8
0
10
119.2539229
20
-106.8298735
11
132.2216811
21
-111.5497515
0
LINE
8
0
10
132.2216811
20
-111.5497515
11
136.9415591
21
-98.5819933
0
LINE
8
0
10
136.9415591
20
-98.5819933
11
123.9738009
21
-93.8621153
0
LINE
8
0
10
123.9738009
20
-93.8621153
11
119.2539229
21
-106.8298735
0
LINE
8
0
10
126.9590663
20
-139.7505473
11
139.9268245
21
-144.4704253
0
LINE
8
0
10
139.9268245
20
-144.4704253
11
144.6467025
21
-131.5026671
0
LINE
8
0
10
144.6467025
20
-131.5026671
11
131.6789443
21
-126.7827891
0
LINE
8
0
10
131.6789443
20
-126.7827891
11
126.9590663
21
-139.7505473
0
LINE
8
0
10
267.6999334
20
-120.5704736
11
280.6676916
21
-115.8505956
0
LINE
8
0
10
280.6676916
20
-115.8505956
11
275.9478136
21
-102.8828374
0
LINE
8
0
10
275.9478136
20
-102.8828374
11
262.9800554
21
-107.6027154
0
LINE
8
0
10
262.9800554
20
-107.6027154
11
267.6999334
21
-120.5704736
0
LINE
8
0
10
261.7145809
20
-104.1258528
11
274.6823391
21
-99.4059748
0
LINE
8
0
10
274.6823391
20
-99.4059748
11
269.9624611
21
-86.4382166
0
LINE
8
0
10
269.9624611
20
-86.4382166
11
256.9947029
21
-91.1580946
0
LINE
8
0
10
256.9947029
20
-91.1580946
11
261.7145809
21
-104.1258528
0
LINE
8
0
10
251.6837005
20
-130.6566168
11
264.6514587
21
-125.9367388
0
LINE
8
0
10
264.6514587
20
-125.9367388
11
259.9315807
21
-112.9689806
0
LINE
8
0
10
259.9315807
20
-112.9689806
11
246.9638225
21
-117.6888586
0
LINE
8
0
10
246.9638225
20
-117.6888586
11
251.6837005
21
-130.6566168
0
LINE
8
0
10
245.698348
20
-114.2119959
11
258.6661062
21
-109.4921179
0
LINE
8
0
10
258.6661062
20
-109.4921179
11
253.9462282
21
-96.5243597
0
LINE
8
0
10
253.9462282
20
-96.5243597
11
240.97847
21
-101.2442377
0
LINE
8
0
10
240.97847
20
-101.2442377
11
245.698348
21
-114.2119959
0
LINE
8
0
10
239.7129955
20
-97.7673751
11
252.6807537
21
-93.0474971
0
LINE
8
0
10
252.6807537
20
-93.0474971
11
247.9608757
21
-80.0797389
0
LINE
8
0
10
247.9608757
20
-80.0797389
11
234.9931175
21
-84.7996169
0
LINE
8
0
10
234.9931175
20
-84.7996169
11
239.7129955
21
-97.7673751
0
LINE
8
0
10
232.2472662
20
-131.3458337
11
245.2150244
21
-126.6259557
0
LINE
8
0
10
245.2150244
20
-126.6259557
11
240.4951464
21
-113.6581975
0
LINE
8
0
10
240.4951464
20
-113.6581975
11
227.5273882
21
-118.3780755
0
LINE
8
0
10
227.5273882
20
-118.3780755
11
232.2472662
21
-131.3458337
0
LINE
8
0
10
226.2619137
20
-114.9012128
11
239.2296719
21
-110.1813348
0
LINE
8
0
10
239.2296719
20
-110.1813348
11
234.5097939
21
-97.2135766
0
LINE
8
0
10
234.5097939
20
-97.2135766
11
221.5420357
21
-101.9334546
0
LINE
8
0
10
221.5420357
20
-101.9334546
11
226.2619137
21
-114.9012128
0
LINE
8
0
10
220.2765612
20
-98.456592
11
233.2443194
21
-93.736714
0
LINE
8
0
10
233.2443194
20
-93.736714
11
228.5244414
21
-80.7689558
0
LINE
8
0
10
228.5244414
20
-80.7689558
11
215.5566832
21
-85.4888338
0
LINE
8
0
10
215.5566832
20
-85.4888338
11
220.2765612
21
-98.456592
0
LINE
8
0
10
217.3254977
20
-144.4389932
11
230.2932559
21
-139.7191152
0
LINE
8
0
10
230.2932559
20
-139.7191152
11
225.5733779
21
-126.751357
0
LINE
8
0
10
225.5733779
20
-126.751357
11
212.6056197
21
-131.471235
0
LINE
8
0
10
212.6056197
20
-131.471235
11
217.3254977
21
-144.4389932
0
LINE
8
0
10
211.3401452
20
-127.9943724
11
224.3079034
21
-123.2744944
0
LINE
8
0
10
224.3079034
20
-123.2744944
11
219.5880254
21
-110.3067362
0
LINE
8
0
10
219.5880254
20
-110.3067362
11
206.6202672
21
-115.0266142
0
LINE
8
0
10
206.6202672
20
-115.0266142
11
211.3401452
21
-127.9943724
0
LINE
8
0
10
205.3547927
20
-111.5497515
11
218.3225509
21
-106.8298735
0
LINE
8
0
10
218.3225509
20
-106.8298735
11
213.6026729
21
-93.8621153
0
LINE
8
0
10
213.6026729
20
-93.8621153
11
200.6349147
21
-98.5819933
0
LINE
8
0
10
200.6349147
20
-98.5819933
11
205.3547927
21
-111.5497515
0
LINE
8
0
10
197.6496493
20
-144.4704253
11
210.6174075
21
-139.7505473
0
LINE
8
0
10
210.6174075
20
-139.7505473
11
205.8975295
21
-126.7827891
0
LINE
8
0
10
205.8975295
20
-126.7827891
11
192.9297713
21
-131.5026671
0
LINE
8
0
10
192.9297713
20
-131.5026671
11
197.6496493
21
-144.4704253
0
LINE
8
0
10
106.3484276
20
-163.3548819
11
117.222976
21
-171.8510103
0
LINE
8
0
10
117.222976
20
-171.8510103
11
125.7191044
21
-160.9764619
0
LINE
8
0
10
125.7191044
20
-160.9764619
11
114.844556
21
-152.4803335
0
LINE
8
0
10
114.844556
20
-152.4803335
11
106.3484276
21
-163.3548819
0
LINE
8
0
10
120.5071222
20
-175.0780138
11
129.1917436
21
-185.802628
0
LINE
8
0
10
129.1917436
20
-185.802628
11
139.9163578
21
-177.1180066
0
LINE
8
0
10
139.9163578
20
-177.1180066
11
131.2317364
21
-166.3933924
0
LINE
8
0
10
131.2317364
20
-166.3933924
11
120.5071222
21
-175.0780138
0
LINE
8
0
10
220.3534978
20
-171.8510103
11
231.2280462
21
-163.3548819
0
LINE
8
0
10
231.2280462
20
-163.3548819
11
222.7319178
21
-152.4803335
0
LINE
8
0
10
222.7319178
20
-152.4803335
11
211.8573694
21
-160.9764619
0
LINE
8
0
10
211.8573694
20
-160.9764619
11
220.3534978
21
-171.8510103
0
LINE
8
0
10
208.3847302
20
-185.802628
11
217.0693516
21
-175.0780138
0
LINE
8
0
10
217.0693516
20
-175.0780138
11
206.3447374
21
-166.3933924
0
LINE
8
0
10
206.3447374
20
-166.3933924
11
197.660116
21
-177.1180066
0
LINE
8
0
10
197.660116
20
-177.1180066
11
208.3847302
21
-185.802628
0
LINE
8
0
10
163.6996078
20
-144.9230369
11
174.4996078
21
-144.9230369
0
LINE
8
0
10
174.4996078
20
-144.9230369
11
174.4996078
21
-119.6230369
0
LINE
8
0
10
174.4996078
20
-119.6230369
11
163.6996078
21
-119.6230369
0
LINE
8
0
10
163.6996078
20
-119.6230369
11
163.6996078
21
-144.9230369
0
ENDSEC
0
EOF