0
SECTION
2
HEADER
9
$INSUNITS
70
4
0
ENDSEC
0
SECTION
2
TABLES
0
TABLE
2
LTYPE
0
LTYPE
72
65
70
64
2
CONTINUOUS
3
______
73
0
40
0
0
ENDTAB
0
TABLE
2
LAYER
0
ENDTAB
0
ENDSEC
0
SECTION
2
ENTITIES
0
LINE
8
0
10
51.82477
20
-117.8312064
11
69.2090835
21
-124.1585791
0
LINE
8
0
10
51.82477
20
-117.8312064
11
64.9925455
21
-81.6530406
0
LINE
8
0
10
72.9799327
20
-84.5602118
11
64.9925455
21
-81.6530406
0
LINE
8
0
10
67.8410029
20
-127.9173496
11
97.9111667
21
-138.8619942
0
LINE
8
0
10
69.2090835
20
-124.1585791
11
67.8410029
21
-127.9173496
0
LINE
8
0
10
99.9632876
20
-133.2238385
11
97.9111667
21
-138.8619942
0
LINE
8
0
10
75.0320536
20
-78.9220561
11
84.4289798
21
-82.3422575
0
LINE
8
0
10
72.9799327
20
-84.5602118
11
75.0320536
21
-78.9220561
0
LINE
8
0
10
94.9815181
20
-78.2017341
11
86.9941309
21
-75.2945629
0
LINE
8
0
10
86.9941309
20
-75.2945629
11
84.4289798
21
-82.3422575
0
LINE
8
0
10
99.9632876
20
-133.2238385
11
104.6617507
21
-134.9339392
0
LINE
8
0
10
124.6412578
20
-90.2740098
11
127.1038028
21
-83.508223
0
LINE
8
0
10
97.033639
20
-72.5635784
11
127.1038028
21
-83.508223
0
LINE
8
0
10
94.9815181
20
-78.2017341
11
97.033639
21
-72.5635784
0
LINE
8
0
10
102.1992057
20
-141.699726
11
122.8724433
21
-149.2241692
0
LINE
8
0
10
122.8724433
20
-149.2241692
11
125.1639783
21
-142.9282286
0
LINE
8
0
10
104.6617507
20
-134.9339392
11
102.1992057
21
-141.699726
0
LINE
8
0
10
132.3464013
20
-123.1946836
11
142.0255713
21
-96.6013825
0
LINE
8
0
10
124.6412578
20
-90.2740098
11
142.0255713
21
-96.6013825
0
LINE
8
0
10
125.1639783
20
-142.9282286
11
142.5482917
21
-149.2556013
0
LINE
8
0
10
142.5482917
20
-149.2556013
11
149.7307147
21
-129.5220563
0
LINE
8
0
10
149.7307147
20
-129.5220563
11
132.3464013
21
-123.1946836
0
LINE
8
0
10
268.3673903
20
-124.1585791
11
285.7517038
21
-117.8312064
0
LINE
8
0
10
272.5839283
20
-81.6530406
11
285.7517038
21
-117.8312064
0
LINE
8
0
10
272.5839283
20
-81.6530406
11
264.5965411
21
-84.5602118
0
LINE
8
0
10
239.6653071
20
-138.8619942
11
269.7354709
21
-127.9173496
0
LINE
8
0
10
269.7354709
20
-127.9173496
11
268.3673903
21
-124.1585791
0
LINE
8
0
10
239.6653071
20
-138.8619942
11
237.6131862
21
-133.2238385
0
LINE
8
0
10
253.147494
20
-82.3422575
11
262.5444202
21
-78.9220561
0
LINE
8
0
10
262.5444202
20
-78.9220561
11
264.5965411
21
-84.5602118
0
LINE
8
0
10
253.147494
20
-82.3422575
11
250.5823429
21
-75.2945629
0
LINE
8
0
10
250.5823429
20
-75.2945629
11
242.5949557
21
-78.2017341
0
LINE
8
0
10
232.9147231
20
-134.9339392
11
237.6131862
21
-133.2238385
0
LINE
8
0
10
210.472671
20
-83.508223
11
240.5428348
21
-72.5635784
0
LINE
8
0
10
210.472671
20
-83.508223
11
212.935216
21
-90.2740098
0
LINE
8
0
10
240.5428348
20
-72.5635784
11
242.5949557
21
-78.2017341
0
LINE
8
0
10
214.7040305
20
-149.2241692
11
235.3772681
21
-141.699726
0
LINE
8
0
10
235.3772681
20
-141.699726
11
232.9147231
21
-134.9339392
0
LINE
8
0
10
212.4124955
20
-142.9282286
11
214.7040305
21
-149.2241692
0
LINE
8
0
10
195.5509025
20
-96.6013825
11
205.2300725
21
-123.1946836
0
LINE
8
0
10
195.5509025
20
-96.6013825
11
212.935216
21
-90.2740098
0
LINE
8
0
10
195.0281821
20
-149.2556013
11
212.4124955
21
-142.9282286
0
LINE
8
0
10
205.2300725
20
-123.1946836
11
187.8457591
21
-129.5220563
0
LINE
8
0
10
187.8457591
20
-129.5220563
11
195.0281821
21
-149.2556013
0
LINE
8
0
10
100.9012022
20
-163.6675086
11
116.5100051
21
-175.8624419
0
LINE
8
0
10
130.088376
20
-162.0435532
11
131.1663298
21
-160.6638352
0
LINE
8
0
10
131.1663298
20
-160.6638352
11
113.8300932
21
-147.1192828
0
LINE
8
0
10
113.8300932
20
-147.1192828
11
100.9012022
21
-163.6675086
0
LINE
8
0
10
116.5100051
20
-175.8624419
11
128.9742317
21
-191.2544799
0
LINE
8
0
10
128.9742317
20
-191.2544799
11
145.2942969
21
-178.0387517
0
LINE
8
0
10
145.2942969
20
-178.0387517
11
131.4492483
21
-160.9415405
0
LINE
8
0
10
131.4492483
20
-160.9415405
11
130.088376
21
-162.0435532
0
LINE
8
0
10
221.0664687
20
-175.8624419
11
236.6752716
21
-163.6675086
0
LINE
8
0
10
236.6752716
20
-163.6675086
11
223.7463806
21
-147.1192828
0
LINE
8
0
10
223.7463806
20
-147.1192828
11
206.410144
21
-160.6638352
0
LINE
8
0
10
206.410144
20
-160.6638352
11
207.4880978
21
-162.0435532
0
LINE
8
0
10
208.6022421
20
-191.2544799
11
221.0664687
21
-175.8624419
0
LINE
8
0
10
207.4880978
20
-162.0435532
11
206.1272255
21
-160.9415405
0
LINE
8
0
10
206.1272255
20
-160.9415405
11
192.2821769
21
-178.0387517
0
LINE
8
0
10
192.2821769
20
-178.0387517
11
208.6022421
21
-191.2544799
0
LINE
8
0
10
54.7086237
20
-116.4864434
11
71.1532445
21
-122.4717959
0
LINE
8
0
10
71.1532445
20
-122.4717959
11
76.7965769
21
-106.9668676
0
LINE
8
0
10
76.7965769
20
-106.9668676
11
60.3519561
21
-100.9815151
0
LINE
8
0
10
60.3519561
20
-100.9815151
11
54.7086237
21
-116.4864434
0
LINE
8
0
10
60.6939762
20
-100.0418226
11
77.138597
21
-106.0271751
0
LINE
8
0
10
77.138597
20
-106.0271751
11
82.7819294
21
-90.5222468
0
LINE
8
0
10
82.7819294
20
-90.5222468
11
66.3373086
21
-84.5368943
0
LINE
8
0
10
66.3373086
20
-84.5368943
11
60.6939762
21
-100.0418226
0
LINE
8
0
10
70.7248566
20
-126.5725866
11
87.1694774
21
-132.5579391
0
LINE
8
0
10
87.1694774
20
-132.5579391
11
92.8128098
21
-117.0530108
0
LINE
8
0
10
92.8128098
20
-117.0530108
11
76.368189
21
-111.0676583
0
LINE
8
0
10
76.368189
20
-111.0676583
11
70.7248566
21
-126.5725866
0
LINE
8
0
10
76.7102091
20
-110.1279657
11
93.1548299
21
-116.1133182
0
LINE
8
0
10
93.1548299
20
-116.1133182
11
98.7981623
21
-100.6083899
0
LINE
8
0
10
98.7981623
20
-100.6083899
11
82.3535415
21
-94.6230374
0
LINE
8
0
10
82.3535415
20
-94.6230374
11
76.7102091
21
-110.1279657
0
LINE
8
0
10
82.6955616
20
-93.6833449
11
99.1401824
21
-99.6686974
0
LINE
8
0
10
99.1401824
20
-99.6686974
11
104.7835148
21
-84.1637691
0
LINE
8
0
10
104.7835148
20
-84.1637691
11
88.338894
21
-78.1784166
0
LINE
8
0
10
88.338894
20
-78.1784166
11
82.6955616
21
-93.6833449
0
LINE
8
0
10
90.1612909
20
-127.2618035
11
106.6059117
21
-133.247156
0
LINE
8
0
10
106.6059117
20
-133.247156
11
112.2492441
21
-117.7422277
0
LINE
8
0
10
112.2492441
20
-117.7422277
11
95.8046233
21
-111.7568752
0
LINE
8
0
10
95.8046233
20
-111.7568752
11
90.1612909
21
-127.2618035
0
LINE
8
0
10
96.1466434
20
-110.8171826
11
112.5912642
21
-116.8025351
0
LINE
8
0
10
112.5912642
20
-116.8025351
11
118.2345966
21
-101.2976068
0
LINE
8
0
10
118.2345966
20
-101.2976068
11
101.7899758
21
-95.3122543
0
LINE
8
0
10
101.7899758
20
-95.3122543
11
96.1466434
21
-110.8171826
0
LINE
8
0
10
102.1319959
20
-94.3725618
11
118.5766167
21
-100.3579143
0
LINE
8
0
10
118.5766167
20
-100.3579143
11
124.2199491
21
-84.852986
0
LINE
8
0
10
124.2199491
20
-84.852986
11
107.7753283
21
-78.8676335
0
LINE
8
0
10
107.7753283
20
-78.8676335
11
102.1319959
21
-94.3725618
0
LINE
8
0
10
105.0830594
20
-140.354963
11
121.5276802
21
-146.3403155
0
LINE
8
0
10
121.5276802
20
-146.3403155
11
127.1710126
21
-130.8353872
0
LINE
8
0
10
127.1710126
20
-130.8353872
11
110.7263918
21
-124.8500347
0
LINE
8
0
10
110.7263918
20
-124.8500347
11
105.0830594
21
-140.354963
0
LINE
8
0
10
111.0684119
20
-123.9103422
11
127.5130327
21
-129.8956947
0
LINE
8
0
10
127.5130327
20
-129.8956947
11
133.1563651
21
-114.3907664
0
LINE
8
0
10
133.1563651
20
-114.3907664
11
116.7117443
21
-108.4054139
0
LINE
8
0
10
116.7117443
20
-108.4054139
11
111.0684119
21
-123.9103422
0
LINE
8
0
10
117.0537644
20
-107.4657213
11
133.4983852
21
-113.4510738
0
LINE
8
0
10
133.4983852
20
-113.4510738
11
139.1417176
21
-97.9461455
0
LINE
8
0
10
139.1417176
20
-97.9461455
11
122.6970968
21
-91.960793
0
LINE
8
0
10
122.6970968
20
-91.960793
11
117.0537644
21
-107.4657213
0
LINE
8
0
10
124.7589078
20
-140.3863951
11
141.2035286
21
-146.3717476
0
LINE
8
0
10
141.2035286
20
-146.3717476
11
146.846861
21
-130.8668193
0
LINE
8
0
10
146.846861
20
-130.8668193
11
130.4022402
21
-124.8814668
0
LINE
8
0
10
130.4022402
20
-124.8814668
11
124.7589078
21
-140.3863951
0
LINE
8
0
10
266.4232293
20
-122.4717959
11
282.8678501
21
-116.4864434
0
LINE
8
0
10
282.8678501
20
-116.4864434
11
277.2245177
21
-100.9815151
0
LINE
8
0
10
277.2245177
20
-100.9815151
11
260.7798969
21
-106.9668676
0
LINE
8
0
10
260.7798969
20
-106.9668676
11
266.4232293
21
-122.4717959
0
LINE
8
0
10
260.4378768
20
-106.0271751
11
276.8824976
21
-100.0418226
0
LINE
8
0
10
276.8824976
20
-100.0418226
11
271.2391652
21
-84.5368943
0
LINE
8
0
10
271.2391652
20
-84.5368943
11
254.7945444
21
-90.5222468
0
LINE
8
0
10
254.7945444
20
-90.5222468
11
260.4378768
21
-106.0271751
0
LINE
8
0
10
250.4069964
20
-132.5579391
11
266.8516172
21
-126.5725866
0
LINE
8
0
10
266.8516172
20
-126.5725866
11
261.2082848
21
-111.0676583
0
LINE
8
0
10
261.2082848
20
-111.0676583
11
244.763664
21
-117.0530108
0
LINE
8
0
10
244.763664
20
-117.0530108
11
250.4069964
21
-132.5579391
0
LINE
8
0
10
244.4216439
20
-116.1133182
11
260.8662647
21
-110.1279657
0
LINE
8
0
10
260.8662647
20
-110.1279657
11
255.2229323
21
-94.6230374
0
LINE
8
0
10
255.2229323
20
-94.6230374
11
238.7783115
21
-100.6083899
0
LINE
8
0
10
238.7783115
20
-100.6083899
11
244.4216439
21
-116.1133182
0
LINE
8
0
10
238.4362914
20
-99.6686974
11
254.8809122
21
-93.6833449
0
LINE
8
0
10
254.8809122
20
-93.6833449
11
249.2375798
21
-78.1784166
0
LINE
8
0
10
249.2375798
20
-78.1784166
11
232.792959
21
-84.1637691
0
LINE
8
0
10
232.792959
20
-84.1637691
11
238.4362914
21
-99.6686974
0
LINE
8
0
10
230.9705621
20
-133.247156
11
247.4151829
21
-127.2618035
0
LINE
8
0
10
247.4151829
20
-127.2618035
11
241.7718505
21
-111.7568752
0
LINE
8
0
10
241.7718505
20
-111.7568752
11
225.3272297
21
-117.7422277
0
LINE
8
0
10
225.3272297
20
-117.7422277
11
230.9705621
21
-133.247156
0
LINE
8
0
10
224.9852096
20
-116.8025351
11
241.4298304
21
-110.8171826
0
LINE
8
0
10
241.4298304
20
-110.8171826
11
235.786498
21
-95.3122543
0
LINE
8
0
10
235.786498
20
-95.3122543
11
219.3418772
21
-101.2976068
0
LINE
8
0
10
219.3418772
20
-101.2976068
11
224.9852096
21
-116.8025351
0
LINE
8
0
10
218.9998571
20
-100.3579143
11
235.4444779
21
-94.3725618
0
LINE
8
0
10
235.4444779
20
-94.3725618
11
229.8011455
21
-78.8676335
0
LINE
8
0
10
229.8011455
20
-78.8676335
11
213.3565247
21
-84.852986
0
LINE
8
0
10
213.3565247
20
-84.852986
11
218.9998571
21
-100.3579143
0
LINE
8
0
10
216.0487936
20
-146.3403155
11
232.4934144
21
-140.354963
0
LINE
8
0
10
232.4934144
20
-140.354963
11
226.850082
21
-124.8500347
0
LINE
8
0
10
226.850082
20
-124.8500347
11
210.4054612
21
-130.8353872
0
LINE
8
0
10
210.4054612
20
-130.8353872
11
216.0487936
21
-146.3403155
0
LINE
8
0
10
210.0634411
20
-129.8956947
11
226.5080619
21
-123.9103422
0
LINE
8
0
10
226.5080619
20
-123.9103422
11
220.8647295
21
-108.4054139
0
LINE
8
0
10
220.8647295
20
-108.4054139
11
204.4201087
21
-114.3907664
0
LINE
8
0
10
204.4201087
20
-114.3907664
11
210.0634411
21
-129.8956947
0
LINE
8
0
10
204.0780886
20
-113.4510738
11
220.5227094
21
-107.4657213
0
LINE
8
0
10
220.5227094
20
-107.4657213
11
214.879377
21
-91.960793
0
LINE
8
0
10
214.879377
20
-91.960793
11
198.4347562
21
-97.9461455
0
LINE
8
0
10
198.4347562
20
-97.9461455
11
204.0780886
21
-113.4510738
0
LINE
8
0
10
196.3729452
20
-146.3717476
11
212.817566
21
-140.3863951
0
LINE
8
0
10
212.817566
20
-140.3863951
11
207.1742336
21
-124.8814668
0
LINE
8
0
10
207.1742336
20
-124.8814668
11
190.7296128
21
-130.8668193
0
LINE
8
0
10
190.7296128
20
-130.8668193
11
196.3729452
21
-146.3717476
0
LINE
8
0
10
104.0594647
20
-163.2797227
11
117.8496529
21
-174.0537985
0
LINE
8
0
10
117.8496529
20
-174.0537985
11
128.0080673
21
-161.0516211
0
LINE
8
0
10
128.0080673
20
-161.0516211
11
114.2178791
21
-150.2775453
0
LINE
8
0
10
114.2178791
20
-150.2775453
11
104.0594647
21
-163.2797227
0
LINE
8
0
10
118.2937324
20
-174.4898763
11
129.3068392
21
-188.0899306
0
LINE
8
0
10
129.3068392
20
-188.0899306
11
142.1297476
21
-177.7061441
0
LINE
8
0
10
142.1297476
20
-177.7061441
11
131.1166408
21
-164.1060898
0
LINE
8
0
10
131.1166408
20
-164.1060898
11
118.2937324
21
-174.4898763
0
LINE
8
0
10
219.7268209
20
-174.0537985
11
233.5170091
21
-163.2797227
0
LINE
8
0
10
233.5170091
20
-163.2797227
11
223.3585947
21
-150.2775453
0
LINE
8
0
10
223.3585947
20
-150.2775453
11
209.5684065
21
-161.0516211
0
LINE
8
0
10
209.5684065
20
-161.0516211
11
219.7268209
21
-174.0537985
0
LINE
8
0
10
208.2696346
20
-188.0899306
11
219.2827414
21
-174.4898763
0
LINE
8
0
10
219.2827414
20
-174.4898763
11
206.459833
21
-164.1060898
0
LINE
8
0
10
206.459833
20
-164.1060898
11
195.4467262
21
-177.7061441
0
LINE
8
0
10
195.4467262
20
-177.7061441
11
208.2696346
21
-188.0899306
0
LINE
8
0
10
190.6332089
20
-178.5673808
11
146.9432649
21
-178.5673808
0
LINE
8
0
10
124.8385312
20
-187.3021336
11
55.4107272
21
-120.9523757
0
LINE
8
0
10
53.7935706
20
-114.0300635
11
63.6454128
21
-86.9623496
0
LINE
8
0
10
68.1714702
20
-82.8809223
11
87.296877
21
-78.08196
0
LINE
8
0
10
89.1091674
20
-77.8906007
11
106.5988515
21
-78.5107858
0
LINE
8
0
10
108.5916365
20
-78.898701
11
123.3936843
21
-84.2862058
0
LINE
8
0
10
125.4576189
20
-85.5084048
11
138.9946961
21
-97.386562
0
LINE
8
0
10
139.8433418
20
-98.2880868
11
147.2891311
21
-107.8856648
0
LINE
8
0
10
152.4248421
20
-110.4013866
11
185.1516317
21
-110.4013866
0
LINE
8
0
10
190.2873427
20
-107.8856648
11
197.3745615
21
-98.7502821
0
LINE
8
0
10
199.1470846
20
-97.1722795
11
229.9505637
21
-78.5472053
0
LINE
8
0
10
229.9505637
20
-78.5472053
11
213.0360965
21
-84.7035679
0
LINE
8
0
10
213.0360965
20
-84.7035679
11
247.9854363
21
-78.1219296
0
LINE
8
0
10
250.7703126
20
-78.2050908
11
269.4050036
21
-82.8809223
0
LINE
8
0
10
273.931061
20
-86.9623496
11
283.7829032
21
-114.0300635
0
LINE
8
0
10
282.1657466
20
-120.9523757
11
212.7379426
21
-187.3021336
0
ARC
8
0
10
146.9432649
20
-185.0673808
40
6.5
50
90
51
128.999999
0
ARC
8
0
10
129.3293767
20
-182.6029521
40
6.5
50
226.2986613
51
308.999999
0
ARC
8
0
10
59.9015727
20
-116.2531942
40
6.5
50
160.0000019
51
226.2986613
0
ARC
8
0
10
69.7534149
20
-89.1854803
40
6.5
50
104.0858865
51
160.0000019
0
ARC
8
0
10
88.8788217
20
-84.386518
40
6.5
50
87.9691384
51
104.0858865
0
ARC
8
0
10
106.3685058
20
-85.006703
40
6.5
50
70.0000019
51
87.9691384
0
ARC
8
0
10
121.1705536
20
-90.3942079
40
6.5
50
48.7345517
51
70.0000019
0
ARC
8
0
10
134.7076309
20
-102.272365
40
6.5
50
37.8042659
51
48.7345517
0
ARC
8
0
10
152.4248421
20
-103.9013866
40
6.5
50
217.8042659
51
270
0
ARC
8
0
10
185.1516317
20
-103.9013866
40
6.5
50
270
51
322.1957341
0
ARC
8
0
10
202.5102724
20
-102.7345603
40
6.5
50
121.158914
51
142.1957341
0
ARC
8
0
10
249.1883679
20
-84.5096488
40
6.5
50
75.9141135
51
100.6650039
0
ARC
8
0
10
267.8230589
20
-89.1854803
40
6.5
50
19.9999981
51
75.9141135
0
ARC
8
0
10
277.6749011
20
-116.2531942
40
6.5
50
313.7013387
51
19.9999981
0
ARC
8
0
10
208.2470971
20
-182.6029521
40
6.5
50
231.000001
51
313.7013387
0
ARC
8
0
10
190.6332089
20
-185.0673808
40
6.5
50
51.000001
51
90
0
ENDSEC
0
EOF