0
SECTION
2
HEADER
9
$INSUNITS
70
4
0
ENDSEC
0
SECTION
2
TABLES
0
TABLE
2
LTYPE
0
LTYPE
72
65
70
64
2
CONTINUOUS
3
______
73
0
40
0
0
ENDTAB
0
TABLE
2
LAYER
0
ENDTAB
0
ENDSEC
0
SECTION
2
ENTITIES
0
LINE
8
0
10
190.6332089
20
-178.5673808
11
146.9432649
21
-178.5673808
0
LINE
8
0
10
142.8526825
20
-180.015932
11
133.4199591
21
-187.6544008
0
LINE
8
0
10
124.8385312
20
-187.3021336
11
55.4107271
21
-120.9523756
0
LINE
8
0
10
53.7935706
20
-114.0300635
11
63.6454128
21
-86.9623496
0
LINE
8
0
10
156.3204995
20
-110.4013866
11
181.2559743
21
-110.4013866
0
LINE
8
0
10
273.931061
20
-86.9623496
11
283.7829032
21
-114.0300635
0
LINE
8
0
10
282.1657467
20
-120.9523756
11
212.7379426
21
-187.3021336
0
LINE
8
0
10
204.1565147
20
-187.6544008
11
194.7237913
21
-180.015932
0
ARC
8
0
10
146.9432649
20
-185.0673808
40
6.5
50
90
51
128.999999
0
ARC
8
0
10
129.3293767
20
-182.6029521
40
6.5
50
226.2986613
51
308.999999
0
ARC
8
0
10
59.9015727
20
-116.2531942
40
6.5
50
160.0000019
51
226.2986593
0
ARC
8
0
10
69.7534149
20
-89.1854803
40
6.5
50
157.7525078
51
160.0000019
0
ARC
8
0
10
267.8230589
20
-89.1854803
40
6.5
50
19.9999981
51
22.2474922
0
ARC
8
0
10
277.6749011
20
-116.2531942
40
6.5
50
313.7013407
51
19.9999981
0
ARC
8
0
10
208.2470971
20
-182.6029521
40
6.5
50
231.000001
51
313.7013387
0
ARC
8
0
10
190.6332089
20
-185.0673808
40
6.5
50
51.000001
51
90
0
LINE
8
0
10
65.1184234
20
-82.9299052
11
63.7372939
21
-86.7245276
0
ARC
8
0
10
94.8338482
20
-144.3930529
40
69
50
30.6886753
51
114.3004616
0
LINE
8
0
10
273.8391799
20
-86.7245276
11
272.4580504
21
-82.9299052
0
ARC
8
0
10
242.7426256
20
-144.3930529
40
69
50
65.6995384
51
149.3113247
0
ARC
8
0
10
57.1379754
20
-119.1449981
40
2.5
50
226.2986593
51
226.2986613
0
ARC
8
0
10
67.4676551
20
-83.7849555
40
2.5
50
114.3004616
51
160.0000019
0
ARC
8
0
10
156.3204995
20
-107.9013866
40
2.5
50
210.6886753
51
270
0
ARC
8
0
10
181.2559743
20
-107.9013866
40
2.5
50
270
51
329.3113247
0
ARC
8
0
10
270.1088187
20
-83.7849555
40
2.5
50
19.9999981
51
65.6995384
0
ARC
8
0
10
280.4384984
20
-119.1449981
40
2.5
50
313.7013387
51
313.7013407
0
LINE
8
0
10
54.7086237
20
-116.4864434
11
71.1532445
21
-122.4717959
0
LINE
8
0
10
71.1532445
20
-122.4717959
11
76.7965769
21
-106.9668676
0
LINE
8
0
10
76.7965769
20
-106.9668676
11
60.3519561
21
-100.9815151
0
LINE
8
0
10
60.3519561
20
-100.9815151
11
54.7086237
21
-116.4864434
0
LINE
8
0
10
60.6939762
20
-100.0418226
11
77.138597
21
-106.0271751
0
LINE
8
0
10
77.138597
20
-106.0271751
11
82.7819294
21
-90.5222468
0
LINE
8
0
10
82.7819294
20
-90.5222468
11
66.3373086
21
-84.5368943
0
LINE
8
0
10
66.3373086
20
-84.5368943
11
60.6939762
21
-100.0418226
0
LINE
8
0
10
70.4899334
20
-126.4870814
11
126.8714906
21
-147.00829
0
LINE
8
0
10
87.1694774
20
-132.5579391
11
92.8128098
21
-117.0530108
0
LINE
8
0
10
92.8128098
20
-117.0530108
11
76.368189
21
-111.0676583
0
LINE
8
0
10
76.368189
20
-111.0676583
11
70.7248566
21
-126.5725866
0
LINE
8
0
10
76.7102091
20
-110.1279657
11
93.1548299
21
-116.1133182
0
LINE
8
0
10
93.1548299
20
-116.1133182
11
98.7981623
21
-100.6083899
0
LINE
8
0
10
98.7981623
20
-100.6083899
11
82.3535415
21
-94.6230374
0
LINE
8
0
10
82.3535415
20
-94.6230374
11
76.7102091
21
-110.1279657
0
LINE
8
0
10
82.6955616
20
-93.6833449
11
99.1401824
21
-99.6686974
0
LINE
8
0
10
99.1401824
20
-99.6686974
11
104.7835148
21
-84.1637691
0
LINE
8
0
10
104.7835148
20
-84.1637691
11
88.338894
21
-78.1784166
0
LINE
8
0
10
88.338894
20
-78.1784166
11
82.6955616
21
-93.6833449
0
LINE
8
0
10
90.1612909
20
-127.2618035
11
106.6059117
21
-133.247156
0
LINE
8
0
10
106.6059117
20
-133.247156
11
112.2492441
21
-117.7422277
0
LINE
8
0
10
112.2492441
20
-117.7422277
11
95.8046233
21
-111.7568752
0
LINE
8
0
10
95.8046233
20
-111.7568752
11
90.1612909
21
-127.2618035
0
LINE
8
0
10
96.1466434
20
-110.8171826
11
112.5912642
21
-116.8025351
0
LINE
8
0
10
112.5912642
20
-116.8025351
11
118.2345966
21
-101.2976068
0
LINE
8
0
10
118.2345966
20
-101.2976068
11
101.7899758
21
-95.3122543
0
LINE
8
0
10
101.7899758
20
-95.3122543
11
96.1466434
21
-110.8171826
0
LINE
8
0
10
102.1319959
20
-94.3725618
11
118.5766167
21
-100.3579143
0
LINE
8
0
10
118.5766167
20
-100.3579143
11
124.2199491
21
-84.852986
0
LINE
8
0
10
124.2199491
20
-84.852986
11
107.7753283
21
-78.8676335
0
LINE
8
0
10
107.7753283
20
-78.8676335
11
102.1319959
21
-94.3725618
0
LINE
8
0
10
105.0830594
20
-140.354963
11
121.5276802
21
-146.3403155
0
LINE
8
0
10
121.5276802
20
-146.3403155
11
127.1710126
21
-130.8353872
0
LINE
8
0
10
127.1710126
20
-130.8353872
11
110.7263918
21
-124.8500347
0
LINE
8
0
10
110.7263918
20
-124.8500347
11
105.0830594
21
-140.354963
0
LINE
8
0
10
111.0684119
20
-123.9103422
11
127.5130327
21
-129.8956947
0
LINE
8
0
10
127.5130327
20
-129.8956947
11
133.1563651
21
-114.3907664
0
LINE
8
0
10
133.1563651
20
-114.3907664
11
116.7117443
21
-108.4054139
0
LINE
8
0
10
116.7117443
20
-108.4054139
11
111.0684119
21
-123.9103422
0
LINE
8
0
10
117.0537644
20
-107.4657213
11
133.4983852
21
-113.4510738
0
LINE
8
0
10
133.4983852
20
-113.4510738
11
139.1417176
21
-97.9461455
0
LINE
8
0
10
139.1417176
20
-97.9461455
11
122.6970968
21
-91.960793
0
LINE
8
0
10
122.6970968
20
-91.960793
11
117.0537644
21
-107.4657213
0
LINE
8
0
10
124.7589078
20
-140.3863951
11
141.2035286
21
-146.3717476
0
LINE
8
0
10
141.2035286
20
-146.3717476
11
146.846861
21
-130.8668193
0
LINE
8
0
10
146.846861
20
-130.8668193
11
130.4022402
21
-124.8814668
0
LINE
8
0
10
130.4022402
20
-124.8814668
11
124.7589078
21
-140.3863951
0
LINE
8
0
10
266.4232293
20
-122.4717959
11
282.8678501
21
-116.4864434
0
LINE
8
0
10
282.8678501
20
-116.4864434
11
277.2245177
21
-100.9815151
0
LINE
8
0
10
277.2245177
20
-100.9815151
11
260.7798969
21
-106.9668676
0
LINE
8
0
10
260.7798969
20
-106.9668676
11
266.4232293
21
-122.4717959
0
LINE
8
0
10
260.4378768
20
-106.0271751
11
276.8824976
21
-100.0418226
0
LINE
8
0
10
276.8824976
20
-100.0418226
11
271.2391652
21
-84.5368943
0
LINE
8
0
10
271.2391652
20
-84.5368943
11
254.7945444
21
-90.5222468
0
LINE
8
0
10
254.7945444
20
-90.5222468
11
260.4378768
21
-106.0271751
0
LINE
8
0
10
250.4069964
20
-132.5579391
11
266.8516172
21
-126.5725866
0
LINE
8
0
10
266.8516172
20
-126.5725866
11
261.2082848
21
-111.0676583
0
LINE
8
0
10
261.2082848
20
-111.0676583
11
244.763664
21
-117.0530108
0
LINE
8
0
10
244.763664
20
-117.0530108
11
250.4069964
21
-132.5579391
0
LINE
8
0
10
244.4216439
20
-116.1133182
11
260.8662647
21
-110.1279657
0
LINE
8
0
10
260.8662647
20
-110.1279657
11
255.2229323
21
-94.6230374
0
LINE
8
0
10
255.2229323
20
-94.6230374
11
238.7783115
21
-100.6083899
0
LINE
8
0
10
238.7783115
20
-100.6083899
11
244.4216439
21
-116.1133182
0
LINE
8
0
10
238.4362914
20
-99.6686974
11
254.8809122
21
-93.6833449
0
LINE
8
0
10
254.8809122
20
-93.6833449
11
249.2375798
21
-78.1784166
0
LINE
8
0
10
249.2375798
20
-78.1784166
11
232.792959
21
-84.1637691
0
LINE
8
0
10
232.792959
20
-84.1637691
11
238.4362914
21
-99.6686974
0
LINE
8
0
10
230.9705621
20
-133.247156
11
247.4151829
21
-127.2618035
0
LINE
8
0
10
247.4151829
20
-127.2618035
11
241.7718505
21
-111.7568752
0
LINE
8
0
10
241.7718505
20
-111.7568752
11
225.3272297
21
-117.7422277
0
LINE
8
0
10
225.3272297
20
-117.7422277
11
230.9705621
21
-133.247156
0
LINE
8
0
10
224.9852096
20
-116.8025351
11
241.4298304
21
-110.8171826
0
LINE
8
0
10
241.4298304
20
-110.8171826
11
235.786498
21
-95.3122543
0
LINE
8
0
10
235.786498
20
-95.3122543
11
219.3418772
21
-101.2976068
0
LINE
8
0
10
219.3418772
20
-101.2976068
11
224.9852096
21
-116.8025351
0
LINE
8
0
10
218.9998571
20
-100.3579143
11
235.4444779
21
-94.3725618
0
LINE
8
0
10
235.4444779
20
-94.3725618
11
229.8011455
21
-78.8676335
0
LINE
8
0
10
229.8011455
20
-78.8676335
11
213.3565247
21
-84.852986
0
LINE
8
0
10
213.3565247
20
-84.852986
11
218.9998571
21
-100.3579143
0
LINE
8
0
10
216.0487936
20
-146.3403155
11
232.4934144
21
-140.354963
0
LINE
8
0
10
232.4934144
20
-140.354963
11
226.850082
21
-124.8500347
0
LINE
8
0
10
226.850082
20
-124.8500347
11
210.4054612
21
-130.8353872
0
LINE
8
0
10
210.4054612
20
-130.8353872
11
216.0487936
21
-146.3403155
0
LINE
8
0
10
210.0634411
20
-129.8956947
11
226.5080619
21
-123.9103422
0
LINE
8
0
10
226.5080619
20
-123.9103422
11
220.8647295
21
-108.4054139
0
LINE
8
0
10
220.8647295
20
-108.4054139
11
204.4201087
21
-114.3907664
0
LINE
8
0
10
204.4201087
20
-114.3907664
11
210.0634411
21
-129.8956947
0
LINE
8
0
10
204.0780886
20
-113.4510738
11
220.5227094
21
-107.4657213
0
LINE
8
0
10
220.5227094
20
-107.4657213
11
214.879377
21
-91.960793
0
LINE
8
0
10
214.879377
20
-91.960793
11
198.4347562
21
-97.9461455
0
LINE
8
0
10
198.4347562
20
-97.9461455
11
204.0780886
21
-113.4510738
0
LINE
8
0
10
196.3729452
20
-146.3717476
11
212.817566
21
-140.3863951
0
LINE
8
0
10
212.817566
20
-140.3863951
11
207.1742336
21
-124.8814668
0
LINE
8
0
10
207.1742336
20
-124.8814668
11
190.7296128
21
-130.8668193
0
LINE
8
0
10
190.7296128
20
-130.8668193
11
196.3729452
21
-146.3717476
0
LINE
8
0
10
104.0594647
20
-163.2797227
11
117.8496529
21
-174.0537985
0
LINE
8
0
10
117.8496529
20
-174.0537985
11
128.0080673
21
-161.0516211
0
LINE
8
0
10
128.0080673
20
-161.0516211
11
114.2178791
21
-150.2775453
0
LINE
8
0
10
114.2178791
20
-150.2775453
11
104.0594647
21
-163.2797227
0
LINE
8
0
10
118.2937324
20
-174.4898763
11
129.3068392
21
-188.0899306
0
LINE
8
0
10
129.3068392
20
-188.0899306
11
142.1297476
21
-177.7061441
0
LINE
8
0
10
142.1297476
20
-177.7061441
11
131.1166408
21
-164.1060898
0
LINE
8
0
10
131.1166408
20
-164.1060898
11
118.2937324
21
-174.4898763
0
LINE
8
0
10
219.7268209
20
-174.0537985
11
233.5170091
21
-163.2797227
0
LINE
8
0
10
233.5170091
20
-163.2797227
11
223.3585947
21
-150.2775453
0
LINE
8
0
10
223.3585947
20
-150.2775453
11
209.5684065
21
-161.0516211
0
LINE
8
0
10
209.5684065
20
-161.0516211
11
219.7268209
21
-174.0537985
0
LINE
8
0
10
208.2696346
20
-188.0899306
11
219.2827414
21
-174.4898763
0
LINE
8
0
10
219.2827414
20
-174.4898763
11
206.459833
21
-164.1060898
0
LINE
8
0
10
206.459833
20
-164.1060898
11
195.4467262
21
-177.7061441
0
LINE
8
0
10
195.4467262
20
-177.7061441
11
208.2696346
21
-188.0899306
0
LINE
8
0
10
56.9087822
20
-115.8505956
11
69.8765404
21
-120.5704736
0
LINE
8
0
10
69.8765404
20
-120.5704736
11
74.5964184
21
-107.6027154
0
LINE
8
0
10
74.5964184
20
-107.6027154
11
61.6286602
21
-102.8828374
0
LINE
8
0
10
61.6286602
20
-102.8828374
11
56.9087822
21
-115.8505956
0
LINE
8
0
10
62.8941347
20
-99.4059748
11
75.8618929
21
-104.1258528
0
LINE
8
0
10
75.8618929
20
-104.1258528
11
80.5817709
21
-91.1580946
0
LINE
8
0
10
80.5817709
20
-91.1580946
11
67.6140127
21
-86.4382166
0
LINE
8
0
10
67.6140127
20
-86.4382166
11
62.8941347
21
-99.4059748
0
LINE
8
0
10
72.9250151
20
-125.9367388
11
85.8927733
21
-130.6566168
0
LINE
8
0
10
85.8927733
20
-130.6566168
11
90.6126513
21
-117.6888586
0
LINE
8
0
10
90.6126513
20
-117.6888586
11
77.6448931
21
-112.9689806
0
LINE
8
0
10
77.6448931
20
-112.9689806
11
72.9250151
21
-125.9367388
0
LINE
8
0
10
78.9103676
20
-109.4921179
11
91.8781258
21
-114.2119959
0
LINE
8
0
10
91.8781258
20
-114.2119959
11
96.5980038
21
-101.2442377
0
LINE
8
0
10
96.5980038
20
-101.2442377
11
83.6302456
21
-96.5243597
0
LINE
8
0
10
83.6302456
20
-96.5243597
11
78.9103676
21
-109.4921179
0
LINE
8
0
10
84.8957201
20
-93.0474971
11
97.8634783
21
-97.7673751
0
LINE
8
0
10
97.8634783
20
-97.7673751
11
102.5833563
21
-84.7996169
0
LINE
8
0
10
102.5833563
20
-84.7996169
11
89.6155981
21
-80.0797389
0
LINE
8
0
10
89.6155981
20
-80.0797389
11
84.8957201
21
-93.0474971
0
LINE
8
0
10
92.3614494
20
-126.6259557
11
105.3292076
21
-131.3458337
0
LINE
8
0
10
105.3292076
20
-131.3458337
11
110.0490856
21
-118.3780755
0
LINE
8
0
10
110.0490856
20
-118.3780755
11
97.0813274
21
-113.6581975
0
LINE
8
0
10
97.0813274
20
-113.6581975
11
92.3614494
21
-126.6259557
0
LINE
8
0
10
98.3468019
20
-110.1813348
11
111.3145601
21
-114.9012128
0
LINE
8
0
10
111.3145601
20
-114.9012128
11
116.0344381
21
-101.9334546
0
LINE
8
0
10
116.0344381
20
-101.9334546
11
103.0666799
21
-97.2135766
0
LINE
8
0
10
103.0666799
20
-97.2135766
11
98.3468019
21
-110.1813348
0
LINE
8
0
10
104.3321544
20
-93.736714
11
117.2999126
21
-98.456592
0
LINE
8
0
10
117.2999126
20
-98.456592
11
122.0197906
21
-85.4888338
0
LINE
8
0
10
122.0197906
20
-85.4888338
11
109.0520324
21
-80.7689558
0
LINE
8
0
10
109.0520324
20
-80.7689558
11
104.3321544
21
-93.736714
0
LINE
8
0
10
107.2832179
20
-139.7191152
11
120.2509761
21
-144.4389932
0
LINE
8
0
10
120.2509761
20
-144.4389932
11
124.9708541
21
-131.471235
0
LINE
8
0
10
124.9708541
20
-131.471235
11
112.0030959
21
-126.751357
0
LINE
8
0
10
112.0030959
20
-126.751357
11
107.2832179
21
-139.7191152
0
LINE
8
0
10
113.2685704
20
-123.2744944
11
126.2363286
21
-127.9943724
0
LINE
8
0
10
126.2363286
20
-127.9943724
11
130.9562066
21
-115.0266142
0
LINE
8
0
10
130.9562066
20
-115.0266142
11
117.9884484
21
-110.3067362
0
LINE
8
0
10
117.9884484
20
-110.3067362
11
113.2685704
21
-123.2744944
0
LINE
8
0
10
119.2539229
20
-106.8298735
11
132.2216811
21
-111.5497515
0
LINE
8
0
10
132.2216811
20
-111.5497515
11
136.9415591
21
-98.5819933
0
LINE
8
0
10
136.9415591
20
-98.5819933
11
123.9738009
21
-93.8621153
0
LINE
8
0
10
123.9738009
20
-93.8621153
11
119.2539229
21
-106.8298735
0
LINE
8
0
10
126.9590663
20
-139.7505473
11
139.9268245
21
-144.4704253
0
LINE
8
0
10
139.9268245
20
-144.4704253
11
144.6467025
21
-131.5026671
0
LINE
8
0
10
144.6467025
20
-131.5026671
11
131.6789443
21
-126.7827891
0
LINE
8
0
10
131.6789443
20
-126.7827891
11
126.9590663
21
-139.7505473
0
LINE
8
0
10
267.6999334
20
-120.5704736
11
280.6676916
21
-115.8505956
0
LINE
8
0
10
280.6676916
20
-115.8505956
11
275.9478136
21
-102.8828374
0
LINE
8
0
10
275.9478136
20
-102.8828374
11
262.9800554
21
-107.6027154
0
LINE
8
0
10
262.9800554
20
-107.6027154
11
267.6999334
21
-120.5704736
0
LINE
8
0
10
261.7145809
20
-104.1258528
11
274.6823391
21
-99.4059748
0
LINE
8
0
10
274.6823391
20
-99.4059748
11
269.9624611
21
-86.4382166
0
LINE
8
0
10
269.9624611
20
-86.4382166
11
256.9947029
21
-91.1580946
0
LINE
8
0
10
256.9947029
20
-91.1580946
11
261.7145809
21
-104.1258528
0
LINE
8
0
10
251.6837005
20
-130.6566168
11
264.6514587
21
-125.9367388
0
LINE
8
0
10
264.6514587
20
-125.9367388
11
259.9315807
21
-112.9689806
0
LINE
8
0
10
259.9315807
20
-112.9689806
11
246.9638225
21
-117.6888586
0
LINE
8
0
10
246.9638225
20
-117.6888586
11
251.6837005
21
-130.6566168
0
LINE
8
0
10
245.698348
20
-114.2119959
11
258.6661062
21
-109.4921179
0
LINE
8
0
10
258.6661062
20
-109.4921179
11
253.9462282
21
-96.5243597
0
LINE
8
0
10
253.9462282
20
-96.5243597
11
240.97847
21
-101.2442377
0
LINE
8
0
10
240.97847
20
-101.2442377
11
245.698348
21
-114.2119959
0
LINE
8
0
10
239.7129955
20
-97.7673751
11
252.6807537
21
-93.0474971
0
LINE
8
0
10
252.6807537
20
-93.0474971
11
247.9608757
21
-80.0797389
0
LINE
8
0
10
247.9608757
20
-80.0797389
11
234.9931175
21
-84.7996169
0
LINE
8
0
10
234.9931175
20
-84.7996169
11
239.7129955
21
-97.7673751
0
LINE
8
0
10
232.2472662
20
-131.3458337
11
245.2150244
21
-126.6259557
0
LINE
8
0
10
245.2150244
20
-126.6259557
11
240.4951464
21
-113.6581975
0
LINE
8
0
10
240.4951464
20
-113.6581975
11
227.5273882
21
-118.3780755
0
LINE
8
0
10
227.5273882
20
-118.3780755
11
232.2472662
21
-131.3458337
0
LINE
8
0
10
226.2619137
20
-114.9012128
11
239.2296719
21
-110.1813348
0
LINE
8
0
10
239.2296719
20
-110.1813348
11
234.5097939
21
-97.2135766
0
LINE
8
0
10
234.5097939
20
-97.2135766
11
221.5420357
21
-101.9334546
0
LINE
8
0
10
221.5420357
20
-101.9334546
11
226.2619137
21
-114.9012128
0
LINE
8
0
10
220.2765612
20
-98.456592
11
233.2443194
21
-93.736714
0
LINE
8
0
10
233.2443194
20
-93.736714
11
228.5244414
21
-80.7689558
0
LINE
8
0
10
228.5244414
20
-80.7689558
11
215.5566832
21
-85.4888338
0
LINE
8
0
10
215.5566832
20
-85.4888338
11
220.2765612
21
-98.456592
0
LINE
8
0
10
217.3254977
20
-144.4389932
11
230.2932559
21
-139.7191152
0
LINE
8
0
10
230.2932559
20
-139.7191152
11
225.5733779
21
-126.751357
0
LINE
8
0
10
225.5733779
20
-126.751357
11
212.6056197
21
-131.471235
0
LINE
8
0
10
212.6056197
20
-131.471235
11
217.3254977
21
-144.4389932
0
LINE
8
0
10
211.3401452
20
-127.9943724
11
224.3079034
21
-123.2744944
0
LINE
8
0
10
224.3079034
20
-123.2744944
11
219.5880254
21
-110.3067362
0
LINE
8
0
10
219.5880254
20
-110.3067362
11
206.6202672
21
-115.0266142
0
LINE
8
0
10
206.6202672
20
-115.0266142
11
211.3401452
21
-127.9943724
0
LINE
8
0
10
205.3547927
20
-111.5497515
11
218.3225509
21
-106.8298735
0
LINE
8
0
10
218.3225509
20
-106.8298735
11
213.6026729
21
-93.8621153
0
LINE
8
0
10
213.6026729
20
-93.8621153
11
200.6349147
21
-98.5819933
0
LINE
8
0
10
200.6349147
20
-98.5819933
11
205.3547927
21
-111.5497515
0
LINE
8
0
10
197.6496493
20
-144.4704253
11
210.6174075
21
-139.7505473
0
LINE
8
0
10
210.6174075
20
-139.7505473
11
205.8975295
21
-126.7827891
0
LINE
8
0
10
205.8975295
20
-126.7827891
11
192.9297713
21
-131.5026671
0
LINE
8
0
10
192.9297713
20
-131.5026671
11
197.6496493
21
-144.4704253
0
LINE
8
0
10
106.3484276
20
-163.3548819
11
117.222976
21
-171.8510103
0
LINE
8
0
10
117.222976
20
-171.8510103
11
125.7191044
21
-160.9764619
0
LINE
8
0
10
125.7191044
20
-160.9764619
11
114.844556
21
-152.4803335
0
LINE
8
0
10
114.844556
20
-152.4803335
11
106.3484276
21
-163.3548819
0
LINE
8
0
10
120.5071222
20
-175.0780138
11
129.1917436
21
-185.802628
0
LINE
8
0
10
129.1917436
20
-185.802628
11
139.9163578
21
-177.1180066
0
LINE
8
0
10
139.9163578
20
-177.1180066
11
131.2317364
21
-166.3933924
0
LINE
8
0
10
131.2317364
20
-166.3933924
11
120.5071222
21
-175.0780138
0
LINE
8
0
10
220.3534978
20
-171.8510103
11
231.2280462
21
-163.3548819
0
LINE
8
0
10
231.2280462
20
-163.3548819
11
222.7319178
21
-152.4803335
0
LINE
8
0
10
222.7319178
20
-152.4803335
11
211.8573694
21
-160.9764619
0
LINE
8
0
10
211.8573694
20
-160.9764619
11
220.3534978
21
-171.8510103
0
LINE
8
0
10
208.3847302
20
-185.802628
11
217.0693516
21
-175.0780138
0
LINE
8
0
10
217.0693516
20
-175.0780138
11
206.3447374
21
-166.3933924
0
LINE
8
0
10
206.3447374
20
-166.3933924
11
197.660116
21
-177.1180066
0
LINE
8
0
10
197.660116
20
-177.1180066
11
208.3847302
21
-185.802628
0
CIRCLE
8
0
10
96.9545275
20
-80.0904464
40
2.15
0
CIRCLE
8
0
10
240.6219463
20
-80.0904464
40
2.15
0
CIRCLE
8
0
10
77.8185005
20
-132.6662485
40
2.15
0
CIRCLE
8
0
10
259.7579733
20
-132.6662485
40
2.15
0
CIRCLE
8
0
10
131.7231545
20
-92.7451917
40
2.15
0
CIRCLE
8
0
10
205.8533193
20
-92.7451917
40
2.15
0
CIRCLE
8
0
10
112.5871275
20
-145.3209938
40
2.15
0
CIRCLE
8
0
10
224.9893463
20
-145.3209938
40
2.15
0
CIRCLE
8
0
10
81.7233925
20
-87.5829443
40
2.15
0
CIRCLE
8
0
10
255.8530813
20
-87.5829443
40
2.15
0
CIRCLE
8
0
10
68.7950311
20
-123.1033253
40
2.15
0
CIRCLE
8
0
10
268.7814427
20
-123.1033253
40
2.15
0
CIRCLE
8
0
10
130.7508309
20
-145.1213034
40
2.15
0
CIRCLE
8
0
10
206.8256429
20
-145.1213034
40
2.15
0
CIRCLE
8
0
10
117.6279968
20
-175.14964
40
2.15
0
CIRCLE
8
0
10
219.948477
20
-175.14964
40
2.15
0
CIRCLE
8
0
10
193.3203381
20
-108.7467347
40
2.15
0
CIRCLE
8
0
10
199.8187209
20
-126.6008945
40
2.15
0
CIRCLE
8
0
10
96.9545275
20
-80.0904464
40
1
0
CIRCLE
8
0
10
240.6219463
20
-80.0904464
40
1
0
CIRCLE
8
0
10
77.8185005
20
-132.6662485
40
1
0
CIRCLE
8
0
10
259.7579733
20
-132.6662485
40
1
0
CIRCLE
8
0
10
131.7231545
20
-92.7451917
40
1
0
CIRCLE
8
0
10
205.8533193
20
-92.7451917
40
1
0
CIRCLE
8
0
10
112.5871275
20
-145.3209938
40
1
0
CIRCLE
8
0
10
224.9893463
20
-145.3209938
40
1
0
CIRCLE
8
0
10
81.7233925
20
-87.5829443
40
1
0
CIRCLE
8
0
10
255.8530813
20
-87.5829443
40
1
0
CIRCLE
8
0
10
68.7950311
20
-123.1033253
40
1
0
CIRCLE
8
0
10
268.7814427
20
-123.1033253
40
1
0
CIRCLE
8
0
10
130.7508309
20
-145.1213034
40
1
0
CIRCLE
8
0
10
206.8256429
20
-145.1213034
40
1
0
CIRCLE
8
0
10
117.6279968
20
-175.14964
40
1
0
CIRCLE
8
0
10
219.948477
20
-175.14964
40
1
0
CIRCLE
8
0
10
193.3203381
20
-108.7467347
40
1
0
CIRCLE
8
0
10
199.8187209
20
-126.6008945
40
1
0
LINE
8
0
10
126.8714906
20
-147.00829
11
143.9724978
21
-100.023659
0
LINE
8
0
10
143.9724978
20
-100.023659
11
87.5909406
21
-79.5024504
0
LINE
8
0
10
87.5909406
20
-79.5024504
11
70.4899334
21
-126.4870814
0
ENDSEC
0
EOF