0
SECTION
2
HEADER
9
$INSUNITS
70
4
0
ENDSEC
0
SECTION
2
TABLES
0
TABLE
2
LTYPE
0
LTYPE
72
65
70
64
2
CONTINUOUS
3
______
73
0
40
0
0
ENDTAB
0
TABLE
2
LAYER
0
ENDTAB
0
ENDSEC
0
SECTION
2
ENTITIES
0
CIRCLE
8
0
10
109.25
20
-57.5
40
1
0
CIRCLE
8
0
10
109.25
20
-92.5
40
1
0
CIRCLE
8
0
10
164.75
20
-58
40
1
0
CIRCLE
8
0
10
164.75
20
-93
40
1
0
CIRCLE
8
0
10
178.0911099
20
-116.3558285
40
1
0
LINE
8
0
10
93.05
20
-106.95
11
106.95
21
-106.95
0
LINE
8
0
10
106.95
20
-106.95
11
106.95
21
-93.05
0
LINE
8
0
10
106.95
20
-93.05
11
93.05
21
-93.05
0
LINE
8
0
10
93.05
20
-93.05
11
93.05
21
-106.95
0
LINE
8
0
10
93.05
20
-89.45
11
106.95
21
-89.45
0
LINE
8
0
10
106.95
20
-89.45
11
106.95
21
-75.55
0
LINE
8
0
10
106.95
20
-75.55
11
93.05
21
-75.55
0
LINE
8
0
10
93.05
20
-75.55
11
93.05
21
-89.45
0
LINE
8
0
10
93.05
20
-71.95
11
106.95
21
-71.95
0
LINE
8
0
10
106.95
20
-71.95
11
106.95
21
-58.05
0
LINE
8
0
10
106.95
20
-58.05
11
93.05
21
-58.05
0
LINE
8
0
10
93.05
20
-58.05
11
93.05
21
-71.95
0
LINE
8
0
10
111.55
20
-94.95
11
125.45
21
-94.95
0
LINE
8
0
10
125.45
20
-94.95
11
125.45
21
-81.05
0
LINE
8
0
10
125.45
20
-81.05
11
111.55
21
-81.05
0
LINE
8
0
10
111.55
20
-81.05
11
111.55
21
-94.95
0
LINE
8
0
10
111.55
20
-77.45
11
125.45
21
-77.45
0
LINE
8
0
10
125.45
20
-77.45
11
125.45
21
-63.55
0
LINE
8
0
10
125.45
20
-63.55
11
111.55
21
-63.55
0
LINE
8
0
10
111.55
20
-63.55
11
111.55
21
-77.45
0
LINE
8
0
10
111.55
20
-59.95
11
125.45
21
-59.95
0
LINE
8
0
10
125.45
20
-59.95
11
125.45
21
-46.05
0
LINE
8
0
10
125.45
20
-46.05
11
111.55
21
-46.05
0
LINE
8
0
10
111.55
20
-46.05
11
111.55
21
-59.95
0
LINE
8
0
10
130.05
20
-88.95
11
143.95
21
-88.95
0
LINE
8
0
10
143.95
20
-88.95
11
143.95
21
-75.05
0
LINE
8
0
10
143.95
20
-75.05
11
130.05
21
-75.05
0
LINE
8
0
10
130.05
20
-75.05
11
130.05
21
-88.95
0
LINE
8
0
10
130.05
20
-71.45
11
143.95
21
-71.45
0
LINE
8
0
10
143.95
20
-71.45
11
143.95
21
-57.55
0
LINE
8
0
10
143.95
20
-57.55
11
130.05
21
-57.55
0
LINE
8
0
10
130.05
20
-57.55
11
130.05
21
-71.45
0
LINE
8
0
10
130.05
20
-53.95
11
143.95
21
-53.95
0
LINE
8
0
10
143.95
20
-53.95
11
143.95
21
-40.05
0
LINE
8
0
10
143.95
20
-40.05
11
130.05
21
-40.05
0
LINE
8
0
10
130.05
20
-40.05
11
130.05
21
-53.95
0
LINE
8
0
10
148.55
20
-94.95
11
162.45
21
-94.95
0
LINE
8
0
10
162.45
20
-94.95
11
162.45
21
-81.05
0
LINE
8
0
10
162.45
20
-81.05
11
148.55
21
-81.05
0
LINE
8
0
10
148.55
20
-81.05
11
148.55
21
-94.95
0
LINE
8
0
10
148.55
20
-77.45
11
162.45
21
-77.45
0
LINE
8
0
10
162.45
20
-77.45
11
162.45
21
-63.55
0
LINE
8
0
10
162.45
20
-63.55
11
148.55
21
-63.55
0
LINE
8
0
10
148.55
20
-63.55
11
148.55
21
-77.45
0
LINE
8
0
10
148.55
20
-59.95
11
162.45
21
-59.95
0
LINE
8
0
10
162.45
20
-59.95
11
162.45
21
-46.05
0
LINE
8
0
10
162.45
20
-46.05
11
148.55
21
-46.05
0
LINE
8
0
10
148.55
20
-46.05
11
148.55
21
-59.95
0
LINE
8
0
10
167.05
20
-97.95
11
180.95
21
-97.95
0
LINE
8
0
10
180.95
20
-97.95
11
180.95
21
-84.05
0
LINE
8
0
10
180.95
20
-84.05
11
167.05
21
-84.05
0
LINE
8
0
10
167.05
20
-84.05
11
167.05
21
-97.95
0
LINE
8
0
10
167.05
20
-80.45
11
180.95
21
-80.45
0
LINE
8
0
10
180.95
20
-80.45
11
180.95
21
-66.55
0
LINE
8
0
10
180.95
20
-66.55
11
167.05
21
-66.55
0
LINE
8
0
10
167.05
20
-66.55
11
167.05
21
-80.45
0
LINE
8
0
10
167.05
20
-62.95
11
180.95
21
-62.95
0
LINE
8
0
10
180.95
20
-62.95
11
180.95
21
-49.05
0
LINE
8
0
10
180.95
20
-49.05
11
167.05
21
-49.05
0
LINE
8
0
10
167.05
20
-49.05
11
167.05
21
-62.95
0
LINE
8
0
10
157.9880231
20
-118.1643921
11
171.4143921
21
-121.7619769
0
LINE
8
0
10
171.4143921
20
-121.7619769
11
175.0119769
21
-108.3356079
0
LINE
8
0
10
175.0119769
20
-108.3356079
11
161.5856079
21
-104.7380231
0
LINE
8
0
10
161.5856079
20
-104.7380231
11
157.9880231
21
-118.1643921
0
LINE
8
0
10
179.863841
20
-124.9966324
11
192.4615192
21
-130.8710262
0
LINE
8
0
10
192.4615192
20
-130.8710262
11
198.335913
21
-118.273348
0
LINE
8
0
10
198.335913
20
-118.273348
11
185.7382348
21
-112.3989542
0
LINE
8
0
10
185.7382348
20
-112.3989542
11
179.863841
21
-124.9966324
0
LINE
8
0
10
188.25
20
-88.6
11
199.05
21
-88.6
0
LINE
8
0
10
199.05
20
-88.6
11
199.05
21
-63.3
0
LINE
8
0
10
199.05
20
-63.3
11
188.25
21
-63.3
0
LINE
8
0
10
188.25
20
-63.3
11
188.25
21
-88.6
0
ENDSEC
0
EOF