0
SECTION
2
HEADER
9
$INSUNITS
70
4
0
ENDSEC
0
SECTION
2
TABLES
0
TABLE
2
LTYPE
0
LTYPE
72
65
70
64
2
CONTINUOUS
3
______
73
0
40
0
0
ENDTAB
0
TABLE
2
LAYER
0
ENDTAB
0
ENDSEC
0
SECTION
2
ENTITIES
0
LINE
8
0
10
89.55
20
-108.1365684
11
89.55
21
-55.8534247
0
LINE
8
0
10
188
20
-55.3
11
200.55
21
-55.3
0
LINE
8
0
10
203.55
20
-58.3
11
203.55
21
-115.55
0
LINE
8
0
10
203.55
20
-115.55
11
203.3292547
21
-117.1482086
0
LINE
8
0
10
203.3292547
20
-117.1482086
11
195.6683377
21
-133.5770981
0
ARC
8
0
10
92.55
20
-108.1365684
40
3
50
180
51
254.1279002
0
ARC
8
0
10
188
20
-52.3
40
3
50
190.4753137
51
270
0
ARC
8
0
10
200.55
20
-58.3
40
3
50
0
51
90
0
ARC
8
0
10
192.9494144
20
-132.3092432
40
3
50
261.9307273
51
334.9999983
0
LINE
8
0
10
185.05
20
-52.8454356
11
185.05
21
-48.1550902
0
ARC
8
0
10
152
20
-132.5
40
100
50
106.2038263
51
127.7985167
0
ARC
8
0
10
135.439
20
-160.9
40
125
50
67.5388203
51
94.9407707
0
ARC
8
0
10
88.5
20
-346
40
235
50
63.7254058
51
89.2125782
0
ARC
8
0
10
92.55
20
-55.8534247
40
3
50
127.7985167
51
180
0
ARC
8
0
10
124.9316422
20
-39.3533199
40
3
50
94.9407707
51
106.2038263
0
ARC
8
0
10
182.05
20
-48.1550902
40
3
50
0
51
67.5388203
0
LINE
8
0
10
91.25
20
-108.25
11
108.75
21
-108.25
0
LINE
8
0
10
108.75
20
-108.25
11
108.75
21
-91.75
0
LINE
8
0
10
108.75
20
-91.75
11
91.25
21
-91.75
0
LINE
8
0
10
91.25
20
-91.75
11
91.25
21
-108.25
0
LINE
8
0
10
91.25
20
-90.75
11
108.75
21
-90.75
0
LINE
8
0
10
108.75
20
-90.75
11
108.75
21
-74.25
0
LINE
8
0
10
108.75
20
-74.25
11
91.25
21
-74.25
0
LINE
8
0
10
91.25
20
-74.25
11
91.25
21
-90.75
0
LINE
8
0
10
91.25
20
-73.25
11
108.75
21
-73.25
0
LINE
8
0
10
108.75
20
-73.25
11
108.75
21
-56.75
0
LINE
8
0
10
108.75
20
-56.75
11
91.25
21
-56.75
0
LINE
8
0
10
91.25
20
-56.75
11
91.25
21
-73.25
0
LINE
8
0
10
109.75
20
-96.25
11
127.25
21
-96.25
0
LINE
8
0
10
127.25
20
-96.25
11
127.25
21
-79.75
0
LINE
8
0
10
127.25
20
-79.75
11
109.75
21
-79.75
0
LINE
8
0
10
109.75
20
-79.75
11
109.75
21
-96.25
0
LINE
8
0
10
109.75
20
-78.75
11
127.25
21
-78.75
0
LINE
8
0
10
127.25
20
-78.75
11
127.25
21
-62.25
0
LINE
8
0
10
127.25
20
-62.25
11
109.75
21
-62.25
0
LINE
8
0
10
109.75
20
-62.25
11
109.75
21
-78.75
0
LINE
8
0
10
109.75
20
-61.25
11
127.25
21
-61.25
0
LINE
8
0
10
127.25
20
-61.25
11
127.25
21
-44.75
0
LINE
8
0
10
127.25
20
-44.75
11
109.75
21
-44.75
0
LINE
8
0
10
109.75
20
-44.75
11
109.75
21
-61.25
0
LINE
8
0
10
128.25
20
-90.25
11
145.75
21
-90.25
0
LINE
8
0
10
145.75
20
-90.25
11
145.75
21
-73.75
0
LINE
8
0
10
145.75
20
-73.75
11
128.25
21
-73.75
0
LINE
8
0
10
128.25
20
-73.75
11
128.25
21
-90.25
0
LINE
8
0
10
128.25
20
-72.75
11
145.75
21
-72.75
0
LINE
8
0
10
145.75
20
-72.75
11
145.75
21
-56.25
0
LINE
8
0
10
145.75
20
-56.25
11
128.25
21
-56.25
0
LINE
8
0
10
128.25
20
-56.25
11
128.25
21
-72.75
0
LINE
8
0
10
128.25
20
-55.25
11
145.75
21
-55.25
0
LINE
8
0
10
145.75
20
-55.25
11
145.75
21
-38.75
0
LINE
8
0
10
145.75
20
-38.75
11
128.25
21
-38.75
0
LINE
8
0
10
128.25
20
-38.75
11
128.25
21
-55.25
0
LINE
8
0
10
146.75
20
-96.25
11
164.25
21
-96.25
0
LINE
8
0
10
164.25
20
-96.25
11
164.25
21
-79.75
0
LINE
8
0
10
164.25
20
-79.75
11
146.75
21
-79.75
0
LINE
8
0
10
146.75
20
-79.75
11
146.75
21
-96.25
0
LINE
8
0
10
146.75
20
-78.75
11
164.25
21
-78.75
0
LINE
8
0
10
164.25
20
-78.75
11
164.25
21
-62.25
0
LINE
8
0
10
164.25
20
-62.25
11
146.75
21
-62.25
0
LINE
8
0
10
146.75
20
-62.25
11
146.75
21
-78.75
0
LINE
8
0
10
146.75
20
-61.25
11
164.25
21
-61.25
0
LINE
8
0
10
164.25
20
-61.25
11
164.25
21
-44.75
0
LINE
8
0
10
164.25
20
-44.75
11
146.75
21
-44.75
0
LINE
8
0
10
146.75
20
-44.75
11
146.75
21
-61.25
0
LINE
8
0
10
165.25
20
-99.25
11
182.75
21
-99.25
0
LINE
8
0
10
182.75
20
-99.25
11
182.75
21
-82.75
0
LINE
8
0
10
182.75
20
-82.75
11
165.25
21
-82.75
0
LINE
8
0
10
165.25
20
-82.75
11
165.25
21
-99.25
0
LINE
8
0
10
165.25
20
-81.75
11
182.75
21
-81.75
0
LINE
8
0
10
182.75
20
-81.75
11
182.75
21
-65.25
0
LINE
8
0
10
182.75
20
-65.25
11
165.25
21
-65.25
0
LINE
8
0
10
165.25
20
-65.25
11
165.25
21
-81.75
0
LINE
8
0
10
165.25
20
-64.25
11
182.75
21
-64.25
0
LINE
8
0
10
182.75
20
-64.25
11
182.75
21
-47.75
0
LINE
8
0
10
182.75
20
-47.75
11
165.25
21
-47.75
0
LINE
8
0
10
165.25
20
-47.75
11
165.25
21
-64.25
0
LINE
8
0
10
155.9128919
20
-118.9542214
11
172.8165939
21
-123.4835547
0
LINE
8
0
10
172.8165939
20
-123.4835547
11
177.0871081
21
-107.5457786
0
LINE
8
0
10
177.0871081
20
-107.5457786
11
160.1834061
21
-103.0164453
0
LINE
8
0
10
160.1834061
20
-103.0164453
11
155.9128919
21
-118.9542214
0
LINE
8
0
10
177.6830832
20
-125.4141197
11
193.5434695
21
-132.8099392
0
LINE
8
0
10
193.5434695
20
-132.8099392
11
200.5166708
21
-117.8558607
0
LINE
8
0
10
200.5166708
20
-117.8558607
11
184.6562845
21
-110.4600412
0
LINE
8
0
10
184.6562845
20
-110.4600412
11
177.6830832
21
-125.4141197
0
LINE
8
0
10
184.5
20
-90.45
11
202.8
21
-90.45
0
LINE
8
0
10
202.8
20
-90.45
11
202.8
21
-56.35
0
LINE
8
0
10
202.8
20
-56.35
11
184.5
21
-56.35
0
LINE
8
0
10
184.5
20
-56.35
11
184.5
21
-90.45
0
LINE
8
0
10
186.65
20
-93.2
11
200.65
21
-93.2
0
LINE
8
0
10
200.65
20
-93.2
11
200.65
21
-57.2
0
LINE
8
0
10
200.65
20
-57.2
11
186.65
21
-57.2
0
LINE
8
0
10
186.65
20
-57.2
11
186.65
21
-93.2
0
LINE
8
0
10
188.25
20
-88.6
11
199.05
21
-88.6
0
LINE
8
0
10
199.05
20
-88.6
11
199.05
21
-63.3
0
LINE
8
0
10
199.05
20
-63.3
11
188.25
21
-63.3
0
LINE
8
0
10
188.25
20
-63.3
11
188.25
21
-88.6
0
LINE
8
0
10
197.7
20
-59.425
11
197.7
21
-54.875
0
LINE
8
0
10
197.7
20
-54.875
11
188.9
21
-54.875
0
LINE
8
0
10
188.9
20
-54.875
11
188.9
21
-59.425
0
LINE
8
0
10
188.9
20
-59.425
11
197.7
21
-59.425
0
LINE
8
0
10
190.3
20
-103.2
11
200.65
21
-103.2
0
LINE
8
0
10
200.65
20
-103.2
11
200.65
21
-96.3
0
LINE
8
0
10
190.3
20
-96.3
11
200.65
21
-96.3
0
LINE
8
0
10
190.3
20
-96.3
11
190.3
21
-103.2
0
LINE
8
0
10
102.2322304
20
-49.9279826
11
100.3804577
21
-47.0765027
0
LINE
8
0
10
100.3804577
20
-47.0765027
11
95.7677696
21
-50.0720174
0
LINE
8
0
10
95.7677696
20
-50.0720174
11
97.6195423
21
-52.9234973
0
LINE
8
0
10
97.6195423
20
-52.9234973
11
102.2322304
21
-49.9279826
0
ENDSEC
0
EOF